<svg width="354" height="92" viewBox="0 0 354 92" fill="none" xmlns="http://www.w3.org/2000/svg">
<g filter="url(#filter0_d_13120_73105)">
<g clip-path="url(#clip0_13120_73105)">
<rect x="8" width="338" height="64" rx="12" fill="#344444"/>
<rect x="8" width="338" height="64" rx="12" fill="url(#paint0_linear_13120_73105)" fill-opacity="0.4" style="mix-blend-mode:soft-light"/>
<rect x="8" width="338" height="64" rx="12" fill="url(#paint1_radial_13120_73105)" fill-opacity="0.2" style="mix-blend-mode:overlay"/>
<rect x="8" width="338" height="64" rx="12" fill="url(#paint2_radial_13120_73105)" fill-opacity="0.7" style="mix-blend-mode:overlay"/>
<rect x="8" width="338" height="64" rx="12" fill="url(#paint3_linear_13120_73105)" fill-opacity="0.1" style="mix-blend-mode:plus-lighter"/>
<g style="mix-blend-mode:soft-light" filter="url(#filter1_f_13120_73105)">
<ellipse cx="177" cy="-9.5" rx="177" ry="19.5" fill="url(#paint4_radial_13120_73105)"/>
</g>
<path d="M37.0057 39V37.7216L41.8068 32.4659C42.3703 31.8504 42.8343 31.3153 43.1989 30.8608C43.5634 30.4015 43.8333 29.9706 44.0085 29.5682C44.1884 29.161 44.2784 28.7348 44.2784 28.2898C44.2784 27.7784 44.1553 27.3357 43.9091 26.9616C43.6676 26.5876 43.3362 26.2988 42.9148 26.0952C42.4934 25.8916 42.0199 25.7898 41.4943 25.7898C40.9356 25.7898 40.4479 25.9058 40.0312 26.1378C39.6193 26.3651 39.2997 26.6847 39.0724 27.0966C38.8499 27.5085 38.7386 27.9915 38.7386 28.5455H37.0625C37.0625 27.6932 37.259 26.9451 37.652 26.3011C38.045 25.6572 38.58 25.1553 39.2571 24.7955C39.9389 24.4356 40.7036 24.2557 41.5511 24.2557C42.4034 24.2557 43.1586 24.4356 43.8168 24.7955C44.4749 25.1553 44.991 25.6406 45.3651 26.2514C45.7391 26.8622 45.9261 27.5417 45.9261 28.2898C45.9261 28.8248 45.8291 29.348 45.6349 29.8594C45.4455 30.366 45.1141 30.9318 44.6406 31.5568C44.1719 32.1771 43.5208 32.9347 42.6875 33.8295L39.4205 37.3239V37.4375H46.1818V39H37.0057ZM53.8594 39.1989C52.7893 39.1989 51.8778 38.9077 51.125 38.3253C50.3722 37.7382 49.7969 36.8883 49.3991 35.7756C49.0014 34.6581 48.8026 33.3087 48.8026 31.7273C48.8026 30.1553 49.0014 28.813 49.3991 27.7003C49.8016 26.5829 50.3793 25.7306 51.1321 25.1435C51.8897 24.5516 52.7988 24.2557 53.8594 24.2557C54.92 24.2557 55.8267 24.5516 56.5795 25.1435C57.3371 25.7306 57.9148 26.5829 58.3125 27.7003C58.715 28.813 58.9162 30.1553 58.9162 31.7273C58.9162 33.3087 58.7173 34.6581 58.3196 35.7756C57.9219 36.8883 57.3466 37.7382 56.5938 38.3253C55.8409 38.9077 54.9295 39.1989 53.8594 39.1989ZM53.8594 37.6364C54.92 37.6364 55.7438 37.125 56.331 36.1023C56.9181 35.0795 57.2116 33.6212 57.2116 31.7273C57.2116 30.4678 57.0767 29.3954 56.8068 28.5099C56.5417 27.6245 56.1581 26.9498 55.6562 26.4858C55.1591 26.0218 54.5601 25.7898 53.8594 25.7898C52.8082 25.7898 51.9867 26.3082 51.3949 27.3452C50.803 28.3774 50.5071 29.8381 50.5071 31.7273C50.5071 32.9867 50.6397 34.0568 50.9048 34.9375C51.17 35.8182 51.5511 36.4882 52.0483 36.9474C52.5502 37.4067 53.1539 37.6364 53.8594 37.6364ZM61.6151 39V37.7216L66.4162 32.4659C66.9796 31.8504 67.4437 31.3153 67.8082 30.8608C68.1728 30.4015 68.4427 29.9706 68.6179 29.5682C68.7978 29.161 68.8878 28.7348 68.8878 28.2898C68.8878 27.7784 68.7647 27.3357 68.5185 26.9616C68.277 26.5876 67.9455 26.2988 67.5241 26.0952C67.1027 25.8916 66.6293 25.7898 66.1037 25.7898C65.545 25.7898 65.0573 25.9058 64.6406 26.1378C64.2287 26.3651 63.9091 26.6847 63.6818 27.0966C63.4593 27.5085 63.348 27.9915 63.348 28.5455H61.6719C61.6719 27.6932 61.8684 26.9451 62.2614 26.3011C62.6544 25.6572 63.1894 25.1553 63.8665 24.7955C64.5483 24.4356 65.313 24.2557 66.1605 24.2557C67.0128 24.2557 67.768 24.4356 68.4261 24.7955C69.0843 25.1553 69.6004 25.6406 69.9744 26.2514C70.3485 26.8622 70.5355 27.5417 70.5355 28.2898C70.5355 28.8248 70.4384 29.348 70.2443 29.8594C70.0549 30.366 69.7235 30.9318 69.25 31.5568C68.7812 32.1771 68.1302 32.9347 67.2969 33.8295L64.0298 37.3239V37.4375H70.7912V39H61.6151ZM73.071 36.017V34.5682L79.4631 24.4545H80.5142V26.6989H79.804L74.9744 34.3409V34.4545H83.5824V36.017H73.071ZM79.9176 39V35.5767V34.902V24.4545H81.5938V39H79.9176ZM100.079 28.0909C99.994 27.3712 99.6483 26.8125 99.0423 26.4148C98.4362 26.017 97.6928 25.8182 96.8121 25.8182C96.1682 25.8182 95.6048 25.9223 95.1218 26.1307C94.6436 26.339 94.2695 26.6255 93.9996 26.9901C93.7345 27.3546 93.6019 27.7689 93.6019 28.233C93.6019 28.6212 93.6942 28.955 93.8789 29.2344C94.0683 29.509 94.3098 29.7386 94.6033 29.9233C94.8969 30.1032 95.2047 30.2524 95.5266 30.3707C95.8486 30.4844 96.1445 30.5767 96.4144 30.6477L97.8917 31.0455C98.2705 31.1449 98.6919 31.2822 99.1559 31.4574C99.6246 31.6326 100.072 31.8717 100.498 32.1747C100.929 32.473 101.284 32.8565 101.564 33.3253C101.843 33.794 101.983 34.3693 101.983 35.0511C101.983 35.8371 101.777 36.5473 101.365 37.1818C100.958 37.8163 100.361 38.3205 99.5749 38.6946C98.7937 39.0687 97.8443 39.2557 96.7269 39.2557C95.6853 39.2557 94.7833 39.0876 94.021 38.7514C93.2634 38.4152 92.6668 37.9465 92.2312 37.3452C91.8003 36.7438 91.5565 36.0455 91.4996 35.25H93.3178C93.3652 35.7992 93.5498 36.2538 93.8718 36.6136C94.1985 36.9687 94.6104 37.2339 95.1076 37.4091C95.6095 37.5795 96.1493 37.6648 96.7269 37.6648C97.3993 37.6648 98.003 37.5559 98.538 37.3381C99.073 37.1155 99.4968 36.8078 99.8093 36.4148C100.122 36.017 100.278 35.553 100.278 35.0227C100.278 34.5398 100.143 34.1468 99.8732 33.8438C99.6033 33.5407 99.2482 33.2945 98.8079 33.1051C98.3675 32.9157 97.8917 32.75 97.3803 32.608L95.5906 32.0966C94.4542 31.7699 93.5546 31.3035 92.8917 30.6974C92.2288 30.0914 91.8974 29.2983 91.8974 28.3182C91.8974 27.5038 92.1175 26.7936 92.5579 26.1875C93.003 25.5767 93.5996 25.1032 94.3477 24.767C95.1005 24.4261 95.9409 24.2557 96.869 24.2557C97.8065 24.2557 98.6398 24.4238 99.369 24.7599C100.098 25.0914 100.676 25.5459 101.102 26.1236C101.533 26.7012 101.76 27.357 101.784 28.0909H100.079ZM111.526 34.5398V28.0909H113.202V39H111.526V37.1534H111.413C111.157 37.7074 110.759 38.1785 110.219 38.5668C109.68 38.9503 108.998 39.142 108.174 39.142C107.492 39.142 106.886 38.9929 106.356 38.6946C105.826 38.3916 105.409 37.937 105.106 37.331C104.803 36.7202 104.651 35.9508 104.651 35.0227V28.0909H106.327V34.9091C106.327 35.7045 106.55 36.339 106.995 36.8125C107.445 37.286 108.018 37.5227 108.714 37.5227C109.13 37.5227 109.554 37.4162 109.985 37.2031C110.421 36.9901 110.785 36.6634 111.079 36.223C111.377 35.7827 111.526 35.2216 111.526 34.5398ZM124 30.5341L122.494 30.9602C122.399 30.7093 122.26 30.4654 122.075 30.2287C121.895 29.9872 121.649 29.7884 121.336 29.6321C121.024 29.4759 120.624 29.3977 120.136 29.3977C119.468 29.3977 118.912 29.5516 118.467 29.8594C118.027 30.1624 117.806 30.5483 117.806 31.017C117.806 31.4337 117.958 31.7628 118.261 32.0043C118.564 32.2457 119.038 32.447 119.681 32.608L121.301 33.0057C122.276 33.2424 123.003 33.6046 123.481 34.0923C123.959 34.5753 124.199 35.1979 124.199 35.9602C124.199 36.5852 124.019 37.1439 123.659 37.6364C123.304 38.1288 122.806 38.517 122.167 38.8011C121.528 39.0852 120.785 39.2273 119.937 39.2273C118.824 39.2273 117.904 38.9858 117.174 38.5028C116.445 38.0199 115.984 37.3144 115.789 36.3864L117.38 35.9886C117.532 36.5758 117.818 37.0161 118.24 37.3097C118.666 37.6032 119.222 37.75 119.909 37.75C120.69 37.75 121.31 37.5843 121.77 37.2528C122.234 36.9167 122.466 36.5142 122.466 36.0455C122.466 35.6667 122.333 35.3494 122.068 35.0938C121.803 34.8333 121.395 34.6392 120.846 34.5114L119.028 34.0852C118.029 33.8485 117.295 33.4815 116.826 32.9844C116.362 32.4825 116.13 31.8551 116.13 31.1023C116.13 30.4867 116.303 29.9422 116.649 29.4688C116.999 28.9953 117.475 28.6236 118.076 28.3537C118.682 28.0838 119.369 27.9489 120.136 27.9489C121.216 27.9489 122.063 28.1856 122.679 28.6591C123.299 29.1326 123.739 29.7576 124 30.5341ZM131.466 28.0909V29.5114H125.812V28.0909H131.466ZM127.46 25.4773H129.136V35.875C129.136 36.3485 129.205 36.7036 129.342 36.9403C129.484 37.1723 129.664 37.3286 129.882 37.4091C130.105 37.4848 130.339 37.5227 130.585 37.5227C130.77 37.5227 130.921 37.5133 131.04 37.4943C131.158 37.4706 131.253 37.4517 131.324 37.4375L131.665 38.9432C131.551 38.9858 131.393 39.0284 131.189 39.071C130.985 39.1184 130.727 39.142 130.415 39.142C129.941 39.142 129.477 39.0402 129.023 38.8366C128.573 38.633 128.199 38.3229 127.901 37.9062C127.607 37.4896 127.46 36.964 127.46 36.3295V25.4773ZM137.197 39.2557C136.506 39.2557 135.879 39.1255 135.315 38.8651C134.752 38.5999 134.304 38.2188 133.973 37.7216C133.642 37.2197 133.476 36.6136 133.476 35.9034C133.476 35.2784 133.599 34.7718 133.845 34.3835C134.091 33.9905 134.42 33.6828 134.832 33.4602C135.244 33.2377 135.699 33.072 136.196 32.9631C136.698 32.8494 137.202 32.7595 137.709 32.6932C138.372 32.608 138.909 32.544 139.321 32.5014C139.738 32.4541 140.041 32.3759 140.23 32.267C140.424 32.1581 140.521 31.9687 140.521 31.6989V31.642C140.521 30.9413 140.33 30.3968 139.946 30.0085C139.567 29.6203 138.992 29.4261 138.22 29.4261C137.42 29.4261 136.793 29.6013 136.338 29.9517C135.884 30.3021 135.564 30.6761 135.379 31.0739L133.788 30.5057C134.072 29.8428 134.451 29.3267 134.925 28.9574C135.403 28.5833 135.924 28.3229 136.487 28.1761C137.055 28.0246 137.614 27.9489 138.163 27.9489C138.514 27.9489 138.916 27.9915 139.371 28.0767C139.83 28.1572 140.273 28.3253 140.699 28.581C141.13 28.8366 141.487 29.2225 141.771 29.7386C142.055 30.2547 142.197 30.946 142.197 31.8125V39H140.521V37.5227H140.436C140.322 37.7595 140.133 38.0128 139.868 38.2827C139.603 38.5526 139.25 38.7822 138.81 38.9716C138.369 39.161 137.832 39.2557 137.197 39.2557ZM137.453 37.75C138.116 37.75 138.675 37.6198 139.129 37.3594C139.589 37.099 139.934 36.7628 140.166 36.3509C140.403 35.9389 140.521 35.5057 140.521 35.0511V33.517C140.45 33.6023 140.294 33.6804 140.053 33.7514C139.816 33.8177 139.541 33.8769 139.229 33.929C138.921 33.9763 138.62 34.0189 138.327 34.0568C138.038 34.09 137.804 34.1184 137.624 34.142C137.188 34.1989 136.781 34.2912 136.402 34.419C136.028 34.5421 135.725 34.7292 135.493 34.9801C135.266 35.2263 135.152 35.5625 135.152 35.9886C135.152 36.571 135.367 37.0114 135.798 37.3097C136.234 37.6032 136.786 37.75 137.453 37.75ZM145.257 39V28.0909H146.933V39H145.257ZM146.109 26.2727C145.782 26.2727 145.501 26.1615 145.264 25.9389C145.032 25.7164 144.916 25.4489 144.916 25.1364C144.916 24.8239 145.032 24.5563 145.264 24.3338C145.501 24.1113 145.782 24 146.109 24C146.436 24 146.715 24.1113 146.947 24.3338C147.184 24.5563 147.302 24.8239 147.302 25.1364C147.302 25.4489 147.184 25.7164 146.947 25.9389C146.715 26.1615 146.436 26.2727 146.109 26.2727ZM151.679 32.4375V39H150.003V28.0909H151.622V29.7955H151.764C152.02 29.2415 152.408 28.7964 152.929 28.4602C153.45 28.1193 154.122 27.9489 154.946 27.9489C155.685 27.9489 156.331 28.1004 156.885 28.4034C157.439 28.7017 157.87 29.1562 158.178 29.767C158.485 30.3731 158.639 31.1402 158.639 32.0682V39H156.963V32.1818C156.963 31.3248 156.741 30.6572 156.295 30.179C155.85 29.696 155.24 29.4545 154.463 29.4545C153.928 29.4545 153.45 29.5705 153.028 29.8026C152.612 30.0346 152.283 30.3731 152.041 30.8182C151.8 31.2633 151.679 31.803 151.679 32.4375ZM164.912 39.2557C164.221 39.2557 163.594 39.1255 163.03 38.8651C162.467 38.5999 162.019 38.2188 161.688 37.7216C161.356 37.2197 161.191 36.6136 161.191 35.9034C161.191 35.2784 161.314 34.7718 161.56 34.3835C161.806 33.9905 162.135 33.6828 162.547 33.4602C162.959 33.2377 163.414 33.072 163.911 32.9631C164.413 32.8494 164.917 32.7595 165.424 32.6932C166.087 32.608 166.624 32.544 167.036 32.5014C167.453 32.4541 167.756 32.3759 167.945 32.267C168.139 32.1581 168.236 31.9687 168.236 31.6989V31.642C168.236 30.9413 168.044 30.3968 167.661 30.0085C167.282 29.6203 166.707 29.4261 165.935 29.4261C165.135 29.4261 164.507 29.6013 164.053 29.9517C163.598 30.3021 163.279 30.6761 163.094 31.0739L161.503 30.5057C161.787 29.8428 162.166 29.3267 162.64 28.9574C163.118 28.5833 163.639 28.3229 164.202 28.1761C164.77 28.0246 165.329 27.9489 165.878 27.9489C166.229 27.9489 166.631 27.9915 167.086 28.0767C167.545 28.1572 167.988 28.3253 168.414 28.581C168.845 28.8366 169.202 29.2225 169.486 29.7386C169.77 30.2547 169.912 30.946 169.912 31.8125V39H168.236V37.5227H168.151C168.037 37.7595 167.848 38.0128 167.583 38.2827C167.318 38.5526 166.965 38.7822 166.525 38.9716C166.084 39.161 165.547 39.2557 164.912 39.2557ZM165.168 37.75C165.831 37.75 166.39 37.6198 166.844 37.3594C167.303 37.099 167.649 36.7628 167.881 36.3509C168.118 35.9389 168.236 35.5057 168.236 35.0511V33.517C168.165 33.6023 168.009 33.6804 167.767 33.7514C167.531 33.8177 167.256 33.8769 166.944 33.929C166.636 33.9763 166.335 34.0189 166.042 34.0568C165.753 34.09 165.518 34.1184 165.338 34.142C164.903 34.1989 164.496 34.2912 164.117 34.419C163.743 34.5421 163.44 34.7292 163.208 34.9801C162.98 35.2263 162.867 35.5625 162.867 35.9886C162.867 36.571 163.082 37.0114 163.513 37.3097C163.949 37.6032 164.5 37.75 165.168 37.75ZM173.199 39V24.4545H174.875V29.8239H175.017C175.14 29.6345 175.311 29.393 175.528 29.0994C175.751 28.8011 176.068 28.536 176.48 28.304C176.897 28.0672 177.46 27.9489 178.17 27.9489C179.089 27.9489 179.899 28.1785 180.599 28.6378C181.3 29.0971 181.847 29.7481 182.24 30.5909C182.633 31.4337 182.83 32.428 182.83 33.5739C182.83 34.7292 182.633 35.7306 182.24 36.5781C181.847 37.4209 181.303 38.0743 180.607 38.5384C179.911 38.9976 179.108 39.2273 178.199 39.2273C177.498 39.2273 176.937 39.1113 176.516 38.8793C176.094 38.6425 175.77 38.375 175.543 38.0767C175.315 37.7737 175.14 37.5227 175.017 37.3239H174.818V39H173.199ZM174.847 33.5455C174.847 34.3693 174.967 35.0961 175.209 35.7259C175.45 36.3509 175.803 36.8409 176.267 37.196C176.731 37.5464 177.299 37.7216 177.972 37.7216C178.672 37.7216 179.257 37.5369 179.726 37.1676C180.199 36.7936 180.554 36.2917 180.791 35.6619C181.033 35.0275 181.153 34.322 181.153 33.5455C181.153 32.7784 181.035 32.0871 180.798 31.4716C180.566 30.8513 180.214 30.3613 179.74 30.0014C179.271 29.6368 178.682 29.4545 177.972 29.4545C177.29 29.4545 176.717 29.6274 176.253 29.973C175.789 30.3139 175.438 30.7921 175.202 31.4077C174.965 32.0185 174.847 32.7311 174.847 33.5455ZM185.393 39V28.0909H187.07V39H185.393ZM186.246 26.2727C185.919 26.2727 185.637 26.1615 185.401 25.9389C185.169 25.7164 185.053 25.4489 185.053 25.1364C185.053 24.8239 185.169 24.5563 185.401 24.3338C185.637 24.1113 185.919 24 186.246 24C186.572 24 186.852 24.1113 187.084 24.3338C187.321 24.5563 187.439 24.8239 187.439 25.1364C187.439 25.4489 187.321 25.7164 187.084 25.9389C186.852 26.1615 186.572 26.2727 186.246 26.2727ZM191.816 24.4545V39H190.14V24.4545H191.816ZM194.886 39V28.0909H196.562V39H194.886ZM195.738 26.2727C195.411 26.2727 195.129 26.1615 194.893 25.9389C194.661 25.7164 194.545 25.4489 194.545 25.1364C194.545 24.8239 194.661 24.5563 194.893 24.3338C195.129 24.1113 195.411 24 195.738 24C196.065 24 196.344 24.1113 196.576 24.3338C196.813 24.5563 196.931 24.8239 196.931 25.1364C196.931 25.4489 196.813 25.7164 196.576 25.9389C196.344 26.1615 196.065 26.2727 195.738 26.2727ZM204.376 28.0909V29.5114H198.723V28.0909H204.376ZM200.37 25.4773H202.047V35.875C202.047 36.3485 202.115 36.7036 202.252 36.9403C202.395 37.1723 202.574 37.3286 202.792 37.4091C203.015 37.4848 203.249 37.5227 203.495 37.5227C203.68 37.5227 203.832 37.5133 203.95 37.4943C204.068 37.4706 204.163 37.4517 204.234 37.4375L204.575 38.9432C204.461 38.9858 204.303 39.0284 204.099 39.071C203.895 39.1184 203.637 39.142 203.325 39.142C202.851 39.142 202.387 39.0402 201.933 38.8366C201.483 38.633 201.109 38.3229 200.811 37.9062C200.517 37.4896 200.37 36.964 200.37 36.3295V25.4773ZM207.977 43.0909C207.693 43.0909 207.44 43.0672 207.217 43.0199C206.994 42.9773 206.841 42.9347 206.755 42.892L207.181 41.4148C207.589 41.5189 207.949 41.5568 208.261 41.5284C208.574 41.5 208.85 41.3603 209.092 41.1094C209.338 40.8632 209.563 40.4631 209.767 39.9091L210.079 39.0568L206.045 28.0909H207.863L210.875 36.7841H210.988L214 28.0909H215.818L211.187 40.5909C210.979 41.1544 210.721 41.6207 210.413 41.9901C210.105 42.3641 209.748 42.6411 209.341 42.821C208.938 43.0009 208.484 43.0909 207.977 43.0909ZM223.882 39V24.4545H228.797C229.934 24.4545 230.866 24.6487 231.596 25.0369C232.325 25.4205 232.864 25.9484 233.215 26.6207C233.565 27.2931 233.74 28.0578 233.74 28.9148C233.74 29.7718 233.565 30.5317 233.215 31.1946C232.864 31.8575 232.327 32.3783 231.603 32.7571C230.878 33.1312 229.953 33.3182 228.826 33.3182H224.848V31.7273H228.769C229.545 31.7273 230.17 31.6136 230.644 31.3864C231.122 31.1591 231.468 30.8371 231.681 30.4205C231.899 29.9991 232.007 29.4972 232.007 28.9148C232.007 28.3324 231.899 27.8234 231.681 27.3878C231.463 26.9522 231.115 26.616 230.637 26.3793C230.158 26.1378 229.526 26.017 228.74 26.017H225.644V39H223.882ZM230.729 32.4659L234.309 39H232.263L228.74 32.4659H230.729ZM240.905 39.2273C239.854 39.2273 238.947 38.9953 238.185 38.5312C237.427 38.0625 236.842 37.4091 236.43 36.571C236.023 35.7282 235.82 34.7481 235.82 33.6307C235.82 32.5133 236.023 31.5284 236.43 30.6761C236.842 29.8191 237.415 29.1515 238.149 28.6733C238.888 28.1903 239.75 27.9489 240.734 27.9489C241.303 27.9489 241.864 28.0436 242.418 28.233C242.972 28.4223 243.476 28.7301 243.93 29.1562C244.385 29.5777 244.747 30.1364 245.017 30.8324C245.287 31.5284 245.422 32.3854 245.422 33.4034V34.1136H237.013V32.6648H243.717C243.717 32.0492 243.594 31.5 243.348 31.017C243.107 30.5341 242.761 30.1529 242.311 29.8736C241.866 29.5942 241.34 29.4545 240.734 29.4545C240.067 29.4545 239.489 29.6203 239.001 29.9517C238.518 30.2784 238.147 30.7045 237.886 31.2301C237.626 31.7557 237.496 32.3191 237.496 32.9205V33.8864C237.496 34.7102 237.638 35.4086 237.922 35.9815C238.211 36.5497 238.611 36.983 239.122 37.2812C239.634 37.5748 240.228 37.7216 240.905 37.7216C241.345 37.7216 241.743 37.66 242.098 37.5369C242.458 37.4091 242.768 37.2197 243.028 36.9688C243.289 36.7131 243.49 36.3958 243.632 36.017L245.251 36.4716C245.081 37.0208 244.795 37.5038 244.392 37.9205C243.99 38.3324 243.492 38.6544 242.901 38.8864C242.309 39.1136 241.643 39.2273 240.905 39.2273ZM247.972 43.0909V28.0909H249.591V29.8239H249.79C249.913 29.6345 250.083 29.393 250.301 29.0994C250.524 28.8011 250.841 28.536 251.253 28.304C251.67 28.0672 252.233 27.9489 252.943 27.9489C253.862 27.9489 254.671 28.1785 255.372 28.6378C256.073 29.0971 256.62 29.7481 257.013 30.5909C257.406 31.4337 257.602 32.428 257.602 33.5739C257.602 34.7292 257.406 35.7306 257.013 36.5781C256.62 37.4209 256.075 38.0743 255.379 38.5384C254.683 38.9976 253.881 39.2273 252.972 39.2273C252.271 39.2273 251.71 39.1113 251.288 38.8793C250.867 38.6425 250.543 38.375 250.315 38.0767C250.088 37.7737 249.913 37.5227 249.79 37.3239H249.648V43.0909H247.972ZM249.619 33.5455C249.619 34.3693 249.74 35.0961 249.982 35.7259C250.223 36.3509 250.576 36.8409 251.04 37.196C251.504 37.5464 252.072 37.7216 252.744 37.7216C253.445 37.7216 254.03 37.5369 254.499 37.1676C254.972 36.7936 255.327 36.2917 255.564 35.6619C255.805 35.0275 255.926 34.322 255.926 33.5455C255.926 32.7784 255.808 32.0871 255.571 31.4716C255.339 30.8513 254.986 30.3613 254.513 30.0014C254.044 29.6368 253.455 29.4545 252.744 29.4545C252.063 29.4545 251.49 29.6274 251.026 29.973C250.562 30.3139 250.211 30.7921 249.974 31.4077C249.738 32.0185 249.619 32.7311 249.619 33.5455ZM264.591 39.2273C263.606 39.2273 262.742 38.9929 261.999 38.5241C261.26 38.0554 260.682 37.3996 260.266 36.5568C259.854 35.714 259.648 34.7292 259.648 33.6023C259.648 32.4659 259.854 31.474 260.266 30.6264C260.682 29.7789 261.26 29.1207 261.999 28.652C262.742 28.1832 263.606 27.9489 264.591 27.9489C265.576 27.9489 266.438 28.1832 267.176 28.652C267.92 29.1207 268.497 29.7789 268.909 30.6264C269.326 31.474 269.534 32.4659 269.534 33.6023C269.534 34.7292 269.326 35.714 268.909 36.5568C268.497 37.3996 267.92 38.0554 267.176 38.5241C266.438 38.9929 265.576 39.2273 264.591 39.2273ZM264.591 37.7216C265.339 37.7216 265.955 37.5298 266.438 37.1463C266.92 36.7628 267.278 36.2585 267.51 35.6335C267.742 35.0085 267.858 34.3314 267.858 33.6023C267.858 32.8731 267.742 32.1937 267.51 31.5639C267.278 30.9342 266.92 30.4252 266.438 30.0369C265.955 29.6487 265.339 29.4545 264.591 29.4545C263.843 29.4545 263.227 29.6487 262.744 30.0369C262.261 30.4252 261.904 30.9342 261.672 31.5639C261.44 32.1937 261.324 32.8731 261.324 33.6023C261.324 34.3314 261.44 35.0085 261.672 35.6335C261.904 36.2585 262.261 36.7628 262.744 37.1463C263.227 37.5298 263.843 37.7216 264.591 37.7216ZM272.093 39V28.0909H273.712V29.7386H273.826C274.025 29.1989 274.384 28.7609 274.905 28.4247C275.426 28.0885 276.013 27.9205 276.667 27.9205C276.79 27.9205 276.944 27.9228 277.128 27.9276C277.313 27.9323 277.453 27.9394 277.547 27.9489V29.6534C277.49 29.6392 277.36 29.6179 277.157 29.5895C276.958 29.5563 276.747 29.5398 276.525 29.5398C275.994 29.5398 275.521 29.651 275.104 29.8736C274.692 30.0914 274.365 30.3944 274.124 30.7827C273.887 31.1662 273.769 31.6042 273.769 32.0966V39H272.093ZM284.962 28.0909V29.5114H279.309V28.0909H284.962ZM280.956 25.4773H282.632V35.875C282.632 36.3485 282.701 36.7036 282.838 36.9403C282.98 37.1723 283.16 37.3286 283.378 37.4091C283.601 37.4848 283.835 37.5227 284.081 37.5227C284.266 37.5227 284.417 37.5133 284.536 37.4943C284.654 37.4706 284.749 37.4517 284.82 37.4375L285.161 38.9432C285.047 38.9858 284.889 39.0284 284.685 39.071C284.481 39.1184 284.223 39.142 283.911 39.142C283.437 39.142 282.973 39.0402 282.519 38.8366C282.069 38.633 281.695 38.3229 281.397 37.9062C281.103 37.4896 280.956 36.964 280.956 36.3295V25.4773Z" fill="white"/>
<g filter="url(#filter2_d_13120_73105)">
<path d="M302.562 30.3125L306.5 34.25L310.438 30.3125" stroke="white" stroke-width="1.5" stroke-linecap="round" stroke-linejoin="round"/>
<path d="M306.5 23.75V34.25" stroke="white" stroke-width="1.5" stroke-linecap="round" stroke-linejoin="round"/>
<path d="M314.75 34.25V39.5C314.75 39.6989 314.671 39.8897 314.53 40.0303C314.39 40.171 314.199 40.25 314 40.25H299C298.801 40.25 298.61 40.171 298.47 40.0303C298.329 39.8897 298.25 39.6989 298.25 39.5V34.25" stroke="white" stroke-width="1.5" stroke-linecap="round" stroke-linejoin="round"/>
</g>
</g>
<rect x="9.75" y="1.75" width="334.5" height="60.5" rx="10.25" stroke="url(#paint5_linear_13120_73105)" stroke-width="3.5" style="mix-blend-mode:soft-light"/>
<rect x="9.75" y="1.75" width="334.5" height="60.5" rx="10.25" stroke="url(#paint6_linear_13120_73105)" stroke-opacity="0.72" stroke-width="3.5"/>
</g>
<defs>
<filter id="filter0_d_13120_73105" x="0" y="0" width="354" height="92" filterUnits="userSpaceOnUse" color-interpolation-filters="sRGB">
<feFlood flood-opacity="0" result="BackgroundImageFix"/>
<feColorMatrix in="SourceAlpha" type="matrix" values="0 0 0 0 0 0 0 0 0 0 0 0 0 0 0 0 0 0 127 0" result="hardAlpha"/>
<feMorphology radius="8" operator="erode" in="SourceAlpha" result="effect1_dropShadow_13120_73105"/>
<feOffset dy="20"/>
<feGaussianBlur stdDeviation="8"/>
<feComposite in2="hardAlpha" operator="out"/>
<feColorMatrix type="matrix" values="0 0 0 0 0.121569 0 0 0 0 0.184314 0 0 0 0 0.184314 0 0 0 0.38 0"/>
<feBlend mode="normal" in2="BackgroundImageFix" result="effect1_dropShadow_13120_73105"/>
<feBlend mode="normal" in="SourceGraphic" in2="effect1_dropShadow_13120_73105" result="shape"/>
</filter>
<filter id="filter1_f_13120_73105" x="-1" y="-30" width="356" height="41" filterUnits="userSpaceOnUse" color-interpolation-filters="sRGB">
<feFlood flood-opacity="0" result="BackgroundImageFix"/>
<feBlend mode="normal" in="SourceGraphic" in2="BackgroundImageFix" result="shape"/>
<feGaussianBlur stdDeviation="0.5" result="effect1_foregroundBlur_13120_73105"/>
</filter>
<filter id="filter2_d_13120_73105" x="290.5" y="20" width="32" height="32" filterUnits="userSpaceOnUse" color-interpolation-filters="sRGB">
<feFlood flood-opacity="0" result="BackgroundImageFix"/>
<feColorMatrix in="SourceAlpha" type="matrix" values="0 0 0 0 0 0 0 0 0 0 0 0 0 0 0 0 0 0 127 0" result="hardAlpha"/>
<feOffset dy="4"/>
<feGaussianBlur stdDeviation="2"/>
<feComposite in2="hardAlpha" operator="out"/>
<feColorMatrix type="matrix" values="0 0 0 0 0 0 0 0 0 0 0 0 0 0 0 0 0 0 0.25 0"/>
<feBlend mode="normal" in2="BackgroundImageFix" result="effect1_dropShadow_13120_73105"/>
<feBlend mode="normal" in="SourceGraphic" in2="effect1_dropShadow_13120_73105" result="shape"/>
</filter>
<linearGradient id="paint0_linear_13120_73105" x1="346" y1="32" x2="8" y2="32" gradientUnits="userSpaceOnUse">
<stop/>
<stop offset="0.5" stop-opacity="0"/>
<stop offset="1"/>
</linearGradient>
<radialGradient id="paint1_radial_13120_73105" cx="0" cy="0" r="1" gradientUnits="userSpaceOnUse" gradientTransform="translate(177 14) rotate(-90) scale(20.6667 109.146)">
<stop stop-color="white"/>
<stop offset="1" stop-color="white" stop-opacity="0"/>
</radialGradient>
<radialGradient id="paint2_radial_13120_73105" cx="0" cy="0" r="1" gradientUnits="userSpaceOnUse" gradientTransform="translate(175.648 64) rotate(-90) scale(14.6667 179.816)">
<stop stop-color="white"/>
<stop offset="1" stop-color="white" stop-opacity="0"/>
</radialGradient>
<linearGradient id="paint3_linear_13120_73105" x1="199.723" y1="0" x2="199.723" y2="68.6667" gradientUnits="userSpaceOnUse">
<stop offset="0.296117" stop-color="white" stop-opacity="0"/>
<stop offset="0.762136" stop-color="white"/>
<stop offset="0.76699" stop-color="white" stop-opacity="0.6"/>
<stop offset="1" stop-color="white" stop-opacity="0"/>
</linearGradient>
<radialGradient id="paint4_radial_13120_73105" cx="0" cy="0" r="1" gradientUnits="userSpaceOnUse" gradientTransform="translate(177 -9.50001) scale(177 19.5)">
<stop stop-color="white" stop-opacity="0.4"/>
<stop offset="0.5" stop-color="white"/>
<stop offset="1" stop-color="white" stop-opacity="0.4"/>
</radialGradient>
<linearGradient id="paint5_linear_13120_73105" x1="177" y1="0" x2="177" y2="64" gradientUnits="userSpaceOnUse">
<stop stop-color="white"/>
<stop offset="1" stop-color="white" stop-opacity="0.6"/>
</linearGradient>
<linearGradient id="paint6_linear_13120_73105" x1="346" y1="32" x2="8" y2="32" gradientUnits="userSpaceOnUse">
<stop stop-color="white" stop-opacity="0"/>
<stop offset="0.25" stop-color="white" stop-opacity="0"/>
<stop offset="0.5" stop-color="white"/>
<stop offset="0.75" stop-color="white" stop-opacity="0"/>
<stop offset="1" stop-color="white" stop-opacity="0"/>
</linearGradient>
<clipPath id="clip0_13120_73105">
<rect x="8" width="338" height="64" rx="12" fill="white"/>
</clipPath>
</defs>
</svg>
