<svg width="32" height="32" viewBox="0 0 32 32" fill="none" xmlns="http://www.w3.org/2000/svg">
<rect x="0.5" y="0.5" width="31" height="31" rx="3.5" fill="#F2F4F7"/>
<rect x="0.5" y="0.5" width="31" height="31" rx="3.5" stroke="#E4E7EC"/>
<path d="M22.75 7.75L19.375 7.75C18.9608 7.75 18.625 8.08579 18.625 8.5L18.625 23.5C18.625 23.9142 18.9608 24.25 19.375 24.25H22.75C23.1642 24.25 23.5 23.9142 23.5 23.5L23.5 8.5C23.5 8.08579 23.1642 7.75 22.75 7.75Z" stroke="#667085" stroke-width="1.5" stroke-linecap="round" stroke-linejoin="round"/>
<path d="M12.625 7.75L9.25 7.75C8.83579 7.75 8.5 8.08579 8.5 8.5L8.5 23.5C8.5 23.9142 8.83579 24.25 9.25 24.25H12.625C13.0392 24.25 13.375 23.9142 13.375 23.5L13.375 8.5C13.375 8.08579 13.0392 7.75 12.625 7.75Z" stroke="#667085" stroke-width="1.5" stroke-linecap="round" stroke-linejoin="round"/>
</svg>
