<svg width="32" height="32" viewBox="0 0 32 32" fill="none" xmlns="http://www.w3.org/2000/svg">
<rect x="0.5" y="0.5" width="31" height="31" rx="3.5" fill="#F2F4F7"/>
<rect x="0.5" y="0.5" width="31" height="31" rx="3.5" stroke="#E4E7EC"/>
<path d="M25.3844 15.3617L11.8937 7.11167C11.7802 7.04162 11.65 7.00313 11.5166 7.00018C11.3832 6.99723 11.2514 7.02993 11.1349 7.09489C11.0183 7.15985 10.9212 7.25473 10.8535 7.36975C10.7859 7.48476 10.7501 7.61574 10.75 7.74917L10.75 24.2492C10.7501 24.3826 10.7859 24.5136 10.8535 24.6286C10.9212 24.7436 11.0183 24.8385 11.1349 24.9035C11.2514 24.9684 11.3832 25.0011 11.5166 24.9982C11.65 24.9952 11.7802 24.9567 11.8937 24.8867L25.3844 16.6367C25.4952 16.5712 25.5869 16.4779 25.6507 16.3661C25.7145 16.2543 25.748 16.1279 25.748 15.9992C25.748 15.8705 25.7145 15.744 25.6507 15.6322C25.5869 15.5204 25.4952 15.4272 25.3844 15.3617V15.3617Z" stroke="#667085" stroke-width="1.5" stroke-linecap="round" stroke-linejoin="round"/>
</svg>
