<svg width="57" height="56" viewBox="0 0 57 56" fill="none" xmlns="http://www.w3.org/2000/svg">
<rect x="4.5" y="4" width="48" height="48" rx="24" fill="#D1FADF"/>
<rect x="4.5" y="4" width="48" height="48" rx="24" stroke="#ECFDF3" stroke-width="8"/>
<path d="M42.3094 25.7853L41.7781 21.0041C41.7637 20.8741 41.7019 20.754 41.6045 20.6667C41.507 20.5795 41.3809 20.5312 41.2501 20.5313C40.5743 20.5313 39.9846 20.7905 39.5453 21.2808C38.3123 22.6573 38.5476 25.4602 38.5938 25.9054V26.4212C36.7514 26.5073 36.3052 27.0741 35.5673 28.2376C35.3112 28.6418 34.9935 29.1418 34.5128 29.7314L31.7099 31.6503C31.381 31.9064 28.5001 34.2019 28.5001 35.971C28.5001 37.5073 28.7179 38.5167 28.8773 39.2541C28.9633 39.6531 29.0313 39.9686 29.0313 40.221V41.8147C29.0313 42.517 30.0938 42.5181 30.0938 41.8147V40.221C30.0938 39.8555 30.0115 39.473 29.9159 39.0299C29.7666 38.3393 29.5626 37.3937 29.5626 35.971C29.5626 35.0253 31.2801 33.3333 32.3362 32.5077L35.1752 30.5655C35.2167 30.5373 35.2533 30.5039 35.2852 30.4656C35.835 29.8 36.1841 29.2496 36.4651 28.8071C37.0426 27.896 37.2551 27.5613 38.4759 27.4874C38.3239 28.1929 38.036 29.3617 37.6174 30.3498C37.2742 30.6808 35.9025 32.0094 35.019 32.9508C34.5383 33.4629 35.3123 34.1902 35.7941 33.6776C36.769 32.6374 38.4143 31.0569 38.4307 31.041C38.4812 30.9926 38.5216 30.9347 38.5497 30.871C39.1293 29.546 39.6021 27.4922 39.6473 26.9865C39.6611 26.8377 39.6584 25.8634 39.6537 25.8188C39.5708 25.058 39.532 22.8868 40.3379 21.989C40.4702 21.8418 40.6163 21.7377 40.7836 21.6729L41.2474 25.8453C41.1863 26.4393 40.7194 31.0022 40.7236 31.6801C40.6397 31.9717 39.6606 32.8743 38.9455 33.5336C37.1318 35.2054 34.8751 37.2858 34.8751 39.1585V41.8147C34.8751 42.517 35.9376 42.5181 35.9376 41.8147V39.1585C35.9376 37.7512 38.0918 35.7654 39.6648 34.3156C41.0944 32.9981 41.7813 32.3372 41.7813 31.721C41.7813 31.1435 42.1628 27.3222 42.3099 25.8985C42.3137 25.8608 42.3135 25.8229 42.3094 25.7853ZM25.2637 31.6312L22.4874 29.7314C22.0066 29.1418 21.6894 28.6418 21.4329 28.2376C20.6949 27.0741 20.2487 26.5073 18.4063 26.4212V25.9054C18.4525 25.4602 18.6879 22.6573 17.4549 21.2808C17.0155 20.7905 16.4258 20.5318 15.7501 20.5318C15.6193 20.5318 15.4931 20.58 15.3957 20.6672C15.2982 20.7545 15.2364 20.8746 15.222 21.0046L14.6908 25.7858C14.6866 25.8234 14.6864 25.8614 14.6902 25.899C14.8374 27.3222 15.2188 31.1435 15.2188 31.721C15.2188 32.3372 15.9057 32.9981 17.3353 34.3156C18.9084 35.7654 21.0626 37.7512 21.0626 39.1585V41.8147C21.0626 41.9556 21.1185 42.0907 21.2182 42.1904C21.3178 42.29 21.4529 42.346 21.5938 42.346C21.7347 42.346 21.8698 42.29 21.9695 42.1904C22.0691 42.0907 22.1251 41.9556 22.1251 41.8147V39.1585C22.1251 37.2858 19.8683 35.2054 18.0552 33.5341C17.3406 32.8748 16.361 31.9728 16.2813 31.721C16.2813 31.0043 15.8144 26.4398 15.7533 25.8459L16.217 21.6734C17.5521 22.1882 17.3438 24.9911 17.3438 25.8772C17.3444 26.0175 17.3401 26.9626 17.3513 27.0284C17.3661 27.1172 17.7253 29.2129 18.4509 30.8715C18.4788 30.9356 18.5193 30.9934 18.5699 31.0415C18.5864 31.0574 20.2312 32.6379 21.2065 33.6781C21.6884 34.1923 22.4614 33.4624 21.9816 32.9513C21.0982 32.0094 19.7265 30.6808 19.3833 30.3503C18.9647 29.3622 18.6767 28.1935 18.5248 27.488C19.7456 27.5618 19.9581 27.8965 20.5356 28.8076C20.7066 29.0769 21.5588 30.3849 21.8249 30.566L24.6368 32.4892C25.72 33.3322 27.4376 35.0232 27.4376 35.971C27.4376 37.3937 27.2336 38.3393 27.0843 39.0299C26.9887 39.473 26.9063 39.8555 26.9063 40.221V41.8147C26.9063 41.9556 26.9623 42.0907 27.0619 42.1904C27.1615 42.29 27.2967 42.346 27.4376 42.346C27.5785 42.346 27.7136 42.29 27.8132 42.1904C27.9129 42.0907 27.9688 41.9556 27.9688 41.8147V40.221C27.9688 39.9686 28.0368 39.6531 28.1229 39.2541C28.2823 38.5167 28.5001 37.5073 28.5001 35.971C28.5001 34.2019 25.6191 31.9064 25.2637 31.6312Z" fill="#008243"/>
<path d="M28.5001 35.971C28.5001 34.2019 31.381 31.9064 31.7099 31.6503L34.5128 29.7314C34.9935 29.1418 35.3112 28.6418 35.5673 28.2376C36.3052 27.0741 36.7514 26.5073 38.5938 26.4212V25.9054C38.5476 25.4602 38.3123 22.6573 39.5453 21.2808C39.9846 20.7905 40.5743 20.5313 41.2501 20.5313C41.3809 20.5312 41.507 20.5795 41.6045 20.6667C41.7019 20.754 41.7637 20.8741 41.7781 21.0041L42.3094 25.7853C42.3135 25.8229 42.3137 25.8608 42.3099 25.8985C42.1628 27.3222 41.7813 31.1435 41.7813 31.721C41.7813 32.3372 41.0944 32.9981 39.6648 34.3156C38.0918 35.7654 35.9376 37.7512 35.9376 39.1585V41.8147C35.9376 42.5181 34.8751 42.517 34.8751 41.8147V39.1585C34.8751 37.2858 37.1318 35.2054 38.9455 33.5336C39.6606 32.8743 40.6397 31.9717 40.7236 31.6801C40.7194 31.0022 41.1863 26.4393 41.2474 25.8453L40.7836 21.6729C40.6163 21.7377 40.4702 21.8418 40.3379 21.989C39.532 22.8868 39.5708 25.058 39.6537 25.8188C39.6584 25.8634 39.6611 26.8377 39.6473 26.9865C39.6021 27.4922 39.1293 29.546 38.5497 30.871C38.5216 30.9347 38.4812 30.9926 38.4307 31.041C38.4143 31.0569 36.769 32.6374 35.7941 33.6776C35.3123 34.1902 34.5383 33.4629 35.019 32.9508C35.9025 32.0094 37.2742 30.6808 37.6174 30.3498C38.036 29.3617 38.3239 28.1929 38.4759 27.4874C37.2551 27.5613 37.0426 27.896 36.4651 28.8071C36.1841 29.2496 35.835 29.8 35.2852 30.4656C35.2533 30.5039 35.2167 30.5373 35.1752 30.5655L32.3362 32.5077C31.2801 33.3333 29.5626 35.0253 29.5626 35.971C29.5626 37.3937 29.7666 38.3393 29.9159 39.0299C30.0115 39.473 30.0938 39.8555 30.0938 40.221V41.8147C30.0938 42.5181 29.0313 42.517 29.0313 41.8147V40.221C29.0313 39.9686 28.9633 39.6531 28.8773 39.2541C28.7179 38.5167 28.5001 37.5073 28.5001 35.971ZM28.5001 35.971C28.5001 37.5073 28.2823 38.5167 28.1229 39.2541C28.0368 39.6531 27.9688 39.9686 27.9688 40.221V41.8147C27.9688 41.9556 27.9129 42.0907 27.8132 42.1904C27.7136 42.29 27.5785 42.346 27.4376 42.346C27.2967 42.346 27.1615 42.29 27.0619 42.1904C26.9623 42.0907 26.9063 41.9556 26.9063 41.8147V40.221C26.9063 39.8555 26.9887 39.473 27.0843 39.0299C27.2336 38.3393 27.4376 37.3937 27.4376 35.971C27.4376 35.0232 25.72 33.3322 24.6368 32.4892L21.8249 30.566C21.5588 30.3849 20.7066 29.0769 20.5356 28.8076C19.9581 27.8965 19.7456 27.5618 18.5248 27.488C18.6767 28.1935 18.9647 29.3622 19.3833 30.3503C19.7265 30.6808 21.0982 32.0094 21.9816 32.9513C22.4614 33.4624 21.6884 34.1923 21.2065 33.6781C20.2312 32.6379 18.5864 31.0574 18.5699 31.0415C18.5193 30.9934 18.4788 30.9356 18.4509 30.8715C17.7253 29.2129 17.3661 27.1172 17.3513 27.0284C17.3401 26.9626 17.3444 26.0175 17.3438 25.8772C17.3438 24.9911 17.5521 22.1882 16.217 21.6734L15.7533 25.8459C15.8144 26.4398 16.2813 31.0043 16.2813 31.721C16.361 31.9728 17.3406 32.8748 18.0552 33.5341C19.8683 35.2054 22.1251 37.2858 22.1251 39.1585V41.8147C22.1251 41.9556 22.0691 42.0907 21.9695 42.1904C21.8698 42.29 21.7347 42.346 21.5938 42.346C21.4529 42.346 21.3178 42.29 21.2182 42.1904C21.1185 42.0907 21.0626 41.9556 21.0626 41.8147V39.1585C21.0626 37.7512 18.9084 35.7654 17.3353 34.3156C15.9057 32.9981 15.2188 32.3372 15.2188 31.721C15.2188 31.1435 14.8374 27.3222 14.6902 25.899C14.6864 25.8614 14.6866 25.8234 14.6908 25.7858L15.222 21.0046C15.2364 20.8746 15.2982 20.7545 15.3957 20.6672C15.4931 20.58 15.6193 20.5318 15.7501 20.5318C16.4258 20.5318 17.0155 20.7905 17.4549 21.2808C18.6879 22.6573 18.4525 25.4602 18.4063 25.9054V26.4212C20.2487 26.5073 20.6949 27.0741 21.4329 28.2376C21.6894 28.6418 22.0066 29.1418 22.4874 29.7314L25.2637 31.6312C25.6191 31.9064 28.5001 34.2019 28.5001 35.971Z" stroke="#D1FADF" stroke-width="0.3"/>
<g clip-path="url(#clip0_14854_102286)">
<path d="M29.6049 21.5271L29.6049 21.527C29.1903 21.1124 28.9546 20.4013 28.9363 19.6851C28.9179 18.968 29.1169 18.2188 29.6049 17.7311L29.6049 21.5271ZM29.6049 21.5271C30.0369 21.9585 30.79 22.1966 31.5369 22.1966C32.2256 22.1966 32.9328 21.995 33.4013 21.5277L33.4014 21.5276M29.6049 21.5271L33.4014 21.5276M33.4014 21.5276C33.9459 20.9828 34.2435 20.1847 34.4064 19.3515M33.4014 21.5276L34.4064 19.3515M31.781 16.7258C32.616 16.5627 33.4996 16.5325 34.2275 16.5325C34.4332 16.5325 34.6 16.6993 34.6 16.9049L31.781 16.7258ZM31.781 16.7258C30.9478 16.8886 30.1497 17.1862 29.6049 17.731L31.781 16.7258ZM34.4064 19.3515C34.5696 18.5165 34.6 17.6329 34.6 16.9049L34.4064 19.3515ZM23.5986 20.4498L23.6693 20.3791C24.1118 20.8215 24.7902 21.0193 25.4625 21.0193C26.1932 21.0193 26.9174 20.7856 27.3244 20.3786C28.1052 19.5977 28.2485 17.6476 27.3244 16.724L27.3951 16.6533C27.3951 16.6533 27.3951 16.6533 27.3951 16.6533C26.8503 16.1087 26.0522 15.8111 25.219 15.6483C24.384 15.485 23.5004 15.4547 22.7725 15.4547C22.5668 15.4547 22.4 15.6215 22.4 15.8271C22.4 16.5551 22.4302 17.4386 22.5934 18.2737C22.7562 19.1069 23.0538 19.905 23.5986 20.4498ZM26.8684 17.1805L26.9392 17.1098L26.8685 17.1805C27.1821 17.4942 27.3256 18.0372 27.3135 18.587C27.3013 19.1377 27.1338 19.6578 26.8685 19.9231C26.6029 20.1884 26.0827 20.3559 25.5321 20.3681C24.9824 20.3803 24.4395 20.2368 24.1258 19.9231L24.0551 19.9938L24.1258 19.9231C23.7232 19.5205 23.4803 18.9021 23.3374 18.2078C23.2022 17.5512 23.1588 16.8387 23.148 16.2027C23.784 16.2135 24.4965 16.2569 25.1531 16.392C25.8474 16.535 26.4659 16.7779 26.8684 17.1805ZM32.8737 21.0004L32.8736 21.0004C32.56 21.314 32.0169 21.4575 31.4671 21.4454C30.9164 21.4332 30.3963 21.2657 30.131 21.0004C29.8657 20.7351 29.6982 20.2149 29.686 19.6642C29.6738 19.1144 29.8173 18.5714 30.131 18.2577C30.5336 17.8551 31.152 17.6122 31.8463 17.4693C32.503 17.3341 33.2154 17.2907 33.8515 17.2799C33.8406 17.9162 33.7973 18.6288 33.6621 19.2854C33.5192 19.9798 33.2762 20.598 32.8737 21.0004Z" fill="#008243" stroke="#D1FADF" stroke-width="0.2"/>
<path d="M31.8337 18.7794L31.8333 18.7796C29.8776 19.6991 28.8394 21.2496 28.319 22.881C28.0128 21.2351 27.489 20.1246 26.9469 19.3611C26.359 18.5328 25.7533 18.1183 25.3965 17.8742L25.396 17.8738C25.396 17.8738 25.396 17.8738 25.396 17.8738C25.3959 17.8738 25.3959 17.8738 25.3959 17.8738C25.3786 17.8619 25.3625 17.851 25.3477 17.8409C25.2814 17.7957 25.2392 17.767 25.2148 17.7431C25.0695 17.598 24.8336 17.5981 24.6884 17.7434C24.5431 17.8887 24.5431 18.1247 24.6884 18.27L24.6888 18.2704C24.7504 18.3314 24.8516 18.4035 24.9757 18.4884L24.9757 18.4884L24.9759 18.4885C25.3698 18.7579 26.0837 19.246 26.7019 20.3783C27.3213 21.5128 27.8489 23.3024 27.8489 26.1797C27.8489 26.3853 28.0157 26.5521 28.2213 26.5521C28.4268 26.5521 28.5938 26.3854 28.5938 26.1803C28.5938 23.8557 29.2185 20.832 32.1505 19.4542L32.208 19.4272V19.4264C32.3929 19.3301 32.4311 19.1187 32.3505 18.9478L32.26 18.9905L32.3505 18.9479C32.258 18.7512 32.0085 18.698 31.8337 18.7794ZM32.1555 19.4517L32.1555 19.4517L32.1555 19.4517Z" fill="#008243" stroke="#D1FADF" stroke-width="0.2"/>
</g>
<defs>
<clipPath id="clip0_14854_102286">
<rect width="12" height="12" fill="white" transform="translate(22.5 15)"/>
</clipPath>
</defs>
</svg>
