<svg width="57" height="56" viewBox="0 0 57 56" fill="none" xmlns="http://www.w3.org/2000/svg">
<rect x="4.5" y="4" width="48" height="48" rx="24" fill="#D1FADF"/>
<rect x="4.5" y="4" width="48" height="48" rx="24" stroke="#ECFDF3" stroke-width="8"/>
<path d="M42.3094 25.7853L41.7781 21.0041C41.7637 20.8741 41.7019 20.754 41.6045 20.6667C41.507 20.5795 41.3809 20.5312 41.2501 20.5313C40.5743 20.5313 39.9846 20.7905 39.5453 21.2808C38.3123 22.6573 38.5476 25.4602 38.5938 25.9054V26.4212C36.7514 26.5073 36.3052 27.0741 35.5673 28.2376C35.3112 28.6418 34.9935 29.1418 34.5128 29.7314L31.7099 31.6503C31.381 31.9064 28.5001 34.2019 28.5001 35.971C28.5001 37.5073 28.7179 38.5167 28.8773 39.2541C28.9633 39.6531 29.0313 39.9686 29.0313 40.221V41.8147C29.0313 42.517 30.0938 42.5181 30.0938 41.8147V40.221C30.0938 39.8555 30.0115 39.473 29.9159 39.0299C29.7666 38.3393 29.5626 37.3937 29.5626 35.971C29.5626 35.0253 31.2801 33.3333 32.3362 32.5077L35.1752 30.5655C35.2167 30.5373 35.2533 30.5039 35.2852 30.4656C35.835 29.8 36.1841 29.2496 36.4651 28.8071C37.0426 27.896 37.2551 27.5613 38.4759 27.4874C38.3239 28.1929 38.036 29.3617 37.6174 30.3498C37.2742 30.6808 35.9025 32.0094 35.019 32.9508C34.5383 33.4629 35.3123 34.1902 35.7941 33.6776C36.769 32.6374 38.4143 31.0569 38.4307 31.041C38.4812 30.9926 38.5216 30.9347 38.5497 30.871C39.1293 29.546 39.6021 27.4922 39.6473 26.9865C39.6611 26.8377 39.6584 25.8634 39.6537 25.8188C39.5708 25.058 39.532 22.8868 40.3379 21.989C40.4702 21.8418 40.6163 21.7377 40.7836 21.6729L41.2474 25.8453C41.1863 26.4393 40.7194 31.0022 40.7236 31.6801C40.6397 31.9717 39.6606 32.8743 38.9455 33.5336C37.1318 35.2054 34.8751 37.2858 34.8751 39.1585V41.8147C34.8751 42.517 35.9376 42.5181 35.9376 41.8147V39.1585C35.9376 37.7512 38.0918 35.7654 39.6648 34.3156C41.0944 32.9981 41.7813 32.3372 41.7813 31.721C41.7813 31.1435 42.1628 27.3222 42.3099 25.8985C42.3137 25.8608 42.3135 25.8229 42.3094 25.7853ZM25.2637 31.6312L22.4874 29.7314C22.0066 29.1418 21.6894 28.6418 21.4329 28.2376C20.6949 27.0741 20.2487 26.5073 18.4063 26.4212V25.9054C18.4525 25.4602 18.6879 22.6573 17.4549 21.2808C17.0155 20.7905 16.4258 20.5318 15.7501 20.5318C15.6193 20.5318 15.4931 20.58 15.3957 20.6672C15.2982 20.7545 15.2364 20.8746 15.222 21.0046L14.6908 25.7858C14.6866 25.8234 14.6864 25.8614 14.6902 25.899C14.8374 27.3222 15.2188 31.1435 15.2188 31.721C15.2188 32.3372 15.9057 32.9981 17.3353 34.3156C18.9084 35.7654 21.0626 37.7512 21.0626 39.1585V41.8147C21.0626 41.9556 21.1185 42.0907 21.2182 42.1904C21.3178 42.29 21.4529 42.346 21.5938 42.346C21.7347 42.346 21.8698 42.29 21.9695 42.1904C22.0691 42.0907 22.1251 41.9556 22.1251 41.8147V39.1585C22.1251 37.2858 19.8683 35.2054 18.0552 33.5341C17.3406 32.8748 16.361 31.9728 16.2813 31.721C16.2813 31.0043 15.8144 26.4398 15.7533 25.8459L16.217 21.6734C17.5521 22.1882 17.3438 24.9911 17.3438 25.8772C17.3444 26.0175 17.3401 26.9626 17.3513 27.0284C17.3661 27.1172 17.7253 29.2129 18.4509 30.8715C18.4788 30.9356 18.5193 30.9934 18.5699 31.0415C18.5864 31.0574 20.2312 32.6379 21.2065 33.6781C21.6884 34.1923 22.4614 33.4624 21.9816 32.9513C21.0982 32.0094 19.7265 30.6808 19.3833 30.3503C18.9647 29.3622 18.6767 28.1935 18.5248 27.488C19.7456 27.5618 19.9581 27.8965 20.5356 28.8076C20.7066 29.0769 21.5588 30.3849 21.8249 30.566L24.6368 32.4892C25.72 33.3322 27.4376 35.0232 27.4376 35.971C27.4376 37.3937 27.2336 38.3393 27.0843 39.0299C26.9887 39.473 26.9063 39.8555 26.9063 40.221V41.8147C26.9063 41.9556 26.9623 42.0907 27.0619 42.1904C27.1615 42.29 27.2967 42.346 27.4376 42.346C27.5785 42.346 27.7136 42.29 27.8132 42.1904C27.9129 42.0907 27.9688 41.9556 27.9688 41.8147V40.221C27.9688 39.9686 28.0368 39.6531 28.1229 39.2541C28.2823 38.5167 28.5001 37.5073 28.5001 35.971C28.5001 34.2019 25.6191 31.9064 25.2637 31.6312Z" fill="#008243"/>
<path d="M28.5001 35.971C28.5001 34.2019 31.381 31.9064 31.7099 31.6503L34.5128 29.7314C34.9935 29.1418 35.3112 28.6418 35.5673 28.2376C36.3052 27.0741 36.7514 26.5073 38.5938 26.4212V25.9054C38.5476 25.4602 38.3123 22.6573 39.5453 21.2808C39.9846 20.7905 40.5743 20.5313 41.2501 20.5313C41.3809 20.5312 41.507 20.5795 41.6045 20.6667C41.7019 20.754 41.7637 20.8741 41.7781 21.0041L42.3094 25.7853C42.3135 25.8229 42.3137 25.8608 42.3099 25.8985C42.1628 27.3222 41.7813 31.1435 41.7813 31.721C41.7813 32.3372 41.0944 32.9981 39.6648 34.3156C38.0918 35.7654 35.9376 37.7512 35.9376 39.1585V41.8147C35.9376 42.5181 34.8751 42.517 34.8751 41.8147V39.1585C34.8751 37.2858 37.1318 35.2054 38.9455 33.5336C39.6606 32.8743 40.6397 31.9717 40.7236 31.6801C40.7194 31.0022 41.1863 26.4393 41.2474 25.8453L40.7836 21.6729C40.6163 21.7377 40.4702 21.8418 40.3379 21.989C39.532 22.8868 39.5708 25.058 39.6537 25.8188C39.6584 25.8634 39.6611 26.8377 39.6473 26.9865C39.6021 27.4922 39.1293 29.546 38.5497 30.871C38.5216 30.9347 38.4812 30.9926 38.4307 31.041C38.4143 31.0569 36.769 32.6374 35.7941 33.6776C35.3123 34.1902 34.5383 33.4629 35.019 32.9508C35.9025 32.0094 37.2742 30.6808 37.6174 30.3498C38.036 29.3617 38.3239 28.1929 38.4759 27.4874C37.2551 27.5613 37.0426 27.896 36.4651 28.8071C36.1841 29.2496 35.835 29.8 35.2852 30.4656C35.2533 30.5039 35.2167 30.5373 35.1752 30.5655L32.3362 32.5077C31.2801 33.3333 29.5626 35.0253 29.5626 35.971C29.5626 37.3937 29.7666 38.3393 29.9159 39.0299C30.0115 39.473 30.0938 39.8555 30.0938 40.221V41.8147C30.0938 42.5181 29.0313 42.517 29.0313 41.8147V40.221C29.0313 39.9686 28.9633 39.6531 28.8773 39.2541C28.7179 38.5167 28.5001 37.5073 28.5001 35.971ZM28.5001 35.971C28.5001 37.5073 28.2823 38.5167 28.1229 39.2541C28.0368 39.6531 27.9688 39.9686 27.9688 40.221V41.8147C27.9688 41.9556 27.9129 42.0907 27.8132 42.1904C27.7136 42.29 27.5785 42.346 27.4376 42.346C27.2967 42.346 27.1615 42.29 27.0619 42.1904C26.9623 42.0907 26.9063 41.9556 26.9063 41.8147V40.221C26.9063 39.8555 26.9887 39.473 27.0843 39.0299C27.2336 38.3393 27.4376 37.3937 27.4376 35.971C27.4376 35.0232 25.72 33.3322 24.6368 32.4892L21.8249 30.566C21.5588 30.3849 20.7066 29.0769 20.5356 28.8076C19.9581 27.8965 19.7456 27.5618 18.5248 27.488C18.6767 28.1935 18.9647 29.3622 19.3833 30.3503C19.7265 30.6808 21.0982 32.0094 21.9816 32.9513C22.4614 33.4624 21.6884 34.1923 21.2065 33.6781C20.2312 32.6379 18.5864 31.0574 18.5699 31.0415C18.5193 30.9934 18.4788 30.9356 18.4509 30.8715C17.7253 29.2129 17.3661 27.1172 17.3513 27.0284C17.3401 26.9626 17.3444 26.0175 17.3438 25.8772C17.3438 24.9911 17.5521 22.1882 16.217 21.6734L15.7533 25.8459C15.8144 26.4398 16.2813 31.0043 16.2813 31.721C16.361 31.9728 17.3406 32.8748 18.0552 33.5341C19.8683 35.2054 22.1251 37.2858 22.1251 39.1585V41.8147C22.1251 41.9556 22.0691 42.0907 21.9695 42.1904C21.8698 42.29 21.7347 42.346 21.5938 42.346C21.4529 42.346 21.3178 42.29 21.2182 42.1904C21.1185 42.0907 21.0626 41.9556 21.0626 41.8147V39.1585C21.0626 37.7512 18.9084 35.7654 17.3353 34.3156C15.9057 32.9981 15.2188 32.3372 15.2188 31.721C15.2188 31.1435 14.8374 27.3222 14.6902 25.899C14.6864 25.8614 14.6866 25.8234 14.6908 25.7858L15.222 21.0046C15.2364 20.8746 15.2982 20.7545 15.3957 20.6672C15.4931 20.58 15.6193 20.5318 15.7501 20.5318C16.4258 20.5318 17.0155 20.7905 17.4549 21.2808C18.6879 22.6573 18.4525 25.4602 18.4063 25.9054V26.4212C20.2487 26.5073 20.6949 27.0741 21.4329 28.2376C21.6894 28.6418 22.0066 29.1418 22.4874 29.7314L25.2637 31.6312C25.6191 31.9064 28.5001 34.2019 28.5001 35.971Z" stroke="#D1FADF" stroke-width="0.3"/>
<g clip-path="url(#clip0_14854_102241)">
<path d="M33.6522 18.0733C33.6546 18.0611 33.6522 18.0514 33.6522 18.0392C33.6522 18.0222 33.6497 18.0076 33.6449 17.9905L33.6375 17.9613C33.6351 17.9589 33.6351 17.954 33.6351 17.9516C33.6259 17.9298 33.6127 17.91 33.5962 17.8931L31.7408 15.8283C31.7185 15.804 31.6914 15.7845 31.6612 15.7711C31.6311 15.7577 31.5985 15.7507 31.5655 15.7504H25.4368C25.3686 15.7504 25.3053 15.7796 25.2615 15.8283L23.4086 17.8907C23.3915 17.9102 23.3769 17.9297 23.3647 17.954C23.3623 17.9589 23.3623 17.9638 23.3599 17.9686C23.3574 17.9735 23.3574 17.9784 23.355 17.9832C23.3477 18.0051 23.3452 18.0295 23.3452 18.0514V18.0709C23.3477 18.0977 23.3525 18.1245 23.3647 18.1512C23.3647 18.1537 23.3672 18.1537 23.3672 18.1561C23.3769 18.1756 23.3866 18.1926 23.4012 18.2097L28.3197 23.6906C28.3246 23.6979 28.3343 23.7004 28.3392 23.7052C28.3514 23.7174 28.366 23.7271 28.3806 23.7345C28.3928 23.7418 28.4025 23.7466 28.4147 23.7515C28.4342 23.7588 28.4537 23.7637 28.4756 23.7637C28.4829 23.7637 28.4902 23.7685 28.4975 23.7685C28.5024 23.7685 28.5097 23.7661 28.5145 23.7661C28.5389 23.7637 28.5608 23.7588 28.5827 23.7515C28.5924 23.7466 28.6022 23.7418 28.6095 23.7369C28.6265 23.7271 28.6436 23.715 28.6582 23.7004C28.6631 23.6955 28.6679 23.6955 28.6728 23.6906L33.5742 18.2292V18.2267L33.5889 18.2097C33.5986 18.1999 33.6035 18.1878 33.6108 18.1756C33.6205 18.161 33.6278 18.1439 33.6351 18.1269C33.6449 18.105 33.6497 18.0904 33.6522 18.0733ZM32.89 17.8104H30.5282L29.8123 16.2204H31.4608L32.89 17.8104ZM26.9513 18.2827H30.0436L28.4999 22.797L26.9513 18.2827ZM26.9878 17.8104L27.7037 16.2204H29.2937L30.0096 17.8104H26.9878ZM25.5415 16.2179H27.1875L26.4717 17.8079H24.1122L25.5415 16.2179ZM26.4522 18.2827L27.9009 22.5073L24.1098 18.2827H26.4522ZM29.0989 22.5048L30.5452 18.2803H32.89L29.0989 22.5048ZM28.4999 13.0891C28.6314 13.0891 28.7361 12.9844 28.7361 12.8529V11.9471C28.7361 11.8845 28.7112 11.8244 28.6669 11.7801C28.6226 11.7358 28.5626 11.7109 28.4999 11.7109C28.4373 11.7109 28.3772 11.7358 28.3329 11.7801C28.2886 11.8244 28.2637 11.8845 28.2637 11.9471V12.8529C28.2637 12.982 28.3684 13.0891 28.4999 13.0891ZM24.9693 13.861C25.0009 13.9146 25.0524 13.9536 25.1125 13.9695C25.1727 13.9855 25.2367 13.9771 25.2907 13.9462C25.4027 13.8804 25.4417 13.7368 25.3784 13.6248L24.9255 12.8407C24.8597 12.7287 24.7161 12.6898 24.6041 12.7555C24.4921 12.8213 24.4531 12.9649 24.5164 13.0769L24.9693 13.861ZM21.838 15.9306L22.6221 16.3835C22.6586 16.4054 22.7 16.4152 22.739 16.4152C22.8217 16.4152 22.8997 16.3738 22.9435 16.2983C22.9591 16.2715 22.9693 16.2419 22.9734 16.2111C22.9774 16.1804 22.9753 16.1491 22.9672 16.1192C22.959 16.0892 22.9449 16.0612 22.9258 16.0368C22.9067 16.0124 22.8829 15.992 22.8558 15.9769L22.0718 15.524C22.0453 15.508 22.016 15.4974 21.9854 15.493C21.9548 15.4885 21.9236 15.4901 21.8937 15.4978C21.8638 15.5055 21.8357 15.5192 21.8111 15.5379C21.7865 15.5566 21.7658 15.58 21.7504 15.6068C21.6871 15.7212 21.726 15.8649 21.838 15.9306ZM22.0864 19.5026C22.0864 19.3711 21.9817 19.2664 21.8502 19.2664H20.9444C20.8818 19.2664 20.8217 19.2913 20.7774 19.3356C20.7331 19.3799 20.7083 19.44 20.7083 19.5026C20.7083 19.5652 20.7331 19.6253 20.7774 19.6696C20.8217 19.7139 20.8818 19.7388 20.9444 19.7388H21.8502C21.9793 19.7388 22.0864 19.6341 22.0864 19.5026ZM22.6221 22.6241L21.838 23.077C21.8104 23.0921 21.7861 23.1125 21.7665 23.1371C21.747 23.1617 21.7325 23.1899 21.724 23.2202C21.7156 23.2505 21.7132 23.2821 21.7172 23.3133C21.7212 23.3445 21.7314 23.3746 21.7472 23.4017C21.7629 23.4289 21.784 23.4527 21.8091 23.4716C21.8342 23.4904 21.8629 23.5041 21.8934 23.5118C21.9239 23.5194 21.9556 23.5208 21.9867 23.516C22.0177 23.5112 22.0475 23.5002 22.0742 23.4837L22.8583 23.0308C22.9703 22.965 23.0092 22.8214 22.9459 22.7094C22.9142 22.6552 22.8623 22.6159 22.8016 22.5999C22.7409 22.584 22.6764 22.5927 22.6221 22.6241ZM25.2932 25.059C25.2664 25.0433 25.2368 25.033 25.206 25.0289C25.1752 25.0248 25.1439 25.0269 25.114 25.0351C25.084 25.0432 25.056 25.0573 25.0316 25.0765C25.0071 25.0957 24.9868 25.1195 24.9718 25.1467L24.5189 25.9307C24.5032 25.9575 24.493 25.9871 24.489 26.0179C24.4849 26.0487 24.487 26.0799 24.4952 26.1098C24.5034 26.1398 24.5174 26.1678 24.5365 26.1922C24.5556 26.2166 24.5794 26.237 24.6065 26.2521C24.643 26.2741 24.6844 26.2838 24.7234 26.2838C24.8062 26.2838 24.8841 26.2424 24.9279 26.1669L25.3808 25.3829C25.4441 25.2684 25.4076 25.1223 25.2932 25.059ZM28.4999 25.9161C28.3684 25.9161 28.2637 26.0208 28.2637 26.1523V27.0581C28.2637 27.1896 28.3684 27.2943 28.4999 27.2943C28.6314 27.2943 28.7361 27.1896 28.7361 27.0581V26.1523C28.7361 26.0897 28.7112 26.0296 28.6669 25.9853C28.6226 25.941 28.5626 25.9161 28.4999 25.9161ZM32.0305 25.1443C31.999 25.0905 31.9478 25.0513 31.8877 25.0349C31.8276 25.0185 31.7635 25.0263 31.7091 25.0566C31.5971 25.1223 31.5581 25.266 31.6215 25.378L32.0743 26.162C32.106 26.2157 32.1574 26.2547 32.2176 26.2706C32.2777 26.2866 32.3417 26.2782 32.3958 26.2473C32.5078 26.1815 32.5467 26.0379 32.4834 25.9259L32.0305 25.1443ZM35.1618 23.0746L34.3778 22.6217C34.351 22.6059 34.3214 22.5957 34.2906 22.5916C34.2598 22.5875 34.2285 22.5896 34.1986 22.5977C34.1686 22.6059 34.1406 22.62 34.1162 22.6392C34.0917 22.6583 34.0714 22.6822 34.0564 22.7094C34.0407 22.7361 34.0305 22.7658 34.0265 22.7965C34.0224 22.8273 34.0245 22.8585 34.0327 22.8885C34.0408 22.9184 34.0549 22.9464 34.074 22.9708C34.0931 22.9953 34.1169 23.0156 34.144 23.0308L34.928 23.4837C34.9646 23.5056 35.006 23.5153 35.0449 23.5153C35.1277 23.5153 35.2056 23.4739 35.2495 23.3984C35.3128 23.284 35.2738 23.1403 35.1618 23.0746ZM36.0554 19.2664H35.1496C35.0181 19.2664 34.9134 19.3711 34.9134 19.5026C34.9134 19.6341 35.0181 19.7388 35.1496 19.7388H36.0554C36.1869 19.7388 36.2916 19.6341 36.2916 19.5026C36.2916 19.3711 36.1869 19.2664 36.0554 19.2664ZM34.2584 16.4127C34.2974 16.4127 34.3388 16.403 34.3753 16.3811L35.1594 15.9282C35.2714 15.8624 35.3103 15.7188 35.247 15.6068C35.2155 15.553 35.1643 15.5138 35.1042 15.4974C35.0441 15.481 34.98 15.4888 34.9256 15.5191L34.1416 15.972C34.0296 16.0377 33.9906 16.1814 34.0539 16.2934C34.0977 16.3689 34.1781 16.4127 34.2584 16.4127ZM31.7067 13.9462C31.7432 13.9681 31.7846 13.9778 31.8236 13.9778C31.9063 13.9778 31.9843 13.9364 32.0281 13.861L32.481 13.0769C32.4966 13.0501 32.5068 13.0205 32.5109 12.9897C32.5149 12.959 32.5128 12.9277 32.5046 12.8978C32.4965 12.8679 32.4824 12.8399 32.4633 12.8154C32.4442 12.791 32.4204 12.7706 32.3933 12.7555C32.3666 12.7397 32.3369 12.7295 32.3061 12.7254C32.2754 12.7213 32.2441 12.7234 32.2141 12.7315C32.1842 12.7397 32.1561 12.7538 32.1317 12.773C32.1073 12.7921 32.087 12.816 32.0719 12.8432L31.619 13.6272C31.6037 13.6539 31.5938 13.6833 31.59 13.7138C31.5861 13.7443 31.5883 13.7753 31.5964 13.8049C31.6046 13.8346 31.6185 13.8623 31.6374 13.8866C31.6564 13.9108 31.6799 13.9311 31.7067 13.9462Z" fill="#008243"/>
</g>
<defs>
<clipPath id="clip0_14854_102241">
<rect width="15.5833" height="15.5833" fill="white" transform="translate(20.7083 11.7109)"/>
</clipPath>
</defs>
</svg>
