<svg width="57" height="56" viewBox="0 0 57 56" fill="none" xmlns="http://www.w3.org/2000/svg">
<rect x="4.5" y="4" width="48" height="48" rx="24" fill="#D1FADF"/>
<rect x="4.5" y="4" width="48" height="48" rx="24" stroke="#ECFDF3" stroke-width="8"/>
<path d="M42.3094 25.7853L41.7781 21.0041C41.7637 20.8741 41.7019 20.754 41.6045 20.6667C41.507 20.5795 41.3809 20.5312 41.2501 20.5313C40.5743 20.5313 39.9846 20.7905 39.5453 21.2808C38.3123 22.6573 38.5476 25.4602 38.5938 25.9054V26.4212C36.7514 26.5073 36.3052 27.0741 35.5673 28.2376C35.3112 28.6418 34.9935 29.1418 34.5128 29.7314L31.7099 31.6503C31.381 31.9064 28.5001 34.2019 28.5001 35.971C28.5001 37.5073 28.7179 38.5167 28.8773 39.2541C28.9633 39.6531 29.0313 39.9686 29.0313 40.221V41.8147C29.0313 42.517 30.0938 42.5181 30.0938 41.8147V40.221C30.0938 39.8555 30.0115 39.473 29.9159 39.0299C29.7666 38.3393 29.5626 37.3937 29.5626 35.971C29.5626 35.0253 31.2801 33.3333 32.3362 32.5077L35.1752 30.5655C35.2167 30.5373 35.2533 30.5039 35.2852 30.4656C35.835 29.8 36.1841 29.2496 36.4651 28.8071C37.0426 27.896 37.2551 27.5613 38.4759 27.4874C38.3239 28.1929 38.036 29.3617 37.6174 30.3498C37.2742 30.6808 35.9025 32.0094 35.019 32.9508C34.5383 33.4629 35.3123 34.1902 35.7941 33.6776C36.769 32.6374 38.4143 31.0569 38.4307 31.041C38.4812 30.9926 38.5216 30.9347 38.5497 30.871C39.1293 29.546 39.6021 27.4922 39.6473 26.9865C39.6611 26.8377 39.6584 25.8634 39.6537 25.8188C39.5708 25.058 39.532 22.8868 40.3379 21.989C40.4702 21.8418 40.6163 21.7377 40.7836 21.6729L41.2474 25.8453C41.1863 26.4393 40.7194 31.0022 40.7236 31.6801C40.6397 31.9717 39.6606 32.8743 38.9455 33.5336C37.1318 35.2054 34.8751 37.2858 34.8751 39.1585V41.8147C34.8751 42.517 35.9376 42.5181 35.9376 41.8147V39.1585C35.9376 37.7512 38.0918 35.7654 39.6648 34.3156C41.0944 32.9981 41.7813 32.3372 41.7813 31.721C41.7813 31.1435 42.1628 27.3222 42.3099 25.8985C42.3137 25.8608 42.3135 25.8229 42.3094 25.7853ZM25.2637 31.6312L22.4874 29.7314C22.0066 29.1418 21.6894 28.6418 21.4329 28.2376C20.6949 27.0741 20.2487 26.5073 18.4063 26.4212V25.9054C18.4525 25.4602 18.6879 22.6573 17.4549 21.2808C17.0155 20.7905 16.4258 20.5318 15.7501 20.5318C15.6193 20.5318 15.4931 20.58 15.3957 20.6672C15.2982 20.7545 15.2364 20.8746 15.222 21.0046L14.6908 25.7858C14.6866 25.8234 14.6864 25.8614 14.6902 25.899C14.8374 27.3222 15.2188 31.1435 15.2188 31.721C15.2188 32.3372 15.9057 32.9981 17.3353 34.3156C18.9084 35.7654 21.0626 37.7512 21.0626 39.1585V41.8147C21.0626 41.9556 21.1185 42.0907 21.2182 42.1904C21.3178 42.29 21.4529 42.346 21.5938 42.346C21.7347 42.346 21.8698 42.29 21.9695 42.1904C22.0691 42.0907 22.1251 41.9556 22.1251 41.8147V39.1585C22.1251 37.2858 19.8683 35.2054 18.0552 33.5341C17.3406 32.8748 16.361 31.9728 16.2813 31.721C16.2813 31.0043 15.8144 26.4398 15.7533 25.8459L16.217 21.6734C17.5521 22.1882 17.3438 24.9911 17.3438 25.8772C17.3444 26.0175 17.3401 26.9626 17.3513 27.0284C17.3661 27.1172 17.7253 29.2129 18.4509 30.8715C18.4788 30.9356 18.5193 30.9934 18.5699 31.0415C18.5864 31.0574 20.2312 32.6379 21.2065 33.6781C21.6884 34.1923 22.4614 33.4624 21.9816 32.9513C21.0982 32.0094 19.7265 30.6808 19.3833 30.3503C18.9647 29.3622 18.6767 28.1935 18.5248 27.488C19.7456 27.5618 19.9581 27.8965 20.5356 28.8076C20.7066 29.0769 21.5588 30.3849 21.8249 30.566L24.6368 32.4892C25.72 33.3322 27.4376 35.0232 27.4376 35.971C27.4376 37.3937 27.2336 38.3393 27.0843 39.0299C26.9887 39.473 26.9063 39.8555 26.9063 40.221V41.8147C26.9063 41.9556 26.9623 42.0907 27.0619 42.1904C27.1615 42.29 27.2967 42.346 27.4376 42.346C27.5785 42.346 27.7136 42.29 27.8132 42.1904C27.9129 42.0907 27.9688 41.9556 27.9688 41.8147V40.221C27.9688 39.9686 28.0368 39.6531 28.1229 39.2541C28.2823 38.5167 28.5001 37.5073 28.5001 35.971C28.5001 34.2019 25.6191 31.9064 25.2637 31.6312Z" fill="#008243"/>
<path d="M28.5001 35.971C28.5001 34.2019 31.381 31.9064 31.7099 31.6503L34.5128 29.7314C34.9935 29.1418 35.3112 28.6418 35.5673 28.2376C36.3052 27.0741 36.7514 26.5073 38.5938 26.4212V25.9054C38.5476 25.4602 38.3123 22.6573 39.5453 21.2808C39.9846 20.7905 40.5743 20.5313 41.2501 20.5313C41.3809 20.5312 41.507 20.5795 41.6045 20.6667C41.7019 20.754 41.7637 20.8741 41.7781 21.0041L42.3094 25.7853C42.3135 25.8229 42.3137 25.8608 42.3099 25.8985C42.1628 27.3222 41.7813 31.1435 41.7813 31.721C41.7813 32.3372 41.0944 32.9981 39.6648 34.3156C38.0918 35.7654 35.9376 37.7512 35.9376 39.1585V41.8147C35.9376 42.5181 34.8751 42.517 34.8751 41.8147V39.1585C34.8751 37.2858 37.1318 35.2054 38.9455 33.5336C39.6606 32.8743 40.6397 31.9717 40.7236 31.6801C40.7194 31.0022 41.1863 26.4393 41.2474 25.8453L40.7836 21.6729C40.6163 21.7377 40.4702 21.8418 40.3379 21.989C39.532 22.8868 39.5708 25.058 39.6537 25.8188C39.6584 25.8634 39.6611 26.8377 39.6473 26.9865C39.6021 27.4922 39.1293 29.546 38.5497 30.871C38.5216 30.9347 38.4812 30.9926 38.4307 31.041C38.4143 31.0569 36.769 32.6374 35.7941 33.6776C35.3123 34.1902 34.5383 33.4629 35.019 32.9508C35.9025 32.0094 37.2742 30.6808 37.6174 30.3498C38.036 29.3617 38.3239 28.1929 38.4759 27.4874C37.2551 27.5613 37.0426 27.896 36.4651 28.8071C36.1841 29.2496 35.835 29.8 35.2852 30.4656C35.2533 30.5039 35.2167 30.5373 35.1752 30.5655L32.3362 32.5077C31.2801 33.3333 29.5626 35.0253 29.5626 35.971C29.5626 37.3937 29.7666 38.3393 29.9159 39.0299C30.0115 39.473 30.0938 39.8555 30.0938 40.221V41.8147C30.0938 42.5181 29.0313 42.517 29.0313 41.8147V40.221C29.0313 39.9686 28.9633 39.6531 28.8773 39.2541C28.7179 38.5167 28.5001 37.5073 28.5001 35.971ZM28.5001 35.971C28.5001 37.5073 28.2823 38.5167 28.1229 39.2541C28.0368 39.6531 27.9688 39.9686 27.9688 40.221V41.8147C27.9688 41.9556 27.9129 42.0907 27.8132 42.1904C27.7136 42.29 27.5785 42.346 27.4376 42.346C27.2967 42.346 27.1615 42.29 27.0619 42.1904C26.9623 42.0907 26.9063 41.9556 26.9063 41.8147V40.221C26.9063 39.8555 26.9887 39.473 27.0843 39.0299C27.2336 38.3393 27.4376 37.3937 27.4376 35.971C27.4376 35.0232 25.72 33.3322 24.6368 32.4892L21.8249 30.566C21.5588 30.3849 20.7066 29.0769 20.5356 28.8076C19.9581 27.8965 19.7456 27.5618 18.5248 27.488C18.6767 28.1935 18.9647 29.3622 19.3833 30.3503C19.7265 30.6808 21.0982 32.0094 21.9816 32.9513C22.4614 33.4624 21.6884 34.1923 21.2065 33.6781C20.2312 32.6379 18.5864 31.0574 18.5699 31.0415C18.5193 30.9934 18.4788 30.9356 18.4509 30.8715C17.7253 29.2129 17.3661 27.1172 17.3513 27.0284C17.3401 26.9626 17.3444 26.0175 17.3438 25.8772C17.3438 24.9911 17.5521 22.1882 16.217 21.6734L15.7533 25.8459C15.8144 26.4398 16.2813 31.0043 16.2813 31.721C16.361 31.9728 17.3406 32.8748 18.0552 33.5341C19.8683 35.2054 22.1251 37.2858 22.1251 39.1585V41.8147C22.1251 41.9556 22.0691 42.0907 21.9695 42.1904C21.8698 42.29 21.7347 42.346 21.5938 42.346C21.4529 42.346 21.3178 42.29 21.2182 42.1904C21.1185 42.0907 21.0626 41.9556 21.0626 41.8147V39.1585C21.0626 37.7512 18.9084 35.7654 17.3353 34.3156C15.9057 32.9981 15.2188 32.3372 15.2188 31.721C15.2188 31.1435 14.8374 27.3222 14.6902 25.899C14.6864 25.8614 14.6866 25.8234 14.6908 25.7858L15.222 21.0046C15.2364 20.8746 15.2982 20.7545 15.3957 20.6672C15.4931 20.58 15.6193 20.5318 15.7501 20.5318C16.4258 20.5318 17.0155 20.7905 17.4549 21.2808C18.6879 22.6573 18.4525 25.4602 18.4063 25.9054V26.4212C20.2487 26.5073 20.6949 27.0741 21.4329 28.2376C21.6894 28.6418 22.0066 29.1418 22.4874 29.7314L25.2637 31.6312C25.6191 31.9064 28.5001 34.2019 28.5001 35.971Z" stroke="#D1FADF" stroke-width="0.3"/>
<path d="M33.6023 18.4825C33.5694 18.2934 33.5666 18.1003 33.5939 17.9103C33.6192 17.595 33.6481 17.2376 33.476 16.9409C33.3018 16.638 32.9748 16.4838 32.6861 16.3478C32.5111 16.2784 32.348 16.1819 32.203 16.0619C32.0825 15.9167 31.9857 15.7534 31.9162 15.5779C31.7801 15.2892 31.626 14.962 31.324 14.7884C31.0264 14.6156 30.669 14.6445 30.3537 14.6701C30.1639 14.6974 29.971 14.6947 29.7821 14.6618C29.6094 14.5976 29.4478 14.5067 29.3032 14.3924C29.0389 14.208 28.7389 14 28.3818 14C28.0247 14 27.725 14.208 27.4604 14.3917C27.3159 14.5058 27.1546 14.5967 26.9822 14.6611C26.7931 14.6941 26.6 14.6969 26.41 14.6695C26.095 14.644 25.7374 14.615 25.4405 14.7872C25.1379 14.9615 24.9835 15.2886 24.8477 15.5773C24.7782 15.7523 24.6817 15.9153 24.5618 16.0604C24.4165 16.1809 24.2531 16.2776 24.0776 16.3472C23.7891 16.4832 23.4619 16.6374 23.2883 16.9394C23.1157 17.237 23.1445 17.5944 23.1699 17.9097C23.1972 18.0995 23.1944 18.2924 23.1615 18.4813C23.0973 18.654 23.0064 18.8156 22.8921 18.9602C22.7082 19.2248 22.5 19.5246 22.5 19.8817C22.5 20.2388 22.7085 20.5393 22.8926 20.8041C23.0063 20.9477 23.097 21.1082 23.1612 21.2797C23.1944 21.4693 23.1973 21.663 23.1699 21.8535C23.1445 22.1689 23.1157 22.5263 23.2877 22.8231C23.4619 23.1258 23.7891 23.2801 24.0776 23.416C24.2529 23.4855 24.4161 23.5821 24.5613 23.7024C24.5775 23.7193 24.5928 23.737 24.6071 23.7555L23.3612 26.4267C23.3429 26.4659 23.3346 26.509 23.337 26.5522C23.3394 26.5954 23.3525 26.6373 23.3751 26.6742C23.3977 26.7111 23.429 26.7418 23.4664 26.7636C23.5037 26.7854 23.5459 26.7977 23.5891 26.7992L25.0109 26.8506L25.9633 27.9072C25.9922 27.9393 26.0287 27.9637 26.0694 27.9783C26.1102 27.9929 26.1538 27.9971 26.1966 27.9907C26.2394 27.9843 26.2799 27.9674 26.3145 27.9415C26.3492 27.9156 26.3769 27.8816 26.3952 27.8424L27.5253 25.4169C27.7744 25.588 28.0542 25.7637 28.3818 25.7637C28.7095 25.7637 28.9895 25.588 29.2384 25.4169L30.3687 27.8424C30.3869 27.8816 30.4146 27.9157 30.4492 27.9416C30.4838 27.9675 30.5244 27.9844 30.5671 27.9908C30.6099 27.9972 30.6536 27.993 30.6943 27.9784C30.735 27.9638 30.7715 27.9393 30.8004 27.9072L31.7529 26.8506L33.1761 26.7992C33.2193 26.7977 33.2615 26.7854 33.2988 26.7636C33.3362 26.7417 33.3675 26.711 33.3901 26.6741C33.4126 26.6372 33.4257 26.5953 33.4282 26.5521C33.4306 26.5089 33.4223 26.4658 33.404 26.4266L32.1572 23.7549C32.1712 23.7367 32.1862 23.7194 32.2021 23.7028C32.3473 23.5824 32.5107 23.4856 32.6861 23.416C32.9746 23.2801 33.3018 23.126 33.4759 22.8232C33.6481 22.5257 33.6192 22.1686 33.5939 21.8535C33.5666 21.6635 33.5694 21.4704 33.6022 21.2812C33.6666 21.1093 33.7575 20.9485 33.8716 20.8047C34.0557 20.5399 34.264 20.24 34.264 19.8823C34.264 19.5246 34.0558 19.2254 33.8723 18.9608C33.758 18.8164 33.6669 18.655 33.6023 18.4825ZM26.0875 27.2624L25.3257 26.4174C25.3022 26.3914 25.2737 26.3703 25.242 26.3555C25.2102 26.3406 25.1757 26.3323 25.1407 26.3311L24.0032 26.2899L24.9171 24.3301C25.0231 24.5925 25.2051 24.8172 25.4397 24.9754C25.7373 25.148 26.0945 25.1189 26.41 25.0938C26.6002 25.0665 26.7935 25.0695 26.9828 25.1025C27.0153 25.1116 27.047 25.1233 27.0777 25.1375L26.0875 27.2624ZM32.7626 26.2896L31.6236 26.3308C31.5885 26.3321 31.5541 26.3404 31.5223 26.3552C31.4905 26.37 31.462 26.3911 31.4385 26.4171L30.6767 27.2621L29.6865 25.1369C29.7174 25.1227 29.7494 25.1109 29.7821 25.1016C29.9712 25.0687 30.1642 25.0658 30.3541 25.0932C30.6684 25.1186 31.0264 25.1475 31.3235 24.9754C31.559 24.8173 31.7415 24.592 31.8473 24.3289L32.7626 26.2896ZM33.4405 20.5052C33.2902 20.6973 33.1738 20.9136 33.0963 21.1449C33.0456 21.3919 33.0374 21.6458 33.0719 21.8956C33.093 22.1577 33.1131 22.4052 33.0225 22.5612V22.5621C32.9305 22.7222 32.7036 22.8291 32.4635 22.9422C32.2327 23.035 32.0194 23.1666 31.8328 23.3313C31.7559 23.4102 31.6885 23.4978 31.632 23.5924V23.5932C31.5632 23.7122 31.5005 23.8346 31.4441 23.9599C31.331 24.201 31.224 24.4288 31.0625 24.5216C30.9066 24.6114 30.6584 24.592 30.3971 24.5709C30.1481 24.5365 29.895 24.5447 29.6488 24.5953C29.4908 24.6426 29.3412 24.714 29.205 24.8069C29.1392 24.8492 29.0733 24.8949 29.007 24.9407C28.7852 25.0945 28.5757 25.24 28.3826 25.24C28.1895 25.24 27.9801 25.0947 27.7582 24.9407C27.692 24.8949 27.6262 24.8492 27.5602 24.807C27.4246 24.7144 27.2755 24.6433 27.1182 24.5962C26.9935 24.5646 26.8651 24.5495 26.7364 24.5513C26.6136 24.5513 26.4901 24.5611 26.3685 24.5709C26.1066 24.592 25.8597 24.612 25.703 24.5215C25.5421 24.4282 25.4351 24.2012 25.3219 23.9608C25.2654 23.8352 25.2023 23.7125 25.1331 23.5934C25.0767 23.4983 25.009 23.4103 24.9313 23.3316C24.7449 23.167 24.5318 23.0354 24.3011 22.9425C24.0609 22.8294 23.8341 22.7225 23.7413 22.5615C23.6515 22.4055 23.671 22.1574 23.6919 21.8959C23.7266 21.6458 23.7182 21.3916 23.6672 21.1443C23.5896 20.9133 23.4732 20.6973 23.323 20.5055C23.1693 20.2843 23.0237 20.0755 23.0237 19.882C23.0237 19.6885 23.1686 19.4801 23.3221 19.2591C23.4729 19.0663 23.5897 18.8492 23.6674 18.6172C23.7183 18.3706 23.7266 18.1171 23.6919 17.8677C23.671 17.6057 23.6509 17.3588 23.7419 17.2015C23.8341 17.0412 24.0609 16.9343 24.3011 16.8212C24.5322 16.7282 24.7456 16.5962 24.9321 16.431C25.0968 16.2446 25.2284 16.0314 25.3212 15.8006C25.4343 15.5612 25.5413 15.3337 25.7022 15.241C25.8583 15.1505 26.1063 15.1705 26.3675 15.1918C26.6171 15.2264 26.8708 15.218 27.1176 15.1671C27.3494 15.0894 27.5662 14.9726 27.7586 14.8218C27.98 14.6686 28.1888 14.5238 28.3818 14.5238C28.5749 14.5238 28.7838 14.6686 29.0048 14.822C29.1973 14.9729 29.4144 15.0897 29.6464 15.1674C29.893 15.2183 30.1465 15.2266 30.3959 15.1919C30.658 15.1707 30.9048 15.1508 31.0621 15.2418C31.2222 15.3338 31.3292 15.5607 31.4424 15.8008C31.5353 16.032 31.6673 16.2455 31.8325 16.4321C32.0189 16.5967 32.232 16.7283 32.4628 16.8212C32.7022 16.9343 32.9297 17.0412 33.0224 17.2024C33.1129 17.3583 33.0929 17.6065 33.0718 17.8677C33.0372 18.1173 33.0455 18.371 33.0965 18.6178C33.1742 18.8495 33.2909 19.0662 33.4416 19.2586C33.595 19.4797 33.7399 19.6885 33.7399 19.8815C33.7399 20.0746 33.5947 20.284 33.4405 20.5052Z" fill="#008243"/>
<path d="M28.3819 16.1953C27.6525 16.1953 26.9395 16.4116 26.333 16.8168C25.7265 17.222 25.2538 17.798 24.9746 18.4718C24.6955 19.1457 24.6224 19.8873 24.7647 20.6027C24.907 21.3181 25.2582 21.9752 25.774 22.491C26.2898 23.0067 26.9469 23.358 27.6623 23.5003C28.3777 23.6426 29.1192 23.5695 29.7931 23.2904C30.467 23.0112 31.043 22.5385 31.4482 21.932C31.8534 21.3255 32.0697 20.6125 32.0697 19.8831C32.0685 18.9054 31.6796 17.968 30.9883 17.2767C30.2969 16.5854 29.3596 16.1965 28.3819 16.1953ZM28.3819 23.0471C27.7561 23.0472 27.1443 22.8616 26.624 22.514C26.1036 22.1663 25.6981 21.6722 25.4586 21.094C25.2191 20.5159 25.1564 19.8797 25.2785 19.2659C25.4005 18.6521 25.7019 18.0883 26.1444 17.6458C26.5869 17.2033 27.1506 16.9019 27.7644 16.7798C28.3782 16.6577 29.0144 16.7204 29.5926 16.9598C30.1707 17.1993 30.6649 17.6049 31.0126 18.1252C31.3603 18.6455 31.5458 19.2573 31.5458 19.8831C31.5449 20.7219 31.2112 21.5261 30.6181 22.1193C30.025 22.7125 29.2207 23.0462 28.3819 23.0471Z" fill="#008243"/>
<path d="M29.8001 18.9074L28.0465 20.6609L26.8616 19.476C26.8372 19.4516 26.8083 19.4324 26.7765 19.4192C26.7446 19.4061 26.7106 19.3994 26.6761 19.3994C26.6417 19.3994 26.6076 19.4063 26.5758 19.4195C26.544 19.4327 26.5152 19.452 26.4909 19.4764C26.4665 19.5008 26.4473 19.5297 26.4341 19.5615C26.421 19.5933 26.4143 19.6274 26.4143 19.6619C26.4143 19.6963 26.4212 19.7304 26.4344 19.7621C26.4476 19.7939 26.4669 19.8228 26.4913 19.8471L27.8613 21.2172C27.9105 21.2662 27.9771 21.2938 28.0466 21.2938C28.116 21.2938 28.1826 21.2662 28.2318 21.2172L30.1705 19.2784C30.1955 19.2542 30.2155 19.2253 30.2292 19.1934C30.2429 19.1614 30.2501 19.127 30.2504 19.0923C30.2507 19.0575 30.2441 19.023 30.2309 18.9908C30.2178 18.9586 30.1983 18.9294 30.1737 18.9048C30.1491 18.8802 30.1199 18.8608 30.0877 18.8476C30.0555 18.8344 30.021 18.8278 29.9862 18.8281C29.9514 18.8284 29.9171 18.8357 29.8851 18.8494C29.8532 18.8631 29.8243 18.8831 29.8001 18.9081V18.9074Z" fill="#008243"/>
</svg>
