<svg width="57" height="56" viewBox="0 0 57 56" fill="none" xmlns="http://www.w3.org/2000/svg">
<rect x="4.5" y="4" width="48" height="48" rx="24" fill="#D1FADF"/>
<rect x="4.5" y="4" width="48" height="48" rx="24" stroke="#ECFDF3" stroke-width="8"/>
<path d="M42.3094 25.7853L41.7781 21.0041C41.7637 20.8741 41.7019 20.754 41.6045 20.6667C41.507 20.5795 41.3809 20.5312 41.2501 20.5313C40.5743 20.5313 39.9846 20.7905 39.5453 21.2808C38.3123 22.6573 38.5476 25.4602 38.5938 25.9054V26.4212C36.7514 26.5073 36.3052 27.0741 35.5673 28.2376C35.3112 28.6418 34.9935 29.1418 34.5128 29.7314L31.7099 31.6503C31.381 31.9064 28.5001 34.2019 28.5001 35.971C28.5001 37.5073 28.7179 38.5167 28.8773 39.2541C28.9633 39.6531 29.0313 39.9686 29.0313 40.221V41.8147C29.0313 42.517 30.0938 42.5181 30.0938 41.8147V40.221C30.0938 39.8555 30.0115 39.473 29.9159 39.0299C29.7666 38.3393 29.5626 37.3937 29.5626 35.971C29.5626 35.0253 31.2801 33.3333 32.3362 32.5077L35.1752 30.5655C35.2167 30.5373 35.2533 30.5039 35.2852 30.4656C35.835 29.8 36.1841 29.2496 36.4651 28.8071C37.0426 27.896 37.2551 27.5613 38.4759 27.4874C38.3239 28.1929 38.036 29.3617 37.6174 30.3498C37.2742 30.6808 35.9025 32.0094 35.019 32.9508C34.5383 33.4629 35.3123 34.1902 35.7941 33.6776C36.769 32.6374 38.4143 31.0569 38.4307 31.041C38.4812 30.9926 38.5216 30.9347 38.5497 30.871C39.1293 29.546 39.6021 27.4922 39.6473 26.9865C39.6611 26.8377 39.6584 25.8634 39.6537 25.8188C39.5708 25.058 39.532 22.8868 40.3379 21.989C40.4702 21.8418 40.6163 21.7377 40.7836 21.6729L41.2474 25.8453C41.1863 26.4393 40.7194 31.0022 40.7236 31.6801C40.6397 31.9717 39.6606 32.8743 38.9455 33.5336C37.1318 35.2054 34.8751 37.2858 34.8751 39.1585V41.8147C34.8751 42.517 35.9376 42.5181 35.9376 41.8147V39.1585C35.9376 37.7512 38.0918 35.7654 39.6648 34.3156C41.0944 32.9981 41.7813 32.3372 41.7813 31.721C41.7813 31.1435 42.1628 27.3222 42.3099 25.8985C42.3137 25.8608 42.3135 25.8229 42.3094 25.7853ZM25.2637 31.6312L22.4874 29.7314C22.0066 29.1418 21.6894 28.6418 21.4329 28.2376C20.6949 27.0741 20.2487 26.5073 18.4063 26.4212V25.9054C18.4525 25.4602 18.6879 22.6573 17.4549 21.2808C17.0155 20.7905 16.4258 20.5318 15.7501 20.5318C15.6193 20.5318 15.4931 20.58 15.3957 20.6672C15.2982 20.7545 15.2364 20.8746 15.222 21.0046L14.6908 25.7858C14.6866 25.8234 14.6864 25.8614 14.6902 25.899C14.8374 27.3222 15.2188 31.1435 15.2188 31.721C15.2188 32.3372 15.9057 32.9981 17.3353 34.3156C18.9084 35.7654 21.0626 37.7512 21.0626 39.1585V41.8147C21.0626 41.9556 21.1185 42.0907 21.2182 42.1904C21.3178 42.29 21.4529 42.346 21.5938 42.346C21.7347 42.346 21.8698 42.29 21.9695 42.1904C22.0691 42.0907 22.1251 41.9556 22.1251 41.8147V39.1585C22.1251 37.2858 19.8683 35.2054 18.0552 33.5341C17.3406 32.8748 16.361 31.9728 16.2813 31.721C16.2813 31.0043 15.8144 26.4398 15.7533 25.8459L16.217 21.6734C17.5521 22.1882 17.3438 24.9911 17.3438 25.8772C17.3444 26.0175 17.3401 26.9626 17.3513 27.0284C17.3661 27.1172 17.7253 29.2129 18.4509 30.8715C18.4788 30.9356 18.5193 30.9934 18.5699 31.0415C18.5864 31.0574 20.2312 32.6379 21.2065 33.6781C21.6884 34.1923 22.4614 33.4624 21.9816 32.9513C21.0982 32.0094 19.7265 30.6808 19.3833 30.3503C18.9647 29.3622 18.6767 28.1935 18.5248 27.488C19.7456 27.5618 19.9581 27.8965 20.5356 28.8076C20.7066 29.0769 21.5588 30.3849 21.8249 30.566L24.6368 32.4892C25.72 33.3322 27.4376 35.0232 27.4376 35.971C27.4376 37.3937 27.2336 38.3393 27.0843 39.0299C26.9887 39.473 26.9063 39.8555 26.9063 40.221V41.8147C26.9063 41.9556 26.9623 42.0907 27.0619 42.1904C27.1615 42.29 27.2967 42.346 27.4376 42.346C27.5785 42.346 27.7136 42.29 27.8132 42.1904C27.9129 42.0907 27.9688 41.9556 27.9688 41.8147V40.221C27.9688 39.9686 28.0368 39.6531 28.1229 39.2541C28.2823 38.5167 28.5001 37.5073 28.5001 35.971C28.5001 34.2019 25.6191 31.9064 25.2637 31.6312Z" fill="#008243"/>
<path d="M28.5001 35.971C28.5001 34.2019 31.381 31.9064 31.7099 31.6503L34.5128 29.7314C34.9935 29.1418 35.3112 28.6418 35.5673 28.2376C36.3052 27.0741 36.7514 26.5073 38.5938 26.4212V25.9054C38.5476 25.4602 38.3123 22.6573 39.5453 21.2808C39.9846 20.7905 40.5743 20.5313 41.2501 20.5313C41.3809 20.5312 41.507 20.5795 41.6045 20.6667C41.7019 20.754 41.7637 20.8741 41.7781 21.0041L42.3094 25.7853C42.3135 25.8229 42.3137 25.8608 42.3099 25.8985C42.1628 27.3222 41.7813 31.1435 41.7813 31.721C41.7813 32.3372 41.0944 32.9981 39.6648 34.3156C38.0918 35.7654 35.9376 37.7512 35.9376 39.1585V41.8147C35.9376 42.5181 34.8751 42.517 34.8751 41.8147V39.1585C34.8751 37.2858 37.1318 35.2054 38.9455 33.5336C39.6606 32.8743 40.6397 31.9717 40.7236 31.6801C40.7194 31.0022 41.1863 26.4393 41.2474 25.8453L40.7836 21.6729C40.6163 21.7377 40.4702 21.8418 40.3379 21.989C39.532 22.8868 39.5708 25.058 39.6537 25.8188C39.6584 25.8634 39.6611 26.8377 39.6473 26.9865C39.6021 27.4922 39.1293 29.546 38.5497 30.871C38.5216 30.9347 38.4812 30.9926 38.4307 31.041C38.4143 31.0569 36.769 32.6374 35.7941 33.6776C35.3123 34.1902 34.5383 33.4629 35.019 32.9508C35.9025 32.0094 37.2742 30.6808 37.6174 30.3498C38.036 29.3617 38.3239 28.1929 38.4759 27.4874C37.2551 27.5613 37.0426 27.896 36.4651 28.8071C36.1841 29.2496 35.835 29.8 35.2852 30.4656C35.2533 30.5039 35.2167 30.5373 35.1752 30.5655L32.3362 32.5077C31.2801 33.3333 29.5626 35.0253 29.5626 35.971C29.5626 37.3937 29.7666 38.3393 29.9159 39.0299C30.0115 39.473 30.0938 39.8555 30.0938 40.221V41.8147C30.0938 42.5181 29.0313 42.517 29.0313 41.8147V40.221C29.0313 39.9686 28.9633 39.6531 28.8773 39.2541C28.7179 38.5167 28.5001 37.5073 28.5001 35.971ZM28.5001 35.971C28.5001 37.5073 28.2823 38.5167 28.1229 39.2541C28.0368 39.6531 27.9688 39.9686 27.9688 40.221V41.8147C27.9688 41.9556 27.9129 42.0907 27.8132 42.1904C27.7136 42.29 27.5785 42.346 27.4376 42.346C27.2967 42.346 27.1615 42.29 27.0619 42.1904C26.9623 42.0907 26.9063 41.9556 26.9063 41.8147V40.221C26.9063 39.8555 26.9887 39.473 27.0843 39.0299C27.2336 38.3393 27.4376 37.3937 27.4376 35.971C27.4376 35.0232 25.72 33.3322 24.6368 32.4892L21.8249 30.566C21.5588 30.3849 20.7066 29.0769 20.5356 28.8076C19.9581 27.8965 19.7456 27.5618 18.5248 27.488C18.6767 28.1935 18.9647 29.3622 19.3833 30.3503C19.7265 30.6808 21.0982 32.0094 21.9816 32.9513C22.4614 33.4624 21.6884 34.1923 21.2065 33.6781C20.2312 32.6379 18.5864 31.0574 18.5699 31.0415C18.5193 30.9934 18.4788 30.9356 18.4509 30.8715C17.7253 29.2129 17.3661 27.1172 17.3513 27.0284C17.3401 26.9626 17.3444 26.0175 17.3438 25.8772C17.3438 24.9911 17.5521 22.1882 16.217 21.6734L15.7533 25.8459C15.8144 26.4398 16.2813 31.0043 16.2813 31.721C16.361 31.9728 17.3406 32.8748 18.0552 33.5341C19.8683 35.2054 22.1251 37.2858 22.1251 39.1585V41.8147C22.1251 41.9556 22.0691 42.0907 21.9695 42.1904C21.8698 42.29 21.7347 42.346 21.5938 42.346C21.4529 42.346 21.3178 42.29 21.2182 42.1904C21.1185 42.0907 21.0626 41.9556 21.0626 41.8147V39.1585C21.0626 37.7512 18.9084 35.7654 17.3353 34.3156C15.9057 32.9981 15.2188 32.3372 15.2188 31.721C15.2188 31.1435 14.8374 27.3222 14.6902 25.899C14.6864 25.8614 14.6866 25.8234 14.6908 25.7858L15.222 21.0046C15.2364 20.8746 15.2982 20.7545 15.3957 20.6672C15.4931 20.58 15.6193 20.5318 15.7501 20.5318C16.4258 20.5318 17.0155 20.7905 17.4549 21.2808C18.6879 22.6573 18.4525 25.4602 18.4063 25.9054V26.4212C20.2487 26.5073 20.6949 27.0741 21.4329 28.2376C21.6894 28.6418 22.0066 29.1418 22.4874 29.7314L25.2637 31.6312C25.6191 31.9064 28.5001 34.2019 28.5001 35.971Z" stroke="#D1FADF" stroke-width="0.3"/>
<g clip-path="url(#clip0_14854_102254)">
<path d="M31.4247 21.5549C32.2536 20.5392 32.6901 19.2595 32.6545 17.949C32.6189 16.6385 32.1136 15.3844 31.2308 14.4153C30.3479 13.4462 29.1462 12.8265 27.8447 12.6692C26.5432 12.512 25.2285 12.8276 24.1402 13.5585C23.0531 14.2903 22.265 15.3881 21.9193 16.652C21.5735 17.916 21.6931 19.2621 22.2564 20.4452C22.8196 21.6284 23.7889 22.57 24.988 23.0986C26.187 23.6272 27.536 23.7077 28.7894 23.3253L31.3502 27.137C31.5865 27.4829 31.9499 27.7214 32.3613 27.8005C32.7726 27.8796 33.1985 27.7929 33.5463 27.5593C33.894 27.3257 34.1353 26.9642 34.2176 26.5534C34.2999 26.1427 34.2165 25.7161 33.9856 25.3666L31.4247 21.5549ZM23.1958 20.7783C22.8402 20.2541 22.5916 19.6647 22.4643 19.0442C22.337 18.4236 22.3336 17.7839 22.4542 17.162C22.5748 16.5401 22.8171 15.9481 23.1672 15.4201C23.5172 14.8921 23.9681 14.4384 24.4939 14.0851C25.0198 13.7318 25.6102 13.4859 26.2314 13.3615C26.8526 13.237 27.4922 13.2365 28.1136 13.3599C28.7349 13.4833 29.3258 13.7283 29.8522 14.0807C30.3787 14.4331 30.8303 14.8861 31.1812 15.4135C31.5369 15.9378 31.7854 16.5271 31.9127 17.1477C32.04 17.7683 32.0434 18.4079 31.9228 19.0298C31.8022 19.6518 31.5599 20.2437 31.2099 20.7717C30.8598 21.2998 30.4089 21.7535 29.8831 22.1067C29.3572 22.46 28.7668 22.7059 28.1456 22.8304C27.5244 22.9549 26.8848 22.9554 26.2635 22.8319C25.6421 22.7085 25.0512 22.4636 24.5248 22.1111C23.9984 21.7587 23.5467 21.3058 23.1958 20.7783ZM33.1871 27.0247C32.9821 27.1622 32.7308 27.2127 32.4886 27.1651C32.2463 27.1176 32.0328 26.9759 31.8949 26.7711L29.4201 23.0874C29.9902 22.8307 30.5129 22.4796 30.9661 22.0489L33.4408 25.7325C33.5776 25.9378 33.6277 26.1888 33.5802 26.4309C33.5326 26.6729 33.3914 26.8864 33.1871 27.0247Z" fill="#008243"/>
<g clip-path="url(#clip1_14854_102254)">
<path d="M29.9661 16.7949C29.963 16.6329 29.9601 16.4799 29.9601 16.3318C29.9601 16.2761 29.9379 16.2227 29.8985 16.1833C29.8592 16.1439 29.8057 16.1218 29.75 16.1218C28.8519 16.1218 28.168 15.8637 27.598 15.3095C27.5588 15.2713 27.5063 15.25 27.4516 15.25C27.3969 15.25 27.3444 15.2713 27.3052 15.3095C26.7353 15.8637 26.0515 16.1218 25.1534 16.1218C25.0977 16.1218 25.0443 16.1439 25.0049 16.1833C24.9655 16.2227 24.9434 16.2761 24.9434 16.3318C24.9434 16.4799 24.9405 16.633 24.9374 16.795C24.9086 18.3025 24.8692 20.3671 27.3828 21.2384C27.4274 21.2539 27.4758 21.2539 27.5204 21.2384C30.0342 20.3671 29.9949 18.3024 29.9661 16.7949ZM27.4516 20.8171C25.2958 20.034 25.3284 18.3185 25.3574 16.803C25.3591 16.7121 25.3608 16.6239 25.3619 16.5375C26.2031 16.502 26.8758 16.2471 27.4516 15.7455C28.0275 16.2471 28.7003 16.502 29.5415 16.5375C29.5427 16.6239 29.5444 16.712 29.5461 16.8029C29.575 18.3184 29.6076 20.034 27.4516 20.8171Z" fill="#008243"/>
<path d="M28.1748 17.5224L27.1611 18.536L26.7286 18.1035C26.689 18.0652 26.6359 18.044 26.5808 18.0445C26.5257 18.0449 26.473 18.067 26.4341 18.106C26.3951 18.1449 26.373 18.1976 26.3726 18.2527C26.3721 18.3078 26.3933 18.3609 26.4316 18.4005L27.0126 18.9815C27.0321 19.0011 27.0553 19.0165 27.0808 19.0271C27.1062 19.0376 27.1336 19.0431 27.1611 19.043C27.1887 19.0431 27.216 19.0376 27.2415 19.0271C27.267 19.0165 27.2901 19.0011 27.3096 18.9815L28.4717 17.8194C28.4912 17.7999 28.5067 17.7768 28.5173 17.7513C28.5278 17.7258 28.5333 17.6985 28.5333 17.671C28.5333 17.6434 28.5279 17.6161 28.5173 17.5906C28.5067 17.5651 28.4913 17.542 28.4718 17.5225C28.4324 17.4831 28.379 17.4609 28.3233 17.4609C28.2676 17.4609 28.2142 17.4831 28.1748 17.5224Z" fill="#008243"/>
</g>
</g>
<defs>
<clipPath id="clip0_14854_102254">
<rect width="14" height="14" fill="white" transform="translate(22.8774 11.6797) rotate(11.1056)"/>
</clipPath>
<clipPath id="clip1_14854_102254">
<rect width="6" height="6" fill="white" transform="translate(24.4517 15.25)"/>
</clipPath>
</defs>
</svg>
