<svg width="397" height="365" viewBox="0 0 397 365" fill="none" xmlns="http://www.w3.org/2000/svg">
<g clip-path="url(#clip0_8571_136197)">
<path d="M122.704 349.732C126.46 353.693 130.423 357.451 134.575 360.992H313.609C333.351 342.187 352.038 315.196 368.413 277.888C368.413 277.888 397.414 204.321 390.662 139.834C383.911 75.3479 341.636 24.3897 281.752 13.5362C221.869 2.68283 168.639 62.2018 101.802 82.8355C34.9642 103.469 -13.9893 158.769 3.60247 232.946C21.1943 307.123 70.3182 294.359 122.704 349.732Z" fill="#D5DDEA"/>
<path d="M47.0628 140.322H351.349C353.6 140.322 355.759 141.218 357.35 142.813C358.942 144.408 359.836 146.571 359.836 148.826V349.228H38.5996V148.818C38.6017 146.568 39.4936 144.411 41.0798 142.819C42.666 141.226 44.8174 140.329 47.0628 140.322Z" fill="white" stroke="#263238" stroke-linecap="round" stroke-linejoin="round"/>
<path d="M346.796 156.639H51.6309V323.765H346.796V156.639Z" stroke="#263238" stroke-linecap="round" stroke-linejoin="round"/>
<path d="M310.331 339.163H89.5654V350.057H310.331V339.163Z" fill="#D6D8E2" stroke="#263238" stroke-linecap="round" stroke-linejoin="round"/>
<path d="M310.331 344.415H89.5654V350.065H310.331V344.415Z" fill="white" stroke="#263238" stroke-linecap="round" stroke-linejoin="round"/>
<path d="M12.6172 356.521C12.6172 356.521 16.2443 360.968 27.1255 364.593H372.795C372.795 364.593 380.852 362.577 384.479 356.927L12.6172 356.521Z" fill="#D6D8E2" stroke="#263238" stroke-linecap="round" stroke-linejoin="round"/>
<path d="M383.7 348.569H13.4203C12.5733 348.569 11.8867 349.257 11.8867 350.106V355.52C11.8867 356.369 12.5733 357.057 13.4203 357.057H383.7C384.547 357.057 385.234 356.369 385.234 355.52V350.106C385.234 349.257 384.547 348.569 383.7 348.569Z" fill="#D6D8E2" stroke="#263238" stroke-linecap="round" stroke-linejoin="round"/>
<path d="M201.964 146.639C201.966 146.079 201.801 145.531 201.492 145.065C201.183 144.599 200.742 144.235 200.226 144.019C199.711 143.804 199.143 143.747 198.594 143.855C198.046 143.963 197.542 144.232 197.146 144.628C196.751 145.023 196.481 145.527 196.371 146.076C196.262 146.625 196.317 147.194 196.531 147.712C196.744 148.229 197.106 148.672 197.571 148.983C198.035 149.294 198.581 149.46 199.14 149.46C199.888 149.46 200.605 149.163 201.134 148.634C201.663 148.106 201.962 147.388 201.964 146.639Z" fill="white" stroke="#263238" stroke-linecap="round" stroke-linejoin="round"/>
<path d="M1.42773 364.594H396.594" stroke="#263238" stroke-linecap="round" stroke-linejoin="round"/>
<path d="M138.542 237.596H140.153L139.401 253H136.415L134.933 246.308L133.332 253H130.475L129.723 237.596H131.42L132.075 251.786L134.052 244.095H135.856L137.865 251.786L138.542 237.596ZM150.337 251.389V253H143.118V237.596H150.337V239.207H145.03V244.245H149.789V245.846H145.03V251.389H150.337ZM161.595 248.359C161.595 249.283 161.491 250.049 161.283 250.658C161.076 251.267 160.785 251.757 160.413 252.13C160.041 252.502 159.586 252.767 159.049 252.925C158.512 253.075 157.914 253.15 157.255 253.15C156.789 253.15 156.335 253.147 155.891 253.14C155.454 253.132 155.06 253.115 154.709 253.086C154.501 253.072 154.297 253.057 154.097 253.043C153.896 253.029 153.703 253.014 153.517 253V237.596C153.724 237.581 153.928 237.567 154.129 237.553C154.329 237.538 154.53 237.524 154.73 237.51C155.067 237.481 155.439 237.463 155.848 237.456C156.256 237.449 156.639 237.445 156.997 237.445C157.656 237.445 158.243 237.517 158.759 237.66C159.282 237.796 159.729 238.025 160.102 238.348C160.467 238.67 160.743 239.089 160.929 239.604C161.122 240.113 161.219 240.736 161.219 241.474C161.219 242.397 161.033 243.135 160.66 243.687C160.295 244.231 159.894 244.6 159.457 244.793C159.679 244.865 159.912 244.979 160.155 245.137C160.406 245.287 160.639 245.498 160.854 245.771C161.068 246.043 161.244 246.39 161.38 246.812C161.523 247.228 161.595 247.743 161.595 248.359ZM159.307 241.624C159.307 240.715 159.171 240.056 158.898 239.647C158.626 239.239 158.078 239.035 157.255 239.035C156.725 239.035 156.292 239.057 155.955 239.1C155.776 239.128 155.601 239.15 155.429 239.164V244.116H157.255C157.477 244.116 157.706 244.091 157.942 244.041C158.186 243.991 158.408 243.887 158.608 243.729C158.809 243.565 158.974 243.321 159.103 242.999C159.239 242.67 159.307 242.211 159.307 241.624ZM159.629 248.51C159.629 247.543 159.471 246.834 159.156 246.383C158.841 245.924 158.283 245.695 157.48 245.695H155.429V251.442C155.529 251.45 155.636 251.457 155.751 251.464C155.866 251.471 155.98 251.478 156.095 251.485C156.295 251.5 156.514 251.514 156.75 251.528C156.986 251.543 157.223 251.55 157.459 251.55C157.753 251.55 158.028 251.514 158.286 251.442C158.551 251.364 158.784 251.213 158.984 250.991C159.185 250.776 159.342 250.472 159.457 250.078C159.572 249.677 159.629 249.154 159.629 248.51ZM171.284 248.617C171.284 249.527 171.18 250.275 170.973 250.862C170.765 251.45 170.471 251.911 170.092 252.248C169.712 252.585 169.254 252.821 168.717 252.957C168.18 253.086 167.582 253.15 166.923 253.15C166.572 253.15 166.153 253.122 165.666 253.064C165.186 253.007 164.753 252.928 164.366 252.828V251.217C164.71 251.303 165.107 251.382 165.559 251.453C166.017 251.518 166.543 251.55 167.138 251.55C167.904 251.55 168.459 251.331 168.803 250.895C169.146 250.451 169.318 249.767 169.318 248.843C169.318 247.84 169.189 247.128 168.932 246.705C168.674 246.275 168.208 245.989 167.535 245.846C166.919 245.717 166.4 245.552 165.978 245.352C165.555 245.144 165.211 244.879 164.946 244.557C164.431 243.926 164.173 242.97 164.173 241.688C164.173 240.901 164.277 240.238 164.484 239.701C164.699 239.164 165.004 238.727 165.397 238.391C165.784 238.054 166.239 237.814 166.762 237.671C167.292 237.521 167.872 237.445 168.502 237.445C168.874 237.445 169.275 237.478 169.705 237.542C170.135 237.606 170.514 237.685 170.844 237.778V239.379C170.457 239.293 170.027 239.218 169.555 239.153C169.089 239.089 168.667 239.057 168.287 239.057C167.678 239.057 167.166 239.254 166.751 239.647C166.336 240.041 166.128 240.643 166.128 241.452C166.128 242.018 166.167 242.473 166.246 242.816C166.332 243.153 166.497 243.414 166.74 243.601C166.984 243.78 167.345 243.919 167.825 244.02C168.355 244.127 168.831 244.277 169.254 244.471C169.676 244.657 170.038 244.922 170.339 245.266C170.64 245.609 170.872 246.053 171.037 246.598C171.202 247.142 171.284 247.815 171.284 248.617ZM178.428 251.389V253H173.433V251.389H174.969V239.207H173.433V237.596H178.428V239.207H176.892V251.389H178.428ZM188.439 237.596V239.271H185.056V253H183.133V239.271H179.749V237.596H188.439ZM197.86 251.389V253H190.642V237.596H197.86V239.207H192.554V244.245H197.312V245.846H192.554V251.389H197.86ZM212.975 237.596H214.887V248.929C214.887 250.411 214.514 251.485 213.77 252.151C213.032 252.817 212.033 253.15 210.772 253.15C209.512 253.15 208.506 252.817 207.754 252.151C207.009 251.485 206.637 250.411 206.637 248.929V237.596H208.549V249.348C208.549 250.128 208.753 250.69 209.161 251.034C209.576 251.378 210.114 251.55 210.772 251.55C211.431 251.55 211.961 251.378 212.362 251.034C212.771 250.69 212.975 250.128 212.975 249.348V237.596ZM226.821 237.596V253H223.674L220.312 239.229V253H218.528V237.596H221.654L225.038 251.367V237.596H226.821ZM238.831 245.062C238.831 246.701 238.742 248.048 238.562 249.101C238.383 250.146 238.104 250.97 237.725 251.571C237.352 252.173 236.887 252.588 236.328 252.817C235.77 253.039 235.121 253.15 234.384 253.15C233.961 253.15 233.524 253.147 233.073 253.14C232.629 253.132 232.217 253.115 231.838 253.086C231.616 253.072 231.397 253.057 231.183 253.043C230.975 253.029 230.767 253.014 230.56 253V237.596C230.76 237.581 230.961 237.567 231.161 237.553C231.362 237.538 231.566 237.524 231.773 237.51C232.124 237.481 232.507 237.463 232.923 237.456C233.345 237.449 233.746 237.445 234.126 237.445C234.899 237.445 235.58 237.538 236.167 237.725C236.761 237.904 237.256 238.269 237.649 238.82C238.05 239.372 238.348 240.142 238.541 241.13C238.734 242.118 238.831 243.429 238.831 245.062ZM236.876 245.212C236.876 243.894 236.822 242.831 236.715 242.021C236.607 241.212 236.45 240.589 236.242 240.152C236.042 239.715 235.802 239.425 235.522 239.282C235.25 239.132 234.946 239.057 234.609 239.057C234.402 239.057 234.176 239.06 233.933 239.067C233.696 239.075 233.467 239.085 233.245 239.1C233.109 239.107 232.977 239.114 232.848 239.121C232.719 239.128 232.593 239.135 232.472 239.143V251.464C232.586 251.471 232.701 251.478 232.815 251.485C232.937 251.493 233.059 251.5 233.181 251.507C233.381 251.521 233.607 251.532 233.857 251.539C234.108 251.546 234.352 251.55 234.588 251.55C234.924 251.55 235.236 251.446 235.522 251.238C235.809 251.031 236.052 250.68 236.253 250.186C236.446 249.699 236.597 249.05 236.704 248.241C236.819 247.425 236.876 246.415 236.876 245.212ZM249.358 251.389V253H242.14V237.596H249.358V239.207H244.052V244.245H248.811V245.846H244.052V251.389H249.358ZM260.52 241.936C260.52 243.081 260.351 244.02 260.015 244.75C259.678 245.48 259.116 246 258.328 246.308L261.336 253H259.23L256.405 246.619H254.45V253H252.538V237.596C252.724 237.581 252.914 237.567 253.107 237.553C253.301 237.538 253.501 237.524 253.709 237.51C254.06 237.481 254.457 237.463 254.901 237.456C255.353 237.449 255.804 237.445 256.255 237.445C257.093 237.445 257.784 237.549 258.328 237.757C258.88 237.965 259.32 238.269 259.649 238.67C259.972 239.064 260.197 239.54 260.326 240.099C260.455 240.65 260.52 241.262 260.52 241.936ZM258.564 242.086C258.564 241.019 258.418 240.245 258.124 239.766C257.83 239.279 257.297 239.035 256.523 239.035C255.908 239.035 255.406 239.057 255.02 239.1C254.805 239.128 254.615 239.15 254.45 239.164V245.019H256.523C256.831 245.019 257.107 244.979 257.351 244.9C257.601 244.814 257.82 244.664 258.006 244.449C258.378 244.034 258.564 243.246 258.564 242.086ZM150.799 271.596V287H148.973V273.186L146.62 281.833H144.794L142.441 273.186V287H140.68V271.596H143.784L145.782 279.48L147.759 271.596H150.799ZM159.468 271.596L163.12 287H161.154L160.327 283.111H156.03L155.171 287H153.216L156.933 271.596H159.468ZM156.385 281.457H159.973L158.168 273.057L156.385 281.457ZM169.651 285.389V287H164.656V285.389H166.192V273.207H164.656V271.596H169.651V273.207H168.115V285.389H169.651ZM180.812 271.596V287H177.665L174.303 273.229V287H172.52V271.596H175.646L179.029 285.367V271.596H180.812ZM191.694 271.596V273.271H188.311V287H186.388V273.271H183.004V271.596H191.694ZM201.115 285.389V287H193.896V271.596H201.115V273.207H195.809V278.245H200.567V279.846H195.809V285.389H201.115ZM212.588 271.596V287H209.44L206.078 273.229V287H204.295V271.596H207.421L210.805 285.367V271.596H212.588ZM221.257 271.596L224.909 287H222.943L222.116 283.111H217.819L216.96 287H215.005L218.722 271.596H221.257ZM218.174 281.457H221.762L219.957 273.057L218.174 281.457ZM235.619 271.596V287H232.472L229.109 273.229V287H227.326V271.596H230.452L233.836 285.367V271.596H235.619ZM245.803 285.174V286.785C245.652 286.828 245.423 286.878 245.115 286.936C244.807 286.993 244.489 287.043 244.159 287.086C243.837 287.129 243.572 287.15 243.364 287.15C242.569 287.15 241.893 287.039 241.334 286.817C240.775 286.588 240.317 286.173 239.959 285.571C239.601 284.97 239.336 284.146 239.164 283.101C238.999 282.048 238.917 280.701 238.917 279.062C238.917 277.429 239.01 276.118 239.196 275.13C239.39 274.142 239.683 273.372 240.077 272.82C240.464 272.269 240.951 271.904 241.538 271.725C242.125 271.538 242.82 271.445 243.622 271.445C243.973 271.445 244.349 271.478 244.75 271.542C245.158 271.606 245.509 271.678 245.803 271.757V273.379C245.015 273.193 244.156 273.1 243.225 273.1C242.831 273.1 242.483 273.171 242.183 273.314C241.882 273.451 241.638 273.733 241.452 274.163C241.259 274.593 241.112 275.209 241.012 276.011C240.919 276.813 240.872 277.88 240.872 279.212C240.872 280.594 240.922 281.697 241.022 282.521C241.13 283.344 241.284 283.978 241.484 284.422C241.678 284.859 241.921 285.149 242.215 285.292C242.508 285.435 242.852 285.507 243.246 285.507C243.704 285.507 244.174 285.471 244.653 285.399C245.14 285.321 245.523 285.245 245.803 285.174ZM255.879 285.389V287H248.66V271.596H255.879V273.207H250.572V278.245H255.331V279.846H250.572V285.389H255.879Z" fill="#344444"/>
<path d="M224.749 188.004C225.732 187.022 226.458 185.812 226.864 184.483C227.27 183.153 227.344 181.743 227.078 180.378L221.763 185.695C221.46 185.993 221.052 186.16 220.627 186.16C220.202 186.16 219.794 185.993 219.491 185.695L215.077 181.273C214.78 180.969 214.613 180.56 214.613 180.134C214.613 179.709 214.78 179.3 215.077 178.996L220.384 173.671C218.899 173.385 217.366 173.502 215.942 174.01C214.518 174.518 213.255 175.397 212.285 176.558C211.314 177.719 210.67 179.118 210.421 180.612C210.172 182.106 210.325 183.639 210.866 185.053L197.152 198.475L195.83 197.15L197.988 194.988C198.09 194.877 198.146 194.732 198.146 194.581C198.146 194.431 198.09 194.286 197.988 194.175L196.317 192.508C196.208 192.403 196.062 192.344 195.911 192.344C195.76 192.344 195.614 192.403 195.505 192.508L194.694 193.321L192.884 191.516L193.582 190.817C193.724 190.666 193.802 190.467 193.802 190.26C193.802 190.053 193.724 189.854 193.582 189.703L178.619 174.712C178.263 174.355 177.84 174.071 177.374 173.878C176.908 173.685 176.409 173.585 175.905 173.585C175.401 173.585 174.902 173.685 174.436 173.878C173.971 174.071 173.547 174.355 173.191 174.712L171.665 176.24C171.309 176.597 171.026 177.021 170.833 177.488C170.64 177.954 170.541 178.455 170.541 178.96C170.541 179.465 170.64 179.965 170.833 180.431C171.026 180.898 171.309 181.322 171.665 181.679L186.628 196.671C186.779 196.812 186.978 196.891 187.184 196.891C187.391 196.891 187.589 196.812 187.74 196.671L188.43 195.971L190.239 197.784L189.428 198.597C189.323 198.706 189.264 198.852 189.264 199.004C189.264 199.155 189.323 199.301 189.428 199.41L191.051 201.085C191.161 201.187 191.306 201.243 191.456 201.243C191.606 201.243 191.751 201.187 191.862 201.085L194.02 198.923L195.319 200.223L183.959 211.337C182.547 210.792 181.016 210.637 179.524 210.885C178.032 211.134 176.634 211.779 175.475 212.752C174.315 213.725 173.437 214.992 172.931 216.42C172.426 217.848 172.311 219.386 172.599 220.873L177.913 215.556C178.217 215.258 178.625 215.092 179.049 215.092C179.474 215.092 179.882 215.258 180.185 215.556L184.6 219.979C184.897 220.283 185.064 220.692 185.064 221.117C185.064 221.543 184.897 221.951 184.6 222.255L179.293 227.58C180.777 227.866 182.311 227.749 183.735 227.242C185.159 226.734 186.421 225.854 187.392 224.693C188.363 223.533 189.006 222.133 189.256 220.64C189.505 219.146 189.352 217.613 188.811 216.199L200.171 205.093L215.669 220.621C215.448 221.196 215.397 221.823 215.524 222.426C215.65 223.03 215.949 223.583 216.383 224.02L220.124 227.767L224.611 223.272L220.871 219.524C220.435 219.089 219.882 218.789 219.28 218.662C218.678 218.535 218.053 218.586 217.479 218.808L201.98 203.353L215.686 189.947C217.221 190.54 218.896 190.671 220.506 190.326C222.115 189.981 223.59 189.174 224.749 188.004Z" fill="#263238" stroke="#263238" stroke-linecap="round" stroke-linejoin="round"/>
<path d="M262.092 258.319H132.652V266.051H262.092V258.319Z" fill="#E1E5F0"/>
<path d="M183.277 258.319H174.66L170.237 266.051H178.863L183.277 258.319Z" fill="#263238"/>
<path d="M262.092 266.052V259.076L258.1 266.052H262.092Z" fill="#263238"/>
<path d="M200.853 258.319H192.228L187.813 266.051H196.431L200.853 258.319Z" fill="#263238"/>
<path d="M165.701 258.319H157.084L152.67 266.051H161.287L165.701 258.319Z" fill="#263238"/>
<path d="M135.095 266.051H143.712L148.134 258.319H139.509L135.095 266.051Z" fill="#263238"/>
<path d="M253.572 258.319H244.946L240.532 266.051H249.15L253.572 258.319Z" fill="#263238"/>
<path d="M218.42 258.319H209.803L205.389 266.051H214.006L218.42 258.319Z" fill="#263238"/>
<path d="M235.996 258.319H227.378L222.956 266.051H231.573L235.996 258.319Z" fill="#263238"/>
<path d="M73.8401 274.694L51.6719 359.545H101.112L78.944 274.694C78.8093 274.117 78.4838 273.602 78.0205 273.234C77.5572 272.866 76.9833 272.666 76.3921 272.666C75.8008 272.666 75.2269 272.866 74.7636 273.234C74.3003 273.602 73.9749 274.117 73.8401 274.694Z" fill="#E1E5F0" stroke="#263238" stroke-linecap="round" stroke-linejoin="round"/>
<path d="M51.6719 359.545H91.9594L71.8116 282.449L51.6719 359.545Z" fill="#D6D8E2" stroke="#263238" stroke-linecap="round" stroke-linejoin="round"/>
<path d="M106.103 357.676H44.4342C42.6416 357.676 41.1885 359.132 41.1885 360.928V361.342C41.1885 363.138 42.6416 364.594 44.4342 364.594H106.103C107.895 364.594 109.349 363.138 109.349 361.342V360.928C109.349 359.132 107.895 357.676 106.103 357.676Z" fill="#E1E5F0" stroke="#263238" stroke-linecap="round" stroke-linejoin="round"/>
<path d="M84.9976 357.676H44.4342C42.6416 357.676 41.1885 359.132 41.1885 360.928V361.342C41.1885 363.138 42.6416 364.594 44.4342 364.594H84.9976C86.7901 364.594 88.2433 363.138 88.2433 361.342V360.928C88.2433 359.132 86.7901 357.676 84.9976 357.676Z" fill="#D6D8E2" stroke="#263238" stroke-linecap="round" stroke-linejoin="round"/>
<path d="M60.5166 325.693H92.2678L88.4298 311.002H64.3547L60.5166 325.693Z" fill="white" stroke="#263238" stroke-linecap="round" stroke-linejoin="round"/>
<path d="M60.5166 325.693H83.1149L79.2768 311.002H64.3547L60.5166 325.693Z" fill="#BABABA" stroke="#263238" stroke-linecap="round" stroke-linejoin="round"/>
<path opacity="0.3" d="M259.106 140.022L230.584 92.958L167.553 93.6491L139.461 140.022H259.106Z" fill="white"/>
<path d="M139.12 140.322H47.08C44.8311 140.322 42.6744 141.217 41.0842 142.811C39.494 144.404 38.6006 146.565 38.6006 148.818V309.701L139.12 140.322Z" fill="#CED2DF" stroke="#263238" stroke-miterlimit="10"/>
<path d="M259.301 140.322H351.341C353.59 140.322 355.747 141.217 357.337 142.811C358.927 144.404 359.821 146.565 359.821 148.818V309.701L259.301 140.322Z" fill="#CED2DF" stroke="#263238" stroke-miterlimit="10"/>
<path d="M204.354 96.7408C207.133 93.9564 207.133 89.442 204.354 86.6576C201.575 83.8732 197.069 83.8732 194.29 86.6576C191.511 89.442 191.511 93.9564 194.29 96.7408C197.069 99.5252 201.575 99.5252 204.354 96.7408Z" fill="white" stroke="#263238" stroke-linecap="round" stroke-linejoin="round"/>
<path d="M199.522 34.1217V0.813477" stroke="#263238" stroke-width="2" stroke-linecap="round" stroke-linejoin="round"/>
<path d="M199.522 56.1216V34.1221" stroke="#808080" stroke-width="2" stroke-miterlimit="10"/>
<path d="M188.504 56.1211L166.53 94.2422H232.061L210.096 56.1211H188.504Z" fill="#E1E5F0" stroke="#263238" stroke-width="0.97" stroke-miterlimit="10"/>
<path d="M190.703 56.1211L173.217 94.2422H225.375L207.889 56.1211H190.703Z" fill="#D6D8E2" stroke="#263238" stroke-linecap="round" stroke-linejoin="round"/>
<path d="M166.53 94.25L25.7715 331.497" stroke="#263238" stroke-linecap="round" stroke-linejoin="round"/>
<path d="M232.216 94.25L371.011 329.285" stroke="#263238" stroke-linecap="round" stroke-linejoin="round"/>
<path d="M51.6318 288.157V156.64H129.075" stroke="#263238" stroke-linecap="round" stroke-linejoin="round"/>
<path d="M269.127 156.64H346.789V288.816" stroke="#263238" stroke-linecap="round" stroke-linejoin="round"/>
</g>
<defs>
<clipPath id="clip0_8571_136197">
<rect width="397" height="365" fill="white"/>
</clipPath>
</defs>
</svg>
