<svg width="284" height="92" viewBox="0 0 284 92" fill="none" xmlns="http://www.w3.org/2000/svg">
<g filter="url(#filter0_d_13253_102703)">
<g clip-path="url(#clip0_13253_102703)">
<rect x="8" width="268" height="64" rx="12" fill="#344444"/>
<rect x="8" width="268" height="64" rx="12" fill="url(#paint0_linear_13253_102703)" fill-opacity="0.4" style="mix-blend-mode:soft-light"/>
<rect x="8" width="268" height="64" rx="12" fill="url(#paint1_radial_13253_102703)" fill-opacity="0.2" style="mix-blend-mode:overlay"/>
<rect x="8" width="268" height="64" rx="12" fill="url(#paint2_radial_13253_102703)" fill-opacity="0.7" style="mix-blend-mode:overlay"/>
<rect x="8" width="268" height="64" rx="12" fill="url(#paint3_linear_13253_102703)" fill-opacity="0.1" style="mix-blend-mode:plus-lighter"/>
<g style="mix-blend-mode:soft-light" filter="url(#filter1_f_13253_102703)">
<ellipse cx="142" cy="-9.5" rx="177" ry="19.5" fill="url(#paint4_radial_13253_102703)"/>
</g>
<path d="M26.7045 38V36.9773L30.5455 32.7727C30.9962 32.2803 31.3674 31.8523 31.6591 31.4886C31.9508 31.1212 32.1667 30.7765 32.3068 30.4545C32.4508 30.1288 32.5227 29.7879 32.5227 29.4318C32.5227 29.0227 32.4242 28.6686 32.2273 28.3693C32.0341 28.0701 31.7689 27.839 31.4318 27.6761C31.0947 27.5133 30.7159 27.4318 30.2955 27.4318C29.8485 27.4318 29.4583 27.5246 29.125 27.7102C28.7955 27.892 28.5398 28.1477 28.358 28.4773C28.1799 28.8068 28.0909 29.1932 28.0909 29.6364H26.75C26.75 28.9545 26.9072 28.3561 27.2216 27.8409C27.536 27.3258 27.964 26.9242 28.5057 26.6364C29.0511 26.3485 29.6629 26.2045 30.3409 26.2045C31.0227 26.2045 31.6269 26.3485 32.1534 26.6364C32.6799 26.9242 33.0928 27.3125 33.392 27.8011C33.6913 28.2898 33.8409 28.8333 33.8409 29.4318C33.8409 29.8598 33.7633 30.2784 33.608 30.6875C33.4564 31.0928 33.1913 31.5455 32.8125 32.0455C32.4375 32.5417 31.9167 33.1477 31.25 33.8636L28.6364 36.6591V36.75H34.0455V38H26.7045ZM40.1875 38.1591C39.3314 38.1591 38.6023 37.9261 38 37.4602C37.3977 36.9905 36.9375 36.3106 36.6193 35.4205C36.3011 34.5265 36.142 33.447 36.142 32.1818C36.142 30.9242 36.3011 29.8504 36.6193 28.9602C36.9413 28.0663 37.4034 27.3845 38.0057 26.9148C38.6117 26.4413 39.339 26.2045 40.1875 26.2045C41.036 26.2045 41.7614 26.4413 42.3636 26.9148C42.9697 27.3845 43.4318 28.0663 43.75 28.9602C44.072 29.8504 44.233 30.9242 44.233 32.1818C44.233 33.447 44.0739 34.5265 43.7557 35.4205C43.4375 36.3106 42.9773 36.9905 42.375 37.4602C41.7727 37.9261 41.0436 38.1591 40.1875 38.1591ZM40.1875 36.9091C41.036 36.9091 41.6951 36.5 42.1648 35.6818C42.6345 34.8636 42.8693 33.697 42.8693 32.1818C42.8693 31.1742 42.7614 30.3163 42.5455 29.608C42.3333 28.8996 42.0265 28.3598 41.625 27.9886C41.2273 27.6174 40.7481 27.4318 40.1875 27.4318C39.3466 27.4318 38.6894 27.8466 38.2159 28.6761C37.7424 29.5019 37.5057 30.6705 37.5057 32.1818C37.5057 33.1894 37.6117 34.0455 37.8239 34.75C38.036 35.4545 38.3409 35.9905 38.7386 36.358C39.1402 36.7254 39.6231 36.9091 40.1875 36.9091ZM46.392 38V36.9773L50.233 32.7727C50.6837 32.2803 51.0549 31.8523 51.3466 31.4886C51.6383 31.1212 51.8542 30.7765 51.9943 30.4545C52.1383 30.1288 52.2102 29.7879 52.2102 29.4318C52.2102 29.0227 52.1117 28.6686 51.9148 28.3693C51.7216 28.0701 51.4564 27.839 51.1193 27.6761C50.7822 27.5133 50.4034 27.4318 49.983 27.4318C49.536 27.4318 49.1458 27.5246 48.8125 27.7102C48.483 27.892 48.2273 28.1477 48.0455 28.4773C47.8674 28.8068 47.7784 29.1932 47.7784 29.6364H46.4375C46.4375 28.9545 46.5947 28.3561 46.9091 27.8409C47.2235 27.3258 47.6515 26.9242 48.1932 26.6364C48.7386 26.3485 49.3504 26.2045 50.0284 26.2045C50.7102 26.2045 51.3144 26.3485 51.8409 26.6364C52.3674 26.9242 52.7803 27.3125 53.0795 27.8011C53.3788 28.2898 53.5284 28.8333 53.5284 29.4318C53.5284 29.8598 53.4508 30.2784 53.2955 30.6875C53.1439 31.0928 52.8788 31.5455 52.5 32.0455C52.125 32.5417 51.6042 33.1477 50.9375 33.8636L48.3239 36.6591V36.75H53.733V38H46.392ZM55.5568 35.6136V34.4545L60.6705 26.3636H61.5114V28.1591H60.9432L57.0795 34.2727V34.3636H63.9659V35.6136H55.5568ZM61.0341 38V35.2614V34.7216V26.3636H62.375V38H61.0341ZM77.1634 29.2727C77.0952 28.697 76.8187 28.25 76.3338 27.9318C75.849 27.6136 75.2543 27.4545 74.5497 27.4545C74.0346 27.4545 73.5838 27.5379 73.1974 27.7045C72.8149 27.8712 72.5156 28.1004 72.2997 28.392C72.0876 28.6837 71.9815 29.0152 71.9815 29.3864C71.9815 29.697 72.0554 29.964 72.2031 30.1875C72.3546 30.4072 72.5478 30.5909 72.7827 30.7386C73.0175 30.8826 73.2637 31.0019 73.5213 31.0966C73.7789 31.1875 74.0156 31.2614 74.2315 31.3182L75.4134 31.6364C75.7164 31.7159 76.0535 31.8258 76.4247 31.9659C76.7997 32.1061 77.1577 32.2973 77.4986 32.5398C77.8433 32.7784 78.1274 33.0852 78.3509 33.4602C78.5743 33.8352 78.6861 34.2955 78.6861 34.8409C78.6861 35.4697 78.5213 36.0379 78.1918 36.5455C77.866 37.053 77.3887 37.4564 76.7599 37.7557C76.1349 38.0549 75.3755 38.2045 74.4815 38.2045C73.6482 38.2045 72.9266 38.0701 72.3168 37.8011C71.7107 37.5322 71.2334 37.1572 70.8849 36.6761C70.5402 36.1951 70.3452 35.6364 70.2997 35H71.7543C71.7921 35.4394 71.9399 35.803 72.1974 36.0909C72.4588 36.375 72.7884 36.5871 73.1861 36.7273C73.5876 36.8636 74.0194 36.9318 74.4815 36.9318C75.0194 36.9318 75.5024 36.8447 75.9304 36.6705C76.3584 36.4924 76.6974 36.2462 76.9474 35.9318C77.1974 35.6136 77.3224 35.2424 77.3224 34.8182C77.3224 34.4318 77.2145 34.1174 76.9986 33.875C76.7827 33.6326 76.4986 33.4356 76.1463 33.2841C75.794 33.1326 75.4134 33 75.0043 32.8864L73.5724 32.4773C72.6634 32.2159 71.9437 31.8428 71.4134 31.358C70.883 30.8731 70.6179 30.2386 70.6179 29.4545C70.6179 28.803 70.794 28.2348 71.1463 27.75C71.5024 27.2614 71.9796 26.8826 72.5781 26.6136C73.1804 26.3409 73.8527 26.2045 74.5952 26.2045C75.3452 26.2045 76.0118 26.339 76.5952 26.608C77.1785 26.8731 77.6406 27.2367 77.9815 27.6989C78.3262 28.161 78.508 28.6856 78.527 29.2727H77.1634ZM86.321 34.4318V29.2727H87.6619V38H86.321V36.5227H86.2301C86.0256 36.9659 85.7074 37.3428 85.2756 37.6534C84.8438 37.9602 84.2983 38.1136 83.6392 38.1136C83.0938 38.1136 82.6089 37.9943 82.1847 37.7557C81.7604 37.5133 81.4271 37.1496 81.1847 36.6648C80.9422 36.1761 80.821 35.5606 80.821 34.8182V29.2727H82.1619V34.7273C82.1619 35.3636 82.34 35.8712 82.696 36.25C83.0559 36.6288 83.5142 36.8182 84.071 36.8182C84.4044 36.8182 84.7434 36.733 85.0881 36.5625C85.4366 36.392 85.7282 36.1307 85.9631 35.7784C86.2017 35.4261 86.321 34.9773 86.321 34.4318ZM96.2997 31.2273L95.0952 31.5682C95.0194 31.3674 94.9077 31.1723 94.7599 30.983C94.616 30.7898 94.419 30.6307 94.169 30.5057C93.919 30.3807 93.599 30.3182 93.2088 30.3182C92.6747 30.3182 92.2296 30.4413 91.8736 30.6875C91.5213 30.9299 91.3452 31.2386 91.3452 31.6136C91.3452 31.947 91.4664 32.2102 91.7088 32.4034C91.9512 32.5966 92.33 32.7576 92.8452 32.8864L94.1406 33.2045C94.9209 33.3939 95.5024 33.6837 95.8849 34.0739C96.2675 34.4602 96.4588 34.9583 96.4588 35.5682C96.4588 36.0682 96.3149 36.5152 96.027 36.9091C95.7429 37.303 95.3452 37.6136 94.8338 37.8409C94.3224 38.0682 93.7277 38.1818 93.0497 38.1818C92.1596 38.1818 91.4228 37.9886 90.8395 37.6023C90.2562 37.2159 89.8868 36.6515 89.7315 35.9091L91.0043 35.5909C91.1255 36.0606 91.3546 36.4129 91.6918 36.6477C92.0327 36.8826 92.4777 37 93.027 37C93.652 37 94.1482 36.8674 94.5156 36.6023C94.8868 36.3333 95.0724 36.0114 95.0724 35.6364C95.0724 35.3333 94.9664 35.0795 94.7543 34.875C94.5421 34.6667 94.2164 34.5114 93.777 34.4091L92.3224 34.0682C91.5232 33.8788 90.9361 33.5852 90.5611 33.1875C90.1899 32.786 90.0043 32.2841 90.0043 31.6818C90.0043 31.1894 90.1425 30.7538 90.419 30.375C90.6993 29.9962 91.08 29.6989 91.5611 29.483C92.0459 29.267 92.5952 29.1591 93.2088 29.1591C94.0724 29.1591 94.7505 29.3485 95.2429 29.7273C95.7391 30.1061 96.0914 30.6061 96.2997 31.2273ZM102.273 29.2727V30.4091H97.75V29.2727H102.273ZM99.0682 27.1818H100.409V35.5C100.409 35.8788 100.464 36.1629 100.574 36.3523C100.688 36.5379 100.831 36.6629 101.006 36.7273C101.184 36.7879 101.371 36.8182 101.568 36.8182C101.716 36.8182 101.837 36.8106 101.932 36.7955C102.027 36.7765 102.102 36.7614 102.159 36.75L102.432 37.9545C102.341 37.9886 102.214 38.0227 102.051 38.0568C101.888 38.0947 101.682 38.1136 101.432 38.1136C101.053 38.1136 100.682 38.0322 100.318 37.8693C99.9583 37.7064 99.6591 37.4583 99.4205 37.125C99.1856 36.7917 99.0682 36.3712 99.0682 35.8636V27.1818ZM106.858 38.2045C106.305 38.2045 105.803 38.1004 105.352 37.892C104.902 37.6799 104.544 37.375 104.278 36.9773C104.013 36.5758 103.881 36.0909 103.881 35.5227C103.881 35.0227 103.979 34.6174 104.176 34.3068C104.373 33.9924 104.636 33.7462 104.966 33.5682C105.295 33.3902 105.659 33.2576 106.057 33.1705C106.458 33.0795 106.862 33.0076 107.267 32.9545C107.797 32.8864 108.227 32.8352 108.557 32.8011C108.89 32.7633 109.133 32.7008 109.284 32.6136C109.439 32.5265 109.517 32.375 109.517 32.1591V32.1136C109.517 31.553 109.364 31.1174 109.057 30.8068C108.754 30.4962 108.294 30.3409 107.676 30.3409C107.036 30.3409 106.534 30.4811 106.17 30.7614C105.807 31.0417 105.551 31.3409 105.403 31.6591L104.131 31.2045C104.358 30.6742 104.661 30.2614 105.04 29.9659C105.422 29.6667 105.839 29.4583 106.29 29.3409C106.744 29.2197 107.191 29.1591 107.631 29.1591C107.911 29.1591 108.233 29.1932 108.597 29.2614C108.964 29.3258 109.318 29.4602 109.659 29.6648C110.004 29.8693 110.29 30.178 110.517 30.5909C110.744 31.0038 110.858 31.5568 110.858 32.25V38H109.517V36.8182H109.449C109.358 37.0076 109.206 37.2102 108.994 37.4261C108.782 37.642 108.5 37.8258 108.148 37.9773C107.795 38.1288 107.366 38.2045 106.858 38.2045ZM107.062 37C107.593 37 108.04 36.8958 108.403 36.6875C108.771 36.4792 109.047 36.2102 109.233 35.8807C109.422 35.5511 109.517 35.2045 109.517 34.8409V33.6136C109.46 33.6818 109.335 33.7443 109.142 33.8011C108.953 33.8542 108.733 33.9015 108.483 33.9432C108.237 33.9811 107.996 34.0152 107.761 34.0455C107.53 34.072 107.343 34.0947 107.199 34.1136C106.85 34.1591 106.525 34.233 106.222 34.3352C105.922 34.4337 105.68 34.5833 105.494 34.7841C105.313 34.9811 105.222 35.25 105.222 35.5909C105.222 36.0568 105.394 36.4091 105.739 36.6477C106.087 36.8826 106.528 37 107.062 37ZM113.305 38V29.2727H114.646V38H113.305ZM113.987 27.8182C113.726 27.8182 113.5 27.7292 113.311 27.5511C113.125 27.3731 113.033 27.1591 113.033 26.9091C113.033 26.6591 113.125 26.4451 113.311 26.267C113.5 26.089 113.726 26 113.987 26C114.249 26 114.472 26.089 114.658 26.267C114.847 26.4451 114.942 26.6591 114.942 26.9091C114.942 27.1591 114.847 27.3731 114.658 27.5511C114.472 27.7292 114.249 27.8182 113.987 27.8182ZM118.443 32.75V38H117.102V29.2727H118.398V30.6364H118.511C118.716 30.1932 119.027 29.8371 119.443 29.5682C119.86 29.2955 120.398 29.1591 121.057 29.1591C121.648 29.1591 122.165 29.2803 122.608 29.5227C123.051 29.7614 123.396 30.125 123.642 30.6136C123.888 31.0985 124.011 31.7121 124.011 32.4545V38H122.67V32.5455C122.67 31.8598 122.492 31.3258 122.136 30.9432C121.78 30.5568 121.292 30.3636 120.67 30.3636C120.242 30.3636 119.86 30.4564 119.523 30.642C119.189 30.8277 118.926 31.0985 118.733 31.4545C118.54 31.8106 118.443 32.2424 118.443 32.75ZM129.03 38.2045C128.477 38.2045 127.975 38.1004 127.524 37.892C127.073 37.6799 126.715 37.375 126.45 36.9773C126.185 36.5758 126.053 36.0909 126.053 35.5227C126.053 35.0227 126.151 34.6174 126.348 34.3068C126.545 33.9924 126.808 33.7462 127.138 33.5682C127.467 33.3902 127.831 33.2576 128.229 33.1705C128.63 33.0795 129.034 33.0076 129.439 32.9545C129.969 32.8864 130.399 32.8352 130.729 32.8011C131.062 32.7633 131.304 32.7008 131.456 32.6136C131.611 32.5265 131.689 32.375 131.689 32.1591V32.1136C131.689 31.553 131.536 31.1174 131.229 30.8068C130.926 30.4962 130.465 30.3409 129.848 30.3409C129.208 30.3409 128.706 30.4811 128.342 30.7614C127.979 31.0417 127.723 31.3409 127.575 31.6591L126.303 31.2045C126.53 30.6742 126.833 30.2614 127.212 29.9659C127.594 29.6667 128.011 29.4583 128.462 29.3409C128.916 29.2197 129.363 29.1591 129.803 29.1591C130.083 29.1591 130.405 29.1932 130.768 29.2614C131.136 29.3258 131.49 29.4602 131.831 29.6648C132.176 29.8693 132.462 30.178 132.689 30.5909C132.916 31.0038 133.03 31.5568 133.03 32.25V38H131.689V36.8182H131.621C131.53 37.0076 131.378 37.2102 131.166 37.4261C130.954 37.642 130.672 37.8258 130.32 37.9773C129.967 38.1288 129.537 38.2045 129.03 38.2045ZM129.234 37C129.765 37 130.212 36.8958 130.575 36.6875C130.943 36.4792 131.219 36.2102 131.405 35.8807C131.594 35.5511 131.689 35.2045 131.689 34.8409V33.6136C131.632 33.6818 131.507 33.7443 131.314 33.8011C131.125 33.8542 130.905 33.9015 130.655 33.9432C130.409 33.9811 130.168 34.0152 129.933 34.0455C129.702 34.072 129.515 34.0947 129.371 34.1136C129.022 34.1591 128.696 34.233 128.393 34.3352C128.094 34.4337 127.852 34.5833 127.666 34.7841C127.484 34.9811 127.393 35.25 127.393 35.5909C127.393 36.0568 127.566 36.4091 127.911 36.6477C128.259 36.8826 128.7 37 129.234 37ZM135.659 38V26.3636H137V30.6591H137.114C137.212 30.5076 137.348 30.3144 137.523 30.0795C137.701 29.8409 137.955 29.6288 138.284 29.4432C138.617 29.2538 139.068 29.1591 139.636 29.1591C140.371 29.1591 141.019 29.3428 141.58 29.7102C142.14 30.0777 142.578 30.5985 142.892 31.2727C143.206 31.947 143.364 32.7424 143.364 33.6591C143.364 34.5833 143.206 35.3845 142.892 36.0625C142.578 36.7367 142.142 37.2595 141.585 37.6307C141.028 37.9981 140.386 38.1818 139.659 38.1818C139.098 38.1818 138.65 38.089 138.312 37.9034C137.975 37.714 137.716 37.5 137.534 37.2614C137.352 37.0189 137.212 36.8182 137.114 36.6591H136.955V38H135.659ZM136.977 33.6364C136.977 34.2955 137.074 34.8769 137.267 35.3807C137.46 35.8807 137.742 36.2727 138.114 36.5568C138.485 36.8371 138.939 36.9773 139.477 36.9773C140.038 36.9773 140.506 36.8295 140.881 36.5341C141.259 36.2348 141.544 35.8333 141.733 35.3295C141.926 34.822 142.023 34.2576 142.023 33.6364C142.023 33.0227 141.928 32.4697 141.739 31.9773C141.553 31.4811 141.271 31.089 140.892 30.8011C140.517 30.5095 140.045 30.3636 139.477 30.3636C138.932 30.3636 138.473 30.5019 138.102 30.7784C137.731 31.0511 137.451 31.4337 137.261 31.9261C137.072 32.4148 136.977 32.9848 136.977 33.6364ZM145.415 38V29.2727H146.756V38H145.415ZM146.097 27.8182C145.835 27.8182 145.61 27.7292 145.42 27.5511C145.235 27.3731 145.142 27.1591 145.142 26.9091C145.142 26.6591 145.235 26.4451 145.42 26.267C145.61 26.089 145.835 26 146.097 26C146.358 26 146.581 26.089 146.767 26.267C146.956 26.4451 147.051 26.6591 147.051 26.9091C147.051 27.1591 146.956 27.3731 146.767 27.5511C146.581 27.7292 146.358 27.8182 146.097 27.8182ZM150.553 26.3636V38H149.212V26.3636H150.553ZM153.009 38V29.2727H154.349V38H153.009ZM153.69 27.8182C153.429 27.8182 153.204 27.7292 153.014 27.5511C152.829 27.3731 152.736 27.1591 152.736 26.9091C152.736 26.6591 152.829 26.4451 153.014 26.267C153.204 26.089 153.429 26 153.69 26C153.952 26 154.175 26.089 154.361 26.267C154.55 26.4451 154.645 26.6591 154.645 26.9091C154.645 27.1591 154.55 27.3731 154.361 27.5511C154.175 27.7292 153.952 27.8182 153.69 27.8182ZM160.601 29.2727V30.4091H156.078V29.2727H160.601ZM157.396 27.1818H158.737V35.5C158.737 35.8788 158.792 36.1629 158.902 36.3523C159.016 36.5379 159.16 36.6629 159.334 36.7273C159.512 36.7879 159.699 36.8182 159.896 36.8182C160.044 36.8182 160.165 36.8106 160.26 36.7955C160.355 36.7765 160.43 36.7614 160.487 36.75L160.76 37.9545C160.669 37.9886 160.542 38.0227 160.379 38.0568C160.216 38.0947 160.01 38.1136 159.76 38.1136C159.381 38.1136 159.01 38.0322 158.646 37.8693C158.286 37.7064 157.987 37.4583 157.749 37.125C157.514 36.7917 157.396 36.3712 157.396 35.8636V27.1818ZM163.482 41.2727C163.254 41.2727 163.052 41.2538 162.874 41.2159C162.696 41.1818 162.572 41.1477 162.504 41.1136L162.845 39.9318C163.171 40.0152 163.459 40.0455 163.709 40.0227C163.959 40 164.18 39.8883 164.374 39.6875C164.571 39.4905 164.75 39.1705 164.913 38.7273L165.163 38.0455L161.936 29.2727H163.391L165.8 36.2273H165.891L168.3 29.2727H169.754L166.05 39.2727C165.883 39.7235 165.677 40.0966 165.43 40.392C165.184 40.6913 164.898 40.9129 164.572 41.0568C164.25 41.2008 163.887 41.2727 163.482 41.2727ZM176.206 38V26.3636H180.138C181.047 26.3636 181.793 26.5189 182.376 26.8295C182.96 27.1364 183.392 27.5587 183.672 28.0966C183.952 28.6345 184.092 29.2462 184.092 29.9318C184.092 30.6174 183.952 31.2254 183.672 31.7557C183.392 32.286 182.962 32.7027 182.382 33.0057C181.803 33.3049 181.062 33.4545 180.161 33.4545H176.979V32.1818H180.115C180.736 32.1818 181.236 32.0909 181.615 31.9091C181.998 31.7273 182.274 31.4697 182.445 31.1364C182.619 30.7992 182.706 30.3977 182.706 29.9318C182.706 29.4659 182.619 29.0587 182.445 28.7102C182.27 28.3617 181.992 28.0928 181.609 27.9034C181.227 27.7102 180.721 27.6136 180.092 27.6136H177.615V38H176.206ZM181.683 32.7727L184.547 38H182.911L180.092 32.7727H181.683ZM189.824 38.1818C188.983 38.1818 188.258 37.9962 187.648 37.625C187.042 37.25 186.574 36.7273 186.244 36.0568C185.919 35.3826 185.756 34.5985 185.756 33.7045C185.756 32.8106 185.919 32.0227 186.244 31.3409C186.574 30.6553 187.032 30.1212 187.619 29.7386C188.21 29.3523 188.9 29.1591 189.688 29.1591C190.142 29.1591 190.591 29.2348 191.034 29.3864C191.477 29.5379 191.881 29.7841 192.244 30.125C192.608 30.4621 192.898 30.9091 193.114 31.4659C193.33 32.0227 193.438 32.7083 193.438 33.5227V34.0909H186.71V32.9318H192.074C192.074 32.4394 191.975 32 191.778 31.6136C191.585 31.2273 191.309 30.9223 190.949 30.6989C190.593 30.4754 190.172 30.3636 189.688 30.3636C189.153 30.3636 188.691 30.4962 188.301 30.7614C187.915 31.0227 187.617 31.3636 187.409 31.7841C187.201 32.2045 187.097 32.6553 187.097 33.1364V33.9091C187.097 34.5682 187.21 35.1269 187.438 35.5852C187.669 36.0398 187.989 36.3864 188.398 36.625C188.807 36.8598 189.282 36.9773 189.824 36.9773C190.176 36.9773 190.494 36.928 190.778 36.8295C191.066 36.7273 191.314 36.5758 191.523 36.375C191.731 36.1705 191.892 35.9167 192.006 35.6136L193.301 35.9773C193.165 36.4167 192.936 36.803 192.614 37.1364C192.292 37.4659 191.894 37.7235 191.42 37.9091C190.947 38.0909 190.415 38.1818 189.824 38.1818ZM195.477 41.2727V29.2727H196.773V30.6591H196.932C197.03 30.5076 197.167 30.3144 197.341 30.0795C197.519 29.8409 197.773 29.6288 198.102 29.4432C198.436 29.2538 198.886 29.1591 199.455 29.1591C200.189 29.1591 200.837 29.3428 201.398 29.7102C201.958 30.0777 202.396 30.5985 202.71 31.2727C203.025 31.947 203.182 32.7424 203.182 33.6591C203.182 34.5833 203.025 35.3845 202.71 36.0625C202.396 36.7367 201.96 37.2595 201.403 37.6307C200.847 37.9981 200.205 38.1818 199.477 38.1818C198.917 38.1818 198.468 38.089 198.131 37.9034C197.794 37.714 197.534 37.5 197.352 37.2614C197.17 37.0189 197.03 36.8182 196.932 36.6591H196.818V41.2727H195.477ZM196.795 33.6364C196.795 34.2955 196.892 34.8769 197.085 35.3807C197.278 35.8807 197.561 36.2727 197.932 36.5568C198.303 36.8371 198.758 36.9773 199.295 36.9773C199.856 36.9773 200.324 36.8295 200.699 36.5341C201.078 36.2348 201.362 35.8333 201.551 35.3295C201.744 34.822 201.841 34.2576 201.841 33.6364C201.841 33.0227 201.746 32.4697 201.557 31.9773C201.371 31.4811 201.089 31.089 200.71 30.8011C200.335 30.5095 199.864 30.3636 199.295 30.3636C198.75 30.3636 198.292 30.5019 197.92 30.7784C197.549 31.0511 197.269 31.4337 197.08 31.9261C196.89 32.4148 196.795 32.9848 196.795 33.6364ZM208.773 38.1818C207.985 38.1818 207.294 37.9943 206.699 37.6193C206.108 37.2443 205.646 36.7197 205.312 36.0455C204.983 35.3712 204.818 34.5833 204.818 33.6818C204.818 32.7727 204.983 31.9792 205.312 31.3011C205.646 30.6231 206.108 30.0966 206.699 29.7216C207.294 29.3466 207.985 29.1591 208.773 29.1591C209.561 29.1591 210.25 29.3466 210.841 29.7216C211.436 30.0966 211.898 30.6231 212.227 31.3011C212.561 31.9792 212.727 32.7727 212.727 33.6818C212.727 34.5833 212.561 35.3712 212.227 36.0455C211.898 36.7197 211.436 37.2443 210.841 37.6193C210.25 37.9943 209.561 38.1818 208.773 38.1818ZM208.773 36.9773C209.371 36.9773 209.864 36.8239 210.25 36.517C210.636 36.2102 210.922 35.8068 211.108 35.3068C211.294 34.8068 211.386 34.2652 211.386 33.6818C211.386 33.0985 211.294 32.5549 211.108 32.0511C210.922 31.5473 210.636 31.1402 210.25 30.8295C209.864 30.5189 209.371 30.3636 208.773 30.3636C208.174 30.3636 207.682 30.5189 207.295 30.8295C206.909 31.1402 206.623 31.5473 206.438 32.0511C206.252 32.5549 206.159 33.0985 206.159 33.6818C206.159 34.2652 206.252 34.8068 206.438 35.3068C206.623 35.8068 206.909 36.2102 207.295 36.517C207.682 36.8239 208.174 36.9773 208.773 36.9773ZM214.774 38V29.2727H216.07V30.5909H216.161C216.32 30.1591 216.607 29.8087 217.024 29.5398C217.441 29.2708 217.911 29.1364 218.433 29.1364C218.532 29.1364 218.655 29.1383 218.803 29.142C218.95 29.1458 219.062 29.1515 219.138 29.1591V30.5227C219.092 30.5114 218.988 30.4943 218.825 30.4716C218.666 30.4451 218.498 30.4318 218.32 30.4318C217.895 30.4318 217.517 30.5208 217.183 30.6989C216.854 30.8731 216.592 31.1155 216.399 31.4261C216.21 31.733 216.115 32.0833 216.115 32.4773V38H214.774ZM225.07 29.2727V30.4091H220.547V29.2727H225.07ZM221.865 27.1818H223.206V35.5C223.206 35.8788 223.261 36.1629 223.371 36.3523C223.484 36.5379 223.628 36.6629 223.803 36.7273C223.981 36.7879 224.168 36.8182 224.365 36.8182C224.513 36.8182 224.634 36.8106 224.729 36.7955C224.823 36.7765 224.899 36.7614 224.956 36.75L225.229 37.9545C225.138 37.9886 225.011 38.0227 224.848 38.0568C224.685 38.0947 224.479 38.1136 224.229 38.1136C223.85 38.1136 223.479 38.0322 223.115 37.8693C222.755 37.7064 222.456 37.4583 222.217 37.125C221.982 36.7917 221.865 36.3712 221.865 35.8636V27.1818Z" fill="white"/>
<g filter="url(#filter2_d_13253_102703)">
<path d="M237.562 30.3125L241.5 34.25L245.438 30.3125" stroke="white" stroke-width="1.5" stroke-linecap="round" stroke-linejoin="round"/>
<path d="M241.5 23.75V34.25" stroke="white" stroke-width="1.5" stroke-linecap="round" stroke-linejoin="round"/>
<path d="M249.75 34.25V39.5C249.75 39.6989 249.671 39.8897 249.53 40.0303C249.39 40.171 249.199 40.25 249 40.25H234C233.801 40.25 233.61 40.171 233.47 40.0303C233.329 39.8897 233.25 39.6989 233.25 39.5V34.25" stroke="white" stroke-width="1.5" stroke-linecap="round" stroke-linejoin="round"/>
</g>
</g>
<rect x="9.75" y="1.75" width="264.5" height="60.5" rx="10.25" stroke="url(#paint5_linear_13253_102703)" stroke-width="3.5" style="mix-blend-mode:soft-light"/>
<rect x="9.75" y="1.75" width="264.5" height="60.5" rx="10.25" stroke="url(#paint6_linear_13253_102703)" stroke-opacity="0.72" stroke-width="3.5"/>
</g>
<defs>
<filter id="filter0_d_13253_102703" x="0" y="0" width="284" height="92" filterUnits="userSpaceOnUse" color-interpolation-filters="sRGB">
<feFlood flood-opacity="0" result="BackgroundImageFix"/>
<feColorMatrix in="SourceAlpha" type="matrix" values="0 0 0 0 0 0 0 0 0 0 0 0 0 0 0 0 0 0 127 0" result="hardAlpha"/>
<feMorphology radius="8" operator="erode" in="SourceAlpha" result="effect1_dropShadow_13253_102703"/>
<feOffset dy="20"/>
<feGaussianBlur stdDeviation="8"/>
<feComposite in2="hardAlpha" operator="out"/>
<feColorMatrix type="matrix" values="0 0 0 0 0.121569 0 0 0 0 0.184314 0 0 0 0 0.184314 0 0 0 0.38 0"/>
<feBlend mode="normal" in2="BackgroundImageFix" result="effect1_dropShadow_13253_102703"/>
<feBlend mode="normal" in="SourceGraphic" in2="effect1_dropShadow_13253_102703" result="shape"/>
</filter>
<filter id="filter1_f_13253_102703" x="-36" y="-30" width="356" height="41" filterUnits="userSpaceOnUse" color-interpolation-filters="sRGB">
<feFlood flood-opacity="0" result="BackgroundImageFix"/>
<feBlend mode="normal" in="SourceGraphic" in2="BackgroundImageFix" result="shape"/>
<feGaussianBlur stdDeviation="0.5" result="effect1_foregroundBlur_13253_102703"/>
</filter>
<filter id="filter2_d_13253_102703" x="228.5" y="20" width="34" height="32" filterUnits="userSpaceOnUse" color-interpolation-filters="sRGB">
<feFlood flood-opacity="0" result="BackgroundImageFix"/>
<feColorMatrix in="SourceAlpha" type="matrix" values="0 0 0 0 0 0 0 0 0 0 0 0 0 0 0 0 0 0 127 0" result="hardAlpha"/>
<feOffset dy="4"/>
<feGaussianBlur stdDeviation="2"/>
<feComposite in2="hardAlpha" operator="out"/>
<feColorMatrix type="matrix" values="0 0 0 0 0 0 0 0 0 0 0 0 0 0 0 0 0 0 0.25 0"/>
<feBlend mode="normal" in2="BackgroundImageFix" result="effect1_dropShadow_13253_102703"/>
<feBlend mode="normal" in="SourceGraphic" in2="effect1_dropShadow_13253_102703" result="shape"/>
</filter>
<linearGradient id="paint0_linear_13253_102703" x1="276" y1="32" x2="8" y2="32" gradientUnits="userSpaceOnUse">
<stop/>
<stop offset="0.5" stop-opacity="0"/>
<stop offset="1"/>
</linearGradient>
<radialGradient id="paint1_radial_13253_102703" cx="0" cy="0" r="1" gradientUnits="userSpaceOnUse" gradientTransform="translate(142 14) rotate(-90) scale(20.6667 86.5417)">
<stop stop-color="white"/>
<stop offset="1" stop-color="white" stop-opacity="0"/>
</radialGradient>
<radialGradient id="paint2_radial_13253_102703" cx="0" cy="0" r="1" gradientUnits="userSpaceOnUse" gradientTransform="translate(140.928 64) rotate(-90) scale(14.6667 142.576)">
<stop stop-color="white"/>
<stop offset="1" stop-color="white" stop-opacity="0"/>
</radialGradient>
<linearGradient id="paint3_linear_13253_102703" x1="160.017" y1="0" x2="160.017" y2="68.6667" gradientUnits="userSpaceOnUse">
<stop offset="0.296117" stop-color="white" stop-opacity="0"/>
<stop offset="0.762136" stop-color="white"/>
<stop offset="0.76699" stop-color="white" stop-opacity="0.6"/>
<stop offset="1" stop-color="white" stop-opacity="0"/>
</linearGradient>
<radialGradient id="paint4_radial_13253_102703" cx="0" cy="0" r="1" gradientUnits="userSpaceOnUse" gradientTransform="translate(142 -9.50001) scale(177 19.5)">
<stop stop-color="white" stop-opacity="0.4"/>
<stop offset="0.5" stop-color="white"/>
<stop offset="1" stop-color="white" stop-opacity="0.4"/>
</radialGradient>
<linearGradient id="paint5_linear_13253_102703" x1="142" y1="0" x2="142" y2="64" gradientUnits="userSpaceOnUse">
<stop stop-color="white"/>
<stop offset="1" stop-color="white" stop-opacity="0.6"/>
</linearGradient>
<linearGradient id="paint6_linear_13253_102703" x1="276" y1="32" x2="8" y2="32" gradientUnits="userSpaceOnUse">
<stop stop-color="white" stop-opacity="0"/>
<stop offset="0.25" stop-color="white" stop-opacity="0"/>
<stop offset="0.5" stop-color="white"/>
<stop offset="0.75" stop-color="white" stop-opacity="0"/>
<stop offset="1" stop-color="white" stop-opacity="0"/>
</linearGradient>
<clipPath id="clip0_13253_102703">
<rect x="8" width="268" height="64" rx="12" fill="white"/>
</clipPath>
</defs>
</svg>
