<svg width="142" height="160" viewBox="0 0 142 160" fill="none" xmlns="http://www.w3.org/2000/svg">
<g clip-path="url(#clip0_5013_205362)">
<path d="M116.179 22.2637H58.1841C57.4017 22.2642 56.6514 22.5752 56.0982 23.1284C55.5449 23.6817 55.2339 24.4319 55.2334 25.2143V78.4252C55.2339 79.2076 55.5449 79.9579 56.0982 80.5111C56.6514 81.0644 57.4017 81.3754 58.1841 81.3759H116.179C116.961 81.3755 117.712 81.0645 118.265 80.5112C118.818 79.958 119.129 79.2077 119.13 78.4252V25.2143C119.129 24.4319 118.818 23.6816 118.265 23.1283C117.712 22.5751 116.961 22.2641 116.179 22.2637Z" fill="#D5DDEA"/>
<path d="M112.361 62.8847H62.0022C60.3727 62.8847 59.0515 61.5635 59.0515 59.934V12.9194C59.0515 11.2899 60.3727 9.96875 62.0022 9.96875H112.361C113.99 9.96875 115.311 11.2899 115.311 12.9194V59.934C115.311 61.5635 113.99 62.8847 112.361 62.8847Z" fill="#F4F7FC"/>
<path d="M59.9857 60.8679V13.8536C59.9857 12.2241 61.3069 10.9029 62.9364 10.9029H113.295C113.871 10.9029 114.406 11.0702 114.859 11.3551C114.338 10.5233 113.415 9.96875 112.361 9.96875H62.0022C60.3727 9.96875 59.0515 11.2899 59.0515 12.9194V59.934C59.0515 60.9885 59.6061 61.9109 60.4379 62.4328C60.153 61.9788 59.9857 61.4438 59.9857 60.8682V60.8679Z" fill="url(#paint0_linear_5013_205362)"/>
<path d="M72.7231 37.7051L82.2635 47.2457H72.7231V37.7051Z" fill="url(#paint1_linear_5013_205362)"/>
<path d="M119.13 48.0333V26.0821L115.312 22.2637V48.033H119.13V48.0333Z" fill="#D5DDEA"/>
<path d="M123.602 50.0196L119.488 79.14C119.282 80.5958 118.037 81.6778 116.566 81.6778H57.7961C56.3259 81.6778 55.08 80.5958 54.8743 79.14L49.3152 39.7913C49.0644 38.0149 50.4429 36.4277 52.2369 36.4277H70.3864C71.8566 36.4277 73.1025 37.5097 73.3081 38.9652L74.0367 44.1183C74.2423 45.5741 75.4882 46.6561 76.9584 46.6561H120.681C122.474 46.6561 123.853 48.2432 123.602 50.0196H123.602Z" fill="url(#paint2_linear_5013_205362)"/>
<path d="M109.026 68.6892H65.3364C65.0969 68.6892 64.8657 68.6017 64.686 68.4434C64.5064 68.2851 64.3906 68.0667 64.3604 67.8291L63.8138 63.5012C63.7964 63.3627 63.8087 63.2222 63.8498 63.0888C63.8909 62.9555 63.9599 62.8324 64.0522 62.7278C64.1445 62.6231 64.258 62.5393 64.3851 62.4818C64.5123 62.4244 64.6502 62.3946 64.7897 62.3945H109.573C109.713 62.3946 109.85 62.4244 109.978 62.4818C110.105 62.5393 110.218 62.6231 110.311 62.7278C110.403 62.8324 110.472 62.9555 110.513 63.0888C110.554 63.2222 110.566 63.3627 110.549 63.5012L110.002 67.8291C109.972 68.0667 109.856 68.2851 109.677 68.4434C109.497 68.6017 109.266 68.6892 109.026 68.6892Z" fill="#D6D8E2"/>
</g>
<path d="M82.4032 15.7969H63.9294V16.9544H82.4032V15.7969ZM82.4032 20.2168H63.9294V21.3744H82.4032V20.2168ZM82.4032 24.6378H63.9294V25.7953H82.4032V24.6378ZM82.4032 29.0577H63.9294V30.2155H82.4032V29.0577Z" fill="white"/>
<g opacity="0.42" clip-path="url(#clip1_5013_205362)">
<mask id="mask0_5013_205362" style="mask-type:luminance" maskUnits="userSpaceOnUse" x="93" y="20" width="23" height="23">
<path d="M104.23 20.8848L115.01 31.7704L104.124 42.5499L93.3449 31.6643L104.23 20.8848Z" fill="white"/>
</mask>
<g mask="url(#mask0_5013_205362)">
<path d="M100.251 26.1734L104.429 24.6772L102.892 28.8403L100.251 26.1734Z" fill="#9A9FB8"/>
<path d="M104.429 24.6777L107.824 28.1067L102.892 28.8408L104.429 24.6777Z" fill="#C6CCE0"/>
<path d="M109.683 35.6978L111.22 31.5347L107.042 33.0308L109.683 35.6978Z" fill="#9A9FB8"/>
<path d="M111.22 31.5352L107.824 28.1062L107.042 33.0313L111.22 31.5352ZM102.892 28.8403L100.408 35.4497L100.251 26.1734L102.892 28.8403Z" fill="#C6CCE0"/>
<path d="M107.042 33.031L100.408 35.4495L109.683 35.698L107.042 33.031Z" fill="#787B94"/>
<path d="M102.892 28.8394L107.042 33.0303L107.824 28.1052L102.892 28.8394Z" fill="#ECF0FA"/>
<path d="M102.892 28.8398L100.408 35.4492L107.042 33.0308L102.892 28.8398Z" fill="#9A9FB8"/>
</g>
</g>
<g opacity="0.42" clip-path="url(#clip2_5013_205362)">
<mask id="mask1_5013_205362" style="mask-type:luminance" maskUnits="userSpaceOnUse" x="83" y="17" width="22" height="23">
<path d="M83.3044 28.4355L94.1371 17.6029L104.97 28.4355L94.1371 39.2682L83.3044 28.4355Z" fill="white"/>
</mask>
<g mask="url(#mask1_5013_205362)">
<path d="M88.6124 32.3885L87.0958 28.2179L91.2664 29.7345L88.6124 32.3885Z" fill="#9A9FB8"/>
<path d="M87.0957 28.2188L90.508 24.8065L91.2663 29.7353L87.0957 28.2188Z" fill="#C6CCE0"/>
<path d="M98.0911 22.9103L93.9205 21.3937L95.4371 25.5643L98.0911 22.9103Z" fill="#9A9FB8"/>
<path d="M93.9204 21.3933L90.5081 24.8056L95.437 25.5639L93.9204 21.3933ZM91.2664 29.7345L97.8879 32.1854L88.6124 32.3885L91.2664 29.7345Z" fill="#C6CCE0"/>
<path d="M95.4369 25.5631L97.8878 32.1846L98.0909 22.9091L95.4369 25.5631Z" fill="#787B94"/>
<path d="M91.2664 29.7342L95.437 25.5636L90.5081 24.8053L91.2664 29.7342Z" fill="#ECF0FA"/>
<path d="M91.2664 29.7344L97.8878 32.1853L95.4369 25.5638L91.2664 29.7344Z" fill="#9A9FB8"/>
</g>
</g>
<path d="M103.806 22.5535C103.739 22.5535 103.679 22.5033 103.673 22.4406C103.553 21.2997 103.46 20.9361 102.349 20.8358C102.282 20.8295 102.229 20.7731 102.229 20.7104C102.229 20.6477 102.282 20.5913 102.349 20.585C103.486 20.4847 103.553 20.2089 103.673 19.0679C103.673 19.0052 103.739 18.9551 103.806 18.9551C103.872 18.9551 103.932 19.0052 103.939 19.0679C104.059 20.2089 104.132 20.4847 105.263 20.585C105.33 20.5913 105.383 20.6477 105.383 20.7104C105.383 20.7731 105.33 20.8295 105.263 20.8358C104.145 20.9361 104.059 21.2997 103.939 22.4469C103.939 22.5096 103.879 22.5597 103.806 22.5597L103.806 22.5535Z" fill="#D6D9E3"/>
<path d="M106.96 24.3578C106.931 24.3578 106.906 24.3327 106.903 24.3014C106.851 23.7309 106.812 23.5491 106.335 23.4989C106.307 23.4958 106.284 23.4676 106.284 23.4362C106.284 23.4049 106.307 23.3767 106.335 23.3736C106.823 23.3234 106.851 23.1855 106.903 22.615C106.903 22.5837 106.931 22.5586 106.96 22.5586C106.988 22.5586 107.014 22.5837 107.017 22.615C107.068 23.1855 107.1 23.3234 107.584 23.3736C107.613 23.3767 107.636 23.4049 107.636 23.4362C107.636 23.4676 107.613 23.4958 107.584 23.4989C107.105 23.5491 107.068 23.7309 107.017 24.3045C107.017 24.3358 106.991 24.3609 106.96 24.3609V24.3578Z" fill="#D6D9E3"/>
<path d="M98.8495 38.7777C98.8209 38.7777 98.7953 38.7526 98.7924 38.7213C98.7411 38.1508 98.7012 37.969 98.2249 37.9189C98.1964 37.9157 98.1736 37.8875 98.1736 37.8562C98.1736 37.8248 98.1964 37.7966 98.2249 37.7935C98.7126 37.7433 98.7411 37.6054 98.7924 37.0349C98.7924 37.0036 98.8209 36.9785 98.8495 36.9785C98.878 36.9785 98.9036 37.0036 98.9065 37.0349C98.9578 37.6054 98.9892 37.7433 99.474 37.7935C99.5025 37.7966 99.5253 37.8248 99.5253 37.8562C99.5253 37.8875 99.5025 37.9157 99.474 37.9189C98.9949 37.969 98.9578 38.1508 98.9065 38.7244C98.9065 38.7558 98.8808 38.7808 98.8495 38.7808V38.7777Z" fill="#D6D9E3"/>
<path d="M94.7942 36.521C94.7466 36.521 94.7039 36.4834 94.6991 36.4364C94.6136 35.5807 94.547 35.308 93.7533 35.2328C93.7057 35.2281 93.6677 35.1858 93.6677 35.1387C93.6677 35.0917 93.7057 35.0494 93.7533 35.0447C94.566 34.9695 94.6136 34.7626 94.6991 33.9069C94.6991 33.8599 94.7466 33.8223 94.7942 33.8223C94.8417 33.8223 94.8845 33.8599 94.8892 33.9069C94.9748 34.7626 95.0271 34.9695 95.8351 35.0447C95.8826 35.0494 95.9206 35.0917 95.9206 35.1387C95.9206 35.1858 95.8826 35.2281 95.8351 35.2328C95.0366 35.308 94.9748 35.5807 94.8892 36.4411C94.8892 36.4881 94.8465 36.5257 94.7942 36.5257V36.521Z" fill="#D6D9E3"/>
<path d="M90.7389 37.8754C90.7103 37.8754 90.6847 37.8503 90.6818 37.8189C90.6305 37.2485 90.5906 37.0667 90.1143 37.0165C90.0858 37.0134 90.063 36.9852 90.063 36.9538C90.063 36.9225 90.0858 36.8943 90.1143 36.8911C90.602 36.841 90.6305 36.7031 90.6818 36.1326C90.6818 36.1012 90.7103 36.0762 90.7389 36.0762C90.7674 36.0762 90.793 36.1012 90.7959 36.1326C90.8472 36.7031 90.8786 36.841 91.3634 36.8911C91.3919 36.8943 91.4147 36.9225 91.4147 36.9538C91.4147 36.9852 91.3919 37.0134 91.3634 37.0165C90.8843 37.0667 90.8472 37.2485 90.7959 37.8221C90.7959 37.8534 90.7702 37.8785 90.7389 37.8785V37.8754Z" fill="#D6D9E3"/>
<path d="M89.3873 21.6547C89.3588 21.6547 89.3331 21.6296 89.3303 21.5982C89.2789 21.0278 89.239 20.846 88.7628 20.7958C88.7342 20.7927 88.7114 20.7645 88.7114 20.7331C88.7114 20.7018 88.7342 20.6736 88.7628 20.6704C89.2504 20.6203 89.2789 20.4824 89.3303 19.9119C89.3303 19.8805 89.3588 19.8555 89.3873 19.8555C89.4158 19.8555 89.4415 19.8805 89.4443 19.9119C89.4957 20.4824 89.527 20.6203 90.0118 20.6704C90.0404 20.6736 90.0632 20.7018 90.0632 20.7331C90.0632 20.7645 90.0404 20.7927 90.0118 20.7958C89.5327 20.846 89.4957 21.0278 89.4443 21.6014C89.4443 21.6327 89.4187 21.6578 89.3873 21.6578V21.6547Z" fill="#D6D9E3"/>
<path d="M100.201 24.3578C100.173 24.3578 100.147 24.3327 100.144 24.3014C100.093 23.7309 100.053 23.5491 99.5767 23.4989C99.5482 23.4958 99.5254 23.4676 99.5254 23.4362C99.5254 23.4049 99.5482 23.3767 99.5767 23.3736C100.064 23.3234 100.093 23.1855 100.144 22.615C100.144 22.5837 100.173 22.5586 100.201 22.5586C100.23 22.5586 100.255 22.5837 100.258 22.615C100.31 23.1855 100.341 23.3234 100.826 23.3736C100.854 23.3767 100.877 23.4049 100.877 23.4362C100.877 23.4676 100.854 23.4958 100.826 23.4989C100.347 23.5491 100.31 23.7309 100.258 24.3045C100.258 24.3358 100.233 24.3609 100.201 24.3609V24.3578Z" fill="#D6D9E3"/>
<path d="M106.059 18.5004C106.03 18.5004 106.005 18.4753 106.002 18.4439C105.951 17.8735 105.911 17.6917 105.434 17.6415C105.406 17.6384 105.383 17.6102 105.383 17.5788C105.383 17.5475 105.406 17.5193 105.434 17.5161C105.922 17.466 105.951 17.3281 106.002 16.7576C106.002 16.7262 106.03 16.7012 106.059 16.7012C106.087 16.7012 106.113 16.7262 106.116 16.7576C106.167 17.3281 106.199 17.466 106.683 17.5161C106.712 17.5193 106.735 17.5475 106.735 17.5788C106.735 17.6102 106.712 17.6384 106.683 17.6415C106.204 17.6917 106.167 17.8735 106.116 18.4471C106.116 18.4784 106.09 18.5035 106.059 18.5035V18.5004Z" fill="#D6D9E3"/>
<path d="M98.3989 19.8511C98.3514 19.8511 98.3086 19.8135 98.3039 19.7665C98.2183 18.9108 98.1518 18.6381 97.358 18.5629C97.3105 18.5582 97.2725 18.5158 97.2725 18.4688C97.2725 18.4218 97.3105 18.3795 97.358 18.3748C98.1708 18.2996 98.2183 18.0927 98.3039 17.237C98.3039 17.19 98.3514 17.1523 98.3989 17.1523C98.4464 17.1523 98.4892 17.19 98.494 17.237C98.5795 18.0927 98.6318 18.2996 99.4398 18.3748C99.4873 18.3795 99.5254 18.4218 99.5254 18.4688C99.5254 18.5158 99.4873 18.5582 99.4398 18.5629C98.6413 18.6381 98.5795 18.9108 98.494 19.7712C98.494 19.8182 98.4512 19.8558 98.3989 19.8558V19.8511Z" fill="#D6D9E3"/>
<path d="M102.905 37.8754C102.876 37.8754 102.85 37.8503 102.848 37.8189C102.796 37.2485 102.756 37.0667 102.28 37.0165C102.252 37.0134 102.229 36.9852 102.229 36.9538C102.229 36.9225 102.252 36.8943 102.28 36.8911C102.768 36.841 102.796 36.7031 102.848 36.1326C102.848 36.1012 102.876 36.0762 102.905 36.0762C102.933 36.0762 102.959 36.1012 102.962 36.1326C103.013 36.7031 103.044 36.841 103.529 36.8911C103.558 36.8943 103.581 36.9225 103.581 36.9538C103.581 36.9852 103.558 37.0134 103.529 37.0165C103.05 37.0667 103.013 37.2485 102.962 37.8221C102.962 37.8534 102.936 37.8785 102.905 37.8785L102.905 37.8754Z" fill="#D6D9E3"/>
<path d="M27.0848 36.9841L26.974 36.6357H26.6083H3.38186C2.61786 36.6357 1.88475 36.3314 1.34408 35.7907C0.803624 35.2503 0.5 34.5173 0.5 33.753C0.5 32.9886 0.803624 32.2556 1.34408 31.7152C1.88453 31.1747 2.61754 30.8711 3.38186 30.8711L29.0813 30.8711L29.0818 30.8711C29.6933 30.8705 30.2891 31.0646 30.7829 31.4253C31.2767 31.786 31.6428 32.2944 31.8283 32.8771C31.8283 32.8771 31.8283 32.8772 31.8283 32.8772L37.0823 49.4048L37.1931 49.7533H37.5588H132.898C134.251 49.753 135.584 50.0718 136.791 50.6838C137.997 51.2958 139.042 52.1838 139.841 53.2756C140.639 54.3673 141.169 55.6321 141.387 56.9671C141.605 58.3022 141.506 59.6698 141.096 60.9589L140.042 64.2733H35.7619L27.0848 36.9841ZM137.573 72.0356L128.172 101.599L128.172 101.601C127.624 103.345 126.534 104.869 125.059 105.951C123.585 107.032 121.803 107.614 119.975 107.611H119.974L51.6465 107.611L51.6438 107.611C49.0087 107.625 46.4864 108.682 44.6282 110.55C42.7699 112.419 41.7268 114.947 41.7268 117.582C41.7268 120.217 42.7699 122.745 44.6282 124.613C46.4864 126.482 49.0087 127.538 51.6438 127.553H51.6465L118.284 127.553L118.289 127.553C118.668 127.549 119.045 127.621 119.396 127.764C119.747 127.907 120.067 128.118 120.337 128.385C120.606 128.652 120.82 128.969 120.966 129.319C121.112 129.67 121.187 130.045 121.187 130.424C121.187 130.804 121.112 131.179 120.966 131.53C120.82 131.88 120.606 132.197 120.337 132.464C120.067 132.731 119.747 132.942 119.396 133.085C119.045 133.228 118.668 133.3 118.289 133.296H118.284H51.6457H51.6455C47.9389 133.298 44.3507 131.991 41.5142 129.605C38.6777 127.219 36.7752 123.908 36.1424 120.255C35.5096 116.603 36.1871 112.845 38.0555 109.644C39.9239 106.443 42.863 104.004 46.3541 102.759L46.3556 102.758L47.3763 102.391L47.8292 102.227L47.6833 101.769L38.2305 72.0367L137.573 72.0356ZM119.584 127.301C119.172 127.133 118.73 127.049 118.284 127.053V133.796C118.73 133.8 119.172 133.716 119.584 133.548C119.997 133.381 120.372 133.133 120.688 132.82C121.005 132.506 121.256 132.133 121.427 131.722C121.599 131.311 121.687 130.87 121.687 130.424C121.687 129.979 121.599 129.538 121.427 129.127C121.256 128.716 121.005 128.343 120.688 128.029C120.372 127.716 119.997 127.468 119.584 127.301ZM71.2619 141.337C72.4788 143.157 73.129 145.296 73.1302 147.485C73.1278 150.42 71.9614 153.235 69.8868 155.311C67.8121 157.387 64.9986 158.555 62.0635 158.56C59.8746 158.56 57.7348 157.912 55.9145 156.696C54.094 155.481 52.6749 153.752 51.8366 151.73C50.9982 149.708 50.7783 147.483 51.2047 145.335C51.631 143.188 52.6844 141.216 54.2318 139.667C55.7791 138.119 57.7508 137.064 59.8977 136.636C62.0445 136.208 64.27 136.426 66.2928 137.263C68.3156 138.1 70.0448 139.518 71.2619 141.337ZM93.9817 147.485C93.9829 145.296 94.6331 143.157 95.85 141.337C97.0671 139.518 98.7963 138.1 100.819 137.263C102.842 136.426 105.067 136.208 107.214 136.636C109.361 137.064 111.333 138.119 112.88 139.667C114.427 141.216 115.481 143.188 115.907 145.335C116.334 147.483 116.114 149.708 115.275 151.73C114.437 153.752 113.018 155.481 111.197 156.696C109.377 157.912 107.237 158.56 105.048 158.56C102.113 158.555 99.2998 157.387 97.2252 155.311C95.1506 153.235 93.9841 150.42 93.9817 147.485Z" fill="url(#paint3_linear_5013_205362)" stroke="url(#paint4_linear_5013_205362)"/>
<path d="M133.101 13.5859L137.626 11.1441C138.1 10.8881 138.275 10.3009 138.016 9.83258C137.757 9.36421 137.162 9.19204 136.688 9.44802L132.163 11.8898C131.689 12.1458 131.514 12.733 131.773 13.2013C132.032 13.6697 132.627 13.8419 133.101 13.5859Z" fill="url(#paint5_linear_5013_205362)"/>
<path d="M128.755 8.28659L131.896 4.21552C132.225 3.78872 132.145 3.18128 131.718 2.85875C131.291 2.53622 130.678 2.62074 130.349 3.04753L127.208 7.11861C126.879 7.5454 126.959 8.15285 127.386 8.47538C127.813 8.79791 128.426 8.71339 128.755 8.28659Z" fill="url(#paint6_linear_5013_205362)"/>
<path d="M134.116 19.6002L139.255 19.748C139.794 19.7635 140.239 19.3423 140.249 18.8072C140.259 18.2721 139.83 17.8257 139.291 17.8102L134.152 17.6624C133.613 17.6469 133.168 18.0681 133.158 18.6032C133.148 19.1384 133.577 19.5847 134.116 19.6002Z" fill="url(#paint7_linear_5013_205362)"/>
<g opacity="0.5">
<path d="M39.8548 11.858L35.4179 9.25981C34.9527 8.98743 34.7987 8.3945 35.0739 7.93546C35.3491 7.47642 35.9492 7.3251 36.4144 7.59748L40.8513 10.1957C41.3164 10.468 41.4704 11.061 41.1952 11.52C40.92 11.9791 40.3199 12.1304 39.8548 11.858Z" fill="url(#paint8_linear_5013_205362)"/>
<path d="M44.3831 6.71432L41.3866 2.53612C41.0725 2.0981 41.173 1.49379 41.611 1.18636C42.0491 0.878934 42.659 0.984802 42.9731 1.42282L45.9696 5.60102C46.2838 6.03905 46.1833 6.64335 45.7452 6.95078C45.3071 7.25821 44.6973 7.15234 44.3831 6.71432Z" fill="url(#paint9_linear_5013_205362)"/>
<path d="M38.6312 17.8316L33.4896 17.7999C32.9506 17.7966 32.5208 17.3601 32.5296 16.825C32.5384 16.2898 32.9824 15.8587 33.5215 15.862L38.663 15.8937C39.202 15.897 39.6319 16.3335 39.6231 16.8686C39.6143 17.4038 39.1702 17.8349 38.6312 17.8316Z" fill="url(#paint10_linear_5013_205362)"/>
</g>
<defs>
<linearGradient id="paint0_linear_5013_205362" x1="88.9117" y1="38.1537" x2="51.5956" y2="0.837318" gradientUnits="userSpaceOnUse">
<stop stop-color="white"/>
</linearGradient>
<linearGradient id="paint1_linear_5013_205362" x1="79.0264" y1="48.7765" x2="67.4946" y2="37.245" gradientUnits="userSpaceOnUse">
<stop stop-color="#C2CECE" stop-opacity="0"/>
<stop offset="0.179" stop-color="#AFBCBC" stop-opacity="0.179"/>
<stop offset="1" stop-color="#5B6A6A"/>
</linearGradient>
<linearGradient id="paint2_linear_5013_205362" x1="86.4585" y1="28.9272" x2="86.4585" y2="81.6778" gradientUnits="userSpaceOnUse">
<stop stop-color="#F4F6FC"/>
<stop offset="0.927" stop-color="#DEE1EA"/>
</linearGradient>
<linearGradient id="paint3_linear_5013_205362" x1="88.0621" y1="155.319" x2="89.4489" y2="51.0312" gradientUnits="userSpaceOnUse">
<stop stop-color="#D6D8E2"/>
<stop offset="0.206" stop-color="#DEE1EA"/>
<stop offset="1" stop-color="#F0F2F9"/>
</linearGradient>
<linearGradient id="paint4_linear_5013_205362" x1="71" y1="30.3711" x2="94.5" y2="164.217" gradientUnits="userSpaceOnUse">
<stop stop-color="#F5F6F7"/>
<stop offset="1" stop-color="#D5D7DA"/>
</linearGradient>
<linearGradient id="paint5_linear_5013_205362" x1="138.119" y1="9.3125" x2="131.595" y2="9.42637" gradientUnits="userSpaceOnUse">
<stop stop-color="#F0F2F8"/>
<stop offset="1" stop-color="#E4E7EF"/>
</linearGradient>
<linearGradient id="paint6_linear_5013_205362" x1="131.601" y1="2.3418" x2="125.688" y2="5.09912" gradientUnits="userSpaceOnUse">
<stop stop-color="#F0F2F8"/>
<stop offset="1" stop-color="#E4E7EF"/>
</linearGradient>
<linearGradient id="paint7_linear_5013_205362" x1="140.598" y1="18.4082" x2="134.892" y2="15.2451" gradientUnits="userSpaceOnUse">
<stop stop-color="#F0F2F8"/>
<stop offset="1" stop-color="#E4E7EF"/>
</linearGradient>
<linearGradient id="paint8_linear_5013_205362" x1="34.9893" y1="7.41211" x2="41.5047" y2="7.75357" gradientUnits="userSpaceOnUse">
<stop stop-color="#F0F2F8"/>
<stop offset="1" stop-color="#CBCDD4"/>
</linearGradient>
<linearGradient id="paint9_linear_5013_205362" x1="41.7466" y1="0.673828" x2="47.5598" y2="3.63583" gradientUnits="userSpaceOnUse">
<stop stop-color="#F0F2F8"/>
<stop offset="1" stop-color="#CBCDD4"/>
</linearGradient>
<linearGradient id="paint10_linear_5013_205362" x1="32.1946" y1="16.4141" x2="38.0078" y2="13.4521" gradientUnits="userSpaceOnUse">
<stop stop-color="#F0F2F8"/>
<stop offset="1" stop-color="#CBCDD4"/>
</linearGradient>
<clipPath id="clip0_5013_205362">
<rect width="74.3458" height="74.3458" fill="white" transform="translate(49.2856 8.65039)"/>
</clipPath>
<clipPath id="clip1_5013_205362">
<rect width="15.3197" height="15.3197" fill="white" transform="translate(104.23 20.8848) rotate(45.2806)"/>
</clipPath>
<clipPath id="clip2_5013_205362">
<rect width="15.3197" height="15.3197" fill="white" transform="translate(83.3044 28.4355) rotate(-45)"/>
</clipPath>
</defs>
</svg>
