<svg width="44" height="38" viewBox="0 0 44 38" fill="none" xmlns="http://www.w3.org/2000/svg">
<g clip-path="url(#clip0_13511_190566)">
<mask id="mask0_13511_190566" style="mask-type:luminance" maskUnits="userSpaceOnUse" x="0" y="0" width="44" height="38">
<path d="M25.4945 0L25.2604 0.0991361L25.1478 0.293789L25.079 0.349993L24.9659 0.441789L24.9526 0.452849L24.9037 0.52886L24.9022 0.655947L24.7308 0.915551L24.719 1.03771L24.605 1.16842L24.5672 1.2755L24.399 1.47116L24.0474 1.51992L23.9616 1.554L23.9207 1.54405L23.6739 1.48382L23.2999 1.39193L23.1624 1.35835L22.9763 1.4601L22.9254 1.47216L22.815 1.22191L22.7417 0.84316L22.7644 0.588181L22.7389 0.435455L22.1118 0.525743L22.0782 0.519409L22.0138 0.507846L21.9168 0.670627L21.7631 0.675855L21.7087 0.695662L21.6012 0.734572L21.4109 0.868296L20.8882 1.15163L20.9547 1.30848L20.9845 1.58246L21.1274 1.87414L21.5138 2.42129L21.4742 2.46493L21.5099 2.61233L21.3188 2.71408L21.0656 2.75761L21.0037 2.76807L20.9204 2.7183L20.8652 2.71719L20.7261 2.71468L20.6114 2.6448L20.5125 2.44703L20.4488 2.37514L19.7626 2.41868L19.7551 2.41918L19.4146 2.4408L19.2044 2.45397L19.1859 2.51842L19.3865 2.69055L19.3992 2.76445L19.3016 2.89516L18.765 3.59394L17.9188 4.45399L17.4979 4.66121L17.4785 4.67599L17.3328 4.78558L17.2007 4.88512L16.9317 4.87788L16.8946 4.87688L16.532 4.99803L16.4306 5.17529L16.2473 5.3616L15.9894 5.4734L15.8857 5.45812L15.7749 5.3432L15.6982 5.37527L15.5815 5.58511L15.3863 5.62301L15.2609 5.6025L15.2361 5.53544L15.3043 5.44133L15.3299 5.30399L15.2649 5.24155L15.1933 5.2514L15.0966 5.39518L15.0225 5.50537L14.8054 5.54428L14.6667 5.52961L14.3814 5.49954L14.3287 5.49381L14.2843 5.46345L14.2778 5.45872L14.1874 5.39628L14.1615 5.07625L14.1874 4.79614L14.2235 4.69017L14.1884 4.59153L14.0501 4.50647L13.9332 4.55051L13.8084 4.4004L13.7891 4.39879L13.6293 4.3826L13.4857 4.39256L13.319 4.36269L13.3124 4.36159L13.0598 4.2336L12.6827 4.19258L12.6079 4.12129L12.4792 4.11455L12.3895 4.06679L12.0561 3.81282L11.9395 3.75933L11.9348 3.75732L11.9328 3.75822L11.8795 3.78547L11.8514 3.85525L11.8599 4.0495L11.8266 4.07725L11.7737 4.03844L11.652 3.94916L11.608 3.94131L11.4799 4.01582L11.3696 4.07303L11.1646 3.96283L11.1373 3.96856L11.1243 3.97128L11.118 3.98746L11.1076 4.01421L11.2121 4.81172L11.0718 4.8443L10.8594 4.89356L10.7647 4.9005L10.5383 4.91669L10.4107 4.92554L10.2816 4.91096L10.2725 4.90985L10.158 4.87004L10.101 4.85013L10.0264 4.6591L9.95204 4.60762L9.75677 4.40251L9.51777 4.15165L9.49648 4.124L9.32489 3.902L9.32833 3.84328L9.36423 3.8091L9.42085 3.81905L9.43202 3.78597L9.3585 3.64391L9.30102 3.53311L9.54603 3.28647L9.57707 3.14229L9.53935 3.00736L9.45007 2.83684L9.37998 2.47126L9.28937 2.49268L9.16036 2.58548L8.8254 2.69105L8.38005 2.83171L8.15385 2.977L7.9751 3.02426H7.91704H7.7973L7.71872 3.12289L7.6407 3.15848L7.62399 3.04517L7.53233 3.03833L7.43923 3.17326L7.3805 3.18422L7.48191 2.95015L7.42204 2.95387L7.3361 3.03994L7.28234 3.21991L7.19765 3.27602L6.83604 3.41929L6.61385 3.50737L6.49506 3.55462L6.04112 3.79864L5.71102 4.10621L5.09237 4.54106L4.81699 4.68584L4.59097 4.85063L4.46417 4.94293L4.32543 4.98958L4.42616 5.17438L4.41738 5.24406L4.36591 5.2137L4.31015 5.18052L4.28188 5.09928L4.28074 5.09566L4.27787 5.09455L4.19203 5.06147L4.12605 5.16171L4.08165 5.19892H4.08136L3.64442 5.56369L3.14388 5.90674L2.95883 6.03323L2.61842 6.26619L2.23628 6.48598L2.05906 6.58783L2.04197 6.6004L1.77986 6.79455L1.42742 6.94928L1.09312 7.13298L1.09217 7.13349L1.08424 7.13822L1.03917 7.16506L0.748037 7.33971L0.683011 7.39108L0.529564 7.51284L0.461865 7.54864L0.0802083 7.74941L0 7.79405L0.0538542 7.96347L0.0782986 8.03485L0.130911 8.16868L0.158125 8.23795L0.169965 8.26731L0.192023 8.40164L0.309089 9.11519L0.268507 9.27777L0.349288 9.53235L0.381563 9.55688L0.448498 9.60836L0.692847 9.68859L0.720729 9.74319L0.706788 9.86073L0.767231 10.0606L0.789193 10.0931L0.862049 10.2018L0.938437 10.4609L0.843047 10.6011L0.82309 10.6845L0.580651 10.9599L0.488984 11.0638L0.546372 11.1299L0.666875 11.1397L0.69151 11.2957L0.752717 11.4243L0.722543 11.6944L0.77296 11.782L0.721016 11.8892L0.755295 12.0602L0.623047 12.3492L0.771719 12.3529L0.806953 12.3896L0.856988 12.5513L0.952665 12.7139L1.01005 13.0046L1.2249 13.0176L1.27655 12.9887L1.38789 12.835L1.4258 12.8571L1.49398 12.8974L1.51269 12.9242L1.56559 13.0014L1.6372 13.0277L1.8087 12.9998L1.94152 13.0224L1.98582 13.057L2.02326 13.0865L2.05209 13.1631L2.02832 13.333L2.04321 13.3749L2.1174 13.4532L2.14825 13.5681L2.33635 13.6997L2.46469 13.8692L2.5237 14.0477L2.49582 14.14L2.69729 14.2187L2.74962 14.3457L2.74675 14.5272L2.83088 14.7129L3.0757 14.8767L3.17969 14.8609L3.41554 14.735L3.50902 14.7942L3.57806 14.9375L3.65292 15.0368L3.7062 15.1074L3.85191 15.1117L3.90357 15.1132L3.95685 15.1883L4.03916 15.2171L4.06494 15.206L4.13875 15.1752L4.20273 15.1536L4.30318 15.1195L4.31807 14.9825L4.34261 14.7622L4.37355 14.6872L4.44201 14.6584L4.48422 14.5702L4.46417 14.4122L4.60749 14.2574L4.65027 14.2548L4.82577 14.2449L4.87495 14.2417L4.98972 14.1437L5.03976 14.0486L5.15472 14.0176L5.26635 13.93L5.32278 13.886L5.37186 13.8834L5.47842 13.8772L5.50878 13.8756L5.71255 13.7538L5.7433 13.7486L5.81654 13.736L5.88405 13.7617L6.06661 13.832L6.12744 13.8288L6.17117 13.8262L6.42688 13.5922L6.46565 13.5812L6.59227 13.5466L6.68613 13.5208L6.76118 13.4998L6.8941 13.5906L6.88837 13.7134L7.08163 14.0822L7.21541 14.1971L7.23317 14.2675L7.25847 14.3661L7.30918 14.449L7.442 14.5555L7.47561 14.6573L7.40753 14.7779L7.53806 14.8446L7.61416 14.9747L7.82843 14.9895L7.90339 15.0172L7.93136 15.0277L8.09417 15.2637L8.09235 15.3708L8.0913 15.4254L8.22317 15.6126L8.18841 15.6578L7.94817 15.7828L7.91265 15.8488L7.89651 15.9963L7.93957 16.1651L7.99056 16.2607L7.96115 16.3718L7.9856 16.4427L8.05578 16.6484L8.13408 16.7433L8.27798 16.9181L8.28055 16.9752L8.28533 17.0739L8.28944 17.1626L8.32715 17.2214L8.29994 17.3819L8.36707 17.5744L8.34396 17.6705L8.32849 17.7355L8.39332 17.8788L8.31455 17.9322L8.37595 18.0021L8.33384 18.0901L8.32142 18.3232L8.43018 18.4679L8.50724 18.5703L9.00864 18.8746L9.20849 18.9376L9.43985 19.1826L9.52102 19.1784L9.54766 19.1447L9.66339 18.9995L9.76689 18.9822L9.88358 19.0005L9.99549 18.9543L10.0202 18.9444L10.0526 18.894L10.1022 18.8977L10.1464 18.9008L10.2502 18.9082L10.3187 18.8804L10.3792 18.6815L10.5196 18.4544L10.7878 18.49L10.9894 18.5896L11.0625 18.6721L10.867 18.9334L10.8439 18.9643L10.8029 19.0885L10.8342 19.2707L11.0182 19.2371L11.2682 19.127L11.4416 19.118L11.5899 19.062L11.6967 19.118L11.8063 19.2472L11.8862 19.2187L12.0435 19.1012L12.0964 19.1258L12.335 19.4171L12.3696 19.5567L12.3771 19.5865L12.546 19.7497L12.6164 19.7707L12.6899 19.8652L12.6896 19.9502L12.6887 20.1102L12.744 20.2041L12.8009 20.3006L12.7976 20.467L12.8521 20.6894L12.8481 20.7562L12.8394 20.8883L12.8654 21.0069L12.7289 21.3317L12.6912 21.5288L12.7064 21.6139L12.7546 21.6606L12.7742 21.8553L12.861 21.998L12.893 22.2047L13.0034 22.3584L12.9837 22.445L13.0928 22.562L13.2223 22.6291L13.268 22.6149L13.2493 22.4445L13.2823 22.4063L13.4727 22.5441L13.5048 22.4817L13.4847 22.2745L13.5488 22.0369L13.6518 21.8506L13.7703 21.8243L13.8258 21.8673L13.9938 21.7373L14.2733 21.7976L14.4333 21.7536L14.4241 21.8154L14.5094 21.9215L14.5544 21.8951L14.5739 21.8085L14.6178 21.8009L14.8608 21.7587L15.0906 22.0179L15.1726 22.0509L15.2513 21.9985L15.2995 22.0452L15.3273 22.1664L15.5162 22.2268L15.8223 22.1322L16.0291 21.9828L16.0917 21.937L16.1723 21.9215L16.2325 21.9922L16.3336 21.9141L16.428 21.9712L16.5342 21.9062L16.6426 21.84L16.7576 21.8348L16.8112 21.7226L16.8911 21.6947L16.9389 21.742L16.9848 21.8506L17.015 21.9219L17.0869 21.9922L17.2042 22.0362L17.2445 22.1936L17.3617 22.2378L17.4337 22.308L17.5468 22.56L17.6476 22.4828L17.7417 22.5273L17.8732 22.6717L17.8994 22.7006L17.9458 22.7514L17.9863 22.9172L18.0135 23.0301L17.9948 23.1532L18.0215 23.2498L18.0905 23.2472L18.1279 23.319L18.1321 23.4408L18.1933 23.5363L18.3318 23.5432L18.5136 23.4745L18.5323 23.3517L18.3312 23.2005L18.3501 23.0899L18.4161 23.0017L18.4959 22.9738L18.5673 23.0321L18.6056 23.1406L18.689 23.2105L18.8509 23.2289L18.9254 23.2698L19.0061 23.3816L19.0566 23.5016L19.0394 23.6737L18.9739 23.7741L18.6262 24.0447L18.6075 24.168L18.5318 24.3054L18.3604 24.3369L18.328 24.3995L18.442 24.688L18.4135 24.8606L18.3482 24.9608L18.296 25.1098L18.3045 25.1465L18.3187 25.2068L18.3501 25.34L18.1385 25.5322L18.1447 25.7032L18.0596 25.89L18.1315 25.973L18.2471 25.9924L18.3496 25.9635L18.4832 25.8481L18.6538 25.8622L18.7831 25.8726L18.8763 25.9057L18.8575 26.0291L18.8629 26.062L18.8867 26.2111L18.8452 26.3349L18.9061 26.412L18.9295 26.4419L18.8968 26.4918L18.8985 26.5405L19.0046 26.6224L19.1253 26.7888L19.2109 26.944L19.2145 27.0415L19.1719 27.1413L18.8576 27.3375L18.7809 27.4384L18.6908 27.4908L18.5748 27.4588L18.4373 27.4639L18.3818 27.5155L18.232 27.815L18.2002 27.8895L18.199 27.9755V28.1713L18.2509 28.3403L18.3421 28.3365L18.4383 28.4546L18.3825 28.5444L18.2433 28.7684L18.2688 28.8409L18.3392 28.8869L18.5204 28.8307L18.6012 28.8517L18.6135 28.8864L18.6269 28.9242L18.7301 28.9322L18.8122 28.9898L18.7961 29.1739L18.8439 29.2333L18.9453 29.1923L19.0293 29.1893L19.094 29.1865L19.2195 29.1693L19.4223 29.0758L19.7769 29.0616L19.8894 29.0087L20.0339 28.994L20.0838 28.9887L20.2923 29.0664L20.3496 29.0643L20.4692 29.2185L20.5508 29.2642L20.895 29.2883L20.9546 29.3591L21.0478 29.4047L21.1612 29.3759L21.4844 29.4684L21.5771 29.495L21.6367 29.5664L21.7843 29.5364L22.0553 29.4257L22.112 29.4021L22.3975 29.3801L22.5757 29.2148L22.6404 29.1L22.6951 29.003L22.7745 28.9755L22.9119 28.983L23.0479 28.929L23.1445 28.718L23.2806 28.6644L23.6237 28.6525L23.7017 28.5768L23.9303 28.5569L23.9889 28.5408L24.0326 28.5286L24.0996 28.4777L24.3393 28.4451L24.3935 28.3334L24.4084 28.0638L24.5143 27.7546L24.5843 27.398L24.5581 27.2767L24.3508 27.2469L24.3368 27.1618L24.4125 27.0123L24.4325 26.9015L24.4836 26.8093L24.5716 26.6497L24.6179 26.5658L24.9339 26.3722L25.06 26.368L25.1273 26.3045L25.1925 26.1679L25.2108 26.0087L25.2981 25.8344L25.3466 25.7997L25.6454 25.5868L25.6925 25.5532L25.7953 25.5259L25.883 25.3763L25.9038 25.2898L25.974 25.265L26.0539 25.3659L26.1148 25.4425L26.3702 25.5322L26.5876 25.5012L26.6237 25.5616L26.6259 25.6472L26.8025 25.8008L26.6717 25.9099L26.6231 25.9504L26.4988 26.0542L26.5157 26.2494L26.4872 26.4823L26.5347 26.5422L26.5271 26.6891L26.482 26.7147L26.3968 26.5342L26.2022 26.5522L26.1822 26.675L26.2307 26.7713L26.1873 26.8585L26.1904 26.9803L26.148 27.104L25.9884 27.1334L26.0164 27.3281L25.9814 27.3775L26.1595 27.5318L26.162 27.6293L25.9388 27.8561L25.8764 28.0905L25.9363 28.1864L25.9046 28.2851L25.9309 28.4063L25.9198 28.4352L25.8802 28.5395L25.8133 28.7158L25.6882 28.7442L25.6451 28.8433L25.5951 29.1135L25.6903 29.2454L25.7598 29.2636L26.0592 29.3439L26.1737 29.3402L26.2789 29.4226L26.3762 29.6398L26.4472 29.7354L26.5756 29.8292L26.6135 29.9624L26.6668 30.2543L26.6465 30.3529L26.5153 30.5769L26.4852 30.6661L26.4409 30.7974L26.3959 30.9306L26.3776 30.9847L26.2979 30.9987L26.2878 31.048L26.3417 31.3524L26.4916 31.4085L26.4846 31.5801L26.5703 31.7973L26.5602 31.8587L26.4605 31.9599L26.3765 32.2433L26.3321 32.2936L26.3458 32.3665L26.4834 32.3992L26.5264 32.3L26.5721 32.2983L26.7806 32.427L26.9182 32.4469L27.0769 32.418L27.3479 32.312L27.3572 32.2265L27.4917 32.1368L27.5201 32.1547L27.5847 32.1956L27.6407 32.1568L27.7319 32.1547L27.8695 32.1872L27.9516 32.27L27.9831 32.3309L28.0952 32.5476L28.2578 32.6652L28.454 32.7695L28.5459 32.7915L28.6586 32.7517L28.7063 32.8236L28.743 32.9326L28.7826 32.9353L28.8685 32.941L28.9927 32.8892L29.0738 32.948L29.3333 33.378L29.3822 33.459L29.4294 33.5372L29.4007 33.77L29.4361 33.8305L29.5723 33.8146L29.5965 33.8749L29.6424 33.8982L29.7188 33.7496L29.7873 33.748L29.8592 33.917L29.8709 34.0329L29.8741 34.0634L29.8541 34.1862L29.9003 34.2213L30.0478 34.1935L30.2306 34.2375L30.2868 34.1993L30.3662 34.1971L30.4144 34.3184L30.4721 34.3415L30.5739 34.3141L30.7906 34.3456L30.9466 34.183L31.0613 34.2286L31.2474 34.4196L31.4901 34.5974L31.5741 34.6983L31.6299 34.7648L31.7715 35.0062L31.6492 35.1432L31.5281 35.342L31.4974 35.5015L31.5826 35.7806L31.6042 35.7188L31.6936 35.6432L31.9309 35.5891L31.9166 35.4428L32.0177 35.3913L32.1458 35.5351L32.2253 35.533L32.3211 35.5791L32.4433 35.6384L32.4708 35.6648L32.9292 36.1037L32.9087 36.214L33.0183 36.6027L33.1894 36.6479L33.0585 36.9317L33.231 37.0504L33.3354 37.1946L33.3419 37.2724L33.2445 37.3561L33.1389 37.479L33.0748 37.4896L33.0491 37.4922L32.9799 37.5387L33.2833 37.7225L33.3136 37.8642L33.4326 38L33.4382 37.9648L33.461 37.8221L33.5428 37.6999L33.7988 37.7161L33.9697 37.6437L34.1443 37.5582L34.2923 37.322L34.3801 37.3079L34.5122 37.3225L34.7829 37.4815L34.8276 37.5236L34.8945 37.7041L34.9988 37.7407L35.0478 37.6249L35.0798 37.5493L35.0361 37.3169L35.0862 37.204L35.2047 37.107L35.2357 37.033L35.3981 36.9307L35.4751 36.9375L35.7251 36.9575L36.0129 37.084L36.249 37.1017L36.2677 37.0105L36.372 37.0262L36.4048 37.095L36.4775 37.1238L36.5733 37.0965L36.576 37.0188L36.6191 36.9533L36.6094 36.8237L36.6588 36.7167L36.803 36.6612L36.9152 36.7481L36.9608 36.7837L37.0385 36.8903L37.1227 36.9018L37.1862 36.8708L37.2283 36.9186L37.2644 36.9591L37.2999 36.9989L37.4038 36.9102L37.531 36.8021L37.5914 36.7508L37.639 36.7103L37.8545 36.5267L37.961 36.4359L37.8996 36.3248L37.9503 36.2077L37.8818 36.1826L37.7419 36.2019L37.7078 36.0341L37.7233 35.9909L37.9775 35.8362L37.9787 35.6027L38.0868 35.4265L38.1043 35.3981L38.1034 35.3031L38.1309 35.2965L38.251 35.2664L38.3185 35.2051L38.3133 35.1394L38.2837 34.9726L38.3029 34.9207L38.3074 34.8996L38.3334 34.7816L38.3651 34.7554L38.2519 34.6794L37.7921 34.4963L37.7966 34.4836L37.8463 34.3441L37.8798 34.1279L38.1017 33.8829L37.9372 33.609L37.8564 33.5623L37.768 33.5596L37.6327 33.6436L37.4508 33.5644L37.4292 33.461L37.471 33.27L37.4657 33.1667L37.3893 33.0922L37.3396 33.0433L37.2771 32.8949L36.9821 32.194L36.8987 32.2774L36.7738 32.2532L36.5852 32.2953L36.5678 31.9332L36.5266 31.8561L36.5355 31.6267L36.4555 31.5045L36.4242 31.4561L36.5158 31.3812L36.5504 31.2596L36.5526 31.1346L36.6601 31.0507L36.5811 30.8708L36.6328 30.8225L36.637 30.8231L36.6787 30.8297L36.7693 30.8444L36.8239 30.8535L36.8509 30.8577L36.9016 30.8235L36.9428 30.7958L36.9225 30.7384L36.9092 30.7012L36.7944 30.5648L36.6762 30.4893L36.531 30.4699L36.3638 30.3303L36.5259 30.1332L36.6388 30.0307L36.6855 29.9882L36.6899 29.7421L36.7738 29.6802L36.8324 29.5413L36.7897 29.3822L36.8838 29.1776L36.9557 29.1114L37.0601 29.08L37.1937 29.1168L37.2615 29.0507L37.24 28.9604L37.2841 28.9127L37.3524 28.9026L37.4967 28.8183L37.5044 28.7941L37.5626 28.6058L37.4406 28.5385L37.4384 28.5332L37.3976 28.4352L37.3912 28.4199L37.3778 28.3885L37.3509 28.1901L37.3905 28.1293L37.6834 27.9693L37.7699 27.7826L37.7693 27.7132L37.9002 27.5343L37.8954 27.47L37.7639 27.3119L37.7509 27.2301L37.7899 27.1173L37.9458 26.9897L38.0509 26.9924L38.1232 26.9267L38.1464 26.8486L38.1203 26.7021L38.1579 26.5999L38.2105 26.4552L38.2209 26.3124L38.3039 26.1686L38.4446 26.0762L38.9165 25.8926L38.9568 25.5297L39.0205 25.4378L38.9877 25.4168L38.966 25.1855L39.1057 25.0914L39.3491 25.0884L39.6233 24.9466L39.6454 24.9451L39.6841 24.9419L39.7017 24.9557L39.7332 24.9803L39.7602 25.2215L39.8216 25.2898L40.0112 25.3652L40.0213 25.3696L40.1072 25.4551L40.1761 25.454L40.2689 25.4057L40.3167 25.3228L40.3392 25.1371L40.6453 25.1771L40.6761 25.1813L40.7908 25.2877L40.7268 25.3921L40.7848 25.5081L40.7172 25.6811L40.824 25.8269L40.9738 25.9247L41.0123 25.8506L41.0469 25.7945L41.1156 25.7893L41.1876 25.6806L41.1413 25.5128L41.0647 25.5113L41.0104 25.5102L41.0719 25.42L41.0916 25.3927L41.017 25.2247L41.1125 25.0039L41.1391 25.019L41.2225 25.0674L41.2744 24.9891L41.3514 24.9624L41.5707 25.0034L41.5979 24.8952L41.5277 24.7274L41.5385 24.563L41.5124 24.3606L41.4681 24.2892L41.3692 24.2369L41.3118 24.1728L41.3616 24.1356L41.4048 24.103L41.3999 24.0247L41.4095 23.9986L41.4272 23.9502L41.4395 23.9166L41.4763 23.9088L41.517 23.8999L41.5977 23.9193L41.6706 23.871L41.7346 23.7625L41.7618 23.6287L41.791 23.5945L41.948 23.5232L42.0325 23.4619L42.2477 23.4125L42.3485 23.3427L42.564 23.3579L42.7656 23.1407L42.6876 23.0289L42.7107 22.8516L42.7792 22.7692L42.8143 22.5788L42.8631 22.5279L42.9234 22.4655L42.9633 22.3533L43.0853 22.3481L43.1218 22.3129L43.195 22.3212L43.3097 22.3732L43.4111 22.4187L43.5056 22.5348L43.8254 22.3296L43.9478 22.3252L43.9717 22.3243L44 22.2634L43.9493 21.9231L43.634 21.6228L43.5927 21.5452L43.5351 21.4696L43.3015 21.2534L43.3496 21.1149L43.6034 20.7073L43.5772 20.5751L43.5657 20.5179L43.6012 20.3663L43.7066 20.1973L43.6925 19.9339L43.3871 19.7382L43.332 19.7031L43.3163 19.6358L43.2958 19.5467L43.3163 19.4968L43.3706 19.3662L43.3616 19.2172L43.193 19.1039L42.968 19.0499L42.9313 19.0194L42.7722 19.0552L42.7231 19.0384L42.6366 18.9396L42.4857 18.9543L42.4084 18.9937L42.3409 18.9527L42.3098 18.9339L42.2242 18.9523L42.0578 19.0656L41.9922 19.0578L41.8962 18.7823L41.8306 18.7655L41.8062 18.7204L41.7476 18.6107L41.6277 18.4432L41.6722 18.3657L41.6753 18.2917L41.6339 18.2104L41.581 18.2407L41.5029 18.203L41.4696 18.1343L41.4763 17.9659L41.4307 17.884L41.715 17.6527L41.7957 17.5351L41.9663 17.3741L42.0265 17.2308L42.0921 17.2476L42.1868 17.3504L42.2435 17.2937L42.2673 17.1667L42.2987 16.9993L42.4125 16.895L42.5054 16.7298L42.5041 16.5834L42.2345 16.6374L42.1073 16.6121L42.0676 16.5943L41.8813 16.511L41.6965 16.4821L41.5869 16.5698L41.5133 16.5834L41.4842 16.5404L41.4919 16.4841L41.4178 16.4243L41.3549 16.2869L41.4972 16.1437L41.5691 16.0713L41.5127 16.0503L41.3936 16.0058L41.3477 15.9055L41.2639 15.7218L41.2105 15.6924L41.1644 15.6195L40.8073 15.1221L40.7686 14.9494L40.6767 14.7779L40.4032 14.7764L40.1924 14.7749L40.118 14.7323L40.0482 14.7376L39.9633 14.8335L39.872 14.8252L39.8359 14.8221L39.8059 14.6903L39.7973 14.6537L39.8847 14.4112L39.8508 14.3078L39.6813 14.1887L39.4223 14.1614L39.2009 14.1773L39.1185 14.1483L39.055 14.0151L38.9276 14.0083L38.7562 14.088L38.6951 14.1033L38.5923 14.129L38.5109 14.1819L38.4535 14.1871L38.3461 14.141L38.2729 14.1892L38.2429 14.1917L38.199 14.195L38.1452 14.1437L38.115 14.0451L38.1347 13.9668L38.0799 13.8724L37.9823 13.9427L37.8552 13.9706L37.8288 13.9936L37.7132 14.0937L37.6745 13.9647L37.6371 13.9305L37.3028 14.1257L37.1959 14.1142L37.0239 13.8446L36.9136 13.8982L36.8305 13.6662L36.8109 13.6105L36.7247 13.6162L36.5465 13.7874L36.4417 13.9274L36.4275 14.0702L36.3418 14.0738L36.2921 14.0765L36.2185 13.9647L36.2183 13.9641L36.2163 13.9611L36.1633 13.9968L36.0658 14.0628L36.0573 14.057L36.0201 14.0334L35.9314 14.1257L35.874 14.1352L35.8731 14.1344L35.7973 14.0743L35.7783 14.0591L35.7882 14.0413L35.9742 13.7018L35.9729 13.6152L35.8867 13.3702L35.9422 13.2228L35.9202 13.1494L35.9187 13.1475L35.9123 13.1401L35.8576 13.0774L35.6506 12.7921L35.4839 12.6494L35.4221 12.5964L35.3631 12.1794L35.3591 11.9432L35.4018 11.9012L35.547 11.7579L35.5568 11.759L35.6535 11.7716L35.6686 11.7737L35.7181 11.7306L35.7542 11.6997L35.784 11.6346L35.8078 11.5826L35.8382 11.5161L35.8452 11.4846L35.8718 11.3645L35.8867 11.2973L35.9242 11.2862L35.9971 11.2647L36.146 11.2207L36.2154 11.2002L36.3142 10.8534L36.4848 10.6504L36.5513 10.4494L36.6052 10.4054L36.6201 10.3932L36.5554 10.2479L36.5479 10.2311L36.5304 10.2375L36.2886 10.3266L36.273 10.3072L36.2176 10.237L36.3704 9.99767L36.3865 9.92478L36.6613 9.68398L36.719 9.51868L36.7446 9.44579L36.77 9.30151L36.8248 8.99032L36.6667 8.90164L36.6654 8.81085L36.7675 8.57638L36.8169 8.46297L36.8323 8.33548L36.8477 8.32875L36.911 8.3014L36.9189 8.29768L36.9401 8.31296L37.0422 8.38636L37.0627 8.35076L37.1275 8.23956L37.1259 8.13037L37.1421 8.08312L37.176 7.98448L37.1041 7.8402L37.1027 7.74941L37.1202 7.73524L37.1716 7.69331L37.3461 7.70909L37.3683 7.70276L37.4853 7.67028L37.5125 7.54792L37.5178 7.52439L37.503 7.51806L37.2723 7.41943L37.2717 7.38695L37.27 7.27354L37.2723 7.2668L37.3202 7.10945L37.3838 7.08623L37.5283 7.03334L37.6146 6.94084L37.6824 6.81305V6.81023V6.80199L37.6805 6.66756L37.5379 6.55214L37.4348 6.54801L37.3988 6.5081L37.2453 6.52951L37.1798 6.53906L37.1541 6.49392L37.1522 6.38483L37.0926 6.36804L37.116 6.29454L37.0448 6.20486L37.0067 6.18646L36.5342 5.95883L36.2727 5.99965L36.099 6.07526L35.9264 6.04117L35.7162 5.99914H35.7156L35.6785 5.99181L35.6085 5.91368L34.8824 5.78981L34.7645 5.58149L34.6247 5.40624L34.6245 5.40572L34.6143 5.39305L34.5352 5.34439L34.3613 5.24154L34.3256 4.88259L34.3281 4.81543L34.3385 4.5316L34.3404 4.48484L34.1154 4.26405L33.5183 3.84006L33.3539 4.0704L33.3244 4.11183L33.0769 4.26244L32.9612 4.27913L32.8933 4.28919L32.7577 4.49862L32.5508 4.44814L32.5362 4.44453L31.9806 4.30919L31.8678 4.55623L31.7056 4.53743L30.9253 4.55522L30.7725 4.63546L30.7026 4.6065L30.6686 4.59243L30.5471 4.44251L30.5538 4.4214L30.7532 3.77179L30.5057 3.57935L30.4397 3.53259L30.3484 3.46804L29.8794 3.58719L29.7026 3.59141L29.5616 3.55672L29.5863 3.3495L29.4615 2.90188L29.4574 2.8867L29.3822 2.78114L29.3333 2.71247L29.1365 2.43597L29.075 2.37052L28.8561 2.13746L29.0776 1.51992L28.9832 0.986937L28.8948 0.691037L28.5915 0.691439L28.5534 0.651121L28.5078 0.602256L28.4793 0.350495L28.413 0.359946L28.3452 0.435454L28.1538 0.650015L28.2197 0.908311L28.1766 0.962806L28.1427 1.07823L27.983 1.24091L27.2645 1.97337L27.1779 2.06145L27.1264 2.06245L26.8592 1.74142L26.8253 1.72935L26.7397 1.69939L26.4678 1.75288L26.29 1.72784L25.7446 1.77439L25.5516 1.74252L25.4162 1.67003L25.386 1.3877L25.5259 1.36046L26.0409 1.54405L26.0283 1.35312L25.9832 1.32376L25.9747 1.30546L25.8773 1.08919L25.903 0.908714L26.0216 0.852007L26.0107 0.640664L26.0906 0.479593L26.0693 0.441788L25.991 0.402979L25.8922 0.18681L25.549 0.0902875L25.5031 0.0141759L25.4945 0ZM27.0998 0.795603L27.0041 1.2936L27.4143 1.39806L27.7423 0.886092L27.0998 0.795603Z" fill="white"/>
</mask>
<g mask="url(#mask0_13511_190566)">
<path d="M0 0H44V40.1531H0V0Z" fill="#EF3340"/>
<path d="M0 0H29.3333V40.1531H0V0Z" fill="#FDDA25"/>
<path d="M0 0H14.6667V40.1531H0V0Z" fill="black"/>
</g>
</g>
<defs>
<clipPath id="clip0_13511_190566">
<rect width="44" height="38" fill="white"/>
</clipPath>
</defs>
</svg>
