<svg width="44" height="36" viewBox="0 0 44 36" fill="none" xmlns="http://www.w3.org/2000/svg">
<path d="M24.3417 9.41022C24.2484 9.38736 24.1793 9.46685 24.1432 9.557V9.65479C24.2394 9.67926 24.3056 9.68695 24.3837 9.74651L24.4438 9.74039V9.66248C24.4438 9.61204 24.4243 9.586 24.4078 9.53863C24.3897 9.48666 24.3957 9.42405 24.3417 9.41022Z" fill="#00732F"/>
<path d="M39.5837 11.9889C39.8091 11.9889 40.0286 11.9736 40.1368 12.1723C40.1764 12.2445 40.196 12.3185 40.2059 12.3924H42.8666V12.316C42.8666 12.1876 43.0136 12.1589 43.1399 12.1498H43.1399C43.1162 12.0708 43.0964 12.0009 43.0651 11.9033C43.059 11.8819 43.0305 11.8788 43.0305 11.8559C43.0305 11.3683 43.029 11.0947 43.029 10.6072V10.4605L42.9493 9.95907V9.57852C42.9493 9.4318 43.0095 9.35538 43.047 9.21319C43.1072 8.99309 43.1433 8.86626 43.1433 8.63851C43.1433 8.52538 43.1568 8.41841 43.0651 8.35731C42.987 8.30528 42.9268 8.30219 42.8367 8.27168C42.8652 8.18452 42.9284 8.15546 42.9569 8.06994C42.9974 7.94769 43.011 7.86969 43.011 7.7398C43.011 7.59455 42.9809 7.51359 42.9809 7.3684V6.69282C42.9809 6.60111 42.9509 6.54914 42.9509 6.45748V6.08908C42.9058 5.90264 42.7434 5.87056 42.572 5.78341C42.4543 5.7241 42.3637 5.66555 42.3059 5.57095C42.1481 5.63665 42.058 5.69785 41.8866 5.69785C41.7573 5.69785 41.7047 5.60917 41.592 5.545C41.4597 5.47007 41.356 5.44562 41.2853 5.30043C41.2042 5.18892 41.1756 5.09257 41.1651 4.95196L41.2553 4.24271C41.2553 4.06852 41.147 3.98292 41.147 3.80869C41.147 3.59469 41.2027 3.47849 41.2252 3.26457C41.2357 3.16219 41.2237 3.09792 41.2553 3.00165C41.3425 2.73572 41.4056 2.57518 41.4056 2.29401V2.16253C41.4056 2.12584 41.3905 2.10438 41.3905 2.06775V1.83239C41.3905 1.71165 41.4116 1.6428 41.4116 1.52212C41.4116 1.34483 41.2914 1.17969 41.117 1.17969C40.9877 1.17969 40.9156 1.2164 40.7863 1.2164C40.7577 1.2164 40.7316 1.21312 40.7046 1.20399C40.6379 1.40786 40.6411 1.56339 40.5939 1.79718C40.5262 2.13349 40.3924 2.29695 40.2512 2.61031C40.1686 2.79375 40.1399 2.91455 40.0227 3.07502C40.1189 3.0261 40.1459 2.95889 40.2452 2.92212C40.2105 3.07654 40.1128 3.13618 39.9685 3.20949L39.9205 3.19728C39.7702 3.46018 39.686 3.6069 39.5176 3.85759C39.4184 4.00589 39.2981 4.02416 39.181 4.16326C39.1057 4.25341 39.0607 4.30695 38.9645 4.37114C38.8307 4.55302 38.7255 4.72573 38.5015 4.72573C38.488 4.72573 38.4774 4.71501 38.4774 4.70134C38.4774 4.66617 38.5015 4.65242 38.5195 4.62183C38.4188 4.67226 38.3211 4.63406 38.249 4.71963C38.2129 4.76243 38.2053 4.79752 38.1648 4.83583C38.07 4.926 38.046 5.01159 37.9424 5.09257C37.9017 5.12467 37.8852 5.16599 37.834 5.16599C37.8131 5.16599 37.8025 5.14761 37.792 5.12928C37.5785 5.34629 37.4372 5.43341 37.2028 5.6123C37.1171 5.67647 37.0991 5.74828 37.0224 5.82622C36.9683 5.88126 36.9187 5.90422 36.8841 5.97301C36.8481 6.04482 36.8645 6.10447 36.8179 6.16865C36.7818 6.21755 36.7217 6.23433 36.7217 6.29702C36.7217 6.37803 36.8179 6.38106 36.8841 6.42537C36.7818 6.54008 36.6932 6.6149 36.5414 6.6149C36.4902 6.6149 36.4662 6.57216 36.4151 6.57216C36.382 6.57216 36.3625 6.58431 36.3294 6.58431H36.1941C36.1641 6.58431 36.149 6.59655 36.1189 6.59655C36.0212 6.59655 35.9656 6.59813 35.8679 6.59813L35.8438 6.59045C35.9236 6.42849 36.0543 6.36119 36.0543 6.18089C36.0543 6.13806 36.0453 6.10899 36.0303 6.07079C35.7717 6.33371 35.7116 6.55381 35.5733 6.89616C35.5417 6.97409 35.4816 6.98942 35.429 7.05512C35.4726 7.09944 35.5146 7.10255 35.5733 7.12242C35.5492 7.22018 35.4861 7.24925 35.429 7.33331H35.5072C35.438 7.39447 35.4184 7.48922 35.3268 7.48922C35.2922 7.48922 35.2772 7.45714 35.2425 7.45253C35.2636 7.38835 35.3087 7.36081 35.3087 7.29357C35.3087 7.24209 35.1424 7.47734 35.1163 7.5076C35.0802 7.5504 35.0261 7.56877 35.0261 7.62682C35.0261 7.65428 35.0517 7.66502 35.0682 7.68487C35.1508 7.62371 35.1779 7.55952 35.2666 7.5076C35.1855 7.61759 35.1915 7.70785 35.1403 7.83769C35.1313 7.89735 35.1329 7.97224 35.0742 7.97224C34.9795 7.97224 35.0125 7.78267 34.9178 7.78267C34.8728 7.78267 34.8622 7.8285 34.8336 7.86216C34.7826 7.92174 34.7525 7.95843 34.7074 8.02112C34.5586 8.22438 34.5166 8.36965 34.4369 8.61416C34.4249 8.56372 34.4173 8.53313 34.4173 8.48118L34.4248 8.29618C34.4286 8.20418 34.3692 8.43687 34.2985 8.49803C34.267 8.52548 34.2204 8.53461 34.2204 8.57745C34.2204 8.61565 34.2504 8.63861 34.2865 8.65085C34.1107 8.82972 34.0039 8.90765 33.8296 9.08486C33.7829 9.13229 33.7273 9.1399 33.7032 9.20108C33.7935 9.26224 33.8716 9.25915 33.9438 9.34169C33.9769 9.37995 33.9649 9.4273 33.9978 9.46398C34.088 9.56179 34.1782 9.62747 34.1782 9.76355C34.1782 9.91797 33.9934 9.90876 33.8837 10.0203L33.8596 10.0142C33.8792 9.88888 33.9919 9.84916 33.9919 9.72382C33.9919 9.58472 33.9137 9.51442 33.8236 9.40897C33.7454 9.31724 33.6792 9.25614 33.5589 9.24391C33.5063 9.3509 33.4838 9.41508 33.4267 9.51904C33.3816 9.60308 33.3274 9.63209 33.2703 9.70849C33.2102 9.788 33.1996 9.84765 33.144 9.92859C32.9937 10.1457 32.875 10.2511 32.7653 10.4911C32.636 10.7723 32.4557 10.8595 32.2663 11.1086C32.1354 11.2813 32.0317 11.3531 31.8814 11.506C31.8243 11.5641 31.7792 11.587 31.7311 11.6527C31.7176 11.671 31.7251 11.7077 31.701 11.7077C31.6514 11.7077 31.6289 11.6771 31.5808 11.6649C31.5853 11.7031 31.6108 11.7184 31.6108 11.7566C31.6108 11.8453 31.5026 11.8392 31.4365 11.8972C31.3027 12.015 31.1915 12.0302 31.0637 12.1602C31.0337 12.1876 31.0006 12.1968 30.96 12.1968H30.8488C30.7056 12.1968 30.6348 12.2908 30.5485 12.3924H38.7643C38.9671 12.1227 39.228 11.9889 39.5837 11.9889Z" fill="#00732F"/>
<path d="M22.5317 19.7963C22.5317 19.8191 22.5362 19.8329 22.5378 19.8558C22.6085 19.8558 22.6475 19.8543 22.7182 19.8558C22.7979 19.8574 22.7948 19.9934 22.8745 19.9934C22.9376 19.9934 23.0008 19.9537 23.0008 19.8895C23.0008 19.7809 22.9211 19.6878 22.8144 19.6878C22.6971 19.6878 22.5317 19.677 22.5317 19.7963Z" fill="white"/>
<path d="M23.0774 19.821C23.1481 19.821 23.1977 19.7767 23.2233 19.711C23.121 19.633 23.0459 19.6085 22.9226 19.5703C22.9752 19.662 23.0428 19.7095 23.0428 19.8148C23.0564 19.8164 23.0639 19.821 23.0774 19.821Z" fill="white"/>
<path d="M23.4157 19.2616L23.3195 19.2188L23.3135 19.2432C23.3495 19.3166 23.4112 19.3227 23.4879 19.3349C23.4803 19.2952 23.4428 19.2891 23.4157 19.2616Z" fill="white"/>
<path d="M23.145 19.3843C23.0684 19.3843 23.0083 19.3706 22.9526 19.4271C23.0128 19.4882 23.0669 19.499 23.121 19.5616C23.1886 19.6395 23.2292 19.7267 23.333 19.7267H23.3795C23.3751 19.664 23.3871 19.6212 23.3556 19.5677C23.3315 19.5249 23.2668 19.5631 23.2353 19.5249C23.1946 19.476 23.2097 19.3843 23.145 19.3843Z" fill="white"/>
<path d="M17.3189 17.5C17.3159 17.5106 17.3008 17.5122 17.3008 17.5245C17.3008 17.6008 17.3249 17.6436 17.3249 17.7201H17.3534C17.397 17.7201 17.4151 17.6865 17.4481 17.6589C17.4466 17.6314 17.4481 17.6146 17.4481 17.5871C17.4481 17.526 17.376 17.5183 17.3189 17.5Z" fill="white"/>
<path d="M17.1369 19.6334C17.197 19.6334 17.2256 19.6641 17.2827 19.6824C17.2662 19.6151 17.2452 19.5799 17.2346 19.5112C17.1339 19.5036 17.0768 19.5112 16.9761 19.5112C16.9731 19.5585 16.9806 19.5861 16.9761 19.6334H17.1369Z" fill="white"/>
<path d="M18.8866 18.7044C18.9663 18.7044 19.0204 18.6861 19.0806 18.6311C19.064 18.6158 19.0475 18.5867 19.0325 18.5699C19.0114 18.5333 19.0024 18.4844 18.9602 18.4844C18.9287 18.4844 18.9257 18.5241 18.9001 18.5393C18.8747 18.5546 18.837 18.5577 18.837 18.5883C18.837 18.6342 18.8385 18.6586 18.837 18.7044H18.8866V18.7044Z" fill="white"/>
<path d="M26.6505 16.4266L26.6686 16.4022C26.6024 16.3808 26.5633 16.3594 26.4942 16.3594L26.4822 16.3838C26.5348 16.4098 26.5709 16.4144 26.6265 16.4327L26.6505 16.4266Z" fill="white"/>
<path d="M20.3492 18.5391C20.2681 18.5391 20.2155 18.565 20.1569 18.6247C20.223 18.6919 20.2816 18.7225 20.3732 18.7225C20.4228 18.7225 20.4334 18.6552 20.483 18.6552H20.6318C20.6303 18.6186 20.6303 18.5972 20.6138 18.5635H20.4454L20.3973 18.5513C20.3808 18.5467 20.3672 18.5391 20.3492 18.5391Z" fill="white"/>
<path d="M19.482 20.0837C19.769 20.0837 19.8713 20.3833 20.1584 20.3833H20.2876C20.3508 20.3833 20.3838 20.3589 20.447 20.3589H20.6364C20.7341 20.3589 20.7611 20.2519 20.7882 20.1571C20.8213 20.0394 20.8498 19.9722 20.8784 19.8514C20.937 19.856 20.9851 19.8316 21.0286 19.8698C21.0888 19.9233 21.0782 19.9905 21.125 20.0593C21.2421 20.2304 21.361 20.3405 21.5638 20.3405C21.7728 20.3405 21.9967 20.2289 21.9967 20.0165C21.9967 19.9325 21.9682 19.8881 21.9426 19.8086C21.917 19.7306 21.9291 19.6527 21.8584 19.6129C21.7893 19.5748 21.7336 19.5916 21.654 19.5824C21.5157 19.5671 21.442 19.5227 21.3113 19.4784C21.2046 19.4433 21.0647 19.4403 21.0647 19.3256C21.0647 19.2721 21.0888 19.2446 21.0888 19.1911C21.0888 19.1651 21.0647 19.156 21.0647 19.13C21.0647 19.0749 21.1339 19.0734 21.185 19.0566C21.1474 18.9603 21.0121 18.9573 20.9264 19.0137C20.8438 19.0673 20.8572 19.2094 20.7581 19.2094C20.7115 19.2094 20.6844 19.1911 20.6379 19.1911C20.4966 19.1911 20.4605 19.3684 20.3192 19.3684C20.2891 19.3684 20.2756 19.35 20.2455 19.35H20.0501C20.0185 19.35 20.002 19.3378 19.9704 19.3378C19.8908 19.3378 19.8727 19.4203 19.8141 19.4723C19.6999 19.5748 19.6262 19.6251 19.4895 19.6986C19.2835 19.8086 19.1647 19.8636 18.9965 20.0348C19.0926 20.0669 19.1497 20.0837 19.2504 20.0837H19.482V20.0837Z" fill="white"/>
<path d="M25.496 17.3111C25.5772 17.4044 25.6794 17.3753 25.7907 17.4273C25.8718 17.4655 25.8989 17.5496 25.9891 17.5496C26.0296 17.5496 26.0522 17.5312 26.0928 17.5312H26.222C26.3408 17.5312 26.3874 17.6413 26.5062 17.6413C26.5482 17.6413 26.5723 17.5985 26.5723 17.5557C26.5723 17.3264 26.2807 17.3264 26.0612 17.2805C25.8357 17.2332 25.6944 17.039 25.6944 16.8037C25.6944 16.7074 25.7155 16.6554 25.7305 16.5591C25.7139 16.5545 25.7004 16.55 25.6824 16.5469C25.5847 16.7853 25.4148 16.8526 25.2615 17.0604C25.3803 17.1201 25.4088 17.2117 25.496 17.3111Z" fill="white"/>
<path d="M27.0067 17.1406C27.0247 17.1406 27.0353 17.136 27.0533 17.1345L27.0593 17.11C27.0233 17.078 26.9977 17.078 26.9812 17.0306H26.8789L26.7527 17C26.8339 17.0825 26.894 17.1406 27.0067 17.1406Z" fill="white"/>
<path d="M26.8731 16.4008C26.9227 16.4008 26.9482 16.3763 26.9933 16.3581C26.9842 16.3428 26.9707 16.3091 26.9572 16.2969C26.9076 16.3137 26.8731 16.3336 26.849 16.3824C26.8595 16.3856 26.861 16.4008 26.8731 16.4008Z" fill="white"/>
<path d="M40.3773 13.0876L40.3292 13.051C40.1489 12.9592 40.0286 12.9378 39.8362 12.8798C39.8302 12.9653 39.8002 13.0143 39.8002 13.0998C39.8002 13.2619 39.9355 13.323 40.0045 13.4666C40.0797 13.6226 40.1429 13.7082 40.2571 13.8335C40.4645 14.0567 40.4705 14.4327 40.7742 14.4327C40.9456 14.4327 41.0959 14.4632 41.2071 14.3348C41.4566 14.0505 41.3695 13.6073 41.7362 13.5157C41.9767 13.4544 42.1511 13.4484 42.3134 13.2589C42.3976 13.158 42.4006 13.0601 42.4938 12.9654C42.626 12.8309 42.8666 12.8522 42.8666 12.6627V12.3906H40.2059C40.2402 12.648 40.1554 12.9047 40.3773 13.0876Z" fill="white"/>
<path d="M36.1173 23.6033V23.1234C36.1173 22.9675 36.1504 22.8483 36.0602 22.7229C35.8347 22.4081 35.3387 22.4325 35.3387 22.0413C35.3387 22.0168 35.3417 22.0015 35.3387 21.9771C35.958 21.9771 36.1864 21.3534 36.8057 21.3534C37.0553 21.3534 37.1936 21.3688 37.4431 21.3779C37.5153 21.3963 37.5603 21.4024 37.6355 21.4024C37.7949 21.4024 37.873 21.3046 38.0324 21.3046C38.2067 21.3046 38.2669 21.4879 38.4413 21.4879C38.7869 21.4879 38.9342 21.2679 39.2589 21.1456C39.4032 21.0906 39.4875 21.0356 39.6438 21.0233C39.8331 21.008 40.1007 21.0447 40.1007 20.8522C40.1007 20.6962 39.9504 20.6474 39.9083 20.4976C39.8332 20.2652 39.743 20.143 39.7159 19.8984C39.6859 19.6171 39.6197 19.2871 39.3431 19.2871C39.0545 19.2871 38.9222 19.5071 38.6336 19.5071C38.4983 19.5071 38.4472 19.394 38.3209 19.3482C38.2157 19.3084 38.0564 19.3298 38.0564 19.2137C38.0564 18.7031 38.5374 18.5136 38.5374 18.0031C38.5374 17.8075 38.4923 17.6761 38.357 17.5385C38.2789 17.4589 38.1406 17.4589 38.1406 17.3459V16.6917C38.1406 16.435 38.0925 16.2913 38.0925 16.0345C38.0925 15.9061 38.309 15.9183 38.309 15.7899C38.309 15.7318 38.2729 15.7013 38.2729 15.6432C38.2729 15.4598 38.5013 15.4108 38.5013 15.2275C38.5013 14.9279 38.2729 14.7934 38.2729 14.4938C38.2729 14.3378 38.345 14.2584 38.345 14.1025C38.345 13.751 38.2007 13.5614 38.2007 13.2099C38.2007 12.8798 38.5104 12.7942 38.6817 12.513C38.7082 12.4695 38.7357 12.4287 38.7643 12.3906H30.5485C30.5188 12.4255 30.4873 12.4614 30.4504 12.4946C30.2655 12.6612 30.1588 12.7606 29.9453 12.8859C29.8717 12.9287 29.8115 12.9241 29.7409 12.9715C29.5635 13.0908 29.5155 13.2451 29.314 13.32C29.1907 13.3658 29.0976 13.3475 28.9953 13.43C29.0569 13.4499 29.093 13.4453 29.1577 13.4545C29.1486 13.4942 29.1246 13.5125 29.0916 13.534C29.0961 13.5446 29.1006 13.5538 29.1035 13.5646H29.1802C29.2013 13.5646 29.2163 13.5707 29.2359 13.5768C29.2058 13.6379 29.1336 13.6455 29.1336 13.7113C29.1336 13.7265 29.1457 13.7326 29.1457 13.7479C29.1457 13.8411 28.9473 13.7831 28.9473 13.8763C28.9473 13.939 28.9743 13.9726 29.0014 14.0292L28.8691 14.072L28.851 13.9864V13.8396C28.7157 13.7708 28.6466 13.7449 28.5082 13.699C28.4182 13.939 28.2603 14.0184 28.1656 14.2554C28.1386 14.3226 28.0454 14.3288 28.0454 14.4021C28.0454 14.4143 28.0603 14.4158 28.0634 14.4265C28.1266 14.4158 28.1717 14.4036 28.2077 14.3532L28.2317 14.3594C28.1896 14.4327 28.1536 14.4739 28.1536 14.558C28.1536 14.639 28.1896 14.6818 28.1896 14.7628C28.1896 14.7903 28.1792 14.8071 28.1657 14.8301C28.2153 14.801 28.2378 14.7674 28.2919 14.7444C28.2528 14.8407 28.2543 14.9263 28.1717 14.989C28.1867 15.0027 28.1942 15.0257 28.2153 15.0257H28.334C28.343 15.0853 28.352 15.1189 28.352 15.1785C28.352 15.2213 28.295 15.2167 28.2558 15.2274C28.1507 15.258 28.08 15.2458 27.9852 15.3008C28.0078 15.3696 28.077 15.3864 28.1476 15.3864L28.1356 15.4108C28.0634 15.4537 28.0394 15.5102 27.9612 15.5392C27.856 15.579 27.7748 15.5561 27.6846 15.6248C27.6951 15.6508 27.7011 15.6692 27.7027 15.6982C27.7808 15.6982 27.8229 15.7349 27.9011 15.741L27.8289 16.1017C27.7854 16.2194 27.7118 16.2729 27.6666 16.3891C27.6441 16.4471 27.611 16.4716 27.5884 16.5297C27.566 16.5877 27.5478 16.6519 27.4863 16.6519C27.3359 16.6519 27.2743 16.5174 27.1239 16.5174C27.115 16.5174 27.1104 16.5235 27.1014 16.5235L27.6305 16.9454C27.593 17.0998 27.4983 17.1472 27.39 17.2572C27.2803 17.3688 27.2247 17.4422 27.0834 17.514L27.0172 17.4161L26.9932 17.4223C26.9781 17.4697 26.9646 17.5262 26.915 17.5262C26.8263 17.5262 26.7873 17.4727 26.6985 17.459C26.6896 17.4895 26.6791 17.5064 26.6625 17.5324V17.6103C26.6625 17.7128 26.8428 17.699 26.8428 17.8013C26.8428 17.8441 26.8218 17.8686 26.8188 17.9114L26.7948 17.9175C26.685 17.89 26.6249 17.8655 26.5122 17.8563C26.4506 18.0474 26.3845 18.1452 26.3619 18.3455C26.3393 18.5487 26.3664 18.7215 26.2055 18.8407C26.0672 18.9432 25.9651 18.9675 25.8087 19.0363C25.6749 19.096 25.6373 19.2442 25.49 19.2442C25.4569 19.2442 25.4375 19.2366 25.4059 19.2258C25.46 19.2809 25.49 19.3176 25.5442 19.3726C25.4089 19.4062 25.3307 19.4154 25.1924 19.4154C25.0857 19.4154 25.015 19.3833 24.9369 19.3115C24.9038 19.3572 24.9068 19.4001 24.9068 19.4582C24.8001 19.4582 24.737 19.4673 24.6363 19.501C24.5972 19.5131 24.5941 19.5743 24.552 19.5743C24.4709 19.5743 24.4468 19.501 24.3777 19.4582C24.1868 19.3375 24.1507 19.1846 23.9929 19.0241C23.7854 18.8132 23.6382 18.6741 23.59 18.3761C23.5119 18.483 23.4382 18.5197 23.3375 18.6083C23.2654 18.6726 23.2413 18.7276 23.1511 18.7734C23.1721 18.8025 23.1931 18.8223 23.1931 18.8591C23.1931 18.9217 23.2518 18.9385 23.3014 18.9752C23.339 19.0027 23.3465 19.044 23.3916 19.0607C23.4938 19.099 23.59 19.0914 23.6441 19.1892C23.7298 19.3466 23.8125 19.4292 23.9688 19.5132C24.0516 19.5576 24.1432 19.5881 24.1432 19.6844C24.1432 19.8586 23.7945 19.7853 23.7945 19.9596C23.7945 19.9718 23.8125 19.9718 23.8125 19.984C23.8125 20.042 23.7418 20.042 23.6922 20.0696C23.6006 20.1215 23.5419 20.1368 23.4457 20.1857C23.2895 20.2652 23.2187 20.3432 23.0549 20.3936C22.7378 20.5221 22.5754 20.6367 22.2492 20.7055C22.1004 20.736 22.0117 20.7375 21.8644 20.7849C21.6269 20.8613 21.5082 20.9515 21.2632 20.9989C21.1233 21.0249 21.0422 21.0065 20.9024 21.0295C20.7581 21.0539 20.6799 21.1028 20.5327 21.1028C20.3492 21.1028 20.244 21.0799 20.0666 21.0295C20.0005 21.0111 19.9674 20.9744 19.8983 20.9744C19.772 20.9744 19.7134 21.0524 19.5977 21.1028C19.4127 21.1838 19.2925 21.2007 19.0926 21.2007C18.8987 21.2007 18.7679 21.2358 18.5995 21.1334C18.4988 21.0722 18.5018 20.9729 18.4192 20.8889C18.1982 20.6642 17.9637 20.707 17.6796 20.577C17.636 20.5572 17.6555 20.4991 17.6195 20.467C17.5578 20.412 17.4977 20.412 17.415 20.412C17.3219 20.412 17.2962 20.5281 17.2031 20.5281H17.0257C16.9473 20.5281 16.8925 20.5444 16.8313 20.5638V23.6033L36.1173 23.6033Z" fill="white"/>
<path d="M23.7946 18.4942C23.7946 18.6624 24.038 18.6211 24.1252 18.7632C24.2109 18.9038 24.2575 19.0628 24.4199 19.0628C24.5085 19.0628 24.5176 18.9283 24.6062 18.9283C24.6754 18.9283 24.7054 18.9895 24.7745 18.9895C24.8362 18.9895 24.9249 18.9971 24.9249 18.9345C24.9249 18.8778 24.8708 18.8641 24.8407 18.8183C24.7625 18.6975 24.6904 18.6532 24.5882 18.5493C24.4845 18.4438 24.4499 18.3598 24.3477 18.2558C24.3025 18.21 24.286 18.1686 24.2214 18.1641C24.1792 18.2955 24.071 18.3322 23.9448 18.3781C23.8756 18.4025 23.7946 18.4193 23.7946 18.4942Z" fill="white"/>
<path d="M24.4319 17.6109C24.3267 17.7806 24.2049 17.8845 24.011 17.8845C24.0034 17.8875 23.9959 17.8906 23.9869 17.8906C24.0741 17.9793 24.1688 17.9532 24.2875 17.9823C24.4348 18.0189 24.4965 18.0985 24.6243 18.184C24.6498 18.155 24.6663 18.1321 24.6663 18.0923C24.6663 17.9685 24.4679 17.9716 24.4679 17.8478C24.4679 17.7424 24.5069 17.6873 24.5761 17.6094L24.4319 17.6109Z" fill="white"/>
<path d="M27.2758 16.1151L27.2938 16.0907C27.1331 16.0372 27.0354 16.0494 26.8669 16.0234C26.9571 16.1503 27.1045 16.0724 27.2517 16.1212L27.2758 16.1151Z" fill="white"/>
<path d="M26.4582 15.9698C26.4582 15.9606 26.4522 15.9545 26.4522 15.9453C26.3393 16.0279 26.3019 16.1104 26.2296 16.2326C26.156 16.3595 25.9756 16.3274 25.941 16.4711C26.0959 16.4833 26.1485 16.6423 26.3033 16.6423H26.3499C26.2838 16.575 26.2116 16.5399 26.2116 16.4466C26.2116 16.3962 26.3019 16.4053 26.3019 16.3549C26.3019 16.3213 26.2838 16.303 26.2838 16.2693C26.2837 16.1332 26.4582 16.1058 26.4582 15.9698Z" fill="white"/>
<path d="M25.027 18.4426C25.0376 18.4457 25.039 18.4609 25.0511 18.4609C25.1503 18.4609 25.1608 18.3448 25.2195 18.2652C25.2646 18.2041 25.3397 18.1888 25.3397 18.1125C25.3397 18.0268 25.2375 18.0237 25.1833 17.9596C25.1277 17.8939 25.1293 17.822 25.0571 17.7762C25.0075 17.7456 24.964 17.7715 24.9068 17.7578C24.9053 17.767 24.8948 17.7715 24.8948 17.7823C24.8948 17.8847 25.0196 17.8862 25.0811 17.9657C25.1593 18.0651 25.1593 18.1567 25.1593 18.2837C25.1593 18.3646 25.0842 18.3845 25.027 18.4426Z" fill="white"/>
<path d="M32.9817 34.1418C33.0117 34.0501 33.0148 34.0073 33.0298 33.9095C33.0478 33.4875 33.0779 33.2492 33.0779 32.8274C33.0779 32.6256 33.0418 32.5125 33.0418 32.3108V31.0696C33.0418 30.8801 33.1831 30.8098 33.2463 30.6325C33.3244 30.4154 33.2913 30.2595 33.3785 30.0455C33.5649 29.5839 33.7873 29.3761 34.076 28.9695C34.2293 28.5018 34.4247 28.2481 34.4849 27.7589C34.551 27.1996 34.59 26.8174 34.9658 26.414C35.0891 26.2794 35.2034 26.2214 35.2665 26.0471C35.3898 25.7109 35.3116 25.4785 35.4349 25.1423C35.5491 24.8274 35.5972 24.6287 35.7956 24.3597C35.9309 24.1763 36.1173 24.0938 36.1173 23.8614V23.6016H16.8312V32.7835L32.4165 34.8143L32.9817 34.1418L32.9817 34.1418Z" fill="black"/>
<path d="M0.976368 17.5496C0.965844 17.5465 0.964355 17.5312 0.95224 17.5312C0.889201 17.5312 0.88459 17.6077 0.856079 17.6657C0.892157 17.6504 0.911695 17.6291 0.95224 17.6291C1.01811 17.6291 1.05243 17.7731 1.0184 17.6352C1.02448 17.6169 1.02892 17.6047 1.03653 17.5863C1.0184 17.5786 0.994334 17.5557 0.976368 17.5496Z" fill="#FF0000"/>
<path d="M2.58173 16.9626C2.59972 16.9626 2.61175 16.955 2.62984 16.9504C2.63127 16.9366 2.6358 16.9275 2.6358 16.9137C2.6358 16.8678 2.58918 16.8602 2.55769 16.8281C2.55316 16.8404 2.54565 16.8495 2.54565 16.8632C2.54565 16.8969 2.55161 16.9168 2.55161 16.9504C2.56213 16.9535 2.5697 16.9626 2.58173 16.9626Z" fill="#FF0000"/>
<path d="M5.12506 19.3536C5.12506 19.3001 5.10099 19.2711 5.10099 19.2175V19.1702C5.09202 19.1702 5.08755 19.1641 5.07852 19.1641C5.00483 19.1641 4.90859 19.1747 4.90859 19.2496C4.90859 19.268 4.92062 19.2802 4.92062 19.2985C4.92062 19.3734 4.86658 19.407 4.86658 19.4819C4.86658 19.5584 4.9507 19.5645 5.01087 19.6103C5.0589 19.511 5.12506 19.4636 5.12506 19.3536Z" fill="#FF0000"/>
<path d="M2.52152 16.0795C2.52902 16.0871 2.53502 16.0948 2.53957 16.1039C2.56066 16.0184 2.62378 15.9817 2.62378 15.893C2.62378 15.8334 2.55615 15.8074 2.52755 15.7554C2.51254 15.7402 2.50208 15.731 2.48544 15.7188H2.44043C2.44184 15.7478 2.44043 15.7631 2.44043 15.7921C2.44043 15.8196 2.48544 15.812 2.49747 15.8349C2.52755 15.8915 2.51552 15.9389 2.51552 16.0045C2.51552 16.0336 2.52011 16.0505 2.52152 16.0795Z" fill="#FF0000"/>
<path d="M16.5251 18.534C16.5146 18.5325 16.5131 18.5156 16.5011 18.5156C16.4319 18.5156 16.4169 18.5982 16.3508 18.6135C16.2275 18.6409 16.1523 18.6013 16.026 18.6074C15.8532 18.6165 15.766 18.7052 15.5931 18.7052C15.5871 18.7174 15.5811 18.725 15.5751 18.7357C15.5871 18.748 15.5991 18.7556 15.5991 18.7724C15.5991 18.7877 15.5871 18.7938 15.5871 18.8091C15.5871 18.8549 15.6473 18.8519 15.6833 18.8763C15.727 18.9054 15.745 18.9496 15.7976 18.9496C15.8698 18.9496 15.8472 18.8091 15.9193 18.8091H16.0847C16.1342 18.8091 16.1268 18.7174 16.1764 18.7174C16.3206 18.7174 16.3086 18.907 16.4229 18.9986C16.4229 18.9573 16.4109 18.9345 16.4109 18.8932V18.774C16.4109 18.67 16.5176 18.6379 16.5251 18.534Z" fill="#FF0000"/>
<path d="M16.8312 20.5644C16.7986 20.5747 16.7642 20.5859 16.7234 20.5961C16.6814 20.6067 16.6709 20.6572 16.6272 20.6572C16.5867 20.6572 16.5596 20.6036 16.5371 20.5716L16.5612 20.5777C16.4875 20.5472 16.4334 20.541 16.3688 20.492C16.2965 20.6388 16.2951 20.8222 16.1402 20.8222C15.8471 20.8222 15.6097 20.7213 15.4789 20.4553C15.3721 20.2384 15.2142 20.1726 14.9978 20.0702C14.9061 20.0274 14.8295 20.0182 14.7694 19.9358L14.7453 19.9419C14.7183 20.0259 14.7213 20.0795 14.7213 20.1681C14.7213 20.2476 14.6597 20.3148 14.5814 20.3148H14.4101C14.3334 20.3148 14.2763 20.3331 14.2282 20.3943L14.2523 20.4004C14.1966 20.428 14.168 20.4615 14.1065 20.4615H13.9592C13.893 20.4615 13.8674 20.4019 13.8253 20.3515C13.7607 20.2736 13.6765 20.2889 13.5848 20.2476C13.5277 20.2215 13.5097 20.1619 13.4466 20.1619C13.2677 20.1619 13.2286 20.4004 13.0497 20.4004C12.9701 20.4004 12.9671 20.272 12.8874 20.272C12.7296 20.272 12.6664 20.4126 12.5086 20.4126C12.3613 20.4126 12.3071 20.2598 12.1599 20.2598C11.9374 20.2598 11.8351 20.431 11.6127 20.431C11.536 20.431 11.5225 20.3423 11.4503 20.3148C11.3075 20.2613 11.2158 20.2598 11.0641 20.2598H10.9408C10.8686 20.2598 10.8295 20.3133 10.7949 20.3759C10.6897 20.3316 10.6867 20.2292 10.6266 20.1314C10.592 20.0733 10.5635 20.0382 10.5063 20.003C10.4597 19.9739 10.3921 19.9739 10.3921 19.9174C10.3921 19.8976 10.4101 19.8884 10.4101 19.8685C10.4101 19.8181 10.356 19.8074 10.3139 19.783C10.2944 19.7692 10.2794 19.7523 10.2538 19.7523C10.1606 19.7523 10.0735 19.7508 10.0253 19.8318C9.90964 20.0259 10.0359 20.2964 9.82692 20.3759C9.67961 20.431 9.58041 20.4416 9.45415 20.541C9.36245 20.6129 9.3173 20.6786 9.20762 20.7122C9.15498 20.7275 9.11741 20.6984 9.06332 20.7122C9.02873 20.7199 9.01521 20.7551 8.97911 20.7551C8.95358 20.7551 8.94 20.7366 8.91897 20.7244C8.907 20.8039 8.92645 20.8574 8.88889 20.9262C8.78218 21.1203 8.61078 21.1463 8.40186 21.2074C8.09525 21.2977 7.98104 21.4886 7.67434 21.5926C7.506 21.6491 7.42477 21.718 7.25941 21.776C6.94833 21.8845 6.76039 21.9196 6.43575 21.9717C6.31999 21.99 6.25836 22.0266 6.14111 22.0266C5.96824 22.0266 5.88552 21.935 5.72022 21.8799C5.71274 21.9778 5.72022 22.1123 5.624 22.1123C5.53231 22.1123 5.49019 22.0526 5.41355 22.0022C5.22569 21.8799 5.1235 21.7454 4.90095 21.7454H4.75362C4.61691 21.7454 4.48912 21.7362 4.42749 21.611L4.25315 21.7026C4.28166 21.7469 4.29064 21.7775 4.3133 21.8249C4.33579 21.8707 4.39141 21.8829 4.39141 21.935C4.39141 22.0083 4.34181 22.0755 4.26963 22.0755H4.17949C4.178 21.9823 4.181 21.9303 4.181 21.8372C4.15098 21.8403 4.13288 21.8433 4.10278 21.8372C4.03821 21.8218 3.99907 21.8066 3.93298 21.8066H3.81571C3.60974 21.8066 3.48654 21.7576 3.30914 21.6537C3.23399 21.6094 3.17837 21.6002 3.11674 21.5375C3.06112 21.481 3.07464 21.4183 3.05058 21.3419C3.0205 21.2502 2.99645 21.1952 2.99645 21.0973C2.99645 21.0072 3.03857 20.9613 3.03857 20.8712C3.03857 20.755 2.99645 20.6923 2.9784 20.5777C2.94691 20.3851 2.93941 20.2735 2.90029 20.0825C2.88975 20.0244 2.85218 19.9954 2.85218 19.9358C2.85218 19.8409 2.92438 19.7982 2.92438 19.7034V19.63C2.92438 19.575 2.96639 19.5505 2.96639 19.4956C2.96639 19.4176 2.91834 19.3778 2.91834 19.2999C2.91834 19.2005 2.97842 19.1516 2.97842 19.0523C2.97842 18.9698 2.8913 18.9483 2.8161 18.9209C2.7665 18.904 2.74243 18.872 2.68986 18.872C2.65527 18.872 2.65674 18.9193 2.63579 18.9453C2.59816 18.9896 2.57416 19.0156 2.54559 19.0676C2.51098 19.1302 2.44335 19.1485 2.44335 19.2204C2.44335 19.332 2.4975 19.3901 2.4975 19.5017C2.4975 19.5736 2.42976 19.6239 2.35914 19.6239C2.28545 19.6239 2.20281 19.5903 2.20281 19.5154V19.3656C2.20281 19.2097 2.16378 19.1073 2.05244 18.9943C2.06307 19.0905 2.0886 19.1425 2.0886 19.2388C2.0886 19.4726 1.91419 19.5781 1.72786 19.7156C1.70379 19.6881 1.67975 19.6729 1.67975 19.6362C1.67975 19.6026 1.71583 19.5903 1.71583 19.5567C1.71583 19.3779 1.63765 19.2846 1.63765 19.1059V18.9805C1.63765 18.8781 1.68577 18.8215 1.68577 18.7191C1.68577 18.6029 1.64663 18.5403 1.63162 18.4256C1.62256 18.3568 1.63317 18.311 1.60154 18.2483C1.57451 18.1964 1.52638 18.1994 1.48125 18.1627C1.41219 18.1077 1.40016 18.0435 1.36704 17.9609C1.34456 18.0527 1.29486 18.0986 1.29486 18.1934C1.29486 18.2605 1.37303 18.2805 1.37303 18.3476V18.5066C1.37303 18.6733 1.48123 18.7542 1.48123 18.9209C1.48123 19.09 1.36247 19.1963 1.20854 19.2519L1.20856 19.2519L1.18665 20.4493L9.98928 31.8943L16.8312 32.7859V23.604L16.8312 20.5644Z" fill="#FF0000"/>
<path d="M14.0719 12.9307C14.0719 12.975 14.123 12.9812 14.1381 13.0224C14.1606 13.0851 14.1591 13.1447 14.2162 13.1752C14.2343 13.1386 14.2523 13.1172 14.2523 13.0759V12.9262C14.2523 12.894 14.2282 12.8803 14.2162 12.8513C14.2057 12.8252 14.2312 12.7946 14.2102 12.7779C14.1756 12.7503 14.1411 12.7779 14.0959 12.7779C14.0974 12.7901 14.0959 12.7977 14.0959 12.81C14.0959 12.8298 14.114 12.8375 14.114 12.8573C14.114 12.8895 14.0719 12.8986 14.0719 12.9307Z" fill="#FF0000"/>
<path d="M15.972 20.2674C15.9134 20.2612 15.8337 20.2689 15.8337 20.3285C15.8337 20.3591 15.8532 20.3713 15.8578 20.4019C15.9525 20.4095 16.0065 20.4202 16.0922 20.4631C16.0682 20.3774 16.0607 20.2781 15.972 20.2674Z" fill="#FF0000"/>
<path d="M14.3606 18.4691L14.3847 18.4752C14.3606 18.4324 14.3486 18.4034 14.3426 18.353C14.3395 18.3193 14.3621 18.2734 14.3305 18.2674C14.2749 18.2567 14.2298 18.2949 14.2042 18.3468C14.2645 18.3927 14.3125 18.408 14.3606 18.4691Z" fill="#FF0000"/>
<path d="M12.5447 10.2891L12.5327 10.3135L12.5688 10.4664C12.5974 10.4541 12.6109 10.4251 12.6109 10.3929C12.6109 10.3685 12.5989 10.3563 12.5989 10.3318C12.5989 10.3043 12.5719 10.2891 12.5447 10.2891Z" fill="#FF0000"/>
<path d="M15.2624 18.5938H15.2188C15.2038 18.6595 15.2204 18.7023 15.2204 18.771C15.288 18.771 15.3271 18.7803 15.3948 18.771C15.3857 18.7298 15.3496 18.6977 15.3286 18.661C15.306 18.6351 15.288 18.6198 15.2624 18.5938Z" fill="#FF0000"/>
<path d="M7.74654 16.4447C7.73451 16.3958 7.69694 16.3805 7.66843 16.3408C7.64587 16.3086 7.61734 16.2674 7.58422 16.2858C7.54822 16.3056 7.54367 16.3438 7.5121 16.3713C7.42487 16.4478 7.33777 16.4982 7.33777 16.6159C7.33777 16.6923 7.3919 16.729 7.3919 16.8054C7.51812 16.8054 7.58719 16.8864 7.66239 16.9888C7.73006 16.8084 7.83075 16.7214 7.83075 16.5303C7.83075 16.4829 7.75708 16.4905 7.74654 16.4447Z" fill="#FF0000"/>
<path d="M4.82446 19.9175V19.9679C4.86203 19.977 4.88612 19.9817 4.92362 19.9924V19.7478C4.92219 19.7156 4.91016 19.6591 4.88463 19.6745C4.83652 19.7034 4.86356 19.7646 4.85455 19.8212C4.84853 19.8594 4.82446 19.8777 4.82446 19.9175Z" fill="#FF0000"/>
<path d="M9.94126 13.86C9.94126 13.7836 9.85409 13.75 9.77888 13.75C9.76841 13.75 9.76535 13.7606 9.75483 13.7622C9.75483 13.7729 9.7428 13.776 9.7428 13.7867C9.7428 13.8799 9.78638 13.9349 9.85107 14.0007C9.8826 13.9441 9.94126 13.9258 9.94126 13.86Z" fill="#FF0000"/>
<path d="M10.1036 19.0921C10.1802 18.9881 10.2284 18.878 10.3561 18.878C10.3712 18.878 10.3742 18.8933 10.3862 18.9025C10.4448 18.7588 10.5426 18.6901 10.5426 18.5341V18.3843C10.5426 18.2835 10.4719 18.2009 10.3862 18.1505C10.3486 18.126 10.3231 18.1016 10.278 18.1016C10.2343 18.1016 10.2134 18.1276 10.1697 18.1322C10.0946 18.1413 10.024 18.1031 9.9774 18.1627C9.88711 18.2789 9.82703 18.363 9.82703 18.5113C9.82703 18.6564 9.90818 18.7238 9.97132 18.8536C10.0179 18.9499 10.0254 19.0202 10.1036 19.0921Z" fill="#FF0000"/>
<path d="M24.1432 9.55563V9.65341C24.2394 9.67788 24.3056 9.68558 24.3837 9.74514L24.4438 9.73902V9.6611C24.4438 9.61067 24.4243 9.58462 24.4078 9.53725C24.3897 9.48526 24.3957 9.42265 24.3417 9.40882C24.2484 9.38597 24.1793 9.46546 24.1432 9.55563ZM26.4942 16.3602L26.4822 16.3847C26.5347 16.4107 26.5708 16.4153 26.6264 16.4336L26.6505 16.4275L26.6685 16.4031C26.6024 16.3817 26.5633 16.3602 26.4942 16.3602ZM26.9572 16.2991C26.9076 16.316 26.873 16.3358 26.849 16.3847C26.8594 16.3878 26.861 16.403 26.873 16.403C26.9226 16.403 26.9481 16.3785 26.9932 16.3603C26.9842 16.345 26.9707 16.3113 26.9572 16.2991ZM26.9812 17.0328H26.879L26.7527 17.0022C26.8339 17.0847 26.8941 17.1428 27.0068 17.1428C27.0247 17.1428 27.0353 17.1382 27.0534 17.1367L27.0593 17.1122C27.0233 17.0802 26.9977 17.0802 26.9812 17.0328ZM26.8669 16.024C26.9571 16.1509 27.1045 16.0729 27.2517 16.1218L27.2758 16.1157L27.2938 16.0913C27.133 16.0378 27.0353 16.05 26.8669 16.024ZM25.941 16.4703C26.0958 16.4825 26.1485 16.6415 26.3032 16.6415H26.3499C26.2837 16.5742 26.2115 16.5391 26.2115 16.4459C26.2115 16.3954 26.3018 16.4045 26.3018 16.3541C26.3018 16.3205 26.2837 16.3022 26.2837 16.2686C26.2837 16.1325 26.4581 16.105 26.4581 15.969C26.4581 15.9598 26.4521 15.9537 26.4521 15.9445C26.3393 16.0271 26.3018 16.1096 26.2296 16.2319C26.156 16.3587 25.9756 16.3266 25.941 16.4703ZM25.6945 16.8066C25.6945 16.7103 25.7155 16.6583 25.7305 16.562C25.714 16.5574 25.7004 16.5529 25.6824 16.5498C25.5847 16.7882 25.4149 16.8555 25.2615 17.0633C25.3803 17.123 25.4089 17.2146 25.496 17.314C25.5772 17.4073 25.6795 17.3782 25.7907 17.4302C25.8718 17.4684 25.8989 17.5525 25.9891 17.5525C26.0296 17.5525 26.0522 17.5341 26.0928 17.5341H26.222C26.3408 17.5341 26.3874 17.6442 26.5062 17.6442C26.5483 17.6442 26.5723 17.6014 26.5723 17.5586C26.5723 17.3293 26.2807 17.3293 26.0613 17.2834C25.8358 17.2361 25.6945 17.0419 25.6945 16.8066ZM24.2214 18.1638C24.1792 18.2953 24.071 18.3319 23.9448 18.3778C23.8756 18.4022 23.7945 18.419 23.7945 18.494C23.7945 18.6621 24.038 18.6208 24.1252 18.763C24.2109 18.9035 24.2575 19.0625 24.4198 19.0625C24.5085 19.0625 24.5175 18.928 24.6062 18.928C24.6753 18.928 24.7054 18.9892 24.7744 18.9892C24.8361 18.9892 24.9248 18.9968 24.9248 18.9342C24.9248 18.8776 24.8708 18.8638 24.8407 18.818C24.7624 18.6973 24.6903 18.653 24.5881 18.549C24.4844 18.4436 24.4499 18.3595 24.3476 18.2555C24.3025 18.2097 24.286 18.1684 24.2214 18.1638ZM24.9068 17.7542C24.9053 17.7634 24.8948 17.7679 24.8948 17.7787C24.8948 17.8811 25.0196 17.8826 25.0812 17.9621C25.1593 18.0615 25.1593 18.1531 25.1593 18.2801C25.1593 18.361 25.0842 18.3808 25.027 18.439C25.0376 18.4421 25.0391 18.4573 25.0511 18.4573C25.1503 18.4573 25.1609 18.3412 25.2195 18.2616C25.2646 18.2005 25.3397 18.1852 25.3397 18.1089C25.3397 18.0232 25.2375 18.0201 25.1834 17.956C25.1277 17.8903 25.1293 17.8184 25.0571 17.7726C25.0075 17.742 24.964 17.7679 24.9068 17.7542ZM24.5761 17.6075L24.4318 17.609C24.3266 17.7787 24.2048 17.8826 24.011 17.8826C24.0034 17.8857 23.9959 17.8887 23.9869 17.8887C24.0741 17.9774 24.1687 17.9513 24.2875 17.9804C24.4348 18.017 24.4965 18.0966 24.6242 18.1822C24.6498 18.1531 24.6663 18.1302 24.6663 18.0904C24.6663 17.9666 24.4679 17.9697 24.4679 17.8459C24.4679 17.7405 24.5069 17.6854 24.5761 17.6075ZM23.4157 19.2643L23.3195 19.2215L23.3135 19.246C23.3495 19.3194 23.4112 19.3255 23.4878 19.3377C23.4803 19.2979 23.4428 19.2919 23.4157 19.2643ZM23.1451 19.3866C23.0685 19.3866 23.0083 19.3728 22.9527 19.4294C23.0128 19.4905 23.067 19.5013 23.121 19.5639C23.1887 19.6418 23.2292 19.7289 23.333 19.7289H23.3796C23.3751 19.6662 23.3871 19.6235 23.3556 19.57C23.3315 19.5271 23.2669 19.5653 23.2353 19.5271C23.1947 19.4783 23.2097 19.3866 23.1451 19.3866ZM22.9226 19.57C22.9752 19.6617 23.0428 19.7091 23.0428 19.8145C23.0564 19.8161 23.0639 19.8207 23.0774 19.8207C23.1481 19.8207 23.1977 19.7763 23.2233 19.7106C23.1211 19.6327 23.0459 19.6082 22.9226 19.57ZM22.5318 19.7947C22.5318 19.8176 22.5363 19.8314 22.5378 19.8543C22.6085 19.8543 22.6475 19.8528 22.7183 19.8543C22.7979 19.8559 22.7949 19.9919 22.8746 19.9919C22.9376 19.9919 23.0008 19.9521 23.0008 19.8879C23.0008 19.7794 22.9211 19.6862 22.8144 19.6862C22.6971 19.6862 22.5318 19.6755 22.5318 19.7947ZM20.7581 19.2093C20.7115 19.2093 20.6844 19.1909 20.6379 19.1909C20.4966 19.1909 20.4605 19.3682 20.3192 19.3682C20.2891 19.3682 20.2755 19.3499 20.2455 19.3499H20.05C20.0185 19.3499 20.0019 19.3376 19.9704 19.3376C19.8908 19.3376 19.8726 19.4202 19.814 19.4721C19.6998 19.5746 19.6262 19.6249 19.4894 19.6984C19.2834 19.8084 19.1647 19.8634 18.9964 20.0347C19.0926 20.0668 19.1497 20.0835 19.2504 20.0835H19.4819C19.769 20.0835 19.8712 20.3831 20.1583 20.3831H20.2876C20.3507 20.3831 20.3838 20.3587 20.447 20.3587H20.6363C20.734 20.3587 20.7611 20.2517 20.7882 20.1569C20.8212 20.0392 20.8498 19.972 20.8783 19.8512C20.937 19.8558 20.9851 19.8314 21.0286 19.8696C21.0887 19.9231 21.0782 19.9903 21.1249 20.0592C21.2421 20.2303 21.3609 20.3404 21.5638 20.3404C21.7727 20.3404 21.9967 20.2288 21.9967 20.0163C21.9967 19.9323 21.9682 19.8879 21.9425 19.8085C21.917 19.7305 21.929 19.6525 21.8584 19.6128C21.7893 19.5746 21.7336 19.5914 21.654 19.5822C21.5156 19.567 21.442 19.5226 21.3112 19.4783C21.2046 19.4432 21.0647 19.4401 21.0647 19.3254C21.0647 19.2719 21.0887 19.2444 21.0887 19.191C21.0887 19.165 21.0647 19.1558 21.0647 19.1299C21.0647 19.0748 21.1339 19.0732 21.185 19.0565C21.1474 18.9601 21.0121 18.9571 20.9264 19.0136C20.8438 19.0671 20.8572 19.2093 20.7581 19.2093ZM20.3973 18.5551C20.3808 18.5505 20.3672 18.5429 20.3492 18.5429C20.2681 18.5429 20.2154 18.5688 20.1568 18.6285C20.2229 18.6957 20.2815 18.7263 20.3732 18.7263C20.4228 18.7263 20.4334 18.659 20.483 18.659H20.6318C20.6303 18.6224 20.6303 18.601 20.6138 18.5673H20.4454L20.3973 18.5551ZM12.5447 10.2893L12.5327 10.3137L12.5688 10.4666C12.5973 10.4543 12.6109 10.4253 12.6109 10.3932C12.6109 10.3687 12.5988 10.3565 12.5988 10.3321C12.5988 10.3045 12.5718 10.2893 12.5447 10.2893ZM14.096 12.7776C14.0975 12.7898 14.096 12.7975 14.096 12.8097C14.096 12.8296 14.1141 12.8372 14.1141 12.857C14.1141 12.8892 14.0719 12.8983 14.0719 12.9304C14.0719 12.9747 14.1231 12.9809 14.1381 13.0221C14.1607 13.0848 14.1592 13.1444 14.2162 13.1749C14.2343 13.1383 14.2524 13.1169 14.2524 13.0756V12.9259C14.2524 12.8937 14.2282 12.88 14.2162 12.851C14.2058 12.8249 14.2313 12.7943 14.2103 12.7776C14.1757 12.75 14.1411 12.7776 14.096 12.7776ZM9.7789 13.7497C9.76844 13.7497 9.76538 13.7603 9.75486 13.7619C9.75486 13.7725 9.74282 13.7756 9.74282 13.7863C9.74282 13.8796 9.78641 13.9346 9.8511 14.0003C9.88265 13.9438 9.94128 13.9254 9.94128 13.8597C9.94128 13.7833 9.85412 13.7497 9.7789 13.7497ZM19.0325 18.5735C19.0114 18.5368 19.0024 18.4879 18.9602 18.4879C18.9287 18.4879 18.9257 18.5276 18.9001 18.5429C18.8747 18.5581 18.837 18.5612 18.837 18.5918C18.837 18.6377 18.8385 18.6621 18.837 18.7079H18.8866C18.9663 18.7079 19.0204 18.6896 19.0806 18.6346C19.064 18.6193 19.0475 18.5902 19.0325 18.5735ZM16.9761 19.5089C16.973 19.5562 16.9806 19.5838 16.9761 19.6311H17.1369C17.197 19.6311 17.2256 19.6617 17.2827 19.68C17.2662 19.6127 17.2451 19.5776 17.2346 19.5088C17.1339 19.5013 17.0768 19.5089 16.9761 19.5089ZM15.8337 20.3281C15.8337 20.3587 15.8532 20.3709 15.8578 20.4015C15.9525 20.4091 16.0065 20.4198 16.0922 20.4627C16.0681 20.377 16.0607 20.2777 15.972 20.267C15.9134 20.2608 15.8337 20.2685 15.8337 20.3281ZM15.5932 18.7079C15.5871 18.7201 15.5811 18.7278 15.5751 18.7385C15.5871 18.7508 15.5991 18.7584 15.5991 18.7752C15.5991 18.7905 15.5871 18.7966 15.5871 18.8118C15.5871 18.8577 15.6473 18.8546 15.6833 18.8791C15.727 18.9082 15.745 18.9524 15.7976 18.9524C15.8698 18.9524 15.8472 18.8118 15.9193 18.8118H16.0847C16.1343 18.8118 16.1268 18.7201 16.1764 18.7201C16.3207 18.7201 16.3086 18.9098 16.423 19.0014C16.423 18.9601 16.4109 18.9373 16.4109 18.896V18.7767C16.4109 18.6728 16.5176 18.6407 16.5251 18.5368C16.5146 18.5353 16.5131 18.5184 16.5011 18.5184C16.432 18.5184 16.417 18.601 16.3508 18.6163C16.2275 18.6437 16.1523 18.604 16.0261 18.6101C15.8532 18.6193 15.766 18.7079 15.5932 18.7079ZM17.4481 17.6625C17.4466 17.6349 17.4481 17.6182 17.4481 17.5907C17.4481 17.5295 17.3759 17.5219 17.3188 17.5035C17.3158 17.5142 17.3007 17.5158 17.3007 17.528C17.3007 17.6044 17.3249 17.6471 17.3249 17.7236H17.3534C17.397 17.7237 17.415 17.6901 17.4481 17.6625ZM15.3286 18.659C15.3061 18.6331 15.288 18.6178 15.2624 18.5918H15.2189C15.2038 18.6575 15.2205 18.7003 15.2205 18.769C15.288 18.769 15.3272 18.7783 15.3948 18.769C15.3857 18.7278 15.3496 18.6957 15.3286 18.659ZM14.2042 18.3472C14.2644 18.3931 14.3125 18.4084 14.3606 18.4695L14.3846 18.4756C14.3606 18.4328 14.3486 18.4038 14.3425 18.3534C14.3395 18.3197 14.3621 18.2738 14.3305 18.2678C14.2749 18.2571 14.2298 18.2953 14.2042 18.3472ZM10.3862 18.1515C10.3486 18.1271 10.3231 18.1026 10.278 18.1026C10.2343 18.1026 10.2134 18.1287 10.1697 18.1333C10.0946 18.1424 10.0239 18.1042 9.97738 18.1638C9.8871 18.28 9.82701 18.364 9.82701 18.5123C9.82701 18.6575 9.90816 18.7248 9.97128 18.8546C10.0179 18.951 10.0254 19.0213 10.1036 19.0932C10.1802 18.9892 10.2284 18.8791 10.3561 18.8791C10.3712 18.8791 10.3741 18.8944 10.3862 18.9035C10.4448 18.7599 10.5425 18.6911 10.5425 18.5352V18.3854C10.5426 18.2846 10.4719 18.202 10.3862 18.1515ZM7.3378 16.617C7.3378 16.6934 7.39193 16.7301 7.39193 16.8065C7.51815 16.8065 7.58723 16.8875 7.66242 16.99C7.73009 16.8096 7.83078 16.7225 7.83078 16.5315C7.83078 16.484 7.75711 16.4917 7.74657 16.4458C7.73454 16.3969 7.69697 16.3817 7.66846 16.3419C7.6459 16.3097 7.61737 16.2685 7.58425 16.2869C7.54825 16.3067 7.5437 16.3449 7.51213 16.3724C7.4249 16.4489 7.3378 16.4993 7.3378 16.617ZM4.82446 19.9169V19.9674C4.86203 19.9765 4.88609 19.9812 4.92362 19.9918V19.7473C4.92219 19.7151 4.91016 19.6586 4.88462 19.6739C4.83651 19.7029 4.86356 19.7641 4.85454 19.8207C4.84853 19.8589 4.82446 19.8771 4.82446 19.9169ZM5.10101 19.1665C5.09204 19.1665 5.08757 19.1604 5.07854 19.1604C5.00485 19.1604 4.90863 19.171 4.90863 19.2459C4.90863 19.2643 4.92066 19.2765 4.92066 19.2949C4.92066 19.3698 4.86662 19.4034 4.86662 19.4783C4.86662 19.5548 4.95074 19.5608 5.01089 19.6067C5.05894 19.5073 5.1251 19.4599 5.1251 19.3499C5.1251 19.2964 5.10103 19.2674 5.10103 19.2138V19.1665H5.10101ZM2.55771 16.831C2.55318 16.8433 2.54568 16.8524 2.54568 16.8661C2.54568 16.8998 2.55163 16.9197 2.55163 16.9533C2.56218 16.9564 2.56974 16.9655 2.58178 16.9655C2.59976 16.9655 2.6118 16.9579 2.62989 16.9533C2.63131 16.9395 2.63584 16.9304 2.63584 16.9166C2.63582 16.8707 2.5892 16.8631 2.55771 16.831ZM2.52759 15.755C2.51258 15.7397 2.50212 15.7305 2.48547 15.7183H2.44046C2.44187 15.7474 2.44046 15.7626 2.44046 15.7917C2.44046 15.8192 2.48547 15.8115 2.4975 15.8344C2.52759 15.8911 2.51555 15.9384 2.51555 16.0041C2.51555 16.0332 2.52017 16.05 2.52157 16.079C2.52908 16.0866 2.53507 16.0943 2.53962 16.1035C2.56071 16.0179 2.62383 15.9812 2.62383 15.8926C2.62381 15.8329 2.55618 15.8069 2.52759 15.755ZM0.976368 17.5463C0.965844 17.5432 0.964355 17.528 0.95224 17.528C0.88918 17.528 0.88459 17.6044 0.856079 17.6625C0.892157 17.6471 0.911695 17.6258 0.95224 17.6258C1.01811 17.6258 1.05243 17.7698 1.0184 17.6319C1.02448 17.6136 1.02892 17.6014 1.03653 17.5831C1.0184 17.5753 0.994334 17.5525 0.976368 17.5463ZM43.1399 12.1498C43.1162 12.0708 43.0964 12.0009 43.065 11.9033C43.059 11.8819 43.0305 11.8788 43.0305 11.8559C43.0305 11.3683 43.029 11.0947 43.029 10.6072V10.4605L42.9493 9.95909V9.57854C42.9493 9.43184 43.0094 9.3554 43.047 9.21321C43.1071 8.99311 43.1432 8.86628 43.1432 8.63853C43.1432 8.5254 43.1568 8.41843 43.0651 8.35733C42.9869 8.3053 42.9268 8.30221 42.8366 8.2717C42.8652 8.18454 42.9283 8.15548 42.9569 8.06996C42.9974 7.94771 43.011 7.86971 43.011 7.73982C43.011 7.59457 42.9809 7.51361 42.9809 7.36842V6.69284C42.9809 6.60113 42.9508 6.54916 42.9508 6.4575V6.0891C42.9057 5.90266 42.7434 5.87058 42.572 5.78343C42.4542 5.72413 42.3637 5.66557 42.3059 5.57095C42.148 5.63665 42.058 5.69785 41.8866 5.69785C41.7573 5.69785 41.7047 5.60917 41.592 5.545C41.4597 5.47007 41.356 5.44562 41.2853 5.30043C41.2042 5.18892 41.1756 5.09257 41.1651 4.95196L41.2552 4.24271C41.2552 4.06852 41.147 3.98292 41.147 3.80869C41.147 3.59469 41.2027 3.47849 41.2252 3.26457C41.2357 3.16219 41.2237 3.09792 41.2552 3.00165C41.3424 2.73572 41.4055 2.57518 41.4055 2.29401V2.16253C41.4055 2.12584 41.3905 2.10438 41.3905 2.06775V1.83239C41.3905 1.71165 41.4115 1.6428 41.4115 1.52212C41.4115 1.34483 41.2913 1.17969 41.117 1.17969C40.9877 1.17969 40.9155 1.2164 40.7862 1.2164C40.7577 1.2164 40.7316 1.21314 40.7046 1.20399H40.7046C40.6379 1.40786 40.6411 1.56339 40.5939 1.79718C40.5261 2.13349 40.3924 2.29695 40.2512 2.61031C40.1685 2.79375 40.1399 2.91455 40.0227 3.07502C40.1188 3.0261 40.1459 2.95889 40.2452 2.92212C40.2105 3.07654 40.1128 3.13618 39.9685 3.20949L39.9204 3.19728C39.7702 3.46018 39.686 3.6069 39.5176 3.85759C39.4184 4.00589 39.2981 4.02416 39.1809 4.16326C39.1057 4.25341 39.0606 4.30695 38.9645 4.37114C38.8307 4.55302 38.7254 4.72573 38.5015 4.72573C38.488 4.72573 38.4774 4.71501 38.4774 4.70134C38.4774 4.66617 38.5015 4.65242 38.5195 4.62183C38.4188 4.67226 38.3211 4.63406 38.249 4.71963C38.2129 4.76243 38.2053 4.79752 38.1648 4.83583C38.07 4.926 38.046 5.01159 37.9423 5.09257C37.9017 5.12467 37.8852 5.16599 37.834 5.16599C37.813 5.16599 37.8024 5.14761 37.792 5.12928C37.5785 5.34629 37.4372 5.43341 37.2028 5.6123C37.1171 5.67647 37.099 5.74828 37.0224 5.82622C36.9683 5.88126 36.9187 5.90422 36.8841 5.97301C36.848 6.04482 36.8645 6.10447 36.8179 6.16865C36.7818 6.21755 36.7217 6.23433 36.7217 6.29702C36.7217 6.37803 36.8179 6.38106 36.8841 6.42537C36.7818 6.54008 36.6931 6.6149 36.5414 6.6149C36.4902 6.6149 36.4661 6.57216 36.415 6.57216C36.382 6.57216 36.3625 6.58431 36.3294 6.58431H36.1941C36.164 6.58431 36.149 6.59655 36.1189 6.59655C36.0212 6.59655 35.9655 6.59813 35.8678 6.59813L35.8438 6.59045C35.9235 6.42849 36.0543 6.36119 36.0543 6.18089C36.0543 6.13806 36.0453 6.10899 36.0302 6.07079C35.7717 6.33371 35.7115 6.55381 35.5732 6.89616C35.5417 6.9741 35.4815 6.98942 35.429 7.05512C35.4726 7.09944 35.5146 7.10255 35.5732 7.12242C35.5492 7.22018 35.4861 7.24925 35.429 7.33331H35.5072C35.438 7.39447 35.4184 7.48922 35.3268 7.48922C35.2922 7.48922 35.2772 7.45714 35.2425 7.45253C35.2636 7.38835 35.3087 7.36081 35.3087 7.29357C35.3087 7.24209 35.1423 7.47734 35.1163 7.50759C35.0802 7.5504 35.0261 7.56877 35.0261 7.62682C35.0261 7.65428 35.0517 7.66502 35.0682 7.68487C35.1508 7.62371 35.1779 7.55952 35.2666 7.50759C35.1855 7.61759 35.1915 7.70785 35.1403 7.83769C35.1313 7.89735 35.1329 7.97224 35.0742 7.97224C34.9795 7.97224 35.0125 7.78267 34.9178 7.78267C34.8728 7.78267 34.8622 7.8285 34.8336 7.86216C34.7826 7.92174 34.7525 7.95843 34.7074 8.02112C34.5586 8.22438 34.5165 8.36965 34.4369 8.61416C34.4249 8.56372 34.4173 8.53313 34.4173 8.48119L34.4248 8.29618C34.4286 8.20418 34.3692 8.43687 34.2985 8.49803C34.267 8.52548 34.2204 8.53461 34.2204 8.57745C34.2204 8.61565 34.2504 8.63861 34.2865 8.65085C34.1107 8.82972 34.0039 8.90765 33.8296 9.08486C33.7829 9.13229 33.7273 9.1399 33.7032 9.20108C33.7935 9.26224 33.8716 9.25915 33.9438 9.34169C33.9769 9.37995 33.9649 9.4273 33.9978 9.46398C34.088 9.56179 34.1782 9.62747 34.1782 9.76355C34.1782 9.91797 33.9934 9.90876 33.8836 10.0204L33.8596 10.0142C33.8792 9.8889 33.9919 9.84918 33.9919 9.72384C33.9919 9.58475 33.9137 9.51444 33.8236 9.40899C33.7453 9.31726 33.6792 9.25616 33.5589 9.24393C33.5063 9.35092 33.4837 9.4151 33.4266 9.51907C33.3816 9.6031 33.3274 9.63211 33.2703 9.70851C33.2102 9.78802 33.1996 9.84767 33.144 9.92861C32.9937 10.1457 32.875 10.2511 32.7653 10.4911C32.636 10.7724 32.4557 10.8595 32.2662 11.1086C32.1354 11.2813 32.0317 11.3532 31.8814 11.506C31.8243 11.5641 31.7792 11.587 31.7311 11.6527C31.7176 11.6711 31.725 11.7077 31.701 11.7077C31.6514 11.7077 31.6289 11.6772 31.5808 11.6649C31.5853 11.7031 31.6108 11.7185 31.6108 11.7567C31.6108 11.8453 31.5026 11.8392 31.4364 11.8973C31.3027 12.015 31.1915 12.0302 31.0637 12.1602C31.0337 12.1877 31.0006 12.1968 30.96 12.1968H30.8487C30.6564 12.1968 30.5947 12.3665 30.4504 12.4964C30.2655 12.663 30.1587 12.7624 29.9453 12.8877C29.8716 12.9305 29.8115 12.9259 29.7408 12.9733C29.5634 13.0926 29.5154 13.2469 29.3139 13.3218C29.1907 13.3676 29.0976 13.3493 28.9952 13.4318C29.0568 13.4517 29.0929 13.4471 29.1576 13.4563C29.1486 13.496 29.1245 13.5143 29.0915 13.5358C29.096 13.5464 29.1005 13.5556 29.1035 13.5664H29.1801C29.2012 13.5664 29.2162 13.5725 29.2358 13.5786C29.2057 13.6397 29.1336 13.6473 29.1336 13.7131C29.1336 13.7283 29.1456 13.7344 29.1456 13.7497C29.1456 13.8429 28.9472 13.7849 28.9472 13.8781C28.9472 13.9408 28.9742 13.9744 29.0013 14.031L28.869 14.0738L28.8509 13.9882V13.8415C28.7156 13.7726 28.6465 13.7467 28.5082 13.7008C28.4181 13.9408 28.2602 14.0202 28.1655 14.2572C28.1385 14.3245 28.0453 14.3306 28.0453 14.4039C28.0453 14.4161 28.0603 14.4176 28.0633 14.4284C28.1265 14.4176 28.1716 14.4054 28.2076 14.355L28.2316 14.3612C28.1895 14.4345 28.1535 14.4757 28.1535 14.5598C28.1535 14.6408 28.1895 14.6836 28.1895 14.7646C28.1895 14.7921 28.1791 14.8089 28.1656 14.8319C28.2152 14.8028 28.2377 14.7692 28.2918 14.7462C28.2527 14.8425 28.2542 14.9282 28.1716 14.9908C28.1866 15.0045 28.1941 15.0275 28.2152 15.0275H28.3339C28.3429 15.0871 28.3519 15.1207 28.3519 15.1803C28.3519 15.2231 28.2949 15.2185 28.2557 15.2293C28.1506 15.2598 28.0799 15.2476 27.9851 15.3027C28.0077 15.3714 28.0769 15.3882 28.1475 15.3882L28.1355 15.4127C28.0633 15.4555 28.0393 15.512 27.9611 15.541C27.8559 15.5808 27.7747 15.5579 27.6845 15.6267C27.695 15.6527 27.701 15.671 27.7026 15.7C27.7807 15.7 27.8228 15.7367 27.901 15.7428L27.8288 16.1035C27.7853 16.2212 27.7117 16.2747 27.6665 16.3909C27.644 16.449 27.6109 16.4734 27.5883 16.5315C27.5658 16.5896 27.5477 16.6537 27.4861 16.6537C27.3358 16.6537 27.2742 16.5193 27.1239 16.5193C27.1149 16.5193 27.1103 16.5254 27.1013 16.5254L27.6304 16.9473C27.5929 17.1016 27.4982 17.149 27.3899 17.259C27.2802 17.3706 27.2246 17.444 27.0833 17.5158L27.0171 17.418L26.9931 17.4241C26.978 17.4715 26.9645 17.5281 26.9149 17.5281C26.8262 17.5281 26.7872 17.4746 26.6984 17.4608C26.6895 17.4914 26.679 17.5082 26.6624 17.5342V17.6121C26.6624 17.7146 26.8427 17.7009 26.8427 17.8032C26.8427 17.846 26.8217 17.8704 26.8187 17.9133L26.7947 17.9194C26.6849 17.8918 26.6248 17.8674 26.5121 17.8582C26.4505 18.0493 26.3844 18.1471 26.3618 18.3474C26.3392 18.5506 26.3663 18.7234 26.2054 18.8425C26.0671 18.945 25.965 18.9694 25.8086 19.0382C25.6748 19.0978 25.6373 19.2461 25.49 19.2461C25.4569 19.2461 25.4374 19.2384 25.4058 19.2277C25.4599 19.2827 25.49 19.3194 25.5441 19.3744C25.4088 19.408 25.3306 19.4172 25.1923 19.4172C25.0856 19.4172 25.0149 19.3851 24.9368 19.3133C24.9037 19.3591 24.9067 19.402 24.9067 19.46C24.8 19.46 24.7369 19.4692 24.6362 19.5028C24.5971 19.515 24.5941 19.5762 24.552 19.5762C24.4708 19.5762 24.4467 19.5028 24.3776 19.46C24.1867 19.3393 24.1506 19.1864 23.9928 19.0259C23.7853 18.815 23.6381 18.676 23.59 18.3779C23.5118 18.4848 23.4381 18.5216 23.3374 18.6102C23.2653 18.6744 23.2412 18.7294 23.151 18.7753C23.172 18.8043 23.193 18.8242 23.193 18.8609C23.193 18.9236 23.2517 18.9403 23.3013 18.977C23.3389 19.0046 23.3464 19.0459 23.3915 19.0626C23.4937 19.1008 23.59 19.0932 23.644 19.1911C23.7297 19.3484 23.8124 19.431 23.9687 19.515C24.0515 19.5594 24.1431 19.59 24.1431 19.6863C24.1431 19.8605 23.7944 19.7872 23.7944 19.9614C23.7944 19.9736 23.8124 19.9736 23.8124 19.9858C23.8124 20.0439 23.7417 20.0439 23.6921 20.0714C23.6005 20.1234 23.5418 20.1386 23.4456 20.1876C23.2893 20.2671 23.2186 20.345 23.0548 20.3955C22.7377 20.5239 22.5753 20.6385 22.2491 20.7073C22.1003 20.7378 22.0116 20.7393 21.8643 20.7867C21.6267 20.8632 21.5081 20.9534 21.2631 21.0007C21.1232 21.0267 21.0421 21.0084 20.9022 21.0313C20.758 21.0558 20.6798 21.1047 20.5325 21.1047C20.3491 21.1047 20.2439 21.0818 20.0665 21.0313C20.0004 21.013 19.9673 20.9763 19.8981 20.9763C19.7719 20.9763 19.7133 21.0543 19.5975 21.1047C19.4126 21.1857 19.2924 21.2025 19.0925 21.2025C18.8986 21.2025 18.7677 21.2377 18.5994 21.1352C18.4986 21.0741 18.5017 20.9748 18.419 20.8907C18.198 20.666 17.9635 20.7088 17.6794 20.5789C17.6358 20.559 17.6554 20.501 17.6193 20.4688C17.5577 20.4138 17.4976 20.4138 17.4149 20.4138C17.3217 20.4138 17.2961 20.53 17.203 20.53H17.0256C16.9053 20.53 16.8407 20.5682 16.7234 20.5973C16.6813 20.608 16.6708 20.6584 16.6272 20.6584C16.5866 20.6584 16.5595 20.6049 16.5371 20.5729L16.5611 20.5789C16.4875 20.5484 16.4333 20.5422 16.3687 20.4933C16.2965 20.64 16.295 20.8235 16.1402 20.8235C15.8471 20.8235 15.6096 20.7226 15.4788 20.4566C15.3721 20.2396 15.2142 20.1739 14.9978 20.0715C14.9061 20.0287 14.8294 20.0195 14.7693 19.937L14.7453 19.9431C14.7182 20.0272 14.7213 20.0807 14.7213 20.1693C14.7213 20.2488 14.6596 20.316 14.5814 20.316H14.4101C14.3333 20.316 14.2763 20.3344 14.2281 20.3955L14.2523 20.4017C14.1966 20.4292 14.168 20.4628 14.1064 20.4628H13.9591C13.8929 20.4628 13.8674 20.4032 13.8253 20.3527C13.7607 20.2748 13.6765 20.2901 13.5848 20.2488C13.5277 20.2228 13.5096 20.1632 13.4465 20.1632C13.2676 20.1632 13.2286 20.4017 13.0496 20.4017C12.97 20.4017 12.967 20.2733 12.8874 20.2733C12.7295 20.2733 12.6664 20.4139 12.5085 20.4139C12.3613 20.4139 12.3071 20.261 12.1598 20.261C11.9373 20.261 11.8351 20.4322 11.6127 20.4322C11.536 20.4322 11.5225 20.3435 11.4503 20.316C11.3075 20.2626 11.2158 20.261 11.064 20.261H10.9407C10.8685 20.261 10.8295 20.3146 10.7949 20.3772C10.6897 20.3329 10.6867 20.2305 10.6265 20.1327C10.592 20.0745 10.5634 20.0394 10.5063 20.0042C10.4597 19.9752 10.392 19.9752 10.392 19.9187C10.392 19.8988 10.4101 19.8896 10.4101 19.8697C10.4101 19.8193 10.356 19.8087 10.3139 19.7842C10.2943 19.7704 10.2793 19.7536 10.2538 19.7536C10.1605 19.7536 10.0734 19.752 10.0253 19.833C9.90959 20.0272 10.0358 20.2977 9.82687 20.3772C9.67956 20.4322 9.58036 20.4429 9.45409 20.5422C9.3624 20.6141 9.31724 20.6798 9.20756 20.7134C9.15492 20.7287 9.11736 20.6997 9.06329 20.7134C9.0287 20.7211 9.01518 20.7563 8.97908 20.7563C8.95355 20.7563 8.93996 20.7379 8.91894 20.7256C8.90697 20.8051 8.92642 20.8586 8.88885 20.9274C8.78215 21.1215 8.61075 21.1475 8.40183 21.2086C8.09522 21.2989 7.98101 21.4899 7.67431 21.5938C7.50597 21.6503 7.42474 21.7192 7.25938 21.7772C6.9483 21.8857 6.76036 21.9209 6.43572 21.9729C6.31996 21.9912 6.25833 22.0278 6.14108 22.0278C5.96821 22.0278 5.88549 21.9362 5.72019 21.8811C5.71271 21.979 5.72019 22.1136 5.62397 22.1136C5.53228 22.1136 5.49016 22.0539 5.41352 22.0035C5.22566 21.8811 5.12346 21.7467 4.90092 21.7467H4.75358C4.61688 21.7467 4.48909 21.7375 4.42745 21.6122L4.25312 21.7038C4.28163 21.7482 4.2906 21.7788 4.31326 21.8262C4.33576 21.8719 4.39138 21.8842 4.39138 21.9362C4.39138 22.0095 4.34178 22.0768 4.2696 22.0768H4.17945C4.17797 21.9835 4.18096 21.9316 4.18096 21.8384C4.15094 21.8415 4.13285 21.8445 4.10275 21.8384C4.03818 21.8231 3.99904 21.8078 3.93294 21.8078H3.81567C3.60971 21.8078 3.4865 21.7589 3.30911 21.655C3.23396 21.6107 3.17834 21.6015 3.11671 21.5388C3.06109 21.4822 3.07461 21.4196 3.05055 21.3431C3.02046 21.2514 2.99642 21.1964 2.99642 21.0986C2.99642 21.0084 3.03853 20.9626 3.03853 20.8724C3.03853 20.7563 2.99642 20.6935 2.97837 20.5789C2.94688 20.3864 2.93938 20.2748 2.90026 20.0837C2.88971 20.0256 2.85215 19.9966 2.85215 19.937C2.85215 19.8422 2.92434 19.7994 2.92434 19.7046V19.6313C2.92434 19.5762 2.96636 19.5518 2.96636 19.4968C2.96636 19.4189 2.91831 19.3791 2.91831 19.3012C2.91831 19.2018 2.97839 19.1529 2.97839 19.0535C2.97839 18.971 2.89126 18.9496 2.81607 18.9221C2.76647 18.9053 2.7424 18.8732 2.68983 18.8732C2.65524 18.8732 2.6567 18.9206 2.63576 18.9466C2.59813 18.9908 2.57413 19.0169 2.54555 19.0688C2.51094 19.1315 2.44332 19.1497 2.44332 19.2216C2.44332 19.3332 2.49746 19.3913 2.49746 19.5029C2.49746 19.5748 2.42973 19.6251 2.35911 19.6251C2.28542 19.6251 2.20278 19.5915 2.20278 19.5167V19.3669C2.20278 19.2109 2.16375 19.1085 2.05241 18.9955C2.06304 19.0918 2.08857 19.1437 2.08857 19.24C2.08857 19.4739 1.91415 19.5793 1.72783 19.7169C1.70376 19.6894 1.67972 19.6741 1.67972 19.6374C1.67972 19.6038 1.7158 19.5916 1.7158 19.5579C1.7158 19.3791 1.63762 19.2859 1.63762 19.1071V18.9817C1.63762 18.8793 1.68573 18.8228 1.68573 18.7204C1.68573 18.6042 1.6466 18.5415 1.63159 18.4269C1.62253 18.3581 1.63314 18.3122 1.6015 18.2496C1.57448 18.1976 1.52635 18.2006 1.48121 18.1639C1.41216 18.109 1.40013 18.0448 1.367 17.9622C1.34453 18.0539 1.29483 18.0999 1.29483 18.1946C1.29483 18.2618 1.373 18.2818 1.373 18.3489V18.5078C1.373 18.6745 1.48119 18.7555 1.48119 18.9222C1.48119 19.0913 1.36244 19.1976 1.20851 19.2532L1.20853 19.2532L1.18661 20.4506L9.98925 31.8956L32.4165 34.8179L32.9817 34.1454C33.0117 34.0538 33.0148 34.0109 33.0298 33.9132C33.0478 33.4912 33.0778 33.2528 33.0778 32.8311C33.0778 32.6293 33.0418 32.5162 33.0418 32.3144V31.0733C33.0418 30.8838 33.1831 30.8135 33.2463 30.6362C33.3244 30.4191 33.2913 30.2632 33.3785 30.0492C33.5649 29.5876 33.7873 29.3798 34.0759 28.9732C34.2293 28.5055 34.4247 28.2517 34.4849 27.7626C34.551 27.2032 34.59 26.8211 34.9658 26.4176C35.0891 26.2831 35.2034 26.225 35.2665 26.0508C35.3898 25.7145 35.3116 25.4822 35.4348 25.1459C35.5491 24.8311 35.5972 24.6323 35.7956 24.3634C35.9309 24.18 36.1173 24.0974 36.1173 23.8651V23.1253C36.1173 22.9694 36.1504 22.8502 36.0601 22.7248C35.8347 22.41 35.3387 22.4344 35.3387 22.0432C35.3387 22.0188 35.3417 22.0034 35.3387 21.979C35.958 21.979 36.1864 21.3554 36.8057 21.3554C37.0553 21.3554 37.1935 21.3707 37.4431 21.3798C37.5153 21.3982 37.5603 21.4043 37.6355 21.4043C37.7948 21.4043 37.873 21.3065 38.0323 21.3065C38.2067 21.3065 38.2668 21.4898 38.4412 21.4898C38.7868 21.4898 38.9342 21.2698 39.2589 21.1476C39.4032 21.0925 39.4874 21.0375 39.6438 21.0252C39.8331 21.0099 40.1007 21.0466 40.1007 20.8541C40.1007 20.6981 39.9504 20.6493 39.9083 20.4995C39.8331 20.2671 39.743 20.1449 39.7159 19.9003C39.6859 19.619 39.6197 19.289 39.3431 19.289C39.0544 19.289 38.9222 19.509 38.6336 19.509C38.4983 19.509 38.4472 19.3959 38.3209 19.3501C38.2157 19.3103 38.0564 19.3317 38.0564 19.2156C38.0564 18.705 38.5374 18.5155 38.5374 18.005C38.5374 17.8094 38.4922 17.678 38.357 17.5404C38.2788 17.4608 38.1406 17.4608 38.1406 17.3478V16.6936C38.1406 16.4369 38.0925 16.2932 38.0925 16.0364C38.0925 15.908 38.3089 15.9202 38.3089 15.7918C38.3089 15.7337 38.2729 15.7032 38.2729 15.6451C38.2729 15.4617 38.5013 15.4127 38.5013 15.2294C38.5013 14.9298 38.2729 14.7953 38.2729 14.4957C38.2729 14.3398 38.345 14.2604 38.345 14.1044C38.345 13.7529 38.2007 13.5633 38.2007 13.2118C38.2007 12.8817 38.5103 12.7961 38.6817 12.5149C38.8952 12.1633 39.1777 11.989 39.5836 11.989C39.8091 11.989 40.0285 11.9737 40.1368 12.1725C40.3142 12.4965 40.0917 12.8541 40.3773 13.0895L40.3291 13.0529C40.1488 12.9612 40.0285 12.9398 39.8362 12.8817C39.8301 12.9673 39.8001 13.0162 39.8001 13.1017C39.8001 13.2638 39.9354 13.3249 40.0044 13.4686C40.0796 13.6245 40.1428 13.7101 40.257 13.8355C40.4645 14.0586 40.4705 14.4346 40.7741 14.4346C40.9455 14.4346 41.0958 14.4651 41.2071 14.3368C41.4566 14.0525 41.3694 13.6092 41.7361 13.5176C41.9767 13.4564 42.151 13.4503 42.3133 13.2608C42.3975 13.1599 42.4005 13.062 42.4937 12.9673C42.626 12.8328 42.8666 12.8542 42.8666 12.6646V12.316C42.8666 12.1876 43.0135 12.1589 43.1398 12.1498L43.1399 12.1498ZM42.56 8.36343H42.4172C42.3841 8.36343 42.3706 8.33282 42.3375 8.33282C42.3256 8.33282 42.318 8.34203 42.3075 8.34506C42.3075 8.45205 42.2684 8.57739 42.1632 8.57739C42.1256 8.57739 42.1045 8.55294 42.0669 8.55294C41.9723 8.55294 41.8806 8.61561 41.8806 8.7119C41.8806 8.83413 41.9467 8.91364 42.0549 8.96869C42.1782 9.03136 42.2428 9.10931 42.3796 9.10931C42.4653 9.10931 42.4954 9.02829 42.5359 8.95035C42.5735 8.87694 42.6141 8.83722 42.6141 8.7547C42.6141 8.60029 42.5841 8.51777 42.56 8.36343Z" stroke="black" stroke-width="0.2" stroke-miterlimit="10"/>
</svg>
