<svg width="44" height="28" viewBox="0 0 44 28" fill="none" xmlns="http://www.w3.org/2000/svg">
<g clip-path="url(#clip0_13511_190374)">
<path d="M32.2319 9.90177L32.431 9.64729L32.4946 9.28769L32.6564 9.15433L32.7248 8.85903L33.0222 8.5673L32.9227 8.33391L32.8231 8.13744L32.6924 7.90882L32.6289 7.61351L32.5257 7.54683L32.2319 7.64923L31.9981 7.77902L31.9669 7.97549L31.9033 8.13743L31.7367 8.10647V7.8457L31.8674 7.54682L31.9981 7.25509L31.9669 6.86095L31.9309 6.4037L31.7714 6.33583L31.4381 6.20605L31.1766 6.00958L30.8469 5.97385L30.649 6.13937L30.4823 6.49778L30.2521 6.82524L30.1526 6.72997L29.9223 7.05743L29.6921 7.6135L29.5578 8.13743L29.7556 8.63041L29.8863 9.25316V9.68183L29.6578 10.0166L29.5925 10.4308L29.2951 10.5332L29.0973 10.4665L28.8346 10.0093L28.7675 9.56394L28.8035 9.41866L28.7351 9.09121V8.49941L28.8035 8.00764L28.7675 7.67661L28.8982 7.18721L29.0289 6.89191L29.1644 6.5966L29.0289 6.76211L28.7675 7.05742L28.5684 7.38487V7.21935L28.7351 6.82522L28.867 6.4037L29.0013 6.04053L29.1644 6.00957L29.3587 6.23343L29.4618 6.00957L29.8228 5.90716L30.0578 5.7095L30.3864 5.68211L30.8517 5.88335L31.1287 5.6583L31.5376 5.64639L31.6683 5.54756L31.4704 5.51303H31.2078L31.0099 5.35108L30.8792 5.25226L30.5495 5.2213L30.5183 5.02363L30.3192 4.92599H30.2161L29.8587 4.98791L29.6921 5.05578L29.4618 5.15461L29.228 5.28797H29.0013H28.6716L28.4377 5.02363H28.307L28.0096 5.05578L27.9101 4.92599L27.9772 4.69737L28.1715 4.56638V4.36991L27.9461 4.46398L27.5491 4.79143L27.2194 5.12246L26.8896 5.31536L26.561 5.38204L26.2624 5.31536L26.1641 5.12246L26.1005 5.18557L25.9015 5.22129L25.6365 5.28797L25.3067 5.31536L25.176 5.3356L25.4062 4.9879L25.6676 4.79144L26.2624 4.36992L26.8896 3.97578L26.7913 3.94006L26.362 3.97578L25.4062 3.94006L25.3067 3.81027L25.0093 3.71144L24.7155 3.61261L24.9133 3.40781H24.1675L24.2034 3.64834L23.9684 3.58165L23.707 3.51497L23.3772 3.34945L23.2465 3.08868L23.147 2.76123H23.0486V3.05772L22.9491 3.08868L22.0917 3.1244L21.4849 3.13631L20.3457 3.08868L19.0985 3.04105L17.8334 2.97437L16.6127 2.89221L16.6139 2.88387L14.6737 2.69454L13.1256 2.53379L11.7406 2.33613L10.3555 2.03606L9.2007 1.84316L7.05782 1.35138L5.90185 1.05489L5.1128 0.791734L3.98921 0.5L3.75897 0.566683V0.925094L3.59229 1.12276L3.52873 1.25255L3.56471 1.41805H3.7278L3.69542 1.6824L3.65944 1.94199L3.49756 2.10393L3.39803 2.26945L3.16779 2.33613V2.20634L3.13181 2.07179L3.16779 1.90627L3.33088 1.68241L3.52874 1.44903L3.49756 1.31567L3.46158 1.25256L3.13181 1.18587V1.02393L2.87039 1.09061L2.34275 0.566683L2.04416 1.05488L2.20725 1.64668L2.14369 2.10392L2.2744 2.23371L2.14369 2.56474V2.86004L2.34276 3.03389L2.75528 3.17201L2.22764 3.00649L2.01299 3.18749L1.8499 3.34943V3.71142L1.52013 4.20439L1.48535 4.43301L1.54891 4.59496L1.38581 4.76404L1.28629 4.96051L1.25511 5.31535L1.08843 5.57969L0.925337 5.6821L1.02007 5.84404L0.726273 5.97383L0.663916 6.26913L0.595563 6.49776L0.6915 6.56444L0.559588 6.7621V7.05741L0.683105 7.2896L0.671112 7.2896L0.528411 7.38487L0.595564 7.58133V7.71232L0.163863 8.43272L-0.000732422 8.69748V9.09162L0.162358 9.28809L0.197134 9.90727L0.133578 10.4312L0.229515 10.8611L0.427374 11.1885L0.46335 11.7124H0.793121L0.824299 11.5826L0.99098 11.6493V11.7791L0.856674 11.8458L0.824297 12.0077V12.1375L0.689991 12.1066L0.526901 12.3352L0.72476 12.5674L0.923825 13.0246L0.824297 13.2223L0.689991 13.3521L0.923833 13.9427L1.05454 14.207L1.21763 14.6286L1.38431 14.9917V15.3228L1.32075 15.5823L1.28478 15.649L1.58218 15.7443L1.74527 15.9408L1.94433 15.9098L2.11101 15.9408L2.2729 16.0717L2.34125 16.2408L2.40481 16.4337L2.66983 16.4647L2.90007 16.5992L2.9996 16.729L3.16628 16.9624L3.29698 17.1553L3.42769 17.3518L3.62676 17.3839L3.65793 17.4506L3.72629 17.6471L3.75747 17.9745L3.78984 18.2353L3.9877 18.4044L4.18677 18.4318L4.38463 18.4675L4.97582 18.6009L5.40872 18.664L5.70252 18.6294L5.94834 18.5151V18.9402L7.13555 19.7797L7.73034 20.1738L8.45344 20.662L10.6276 20.9026L10.6324 20.9073L11.2991 20.974L11.3423 20.6823L12.7753 20.7882V20.7871L13.1362 20.9895L13.5331 21.4193L13.5967 21.6158L14.0967 21.9754L14.1243 22.2386L14.4265 22.6649L14.5213 23.1257L14.7551 23.3853L15.2156 23.7449L15.5453 23.9413L15.7444 23.8473L15.9063 23.7127L15.9746 23.2555L16.3032 23.1257L16.7637 23.2555L17.2242 23.3221L17.458 23.5472L17.7518 23.7794L18.018 24.008V24.2688L18.2171 24.501V24.7927L18.3838 24.9892L18.5457 25.1595L18.7759 25.3833L18.8754 25.7465L19.1369 26.2395L19.3359 26.7312L19.7688 27.1254L20.0626 27.2564L20.6262 27.3504L21.1491 27.5005L21.0867 27.3504L21.1179 27.0908L21.0507 26.6967L20.9548 26.499L21.0867 26.2395L21.0184 26.0418H20.7569L20.7881 25.8811L20.9824 25.7775L21.0867 25.5488V25.3833L21.2846 25.3524L21.3793 25.2226L21.3481 25.0928L21.546 24.9892L21.9429 24.9273L21.9753 24.7927L21.8398 24.6629L21.7762 24.501L22.0065 24.5331L22.3398 24.5677L22.7332 24.3712L23.1301 24.139L23.3927 23.8115L23.4599 23.6496L23.3603 23.4531L23.5906 23.3221V23.4841L23.7884 23.6496L24.0822 23.4531L24.3484 23.4019L24.7142 23.2555L25.0751 23.4531L25.5992 23.5198L26.0633 23.4531L26.5237 23.4174V23.6139L26.8535 23.7449L27.2504 24.008L27.3488 23.7794L27.6426 23.8115L27.7781 23.7127L27.9448 23.6817L28.4052 23.8115L28.6031 24.0437L28.7338 23.9413L28.8022 23.7449L28.6703 23.7127L28.4724 23.5198L28.2386 23.3853L28.3693 23.1888L28.536 23.0899V22.8613L28.3417 22.928L28.1702 23.2197L28.1067 23.0899L28.1702 22.8613L28.0395 22.7982L27.8776 22.8935L27.5119 22.7982L27.9448 22.6649L28.3417 22.7315L28.1426 22.5458L28.452 22.4041L28.9005 22.2707L29.2938 22.3219L29.56 22.3374L29.6272 21.9587L29.7975 22.0492V22.31L30.1201 22.2862L30.1392 22.4672H30.4127L30.8096 22.2386L31.1753 22.2707L31.5363 22.4993L31.9296 22.6649L32.3625 22.6958L32.6911 22.7315L32.8901 22.5351L33.0209 22.3374L33.4178 22.4993L33.7787 22.6649L34.0761 22.8256L34.4383 23.059L34.8028 23.2876L34.8664 23.6139L34.8352 24.008L34.8664 24.5331L34.9659 24.3712L35.0966 24.3045L35.1326 24.5998L35.0643 24.7927L35.0295 24.9892L35.1962 25.1869L35.4612 25.419L35.6914 25.3524V25.6477L35.8581 25.8453V26.0775L36.1879 26.2704L36.4817 26.5348L36.6807 26.7312L36.7791 26.9289L36.9422 27.0587H37.176L37.5058 26.8265L37.5369 26.6646L37.6005 26.4681L37.7036 26.0418L37.6689 25.2226L37.4386 24.8951L37.0453 24.3045L36.8474 23.8115L36.3186 22.9602L36.1207 22.4993L35.791 21.9075L35.653 21.4491L35.6602 21.4503L35.5571 21.1871L35.6243 20.5322L35.755 20.4655L35.8233 20.3358L35.6243 20.3036L36.255 19.8464L36.2634 19.8511L36.1447 19.5868L36.0212 19.4177H36.1207L36.4145 19.3498V19.1534L36.5812 19.126L36.8115 19.0236L36.9422 18.6961L37.2084 18.6008V18.4044L37.3751 17.9745L37.73 17.7423L37.736 17.7459L37.8356 17.6471L38.1006 17.5804V17.3518L38.2325 16.9898L38.5263 16.5992L39.0539 16.5004L39.3513 16.2682L39.2518 16.1062L38.8908 16.2051L39.0539 16.0086L39.0899 15.8109L38.7242 15.7443L38.9232 15.6811L39.2878 15.78L39.4508 15.5466L39.6175 15.287L39.843 15.3858L39.7794 15.8467L39.9113 15.649L39.9461 15.3858L39.5816 14.8929L39.3513 14.9286L39.1535 15.125L38.8549 15.1882L38.8237 15.0226L39.0539 15.0584L39.3513 14.8262L39.482 14.6952L39.4509 14.432L39.3153 14.4832H39.1211L39.4509 14.432L39.2878 14.1713L39.0216 14.0724L38.6246 13.9748L38.2961 13.7771H38.657L38.8237 13.6831L38.6246 13.4854L38.2325 13.0913L37.9387 12.8281L38.7242 13.352L38.7877 13.2889L38.7242 13.1234L38.3272 12.7924L38.693 12.9257L38.4579 12.6971V12.4018L38.3944 12.0077L38.3632 11.6493H38.4579L38.5263 12.0434L38.6246 12.303L38.5934 12.6304L38.7877 12.5673L38.9232 12.6971L39.1535 12.9615L39.1211 13.2222L39.0899 13.7462L39.2206 13.6164L39.3837 13.2532L39.4185 12.8591L39.6175 12.4649V12.2875L39.8718 12.016L39.5971 12.0434L39.2482 11.8029L39.1714 11.4861L39.6175 11.5469L39.9461 11.0587L40.078 10.6645V10.1716L39.843 10.0418L39.8478 9.98224L40.0097 9.51309L40.1452 9.28804L40.6368 8.8939L40.9354 8.82722L41.2292 8.76411H41.5578L41.6609 8.63075L41.6933 8.23661L41.5578 8.1223L41.3599 8.05443L41.264 8.02347L41.5458 8.11039L41.6933 8.23661L42.0218 8.36997L42.1538 8.23661H42.4152L42.7174 8.10682V7.94131L42.4823 7.67697L42.6142 7.84605L42.5507 8.04372L42.2845 8.00799L42.1885 7.87345L41.9547 7.61386L41.824 7.21973L41.7568 7.20424L41.752 6.84464L41.6681 6.62912L41.7568 6.82559L41.86 6.26951L42.1214 5.87537L42.5183 5.45028L42.7449 5.22165L42.7174 4.85848L42.9788 4.8942L43.0459 4.69773L43.1095 4.85848L43.5388 4.46435H43.8362L43.9993 4.33456L43.9033 4.20477L43.7055 4.13809L43.4393 3.81064L43.3397 3.58202L43.0747 3.7118L42.9428 3.54629L42.9116 3.21884L42.8792 2.76159L42.7174 2.14002L42.4511 1.77684L42.2173 1.84353L41.8875 2.07215L41.5937 1.81257L41.3323 1.94235L41.3599 2.66394L41.0973 2.89256L41.1656 3.582L41.0973 4.10593L40.9666 4.53221L40.8994 4.64652L40.5025 4.76441L40.6368 5.02399L40.5696 5.56459L40.6176 5.16211L39.2877 5.40264L38.7241 5.45027L38.2325 5.54791L37.9027 5.70986L37.3751 6.43144L37.4062 6.92798L37.4698 7.25543L37.2084 7.3495L37.0093 7.54716L36.6484 7.64957L36.0848 7.67695L35.394 7.84604V8.20445L35.5931 8.43307L35.394 8.63074L35.1326 8.92604V8.94153L34.521 9.38806L34.5174 9.35114L34.3064 9.51309L33.6444 9.94294L33.3818 10.1049L33.088 10.2704L32.9849 10.1394H32.787L32.3781 10.1351L32.2319 9.90177ZM39.7808 9.56038L39.8755 9.60086L39.8731 9.64016L39.7808 9.56038ZM39.1224 11.331L39.1548 11.4V11.4274L39.1224 11.331ZM35.8954 19.665L36.2324 19.8341L35.8847 19.6674L35.8954 19.665Z" fill="#F9F9F8"/>
<path d="M13.5635 21.5156L13.5971 21.618L14.0971 21.9776L14.1247 22.2408L14.4269 22.6671L14.5216 23.1279L14.7554 23.3875L15.0636 23.628H15.9198L15.975 23.2577L16.3036 23.1279L16.7641 23.2577L17.2245 23.3244L17.4584 23.5494L17.5579 23.628H23.4483L23.3607 23.4553L23.591 23.3244V23.4863L23.7601 23.628H23.8248L24.0826 23.4553L24.3489 23.4041L24.7146 23.2577L25.0755 23.4553L25.5996 23.522L26.0637 23.4553L26.5241 23.4196V23.6161L26.5541 23.628H28.5819L28.4728 23.522L28.239 23.3875L28.3697 23.191L28.5363 23.0922V22.8635L28.3421 22.9302L28.1706 23.222L28.107 23.0922L28.1706 22.8635L28.0399 22.8004L27.878 22.8957L27.5123 22.8004L27.9452 22.6671L28.3421 22.7338L28.143 22.548L28.4524 22.4063L28.9009 22.2729L29.2942 22.3241L29.5604 22.3396L29.6276 21.961L29.7979 22.0515V22.3122L30.1205 22.2884L30.1396 22.4694H30.4131L30.81 22.2408L31.1757 22.2729L31.5367 22.5016L31.93 22.6671L32.3629 22.698L32.6915 22.7338L32.8905 22.5373L33.0213 22.3396L33.4182 22.5016L33.7791 22.6671L34.0765 22.8278L34.4387 23.0612L34.8032 23.2898L34.8668 23.6161L34.8656 23.628H36.7327L36.319 22.9624L36.1211 22.5016L35.7913 21.9098L35.6726 21.5156L13.5635 21.5156Z" fill="#BD3D44"/>
<path d="M3.38524 17.2891L3.42841 17.3546L3.62747 17.3867L3.65865 17.4534L3.72701 17.6499L3.75818 17.9773L3.79056 18.2381L3.98842 18.4072L4.18749 18.4346L4.38535 18.4703L4.97654 18.6036L5.40944 18.6667L5.70323 18.6322L5.94906 18.5179V18.943L6.59901 19.4026H36.1978L36.4149 19.3526V19.1561L36.5816 19.1288L36.8118 19.0264L36.9425 18.6989L37.2087 18.6036V18.4072L37.3754 17.9773L37.7304 17.7451L37.7364 17.7487L37.8359 17.6499L38.1009 17.5832V17.3546L38.1249 17.2891H3.38513H3.38524Z" fill="#BD3D44"/>
<path d="M0.906645 13.0625L0.825101 13.2245L0.690796 13.3542L0.924638 13.9448L1.05534 14.2092L1.21844 14.6307L1.38512 14.9939V15.1749H38.8529L38.8241 15.0248L39.0543 15.0606L39.3517 14.8284L39.4824 14.6974L39.4513 14.4342L39.3158 14.4854H39.1215L39.4513 14.4342L39.2882 14.1735L39.022 14.0746L38.625 13.977L38.2965 13.7793H38.6574L38.8241 13.6853L38.625 13.4876L38.2329 13.0935L38.1981 13.0625H0.906374L0.906645 13.0625ZM38.2873 13.0625L38.725 13.3542L38.7885 13.2911L38.725 13.1256L38.6494 13.0625L38.2873 13.0625ZM39.1423 13.0625L39.1219 13.2245L39.0907 13.7484L39.2214 13.6186L39.3845 13.2554L39.4013 13.0625L39.1423 13.0625ZM39.5824 14.8951L39.3521 14.9308L39.1543 15.1273L38.9288 15.1749H39.7898L39.5824 14.8951Z" fill="#BD3D44"/>
<path d="M6.71297e-05 8.83594V9.09433L0.163158 9.2908L0.197933 9.90999L0.134377 10.4339L0.230315 10.8638L0.281879 10.9495H39.984L40.0787 10.6673V10.1743L39.8437 10.0445L39.8485 9.985L40.0103 9.51585L40.1459 9.2908L40.6375 8.89666L40.9097 8.83594H35.216L35.1333 8.92881V8.94429L34.5217 9.39082L34.5181 9.35391L34.3071 9.51585L33.6451 9.94571L33.3825 10.1077L33.0887 10.2732L32.9856 10.1422H32.7877L32.3788 10.1374L32.2313 9.90522L32.4304 9.6504L32.4939 9.2908L32.6558 9.15744L32.7242 8.86213L32.7505 8.83594H29.797L29.8857 9.25627V9.68494L29.6567 10.0195L29.5919 10.4339L29.2945 10.5363L29.0967 10.4696L28.8341 10.0124L28.7669 9.56705L28.8029 9.42178L28.7345 9.09432V8.83594H-0.00012207L6.71297e-05 8.83594ZM39.7805 9.56383L39.8752 9.60432L39.8728 9.64361L39.7805 9.56383Z" fill="#BD3D44"/>
<path d="M1.53616 4.60938L1.38506 4.76656L1.28554 4.96302L1.25436 5.31787L1.08768 5.58221L0.924587 5.68461L1.01932 5.84656L0.725522 5.97634L0.663165 6.27165L0.594812 6.50027L0.69075 6.56696L0.586426 6.72294H28.7667L28.8662 6.4062L29.0005 6.04303L29.1636 6.01207L29.3579 6.23593L29.461 6.01207L29.8219 5.90966L30.057 5.712L30.3855 5.68461L30.8508 5.88585L31.1278 5.6608L31.5367 5.64889L31.6675 5.55006L31.4696 5.51553H31.207L31.0091 5.35359L30.8784 5.25476L30.5486 5.2238L30.5175 5.02613L30.3184 4.9285H30.2153L29.8579 4.99042L29.6912 5.05829L29.461 5.15711L29.2271 5.29047H29.0005H28.6707L28.4369 5.02613H28.3062L28.0088 5.05828L27.9093 4.92849L27.9764 4.69987L28.1107 4.60938H27.7725L27.5483 4.79394L27.2185 5.12497L26.8888 5.31787L26.5602 5.38455L26.2616 5.31787L26.1633 5.12497L26.0997 5.18808L25.9006 5.2238L25.6356 5.29048L25.3058 5.31787L25.1751 5.33811L25.4054 4.99041L25.6668 4.79395L25.927 4.60938H1.53606H1.53616ZM40.9232 4.60938L40.9004 4.64867L40.5035 4.76655L40.6378 5.02614L40.5706 5.56674L40.6186 5.16427L39.2888 5.40479L38.7251 5.45242L38.2335 5.55006L37.9037 5.71201L37.3761 6.43359L37.3941 6.72295H41.7051L41.6691 6.63126L41.7111 6.72295H41.777L41.861 6.27165L42.1224 5.87752L42.5193 5.45243L42.746 5.2238L42.7184 4.86063L42.9798 4.89635L43.047 4.69988L43.1105 4.86063L43.3839 4.60938L40.9232 4.60938ZM30.8463 5.97637L30.6485 6.14189L30.4818 6.5003L30.3247 6.72297H31.9556L31.9304 6.40623L31.7709 6.33835L31.4375 6.20857L31.1761 6.0121L30.8463 5.97637ZM29.1638 6.59913L29.0619 6.72297H29.1075L29.1638 6.59913Z" fill="#BD3D44"/>
<path d="M3.98851 0.500016L3.75827 0.566699V0.92511L3.59159 1.12277L3.52803 1.25256L3.564 1.41807H3.72709L3.69472 1.68242L3.65874 1.942L3.49686 2.10395L3.39733 2.26946L3.16709 2.33615V2.20636L3.13111 2.07181L3.16709 1.90629L3.33018 1.68243L3.52804 1.44904L3.49686 1.31568L3.46088 1.25257L3.13111 1.18589V1.02395L2.86969 1.09062L2.34205 0.566699L2.04346 1.0549L2.20655 1.6467L2.14299 2.10394L2.2737 2.23373L2.17177 2.49331H12.8409L11.74 2.33613L10.355 2.03606L9.20015 1.84315L7.05726 1.35138L5.90129 1.05489L5.11224 0.791728L3.98866 0.5L3.98851 0.500016ZM42.4515 1.77649L42.2177 1.84316L41.8879 2.07179L41.5941 1.8122L41.3327 1.942L41.3543 2.49331H42.8101L42.7177 2.13966L42.4515 1.77649Z" fill="#BD3D44"/>
<path d="M18.8734 25.7422L18.8758 25.7494L19.1373 26.2423L19.3363 26.7341L19.7692 27.1282L20.063 27.2592L20.6266 27.3533L21.1495 27.5033L21.0871 27.3533L21.1183 27.0937L21.0511 26.6996L20.9552 26.5019L21.0871 26.2423L21.0188 26.0447H20.7573L20.7885 25.8839L20.9828 25.7803L20.9996 25.7422L18.8734 25.7422ZM35.7686 25.7422L35.8585 25.8482V26.0804L36.1883 26.2733L36.4821 26.5376L36.6811 26.7341L36.7795 26.9317L36.9425 27.0615H37.1764L37.5062 26.8293L37.5373 26.6674L37.6009 26.4709L37.704 26.0446L37.6908 25.7422H35.7686Z" fill="#BD3D44"/>
<path d="M3.98868 0.5L3.75844 0.566683V0.925094L3.59176 1.12276L3.5282 1.25255L3.56418 1.41805H3.72727L3.69489 1.6824L3.65891 1.94199L3.49703 2.10393L3.3975 2.26945L3.16726 2.33613V2.20634L3.13128 2.07179L3.16726 1.90627L3.33035 1.68241L3.52821 1.44903L3.49703 1.31567L3.46105 1.25256L3.13128 1.18587V1.02393L2.86986 1.09061L2.34222 0.566683L2.04363 1.05488L2.20672 1.64668L2.14316 2.10392L2.27387 2.23371L2.14316 2.56473V2.86004L2.34223 3.03389L2.75475 3.17201L2.22711 3.00649L2.01246 3.18749L1.84937 3.34943V3.71142L1.51959 4.20439L1.48482 4.43301L1.54838 4.59496L1.38528 4.76404L1.28576 4.96051L1.25458 5.31535L1.0879 5.57969L0.924807 5.6821L1.01954 5.84404L0.725743 5.97383L0.663386 6.26913L0.595033 6.49776L0.69097 6.56444L0.559058 6.76211V7.05741L0.682575 7.2896H0.670583L0.527882 7.38486L0.595036 7.58133V7.71232L0.163335 8.43272L0.000244141 8.69706V9.0912L0.163335 9.28767L0.19811 9.90685L0.134554 10.4308L0.230492 10.8606L0.428351 11.1881L0.464326 11.712H0.794097L0.825276 11.5822L0.991957 11.6489V11.7787L0.857651 11.8454L0.825273 12.0073V12.1371L0.690968 12.1061L0.527877 12.3348L0.725736 12.567L0.924801 13.0242L0.825273 13.2219L0.690968 13.3517L0.92481 13.9423L1.05552 14.2066L1.21861 14.6281L1.38529 14.9913V15.1723H20.7699V3.10668L20.3454 3.08881L19.0983 3.04119L17.8332 2.97451L16.6125 2.89234L16.6137 2.88401L14.6734 2.69468L13.1253 2.53393L11.7403 2.33626L10.3553 2.0362L9.20045 1.84329L8.64165 1.71505L7.05757 1.35151L5.9016 1.05502L5.11255 0.791862L3.98868 0.5Z" fill="#192F5D"/>
<path fill-rule="evenodd" clip-rule="evenodd" d="M2.19048 1.76782L2.48325 1.76562L2.15857 1.99745L2.19048 1.76782Z" fill="#F9F9F8"/>
<path fill-rule="evenodd" clip-rule="evenodd" d="M5.23834 1.16406L5.43399 1.76198H6.06711L5.55489 2.13151L5.75055 2.72943L5.23833 2.3599L4.72611 2.72943L4.92177 2.13151L4.40955 1.76198L5.04269 1.76198L5.23834 1.16406Z" fill="#F9F9F8"/>
<path fill-rule="evenodd" clip-rule="evenodd" d="M8.96808 1.79378L9.47194 1.89242C9.94209 1.55323 9.24351 2.0572 9.13876 2.13278L9.33442 2.7307L8.8222 2.36117L8.30998 2.7307L8.50563 2.13278L7.99341 1.76325L8.62655 1.76325L8.64111 1.71875L8.96808 1.79378Z" fill="#F9F9F8"/>
<path fill-rule="evenodd" clip-rule="evenodd" d="M12.8391 2.48524L12.9181 2.72661L12.5439 2.45064L12.3174 2.41833L11.8937 2.72661L12.0087 2.375L12.3242 2.41928L12.5284 2.44848L12.8391 2.48524Z" fill="#F9F9F8"/>
<path fill-rule="evenodd" clip-rule="evenodd" d="M3.44647 2.67969L3.64212 3.2776H4.27524L3.76302 3.64713L3.95868 4.24505L3.44646 3.87552L2.93424 4.24505L3.1299 3.64713L2.61768 3.2776L3.25082 3.2776L3.44647 2.67969Z" fill="#F9F9F8"/>
<path fill-rule="evenodd" clip-rule="evenodd" d="M7.03021 2.67969L7.22586 3.2776H7.85898L7.34676 3.64713L7.54242 4.24505L7.0302 3.87552L6.51798 4.24505L6.71364 3.64713L6.20142 3.2776L6.83456 3.2776L7.03021 2.67969Z" fill="#F9F9F8"/>
<path fill-rule="evenodd" clip-rule="evenodd" d="M10.6141 2.67969L10.8097 3.2776H11.4428L10.9306 3.64713L11.1263 4.24505L10.6141 3.87552L10.1018 4.24505L10.2975 3.64713L9.78528 3.2776L10.4184 3.2776L10.6141 2.67969Z" fill="#F9F9F8"/>
<path fill-rule="evenodd" clip-rule="evenodd" d="M14.1979 2.67969L14.3936 3.2776H15.0267L14.5145 3.64713L14.7101 4.24505L14.1979 3.87552L13.6857 4.24505L13.8814 3.64713L13.3691 3.2776L14.0023 3.2776L14.1979 2.67969Z" fill="#F9F9F8"/>
<path fill-rule="evenodd" clip-rule="evenodd" d="M17.8796 2.97681L17.9773 3.27541L18.6104 3.27541L18.0982 3.64494L18.2939 4.24286L17.7817 3.87333L17.2694 4.24286L17.4651 3.64494L16.9529 3.27541L17.586 3.27541L17.6864 2.96875L17.8796 2.97681Z" fill="#F9F9F8"/>
<path fill-rule="evenodd" clip-rule="evenodd" d="M1.65444 4.1875L1.85009 4.78542H2.48321L1.97099 5.15495L2.16665 5.75286L1.65443 5.38333L1.14221 5.75286L1.33787 5.15495L1.27291 5.10403L1.28548 4.9609L1.37296 4.78822L1.45879 4.78542L1.65444 4.1875Z" fill="#F9F9F8"/>
<path fill-rule="evenodd" clip-rule="evenodd" d="M5.23822 4.1875L5.43387 4.78542H6.06699L5.55477 5.15495L5.75043 5.75286L5.23821 5.38333L4.72599 5.75286L4.92164 5.15495L4.40942 4.78542L5.04257 4.78542L5.23822 4.1875Z" fill="#F9F9F8"/>
<path fill-rule="evenodd" clip-rule="evenodd" d="M8.82221 4.1875L9.01786 4.78542H9.65098L9.13876 5.15495L9.33442 5.75286L8.8222 5.38333L8.30998 5.75286L8.50563 5.15495L7.99341 4.78542L8.62655 4.78542L8.82221 4.1875Z" fill="#F9F9F8"/>
<path fill-rule="evenodd" clip-rule="evenodd" d="M12.4058 4.1875L12.6015 4.78542H13.2346L12.7224 5.15495L12.918 5.75286L12.4058 5.38333L11.8936 5.75286L12.0892 5.15495L11.577 4.78542L12.2102 4.78542L12.4058 4.1875Z" fill="#F9F9F8"/>
<path fill-rule="evenodd" clip-rule="evenodd" d="M15.9898 4.1875L16.1855 4.78542H16.8186L16.3064 5.15495L16.502 5.75286L15.9898 5.38333L15.4776 5.75286L15.6732 5.15495L15.161 4.78542L15.7942 4.78542L15.9898 4.1875Z" fill="#F9F9F8"/>
<path fill-rule="evenodd" clip-rule="evenodd" d="M19.5737 4.1875L19.7693 4.78542H20.4024L19.8902 5.15495L20.0859 5.75286L19.5737 5.38333L19.0614 5.75286L19.2571 5.15495L18.7449 4.78542L19.378 4.78542L19.5737 4.1875Z" fill="#F9F9F8"/>
<path fill-rule="evenodd" clip-rule="evenodd" d="M3.44647 5.70312L3.64212 6.30104H4.27524L3.76302 6.67057L3.95868 7.26849L3.44646 6.89896L2.93424 7.26849L3.1299 6.67057L2.61768 6.30104L3.25082 6.30104L3.44647 5.70312Z" fill="#F9F9F8"/>
<path fill-rule="evenodd" clip-rule="evenodd" d="M7.03021 5.70312L7.22586 6.30104H7.85898L7.34676 6.67057L7.54242 7.26849L7.0302 6.89896L6.51798 7.26849L6.71364 6.67057L6.20142 6.30104L6.83456 6.30104L7.03021 5.70312Z" fill="#F9F9F8"/>
<path fill-rule="evenodd" clip-rule="evenodd" d="M10.6141 5.70312L10.8097 6.30104H11.4428L10.9306 6.67057L11.1263 7.26849L10.6141 6.89896L10.1018 7.26849L10.2975 6.67057L9.78528 6.30104L10.4184 6.30104L10.6141 5.70312Z" fill="#F9F9F8"/>
<path fill-rule="evenodd" clip-rule="evenodd" d="M14.1979 5.70312L14.3936 6.30104H15.0267L14.5145 6.67057L14.7101 7.26849L14.1979 6.89896L13.6857 7.26849L13.8814 6.67057L13.3691 6.30104L14.0023 6.30104L14.1979 5.70312Z" fill="#F9F9F8"/>
<path fill-rule="evenodd" clip-rule="evenodd" d="M17.7817 5.70312L17.9773 6.30104H18.6104L18.0982 6.67057L18.2939 7.26849L17.7817 6.89896L17.2694 7.26849L17.4651 6.67057L16.9529 6.30104L17.586 6.30104L17.7817 5.70312Z" fill="#F9F9F8"/>
<path fill-rule="evenodd" clip-rule="evenodd" d="M1.65448 7.21875L1.85013 7.81667H2.48325L1.97103 8.1862L2.16669 8.78411L1.65447 8.41458L1.14225 8.78411L1.3379 8.1862L0.825684 7.81667L1.45882 7.81667L1.65448 7.21875Z" fill="#F9F9F8"/>
<path fill-rule="evenodd" clip-rule="evenodd" d="M5.23834 7.21875L5.43399 7.81667H6.06711L5.55489 8.1862L5.75055 8.78411L5.23833 8.41458L4.72611 8.78411L4.92177 8.1862L4.40955 7.81667L5.04269 7.81667L5.23834 7.21875Z" fill="#F9F9F8"/>
<path fill-rule="evenodd" clip-rule="evenodd" d="M8.82221 7.21875L9.01786 7.81667H9.65098L9.13876 8.1862L9.33442 8.78411L8.8222 8.41458L8.30998 8.78411L8.50563 8.1862L7.99341 7.81667L8.62655 7.81667L8.82221 7.21875Z" fill="#F9F9F8"/>
<path fill-rule="evenodd" clip-rule="evenodd" d="M12.4059 7.21875L12.6016 7.81667H13.2347L12.7225 8.1862L12.9182 8.78411L12.4059 8.41458L11.8937 8.78411L12.0894 8.1862L11.5771 7.81667L12.2103 7.81667L12.4059 7.21875Z" fill="#F9F9F8"/>
<path fill-rule="evenodd" clip-rule="evenodd" d="M15.9898 7.21875L16.1855 7.81667H16.8186L16.3064 8.1862L16.502 8.78411L15.9898 8.41458L15.4776 8.78411L15.6732 8.1862L15.161 7.81667L15.7942 7.81667L15.9898 7.21875Z" fill="#F9F9F8"/>
<path fill-rule="evenodd" clip-rule="evenodd" d="M19.5737 7.21875L19.7693 7.81667H20.4024L19.8902 8.1862L20.0859 8.78411L19.5737 8.41458L19.0614 8.78411L19.2571 8.1862L18.7449 7.81667L19.378 7.81667L19.5737 7.21875Z" fill="#F9F9F8"/>
<path fill-rule="evenodd" clip-rule="evenodd" d="M3.44647 8.73438L3.64212 9.33229H4.27524L3.76302 9.70182L3.95868 10.2997L3.44646 9.93021L2.93424 10.2997L3.1299 9.70182L2.61768 9.33229L3.25082 9.33229L3.44647 8.73438Z" fill="#F9F9F8"/>
<path fill-rule="evenodd" clip-rule="evenodd" d="M7.03021 8.73438L7.22586 9.33229H7.85898L7.34676 9.70182L7.54242 10.2997L7.0302 9.93021L6.51798 10.2997L6.71364 9.70182L6.20142 9.33229L6.83456 9.33229L7.03021 8.73438Z" fill="#F9F9F8"/>
<path fill-rule="evenodd" clip-rule="evenodd" d="M10.6141 8.73438L10.8097 9.33229H11.4428L10.9306 9.70182L11.1263 10.2997L10.6141 9.93021L10.1018 10.2997L10.2975 9.70182L9.78528 9.33229L10.4184 9.33229L10.6141 8.73438Z" fill="#F9F9F8"/>
<path fill-rule="evenodd" clip-rule="evenodd" d="M14.1979 8.73438L14.3936 9.33229H15.0267L14.5145 9.70182L14.7101 10.2997L14.1979 9.93021L13.6857 10.2997L13.8814 9.70182L13.3691 9.33229L14.0023 9.33229L14.1979 8.73438Z" fill="#F9F9F8"/>
<path fill-rule="evenodd" clip-rule="evenodd" d="M17.7817 8.73438L17.9773 9.33229H18.6104L18.0982 9.70182L18.2939 10.2997L17.7817 9.93021L17.2694 10.2997L17.4651 9.70182L16.9529 9.33229L17.586 9.33229L17.7817 8.73438Z" fill="#F9F9F8"/>
<path fill-rule="evenodd" clip-rule="evenodd" d="M1.65448 10.2422L1.85013 10.8401H2.48325L1.97103 11.2096L2.16669 11.8076L1.65447 11.438L1.14225 11.8076L1.3379 11.2096L0.825684 10.8401L1.45882 10.8401L1.65448 10.2422Z" fill="#F9F9F8"/>
<path fill-rule="evenodd" clip-rule="evenodd" d="M5.23834 10.2422L5.43399 10.8401H6.06711L5.55489 11.2096L5.75055 11.8076L5.23833 11.438L4.72611 11.8076L4.92177 11.2096L4.40955 10.8401L5.04269 10.8401L5.23834 10.2422Z" fill="#F9F9F8"/>
<path fill-rule="evenodd" clip-rule="evenodd" d="M8.82221 10.2422L9.01786 10.8401H9.65098L9.13876 11.2096L9.33442 11.8076L8.8222 11.438L8.30998 11.8076L8.50563 11.2096L7.99341 10.8401L8.62655 10.8401L8.82221 10.2422Z" fill="#F9F9F8"/>
<path fill-rule="evenodd" clip-rule="evenodd" d="M12.4059 10.2422L12.6016 10.8401H13.2347L12.7225 11.2096L12.9182 11.8076L12.4059 11.438L11.8937 11.8076L12.0894 11.2096L11.5771 10.8401L12.2103 10.8401L12.4059 10.2422Z" fill="#F9F9F8"/>
<path fill-rule="evenodd" clip-rule="evenodd" d="M15.9898 10.2422L16.1855 10.8401H16.8186L16.3064 11.2096L16.502 11.8076L15.9898 11.438L15.4776 11.8076L15.6732 11.2096L15.161 10.8401L15.7942 10.8401L15.9898 10.2422Z" fill="#F9F9F8"/>
<path fill-rule="evenodd" clip-rule="evenodd" d="M19.5737 10.2422L19.7693 10.8401H20.4024L19.8902 11.2096L20.0859 11.8076L19.5737 11.438L19.0614 11.8076L19.2571 11.2096L18.7449 10.8401L19.378 10.8401L19.5737 10.2422Z" fill="#F9F9F8"/>
<path fill-rule="evenodd" clip-rule="evenodd" d="M3.44647 11.7578L3.64212 12.3557H4.27524L3.76302 12.7253L3.95868 13.3232L3.44646 12.9536L2.93424 13.3232L3.1299 12.7253L2.61768 12.3557L3.25082 12.3557L3.44647 11.7578Z" fill="#F9F9F8"/>
<path fill-rule="evenodd" clip-rule="evenodd" d="M7.03021 11.7578L7.22586 12.3557H7.85898L7.34676 12.7253L7.54242 13.3232L7.0302 12.9536L6.51798 13.3232L6.71364 12.7253L6.20142 12.3557L6.83456 12.3557L7.03021 11.7578Z" fill="#F9F9F8"/>
<path fill-rule="evenodd" clip-rule="evenodd" d="M10.6141 11.7578L10.8097 12.3557H11.4428L10.9306 12.7253L11.1263 13.3232L10.6141 12.9536L10.1018 13.3232L10.2975 12.7253L9.78528 12.3557L10.4184 12.3557L10.6141 11.7578Z" fill="#F9F9F8"/>
<path fill-rule="evenodd" clip-rule="evenodd" d="M14.1979 11.7578L14.3936 12.3557H15.0267L14.5145 12.7253L14.7101 13.3232L14.1979 12.9536L13.6857 13.3232L13.8814 12.7253L13.3691 12.3557L14.0023 12.3557L14.1979 11.7578Z" fill="#F9F9F8"/>
<path fill-rule="evenodd" clip-rule="evenodd" d="M17.7817 11.7578L17.9773 12.3557H18.6104L18.0982 12.7253L18.2939 13.3232L17.7817 12.9536L17.2694 13.3232L17.4651 12.7253L16.9529 12.3557L17.586 12.3557L17.7817 11.7578Z" fill="#F9F9F8"/>
<path fill-rule="evenodd" clip-rule="evenodd" d="M1.65454 13.2656L1.85019 13.8635H2.48331L1.97109 14.2331L2.16675 14.831L1.65453 14.4615L1.26739 14.7365L1.21842 14.6298L1.33797 14.2331L0.915529 13.921L0.8927 13.8633L1.45887 13.8635L1.65454 13.2656Z" fill="#F9F9F8"/>
<path fill-rule="evenodd" clip-rule="evenodd" d="M5.23834 13.2656L5.43399 13.8635H6.06711L5.55489 14.2331L5.75055 14.831L5.23833 14.4615L4.72611 14.831L4.92177 14.2331L4.40955 13.8635L5.04269 13.8635L5.23834 13.2656Z" fill="#F9F9F8"/>
<path fill-rule="evenodd" clip-rule="evenodd" d="M8.82233 13.2656L9.01798 13.8635H9.6511L9.13888 14.2331L9.33454 14.831L8.82232 14.4615L8.3101 14.831L8.50575 14.2331L7.99353 13.8635L8.62667 13.8635L8.82233 13.2656Z" fill="#F9F9F8"/>
<path fill-rule="evenodd" clip-rule="evenodd" d="M12.4059 13.2656L12.6016 13.8635H13.2347L12.7225 14.2331L12.9182 14.831L12.4059 14.4615L11.8937 14.831L12.0894 14.2331L11.5771 13.8635L12.2103 13.8635L12.4059 13.2656Z" fill="#F9F9F8"/>
<path fill-rule="evenodd" clip-rule="evenodd" d="M15.9899 13.2656L16.1856 13.8635H16.8187L16.3065 14.2331L16.5021 14.831L15.9899 14.4615L15.4777 14.831L15.6734 14.2331L15.1611 13.8635L15.7943 13.8635L15.9899 13.2656Z" fill="#F9F9F8"/>
<path fill-rule="evenodd" clip-rule="evenodd" d="M19.5738 13.2656L19.7694 13.8635H20.4026L19.8903 14.2331L20.086 14.831L19.5738 14.4615L19.0616 14.831L19.2572 14.2331L18.745 13.8635L19.3781 13.8635L19.5738 13.2656Z" fill="#F9F9F8"/>
</g>
<defs>
<clipPath id="clip0_13511_190374">
<rect width="44" height="27" fill="white" transform="translate(0 0.5)"/>
</clipPath>
</defs>
</svg>
