<svg width="19" height="20" viewBox="0 0 19 20" fill="none" xmlns="http://www.w3.org/2000/svg">
<path d="M12.9994 5.5001L5.19006 13.4407C4.93152 13.7261 4.79261 14.0999 4.80208 14.4848C4.81156 14.8697 4.9687 15.2363 5.24097 15.5086C5.51324 15.7808 5.87978 15.938 6.26471 15.9474C6.64964 15.9569 7.02347 15.818 7.30881 15.5595L16.6182 6.11885C17.1353 5.54817 17.4131 4.80051 17.3941 4.03065C17.3752 3.26079 17.0609 2.52771 16.5164 1.98317C15.9718 1.43864 15.2387 1.12436 14.4689 1.1054C13.699 1.08645 12.9514 1.36427 12.3807 1.88135L3.07131 11.322C2.22841 12.1649 1.75488 13.3081 1.75488 14.5001C1.75488 15.6921 2.22841 16.8353 3.07131 17.6782C3.9142 18.5211 5.0574 18.9946 6.24943 18.9946C7.44146 18.9946 8.58466 18.5211 9.42756 17.6782L17.1244 10.0001" stroke="#667085" stroke-width="2" stroke-linecap="round" stroke-linejoin="round"/>
</svg>
