<svg width="32" height="38" viewBox="0 0 32 38" fill="none" xmlns="http://www.w3.org/2000/svg">
<path d="M30.8822 9.88787V35.4761C30.8822 36.5349 29.9998 37.4173 28.941 37.4173H5.23512C4.1763 37.4173 3.29395 36.5349 3.29395 35.4761V2.53493C3.29395 1.4761 4.1763 0.59375 5.23512 0.59375H21.6469L30.8822 9.88787Z" fill="white"/>
<path d="M27.941 6.94256V37.4131H28.9998C30.0586 37.4131 30.941 36.5308 30.941 35.472V9.88373L27.941 6.94256ZM6.70571 0.648438H5.23512C4.1763 0.648438 3.29395 1.53079 3.29395 2.58961V35.5308C3.29395 36.5896 4.1763 37.472 5.23512 37.472H6.70571V0.648438ZM9.11747 0.648438H10.941V37.4131H9.11747V0.648438Z" fill="#EAEAEA" fill-opacity="0.314"/>
<path d="M30.8824 9.88373H23.5294C22.4706 9.88373 21.5883 9.00138 21.5883 7.94256V0.648438L30.8824 9.88373ZM17.8236 25.0602V30.9426C17.8236 31.7073 17.2353 32.2955 16.4706 32.2955H2.29415C1.64709 32.2955 1.11768 31.7661 1.11768 31.119V24.8837C1.11768 24.2367 1.64709 23.7073 2.29415 23.7073H16.5294C17.2353 23.7073 17.8236 24.3543 17.8236 25.0602Z" fill="#457F8F"/>
<path d="M31.2352 9.59145L21.9411 0.297335C21.8234 0.238511 21.7058 0.179688 21.647 0.179688H5.23521C3.94109 0.179688 2.88227 1.23851 2.88227 2.53263V23.2973H2.29403C1.41168 23.2973 0.646973 24.0032 0.646973 24.9444V31.1797C0.646973 32.062 1.35285 32.8267 2.29403 32.8267H2.88227V35.4738C2.88227 36.7679 3.94109 37.8267 5.23521 37.8267H28.9999C30.294 37.8267 31.3529 36.7679 31.3529 35.4738V9.88557C31.3529 9.82675 31.294 9.7091 31.2352 9.59145ZM22.0587 1.7091L29.8234 9.47381H23.5293C22.7058 9.47381 22.0587 8.82675 22.0587 8.00322V1.7091ZM1.52933 31.1797V24.8856C1.52933 24.4738 1.88227 24.1209 2.29403 24.1209H16.5293C17.0587 24.1209 17.4705 24.5326 17.4705 25.062V30.9444C17.4705 31.4738 17.0587 31.8856 16.5293 31.8856H2.29403C1.88227 31.8856 1.52933 31.5915 1.52933 31.1797ZM30.4705 35.4738C30.4705 36.2973 29.8234 36.9444 28.9999 36.9444H5.23521C4.41168 36.9444 3.76462 36.2973 3.76462 35.4738V32.7679H16.4705C17.4705 32.7679 18.294 31.9444 18.294 30.9444V25.062C18.294 24.062 17.4705 23.2385 16.4705 23.2385H3.76462V2.53263C3.76462 1.7091 4.41168 1.06204 5.23521 1.06204H21.1764V8.00322C21.1764 9.29733 22.2352 10.3562 23.5293 10.3562H30.4705V35.4738Z" fill="#344054"/>
<path d="M6.39467 26.2891C6.79056 26.2891 7.09762 26.3832 7.31703 26.5691C7.53585 26.7555 7.64585 27.0291 7.64585 27.3885C7.64585 27.7485 7.53585 28.0238 7.31703 28.2126C7.09762 28.4026 6.79056 28.4973 6.39467 28.4973H5.60938V29.5914C5.60966 29.6087 5.60635 29.6259 5.59967 29.6419C5.59299 29.6579 5.58308 29.6724 5.57056 29.6844C5.55851 29.697 5.54399 29.707 5.5279 29.7138C5.51181 29.7206 5.49449 29.724 5.47703 29.7238H5.07997C5.06249 29.7241 5.04514 29.7207 5.02903 29.714C5.01293 29.7072 4.99842 29.6971 4.98644 29.6844C4.97384 29.6724 4.96384 29.658 4.95706 29.642C4.95028 29.626 4.94686 29.6088 4.94703 29.5914V26.422C4.94703 26.3861 4.96056 26.3549 4.98644 26.3291C4.99846 26.3164 5.01298 26.3063 5.02908 26.2996C5.04517 26.2928 5.0625 26.2894 5.07997 26.2897L6.39467 26.2891ZM5.60938 27.8844H6.36997C6.55644 27.8844 6.70526 27.8473 6.81644 27.7738C6.9282 27.7002 6.9835 27.5714 6.9835 27.3885C6.9835 27.2055 6.92762 27.0791 6.81644 27.0079C6.70526 26.9379 6.55644 26.9026 6.36997 26.9026H5.60938V27.8844ZM9.52467 26.2891C9.76644 26.2891 9.97703 26.3214 10.1553 26.3849C10.3335 26.4485 10.4817 26.5397 10.6011 26.6573C10.7206 26.7749 10.8123 26.9173 10.8764 27.0844C10.9406 27.2514 10.9782 27.4373 10.9911 27.6438C11.0047 27.8855 11.0047 28.1279 10.9911 28.3696C10.9782 28.5755 10.9406 28.762 10.8764 28.9291C10.8117 29.0961 10.7211 29.2379 10.6041 29.3561C10.4864 29.4738 10.34 29.5644 10.1647 29.6285C9.98938 29.6926 9.78467 29.7238 9.54879 29.7238H8.31291C8.29553 29.724 8.27829 29.7206 8.26229 29.7138C8.24629 29.7071 8.23188 29.697 8.21997 29.6844C8.20726 29.6725 8.19715 29.6581 8.19027 29.6421C8.18339 29.6261 8.17988 29.6088 8.17997 29.5914V26.422C8.17997 26.3861 8.1935 26.3549 8.21997 26.3291C8.23192 26.3165 8.24635 26.3065 8.26234 26.2997C8.27833 26.2929 8.29554 26.2895 8.31291 26.2897L9.52467 26.2891ZM10.3288 27.6438C10.3235 27.5438 10.3029 27.4452 10.2676 27.3514C10.2343 27.2631 10.1826 27.1829 10.1158 27.1161C10.0438 27.0462 9.95755 26.9926 9.86291 26.9591C9.74621 26.919 9.62333 26.8998 9.49997 26.9026H8.84232V29.1108H9.52467C9.65879 29.1108 9.77467 29.0914 9.87291 29.0544C9.96356 29.0229 10.046 28.9716 10.1142 28.9041C10.1824 28.8366 10.2346 28.7547 10.267 28.6644C10.3023 28.57 10.3231 28.4708 10.3288 28.3702C10.3423 28.1279 10.3423 27.8855 10.3288 27.6438ZM13.8611 26.2891C13.8976 26.2891 13.9288 26.3026 13.9553 26.3291C13.9677 26.3411 13.9775 26.3556 13.9842 26.3716C13.9909 26.3875 13.9942 26.4047 13.9941 26.422V26.7702C13.9943 26.7876 13.9909 26.8049 13.9842 26.821C13.9776 26.8371 13.9677 26.8516 13.9553 26.8638C13.9431 26.8763 13.9284 26.8862 13.9122 26.8929C13.896 26.8996 13.8787 26.9029 13.8611 26.9026H12.2964V27.8544H13.7635C13.7988 27.8544 13.8306 27.8679 13.857 27.8938C13.8695 27.9059 13.8794 27.9205 13.8861 27.9365C13.8927 27.9526 13.8961 27.9699 13.8959 27.9873V28.3355C13.896 28.3529 13.8927 28.3702 13.886 28.3863C13.8793 28.4023 13.8695 28.4169 13.857 28.4291C13.8449 28.4415 13.8303 28.4514 13.8143 28.4581C13.7982 28.4648 13.7809 28.4681 13.7635 28.4679H12.2964V29.5914C12.2966 29.6087 12.2932 29.6259 12.2865 29.6419C12.2799 29.6578 12.27 29.6723 12.2576 29.6844C12.2455 29.697 12.2309 29.7071 12.2147 29.7139C12.1985 29.7207 12.1811 29.724 12.1635 29.7238H11.767C11.7495 29.724 11.7321 29.7207 11.7159 29.7139C11.6997 29.7071 11.685 29.697 11.6729 29.6844C11.6605 29.6723 11.6507 29.6578 11.644 29.6419C11.6373 29.6259 11.6339 29.6087 11.6341 29.5914V26.422C11.6341 26.3861 11.6476 26.3549 11.6735 26.3291C11.6856 26.3165 11.7001 26.3065 11.7162 26.2998C11.7323 26.293 11.7496 26.2895 11.767 26.2897L13.8611 26.2891Z" fill="white"/>
</svg>
