<svg width="40" height="40" viewBox="0 0 40 40" fill="none" xmlns="http://www.w3.org/2000/svg">
<path d="M22 10.4114C21.2178 10.1449 20.3764 10 19.5 10C15.3441 10 11.9751 13.2591 11.9751 17.2794C11.975 18.3197 11.9127 19.2975 11.2856 20.194C10.8068 20.8701 10.1606 21.5625 10.0299 22.394C9.81727 23.7471 10.768 24.6862 11.9321 25.1542C16.3948 26.9486 22.6052 26.9486 27.0679 25.1542C28.232 24.6862 29.1827 23.7471 28.9701 22.394C28.8904 21.8869 28.6189 21.4315 28.3106 21" stroke="#344444" stroke-width="1.5" stroke-linecap="round" stroke-linejoin="round"/>
<path d="M16.5 29C17.2961 29.6219 18.3475 30 19.5 30C20.6525 30 21.7039 29.6219 22.5 29" stroke="#344444" stroke-width="1.5" stroke-linecap="round" stroke-linejoin="round"/>
<path d="M29 15.5C29 17.433 27.433 19 25.5 19C23.567 19 22 17.433 22 15.5C22 13.567 23.567 12 25.5 12C27.433 12 29 13.567 29 15.5Z" fill="#FA2238" stroke="#FA2238"/>
</svg>
