<svg width="20" height="20" viewBox="0 0 20 20" fill="none" xmlns="http://www.w3.org/2000/svg">
<path d="M7.9687 1.23852C8.81947 -0.412841 11.1806 -0.412841 12.0313 1.23852C12.5426 2.2308 13.6958 2.70851 14.7589 2.36834C16.5282 1.80225 18.1977 3.47177 17.6317 5.24105C17.2915 6.30418 17.7692 7.45748 18.7615 7.9687C20.4128 8.81947 20.4128 11.1806 18.7615 12.0313C17.7692 12.5426 17.2915 13.6959 17.6317 14.7589C18.1977 16.5282 16.5282 18.1977 14.7589 17.6317C13.6959 17.2915 12.5426 17.7692 12.0313 18.7615C11.1806 20.4128 8.81947 20.4128 7.9687 18.7615C7.45748 17.7692 6.30418 17.2915 5.24105 17.6317C3.47177 18.1977 1.80225 16.5282 2.36834 14.7589C2.70851 13.6959 2.2308 12.5426 1.23852 12.0313C-0.412841 11.1806 -0.412841 8.81947 1.23852 7.9687C2.2308 7.45748 2.70851 6.30418 2.36834 5.24105C1.80225 3.47177 3.47177 1.80225 5.24105 2.36834C6.30418 2.70851 7.45748 2.2308 7.9687 1.23852Z" fill="#98A2B3"/>
<path d="M13.0236 7.02669C13.2399 6.77212 13.575 6.76012 13.8295 6.9765C14.0841 7.19289 14.0469 7.52854 13.8305 7.78313L9.85464 12.813C9.63486 13.0716 9.24547 13.0988 8.99181 12.8733L6.26946 10.4535C6.01974 10.2314 5.99725 9.84916 6.21923 9.59941C6.44119 9.34967 6.82358 9.32722 7.07329 9.54912L9.33334 11.5581L13.0236 7.02669Z" fill="white"/>
</svg>
