<svg width="108" height="108" viewBox="0 0 108 108" fill="none" xmlns="http://www.w3.org/2000/svg">
<rect x="2" y="2" width="104" height="104" rx="6" fill="#F2F4F7"/>
<rect x="2" y="2" width="104" height="104" rx="6" stroke="#FCFDFD" stroke-width="4"/>
<g clip-path="url(#clip0_3906_69099)">
<path d="M49.1163 104.172C50.7388 104.323 52.3688 104.399 54 104.399C55.6693 104.399 57.3176 104.319 58.9419 104.166V81.1433H49.1165L49.1163 104.172Z" fill="#73C3F9"/>
<path d="M58.9419 81.1433H49.1163V86.4615C50.6915 86.9323 52.3405 87.1724 54.0004 87.1726C55.7045 87.1726 57.3701 86.9194 58.9417 86.4439V81.1433H58.9419Z" fill="#49B1F7"/>
<path d="M45.2407 73.1633C45.0202 73.2161 44.8028 73.279 44.5895 73.352C43.0275 73.8872 40.9342 75.2386 39.7544 78.636C38.614 78.6534 33.4045 78.9013 30.003 81.9153C28.0675 83.6305 27.086 85.933 27.086 88.7589V96.7565C33.6711 100.917 41.4987 103.593 49.9696 104.242V75.328L45.2407 73.1633Z" fill="white"/>
<path d="M58.0305 104.243C59.7769 104.109 61.5138 103.888 63.2327 103.579V73.2754L58.0305 75.3281V104.243Z" fill="white"/>
<path d="M88.7609 90.5178C87.833 87.0656 85.467 85.0718 83.5533 83.9829C82.3568 83.3021 80.7969 84.0683 80.7969 85.3424V96.8304C83.707 95.0026 86.3786 92.885 88.7609 90.5178Z" fill="#56415E"/>
<path d="M64.8751 77.2401L69.5039 70.8064C68.5355 70.537 67.5566 70.2993 66.569 70.0939C64.6259 68.345 64.1332 65.0294 64.0446 62.7097C63.0305 63.7728 61.9663 64.662 60.9494 65.3726C58.9679 66.7574 56.5229 67.5096 54.0048 67.5096C51.4866 67.5096 49.0416 66.7574 47.0603 65.3726C46.0434 64.662 44.979 63.7726 43.9649 62.7097C43.8763 65.0294 43.3836 68.345 41.4405 70.0939C40.4509 70.2998 39.4699 70.5379 38.4995 70.8079L43.1254 77.2391C44.3005 78.8728 45.9112 80.2157 47.8107 81.1456C49.7103 82.0754 51.8382 82.5625 54.0005 82.5625C56.1627 82.5626 58.2904 82.0756 60.1899 81.146C62.0893 80.2163 63.7 78.8736 64.8751 77.2401Z" fill="white"/>
<path d="M47.0606 65.3726C46.0437 64.6618 44.9794 63.7726 43.9652 62.7097C43.8765 65.0294 43.3839 68.345 41.4407 70.0939C40.4511 70.2997 39.4701 70.538 38.4998 70.8081L41.7058 75.2655C43.9627 76.1809 46.3801 76.6496 48.438 75.8896C52.8813 74.2484 53.796 69.5592 53.9822 67.5094C51.4723 67.5047 49.0359 66.7533 47.0606 65.3726Z" fill="white"/>
<path d="M39.5056 70.5381C21.5748 75.8003 16.4608 76.7412 14.3016 80.705C13.918 81.4091 13.5618 82.201 13.2301 83.0602C16.7305 88.5882 21.5792 93.3343 27.3729 96.9373V88.7586C27.3729 78.7169 39.9673 78.8933 39.9673 78.8933C41.2793 74.9222 43.8107 73.6916 45.635 73.3438L39.5056 70.5381Z" fill="white"/>
<path d="M94.7697 83.0602C94.438 82.201 94.0818 81.4091 93.6982 80.705C91.5392 76.7412 86.425 75.8003 68.4942 70.5381L62.3233 73.3627V103.736C76.2316 101.494 88.0119 93.7323 94.7697 83.0602Z" fill="white"/>
<path d="M72.2667 43.4313C73.5116 38.8623 74.5281 32.0161 71.8366 26.3196C66.6317 15.3042 52.4663 15.9833 48.7124 16.3713C48.3183 16.4119 48.1206 16.8166 48.3447 17.111C50.5949 20.0674 41.7793 17.3888 36.9878 26.4345C33.951 32.1673 34.7141 38.917 35.8243 43.4314L72.2667 43.4313Z" fill="white"/>
<path d="M53.7944 28.3361C53.7944 28.3361 52.3834 25.4155 55.9568 23.0038C59.5253 20.5952 54.2056 16.2677 54.1918 16.2565C51.7983 16.1201 49.8097 16.2579 48.7122 16.3714C48.3181 16.4121 48.1204 16.8167 48.3445 17.1111C50.5947 20.0676 41.7791 17.389 36.9876 26.4347C33.9508 32.1675 34.7139 38.9172 35.8241 43.4316H44.1543L46.8003 42.4855L53.7944 28.3361Z" fill="white"/>
<path d="M72.9984 42.8521C72.213 42.2044 70.4573 42.5328 69.7809 42.9293C69.9284 43.7631 69.9381 44.612 69.8096 45.4484L69.0114 50.6804C69.0114 51.1021 68.9967 51.5159 68.9695 51.9224C70.9159 52.4508 72.0741 50.8782 72.237 49.7989C72.3069 49.3343 72.4219 48.8761 72.5807 48.4296C73.0983 46.9746 74.966 44.4751 72.9984 42.8521Z" fill="white"/>
<path d="M35.0018 42.8521C35.7871 42.2044 37.5429 42.5328 38.2193 42.9293C38.0717 43.7631 38.0621 44.612 38.1908 45.4484L38.989 50.6804C38.989 51.1021 39.0037 51.5159 39.0309 51.9224C37.0845 52.4508 35.9263 50.8782 35.7634 49.7989C35.6935 49.3343 35.5785 48.8761 35.4196 48.4296C34.9019 46.9746 33.0341 44.4751 35.0018 42.8521Z" fill="white"/>
<path d="M68.8005 40.0613C67.916 38.8125 68.209 37.7926 68.2234 36.5982C68.2234 36.5982 68.9695 31.1 61.4455 29.1477C59.2673 28.5825 56.1935 28.2446 53.0439 28.3533C50.8521 29.744 49.4089 31.7846 49.4089 34.6763C49.4089 36.0055 49.7272 37.0439 48.8211 38.3914C47.8438 39.8444 47.2753 41.9404 47.5982 44.1695L48.4115 49.7834C48.4115 57.8543 52.957 63.3402 56.8236 66.1861C57.3692 66.5861 57.9549 66.9396 58.5731 67.2422C59.4185 66.9075 60.2151 66.4806 60.9448 65.9709C64.7406 63.318 69.2028 58.2043 69.2028 50.6808L70.001 45.4487C70.3155 43.3874 69.7696 41.4296 68.8005 40.0613Z" fill="white"/>
<path d="M56.8625 65.857C53.0667 63.0632 48.6042 57.6779 48.6042 49.7545L47.8059 44.2432C47.4889 42.0551 48.0471 39.9974 49.0064 38.5709C49.896 37.248 49.5835 36.2286 49.5835 34.9236C49.5835 31.8103 51.2847 29.699 53.7942 28.3357C47.1071 28.4189 39.7766 30.4589 39.7766 36.5979C39.7766 37.8368 40.089 38.805 39.1995 40.0611C38.2402 41.4156 37.682 43.3695 37.999 45.4474L38.7974 50.6806C38.7974 58.2041 43.2596 63.3178 47.0556 65.9707C49.0368 67.3554 51.4819 68.1075 54 68.1075C55.7324 68.1075 57.43 67.7516 58.9658 67.0786C58.2161 66.7435 57.5106 66.3338 56.8625 65.857Z" fill="white"/>
<path d="M70.7716 70.092C69.1479 68.4978 67.247 67.1518 65.1433 66.1067C65.0921 66.0812 65.0351 66.067 64.9767 66.0652C64.9183 66.0633 64.8602 66.0738 64.8072 66.0959C64.7542 66.118 64.7077 66.151 64.6715 66.1923C64.6353 66.2336 64.6105 66.282 64.5989 66.3335C64.2898 67.696 63.0066 71.8233 58.4272 74.552C57.4811 75.1158 57.3067 76.3025 58.053 77.0719L62.6546 81.8154C63.7617 82.963 65.8002 82.7565 66.5991 81.4176C67.9501 79.154 69.8322 75.7089 71.2252 72.0047C71.4746 71.3416 71.2974 70.6081 70.7716 70.092Z" fill="white"/>
<path d="M49.5756 74.5518C48.8021 74.0911 48.0806 73.5632 47.4217 72.9756C46.8653 72.9352 45.799 72.9375 44.5895 73.3518C43.0402 73.8825 40.9694 75.2173 39.7844 78.5528C40.3006 79.5184 40.8405 80.4735 41.4037 81.4174C42.2028 82.7563 44.2411 82.9628 45.3482 81.8152L49.9498 77.0719C50.6961 76.3024 50.5217 75.1154 49.5756 74.5518Z" fill="white"/>
<path d="M47.7699 73.2755C44.6431 70.673 43.6679 67.4965 43.4041 66.3337C43.3926 66.2821 43.3677 66.2337 43.3315 66.1924C43.2953 66.1511 43.2488 66.1181 43.1958 66.096C43.1427 66.0739 43.0847 66.0633 43.0262 66.0651C42.9678 66.067 42.9107 66.0812 42.8596 66.1066C40.7559 67.1517 38.855 68.4977 37.2315 70.092C36.7057 70.6081 36.5284 71.3416 36.7778 72.0048C37.7222 74.5165 38.8913 76.9077 39.9676 78.8934C42.1621 72.2515 47.7693 73.2753 47.7699 73.2755Z" fill="white"/>
<path d="M12.3485 85.059C12.7445 83.2157 14.3739 81.8992 16.2592 81.8992H91.9739C93.8758 81.8992 95.5148 83.2384 95.8937 85.1022L100 105.299H8L12.3485 85.059Z" fill="white"/>
</g>
<defs>
<clipPath id="clip0_3906_69099">
<rect width="98" height="88.2" fill="white" transform="translate(5 16.1992)"/>
</clipPath>
</defs>
</svg>
