<svg width="24" height="24" viewBox="0 0 24 24" fill="none" xmlns="http://www.w3.org/2000/svg">
<g clip-path="url(#clip0_3906_69740)">
<path d="M5.39187 9.04742L4.90172 9.14616L4.90175 9.14633L5.39187 9.04742ZM9.33325 9.33325L9.67417 9.69901L9.94797 9.4438L9.78024 9.10919L9.33325 9.33325ZM7.32814 5.33325L7.77512 5.10919C7.70715 4.97358 7.58129 4.87617 7.43297 4.84437C7.28466 4.81256 7.12992 4.84981 7.01232 4.94562L7.32814 5.33325ZM8.91943 15.0804L9.27312 14.727L9.27286 14.7267L8.91943 15.0804ZM14.9522 18.608L14.8533 19.0982L14.8535 19.0982L14.9522 18.608ZM14.6664 14.6667L14.8905 14.2197L14.5559 14.0519L14.3007 14.3257L14.6664 14.6667ZM18.6664 16.6718L19.054 16.9876C19.1499 16.87 19.1871 16.7153 19.1553 16.5669C19.1235 16.4186 19.0261 16.2928 18.8905 16.2248L18.6664 16.6718ZM4.90175 9.14633C5.09619 10.1099 5.42014 11.0605 6.07982 12.2103L6.9472 11.7127C6.34234 10.6584 6.05571 9.80934 5.88199 8.94851L4.90175 9.14633ZM6.85442 12.3273L9.67417 9.69901L8.99234 8.9675L6.17259 11.5958L6.85442 12.3273ZM9.78024 9.10919L7.77512 5.10919L6.88115 5.55732L8.88627 9.55732L9.78024 9.10919ZM7.01232 4.94562C6.00422 5.76693 4.49098 7.10726 4.90172 9.14616L5.88202 8.94868C5.60215 7.55936 6.58781 6.58134 7.64395 5.72089L7.01232 4.94562ZM6.07982 12.2103C6.74377 13.3676 7.59444 14.4632 8.56601 15.4341L9.27286 14.7267C8.35954 13.8141 7.56423 12.7882 6.9472 11.7127L6.07982 12.2103ZM15.0511 18.1179C14.1903 17.9442 13.3412 17.6576 12.287 17.0527L11.7893 17.9201C12.9391 18.5798 13.8898 18.9037 14.8533 19.0982L15.0511 18.1179ZM12.4039 17.8273L15.0322 15.0076L14.3007 14.3257L11.6724 17.1455L12.4039 17.8273ZM14.4423 15.1136L18.4423 17.1188L18.8905 16.2248L14.8905 14.2197L14.4423 15.1136ZM18.2788 16.356C17.4183 17.4121 16.4403 18.3978 15.051 18.1179L14.8535 19.0982C16.8924 19.5089 18.2327 17.9957 19.054 16.9876L18.2788 16.356ZM12.287 17.0527C11.2115 16.4357 10.1858 15.6403 9.27312 14.727L8.56575 15.4338C9.53659 16.4054 10.632 17.2561 11.7893 17.9201L12.287 17.0527Z" fill="#475467"/>
</g>
<defs>
<clipPath id="clip0_3906_69740">
<rect width="16" height="16" fill="white" transform="translate(4 4)"/>
</clipPath>
</defs>
</svg>
