<svg width="16" height="16" viewBox="0 0 16 16" fill="none" xmlns="http://www.w3.org/2000/svg">
<g clip-path="url(#clip0_3906_69742)">
<path d="M1.39187 5.04742L0.901716 5.14616L0.90175 5.14633L1.39187 5.04742ZM5.33325 5.33325L5.67417 5.69901L5.94797 5.4438L5.78024 5.10919L5.33325 5.33325ZM3.32814 1.33325L3.77512 1.10919C3.70715 0.973584 3.58129 0.87617 3.43297 0.844366C3.28466 0.812562 3.12992 0.849806 3.01232 0.945615L3.32814 1.33325ZM4.91943 11.0804L5.27312 10.727L5.27286 10.7267L4.91943 11.0804ZM10.9522 14.608L10.8533 15.0982L10.8535 15.0982L10.9522 14.608ZM10.6664 10.6667L10.8905 10.2197L10.5559 10.0519L10.3007 10.3257L10.6664 10.6667ZM14.6664 12.6718L15.054 12.9876C15.1499 12.87 15.1871 12.7153 15.1553 12.5669C15.1235 12.4186 15.0261 12.2928 14.8905 12.2248L14.6664 12.6718ZM0.90175 5.14633C1.09619 6.10986 1.42014 7.06053 2.07982 8.21033L2.9472 7.71269C2.34234 6.65843 2.05571 5.80934 1.88199 4.94851L0.90175 5.14633ZM2.85442 8.32727L5.67417 5.69901L4.99234 4.9675L2.17259 7.59576L2.85442 8.32727ZM5.78024 5.10919L3.77512 1.10919L2.88115 1.55732L4.88627 5.55732L5.78024 5.10919ZM3.01232 0.945615C2.00422 1.76693 0.490983 3.10726 0.901716 5.14616L1.88202 4.94868C1.60215 3.55936 2.58781 2.58134 3.64395 1.72089L3.01232 0.945615ZM2.07982 8.21033C2.74377 9.3676 3.59444 10.4632 4.56601 11.4341L5.27286 10.7267C4.35954 9.81407 3.56423 8.78816 2.9472 7.71269L2.07982 8.21033ZM11.0511 14.1179C10.1903 13.9442 9.34123 13.6576 8.28697 13.0527L7.78933 13.9201C8.93914 14.5798 9.88981 14.9037 10.8533 15.0982L11.0511 14.1179ZM8.40391 13.8273L11.0322 11.0076L10.3007 10.3257L7.6724 13.1455L8.40391 13.8273ZM10.4423 11.1136L14.4423 13.1188L14.8905 12.2248L10.8905 10.2197L10.4423 11.1136ZM14.2788 12.356C13.4183 13.4121 12.4403 14.3978 11.051 14.1179L10.8535 15.0982C12.8924 15.5089 14.2327 13.9957 15.054 12.9876L14.2788 12.356ZM8.28697 13.0527C7.21152 12.4357 6.1858 11.6403 5.27312 10.727L4.56575 11.4338C5.53659 12.4054 6.63202 13.2561 7.78933 13.9201L8.28697 13.0527Z" fill="#475467"/>
</g>
<defs>
<clipPath id="clip0_3906_69742">
<rect width="16" height="16" fill="white"/>
</clipPath>
</defs>
</svg>
