<svg width="27" height="18" viewBox="0 0 27 18" fill="none" xmlns="http://www.w3.org/2000/svg">
<g clip-path="url(#clip0_12920_86088)">
<path d="M26.6667 1.42246V16.5775C26.6667 17.3606 26.023 18 25.2374 18H2.09608C1.3118 18 0.669303 17.3631 0.666748 16.5826V1.41737C0.669303 0.636864 1.3118 0 2.09608 0H25.2374C26.023 0 26.6667 0.639407 26.6667 1.42246Z" fill="#ED2939"/>
<path d="M18.0001 0V18H2.09608C1.3118 18 0.669303 17.3631 0.666748 16.5826V1.41737C0.669303 0.636864 1.3118 0 2.09608 0H18.0001Z" fill="#FAE042"/>
<path d="M9.33341 0V18H2.09608C1.3118 18 0.669303 17.3631 0.666748 16.5826V1.41737C0.669303 0.636864 1.3118 0 2.09608 0H9.33341Z" fill="black"/>
</g>
<defs>
<clipPath id="clip0_12920_86088">
<rect width="26" height="18" fill="white" transform="translate(0.666748)"/>
</clipPath>
</defs>
</svg>
