<svg width="28" height="18" viewBox="0 0 28 18" fill="none" xmlns="http://www.w3.org/2000/svg">
<path d="M0.666748 12V15.5141C0.666748 16.9712 1.82383 17.9997 3.23804 17.9997H24.6655C26.0797 17.9997 27.2367 16.9712 27.2367 15.5141V12H0.666748Z" fill="black"/>
<path d="M24.6655 0H3.23804C1.82383 0 0.666748 1.02852 0.666748 2.48558V5.99968H27.2367V2.48558C27.2367 1.02852 26.0797 0 24.6655 0Z" fill="#00732F"/>
<path d="M27.2367 5.99805H0.666748V11.9977H27.2367V5.99805Z" fill="white"/>
<path d="M7.09497 0H3.23804C1.82383 0 0.666748 1.02852 0.666748 2.48558V5.91397V5.95682V12.0851V12.1279V15.5563C0.666748 16.9705 1.82383 17.999 3.23804 17.999H7.09497V0Z" fill="#FF0000"/>
</svg>
