<svg width="26" height="18" viewBox="0 0 26 18" fill="none" xmlns="http://www.w3.org/2000/svg">
<path d="M1.42717 0H24.5681C25.3547 0 25.9953 0.6375 25.9953 1.42031V16.575C25.9953 17.3531 25.3594 17.9906 24.5775 17.9953H1.41775C0.63587 17.9953 0 17.3578 0 16.5797V1.42031C0 0.6375 0.64058 0 1.42717 0Z" fill="#DE2910"/>
<path d="M13.0001 8.99616C9.82541 7.66022 11.2337 3.54929 14.2671 3.75554C13.6548 4.0696 13.5653 4.65554 13.9138 5.19929C14.3048 5.80866 13.8761 6.78366 13.3486 7.02272C12.4772 7.41179 12.303 8.4571 13.0001 8.99616Z" fill="white"/>
<path d="M12.8257 6.02812L12.6467 6.30937L12.5808 5.98594L12.2605 5.90156L12.5525 5.74219L12.5337 5.41406L12.7786 5.63906L13.0895 5.51719L12.9482 5.81719L13.1601 6.07031L12.8257 6.02812ZM13.0188 8.9625C12.6373 8.76563 12.3264 8.35781 12.1899 7.87031C12.0344 7.30781 12.1239 6.70781 12.4348 6.22031L12.3688 6.17813C12.0486 6.68438 11.9543 7.3125 12.1145 7.89375C12.2558 8.40938 12.5714 8.82656 12.9812 9.0375L13.0188 8.9625Z" fill="#DE2910"/>
<path d="M13 9.00031C13.2967 5.58312 17.6583 5.64406 18.3978 8.58312C17.908 8.10031 17.3192 8.19406 16.9094 8.69562C16.4478 9.25344 15.3833 9.15031 14.9924 8.72375C14.3565 8.01594 13.3062 8.17062 13 9.00031Z" fill="white"/>
<path d="M15.7884 7.91758L15.4681 7.8332L15.7601 7.67383L15.7413 7.3457L15.9862 7.5707L16.2971 7.44883L16.1558 7.74883L16.3677 8.00195L16.038 7.96445L15.859 8.24102L15.7884 7.91758ZM13.0424 9.00508C13.113 8.5832 13.405 8.16133 13.8289 7.88477C14.3188 7.56602 14.9217 7.46289 15.4822 7.60352L15.501 7.52852C14.917 7.3832 14.2905 7.48633 13.7866 7.81914C13.3391 8.11445 13.0376 8.54102 12.9623 8.99102L13.0424 9.00508Z" fill="#DE2910"/>
<path d="M13 9.00043C16.3536 8.22231 17.6489 12.3754 15.0678 13.9832C15.3786 13.3692 15.1054 12.8442 14.5025 12.6098C13.8243 12.3473 13.5935 11.3067 13.8855 10.8051C14.3612 9.97543 13.8855 9.03324 13 9.00043Z" fill="white"/>
<path d="M14.8935 11.301L14.8746 10.9729L15.1196 11.1979L15.4304 11.076L15.2891 11.376L15.5011 11.6292L15.1714 11.5917L14.9924 11.8729L14.9264 11.5495L14.6062 11.4651L14.8935 11.301ZM13.0094 9.04166C13.438 8.97604 13.9279 9.12604 14.3236 9.4401C14.7804 9.80104 15.063 10.3401 15.1007 10.9167L15.1808 10.912C15.1384 10.312 14.8464 9.75416 14.3754 9.37916C13.9562 9.04635 13.4522 8.89166 13 8.96198L13.0094 9.04166Z" fill="#DE2910"/>
<path d="M13 9.00391C14.7805 11.9383 11.2102 14.4461 8.87866 12.5008C9.56163 12.6039 9.98084 12.182 10.0138 11.5398C10.0562 10.818 10.9794 10.2789 11.5493 10.3961C12.4866 10.5883 13.245 9.84766 13 9.00391Z" fill="white"/>
<path d="M11.3844 11.5074L11.6952 11.3855L11.5539 11.6855L11.7659 11.9387L11.4362 11.9012L11.2572 12.1777L11.1913 11.8543L10.871 11.7699L11.163 11.6105L11.1442 11.2824L11.3844 11.5074ZM12.9623 9.01836C13.1554 9.40273 13.1648 9.91367 12.9858 10.3871C12.7786 10.9309 12.35 11.3668 11.813 11.5824L11.8413 11.6574C12.4018 11.4324 12.8445 10.9824 13.0565 10.4199C13.2449 9.91836 13.2355 9.39805 13.0282 8.99023L12.9623 9.01836Z" fill="#DE2910"/>
<path d="M12.9953 8.99961C10.7391 11.5918 7.24422 8.99023 8.37936 6.17773C8.4877 6.85742 9.01994 7.11992 9.6511 6.95586C10.3529 6.77305 11.1536 7.48086 11.2196 8.05742C11.3232 9.0043 12.2652 9.4918 12.9953 8.99961Z" fill="white"/>
<path d="M10.108 8.24609L10.3199 8.49922L9.99022 8.46172L9.81123 8.74297L9.74529 8.41953L9.42029 8.33516L9.71232 8.17578L9.69348 7.84766L9.9384 8.07266L10.2493 7.95078L10.108 8.24609ZM12.9717 8.97266C12.6656 9.27734 12.1804 9.44141 11.6717 9.41797C11.0877 9.38984 10.5413 9.12266 10.1692 8.67734L10.108 8.72891C10.4942 9.18828 11.0641 9.46953 11.667 9.49766C12.204 9.52109 12.6985 9.35234 13.0283 9.02891L12.9717 8.97266Z" fill="#DE2910"/>
</svg>
