<svg width="57" height="57" viewBox="0 0 57 57" fill="none" xmlns="http://www.w3.org/2000/svg">
<rect x="4.5" y="4.5" width="48" height="48" rx="24" fill="#D1FADF"/>
<rect x="4.5" y="4.5" width="48" height="48" rx="24" stroke="#ECFDF3" stroke-width="8"/>
<path d="M26.5 38.5H25.5C22.2002 38.5 20.5503 38.5 19.5251 37.4749C18.5 36.4497 18.5 34.7998 18.5 31.5V26.5C18.5 23.2002 18.5 21.5503 19.5251 20.5251C20.5503 19.5 22.2002 19.5 25.5 19.5H28.5C31.7998 19.5 33.4497 19.5 34.4749 20.5251C35.5 21.5503 35.5 23.2002 35.5 26.5V27.5" stroke="#008243" stroke-width="1.5" stroke-linecap="round" stroke-linejoin="round"/>
<path d="M30.8477 38.3557L30.6909 37.6223L30.8477 38.3557ZM29.6443 37.1523L30.3777 37.3091L29.6443 37.1523ZM30.5207 34.6117L29.9903 34.0814L30.5207 34.6117ZM33.3883 37.4793L32.858 36.949L33.3883 37.4793ZM37.2963 31.9773L37.9458 31.6023V31.6023L37.2963 31.9773ZM36.6961 34.1715L37.2265 34.7018L36.6961 34.1715ZM37.2963 33.4981L37.9458 33.8731L37.2963 33.4981ZM36.0227 30.7037L36.3977 30.0542V30.0542L36.0227 30.7037ZM33.8285 31.3039L34.3588 31.8342L33.8285 31.3039ZM34.5019 30.7037L34.1269 30.0542V30.0542L34.5019 30.7037ZM36.1658 33.6412L32.858 36.949L33.9186 38.0097L37.2265 34.7018L36.1658 33.6412ZM31.051 35.142L34.3588 31.8342L33.2982 30.7735L29.9903 34.0814L31.051 35.142ZM30.6909 37.6223C30.5155 37.6598 30.3753 37.6897 30.2548 37.7121C30.1333 37.7347 30.0536 37.7454 29.9996 37.7488C29.9441 37.7524 29.9479 37.7458 29.9825 37.7547C30.0296 37.7669 30.0936 37.7972 30.1482 37.8518L29.0876 38.9124C29.4113 39.2362 29.8158 39.2636 30.0948 39.2458C30.3603 39.2289 30.6839 39.1577 31.0045 39.0891L30.6909 37.6223ZM28.9109 36.9955C28.8423 37.3161 28.7711 37.6397 28.7542 37.9052C28.7364 38.1842 28.7638 38.5887 29.0876 38.9124L30.1482 37.8518C30.2028 37.9064 30.2331 37.9704 30.2453 38.0175C30.2542 38.0521 30.2476 38.0559 30.2512 38.0004C30.2546 37.9464 30.2653 37.8667 30.2879 37.7452C30.3103 37.6247 30.3402 37.4845 30.3777 37.3091L28.9109 36.9955ZM36.1658 31.8342C36.5333 32.2017 36.6084 32.286 36.6467 32.3523L37.9458 31.6023C37.7839 31.3218 37.5257 31.0728 37.2265 30.7735L36.1658 31.8342ZM37.2265 34.7018C37.5257 34.4026 37.7839 34.1535 37.9458 33.8731L36.6467 33.1231C36.6084 33.1894 36.5333 33.2737 36.1658 33.6412L37.2265 34.7018ZM36.6467 32.3523C36.7844 32.5908 36.7844 32.8846 36.6467 33.1231L37.9458 33.8731C38.3514 33.1705 38.3514 32.3049 37.9458 31.6023L36.6467 32.3523ZM37.2265 30.7735C36.9272 30.4743 36.6782 30.2161 36.3977 30.0542L35.6477 31.3533C35.714 31.3916 35.7983 31.4667 36.1658 31.8342L37.2265 30.7735ZM34.3588 31.8342C34.7263 31.4667 34.8106 31.3916 34.8769 31.3533L34.1269 30.0542C33.8465 30.2161 33.5974 30.4743 33.2982 30.7735L34.3588 31.8342ZM36.3977 30.0542C35.6951 29.6486 34.8295 29.6486 34.1269 30.0542L34.8769 31.3533C35.1154 31.2156 35.4092 31.2156 35.6477 31.3533L36.3977 30.0542ZM32.858 36.949C32.6624 37.1445 32.3952 37.271 32.0155 37.3679C31.8253 37.4165 31.6224 37.454 31.3963 37.4931C31.179 37.5306 30.9303 37.5711 30.6909 37.6223L31.0045 39.0891C31.2063 39.046 31.4131 39.0124 31.6517 38.9712C31.8814 38.9315 32.1346 38.8856 32.3866 38.8213C32.8914 38.6924 33.4533 38.475 33.9186 38.0097L32.858 36.949ZM30.3777 37.3091C30.4289 37.0697 30.4694 36.821 30.5069 36.6037C30.546 36.3776 30.5835 36.1747 30.6321 35.9845C30.729 35.6048 30.8555 35.3376 31.051 35.142L29.9903 34.0814C29.525 34.5467 29.3076 35.1086 29.1787 35.6134C29.1144 35.8654 29.0685 36.1186 29.0288 36.3483C28.9876 36.5869 28.954 36.7937 28.9109 36.9955L30.3777 37.3091Z" fill="#008243"/>
<path d="M32 18.5V20.5M27 18.5V20.5M22 18.5V20.5" stroke="#008243" stroke-width="1.5" stroke-linecap="round" stroke-linejoin="round"/>
<path d="M23 31.5H27M23 26.5H31" stroke="#008243" stroke-width="1.5" stroke-linecap="round"/>
</svg>
