<svg width="25" height="24" viewBox="0 0 25 24" fill="none" xmlns="http://www.w3.org/2000/svg">
<path d="M7.5 20.6622L7.87554 20.013L7.60645 19.8573L7.30615 19.9377L7.5 20.6622ZM2.5 22L1.77549 21.8061C1.70625 22.0649 1.78027 22.3409 1.96967 22.5303C2.15907 22.7197 2.4351 22.7937 2.69385 22.7245L2.5 22ZM3.83782 17L4.56234 17.1939L4.64269 16.8935L4.48703 16.6245L3.83782 17ZM21.75 12C21.75 17.1086 17.6086 21.25 12.5 21.25V22.75C18.4371 22.75 23.25 17.9371 23.25 12H21.75ZM3.25 12C3.25 6.89137 7.39137 2.75 12.5 2.75V1.25C6.56294 1.25 1.75 6.06294 1.75 12H3.25ZM12.5 2.75C17.6086 2.75 21.75 6.89137 21.75 12H23.25C23.25 6.06294 18.4371 1.25 12.5 1.25V2.75ZM12.5 21.25C10.8139 21.25 9.23533 20.7996 7.87554 20.013L7.12446 21.3114C8.7064 22.2265 10.5432 22.75 12.5 22.75V21.25ZM7.30615 19.9377L2.30615 21.2755L2.69385 22.7245L7.69385 21.3867L7.30615 19.9377ZM4.48703 16.6245C3.70043 15.2647 3.25 13.6861 3.25 12H1.75C1.75 13.9568 2.27351 15.7936 3.18862 17.3755L4.48703 16.6245ZM3.22451 22.1939L4.56234 17.1939L3.11331 16.8061L1.77549 21.8061L3.22451 22.1939Z" fill="#475467"/>
<path d="M7.5 7V6.25C7.30109 6.25 7.11032 6.32902 6.96967 6.46967C6.82902 6.61032 6.75 6.80109 6.75 7H7.5ZM11.0001 10.5L11.5256 11.0351L11.7962 10.7694L11.7426 10.3939L11.0001 10.5ZM10.5001 7L11.2426 6.89393C11.1898 6.52445 10.8734 6.25 10.5001 6.25V7ZM17.5001 17V17.75C17.699 17.75 17.8898 17.671 18.0305 17.5303C18.1711 17.3897 18.2501 17.1989 18.2501 17H17.5001ZM14 13.5L14.1227 12.7601L13.738 12.6963L13.4648 12.9745L14 13.5ZM17.5001 14.0805H18.2501C18.2501 13.7137 17.9847 13.4007 17.6228 13.3406L17.5001 14.0805ZM10.9499 13.5502C9.60122 12.2015 8.25 9.76868 8.25 7H6.75C6.75 10.2313 8.30866 13.0302 9.88928 14.6108L10.9499 13.5502ZM10.4746 9.96486L8.5628 11.8422L9.61376 12.9125L11.5256 11.0351L10.4746 9.96486ZM9.75766 7.10607L10.2577 10.6061L11.7426 10.3939L11.2426 6.89393L9.75766 7.10607ZM9.88928 14.6108C11.4699 16.1915 14.2688 17.75 17.5001 17.75V16.25C14.7314 16.25 12.2986 14.8989 10.9499 13.5502L9.88928 14.6108ZM13.4648 12.9745L11.5876 14.8864L12.6579 15.9373L14.5352 14.0255L13.4648 12.9745ZM17.6228 13.3406L14.1227 12.7601L13.8773 14.2399L17.3774 14.8204L17.6228 13.3406ZM16.7501 14.0805V17H18.2501V14.0805H16.7501ZM10.5001 6.25H7.5V7.75H10.5001V6.25Z" fill="#475467"/>
</svg>
