<svg width="965" height="397" viewBox="0 0 965 397" fill="none" xmlns="http://www.w3.org/2000/svg">
<rect width="965" height="397" rx="8" fill="#F9FAFB"/>
<rect x="439.01" y="374.94" width="7.99" height="7.99" rx="3.995" fill="white" fill-opacity="0.3"/>
<rect x="457" y="374.94" width="7.99" height="7.99" rx="3.995" fill="white" fill-opacity="0.3"/>
<rect x="474.99" y="374.94" width="16" height="7.99" rx="3.995" fill="white"/>
<rect x="500.99" y="374.94" width="7.99" height="7.99" rx="3.995" fill="white" fill-opacity="0.3"/>
<rect x="518.98" y="374.94" width="7.99" height="7.99" rx="3.995" fill="white" fill-opacity="0.3"/>
<circle cx="391" cy="139" r="5" fill="#E4E7EC"/>
<circle cx="381" cy="226" r="9" fill="#E4E7EC"/>
<circle cx="577" cy="132" r="6" fill="#E4E7EC"/>
<circle cx="482" cy="184" r="80" fill="#E4E7EC"/>
<g filter="url(#filter0_dd_4733_39335)">
<rect x="399" y="126" width="166" height="104" rx="6" fill="url(#paint0_linear_4733_39335)"/>
</g>
<circle cx="581" cy="108" r="4" fill="#E4E7EC"/>
<g opacity="0.24" clip-path="url(#clip0_4733_39335)">
<mask id="mask0_4733_39335" style="mask-type:luminance" maskUnits="userSpaceOnUse" x="473" y="134" width="90" height="90">
<path d="M473 134H563V224H473V134Z" fill="white"/>
</mask>
<g mask="url(#mask0_4733_39335)">
<path d="M478.625 172.475L489.65 148.85L500.675 172.475H478.625Z" fill="#9A9FB8"/>
<path d="M489.65 148.85H518L500.675 172.475L489.65 148.85Z" fill="#C6CCE0"/>
<path d="M557.375 172.475L546.35 148.85L535.325 172.475H557.375Z" fill="#9A9FB8"/>
<path d="M546.35 148.85H518L535.325 172.475L546.35 148.85ZM500.675 172.475L518 210.163L478.625 172.475H500.675Z" fill="#C6CCE0"/>
<path d="M535.325 172.475L518 210.163L557.375 172.475H535.325Z" fill="#787B94"/>
<path d="M500.675 172.475H535.325L518 148.85L500.675 172.475Z" fill="#ECF0FA"/>
<path d="M500.675 172.475L518 210.163L535.325 172.475H500.675Z" fill="#9A9FB8"/>
</g>
</g>
<g opacity="0.15" clip-path="url(#clip1_4733_39335)">
<mask id="mask1_4733_39335" style="mask-type:luminance" maskUnits="userSpaceOnUse" x="429" y="141" width="14" height="14">
<path d="M429 141H443V155H429V141Z" fill="white"/>
</mask>
<g mask="url(#mask1_4733_39335)">
<path d="M429.875 146.985L431.59 143.31L433.305 146.985H429.875Z" fill="#9A9FB8"/>
<path d="M431.59 143.31H436L433.305 146.985L431.59 143.31Z" fill="#C6CCE0"/>
<path d="M442.125 146.985L440.41 143.31L438.695 146.985H442.125Z" fill="#9A9FB8"/>
<path d="M440.41 143.31H436L438.695 146.985L440.41 143.31ZM433.305 146.985L436 152.848L429.875 146.985H433.305Z" fill="#C6CCE0"/>
<path d="M438.695 146.985L436 152.847L442.125 146.985H438.695Z" fill="#787B94"/>
<path d="M433.305 146.985H438.695L436 143.31L433.305 146.985Z" fill="#ECF0FA"/>
<path d="M433.305 146.985L436 152.847L438.695 146.985H433.305Z" fill="#9A9FB8"/>
</g>
</g>
<g opacity="0.18" clip-path="url(#clip2_4733_39335)">
<mask id="mask2_4733_39335" style="mask-type:luminance" maskUnits="userSpaceOnUse" x="403" y="189" width="34" height="34">
<path d="M403 189H437V223H403V189Z" fill="white"/>
</mask>
<g mask="url(#mask2_4733_39335)">
<path d="M405.125 203.535L409.29 194.61L413.455 203.535H405.125Z" fill="#9A9FB8"/>
<path d="M409.29 194.61H420L413.455 203.535L409.29 194.61Z" fill="#C6CCE0"/>
<path d="M434.875 203.535L430.71 194.61L426.545 203.535H434.875Z" fill="#9A9FB8"/>
<path d="M430.71 194.61H420L426.545 203.535L430.71 194.61ZM413.455 203.535L420 217.772L405.125 203.535H413.455Z" fill="#C6CCE0"/>
<path d="M426.545 203.535L420 217.772L434.875 203.535H426.545Z" fill="#787B94"/>
<path d="M413.455 203.535H426.545L420 194.61L413.455 203.535Z" fill="#ECF0FA"/>
<path d="M413.455 203.535L420 217.772L426.545 203.535H413.455Z" fill="#9A9FB8"/>
</g>
</g>
<defs>
<filter id="filter0_dd_4733_39335" x="379" y="126" width="206" height="144" filterUnits="userSpaceOnUse" color-interpolation-filters="sRGB">
<feFlood flood-opacity="0" result="BackgroundImageFix"/>
<feColorMatrix in="SourceAlpha" type="matrix" values="0 0 0 0 0 0 0 0 0 0 0 0 0 0 0 0 0 0 127 0" result="hardAlpha"/>
<feMorphology radius="4" operator="erode" in="SourceAlpha" result="effect1_dropShadow_4733_39335"/>
<feOffset dy="8"/>
<feGaussianBlur stdDeviation="4"/>
<feColorMatrix type="matrix" values="0 0 0 0 0.0627451 0 0 0 0 0.0941176 0 0 0 0 0.156863 0 0 0 0.03 0"/>
<feBlend mode="normal" in2="BackgroundImageFix" result="effect1_dropShadow_4733_39335"/>
<feColorMatrix in="SourceAlpha" type="matrix" values="0 0 0 0 0 0 0 0 0 0 0 0 0 0 0 0 0 0 127 0" result="hardAlpha"/>
<feMorphology radius="4" operator="erode" in="SourceAlpha" result="effect2_dropShadow_4733_39335"/>
<feOffset dy="20"/>
<feGaussianBlur stdDeviation="12"/>
<feColorMatrix type="matrix" values="0 0 0 0 0.0627451 0 0 0 0 0.0941176 0 0 0 0 0.156863 0 0 0 0.08 0"/>
<feBlend mode="normal" in2="effect1_dropShadow_4733_39335" result="effect2_dropShadow_4733_39335"/>
<feBlend mode="normal" in="SourceGraphic" in2="effect2_dropShadow_4733_39335" result="shape"/>
</filter>
<linearGradient id="paint0_linear_4733_39335" x1="404.781" y1="228.769" x2="401.758" y2="133.584" gradientUnits="userSpaceOnUse">
<stop stop-color="#EDF0F6"/>
<stop offset="1" stop-color="#FCFDFF"/>
</linearGradient>
<clipPath id="clip0_4733_39335">
<rect width="90" height="90" fill="white" transform="translate(473 134)"/>
</clipPath>
<clipPath id="clip1_4733_39335">
<rect width="14" height="14" fill="white" transform="translate(429 141)"/>
</clipPath>
<clipPath id="clip2_4733_39335">
<rect width="34" height="34" fill="white" transform="translate(403 189)"/>
</clipPath>
</defs>
</svg>
