<svg width="25" height="30" viewBox="0 0 25 30" fill="none" xmlns="http://www.w3.org/2000/svg">
<path d="M23.7938 14.269C23.5192 13.9944 23.0742 13.9944 22.7996 14.269L21.3933 15.6753C21.1187 15.9499 21.1187 16.3949 21.3933 16.6695C21.668 16.9442 22.1129 16.9442 22.3876 16.6695L23.7938 15.2633C24.0685 14.9886 24.0685 14.5437 23.7938 14.269ZM12.4501 14.269C12.1754 13.9944 11.7305 13.9944 11.4558 14.269C11.1812 14.5437 11.1812 14.9887 11.4558 15.2633L12.8621 16.6695C13.1367 16.9442 13.5817 16.9442 13.8563 16.6695C14.131 16.3949 14.131 15.9499 13.8563 15.6753L12.4501 14.269ZM15.9345 1.67456L12.2778 2.87695L10.0273 5.48559L11.5507 7.8443L11.9949 10.3238L13.8413 11.391L15.3687 13.7558L19.0182 12.558L21.2615 9.95381L15.9345 1.67456Z" fill="url(#paint0_linear_7403_111081)"/>
<path d="M14.7628 14.1475C14.4374 14.3583 14.344 14.7936 14.5541 15.1198C14.7642 15.4445 15.1989 15.5399 15.5264 15.3285L22.629 10.7445C22.9545 10.5337 23.0479 10.0983 22.8378 9.77217C22.6263 9.44466 22.1882 9.3547 21.8655 9.56344L15.3687 13.7558L14.7628 14.1475ZM11.5508 7.8443L0.321355 15.0896C-0.00409803 15.2997 -0.0975199 15.7343 0.111261 16.0605L1.63011 18.4232C1.84212 18.7499 2.27642 18.8442 2.60239 18.634L13.8415 11.391L11.5508 7.8443ZM9.43723 5.86514L15.9347 1.67456L16.5248 1.29553C16.8517 1.08544 16.9464 0.650065 16.7363 0.323909C16.5248 -0.00431019 16.0895 -0.0976851 15.764 0.111752C15.6249 0.201518 8.78806 4.61086 8.6764 4.68281C8.34964 4.89296 8.2549 5.32753 8.465 5.65439C8.67401 5.97858 9.10671 6.07655 9.43723 5.86514ZM8.6764 4.68281C8.67387 4.68446 8.67439 4.68413 8.6764 4.68281V4.68281Z" fill="url(#paint1_linear_7403_111081)"/>
<path d="M11.875 21.93L13.59 18.3337L15.305 21.93H11.875Z" fill="#AEB5B5"/>
<path d="M13.5898 18.3337H17.9998L15.3048 21.93L13.5898 18.3337Z" fill="#D6DADA"/>
<path d="M24.1248 21.93L22.4098 18.3337L20.6948 21.93H24.1248Z" fill="#AEB5B5"/>
<path d="M22.41 18.3337H18L20.695 21.93L22.41 18.3337ZM15.305 21.93L18 27.6665L11.875 21.93H15.305Z" fill="#D6DADA"/>
<path d="M20.695 21.93L18 27.6665L24.125 21.93H20.695Z" fill="#7C8988"/>
<path d="M15.3057 21.93H20.6957L18.0007 18.3337L15.3057 21.93Z" fill="#FCFCFC"/>
<path d="M15.3057 21.93L18.0007 27.6665L20.6957 21.93H15.3057Z" fill="#AEB5B5"/>
<defs>
<linearGradient id="paint0_linear_7403_111081" x1="17.3332" y1="19.9201" x2="17.3332" y2="1.67458" gradientUnits="userSpaceOnUse">
<stop stop-color="#344444" stop-opacity="0.76"/>
<stop offset="1" stop-color="#A5B3B3" stop-opacity="0.17"/>
</linearGradient>
<linearGradient id="paint1_linear_7403_111081" x1="12" y1="22.5005" x2="12" y2="0.000143528" gradientUnits="userSpaceOnUse">
<stop stop-color="#7C8988"/>
<stop offset="1" stop-color="#D8DEDE"/>
</linearGradient>
</defs>
</svg>
