<svg width="34" height="34" viewBox="0 0 34 34" fill="none" xmlns="http://www.w3.org/2000/svg">
<circle cx="17" cy="17" r="17" fill="#F9FAFB"/>
<path d="M17 17.625C18.3807 17.625 19.5 16.5057 19.5 15.125C19.5 13.7443 18.3807 12.625 17 12.625C15.6193 12.625 14.5 13.7443 14.5 15.125C14.5 16.5057 15.6193 17.625 17 17.625Z" stroke="#475467" stroke-width="1.5" stroke-linecap="round" stroke-linejoin="round"/>
<path d="M23.25 15.125C23.25 20.75 17 25.125 17 25.125C17 25.125 10.75 20.75 10.75 15.125C10.75 13.4674 11.4085 11.8777 12.5806 10.7056C13.7527 9.53348 15.3424 8.875 17 8.875C18.6576 8.875 20.2473 9.53348 21.4194 10.7056C22.5915 11.8777 23.25 13.4674 23.25 15.125V15.125Z" stroke="#475467" stroke-width="1.5" stroke-linecap="round" stroke-linejoin="round"/>
</svg>
