<svg width="1356" height="217" viewBox="0 0 1356 217" fill="none" xmlns="http://www.w3.org/2000/svg">
<g opacity="0.2" clip-path="url(#clip0_2332_99809)">
<path d="M-185.13 273.374L-48.6949 409.809L-185.13 546.244M-230.608 273.374L-94.1733 409.809L-230.608 546.244M-276.087 273.374L-139.652 409.809L-276.087 546.244M-321.565 273.374L-185.13 409.809L-321.565 546.244M-367.043 273.374L-230.608 409.809L-367.043 546.244M-412.522 273.374L-276.087 409.809L-412.522 546.244M-458 273.374L-321.565 409.809L-458 546.244M-48.4578 273.374L87.9772 409.809L-48.4578 546.244M-93.9361 273.374L42.4989 409.809L-93.9362 546.244M-139.414 273.374L-2.97946 409.809L-139.414 546.244M-184.893 273.374L-48.4578 409.809L-184.893 546.244M-230.371 273.374L-93.9361 409.809L-230.371 546.244M-275.849 273.374L-139.414 409.809L-275.849 546.244M-321.328 273.374L-184.893 409.809L-321.328 546.244M88.2134 273.374L224.648 409.809L88.2134 546.244M42.7351 273.374L179.17 409.809L42.735 546.244M-2.74325 273.374L133.692 409.809L-2.74328 546.244M-48.2216 273.374L88.2134 409.809L-48.2216 546.244M-93.6999 273.374L42.7351 409.809L-93.6999 546.244M-139.178 273.374L-2.74324 409.809L-139.178 546.244M-184.657 273.374L-48.2216 409.809L-184.657 546.244M224.885 273.374L361.32 409.809L224.885 546.244M179.407 273.374L315.842 409.809L179.407 546.244M133.929 273.374L270.364 409.809L133.929 546.244M88.4504 273.374L224.885 409.809L88.4503 546.244M42.972 273.374L179.407 409.809L42.972 546.244M-2.50635 273.374L133.929 409.809L-2.50639 546.244M-47.9847 273.374L88.4503 409.809L-47.9847 546.244M361.557 273.374L497.992 409.809L361.557 546.244M316.078 273.374L452.513 409.809L316.078 546.244M270.6 273.374L407.035 409.809L270.6 546.244M225.122 273.374L361.557 409.809L225.122 546.244M179.643 273.374L316.078 409.809L179.643 546.244M134.165 273.374L270.6 409.809L134.165 546.244M88.6865 273.374L225.122 409.809L88.6865 546.244M498.228 273.374L634.663 409.809L498.228 546.244M452.75 273.374L589.185 409.809L452.75 546.244M407.272 273.374L543.707 409.809L407.272 546.244M361.793 273.374L498.229 409.809L361.793 546.244M316.315 273.374L452.75 409.809L316.315 546.244M270.837 273.374L407.272 409.809L270.837 546.244M225.358 273.374L361.793 409.809L225.358 546.244M634.9 273.374L771.335 409.809L634.9 546.244M589.421 273.374L725.856 409.809L589.421 546.244M543.943 273.374L680.378 409.809L543.943 546.244M498.465 273.374L634.9 409.809L498.465 546.244M452.986 273.374L589.421 409.809L452.986 546.244M407.508 273.374L543.943 409.809L407.508 546.244M362.03 273.374L498.465 409.809L362.03 546.244M771.572 273.374L908.007 409.809L771.572 546.244M726.094 273.374L862.529 409.809L726.094 546.244M680.615 273.374L817.05 409.809L680.615 546.244M635.137 273.374L771.572 409.809L635.137 546.244M589.659 273.374L726.094 409.809L589.658 546.244M544.18 273.374L680.615 409.809L544.18 546.244M498.702 273.374L635.137 409.809L498.702 546.244M908.244 273.374L1044.68 409.809L908.244 546.244M862.765 273.374L999.2 409.809L862.765 546.244M817.287 273.374L953.722 409.809L817.287 546.244M771.809 273.374L908.244 409.809L771.809 546.244M726.33 273.374L862.765 409.809L726.33 546.244M680.852 273.374L817.287 409.809L680.852 546.244M635.374 273.374L771.809 409.809L635.374 546.244M1044.92 273.374L1181.35 409.809L1044.91 546.244M999.437 273.374L1135.87 409.809L999.437 546.244M953.958 273.374L1090.39 409.809L953.958 546.244M908.48 273.374L1044.92 409.809L908.48 546.244M863.002 273.374L999.437 409.809L863.002 546.244M817.523 273.374L953.958 409.809L817.523 546.244M772.045 273.374L908.48 409.809L772.045 546.244M1181.59 273.374L1318.02 409.809L1181.59 546.244M1136.11 273.374L1272.54 409.809L1136.11 546.244M1090.63 273.374L1227.07 409.809L1090.63 546.244M1045.15 273.374L1181.59 409.809L1045.15 546.244M999.674 273.374L1136.11 409.809L999.674 546.244M954.195 273.374L1090.63 409.809L954.195 546.244M908.717 273.374L1045.15 409.809L908.717 546.244M1318.26 273.374L1454.69 409.809L1318.26 546.244M1272.78 273.374L1409.21 409.809L1272.78 546.244M1227.3 273.374L1363.74 409.809L1227.3 546.244M1181.82 273.374L1318.26 409.809L1181.82 546.244M1136.34 273.374L1272.78 409.809L1136.34 546.244M1090.87 273.374L1227.3 409.809L1090.87 546.244M1045.39 273.374L1181.82 409.809L1045.39 546.244M1454.93 273.374L1591.37 409.809L1454.93 546.244M1409.45 273.374L1545.89 409.809L1409.45 546.244M1363.97 273.374L1500.41 409.809L1363.97 546.244M1318.5 273.374L1454.93 409.809L1318.5 546.244M1273.02 273.374L1409.45 409.809L1273.02 546.244M1227.54 273.374L1363.97 409.809L1227.54 546.244M1182.06 273.374L1318.5 409.809L1182.06 546.244M-185.129 -48.2109L-48.6945 88.2241L-185.129 224.659M-230.608 -48.2109L-94.1728 88.2241L-230.608 224.659M-276.086 -48.2109L-139.651 88.2241L-276.086 224.659M-321.564 -48.2109L-185.129 88.2241L-321.564 224.659M-367.043 -48.2109L-230.608 88.2241L-367.043 224.659M-412.521 -48.2109L-276.086 88.2241L-412.521 224.659M-457.999 -48.2109L-321.564 88.2241L-458 224.659M-48.4575 -48.2109L87.9775 88.2241L-48.4576 224.659M-93.9359 -48.2109L42.4991 88.2241L-93.9359 224.659M-139.414 -48.2109L-2.9792 88.2241L-139.414 224.659M-184.893 -48.2109L-48.4575 88.2241L-184.893 224.659M-230.371 -48.2109L-93.9359 88.2241L-230.371 224.659M-275.849 -48.2109L-139.414 88.2241L-275.849 224.659M-321.328 -48.2109L-184.893 88.2241L-321.328 224.659M88.2137 -48.2109L224.649 88.2241L88.2137 224.659M42.7353 -48.2109L179.17 88.2241L42.7353 224.659M-2.74304 -48.2109L133.692 88.2241L-2.74302 224.659M-48.2214 -48.2109L88.2137 88.2241L-48.2213 224.659M-93.6997 -48.2109L42.7353 88.2241L-93.6997 224.659M-139.178 -48.2109L-2.74299 88.2241L-139.178 224.659M-184.656 -48.2109L-48.2213 88.2241L-184.656 224.659M224.886 -48.2109L361.321 88.2241L224.886 224.659M179.407 -48.2109L315.842 88.2241L179.407 224.659M133.929 -48.2109L270.364 88.2241L133.929 224.659M88.4505 -48.2109L224.886 88.2241L88.4505 224.659M42.9722 -48.2109L179.407 88.2241L42.9722 224.659M-2.50614 -48.2109L133.929 88.2241L-2.50617 224.659M-47.9845 -48.2109L88.4505 88.2241L-47.9845 224.659M361.557 -48.2109L497.992 88.2241L361.557 224.659M316.079 -48.2109L452.514 88.2241L316.079 224.659M270.6 -48.2109L407.035 88.2241L270.6 224.659M225.122 -48.2109L361.557 88.2241L225.122 224.659M179.644 -48.2109L316.079 88.2241L179.644 224.659M134.165 -48.2109L270.6 88.2241L134.165 224.659M88.687 -48.2109L225.122 88.2241L88.687 224.659M498.229 -48.2109L634.664 88.2241L498.229 224.659M452.751 -48.2109L589.186 88.2241L452.751 224.659M407.272 -48.2109L543.707 88.2241L407.272 224.659M361.794 -48.2109L498.229 88.2241L361.794 224.659M316.316 -48.2109L452.751 88.2241L316.316 224.659M270.837 -48.2109L407.272 88.2241L270.837 224.659M225.359 -48.2109L361.794 88.2241L225.359 224.659M634.9 -48.2109L771.335 88.2241L634.9 224.659M589.422 -48.2109L725.857 88.2241L589.422 224.659M543.944 -48.2109L680.379 88.2241L543.943 224.659M498.465 -48.2109L634.9 88.2241L498.465 224.659M452.987 -48.2109L589.422 88.2241L452.987 224.659M407.509 -48.2109L543.944 88.2241L407.509 224.659M362.03 -48.2109L498.465 88.2241L362.03 224.659M771.572 -48.2109L908.007 88.2241L771.572 224.659M726.094 -48.2109L862.529 88.2241L726.094 224.659M680.615 -48.2109L817.05 88.2241L680.615 224.659M635.137 -48.2109L771.572 88.2241L635.137 224.659M589.659 -48.2109L726.094 88.2241L589.659 224.659M544.18 -48.2109L680.615 88.2241L544.18 224.659M498.702 -48.2109L635.137 88.2241L498.702 224.659M908.244 -48.211L1044.68 88.2241L908.244 224.659M862.766 -48.211L999.201 88.2241L862.766 224.659M817.287 -48.2109L953.722 88.2241L817.287 224.659M771.809 -48.2109L908.244 88.2241L771.809 224.659M726.331 -48.2109L862.766 88.2241L726.331 224.659M680.852 -48.2109L817.287 88.2241L680.852 224.659M635.374 -48.2109L771.809 88.2241L635.374 224.659M1044.92 -48.211L1181.35 88.2241L1044.92 224.659M999.437 -48.211L1135.87 88.2241L999.437 224.659M953.959 -48.2109L1090.39 88.2241L953.959 224.659M908.48 -48.211L1044.92 88.2241L908.48 224.659M863.002 -48.211L999.437 88.2241L863.002 224.659M817.524 -48.2109L953.959 88.2241L817.524 224.659M772.045 -48.2109L908.48 88.2241L772.045 224.659M1181.59 -48.211L1318.02 88.2241L1181.59 224.659M1136.11 -48.211L1272.54 88.2241L1136.11 224.659M1090.63 -48.2109L1227.07 88.2241L1090.63 224.659M1045.15 -48.211L1181.59 88.2241L1045.15 224.659M999.674 -48.211L1136.11 88.2241L999.674 224.659M954.196 -48.2109L1090.63 88.2241L954.196 224.659M908.717 -48.211L1045.15 88.2241L908.717 224.659M1318.26 -48.211L1454.69 88.2241L1318.26 224.659M1272.78 -48.211L1409.22 88.2241L1272.78 224.659M1227.3 -48.2109L1363.74 88.2241L1227.3 224.659M1181.82 -48.211L1318.26 88.2241L1181.82 224.659M1136.35 -48.211L1272.78 88.2241L1136.35 224.659M1090.87 -48.2109L1227.3 88.2241L1090.87 224.659M1045.39 -48.211L1181.82 88.2241L1045.39 224.659M1454.93 -48.211L1591.37 88.2241L1454.93 224.659M1409.45 -48.211L1545.89 88.2241L1409.45 224.659M1363.97 -48.2109L1500.41 88.2241L1363.97 224.659M1318.5 -48.211L1454.93 88.2241L1318.5 224.659M1273.02 -48.211L1409.45 88.2241L1273.02 224.659M1227.54 -48.2109L1363.97 88.2241L1227.54 224.659M1182.06 -48.211L1318.5 88.2241L1182.06 224.659M1385.6 112.585L1249.17 249.02L1385.6 385.455M1431.08 112.585L1294.65 249.02L1431.08 385.455M1476.56 112.585L1340.12 249.02L1476.56 385.455M1522.04 112.585L1385.6 249.02L1522.04 385.455M1567.52 112.585L1431.08 249.02L1567.52 385.455M1612.99 112.585L1476.56 249.02L1612.99 385.455M1658.47 112.585L1522.04 249.02L1658.47 385.455M1248.93 112.585L1112.5 249.02L1248.93 385.455M1294.41 112.585L1157.97 249.02L1294.41 385.455M1339.89 112.585L1203.45 249.02L1339.89 385.455M1385.36 112.585L1248.93 249.02L1385.37 385.455M1430.84 112.585L1294.41 249.02L1430.84 385.455M1476.32 112.585L1339.89 249.02L1476.32 385.455M1521.8 112.585L1385.37 249.02L1521.8 385.455M1112.26 112.585L975.824 249.02L1112.26 385.455M1157.74 112.585L1021.3 249.02L1157.74 385.455M1203.22 112.585L1066.78 249.02L1203.22 385.455M1248.69 112.585L1112.26 249.02L1248.69 385.455M1294.17 112.585L1157.74 249.02L1294.17 385.455M1339.65 112.585L1203.22 249.02L1339.65 385.455M1385.13 112.585L1248.69 249.02L1385.13 385.455M975.587 112.585L839.152 249.02L975.587 385.455M1021.07 112.585L884.63 249.02L1021.07 385.455M1066.54 112.585L930.108 249.02L1066.54 385.455M1112.02 112.585L975.587 249.02L1112.02 385.455M1157.5 112.585L1021.07 249.02L1157.5 385.455M1202.98 112.585L1066.54 249.02L1202.98 385.455M1248.46 112.585L1112.02 249.02L1248.46 385.455M838.915 112.585L702.481 249.02L838.916 385.455M884.394 112.585L747.959 249.02L884.394 385.455M929.872 112.585L793.437 249.02L929.872 385.455M975.35 112.585L838.915 249.02L975.35 385.455M1020.83 112.585L884.394 249.02L1020.83 385.455M1066.31 112.585L929.872 249.02L1066.31 385.455M1111.79 112.585L975.35 249.02L1111.79 385.455M702.244 112.585L565.809 249.02L702.244 385.455M747.722 112.585L611.287 249.02L747.722 385.455M793.2 112.585L656.765 249.02L793.2 385.455M838.678 112.585L702.244 249.02L838.679 385.455M884.157 112.585L747.722 249.02L884.157 385.455M929.635 112.585L793.2 249.02L929.635 385.455M975.114 112.585L838.679 249.02L975.114 385.455M565.572 112.585L429.137 249.02L565.572 385.455M611.051 112.585L474.616 249.02L611.051 385.455M656.529 112.585L520.094 249.02L656.529 385.455M702.007 112.585L565.572 249.02L702.007 385.455M747.486 112.585L611.051 249.02L747.486 385.455M792.964 112.585L656.529 249.02L792.964 385.455M838.442 112.585L702.007 249.02L838.442 385.455M428.9 112.585L292.465 249.02L428.9 385.455M474.379 112.585L337.944 249.02L474.379 385.455M519.857 112.585L383.422 249.02L519.857 385.455M565.335 112.585L428.9 249.02L565.335 385.455M610.814 112.585L474.379 249.02L610.814 385.455M656.292 112.585L519.857 249.02L656.292 385.455M701.77 112.585L565.335 249.02L701.77 385.455M292.228 112.585L155.793 249.02L292.228 385.455M337.707 112.585L201.272 249.02L337.707 385.455M383.185 112.585L246.75 249.02L383.185 385.455M428.663 112.585L292.228 249.02L428.663 385.455M474.142 112.585L337.707 249.02L474.142 385.455M519.62 112.585L383.185 249.02L519.62 385.455M565.098 112.585L428.663 249.02L565.098 385.455M155.557 112.585L19.122 249.02L155.557 385.455M201.035 112.585L64.6004 249.02L201.035 385.455M246.514 112.585L110.079 249.02L246.514 385.455M291.992 112.585L155.557 249.02L291.992 385.455M337.47 112.585L201.035 249.02L337.47 385.455M382.949 112.585L246.514 249.02L382.949 385.455M428.427 112.585L291.992 249.02L428.427 385.455M18.8853 112.585L-117.55 249.02L18.8853 385.455M64.3637 112.585L-72.0713 249.02L64.3637 385.455M109.842 112.585L-26.593 249.02L109.842 385.455M155.32 112.585L18.8853 249.02L155.32 385.455M200.799 112.585L64.3636 249.02L200.799 385.455M246.277 112.585L109.842 249.02L246.277 385.455M291.755 112.585L155.32 249.02L291.755 385.455M-117.786 112.585L-254.221 249.02L-117.786 385.455M-72.3078 112.585L-208.743 249.02L-72.3078 385.455M-26.8295 112.585L-163.264 249.02L-26.8294 385.455M18.6489 112.585L-117.786 249.02L18.6489 385.455M64.1272 112.585L-72.3078 249.02L64.1272 385.455M109.606 112.585L-26.8295 249.02L109.606 385.455M155.084 112.585L18.6489 249.02L155.084 385.455M-254.458 112.585L-390.893 249.02L-254.458 385.455M-208.98 112.585L-345.415 249.02L-208.98 385.455M-163.501 112.585L-299.936 249.02L-163.501 385.455M-118.023 112.585L-254.458 249.02L-118.023 385.455M-72.5446 112.585L-208.98 249.02L-72.5446 385.455M-27.0663 112.585L-163.501 249.02L-27.0662 385.455M18.4121 112.585L-118.023 249.02L18.4121 385.455M1385.6 -209L1249.17 -72.5651L1385.6 63.8699M1431.08 -209L1294.65 -72.5651L1431.08 63.8699M1476.56 -209L1340.12 -72.5651L1476.56 63.8699M1522.04 -209L1385.6 -72.5651L1522.04 63.8699M1567.52 -209L1431.08 -72.5651L1567.52 63.8699M1612.99 -209L1476.56 -72.5651L1612.99 63.8699M1658.47 -209L1522.04 -72.5651L1658.47 63.8699M1248.93 -209L1112.5 -72.5651L1248.93 63.8699M1294.41 -209L1157.97 -72.5651L1294.41 63.8699M1339.89 -209L1203.45 -72.5651L1339.89 63.8699M1385.37 -209L1248.93 -72.5651L1385.37 63.8699M1430.84 -209L1294.41 -72.5651L1430.84 63.8699M1476.32 -209L1339.89 -72.5651L1476.32 63.8699M1521.8 -209L1385.37 -72.5651L1521.8 63.8699M1112.26 -209L975.824 -72.5651L1112.26 63.8699M1157.74 -209L1021.3 -72.5651L1157.74 63.8699M1203.22 -209L1066.78 -72.5651L1203.22 63.8699M1248.69 -209L1112.26 -72.5651L1248.69 63.8699M1294.17 -209L1157.74 -72.5651L1294.17 63.8699M1339.65 -209L1203.22 -72.5651L1339.65 63.8699M1385.13 -209L1248.69 -72.5651L1385.13 63.8699M975.588 -209L839.153 -72.5651L975.588 63.8699M1021.07 -209L884.631 -72.5651L1021.07 63.8699M1066.54 -209L930.109 -72.5651L1066.54 63.8699M1112.02 -209L975.588 -72.5651L1112.02 63.8699M1157.5 -209L1021.07 -72.5651L1157.5 63.8699M1202.98 -209L1066.54 -72.5651L1202.98 63.8699M1248.46 -209L1112.02 -72.5651L1248.46 63.8699M838.916 -209L702.481 -72.5651L838.916 63.8699M884.394 -209L747.959 -72.5651L884.394 63.8699M929.873 -209L793.438 -72.5651L929.873 63.8699M975.351 -209L838.916 -72.5651L975.351 63.8699M1020.83 -209L884.394 -72.5651L1020.83 63.8699M1066.31 -209L929.873 -72.5651L1066.31 63.8699M1111.79 -209L975.351 -72.5651L1111.79 63.8699M702.244 -209L565.809 -72.5651L702.244 63.8699M747.722 -209L611.288 -72.5651L747.723 63.8699M793.201 -209L656.766 -72.5651L793.201 63.8699M838.679 -209L702.244 -72.5651L838.679 63.8699M884.158 -209L747.722 -72.5651L884.158 63.8699M929.636 -209L793.201 -72.5651L929.636 63.8699M975.114 -209L838.679 -72.5651L975.114 63.8699M565.573 -209L429.138 -72.565L565.573 63.8699M611.051 -209L474.616 -72.565L611.051 63.8699M656.53 -209L520.095 -72.5651L656.53 63.8699M702.008 -209L565.573 -72.5651L702.008 63.8699M747.486 -209L611.051 -72.5651L747.486 63.8699M792.965 -209L656.53 -72.5651L792.965 63.8699M838.443 -209L702.008 -72.5651L838.443 63.8699M428.901 -209L292.466 -72.565L428.901 63.8699M474.379 -209L337.944 -72.565L474.379 63.8699M519.858 -209L383.423 -72.565L519.858 63.8699M565.336 -209L428.901 -72.565L565.336 63.8699M610.814 -209L474.379 -72.565L610.814 63.8699M656.293 -209L519.858 -72.5651L656.293 63.8699M701.771 -209L565.336 -72.5651L701.771 63.8699M292.229 -209L155.794 -72.565L292.229 63.87M337.707 -209L201.273 -72.565L337.708 63.8699M383.186 -209L246.751 -72.565L383.186 63.8699M428.664 -209L292.229 -72.565L428.664 63.8699M474.143 -209L337.707 -72.565L474.143 63.8699M519.621 -209L383.186 -72.565L519.621 63.8699M565.099 -209L428.664 -72.565L565.099 63.8699M155.558 -209L19.1229 -72.565L155.558 63.87M201.036 -209L64.6013 -72.565L201.036 63.87M246.515 -209L110.08 -72.565L246.515 63.87M291.993 -209L155.558 -72.565L291.993 63.87M337.471 -209L201.036 -72.565L337.471 63.8699M382.95 -209L246.515 -72.565L382.95 63.8699M428.428 -209L291.993 -72.565L428.428 63.8699M18.8857 -209L-117.549 -72.565L18.8858 63.87M64.3641 -209L-72.0709 -72.565L64.3641 63.87M109.842 -209L-26.5926 -72.565L109.842 63.87M155.321 -209L18.8857 -72.565L155.321 63.87M200.799 -209L64.3641 -72.565L200.799 63.87M246.277 -209L109.842 -72.565L246.277 63.87M291.756 -209L155.321 -72.565L291.756 63.87M-117.785 -209L-254.22 -72.565L-117.785 63.87M-72.3071 -209L-208.742 -72.565L-72.3071 63.87M-26.8287 -209L-163.264 -72.565L-26.8287 63.87M18.6496 -209L-117.785 -72.565L18.6496 63.87M64.1279 -209L-72.3071 -72.565L64.1279 63.87M109.606 -209L-26.8287 -72.565L109.606 63.87M155.085 -209L18.6496 -72.565L155.085 63.87M-254.457 -209L-390.892 -72.565L-254.457 63.87M-208.979 -209L-345.414 -72.565L-208.979 63.87M-163.501 -209L-299.936 -72.565L-163.501 63.87M-118.022 -209L-254.457 -72.565L-118.022 63.87M-72.544 -209L-208.979 -72.565L-72.544 63.87M-27.0657 -209L-163.501 -72.565L-27.0657 63.87M18.4126 -209L-118.022 -72.565L18.4126 63.87" stroke="white" stroke-width="2"/>
</g>
<defs>
<clipPath id="clip0_2332_99809">
<rect width="1356" height="338" fill="white"/>
</clipPath>
</defs>
</svg>
