<svg width="32" height="32" viewBox="0 0 32 32" fill="none" xmlns="http://www.w3.org/2000/svg">
<rect width="32" height="32" rx="2" fill="#344444"/>
<path fill-rule="evenodd" clip-rule="evenodd" d="M8.5 15.625C8.5 11.69 11.69 8.5 15.625 8.5C19.56 8.5 22.75 11.69 22.75 15.625C22.75 17.5873 21.9567 19.3644 20.6733 20.6529C20.6699 20.6563 20.6664 20.6596 20.663 20.663C20.6596 20.6664 20.6563 20.6699 20.6529 20.6733C19.3644 21.9567 17.5873 22.75 15.625 22.75C11.69 22.75 8.5 19.56 8.5 15.625ZM21.1705 22.2312C19.6712 23.4911 17.7367 24.25 15.625 24.25C10.8615 24.25 7 20.3885 7 15.625C7 10.8615 10.8615 7 15.625 7C20.3885 7 24.25 10.8615 24.25 15.625C24.25 17.7367 23.4911 19.6712 22.2312 21.1705L26.2799 25.2193C26.5728 25.5122 26.5728 25.987 26.2799 26.2799C25.987 26.5728 25.5122 26.5728 25.2193 26.2799L21.1705 22.2312Z" fill="#FCFDFD"/>
</svg>
