<svg width="35" height="35" viewBox="0 0 35 35" fill="none" xmlns="http://www.w3.org/2000/svg">
<circle cx="18" cy="18" r="17" fill="#F9FAFB"/>
<g clip-path="url(#clip0_7092_240134)">
<g filter="url(#filter0_f_7092_240134)">
<path d="M12.6915 26.2134L13.0511 26.4264C14.5613 27.3225 16.2928 27.7967 18.0585 27.7974H18.0622C23.4849 27.7974 27.8981 23.3856 27.9003 17.9631C27.9014 15.3354 26.879 12.8645 25.0214 11.0057C24.1105 10.089 23.0266 9.3621 21.8327 8.86707C20.6389 8.37205 19.3586 8.11871 18.0661 8.12175C12.6393 8.12175 8.2259 12.5331 8.22397 17.9552C8.2213 19.8067 8.74273 21.6212 9.72801 23.1889L9.96209 23.5607L8.96802 27.1895L12.6915 26.2134ZM6.12598 30.0007L7.80537 23.8697C6.76965 22.0754 6.22475 20.0398 6.22539 17.9544C6.22812 11.4305 11.5377 6.12305 18.0624 6.12305C21.2286 6.12464 24.2005 7.3567 26.4357 9.59316C28.6706 11.8296 29.9004 14.8024 29.8994 17.9639C29.8964 24.4874 24.586 29.7958 18.0622 29.7958H18.0572C16.0762 29.7951 14.1298 29.2981 12.4008 28.3555L6.12598 30.0007Z" fill="#B3B3B3"/>
</g>
<path d="M6.00488 29.8787L7.68429 23.7476C6.64677 21.949 6.1018 19.9087 6.10431 17.8324C6.10704 11.3085 11.4166 6.00098 17.9413 6.00098C21.1076 6.00259 24.0794 7.23463 26.3145 9.4711C28.5496 11.7076 29.7794 14.6803 29.7782 17.8419C29.7754 24.3654 24.465 29.6738 17.9412 29.6738H17.936C15.9551 29.6729 14.0087 29.1761 12.2797 28.2333L6.00488 29.8787Z" fill="white"/>
<path d="M17.9442 8.00003C12.5173 8.00003 8.104 12.4113 8.10206 17.8335C8.09939 19.6851 8.62084 21.4995 9.60611 23.0672L9.84018 23.4392L8.84613 27.0679L12.5698 26.0917L12.9294 26.3047C14.4395 27.2009 16.171 27.6747 17.9368 27.6757H17.9405C23.3632 27.6757 27.7766 23.2639 27.7786 17.8414C27.7827 16.549 27.5305 15.2686 27.0363 14.0743C26.5421 12.8801 25.8159 11.7957 24.8997 10.884C23.9886 9.96726 22.9048 9.24035 21.711 8.74532C20.517 8.25028 19.2368 7.99697 17.9442 8.00003Z" fill="url(#paint0_linear_7092_240134)"/>
<path fill-rule="evenodd" clip-rule="evenodd" d="M14.9836 12.886C14.7619 12.3936 14.5286 12.3836 14.318 12.3751L13.7511 12.3682C13.5539 12.3682 13.2334 12.4422 12.9625 12.7381C12.6916 13.0341 11.9272 13.7495 11.9272 15.2045C11.9272 16.6595 12.9871 18.0655 13.1348 18.2629C13.2825 18.4605 15.1808 21.5414 18.1871 22.7268C20.6854 23.712 21.1937 23.5161 21.7363 23.4668C22.2788 23.4177 23.4862 22.7515 23.7324 22.0609C23.9787 21.3703 23.9789 20.7786 23.9051 20.6549C23.8312 20.5313 23.634 20.4577 23.3379 20.3097C23.0419 20.1617 21.5881 19.4464 21.3171 19.3477C21.0459 19.2488 20.8489 19.1998 20.6515 19.4958C20.4541 19.7918 19.8879 20.4575 19.7153 20.6549C19.5427 20.8524 19.3703 20.8772 19.0744 20.7293C18.7784 20.5815 17.826 20.2691 16.696 19.2616C15.8168 18.4776 15.2233 17.5096 15.0505 17.2138C14.8777 16.918 15.0322 16.7578 15.1805 16.6104C15.3132 16.4779 15.4762 16.265 15.6244 16.0924C15.7725 15.9198 15.8213 15.7964 15.9197 15.5994C16.0182 15.4023 15.9691 15.2292 15.8951 15.0814C15.8211 14.9336 15.2465 13.4709 14.9836 12.886Z" fill="white"/>
</g>
<defs>
<filter id="filter0_f_7092_240134" x="5.36523" y="5.3623" width="25.2949" height="25.3994" filterUnits="userSpaceOnUse" color-interpolation-filters="sRGB">
<feFlood flood-opacity="0" result="BackgroundImageFix"/>
<feBlend mode="normal" in="SourceGraphic" in2="BackgroundImageFix" result="shape"/>
<feGaussianBlur stdDeviation="0.380371" result="effect1_foregroundBlur_7092_240134"/>
</filter>
<linearGradient id="paint0_linear_7092_240134" x1="17.7401" y1="9.18075" x2="17.8398" y2="25.9948" gradientUnits="userSpaceOnUse">
<stop stop-color="#57D163"/>
<stop offset="1" stop-color="#23B33A"/>
</linearGradient>
<clipPath id="clip0_7092_240134">
<rect width="24" height="24" fill="white" transform="translate(6 6)"/>
</clipPath>
</defs>
</svg>
