<svg width="25" height="24" viewBox="0 0 25 24" fill="none" xmlns="http://www.w3.org/2000/svg">
<path d="M11.75 15.75V20.25H14.375" stroke="#101828" stroke-width="1.5" stroke-linecap="round" stroke-linejoin="round"/>
<path d="M5.375 15.75L8.75 20.25" stroke="#101828" stroke-width="1.5" stroke-linecap="round" stroke-linejoin="round"/>
<path d="M8.75 15.75L5.375 20.25" stroke="#101828" stroke-width="1.5" stroke-linecap="round" stroke-linejoin="round"/>
<path d="M17 19.875C17.4063 20.1781 17.8994 20.3424 18.4062 20.3438C19.25 20.3437 20 20.0625 20 19.125C20 17.625 17 18.2812 17 16.875C17 16.125 17.5625 15.6562 18.4062 15.6562C18.9131 15.6576 19.4062 15.8219 19.8125 16.125" stroke="#101828" stroke-width="1.5" stroke-linecap="round" stroke-linejoin="round"/>
<path d="M5 12V3.75C5 3.55109 5.07902 3.36032 5.21967 3.21967C5.36032 3.07902 5.55109 3 5.75 3H14.75L20 8.25V12" stroke="#101828" stroke-width="1.5" stroke-linecap="round" stroke-linejoin="round"/>
<path d="M14.75 3V8.25H20" stroke="#101828" stroke-width="1.5" stroke-linecap="round" stroke-linejoin="round"/>
</svg>
