<svg width="82" height="12" viewBox="0 0 82 12" fill="none" xmlns="http://www.w3.org/2000/svg">
<path fill-rule="evenodd" clip-rule="evenodd" d="M9.14196 9.21669C8.45641 9.55749 7.68914 9.72797 6.91334 9.71185C4.54206 9.71185 2.89952 8.17212 2.89952 5.99987C2.89952 3.82763 4.54206 2.28789 6.94804 2.28789C7.55056 2.27682 8.14852 2.38802 8.7009 2.61386C9.25328 2.8397 9.74704 3.17483 10.1483 3.5963L11.9875 2.00598C10.7845 0.693958 8.98388 0 6.80538 0C2.86482 0 0 2.50115 0 5.99987C0 9.4986 2.86482 11.9997 6.75526 11.9997C8.54971 12.0131 10.3032 11.4972 11.7677 10.5251V5.82639H9.14967V9.2239L9.14196 9.21669ZM23.5354 7.37695C23.5354 4.50713 21.3801 2.75054 18.5847 2.75054C15.6851 2.75054 13.5105 4.67338 13.5105 7.34441C13.5105 10.0154 15.6504 11.9347 18.9394 11.9347C20.6552 11.9347 21.9816 11.4359 22.8645 10.4889L21.4071 9.00343C21.0932 9.29249 20.7195 9.51827 20.3091 9.66683C19.8986 9.81539 19.46 9.88361 19.0204 9.86727C17.5706 9.86727 16.5643 9.18777 16.2982 8.06008H23.493C23.5123 7.84683 23.547 7.56489 23.547 7.3661L23.5354 7.37695ZM18.6039 4.70592C19.1703 4.68555 19.7242 4.86512 20.1561 5.20912C20.5881 5.55311 20.8666 6.0365 20.9367 6.56372H16.2519C16.3196 6.03221 16.6002 5.54465 17.0369 5.19974C17.4735 4.85483 18.0337 4.67831 18.6039 4.70592ZM37.5588 2.75054C36.9071 2.73057 36.2591 2.85043 35.6644 3.101C35.0697 3.35156 34.5439 3.7262 34.1271 4.1963C33.7831 3.72307 33.3144 3.34126 32.7665 3.08794C32.2186 2.83462 31.6101 2.71839 31.0001 2.75054C30.4415 2.72901 29.8846 2.82161 29.3679 3.02195C28.8513 3.22229 28.3873 3.52557 28.0081 3.91075V2.88427H25.3746V11.801H28.1353V7.32635C28.1353 5.73602 28.999 4.98785 30.2213 4.98785C31.378 4.98785 32.0258 5.65288 32.0258 7.09502V11.7937H34.7826V7.32635C34.7826 5.73602 35.6502 4.98785 36.8879 4.98785C38.0022 4.98785 38.6923 5.65288 38.6923 7.09502V11.7937H41.4569V6.69745C41.4569 3.97943 39.8298 2.75054 37.5665 2.75054H37.5588ZM46.6853 11.7865H49.554V2.3891H53.5138V0.202405H42.7177V2.3891H46.6814V11.7865H46.6853ZM57.2654 4.05895V2.88427H54.6435V11.801H57.4004V7.59021C57.4004 5.88422 58.4067 5.10351 59.9298 5.10351C60.1418 5.10351 60.3153 5.1035 60.5467 5.13965V2.75054C59.0815 2.75054 57.9479 3.19872 57.277 4.05895H57.2654ZM65.964 2.75054C64.5121 2.72282 63.0841 3.10024 61.8615 3.83486L62.8524 5.64205C63.6476 5.09726 64.6089 4.80702 65.5938 4.81434C67.0783 4.81434 67.7878 5.46134 67.7878 6.57095H65.5938C62.6943 6.57095 61.5106 7.65527 61.5106 9.23837C61.5106 10.8215 62.837 11.9419 65.0656 11.9419C66.4614 11.9419 67.4523 11.5118 67.9651 10.6986V11.8082H70.5446V6.7119C70.5446 4.01195 68.8674 2.73607 65.964 2.73607V2.75054ZM65.7481 10.1926C64.7764 10.1926 64.2058 9.76244 64.2058 9.10824C64.2058 8.45403 64.6106 8.0637 65.9023 8.0637H67.7955V9.00343C67.6373 9.38153 67.3546 9.70246 66.9885 9.91958C66.6223 10.1367 66.1918 10.2387 65.7596 10.2106L65.7481 10.1926ZM77.7394 11.9347C79.7367 11.9347 81.3098 11.107 82 9.67932L79.8601 8.595C79.6646 8.96915 79.3596 9.28342 78.9807 9.50105C78.6017 9.71867 78.1645 9.83065 77.7201 9.8239C76.3243 9.8239 75.2293 8.91307 75.2293 7.35527C75.2293 5.79747 76.3243 4.88302 77.7201 4.88302C78.1636 4.88013 78.5992 4.99371 78.9774 5.2109C79.3556 5.42809 79.6614 5.74021 79.8601 6.11192L82 5.0276C81.3098 3.58185 79.7367 2.75776 77.7394 2.75776C74.6548 2.75776 72.4339 4.66616 72.4339 7.35165C72.4339 10.0371 74.6433 11.9419 77.7394 11.9419V11.9347Z" fill="white"/>
</svg>
