<svg width="45" height="44" viewBox="0 0 45 44" fill="none" xmlns="http://www.w3.org/2000/svg">
<g filter="url(#filter0_d_1575_287545)">
<rect x="2.5" y="1" width="40" height="40" rx="4" fill="white" shape-rendering="crispEdges"/>
<rect x="3" y="1.5" width="39" height="39" rx="3.5" stroke="#E4E7EC" shape-rendering="crispEdges"/>
<path d="M19.3223 24.1781L25.6785 17.8125" stroke="#101828" stroke-width="1.5" stroke-linecap="round" stroke-linejoin="round"/>
<path d="M24.093 25.7719L21.4398 28.425C21.0219 28.843 20.5257 29.1745 19.9796 29.4007C19.4335 29.6269 18.8481 29.7434 18.257 29.7434C17.0632 29.7434 15.9184 29.2691 15.0742 28.425C14.2301 27.5809 13.7559 26.436 13.7559 25.2422C13.7559 24.0484 14.2301 22.9035 15.0742 22.0594L17.7273 19.4062" stroke="#101828" stroke-width="1.5" stroke-linecap="round" stroke-linejoin="round"/>
<path d="M27.2719 22.5937L29.925 19.9406C30.7691 19.0964 31.2434 17.9516 31.2434 16.7578C31.2434 15.564 30.7691 14.4191 29.925 13.575C29.0809 12.7308 27.936 12.2566 26.7422 12.2566C25.5484 12.2566 24.4035 12.7308 23.5594 13.575L20.9062 16.2281" stroke="#101828" stroke-width="2" stroke-linecap="round" stroke-linejoin="round"/>
</g>
<defs>
<filter id="filter0_d_1575_287545" x="0.5" y="0" width="44" height="44" filterUnits="userSpaceOnUse" color-interpolation-filters="sRGB">
<feFlood flood-opacity="0" result="BackgroundImageFix"/>
<feColorMatrix in="SourceAlpha" type="matrix" values="0 0 0 0 0 0 0 0 0 0 0 0 0 0 0 0 0 0 127 0" result="hardAlpha"/>
<feOffset dy="1"/>
<feGaussianBlur stdDeviation="1"/>
<feComposite in2="hardAlpha" operator="out"/>
<feColorMatrix type="matrix" values="0 0 0 0 0.0627451 0 0 0 0 0.0941176 0 0 0 0 0.156863 0 0 0 0.12 0"/>
<feBlend mode="normal" in2="BackgroundImageFix" result="effect1_dropShadow_1575_287545"/>
<feBlend mode="normal" in="SourceGraphic" in2="effect1_dropShadow_1575_287545" result="shape"/>
</filter>
</defs>
</svg>
