<svg width="25" height="24" viewBox="0 0 25 24" fill="none" xmlns="http://www.w3.org/2000/svg">
<path d="M9.32227 15.1781L15.6785 8.8125"  stroke-width="1.5" stroke-linecap="round" stroke-linejoin="round"/>
<path d="M14.093 16.7719L11.4398 19.425C11.0219 19.843 10.5257 20.1745 9.97956 20.4007C9.43345 20.6269 8.84814 20.7434 8.25704 20.7434C7.06325 20.7434 5.91836 20.2691 5.07422 19.425C4.23009 18.5809 3.75586 17.436 3.75586 16.2422C3.75586 15.0484 4.23009 13.9035 5.07422 13.0594L7.72735 10.4062"  stroke-width="1.5" stroke-linecap="round" stroke-linejoin="round"/>
<path d="M17.2719 13.5949L19.925 10.9418C20.7691 10.0977 21.2434 8.95278 21.2434 7.75899C21.2434 6.5652 20.7691 5.42031 19.925 4.57618C19.0809 3.73204 17.936 3.25781 16.7422 3.25781C15.5484 3.25781 14.4035 3.73204 13.5594 4.57618L10.9062 7.2293"  stroke-width="2" stroke-linecap="round" stroke-linejoin="round"/>
</svg>
