<svg width="24" height="24" viewBox="0 0 24 24" fill="none" xmlns="http://www.w3.org/2000/svg">
<path d="M15.3937 7.883L18.0188 7.89511C19.0808 7.94922 20.0811 8.41045 20.8119 9.18296C21.5426 9.95546 21.9476 10.9798 21.9427 12.0432C21.9378 13.1066 21.5234 14.1272 20.7855 14.8929C20.0476 15.6586 19.0431 16.1106 17.9807 16.1549L14.2353 16.131C13.6935 16.1295 13.1574 16.0211 12.6576 15.8119C12.1578 15.6028 11.7043 15.297 11.323 14.9121C10.9417 14.5273 10.6401 14.0709 10.4355 13.5693C10.231 13.0676 10.1275 12.5305 10.131 11.9887" stroke="#101828" stroke-width="1.5" stroke-linecap="round" stroke-linejoin="round"/>
<path d="M8.60565 16.1185L5.98055 16.1063C4.91855 16.0522 3.91823 15.591 3.18746 14.8185C2.4567 14.046 2.05169 13.0216 2.0566 11.9583C2.0615 10.8949 2.47595 9.87429 3.21381 9.10856C3.95167 8.34284 4.9562 7.89085 6.01865 7.84654L9.76404 7.87045C10.3058 7.87194 10.8419 7.98037 11.3417 8.18954C11.8415 8.3987 12.295 8.70448 12.6763 9.08933C13.0576 9.47418 13.3592 9.93053 13.5638 10.4322C13.7683 10.9339 13.8718 11.471 13.8683 12.0127" stroke="#101828" stroke-width="1.5" stroke-linecap="round" stroke-linejoin="round"/>
</svg>
