<svg width="400" height="400" viewBox="0 0 400 400" fill="none" xmlns="http://www.w3.org/2000/svg">
<g clip-path="url(#clip0_10380_67646)">
<rect width="400" height="400" rx="2" fill="#F2F5F7"/>
<rect x="0.5" y="0.5" width="399" height="399" rx="1.5" stroke="#C2D1D9"/>
</g>
<g clip-path="url(#clip1_10380_67646)">
<path d="M12 11L387.53 388.224" stroke="#C2D1D9"/>
<path d="M387.531 11L12.0001 388.224" stroke="#C2D1D9"/>
</g>
<rect x="166" y="172" width="68" height="56" rx="4" fill="#F2F5F7"/>
<path fill-rule="evenodd" clip-rule="evenodd" d="M230 172H170C167.791 172 166 173.791 166 176V224C166 226.209 167.791 228 170 228H230C232.209 228 234 226.209 234 224V176C234 173.791 232.209 172 230 172ZM170 224V176H230V224H170Z" fill="#C2D1D9"/>
<path fill-rule="evenodd" clip-rule="evenodd" d="M177 188.5C177 192.642 180.358 196 184.5 196C188.642 196 192 192.642 192 188.5C192 184.358 188.642 181 184.5 181C180.358 181 177 184.358 177 188.5ZM188 188.5C188 190.433 186.433 192 184.5 192C182.567 192 181 190.433 181 188.5C181 186.567 182.567 185 184.5 185C186.433 185 188 186.567 188 188.5Z" fill="#C2D1D9"/>
<path d="M180.408 219.42C179.624 220.198 178.357 220.192 177.58 219.408C176.802 218.623 176.807 217.357 177.592 216.579L194.041 200.271L203.313 208.336C204.146 209.061 204.234 210.324 203.509 211.157C202.784 211.991 201.521 212.079 200.687 211.354L194.219 205.728L180.408 219.42Z" fill="#C2D1D9"/>
<path d="M195.414 219.415C194.633 220.196 193.367 220.196 192.586 219.415C191.805 218.634 191.805 217.368 192.586 216.587L218.908 190.262L233.319 202.906C234.149 203.635 234.232 204.898 233.503 205.729C232.775 206.559 231.511 206.641 230.681 205.913L219.087 195.74L195.414 219.415Z" fill="#C2D1D9"/>
<defs>
<clipPath id="clip0_10380_67646">
<rect width="400" height="400" fill="white"/>
</clipPath>
<clipPath id="clip1_10380_67646">
<rect width="376" height="378" fill="white" transform="translate(12 11)"/>
</clipPath>
</defs>
</svg>
