<svg width="45" height="44" viewBox="0 0 45 44" fill="none" xmlns="http://www.w3.org/2000/svg">
<g filter="url(#filter0_d_1575_287546)">
<rect x="2.5" y="1" width="40" height="40" rx="4" fill="white" shape-rendering="crispEdges"/>
<rect x="3" y="1.5" width="39" height="39" rx="3.5" stroke="#E4E7EC" shape-rendering="crispEdges"/>
<path d="M16.5 24C18.1569 24 19.5 22.6569 19.5 21C19.5 19.3431 18.1569 18 16.5 18C14.8431 18 13.5 19.3431 13.5 21C13.5 22.6569 14.8431 24 16.5 24Z" stroke="#101828" stroke-width="1.5" stroke-linecap="round" stroke-linejoin="round"/>
<path d="M27 30.75C28.6569 30.75 30 29.4069 30 27.75C30 26.0931 28.6569 24.75 27 24.75C25.3431 24.75 24 26.0931 24 27.75C24 29.4069 25.3431 30.75 27 30.75Z" stroke="#101828" stroke-width="1.5" stroke-linecap="round" stroke-linejoin="round"/>
<path d="M27 17.25C28.6569 17.25 30 15.9069 30 14.25C30 12.5931 28.6569 11.25 27 11.25C25.3431 11.25 24 12.5931 24 14.25C24 15.9069 25.3431 17.25 27 17.25Z" stroke="#101828" stroke-width="1.5" stroke-linecap="round" stroke-linejoin="round"/>
<path d="M24.4777 15.8718L19.0215 19.3781" stroke="#101828" stroke-width="1.5" stroke-linecap="round" stroke-linejoin="round"/>
<path d="M19.0215 22.6218L24.4777 26.1281" stroke="#101828" stroke-width="1.5" stroke-linecap="round" stroke-linejoin="round"/>
</g>
<defs>
<filter id="filter0_d_1575_287546" x="0.5" y="0" width="44" height="44" filterUnits="userSpaceOnUse" color-interpolation-filters="sRGB">
<feFlood flood-opacity="0" result="BackgroundImageFix"/>
<feColorMatrix in="SourceAlpha" type="matrix" values="0 0 0 0 0 0 0 0 0 0 0 0 0 0 0 0 0 0 127 0" result="hardAlpha"/>
<feOffset dy="1"/>
<feGaussianBlur stdDeviation="1"/>
<feComposite in2="hardAlpha" operator="out"/>
<feColorMatrix type="matrix" values="0 0 0 0 0.0627451 0 0 0 0 0.0941176 0 0 0 0 0.156863 0 0 0 0.12 0"/>
<feBlend mode="normal" in2="BackgroundImageFix" result="effect1_dropShadow_1575_287546"/>
<feBlend mode="normal" in="SourceGraphic" in2="effect1_dropShadow_1575_287546" result="shape"/>
</filter>
</defs>
</svg>
