<svg width="20" height="20" viewBox="0 0 20 20" fill="none" xmlns="http://www.w3.org/2000/svg">
<path d="M14.5882 11.6084C14.479 11.5477 14.3552 11.4788 14.206 11.3902C14.1227 11.3405 14.018 11.2726 13.9071 11.2007C13.3378 10.8315 12.9063 10.5702 12.5391 10.5702C12.4531 10.5702 12.3717 10.5846 12.2975 10.6129C11.9758 10.7353 11.7116 11.0622 11.4561 11.3784C11.3624 11.4942 11.2284 11.6601 11.1471 11.7342C10.8245 11.6763 10.1441 11.2599 9.40981 10.5346C8.6747 9.80841 8.25311 9.1355 8.19523 8.81758C8.27017 8.73695 8.43936 8.60358 8.55735 8.51048C8.87621 8.25901 9.20593 7.99899 9.33052 7.68214C9.48945 7.27504 9.19817 6.78816 8.73555 6.09196C8.66276 5.98238 8.59399 5.87889 8.54408 5.79728C8.45397 5.64935 8.38433 5.52696 8.32288 5.41909C8.07064 4.97627 7.904 4.68359 7.27779 4.68359C6.87136 4.68359 6.29674 5.06298 5.90751 5.43922C5.34185 5.98613 5.03027 6.61753 5.03027 7.21837C5.03135 8.85027 5.95332 10.7207 7.5598 12.3518C7.56256 12.3545 7.56532 12.3552 7.56816 12.358C9.21937 13.945 11.1138 14.8526 12.7658 14.8526H12.7664C13.3738 14.8526 14.0132 14.5483 14.5668 13.9899C14.948 13.6054 15.3326 13.0419 15.3326 12.6407C15.3326 12.0222 15.0365 11.8576 14.5882 11.6084ZM12.7659 14.0095C11.3588 14.0085 9.64231 13.1661 8.17347 11.756C6.74587 10.3049 5.89311 8.60911 5.89221 7.21923C5.89221 6.3785 6.99664 5.57915 7.28546 5.53535C7.34446 5.5356 7.3754 5.53905 7.39014 5.54152C7.42832 5.58494 7.50421 5.71819 7.57178 5.83683C7.63293 5.94419 7.70908 6.07787 7.80604 6.23704C7.86465 6.33295 7.93774 6.44291 8.01509 6.5593C8.16149 6.77964 8.45578 7.22255 8.50538 7.4116C8.42243 7.52761 8.16502 7.73058 8.01971 7.84518C7.64776 8.13854 7.32653 8.39183 7.32653 8.74981C7.32743 9.6145 8.45492 10.7954 8.80045 11.1367C9.14598 11.4781 10.3414 12.5918 11.2186 12.5927C11.5787 12.5915 11.834 12.2755 12.1297 11.9097C12.2463 11.7654 12.4531 11.5096 12.571 11.4281C12.7621 11.4767 13.2111 11.7678 13.4343 11.9125C13.5521 11.9889 13.6634 12.0611 13.7611 12.1194C13.9216 12.2148 14.0569 12.29 14.1656 12.3504C14.2857 12.4172 14.4206 12.4922 14.4646 12.5299C14.4671 12.5444 14.4705 12.575 14.4708 12.6332C14.4262 12.9183 13.6167 14.0085 12.7659 14.0095Z" fill="#101828" stroke="#101828" stroke-width="0.2"/>
<path d="M18.7492 9.9722C18.719 7.67164 17.7842 5.49774 16.1171 3.85089C14.4193 2.1737 12.1781 1.25 9.80646 1.25C7.51705 1.25 5.37534 2.12023 3.77575 3.70032C2.3563 5.10251 1.48544 6.97264 1.32345 8.96626C1.16982 10.8578 1.65726 12.7719 2.69812 14.3813L1.27678 18.1766C1.25267 18.2409 1.24467 18.3101 1.25347 18.3782C1.26227 18.4463 1.2876 18.5113 1.32731 18.5676C1.36702 18.6239 1.41992 18.6699 1.48152 18.7017C1.54311 18.7334 1.61157 18.75 1.68105 18.75C1.73776 18.75 1.79499 18.7338 1.84925 18.711L5.55103 17.1549C6.96419 18.0237 8.58007 18.4715 10.2393 18.4715H10.2395C12.5285 18.4715 14.6702 17.6117 16.2695 16.0318C17.8989 14.4222 18.7795 12.2769 18.7492 9.9722ZM15.66 15.4401C14.2233 16.8593 12.2982 17.6409 10.2393 17.6408C8.67177 17.6408 7.14674 17.1876 5.82899 16.3301C5.7697 16.2915 5.70167 16.268 5.63096 16.2617C5.56025 16.2553 5.48905 16.2664 5.42369 16.2938L2.43137 17.5475L3.582 14.4751C3.60572 14.4117 3.61384 14.3437 3.60567 14.2766C3.5975 14.2095 3.57329 14.1453 3.53502 14.0892C1.42011 10.9942 1.77767 6.87817 4.38519 4.3024C5.82197 2.88309 7.74727 2.10141 9.80646 2.10141C11.9479 2.10141 13.9726 2.93652 15.5076 4.45293C17.0149 5.94187 17.8601 7.90591 17.8874 9.98327C17.9147 12.0564 17.1236 13.9943 15.66 15.4401Z" fill="#101828" stroke="#101828" stroke-width="0.2"/>
</svg>
