<svg width="16" height="17" viewBox="0 0 16 17" fill="none" xmlns="http://www.w3.org/2000/svg">
<path d="M11.6698 9.78592C11.5824 9.73736 11.4834 9.68229 11.364 9.61135C11.2974 9.57161 11.2137 9.51729 11.1249 9.45976C10.6694 9.16443 10.3243 8.95539 10.0305 8.95539C9.96167 8.95539 9.89658 8.9669 9.83725 8.98951C9.57985 9.08742 9.36848 9.34901 9.16408 9.60195C9.08916 9.69462 8.98194 9.8273 8.91689 9.88659C8.6588 9.84024 8.11446 9.50714 7.52707 8.92688C6.93898 8.34595 6.6017 7.80762 6.5554 7.55328C6.61536 7.48878 6.75071 7.38208 6.8451 7.3076C7.10019 7.10643 7.36396 6.89841 7.46363 6.64493C7.59078 6.31925 7.35776 5.92974 6.98766 5.37278C6.92943 5.28512 6.87441 5.20233 6.83448 5.13704C6.7624 5.0187 6.70668 4.92079 6.65752 4.83449C6.45573 4.48023 6.32242 4.24609 5.82145 4.24609C5.49631 4.24609 5.03661 4.5496 4.72523 4.8506C4.2727 5.28812 4.02344 5.79324 4.02344 6.27392C4.0243 7.57944 4.76187 9.07574 6.04706 10.3807C6.04927 10.3828 6.05147 10.3834 6.05375 10.3856C7.37472 11.6552 8.89027 12.3813 10.2118 12.3813H10.2123C10.6983 12.3813 11.2098 12.1379 11.6527 11.6911C11.9576 11.3835 12.2653 10.9327 12.2653 10.6118C12.2653 10.117 12.0284 9.98529 11.6698 9.78592ZM10.212 11.7068C9.08627 11.706 7.71306 11.0321 6.53799 9.90403C5.39592 8.74311 4.71371 7.38651 4.71299 6.2746C4.71299 5.60202 5.59653 4.96254 5.82759 4.9275C5.87478 4.9277 5.89954 4.93046 5.91133 4.93243C5.94187 4.96717 6.00259 5.07377 6.05664 5.16868C6.10556 5.25457 6.16648 5.36151 6.24405 5.48885C6.29094 5.56558 6.34941 5.65355 6.41129 5.74666C6.52841 5.92293 6.76384 6.27726 6.80352 6.4285C6.73716 6.5213 6.53124 6.68369 6.41498 6.77537C6.11742 7.01005 5.86044 7.21268 5.86044 7.49907C5.86117 8.19082 6.76315 9.13555 7.03958 9.40861C7.31601 9.68168 8.27236 10.5727 8.97412 10.5734C9.26216 10.5725 9.46643 10.3197 9.703 10.0269C9.79629 9.91152 9.96167 9.70688 10.056 9.64166C10.2089 9.68059 10.5681 9.91343 10.7466 10.0293C10.8409 10.0904 10.9299 10.1481 11.0081 10.1947C11.1365 10.2711 11.2448 10.3312 11.3317 10.3796C11.4278 10.433 11.5357 10.493 11.5709 10.5231C11.5729 10.5348 11.5757 10.5592 11.5759 10.6058C11.5401 10.8338 10.8926 11.706 10.212 11.7068Z" fill="#101828" stroke="#101828" stroke-width="0.2"/>
<path d="M14.9994 8.47776C14.9752 6.63732 14.2273 4.89819 12.8937 3.58071C11.5354 2.23896 9.7425 1.5 7.84517 1.5C6.01364 1.5 4.30027 2.19618 3.0206 3.46026C1.88504 4.58201 1.18835 6.07811 1.05876 7.67301C0.935853 9.1862 1.32581 10.7175 2.1585 12.0051L1.02142 15.0413C1.00213 15.0928 0.995737 15.1481 1.00278 15.2026C1.00981 15.257 1.03008 15.309 1.06185 15.3541C1.09362 15.3991 1.13594 15.4359 1.18521 15.4613C1.23449 15.4867 1.28925 15.5 1.34484 15.5C1.39021 15.5 1.43599 15.487 1.4794 15.4688L4.44083 14.2239C5.57135 14.919 6.86406 15.2772 8.19144 15.2772H8.19158C10.0228 15.2772 11.7361 14.5894 13.0156 13.3254C14.3191 12.0378 15.0236 10.3215 14.9994 8.47776ZM12.528 12.8521C11.3787 13.9875 9.83855 14.6127 8.1914 14.6127C6.93742 14.6126 5.71739 14.2501 4.66319 13.5641C4.61576 13.5332 4.56134 13.5144 4.50477 13.5093C4.4482 13.5043 4.39124 13.5131 4.33895 13.535L1.9451 14.538L2.8656 12.0801C2.88458 12.0294 2.89107 11.9749 2.88454 11.9213C2.878 11.8676 2.85863 11.8162 2.82802 11.7714C1.13609 9.29532 1.42213 6.00254 3.50816 3.94192C4.65758 2.80647 6.19781 2.18113 7.84517 2.18113C9.5583 2.18113 11.1781 2.84922 12.4061 4.06234C13.612 5.2535 14.2881 6.82473 14.3099 8.48662C14.3317 10.1451 13.6989 11.6954 12.528 12.8521Z" fill="#101828" stroke="#101828" stroke-width="0.2"/>
</svg>
