<svg width="22" height="43" viewBox="0 0 22 43" fill="none" xmlns="http://www.w3.org/2000/svg">
<g id="Sample Diamond-1" clip-path="url(#clip0_1_5502)">
<path id="Vector" d="M10.67 0.00108704C10.6509 -0.00285136 10.6891 0.00551772 10.67 0.00108704C14.0458 2.81901 16.2904 5.55864 18.2115 9.16721C20.2081 12.8875 21.2448 17.137 21.2574 21.4161C21.2848 24.6929 20.7927 27.7343 19.628 30.7698C18.6579 33.3081 17.336 35.8129 15.6713 37.9081C14.1413 39.8444 13.8065 40.3697 10.7077 43C6.80308 39.6312 4.03385 35.9389 1.93903 31.2621C0.188288 26.8974 -0.437318 21.8286 0.31074 17.1557C0.744122 14.4132 1.49311 12.1322 2.74577 9.68887C4.68131 5.90211 7.24028 2.83526 10.67 0.00108704ZM10.2193 2.74267C9.56141 4.34098 9.16035 5.51777 8.62222 6.87459C9.28882 7.20637 9.94609 7.55737 10.6132 7.88721C10.696 7.94287 10.7849 7.88721 10.8622 7.84982C11.4423 7.54756 12.025 7.25217 12.6069 6.95532C12.667 6.92479 12.7205 6.88589 12.7689 6.83816C12.0753 5.21455 11.3705 3.01997 10.6722 1.39834C10.5093 1.67255 10.4288 2.2339 10.2193 2.74267ZM8.35079 3.31984C8.06173 3.64869 7.06934 4.77934 6.80956 5.13526C7.22062 5.56652 7.6326 5.99778 8.05989 6.41183C8.6818 4.96592 10.2193 1.41828 10.2193 1.41828C10.2193 1.41828 9.44096 2.07963 8.35079 3.31984ZM11.2173 1.39866C11.2173 1.39866 12.7065 4.96887 13.3303 6.41724C13.7539 5.99633 14.1714 5.56604 14.5848 5.13381C14.0621 4.48791 13.3969 3.46619 12.8085 2.88724C11.8546 1.8772 11.2173 1.39866 11.2173 1.39866ZM6.34685 5.67484C5.47032 6.76777 4.67852 7.93645 3.98586 9.16721C5.19942 8.44206 6.40507 7.70212 7.61163 6.96218C7.19221 6.53044 6.78023 6.08837 6.34685 5.67484ZM13.7837 6.96025C14.98 7.70657 16.1903 8.4337 17.396 9.16427C16.715 7.92809 15.9185 6.76134 15.0378 5.67629C14.6132 6.09576 14.1938 6.52407 13.7837 6.96025ZM8.47515 7.59037C8.43046 8.79848 8.35505 10.0046 8.31316 11.2117C8.53521 10.9233 8.72233 10.6072 8.92946 10.3074C9.33491 9.68558 9.76689 9.08305 10.1561 8.4509C9.59697 8.16096 9.03884 7.8705 8.47515 7.59037ZM12.6018 7.74348C12.1479 7.98718 11.6843 8.20672 11.2328 8.45337C11.8444 9.39318 12.4644 10.3281 13.1031 11.2482C13.004 10.0479 12.9831 8.83983 12.9132 7.63617C12.8001 7.63322 12.7 7.69328 12.6018 7.74348ZM3.58879 10.2345C3.48452 10.302 3.36442 10.3581 3.29459 10.4703C3.27737 10.6683 3.32346 10.8647 3.34208 11.0611C3.49941 12.4898 3.66746 13.9164 3.82014 15.3461C5.07931 14.3206 6.34129 13.2951 7.58694 12.2515C7.65864 10.7302 7.74338 9.20809 7.79783 7.68637C6.38507 8.51588 4.99462 9.39168 3.58879 10.2345ZM13.591 7.6898C13.6454 9.20857 13.7362 10.7254 13.7981 12.2441C15.0294 13.2917 16.2983 14.2881 17.5328 15.3308C17.5956 15.2624 17.5813 15.1585 17.5985 15.0723C17.7605 13.5984 17.9313 12.1264 18.0928 10.6525C18.1184 10.5215 18.07 10.3817 17.9499 10.3271C16.6735 9.55073 15.3971 8.77335 14.1202 7.9965C13.9457 7.89069 13.7767 7.7745 13.591 7.6898ZM8.30987 12.4705C8.10787 12.8462 8.06781 13.2897 7.94355 13.6959C7.29415 16.2534 6.6434 18.8109 5.99401 21.3683C5.94236 21.5288 6.01681 21.6893 6.05034 21.8449C6.75791 24.6156 7.46036 27.3882 8.1642 30.1593C8.20329 30.3041 8.25866 30.4459 8.34432 30.5674C9.03701 31.6013 9.72921 32.6366 10.42 33.6729C10.5126 33.8043 10.5862 33.955 10.71 34.0598C11.4883 32.9009 12.261 31.7377 13.0393 30.5778C13.2013 30.3464 13.2502 30.0584 13.3205 29.7872C14.0104 27.0697 14.7007 24.3537 15.3915 21.6362C15.4553 21.457 15.3678 21.2783 15.3296 21.1045C14.6649 18.4874 13.9988 15.8694 13.334 13.2508C13.2586 12.9678 13.213 12.666 13.0496 12.4203C12.2638 11.2511 11.4841 10.0775 10.7002 8.9068C9.89164 10.0853 9.10774 11.2846 8.30987 12.4705ZM2.55165 12.1624C2.11781 13.2696 1.7361 14.4038 1.47356 15.5701C2.04193 15.5912 2.60891 15.6222 3.17636 15.6424C3.04648 14.3344 2.8803 13.0308 2.74577 11.7242C2.67082 11.865 2.60938 12.0132 2.55165 12.1624ZM18.6435 11.7966C18.4917 13.0761 18.3507 14.358 18.2115 15.6395C18.7799 15.6335 19.3469 15.576 19.9171 15.5809C19.6346 14.3048 19.2081 13.0667 18.718 11.864C18.6998 11.8473 18.6626 11.8128 18.6435 11.7966ZM3.984 16.1165C3.99424 16.18 4.01053 16.2435 4.03148 16.3051C4.52863 17.6475 5.04347 18.9822 5.52806 20.3301C5.54062 20.3129 5.56715 20.2764 5.57971 20.2587C6.17137 17.9607 6.74254 15.6557 7.34073 13.3596C6.22679 14.2861 5.104 15.1998 3.984 16.1165ZM14.0755 13.3985C14.6384 15.7167 15.2547 18.0202 15.823 20.337C15.8803 20.2592 15.9129 20.1656 15.9501 20.0766C16.4329 18.7715 16.9286 17.4708 17.4067 16.1643L17.3932 16.1121C16.2895 15.2048 15.1914 14.2891 14.0755 13.3985ZM0.817203 19.8624C1.52988 18.6858 2.26025 17.5196 2.95711 16.3336C2.41015 16.3253 1.86458 16.2913 1.31808 16.2676C1.04577 17.4442 0.895405 18.6533 0.817203 19.8624ZM18.4708 16.3307C18.4755 16.4774 18.5844 16.5862 18.65 16.7073C19.2947 17.7406 19.9004 18.8015 20.5637 19.8211C20.5237 18.8719 20.3873 17.9301 20.2262 16.9958C20.1755 16.7516 20.1517 16.4985 20.0633 16.2647C19.5326 16.2942 19.0015 16.3233 18.4708 16.3307ZM0.878186 21.0774C0.704553 21.3172 0.710602 21.6844 0.88796 21.9217C1.75751 23.3415 2.61683 24.7672 3.48871 26.1855C4.0636 24.681 4.61707 23.1672 5.18686 21.6608C5.21759 21.5712 5.26132 21.4727 5.20687 21.3831C4.63058 19.8604 4.08036 18.3254 3.48591 16.8116C2.60472 18.2245 1.75193 19.6576 0.878186 21.0774ZM17.9015 16.8141C17.8498 16.9259 17.8023 17.0401 17.7614 17.1557C17.2321 18.5972 16.6786 20.0288 16.1568 21.4722C16.2015 21.7204 16.3216 21.9439 16.3989 22.1807C16.9035 23.5059 17.3815 24.843 17.8973 26.1639C18.1538 25.8261 18.3465 25.4397 18.5765 25.0818C19.2491 23.9785 19.9222 22.8743 20.593 21.7696C20.6549 21.5579 20.6647 21.2886 20.5293 21.103C19.6471 19.6783 18.7971 18.2294 17.9015 16.8141ZM5.50574 22.732C5.00018 24.1045 4.47463 25.4697 3.97469 26.8442C4.4737 27.2853 5.00298 27.689 5.5113 28.1188C6.12064 28.6066 6.7123 29.1186 7.3286 29.5981C6.73834 27.2902 6.15649 24.9789 5.56575 22.6715C5.55038 22.6857 5.52014 22.7168 5.50574 22.732ZM15.8212 22.6705C15.2449 24.9784 14.6393 27.2774 14.0746 29.5883C15.1956 28.6829 16.3132 27.7702 17.4179 26.8432C16.9407 25.549 16.4515 24.2601 15.973 22.9674C15.9297 22.8645 15.9069 22.7448 15.8212 22.6705ZM0.821861 23.1387C0.895405 24.3409 1.0439 25.545 1.31994 26.7137C1.86644 26.6911 2.41294 26.6704 2.95897 26.637C2.24535 25.4717 1.54525 24.2961 0.821861 23.1387ZM19.588 24.7377C19.2124 25.3727 18.8018 25.9851 18.4508 26.6365C18.9973 26.6655 19.5447 26.7088 20.0908 26.699C20.3207 25.5273 20.5134 24.3409 20.5637 23.1446C20.229 23.6689 19.9134 24.2075 19.588 24.7377ZM1.46797 27.4143C1.78544 28.7396 2.20905 30.0397 2.74903 31.2813C2.87518 29.9703 3.04183 28.6633 3.18055 27.3527C2.60938 27.3468 2.03914 27.3981 1.46797 27.4143ZM18.2097 27.3532C18.3442 28.5923 18.4913 29.8295 18.6244 31.0686C18.6254 31.1248 18.6463 31.171 18.6863 31.208C19.1844 29.9787 19.6183 28.7164 19.9199 27.4163C19.3497 27.3961 18.7799 27.3473 18.2097 27.3532ZM3.82061 27.6476C3.64884 29.1974 3.47474 30.7472 3.29832 32.2969C3.27504 32.4215 3.2783 32.5716 3.40491 32.6317C4.8689 33.5262 6.33337 34.4222 7.80155 35.3078C7.73357 33.7758 7.6726 32.2408 7.57626 30.7107C6.31941 29.6961 5.08767 28.647 3.82061 27.6476ZM13.8065 30.721C13.7227 32.2492 13.6585 33.7787 13.5845 35.3068C15.0517 34.4261 16.5129 33.5326 17.9723 32.6381C18.1105 32.579 18.1096 32.417 18.0896 32.2836C17.9168 30.7358 17.7386 29.189 17.5696 27.6407C16.3057 28.6559 15.0606 29.6936 13.8065 30.721ZM8.30803 31.7455C8.35876 32.9532 8.42626 34.1603 8.47515 35.3684C8.55705 35.3492 8.63715 35.3196 8.71161 35.2783C9.16736 35.0376 9.6291 34.8081 10.0872 34.5699C10.1044 34.5546 10.1388 34.5221 10.1561 34.5068C9.536 33.5902 8.92525 32.6657 8.30803 31.7455ZM11.6536 33.8826C11.5227 34.1066 11.3389 34.3006 11.2379 34.5433C11.8025 34.8052 12.3397 35.1345 12.9128 35.3743C12.9612 34.1785 13.0375 32.9847 13.0738 31.7888C12.5739 32.4653 12.1321 33.1885 11.6536 33.8826ZM3.99563 33.8225C4.67666 35.0587 5.47501 36.2215 6.35153 37.3095C6.65785 37.0181 6.94179 36.7005 7.24531 36.4047C7.35981 36.2668 7.51621 36.1644 7.59815 36.0005C6.3897 35.2891 5.20315 34.5354 3.99563 33.8225ZM13.7828 36.0074C14.1826 36.4593 14.6109 36.8841 15.0391 37.307C15.9185 36.224 16.7084 35.0577 17.3955 33.8284C16.1796 34.5324 14.9949 35.2955 13.7828 36.0074ZM10.5033 35.1453C9.87768 35.4767 9.24133 35.7868 8.61667 36.1201C9.25949 37.6728 9.92426 39.709 10.5713 41.2607C10.6085 41.3508 10.6448 41.4429 10.7021 41.5221C11.3957 39.8872 12.0911 37.761 12.7694 36.1201C12.1158 35.7666 11.4483 35.4432 10.791 35.0981C10.6965 35.0277 10.5936 35.106 10.5033 35.1453ZM6.80308 37.8535C7.74382 38.975 8.97792 40.5881 10.0853 41.523C9.48623 40.0618 8.68088 38.0145 8.05525 36.5657C7.63772 36.9934 7.2141 37.4173 6.80308 37.8535ZM13.3303 36.5691C12.7047 38.0214 11.865 40.0658 11.2491 41.523C12.3612 40.5886 13.6403 38.9799 14.5857 37.8574C14.1766 37.4193 13.7576 36.989 13.3303 36.5691Z" fill="#344444" fill-opacity="0.72"/>
</g>
<defs>
<clipPath id="clip0_1_5502">
<rect width="21.2584" height="43" fill="white"/>
</clipPath>
</defs>
</svg>
