<svg width="43" height="43" viewBox="0 0 43 43" fill="none" xmlns="http://www.w3.org/2000/svg">
<g id="Pear 2">
<path id="Vector" fill-rule="evenodd" clip-rule="evenodd" d="M34.3921 13.8391V13.8557L34.3929 13.8722C34.3994 14.0073 34.4045 14.1431 34.4083 14.2798L29.407 11.2307L31.055 5.31734C33.1279 7.61326 34.3921 10.5915 34.3921 13.8391ZM25.5348 25.1256L27.8692 16.749L28.8534 21.2658L25.5348 25.1256ZM24.4177 26.4248L27.4435 15.5671L25.5014 10.3992L20.7352 8.25031L20.6727 8.30624L20.5934 8.23153L16.3545 10.111L13.9668 16.0672L16.8367 26.5527L20.5723 30.8975L24.4177 26.4248ZM21.3164 7.72937L25.1471 9.45641L23.6964 5.59635L21.3164 7.72937ZM22.916 5.33059H18.5602L20.6849 7.33014L22.916 5.33059ZM18.0626 5.84995L20.0294 7.70082L16.7351 9.16152L18.0626 5.84995ZM26.4357 10.8204L27.774 14.3813L28.5062 11.7539L26.4357 10.8204ZM29.2017 11.9677L28.2076 15.535L28.5366 16.4107L28.5456 16.4345L28.551 16.4592L29.4477 20.5746L34.2318 15.0104L29.2105 11.949L29.2017 11.9677ZM28.7 11.0583L26.0814 9.87767L24.3725 5.33059H30.2962L28.7 11.0583ZM13.2012 16.0254L12.0989 11.998L11.9796 12.0508L11.9326 11.9499L6.91266 15.0104L11.9953 20.9218L13.0336 16.4545L13.0396 16.4284L13.0496 16.4036L13.2012 16.0254ZM13.6494 14.9075L12.7714 11.6997L15.403 10.5329L13.6494 14.9075ZM17.4885 5.33059L15.7837 9.58343L12.5808 11.0035L11.0282 5.33059H17.4885ZM12.5834 21.6059L13.5685 17.3673L15.7304 25.266L12.5834 21.6059ZM29.6928 21.3957L34.3873 15.9356C34.1985 19.5974 33.0611 23.7874 30.631 28.4126L29.6928 21.3957ZM29.0568 22.1352L25.0788 26.762L23.2245 33.4161L30.0168 29.3145L29.0568 22.1352ZM23.3772 34.1598L25.3591 36.465C26.9684 34.4034 28.3332 32.4053 29.4768 30.4765L23.3772 34.1598ZM22.5351 33.1804L23.9616 28.0613L21.0477 31.4505L22.5351 33.1804ZM20.5723 32.0035L22.3023 34.0157L20.5754 40.2124L18.8704 33.9829L20.5723 32.0035ZM17.2808 28.1753L20.0968 31.4505L18.6407 33.144L17.2808 28.1753ZM16.1745 26.8885L17.8635 33.0596L11.1405 29.3121L12.4086 22.5086L16.1745 26.8885ZM6.74333 15.9195C6.87891 19.6184 7.96683 23.7886 10.5431 28.5441L11.8 21.8007L6.74333 15.9195ZM15.8211 36.4233L17.9621 33.9332L11.5988 30.3862C12.7576 32.3046 14.1544 34.3147 15.8211 36.4233ZM6.76448 13.8792C6.75688 14.0102 6.75047 14.142 6.74527 14.2743L11.8672 11.1516L10.2877 5.38047C8.2455 7.68297 6.95106 10.6561 6.76448 13.8792ZM22.8725 34.6789L24.9039 37.0415C23.7133 38.5331 22.395 40.0572 20.9407 41.6113L22.8725 34.6789ZM18.2983 34.6481L16.2791 36.9966C17.4453 38.442 18.7376 39.9331 20.166 41.4721L18.2983 34.6481ZM21.0696 0.00685577C20.9187 0.00229649 20.7673 0 20.6154 0C12.725 0 6.47438 6.28408 6.03702 13.8391C5.60593 21.2859 8.85743 30.5163 20.1194 42.477C20.283 42.6507 20.4483 42.8251 20.6154 43C20.783 42.8259 20.9489 42.6521 21.1132 42.4787C31.8086 31.1882 35.4797 21.3494 35.1207 13.8391C35.1207 6.34453 28.7604 0.241395 21.0739 0.00698656L21.0728 0.0051017L21.0696 0.00685577ZM20.8779 1.12635L22.8676 4.61984H18.674L20.8779 1.12635ZM23.6559 4.54068L26.4672 1.97342C24.9348 1.27818 23.2531 0.845677 21.49 0.737513L23.6559 4.54068ZM15.0203 1.89975C16.6305 1.17963 18.4062 0.759322 20.2821 0.7147L17.8185 4.61984H17.8087L15.0203 1.89975ZM27.1624 2.31212L24.6354 4.61984H30.3786C29.4314 3.71009 28.3478 2.9304 27.1624 2.31212ZM11.0147 4.61984C11.9918 3.67092 13.1074 2.86274 14.3302 2.23178L16.7782 4.61984H11.0147Z" fill="#344444" fill-opacity="0.7"/>
</g>
</svg>
