<svg width="43" height="43" viewBox="0 0 43 43" fill="none" xmlns="http://www.w3.org/2000/svg">
<g id="svgexport-42" clip-path="url(#clip0_1_5486)">
<path id="Vector" fill-rule="evenodd" clip-rule="evenodd" d="M11.162 0.466885L11.1456 0.465942L11.1293 0.466897L5.34095 0.804175L5.27672 0.807917L5.22042 0.839044L2.29221 2.45798L2.22485 2.49522L2.18562 2.56143L0.34697 5.66439L0.309233 5.72808L0.307496 5.80209L0.172617 11.5471L0.171767 11.549L0.172533 11.5507L0.1713 11.6033L0.171143 11.61L0.171301 11.6166L0.307497 17.3503L0.309289 17.4258L0.34838 17.4903L2.18702 20.5259L2.22614 20.5904L2.29221 20.6269L5.22042 22.2459L5.27831 22.2779L5.34439 22.2809L11.2008 22.5508L11.2137 22.5513L11.2266 22.5508L17.2192 22.2809L17.2912 22.2777L17.3528 22.2404L20.1449 20.5541L20.2046 20.518L20.2406 20.4584L22.0793 17.4228L22.1183 17.3584L22.1202 17.2831L22.2564 11.6842L22.2566 11.6776L22.2564 11.6708L22.1202 5.80216L22.1184 5.72568L22.0784 5.66049L20.1716 2.55753L20.1326 2.49404L20.0674 2.45798L17.1392 0.839044L17.0828 0.807868L17.0184 0.804163L11.162 0.466885ZM0.766678 12.8345L0.871835 17.2615L2.24053 19.5212L2.55642 16.705L2.55672 16.7023L2.40805 16.381L0.766678 12.8345ZM3.00898 16.4459L5.71162 16.332L5.0889 12.1823L3.0376 16.3873L3.00898 16.4459ZM5.10901 10.9424L5.77677 6.75307L3.0612 6.64098L5.10901 10.9424ZM2.54648 6.29134L2.24202 3.5771L0.871893 5.88939L0.770119 10.2243L2.40943 6.59476L2.54648 6.29134ZM9.89945 1.1058L5.43811 1.36576L3.29852 2.54869L6.14811 2.97209L6.16108 2.97402L6.35551 2.87686L9.89945 1.1058ZM6.38964 3.51226V6.1554L10.7676 5.51075L6.38964 3.51226ZM11.6094 5.5242L15.8266 6.15368L15.7713 3.5757L11.6094 5.5242ZM16.1813 3.00556L19.0702 2.55373L16.9215 1.36581L12.3763 1.10405L15.9287 2.87932L16.1813 3.00556ZM16.3372 3.55435L19.6063 3.04305L19.255 6.07509L16.3938 6.18891L16.3372 3.55435ZM17.0605 10.8638L16.4438 6.75365L19.2245 6.64304L17.0605 10.8638ZM17.0414 12.173L16.3796 16.3249L19.2799 16.3812L19.2649 16.3531L17.0414 12.173ZM19.7938 16.565L19.8025 16.6323L20.1745 19.4746L21.5559 17.194L21.6671 12.6204L19.9012 16.3388L19.7938 16.565ZM21.661 10.4234L21.5558 5.89178L20.1175 3.55109L19.7938 6.3446L19.8988 6.57384L21.661 10.4234ZM19.2726 16.9474L19.6696 19.981L16.3319 19.525V16.8903L19.2726 16.9474ZM16.5794 11.4737L15.8022 16.3502L11.2125 16.9904L6.28672 16.3484L5.57583 11.6112L6.35338 6.73313L11.1455 6.02752L15.8679 6.73241L16.5794 11.4737ZM5.43653 21.7183L3.29742 20.5356L6.08027 20.1195L6.32154 20.0835V20.0473L6.43663 20.1004L10.4347 21.9486L5.43653 21.7183ZM11.9786 21.95L17.1217 21.7185L19.166 20.4837L16.0667 20.0602L15.9798 20.1004L11.9786 21.95ZM15.7656 19.3687L11.87 17.4706L15.7656 16.927V19.3687ZM10.5397 17.4739L6.43013 19.4762L6.32154 19.5291V16.924L10.5397 17.4739ZM3.09212 17.0092L5.75525 16.8969V19.5955L2.75165 20.0446L3.09212 17.0092ZM3.09211 6.07548L2.75161 3.03993L5.82335 3.49634V6.18822L3.09211 6.07548ZM11.1397 1.1166L7.01495 3.17788L11.2053 5.09073L15.2773 3.18432L11.1397 1.1166ZM11.2082 17.7754L7.09088 19.7816L11.2082 21.6849L15.3256 19.7816L11.2082 17.7754ZM19.5683 7.21834L21.5487 11.5444L19.5686 15.7137L17.3506 11.544L19.5683 7.21834ZM4.76665 11.5461L2.72967 7.26742L0.797096 11.5462L2.72961 15.7218L4.76665 11.5461Z" fill="#344444" fill-opacity="0.7"/>
<path id="Vector_2" fill-rule="evenodd" clip-rule="evenodd" d="M26.7872 21.4938L25.4655 25.006H28.8729C29.4807 24.2989 30.0978 23.5491 30.7459 22.7294C29.4836 22.6422 28.2366 22.2117 26.7872 21.4938ZM31.0722 23.2068C30.5664 23.8439 30.0788 24.4394 29.5989 25.006H31.0722V23.2068ZM31.6244 25.006H33.0945C32.6162 24.4395 32.1297 23.8441 31.6244 23.207V25.006ZM31.9348 22.7094C32.5883 23.537 33.2088 24.2932 33.8195 25.006H36.9994L35.6229 21.5278C34.2472 22.2031 33.0683 22.5938 31.9348 22.7094ZM36.2243 21.5469L37.57 24.947L39.633 23.4847C38.86 22.6564 37.7753 21.9804 36.2243 21.5469ZM39.9915 23.9077L38.0592 25.2775L41.2815 26.7519C41.0225 25.702 40.6284 24.7355 39.9915 23.9077ZM41.3132 27.3739L37.6328 25.6899L37.2559 28.6948C38.0282 29.4605 38.8466 30.2379 39.7489 31.0729L41.3132 27.3739ZM39.1447 31.2659C38.4667 30.6358 37.835 30.0364 37.2331 29.4476V31.2659H39.1447ZM37.2331 31.8184V33.5686C37.8253 32.9994 38.4493 32.4218 39.1232 31.8184H37.2331ZM39.7518 31.9979C38.8412 32.8068 38.0232 33.566 37.2547 34.3166L37.4324 36.9709L41.348 35.559L39.7518 31.9979ZM41.3267 36.1541L37.8212 37.4179L39.9935 38.9549C40.0715 38.845 40.1458 38.7343 40.2167 38.6234C40.8226 37.6746 41.161 36.7244 41.3267 36.1541ZM39.6574 39.394L37.3478 37.7597L36.2261 41.4857C37.758 41.19 38.8649 40.3536 39.6574 39.394ZM35.6654 41.433L36.8098 37.6313H34.1138C33.4033 38.438 32.6805 39.2949 31.9034 40.2423C33.0649 40.3546 34.2685 40.7495 35.6654 41.433ZM31.6244 39.7119C32.2346 38.9706 32.8128 38.2836 33.3799 37.6313H31.6244V39.7119ZM31.0722 37.6313H29.3125C29.8816 38.2836 30.4615 38.9707 31.0722 39.7122V37.6313ZM30.7767 40.2223C30.0053 39.2829 29.2858 38.4324 28.5775 37.6313H25.4551L26.782 41.4444C28.2367 40.725 29.4988 40.3013 30.7767 40.2223ZM26.21 41.4809L24.9449 37.8453L22.7039 39.4695C23.4692 40.3835 24.5838 41.1756 26.21 41.4809ZM22.3681 39.0306L24.5587 37.443L21.1508 36.1017C21.2751 36.7419 21.5635 37.7657 22.1869 38.7572C22.2443 38.8488 22.3048 38.94 22.3681 39.0306ZM21.1836 35.5209L24.8978 36.9827L25.4032 34.2968C24.6353 33.5499 23.8187 32.7942 22.9117 31.9893L21.1836 35.5209ZM23.5504 31.8184C24.2321 32.4284 24.8638 33.012 25.4636 33.5873V31.8184H23.5504ZM25.4636 31.2659V29.4285C24.8539 30.0235 24.2146 30.6291 23.5287 31.2659H25.4636ZM22.9092 31.087C23.8334 30.2324 24.671 29.4384 25.4621 28.6556L24.8641 25.6764L21.1048 27.3695L22.9092 31.087ZM21.1438 26.746L24.4974 25.2356L22.4633 23.8843C21.8339 24.7186 21.4368 25.6916 21.1438 26.746ZM22.818 23.4568L24.9304 24.8601L26.1922 21.5071C24.645 21.9404 23.5798 22.6218 22.818 23.4568ZM27.56 21.2509C28.8596 21.8481 29.9626 22.1653 31.0722 22.1916V21.0037C29.7425 21.0216 28.5022 21.1294 27.56 21.2509ZM31.6244 21.0016V22.1806C32.621 22.118 33.6672 21.8213 34.9043 21.2571C33.8443 21.08 32.7145 21.0082 31.6244 21.0016ZM25.4862 25.9699L26.9499 27.1369C26.6158 27.4897 26.2773 27.8383 25.9312 28.1872L25.4862 25.9699ZM26.0157 28.8843V34.0272L26.0005 34.1083C26.9882 35.0782 27.9003 36.0395 28.8257 37.0787H33.865C34.7893 36.0367 35.6994 35.0729 36.6869 34.1L36.6809 34.0107V28.9019C35.5934 27.8159 34.5909 26.7447 33.5663 25.5585H29.1255C28.1027 26.7384 27.1003 27.8045 26.0157 28.8843ZM28.3921 25.5585H25.8562L27.3293 26.7328C27.6853 26.3499 28.0381 25.9603 28.3921 25.5585ZM34.2986 25.5585C34.611 25.9145 34.9223 26.261 35.2359 26.6017L36.7075 25.5585H34.2986ZM37.0372 26.0019L35.6151 27.01C35.9907 27.4104 36.371 27.8049 36.7615 28.1998L37.0372 26.0019ZM36.7358 34.8299C36.3786 35.1875 36.0306 35.5453 35.6868 35.9078L36.8635 36.7404L36.7358 34.8299ZM36.3854 37.0787L35.305 36.3143C35.0712 36.5657 34.8385 36.82 34.6057 37.0787H36.3854ZM28.0837 37.0787C27.8064 36.772 27.5295 36.4714 27.2503 36.1745L26.0026 37.0787H28.0837ZM25.5017 36.7596L26.8666 35.7704C26.5424 35.4323 26.2139 35.0977 25.8773 34.763L25.5017 36.7596ZM20.8488 28.1068L22.3822 31.2659H20.7171C20.686 30.1856 20.711 29.073 20.8488 28.1068ZM20.7378 31.8184C20.742 31.9107 20.7465 32.0026 20.7514 32.0938C20.8052 33.0997 20.8961 34.0212 20.9709 34.6993L22.3806 31.8184H20.7378ZM27.6021 41.6668C29.2399 41.866 30.1963 41.9668 31.0722 41.98V40.7628C29.971 40.7867 28.8749 41.0901 27.6021 41.6668ZM31.6244 40.7743V41.9766C32.4721 41.9536 33.3652 41.849 34.8627 41.6666C33.6528 41.1247 32.616 40.8365 31.6244 40.7743ZM41.5536 34.6675L40.2766 31.8184H41.6812C41.6789 31.9805 41.6755 32.141 41.6715 32.2993C41.6482 33.2215 41.6005 34.0558 41.5536 34.6675ZM41.686 31.2659C41.6884 30.2279 41.6517 29.1615 41.5466 28.2395L40.2667 31.2659H41.686ZM26.5902 20.8368C28.3855 20.527 32.5699 20.1268 35.8306 20.8769C37.8825 21.3489 39.2752 22.2055 40.2251 23.3191C41.1721 24.429 41.6592 25.7712 41.9426 27.1798C42.2277 28.5961 42.2668 30.6053 42.2235 32.3133C42.1803 34.0173 42.0534 35.4691 41.9924 35.7724C41.933 36.0677 41.5939 37.4928 40.6819 38.921C39.7673 40.353 38.2602 41.8108 35.8685 42.1007C35.6259 42.1301 35.3964 42.1581 35.1787 42.1847C33.3564 42.4071 32.3576 42.529 31.3338 42.5339C30.1864 42.5392 29.0087 42.3979 26.6032 42.1006C24.0946 41.7906 22.5968 40.4469 21.7195 39.0514C20.8484 37.6659 20.588 36.2306 20.5296 35.6985C20.521 35.62 20.5091 35.5187 20.495 35.3974C20.4186 34.7442 20.2744 33.5113 20.2001 32.1234C20.1123 30.4837 20.1197 28.5947 20.4639 27.1694C20.802 25.7694 21.2884 24.4207 22.2195 23.3029C23.1554 22.1795 24.5209 21.3123 26.5752 20.8398L26.5826 20.8381L26.5902 20.8368Z" fill="#344444" fill-opacity="0.7"/>
</g>
<defs>
<clipPath id="clip0_1_5486">
<rect width="43" height="43" fill="white"/>
</clipPath>
</defs>
</svg>
