<svg width="43" height="43" viewBox="0 0 43 43" fill="none" xmlns="http://www.w3.org/2000/svg">
<g id="svgexport-70" clip-path="url(#clip0_1_5506)">
<path id="Vector" fill-rule="evenodd" clip-rule="evenodd" d="M0.362549 0.903992H18.7899V27.3932H0.362549V0.903992ZM1.30147 1.47985L3.91976 4.35914H15.0247L17.821 1.47985H1.30147ZM18.214 1.90168L15.4309 4.76745V23.7282L18.214 26.4253V1.90168ZM17.7911 26.8174L15.1172 24.2261H3.83275L1.32903 26.8174H17.7911ZM0.938399 26.3929V1.93652L3.41898 4.66437V23.8256L0.938399 26.3929ZM4.38914 23.6502H14.523L13.6317 22.7864H5.22369L4.38914 23.6502ZM5.38945 22.2106H13.4604V6.37462H5.38945V22.2106ZM5.22888 5.79877H13.6266L14.4655 4.93499H4.44341L5.22888 5.79877ZM3.99482 5.29763V23.2296L4.81361 22.3821V6.19803L3.99482 5.29763ZM14.8551 5.3604L14.0363 6.20351V22.3766L14.8551 23.1701V5.3604Z" fill="#344444" fill-opacity="0.7"/>
<path id="Vector_2" fill-rule="evenodd" clip-rule="evenodd" d="M31.797 18.2483H35.1511L40.4551 22.7648L41.6034 26.5529L42.6372 30.2235L40.5694 37.5769L35.1358 42.0954L28.4456 42.0827L22.9109 37.5661L20.958 30.2241L22.9105 22.7765L28.4318 18.2609L31.797 18.2483ZM30.8644 18.7702L28.8544 18.7778L29.155 19.8511C29.5751 19.6011 29.9222 19.3765 30.2724 19.1498L30.2736 19.149C30.4655 19.0247 30.6586 18.8998 30.8644 18.7702ZM28.6809 20.0302L26.6014 20.4201L28.3823 18.9636L28.6809 20.0302ZM25.2358 21.5369L23.5332 22.9292L24.3129 23.5859L25.2358 21.5369ZM24.9455 24.1186L26.0818 25.0756C26.3864 24.5843 26.6831 24.0841 26.981 23.5592C26.3436 23.7454 25.6725 23.9287 24.9455 24.1186ZM27.6798 23.3496C27.2784 24.0748 26.8836 24.7481 26.4743 25.4061L31.3314 29.4967L29.4457 22.7619C28.8676 22.9699 28.2861 23.1628 27.6798 23.3496ZM29.306 22.2629C28.8873 22.4139 28.4668 22.5569 28.0362 22.6954C28.328 22.1514 28.6264 21.5751 28.9392 20.9528L29.306 22.2629ZM29.921 22.5871L31.7964 29.2852L33.6587 22.5992C33.0388 22.3677 32.4209 22.1173 31.7752 21.8346C31.1381 22.1118 30.5282 22.3591 29.921 22.5871ZM31.1345 21.5475C30.675 21.7411 30.2273 21.9198 29.7812 22.0878L29.3959 20.7118C30.0119 21.0204 30.5859 21.2965 31.1345 21.5475ZM32.4178 21.5493C32.885 21.7469 33.3409 21.9285 33.7978 22.0997L34.1841 20.713C33.5597 21.0199 32.976 21.2966 32.4178 21.5493ZM34.6464 20.9346L34.2733 22.2741C34.6971 22.4261 35.1254 22.5711 35.5681 22.7133C35.2704 22.1588 34.9659 21.5707 34.6464 20.9346ZM35.9251 23.3681C35.3036 23.1756 34.7147 22.981 34.1342 22.7732L32.2666 29.4781L37.0674 25.3211C36.6804 24.6956 36.3056 24.0551 35.9251 23.3681ZM37.4563 24.9844C37.1755 24.5289 36.901 24.0651 36.6256 23.5803C37.2022 23.7513 37.8117 23.9239 38.4708 24.106L37.4563 24.9844ZM37.3427 25.7603L32.4876 29.9644H38.5182C38.5146 29.1985 38.5295 28.4185 38.5656 27.5926C38.1307 26.9691 37.7288 26.3683 37.3427 25.7603ZM38.6084 26.7588C38.303 26.3101 38.0128 25.8693 37.731 25.4241L38.7784 24.5172C38.7058 25.3138 38.6497 26.0552 38.6084 26.7588ZM39.0444 28.2696C39.0265 28.85 39.0193 29.4108 39.0219 29.9644H40.2871C39.8391 29.3649 39.4282 28.8058 39.0444 28.2696ZM40.2876 30.4828H39.0272C39.0358 31.0356 39.054 31.5851 39.0806 32.1437C39.4531 31.6158 39.8523 31.0672 40.2876 30.4828ZM38.6117 32.8176C38.5658 32.0242 38.5354 31.2571 38.5234 30.4828H32.5022L37.4265 34.63C37.7999 34.0292 38.1895 33.4338 38.6117 32.8176ZM37.8191 34.9606C38.0903 34.5229 38.3699 34.0885 38.6644 33.6471C38.7119 34.3367 38.7698 35.0533 38.8362 35.8172L37.8191 34.9606ZM37.1556 35.0717L32.2627 30.9509L34.1463 37.6814C34.7624 37.4482 35.3833 37.232 36.0345 37.0239C36.4074 36.3411 36.7749 35.7001 37.1556 35.0717ZM36.7336 36.8071C37.0034 36.3241 37.2727 35.8597 37.5487 35.4027L38.595 36.2839C37.934 36.4583 37.3191 36.6308 36.7336 36.8071ZM35.6793 37.6839C35.2055 37.8424 34.7446 38.0068 34.2861 38.1808L34.6873 39.6143C35.0332 38.9228 35.3603 38.2852 35.6793 37.6839ZM34.2201 39.818L33.8132 38.3641C33.3592 38.5435 32.9037 38.7336 32.4363 38.9382C33.0048 39.2059 33.5941 39.4972 34.2201 39.818ZM31.8127 38.6503C32.4511 38.3637 33.0631 38.1044 33.6733 37.864L31.7964 31.1578L29.913 37.8525C30.5427 38.0958 31.1676 38.3586 31.8127 38.6503ZM29.7725 38.3519C30.2426 38.5342 30.7103 38.7276 31.1864 38.9362C30.6101 39.2034 30.0073 39.4938 29.3615 39.813L29.7725 38.3519ZM29.439 37.6734L31.3327 30.9419L26.4113 35.0269C26.8042 35.6743 27.1828 36.3345 27.5674 37.0401C28.2159 37.2409 28.8325 37.4492 29.439 37.6734ZM27.9187 37.6938C28.3904 37.8467 28.8472 38.005 29.2986 38.1723L28.8972 39.599C28.556 38.9167 28.2333 38.2873 27.9187 37.6938ZM26.8734 36.8315C26.5896 36.3225 26.3067 35.8348 26.0163 35.3548L24.8871 36.292C25.5945 36.4721 26.2508 36.6498 26.8734 36.8315ZM24.6537 35.8197L25.7457 34.9133C25.4547 34.4448 25.1537 33.9797 24.8347 33.5051C24.7856 34.2399 24.7246 35.0032 24.6537 35.8197ZM24.8855 32.6765C25.335 33.3282 25.7468 33.9544 26.1401 34.586L31.0836 30.4828H24.9651C24.954 31.2113 24.9266 31.9334 24.8855 32.6765ZM24.4613 30.4828C24.4534 30.9896 24.4377 31.4936 24.4148 32.0041C24.0708 31.5195 23.7038 31.0162 23.3064 30.4828H24.4613ZM24.9702 29.9644H31.0912L26.1985 25.8438C25.7993 26.4695 25.3823 27.089 24.9289 27.7349C24.9605 28.5077 24.9735 29.2423 24.9702 29.9644ZM24.4483 28.411C24.4631 28.941 24.4688 29.4557 24.4665 29.9644H23.3069C23.7156 29.4174 24.0936 28.904 24.4483 28.411ZM24.8885 26.9013C25.2092 26.4335 25.5126 25.9754 25.8065 25.5136L24.7182 24.597C24.7918 25.4163 24.848 26.178 24.8885 26.9013ZM24.2147 24.6244C24.3111 25.6934 24.3777 26.6633 24.4181 27.5771C23.9668 28.2164 23.4784 28.8841 22.9346 29.6122L22.4019 26.8164L24.2147 24.6244ZM24.0449 24.03L22.6667 25.6962L23.2738 23.3806L24.0449 24.03ZM22.0925 27.8867L21.5478 29.9644H22.4884L22.0925 27.8867ZM22.4941 30.4828L22.1228 32.6397L21.5491 30.4828H22.4941ZM22.7143 34.8633L23.2734 36.9655L23.9793 36.3796L22.7143 34.8633ZM24.1506 35.7892C24.2428 34.7291 24.3183 33.7602 24.3723 32.8285C23.9378 32.2028 23.4671 31.5514 22.943 30.8469L22.4443 33.744L24.1506 35.7892ZM24.2523 36.8189L23.5353 37.4141L25.1356 38.7199L24.2523 36.8189ZM26.8274 40.1005L28.396 41.3805L28.6451 40.4952L26.8274 40.1005ZM29.1186 40.6762L30.7713 41.5686L28.8685 41.5651L29.1186 40.6762ZM32.822 41.5726L34.7121 41.5762L34.4647 40.6919L32.822 41.5726ZM34.9381 40.5104L36.7158 40.1149L35.184 41.3888L34.9381 40.5104ZM38.3779 38.7328L39.9502 37.4252L39.2338 36.8219L38.3779 38.7328ZM39.5033 36.379L40.81 34.8563L40.2136 36.9772L39.5033 36.379ZM41.4336 32.6388L41.0953 30.4828H42.0399L41.4336 32.6388ZM42.0398 29.9644H41.0952L41.4326 27.8083L42.0398 29.9644ZM40.7766 25.5662L40.1093 23.3648L39.3973 23.9813L40.7766 25.5662ZM39.2751 24.618C39.183 25.6361 39.1181 26.563 39.077 27.4362C39.5514 28.1121 40.0662 28.8175 40.6435 29.5908L41.0944 26.7084L39.2751 24.618ZM40.6437 30.8567C40.084 31.6094 39.5847 32.3021 39.1252 32.9682C39.1788 33.8552 39.2515 34.7792 39.3393 35.7869L41.0962 33.7398L40.6437 30.8567ZM39.1456 23.5217L38.3187 21.6184L39.8438 22.9172L39.1456 23.5217ZM36.7869 20.3141L34.9016 20.0185L35.1965 18.9597L36.7869 20.3141ZM34.7262 18.7667H32.704L34.4287 19.8348L34.7262 18.7667ZM34.0492 20.2048L31.793 18.8075C31.3108 19.09 30.9277 19.338 30.5406 19.5885L30.5394 19.5894C30.2294 19.79 29.9169 19.9923 29.5517 20.2132C30.3534 20.616 31.0823 20.9629 31.776 21.271C32.4854 20.9584 33.2318 20.6078 34.0492 20.2048ZM28.5594 20.58C28.1321 21.4333 27.7329 22.1991 27.3418 22.9122C26.5723 23.1456 25.7592 23.3709 24.8589 23.6064L26.0064 21.0586L28.5594 20.58ZM35.0266 20.5624C35.4609 21.4303 35.8661 22.2077 36.2632 22.931C36.9921 23.1539 37.7694 23.3757 38.6341 23.6143L37.4749 20.9464L35.0266 20.5624ZM38.6918 36.7935C37.8568 37.0142 37.0962 37.2318 36.3755 37.4582C35.9633 38.2197 35.5424 39.0357 35.0876 39.9468L37.5221 39.4053L38.6918 36.7935ZM34.0688 40.3197C33.2658 39.907 32.5248 39.5436 31.8118 39.2167C31.0971 39.5412 30.3455 39.9012 29.5221 40.3087L31.7974 41.5374L34.0688 40.3197ZM28.4979 39.9334C28.0491 39.0343 27.6338 38.2283 27.2274 37.4767C26.4766 37.2482 25.6802 37.0285 24.8042 36.8049L26.0064 39.3925L28.4979 39.9334Z" fill="#344444" fill-opacity="0.7"/>
</g>
<defs>
<clipPath id="clip0_1_5506">
<rect width="43" height="43" fill="white"/>
</clipPath>
</defs>
</svg>
