<svg width="43" height="43" viewBox="0 0 43 43" fill="none" xmlns="http://www.w3.org/2000/svg">
<path d="M21.7882 0.00164663C20.5117 -0.0137853 19.2324 0.0792312 18.009 0.281566C13.4112 1.04194 9.40631 3.12973 6.11173 6.48285C4.99004 7.62445 4.27346 8.51408 3.44831 9.79051C1.26603 13.1663 0.110816 16.9022 0.00745084 20.9176C-0.104513 25.2673 1.04695 29.4384 3.35536 33.0372C6.46487 37.885 11.347 41.3109 16.8637 42.5113C17.6845 42.6901 19.1586 42.9172 19.8946 42.9766C19.8995 42.9766 19.9171 42.9766 19.9224 42.9766C20.7372 43.0384 23.3252 42.9695 24.128 42.8652C29.0202 42.2252 33.2476 40.1527 36.7111 36.695C40.129 33.2828 42.1901 29.0736 42.8767 24.1149C43.0405 22.9322 43.0413 20.0541 42.8781 18.8667C42.7237 17.7418 42.4523 16.4137 42.1933 15.5236C39.9289 7.74396 33.5045 1.89563 25.5497 0.37284C24.3384 0.140965 23.0647 0.0170929 21.7882 0.00164663ZM22.6145 0.906549C24.1811 1.00009 25.8637 1.2792 27.3083 1.69711C27.6878 1.80686 28.2261 1.9885 28.6686 2.1499C28.8755 2.22533 29.054 2.2943 29.1923 2.35088C29.1529 2.45292 29.1115 2.56014 29.0495 2.71239C28.8891 3.10615 28.6616 3.64494 28.4075 4.23061C28.1529 4.81721 27.9169 5.35333 27.742 5.74347C27.7008 5.83544 27.6765 5.8871 27.6427 5.9615C27.5777 5.89866 27.5313 5.85491 27.4488 5.77423C27.1185 5.45132 26.6577 4.99416 26.1312 4.46804C25.0786 3.4158 23.7637 2.08671 22.6991 0.993511L22.6145 0.906549ZM20.3731 0.911473L19.5906 1.68364C18.8032 2.46069 17.5552 3.69055 16.8179 4.41643C15.8683 5.3514 15.4397 5.77137 15.1954 5.99417C15.1472 5.88451 15.0966 5.76901 15.0302 5.61662C14.8605 5.22696 14.6419 4.72164 14.4254 4.21845C14.2087 3.71528 13.9942 3.21411 13.8325 2.83367C13.7608 2.66521 13.7048 2.53253 13.6586 2.422C13.8111 2.34914 14.0423 2.25396 14.3216 2.1518C14.8916 1.94336 15.6502 1.70518 16.3507 1.52678C17.7206 1.17796 18.9507 0.995138 20.3731 0.911473ZM21.5007 1.04757L24.2935 3.86732C25.127 4.70906 25.8847 5.47908 26.4332 6.04097C26.6777 6.2914 26.8622 6.4824 27.0114 6.63758C26.8925 6.69732 26.783 6.75274 26.6152 6.8352C26.1228 7.07709 25.4421 7.40557 24.6938 7.76186C23.195 8.47538 21.7994 9.13902 21.6046 9.23058L21.3859 9.33327L20.9837 9.14163C20.2789 8.80539 19.0132 8.19521 17.3295 7.38064C16.6456 7.04976 16.0557 6.76989 15.8087 6.65863C15.8108 6.65577 15.8122 6.65529 15.8143 6.65234C16.0024 6.46012 16.2639 6.19852 16.5516 5.9163C17.1302 5.34868 18.5347 3.96739 19.6735 2.84609L21.5007 1.04757ZM30.0339 2.70994C30.0578 2.71844 30.0552 2.71485 30.0851 2.72732C30.3064 2.8186 30.688 3.01096 31.2648 3.32124C32.755 4.12291 34.3491 5.25966 35.5066 6.33494L32.157 6.33683L28.4583 6.33876L28.4693 6.31272C28.7943 5.551 29.1988 4.61455 29.5276 3.85982C29.6921 3.48246 29.8377 3.15059 29.9447 2.90908C29.9817 2.82543 30.0071 2.76976 30.0339 2.70994ZM12.8356 2.76645C12.8426 2.78112 12.8485 2.78814 12.855 2.80357C12.9345 2.99356 13.3369 3.92385 13.7606 4.89729C13.9722 5.38374 14.1683 5.83469 14.3136 6.16907C14.3502 6.25333 14.3455 6.24247 14.3758 6.31252C14.2719 6.31586 14.2158 6.32107 14.0602 6.32389C13.4475 6.33493 12.4157 6.33827 10.7738 6.33721L7.51983 6.33532C8.46641 5.46708 9.59499 4.60127 10.6567 3.94996C11.0346 3.71818 11.6197 3.39218 12.1197 3.128C12.3697 2.9959 12.5993 2.87868 12.7698 2.7966C12.7974 2.78332 12.8113 2.77782 12.8356 2.76645ZM6.88985 7.20773H10.7212C11.8683 7.20773 12.9115 7.21203 13.6666 7.21777C13.9947 7.22063 14.2387 7.22343 14.4424 7.2271C14.3703 7.46461 14.2737 7.77844 14.1662 8.1243C13.9449 8.83574 13.7017 9.62188 13.6241 9.87626C13.3658 10.7233 13.1246 11.4949 12.9426 12.0603C12.8516 12.343 12.7754 12.5745 12.7199 12.7362C12.6962 12.8051 12.6784 12.8538 12.6634 12.8943C12.6186 12.9148 12.5439 12.9463 12.3922 13.0027C12.0549 13.1281 11.416 13.3523 10.2123 13.7732C9.29038 14.0956 8.07658 14.5219 7.51316 14.7212C7.27923 14.8039 7.08171 14.8727 6.9059 14.9336C6.90308 14.7256 6.90028 14.4805 6.89825 14.149C6.89333 13.3762 6.88989 12.309 6.88989 11.1353L6.88985 7.20773ZM32.1396 7.20773H36.0015V8.64974C36.0015 9.63529 36.0197 11.5283 36.0419 12.8642C36.0539 13.5882 36.0586 14.1926 36.0559 14.6122C36.0554 14.705 36.0532 14.7504 36.0517 14.8242C35.8768 14.7675 35.6729 14.7009 35.4113 14.6136C34.8043 14.4111 34.0074 14.1408 33.2134 13.8692C32.4195 13.5975 31.6283 13.3243 31.0329 13.1154C30.7352 13.011 30.4862 12.9225 30.3116 12.8589C30.2482 12.8358 30.2074 12.8202 30.1655 12.8044C30.1598 12.7899 30.1571 12.7832 30.1508 12.766C30.1125 12.6616 30.0599 12.5101 29.9976 12.3256C29.8732 11.9564 29.7101 11.4539 29.5395 10.9107C29.1295 9.60468 28.8099 8.58314 28.5933 7.88428C28.5038 7.59586 28.4434 7.3985 28.39 7.22313C28.5954 7.22026 28.8415 7.2175 29.172 7.21549C29.933 7.21058 30.984 7.20773 32.1396 7.20773ZM15.3158 7.40069C15.4526 7.46311 15.606 7.53406 15.7903 7.62206C17.55 8.46274 18.8217 9.07241 19.6579 9.47602C19.9481 9.61615 20.1187 9.69962 20.3059 9.79101C19.8957 9.95888 18.5478 10.5104 16.7547 11.2434C15.7689 11.6463 14.8663 12.0127 14.2067 12.2781C14.0089 12.3576 13.8848 12.4067 13.7351 12.4663C13.7557 12.4013 13.7681 12.3635 13.7913 12.2897C13.9423 11.8108 14.1467 11.1571 14.3681 10.4439C14.8525 8.88312 15.115 8.03788 15.2583 7.58126C15.2882 7.48583 15.2953 7.46505 15.3158 7.40069ZM27.515 7.40355C27.5582 7.53848 27.6045 7.6828 27.6675 7.8811C27.8266 8.38238 28.0387 9.05504 28.2554 9.74279C28.6375 10.9561 28.9631 11.9994 29.099 12.4424C28.6308 12.2547 27.6338 11.8555 25.8688 11.149C24.8049 10.723 23.824 10.3294 23.1007 10.0391C22.842 9.93511 22.6631 9.86327 22.4784 9.78891C22.817 9.62913 23.3453 9.37821 24.0003 9.0649C25.216 8.48322 26.1799 8.02557 26.8405 7.7159C27.1351 7.57776 27.3465 7.48024 27.515 7.40355ZM36.8745 7.74935C37.709 8.68338 38.5897 9.84877 39.2477 10.9443C39.4458 11.2741 39.7322 11.8031 39.9821 12.2913C40.2124 12.7415 40.3928 13.1326 40.4608 13.3039C40.4608 13.3039 40.4589 13.3044 40.4559 13.3053C40.3503 13.348 40.208 13.4063 40.038 13.4765C39.698 13.6169 39.2481 13.8045 38.77 14.0059C37.8999 14.3724 37.1756 14.6738 36.9298 14.774V13.4621C36.9298 12.4581 36.9146 10.5583 36.8957 9.23387L36.8745 7.74935ZM6.02011 7.88311L6.02082 10.8386L6.02049 11.181C6.02082 12.3424 6.01976 13.3983 6.017 14.163C6.01628 14.4649 6.0149 14.678 6.01351 14.8776C5.9982 14.8706 5.99161 14.8678 5.97574 14.8605C5.66239 14.7186 5.23186 14.523 4.76023 14.3081C3.81559 13.8776 2.87634 13.4545 2.63854 13.3534L2.54892 13.3152C2.71996 12.8858 3.35554 11.6379 3.75875 10.959C4.36281 9.94194 5.15086 8.8908 6.02011 7.88311ZM21.3709 10.3085C21.3808 10.3119 21.3861 10.3142 21.3987 10.3186C21.457 10.3402 21.5427 10.3729 21.6518 10.4149C21.8699 10.4989 22.1811 10.6203 22.5613 10.7701C23.3217 11.0694 24.3588 11.4816 25.4882 11.9338L29.4625 13.5253L30.9541 17.1923C31.8048 19.2834 32.5548 21.1294 32.6101 21.2671L32.6672 21.4099L32.4883 21.8286C32.3583 22.1329 31.5842 23.9538 30.7662 25.8793L29.3334 29.2518L26.1801 30.5657C24.3751 31.318 22.5115 32.093 22.043 32.2862L21.3164 32.5858L19.3783 31.7946C16.7501 30.722 15.2109 30.0923 14.3229 29.724C13.879 29.5398 13.5976 29.4208 13.4272 29.3458C13.3573 29.3147 13.3174 29.2967 13.2834 29.2805C13.2749 29.2638 13.2692 29.2518 13.2582 29.2285C13.2165 29.1399 13.1581 29.0115 13.0891 28.855C12.9509 28.542 12.7687 28.1164 12.5764 27.6568C12.1903 26.7337 11.4416 24.9495 10.9125 23.6911C10.6484 23.0628 10.4084 22.4847 10.2347 22.0605C10.1479 21.8485 10.0776 21.6747 10.0297 21.5535C10.0168 21.5206 10.0101 21.5037 10.0007 21.4789C10.0227 21.4242 10.0506 21.3567 10.0892 21.2633C10.177 21.0516 10.3044 20.7479 10.4618 20.3758C10.7766 19.6313 11.2111 18.6121 11.689 17.4985L13.3719 13.5765L13.8743 13.3719C15.4721 12.7207 19.4992 11.0733 20.0531 10.8444C20.6635 10.5921 21.0149 10.4486 21.2147 10.3729C21.3992 10.3031 21.4146 10.3119 21.3709 10.3085ZM30.5907 13.9359C30.7021 13.9718 30.7808 13.9967 30.9151 14.0403C31.5012 14.2307 32.2822 14.4877 33.0639 14.7469C33.8454 15.006 34.628 15.2673 35.2173 15.4665C35.4749 15.5535 35.6742 15.6221 35.8413 15.6798C35.8271 15.7058 35.8202 15.7191 35.8045 15.7479C35.6651 16.0041 35.4703 16.3584 35.2534 16.7505C34.8196 17.5347 34.2969 18.4712 33.951 19.0797C33.8055 19.3354 33.5131 19.8621 33.2969 20.2571C33.2668 20.3126 33.2458 20.3466 33.217 20.3983C33.2127 20.3882 33.2107 20.3849 33.2066 20.3743C33.043 19.9871 32.8211 19.4506 32.5812 18.8605C32.1008 17.6777 31.3963 15.944 31.0157 15.0074C30.8471 14.5925 30.7061 14.2343 30.5907 13.9359ZM12.2197 14.0105C12.1851 14.094 12.1781 14.1148 12.1331 14.2219C11.8373 14.925 11.3052 16.1661 10.3785 18.3193C10.0575 19.0653 9.76329 19.7457 9.54821 20.2405C9.51493 20.3172 9.49798 20.3554 9.46866 20.4227C9.44131 20.3708 9.43099 20.3532 9.39977 20.2941C9.12973 19.7808 8.7153 18.9788 8.13179 17.8418C7.82124 17.2367 7.4181 16.4601 7.23295 16.1102C7.17124 15.9936 7.12666 15.903 7.0798 15.809C7.24579 15.7479 7.45387 15.6731 7.71648 15.5795C8.29467 15.3735 9.06196 15.1035 9.82848 14.8358C10.595 14.5681 11.3607 14.3031 11.9355 14.1064C12.053 14.0662 12.1197 14.0444 12.2197 14.0105ZM40.7979 14.1148C40.8566 14.2927 40.9375 14.5348 41.0738 14.9362C41.6767 16.7117 41.985 18.328 42.1174 20.373C42.0251 20.2828 41.9645 20.2242 41.8536 20.1155C41.3255 19.5974 40.6007 18.8822 39.8071 18.0956L37.2788 15.5899C37.4795 15.5033 37.7652 15.3808 38.0911 15.2441C38.4939 15.0751 39.3149 14.7293 39.9164 14.475C40.215 14.3488 40.4948 14.234 40.7027 14.1516C40.7424 14.1359 40.7639 14.128 40.7979 14.1148ZM2.22646 14.1397C2.3302 14.1845 2.43681 14.2308 2.58425 14.2958C2.97225 14.4667 3.48639 14.6958 4.00106 14.9265C4.51574 15.1572 5.03138 15.3895 5.42188 15.5675C5.52609 15.6152 5.59174 15.6457 5.67569 15.6843C5.58381 15.7781 5.52156 15.8435 5.36102 16.0036C4.83623 16.527 3.90808 17.4407 2.31641 19.0036C1.65005 19.6579 1.19972 20.0929 0.898929 20.382C0.981067 19.0818 1.16486 17.769 1.43396 16.6443C1.52787 16.2518 1.74687 15.5332 1.94891 14.9268C2.04994 14.6236 2.14744 14.3461 2.22211 14.1503C2.22421 14.1454 2.22507 14.144 2.22646 14.1397ZM36.599 16.1828C36.7486 16.3271 36.9377 16.5106 37.1828 16.7504C37.7222 17.2775 38.4617 18.0053 39.2708 18.806L41.9669 21.4739L39.2731 24.113C38.4643 24.9053 37.7247 25.6256 37.1852 26.1472C36.9427 26.3818 36.757 26.5597 36.6077 26.702C36.5247 26.5586 36.4336 26.4011 36.3121 26.187C36.0111 25.6571 35.613 24.9478 35.215 24.2345C34.817 23.5212 34.419 22.8036 34.1192 22.2567C33.9693 21.9833 33.8439 21.7524 33.7557 21.5873C33.7203 21.5212 33.6963 21.4743 33.6741 21.4314C33.6741 21.4314 33.6747 21.4314 33.6755 21.4242C33.7142 21.338 33.7856 21.1956 33.8928 20.9939C34.1073 20.5902 34.4667 19.9443 35.0244 18.9567C35.3655 18.3525 35.9033 17.3987 36.2196 16.8368C36.3639 16.5803 36.4935 16.3573 36.5987 16.18L36.599 16.1828ZM6.33443 16.3069C6.34608 16.328 6.35177 16.3371 6.36419 16.3603C6.50477 16.6194 6.69458 16.98 6.89789 17.3765C7.30684 18.1741 7.9683 19.4573 8.36855 20.2298L9.01492 21.4771L7.6526 24.1717C7.25675 24.9548 6.89226 25.667 6.62435 26.1822C6.5251 26.373 6.45603 26.5031 6.38693 26.633C6.32642 26.5761 6.28357 26.5361 6.20669 26.4631C5.89804 26.1699 5.46446 25.754 4.95976 25.2672C3.95036 24.2937 2.65558 23.0365 1.49817 21.9028L1.05877 21.4723L1.92551 20.62C3.76284 18.8132 4.93574 17.6622 5.65328 16.9639C5.97514 16.6506 6.17814 16.4553 6.33443 16.3069ZM33.1962 22.4327C33.2662 22.556 33.3256 22.6604 33.4149 22.8195C33.7131 23.3504 34.1046 24.0531 34.4934 24.7542C34.8822 25.4551 35.2684 26.1546 35.5557 26.6792C35.6735 26.8945 35.7605 27.0549 35.8382 27.1989C35.7727 27.2204 35.7276 27.2353 35.647 27.2621C35.297 27.377 34.8159 27.5338 34.2883 27.7048C33.2497 28.0417 31.8568 28.4963 31.1384 28.7325H31.137L31.0848 28.7502C30.8269 28.8351 30.6195 28.9017 30.4141 28.9679C30.4668 28.8433 30.5123 28.7354 30.5817 28.5717C30.8041 28.0463 31.1038 27.3402 31.4253 26.5835C32.0683 25.0703 32.7987 23.3547 33.1734 22.4801C33.182 22.4595 33.1878 22.4513 33.1962 22.4327ZM0.897596 22.5419C1.05461 22.6943 1.21008 22.8466 1.46439 23.0941C2.89762 24.4893 4.40628 25.9561 5.28846 26.813C5.47788 26.9971 5.63995 27.1585 5.77333 27.2933C5.63529 27.3701 5.50181 27.4443 5.19349 27.6089C4.50696 27.9757 4.34746 28.0625 3.01595 28.7924C2.75731 28.9342 2.52111 29.0622 2.34449 29.1562C2.29893 29.0443 2.25154 28.9275 2.19202 28.7647C2.03595 28.3374 1.84721 27.7745 1.69043 27.2528C1.27925 25.8843 1.012 24.2727 0.897596 22.5419ZM9.47339 22.5491C9.57065 22.7771 9.67102 23.0124 9.80672 23.3331C10.1625 24.1734 10.6242 25.2709 11.057 26.3059C11.2257 26.7092 11.5935 27.5846 11.8749 28.2525C11.9793 28.5005 12.062 28.7022 12.1427 28.8995C11.8168 28.7828 10.4948 28.3177 9.18942 27.8605C8.53633 27.6318 7.94044 27.4217 7.5068 27.2676C7.35582 27.2143 7.25499 27.1777 7.148 27.1392C7.21322 27.0053 7.28515 26.8581 7.38709 26.653C7.63889 26.1462 7.98963 25.4483 8.37792 24.6833C8.76604 23.9184 9.12156 23.2251 9.38068 22.7257C9.41964 22.6507 9.43899 22.615 9.47339 22.5491ZM42.1144 22.5735C41.971 24.8171 41.6132 26.5629 40.8555 28.6654C40.7914 28.8431 40.7303 28.9912 40.6765 29.1159C40.6001 29.0781 40.5253 29.0414 40.4361 28.9935C40.1583 28.8442 39.2518 28.3741 38.4047 27.9395C37.9832 27.7231 37.5995 27.5224 37.3233 27.3746C37.2954 27.3599 37.2837 27.3526 37.2581 27.3388C37.2772 27.3192 37.2859 27.3101 37.3066 27.289C37.5229 27.0699 37.8229 26.771 38.1529 26.4466C40.3718 24.2648 41.6968 22.973 42.1144 22.5735ZM6.96944 28.03C7.11424 28.0792 7.25758 28.1275 7.46166 28.1976C8.02016 28.3894 8.76604 28.6484 9.51751 28.9109C10.2689 29.1734 11.0259 29.4391 11.6064 29.6453C11.8966 29.7482 12.1427 29.8366 12.3214 29.9014C12.4106 29.9338 12.483 29.9604 12.5346 29.9797C12.5546 29.9874 12.547 29.9868 12.5621 29.9902C12.59 30.0436 12.6425 30.1686 12.7172 30.3802C12.8667 30.803 13.1121 31.576 13.5435 32.9557C13.8082 33.8026 14.0488 34.5775 14.2233 35.1435C14.2897 35.359 14.336 35.5103 14.3808 35.6574C14.1792 35.6645 13.9376 35.6665 13.6124 35.6698C12.8627 35.6784 11.8269 35.6832 10.6874 35.6832H6.88647L6.92495 31.8046C6.93653 30.6432 6.94861 29.5858 6.95836 28.8178C6.96257 28.486 6.9662 28.2385 6.96944 28.03ZM36.0433 28.0799C36.0467 28.2911 36.0505 28.5472 36.055 28.8875C36.0651 29.6611 36.077 30.7267 36.0888 31.8965L36.1279 35.8054H32.174C30.9926 35.8054 29.9183 35.7983 29.1408 35.792C28.7928 35.792 28.5296 35.7843 28.3185 35.7796C28.3227 35.7648 28.3242 35.7586 28.3285 35.7438C28.4051 35.477 28.5108 35.114 28.6271 34.7205C28.8606 33.931 29.2758 32.515 29.5501 31.572L29.9978 30.0328L33.1468 29.0102C34.0596 28.7136 34.8908 28.4459 35.4942 28.2537C35.7258 28.1799 35.8873 28.1287 36.0433 28.0799ZM6.0833 28.1311L6.04722 31.7414C6.03578 32.8933 6.02384 33.9424 6.0138 34.7043C6.0117 34.8705 6.01031 34.9616 6.00818 35.0985C5.78044 34.838 5.52759 34.5448 5.34476 34.3171C4.84908 33.6996 4.26248 32.8511 3.80054 32.0812C3.62165 31.783 3.31465 31.2123 3.05786 30.7121C2.92947 30.462 2.8127 30.2282 2.72983 30.054C2.71565 30.0244 2.70948 30.0091 2.6974 29.9827C2.77308 29.9359 2.83883 29.8942 3.00971 29.7982C3.48623 29.5305 4.37507 29.0502 5.99682 28.1776L6.0833 28.1311ZM36.9197 28.1621L37.1033 28.2592C37.49 28.4635 38.4321 28.9515 39.2039 29.347C39.5891 29.5444 39.941 29.7253 40.1977 29.8577C40.2598 29.8901 40.2954 29.9082 40.3455 29.9342C40.3038 30.0261 40.2622 30.1182 40.2021 30.2425C40.0374 30.5832 39.8201 31.0108 39.6329 31.3558C39.1839 32.1829 38.3346 33.4688 37.7145 34.2591C37.507 34.5236 37.2222 34.8524 36.9953 35.1086L36.9939 34.1902C36.9925 33.1938 36.9728 31.3031 36.9504 29.9817L36.9197 28.1621ZM28.9873 30.3646C28.6874 31.3826 27.8187 34.3416 27.6177 35.0306C27.551 35.2591 27.4909 35.4518 27.439 35.6131C27.2732 35.5327 27.0646 35.4307 26.8038 35.3022C26.2338 35.0213 25.4813 34.6476 24.7322 34.2735C23.9831 33.8995 23.2373 33.5256 22.6808 33.2439C22.5634 33.1842 22.4972 33.1503 22.3985 33.1C22.4802 33.0656 22.5297 33.0439 22.6245 33.0038C23.1581 32.7785 23.8881 32.4736 24.684 32.1443C25.2541 31.9084 26.0495 31.5784 26.4523 31.4103C26.8545 31.2425 27.7393 30.8735 28.4188 30.59C28.6903 30.4768 28.8169 30.4308 28.9873 30.3646ZM13.6813 30.4419C14.0492 30.5826 14.5346 30.7721 15.0723 30.9859C16.1895 31.4301 17.4859 31.958 18.1718 32.2546C18.3394 32.3271 19.0004 32.5985 19.6715 32.8713C19.8917 32.9608 20.0606 33.0307 20.241 33.1051C19.896 33.2682 19.2696 33.5683 18.737 33.8267C18.1679 34.1027 17.4273 34.4598 17.0941 34.6186C16.7585 34.7786 16.1335 35.0775 15.7047 35.2831C15.5336 35.365 15.3926 35.4319 15.2623 35.4934C15.2166 35.3511 15.1674 35.1971 15.0988 34.9801C14.9271 34.4368 14.692 33.687 14.4357 32.8619C14.1791 32.0364 13.9428 31.2777 13.7686 30.7201C13.7324 30.6041 13.7118 30.5393 13.6813 30.4419ZM21.3328 33.5934C21.3803 33.6144 21.4395 33.6418 21.5184 33.679C21.6948 33.7617 21.941 33.8798 22.2323 34.0211C22.815 34.3036 23.5788 34.679 24.3376 35.055C25.0965 35.431 25.8509 35.8077 26.4142 36.093C26.6413 36.2081 26.8083 36.294 26.9605 36.3729C26.8873 36.4503 26.827 36.5144 26.7289 36.6167C26.4016 36.958 25.9493 37.4244 25.4515 37.932C24.4545 38.9486 23.104 40.3244 22.4507 40.9894L21.503 41.9539L18.5941 39.0749C17.7274 38.2172 16.9395 37.4328 16.3688 36.8609C16.1112 36.6026 15.9154 36.4044 15.7596 36.2459C15.8147 36.2177 15.8479 36.2004 15.9133 36.1673C16.2559 35.9958 16.7308 35.7637 17.2529 35.5132C18.3 35.0108 19.6606 34.3576 20.2771 34.0611C20.5811 33.915 20.8698 33.784 21.085 33.6926C21.1887 33.6482 21.2734 33.615 21.3328 33.5934ZM10.7129 36.5538C12.3546 36.5538 13.3865 36.5539 13.9993 36.5673C14.1594 36.5673 14.2185 36.5749 14.324 36.5787C13.9766 37.4214 12.8925 40.0427 12.8192 40.216C12.7216 40.1716 12.6144 40.1228 12.4892 40.0603C10.5252 39.0793 8.81016 37.8891 7.42621 36.5552H10.7129V36.5538ZM28.4001 36.6739H32.0935H35.4554C34.1066 37.9489 32.2316 39.2353 30.4318 40.1052H30.4256C30.287 40.1719 30.1683 40.2267 30.0604 40.2758C30.0254 40.2042 29.9957 40.1445 29.9497 40.0481C29.7991 39.7326 29.5967 39.3 29.3819 38.8362C29.0043 38.0209 28.6362 37.2057 28.4002 36.6668L28.4001 36.6739ZM15.1275 36.9371C15.2826 37.0818 15.4681 37.2571 15.7154 37.4952C16.2843 38.0429 17.0646 38.8064 17.9173 39.6517L18.5009 40.23L20.3861 42.099C20.1565 42.087 20.0365 42.0875 19.3759 42.0251C18.1346 41.9075 16.635 41.6029 15.3934 41.2155C15.1087 41.1266 14.6103 40.952 14.1819 40.7945C13.9799 40.7202 13.7988 40.6514 13.6563 40.5955C13.6956 40.4881 13.7374 40.3751 13.7976 40.2183C13.9531 39.814 14.1666 39.2745 14.3845 38.7336C14.6025 38.1925 14.8252 37.6494 14.9988 37.2367C15.0506 37.1137 15.0861 37.0329 15.1275 36.9371ZM27.5972 37.023C27.7043 37.2654 28.0583 38.0509 28.4219 38.8518C28.7911 39.6657 29.1516 40.4602 29.2334 40.6417L28.8304 40.7945C26.944 41.511 25.0427 41.9313 22.9737 42.0883C22.8067 42.1008 22.7554 42.1017 22.6002 42.1112C23.0991 41.5899 24.2759 40.3853 25.4675 39.1745C26.1048 38.5269 26.717 37.9069 27.1712 37.4495C27.3485 37.2711 27.4762 37.1437 27.5972 37.023Z" fill="#344444" fill-opacity="0.7"/>
</svg>
