<svg width="43" height="43" viewBox="0 0 43 43" fill="none" xmlns="http://www.w3.org/2000/svg">
<g id="svgexport-47">
<path id="Vector" d="M1.16493 19.2169C1.60144 21.0625 2.23195 22.811 3.00797 24.4623C4.70551 28.2993 7.27606 31.6505 10.6711 34.6132C13.5327 37.0903 16.9763 39.2759 20.9534 41.1215C20.9534 41.1215 20.9534 41.1215 21.0019 41.1215C21.0505 41.1215 21.0505 41.1215 21.0989 41.1215C21.1474 41.1215 21.196 41.1215 21.2444 41.073C33.6122 35.4389 40.5479 26.6965 41.8575 15.2342C41.9544 14.3599 42.003 13.6314 42.003 13C42.003 12.5628 41.9544 12.0772 41.9059 11.6401C41.4694 8.19164 39.4809 5.22893 36.6194 3.48043C36.6194 3.48043 36.6194 3.48043 36.5708 3.48043C34.8733 2.46049 32.9332 1.87766 30.7992 1.87766C26.8705 1.87766 21.972 4.88895 21.0989 5.47177C20.2259 4.88895 15.3273 1.87766 11.3987 1.87766C9.26459 1.87766 7.32457 2.46049 5.62701 3.48043C5.62701 3.48043 5.57851 3.48043 5.57851 3.52901C2.37746 5.47177 0.243408 9.01732 0.243408 13.0486C0.243408 13.68 0.29191 14.4085 0.388912 15.2827C0.582918 16.5941 0.82542 17.9541 1.16493 19.2169ZM1.69845 19.3626L6.16053 18.2454L3.25048 23.831C2.57147 22.3739 2.08645 20.9168 1.69845 19.3626ZM9.99217 14.1171L6.59704 17.517L1.06793 11.7858L9.99217 8.48305V14.1171ZM10.0891 14.6999L11.1077 20.9168L6.98505 17.8083L10.0891 14.6999ZM6.69405 18.2454L11.2047 21.5967L10.0891 26.0651L3.58999 24.2194L6.69405 18.2454ZM11.5442 22.0339L15.6668 27.1822L10.5256 26.1623L11.5442 22.0339ZM3.63849 24.7537L9.74962 26.4536L6.59704 29.5621C5.48156 28.0564 4.46301 26.4536 3.63849 24.7537ZM6.93656 29.9992L10.0406 26.8907L10.5742 33.8362C9.21615 32.6219 8.00358 31.3591 6.93656 29.9992ZM10.4772 26.648L16.0547 27.765L17.1703 33.3991L11.0592 34.1276L10.4772 26.648ZM16.6368 28.1535L20.7109 31.2134L17.6553 33.2533L16.6368 28.1535ZM11.3987 34.6132L17.1703 33.9333L16.1518 38.0131C14.4543 36.9445 12.8537 35.8275 11.3987 34.6132ZM16.5883 38.256L17.5583 34.3219L20.5654 40.393C19.2073 39.713 17.8493 39.033 16.5883 38.256ZM21.1474 40.393L17.8493 33.739L21.196 31.5048L24.5425 33.739L21.1474 40.393ZM21.5839 31.2134L25.658 28.1535L24.6396 33.2533L21.5839 31.2134ZM21.6324 40.4416L24.688 34.3219L25.755 38.2073C24.4941 38.9845 23.0875 39.713 21.6324 40.4416ZM26.1916 37.9645L25.076 33.9333L30.7992 34.6619C29.4411 35.8275 27.889 36.896 26.1916 37.9645ZM25.076 33.4476L26.1916 27.8135L31.7692 26.6965L31.1387 34.2248L25.076 33.4476ZM26.5796 27.1822L30.7021 22.0339L31.7207 26.1623L26.5796 27.1822ZM31.6722 33.8847L32.2542 26.8907L35.3583 29.9992C34.2912 31.3591 33.0787 32.6705 31.6722 33.8847ZM35.6493 29.6107L32.4967 26.5022L38.6563 24.7537C37.8318 26.4536 36.8618 28.0564 35.6493 29.6107ZM32.2542 26.0651L31.1387 21.5967L35.6493 18.2454L38.7533 24.2681L32.2542 26.0651ZM32.2057 14.6999L35.3098 17.8083L31.1871 20.9168L32.2057 14.6999ZM31.8177 13.8743L25.8521 11.8829L31.8177 8.53161V13.8743ZM32.3027 14.1171V8.48305L41.2269 11.7858L35.6977 17.517L32.3027 14.1171ZM39.0444 23.8795L36.1343 18.2454L40.5964 19.3626C40.2084 20.9168 39.7233 22.4224 39.0444 23.8795ZM41.5179 13C41.5179 13.5828 41.4694 14.3114 41.3724 15.1856C41.2269 16.4484 41.0329 17.6626 40.7419 18.8768L36.1828 17.7112L41.5179 12.2229C41.5179 12.4658 41.5179 12.7571 41.5179 13ZM41.3724 11.3001L32.4967 8.04594L36.5708 3.96613C39.0928 5.56891 40.8874 8.24019 41.3724 11.3001ZM30.8476 2.31477C32.7877 2.31477 34.5823 2.84904 36.1343 3.72329L32.0602 7.80308L27.598 2.89761C28.7136 2.55762 29.8291 2.31477 30.8476 2.31477ZM31.6722 8.09449L25.2215 11.6886L21.5354 10.4744L27.1615 3.14045L31.6722 8.09449ZM21.3899 5.86033C21.8749 5.56891 24.009 4.20898 26.4825 3.28616L21.3899 9.843V5.86033ZM21.3899 10.9115L24.6396 11.9801L21.3899 13.7771V10.9115ZM21.0505 14.4085C21.0989 14.4085 21.0989 14.457 21.1474 14.457C21.196 14.457 21.2444 14.457 21.2444 14.4085L25.2215 12.1743L31.7207 14.3599L30.5566 21.4024L25.755 27.3764L21.1474 30.922L16.4913 27.4251L11.6897 21.451L10.5256 14.4085L17.0248 12.2229L21.0505 14.4085ZM10.4772 13.8743V8.53161L16.4428 11.8343L10.4772 13.8743ZM17.6553 11.9801L20.9049 10.9115V13.8256L17.6553 11.9801ZM20.9049 5.86033V9.843L15.7153 3.23759C18.2373 4.1604 20.4199 5.52034 20.9049 5.86033ZM20.7594 10.4744L17.0733 11.6886L10.6227 8.09449L15.0362 3.14045L20.7594 10.4744ZM11.4472 2.31477C12.4657 2.31477 13.5327 2.50905 14.6483 2.84904L10.2346 7.75453L6.16053 3.67471C7.71258 2.84904 9.50715 2.31477 11.4472 2.31477ZM5.72402 3.96613L9.79815 8.04594L0.922419 11.3001C1.40744 8.24019 3.20198 5.61748 5.72402 3.96613ZM0.82542 12.2229L6.16053 17.7112L1.60144 18.8768C1.31044 17.6626 1.11643 16.4484 0.970921 15.1856C0.82542 14.3114 0.776919 13.5828 0.776919 13C0.776919 12.7571 0.776923 12.4658 0.82542 12.2229Z" fill="#344444" fill-opacity="0.7" stroke="#344444" stroke-opacity="0.7" stroke-width="0.367347"/>
</g>
</svg>
