<svg width="43" height="43" viewBox="0 0 43 43" fill="none" xmlns="http://www.w3.org/2000/svg">
<g id="svgexport-35">
<path id="Vector" d="M21.7225 0.52417C17.6228 0.52417 13.9391 2.91946 11.2974 6.72139C8.65548 10.5234 7.02856 15.7447 7.02856 21.5107C7.02856 27.265 8.65548 32.48 11.2974 36.279C13.9391 40.0779 17.6228 42.4763 21.7225 42.4763C25.8104 42.4763 29.4877 40.0779 32.1264 36.279C34.765 32.4801 36.3951 27.265 36.3951 21.5107C36.3951 15.7447 34.765 10.5233 32.1264 6.72139C29.4877 2.91954 25.8104 0.52417 21.7225 0.52417ZM21.3364 1.21742L18.4619 6.32224L15.6519 3.21314C17.3825 2.00256 19.3106 1.29788 21.3364 1.21742ZM22.173 1.21742C24.1043 1.30716 25.9347 1.98013 27.6002 3.1081L25.0474 5.92311L22.173 1.21742ZM21.7654 1.86865L24.5755 6.44829L21.5724 9.74646L18.9553 6.86844L21.7654 1.86865ZM28.1578 3.50724C29.266 4.34754 30.2895 5.38648 31.2039 6.61636L25.3906 6.59551L25.4332 6.57467L25.4119 6.53298L28.1578 3.50724ZM15.0941 3.63328L17.797 6.59535L12.2197 6.61619C13.0883 5.44951 14.0493 4.45086 15.0941 3.63328ZM18.1617 7.26758L17.9257 12.4145L13.2494 13.4018L12.2197 7.2886L18.1617 7.26758ZM25.2619 7.26758L31.161 7.28843L30.1957 13.4227L25.4336 12.5613L25.2619 7.26758ZM24.6184 7.41467L24.7471 12.2253L22.0228 10.2717L24.6184 7.41467ZM31.826 7.49867C32.7848 8.95519 33.5987 10.6132 34.2285 12.4354L30.8607 13.6328L31.826 7.49867ZM11.5762 7.51951L12.6058 13.6327L9.17366 12.4563C9.80113 10.6341 10.6189 8.97698 11.5762 7.51951ZM18.8266 7.75052L21.1004 10.2505L18.6121 12.1832L18.8266 7.75052ZM21.5509 10.7547H21.5722H21.5934L24.5751 12.8974L26.9991 20.313L25.9265 28.0858L21.6578 31.3631L17.9682 28.1698L16.4452 20.166L18.6761 12.9814L21.5509 10.7547ZM34.443 13.0445C35.0365 14.9153 35.4248 16.9459 35.6014 19.0736L31.1396 14.2419L34.443 13.0445ZM17.9257 13.0861L15.9951 19.3674L13.4425 14.0525L17.9257 13.0861ZM8.98064 13.1069L12.284 14.2203L7.82222 18.989C8.00021 16.9134 8.40493 14.9374 8.98064 13.1069ZM25.3906 13.233L29.9812 14.0522L27.45 19.5562L25.3906 13.233ZM12.9276 14.5144L15.6734 20.2705L12.6058 25.0181L8.05821 19.7243L12.9276 14.5144ZM30.4961 14.5353L35.3439 19.7661L30.8392 25.039L27.879 20.2493L30.4961 14.5353ZM7.73641 20.3753L12.1768 25.5432L8.59445 28.6103C8.02499 26.4038 7.71499 24.0053 7.71499 21.5098C7.71499 21.1283 7.72199 20.7515 7.73641 20.3753ZM35.6872 20.4594C35.6996 20.8076 35.7085 21.157 35.7085 21.5098C35.7085 23.9735 35.4067 26.3434 34.8504 28.5263L31.3111 25.5012L35.6872 20.4594ZM27.5787 21.0476L30.3674 25.5221L26.6777 27.7279L27.5787 21.0476ZM15.9308 21.1316L17.2178 27.791L13.2279 25.2911L15.9308 21.1316ZM13.2065 26.0684L17.2392 28.5892L17.5611 35.0176L11.5976 34.8496L13.2065 26.0684ZM30.6248 26.1315L32.1692 34.4086L26.2487 35.4169L26.6563 28.5054L30.6248 26.1315ZM12.4986 26.1524L10.9541 34.4715C10.0684 32.9276 9.32907 31.1859 8.78755 29.3036L12.4986 26.1524ZM31.3756 26.4465L34.6576 29.2406C34.1752 30.9324 33.5322 32.5009 32.7699 33.9252L31.3756 26.4465ZM25.9269 28.9044L25.5837 35.1647L22.1945 31.7825L25.9269 28.9044ZM17.9471 29.0305L21.2076 31.8665L18.226 34.6815L17.9471 29.0305ZM21.7439 32.2657L25.3692 35.8999L21.8513 41.1518L18.2475 35.7109H18.2901V35.5428L21.7439 32.2657ZM32.1049 35.1016C31.9326 35.3783 31.7509 35.6375 31.5686 35.8999C30.8285 36.9655 30.0061 37.9109 29.1232 38.715L26.4632 36.068L32.1049 35.1016ZM11.5976 35.5218L17.1535 35.6898L14.1289 38.5679C13.3083 37.7982 12.5491 36.8979 11.855 35.8999C11.7681 35.7749 11.6824 35.6501 11.5976 35.5218ZM17.6897 36.1101L21.4437 41.803C18.9679 41.7319 16.6343 40.7292 14.6222 39.0091L17.6897 36.1101ZM25.884 36.4042L28.6299 39.1561C26.7319 40.7294 24.5606 41.6544 22.2588 41.7821L25.884 36.4042Z" fill="#344444" fill-opacity="0.7"/>
<path id="Vector_2" opacity="0.66" fill-rule="evenodd" clip-rule="evenodd" d="M11.283 6.73835C13.9176 2.93661 17.6042 0.52417 21.7224 0.52417C25.8291 0.52417 29.5092 2.9368 32.1407 6.7384C34.7728 10.5407 36.3951 15.7564 36.3951 21.5107C36.3951 27.2532 34.7727 32.4627 32.1407 36.262C29.5092 40.0606 25.8291 42.4763 21.7224 42.4763C17.6041 42.4763 13.9176 40.0608 11.283 36.262C8.64771 32.4626 7.02856 27.2532 7.02856 21.5107C7.02856 15.7565 8.64769 10.5408 11.283 6.73835ZM21.7224 0.755947C17.7079 0.755947 14.0869 3.10763 11.4811 6.86773C8.87557 10.6271 7.26732 15.7964 7.26732 21.5107C7.26732 27.2131 8.87555 32.3761 11.481 36.1326C14.0869 39.8898 17.7079 42.2445 21.7224 42.2445C25.7251 42.2445 29.3397 39.8899 31.9426 36.1327C34.545 32.3762 36.1563 27.213 36.1563 21.5107C36.1563 15.7965 34.545 10.6271 31.9426 6.86768C29.3397 3.10757 25.7251 0.755947 21.7224 0.755947ZM21.9537 1.20341L22.175 1.21372C24.1163 1.30417 25.9533 1.98246 27.6208 3.11475L27.73 3.18892L25.0014 6.20574L21.9537 1.20341ZM15.8778 3.33411L18.4655 6.20475L21.1324 1.45606C19.2679 1.57168 17.4892 2.22901 15.8778 3.33411ZM21.3395 1.32948L21.3346 1.21369C19.2989 1.29475 17.3644 2.00476 15.6313 3.22022L15.525 3.29473L18.5112 6.60746L21.4443 1.38496L21.3395 1.32948ZM22.3864 1.4583L25.0392 5.81259L27.3742 3.23101C25.8322 2.20733 24.1524 1.58304 22.3864 1.4583ZM21.7605 1.74279L24.6992 6.5448L21.5734 9.98674L18.833 6.96505L21.7605 1.74279ZM21.7696 2.21144L19.1225 6.93351L21.5736 9.63607L24.4052 6.5181L21.7696 2.21144ZM28.0272 3.39994L28.179 3.5154C29.2878 4.35832 30.3106 5.39964 31.2236 6.63087L31.3604 6.81531L25.3603 6.79375L25.3349 6.68975L25.296 6.70847L25.2394 6.59745L27.9947 3.55391L28.0272 3.39994ZM28.1206 3.76595L25.5886 6.56279L30.8912 6.58185C30.0507 5.47984 29.1209 4.53941 28.1206 3.76595ZM15.2673 3.68813V3.48917L15.0729 3.6417C14.0274 4.46193 13.067 5.46301 12.2 6.63066L12.063 6.81519L18.0926 6.7926L15.2673 3.68813ZM15.1344 3.8921C14.1963 4.64092 13.3267 5.54061 12.5326 6.58165L17.5649 6.56279L15.1344 3.8921ZM24.7062 7.194L24.8481 12.5112L21.8449 10.3518L24.7062 7.194ZM25.1174 7.46168L25.287 12.7075L30.2262 13.6032L31.2231 7.25155L25.2335 7.23033L25.2331 7.34428L25.1137 7.3461V7.46168H25.1174ZM30.9453 7.48236L25.3563 7.46257L25.5196 12.514L30.0274 13.3313L30.9453 7.48236ZM12.4372 7.48251L13.4157 13.3072L17.8413 12.3704L18.0657 7.46272L12.4372 7.48251ZM18.3047 7.4619L18.0717 12.5589L13.2206 13.5858L12.1565 7.25171L18.1901 7.23049L18.1905 7.34365L18.3099 7.34622V7.46183L18.3047 7.4619ZM31.6737 7.25356L31.8445 7.51372C32.8009 8.97076 33.6123 10.6282 34.24 12.4487L34.2768 12.5555L30.638 13.8527L31.6737 7.25356ZM11.726 7.27787L12.8301 13.8507L9.12528 12.5775L9.16236 12.4695C9.78768 10.6489 10.603 8.99226 11.5579 7.53456L11.726 7.27787ZM22.1957 10.3156L24.5968 12.042L24.4833 7.79092L22.1957 10.3156ZM31.8133 7.90221L30.9348 13.5L33.9765 12.4156C33.398 10.7627 32.6668 9.2487 31.8133 7.90221ZM9.42618 12.435C10.0031 10.7813 10.7382 9.26709 11.5918 7.91903L12.5296 13.5015L9.42618 12.435ZM18.7447 7.53493L21.2776 10.3271L18.5057 12.4857L18.7447 7.53493ZM18.9555 8.11809L18.7689 11.9836L20.9332 10.2981L18.9555 8.11809ZM21.5099 10.6981H21.6338L24.654 12.8742L27.078 20.3093L26.0041 28.1112L21.6536 31.46L17.8886 28.1929L16.3654 20.1668L18.5971 12.9606L21.5099 10.6981ZM21.575 10.9444L18.8044 13.0965L16.6106 20.1799L18.1086 28.073L21.6628 31.1571L25.7803 27.9877L26.8343 20.3299L24.4497 13.0156L21.575 10.9444ZM34.4164 12.9395L34.4536 13.0572C35.0451 14.9265 35.4317 16.9542 35.6074 19.0778L35.6359 19.4209L30.8576 14.2328L34.4164 12.9395ZM18.1288 12.9766L16.0661 19.7053L13.3388 14.0118L18.1288 12.9766ZM31.2683 14.3311L35.3389 18.7508C35.1565 16.8125 34.7958 14.9603 34.2623 13.243L31.2683 14.3311ZM13.6805 14.1754L16.017 19.0531L17.7841 13.2885L13.6805 14.1754ZM9.08414 13.1533L8.96995 13.1196C8.3965 14.9476 7.99343 16.9209 7.81618 18.9933L7.78702 19.3343L12.5702 14.2087L9.12339 13.0439L9.08414 13.1533ZM12.1512 14.3125L9.16243 13.3025C8.64425 14.9811 8.27086 16.7819 8.08565 18.669L12.1512 14.3125ZM25.1872 13.1297L30.0847 14.0061L27.3843 19.8935L25.1872 13.1297ZM25.5342 13.4276L27.4225 19.2405L29.7433 14.1807L25.5342 13.4276ZM13.0317 14.3453L15.8579 20.2856L12.6936 25.196L8.0112 19.7309L13.0317 14.3453ZM30.3903 14.363L35.3907 19.7727L30.7494 25.2197L27.6947 20.2642L30.3903 14.363ZM8.32723 19.7374L12.6661 24.8015L15.587 20.2689L12.9664 14.7608L8.32723 19.7374ZM30.459 14.7844L27.9631 20.2482L30.7808 24.8192L35.0756 19.7788L30.459 14.7844ZM7.73487 20.2657H7.90601L12.4202 25.5332L8.63294 28.7842L8.58528 28.5991C8.01802 26.3954 7.70942 24.0007 7.70942 21.5097C7.70942 21.1289 7.71625 20.7529 7.73061 20.3772L7.73487 20.2657ZM7.95921 20.6902C7.95176 20.9618 7.94816 21.2345 7.94816 21.5097C7.94816 23.9124 8.23745 26.2238 8.76987 28.3573L12.0885 25.5086L7.95921 20.6902ZM35.5178 20.3492H35.6889L35.6929 20.4612C35.7051 20.8081 35.714 21.1571 35.714 21.5097C35.714 23.9689 35.4136 26.335 34.8595 28.5152L34.8123 28.7009L31.0666 25.4911L35.5178 20.3492ZM35.464 20.7717C35.4709 21.0168 35.4753 21.2625 35.4753 21.5097C35.4753 23.8809 35.1939 26.1637 34.6743 28.2735L31.3994 25.467L35.464 20.7717ZM27.4569 20.7065L30.4603 25.5383L26.4865 27.9202L27.4569 20.7065ZM16.039 20.8215L17.4228 28L13.133 25.3053L16.039 20.8215ZM27.6052 21.3937L26.7882 27.4669L30.1337 25.4616L27.6052 21.3937ZM13.4607 25.2351L17.0859 27.5124L15.9165 21.4458L13.4607 25.2351ZM12.7514 25.8211L11.0998 34.7402L10.9372 34.456C10.0539 32.9125 9.31715 31.1719 8.77763 29.2916L8.75748 29.2214L12.7514 25.8211ZM13.1894 25.8511L17.3919 28.485L17.7203 35.0624L11.5381 34.8877L13.1894 25.8511ZM30.6386 25.9179L32.223 34.4312L26.084 35.4795L26.5005 28.3999L30.6386 25.9179ZM13.3618 26.235L11.8215 34.6638L17.4693 34.8235L17.1593 28.6152L13.3618 26.235ZM26.7317 28.5336L26.3396 35.2005L31.9454 34.2433L30.466 26.2939L26.7317 28.5336ZM9.02785 29.2994C9.52702 31.0201 10.1926 32.6204 10.9841 34.0554L12.3956 26.4322L9.02785 29.2994ZM31.1187 26.1126L34.6872 29.1587L34.6674 29.2287C34.1867 30.9189 33.5459 32.4863 32.786 33.9099L32.6247 34.2119L31.1187 26.1126ZM31.4753 26.7257L32.7344 33.4971C33.4065 32.19 33.9779 30.7648 34.4172 29.2369L31.4753 26.7257ZM17.8448 28.7172L21.3864 31.8058L18.1477 34.8714L17.8448 28.7172ZM22.3679 31.7367L25.4475 34.8181L25.7593 29.1147L22.3679 31.7367ZM25.8926 28.8635L25.8183 28.7728L22.0132 31.7146L25.6569 35.3604L26.0118 28.8696L25.8926 28.8635ZM18.1106 29.2605L18.3609 34.3459L21.0371 31.8127L18.1106 29.2605ZM21.6947 32.0903H21.7943L25.4913 35.8062L21.8496 41.2571L18.0573 35.5165H18.1985V35.4166L21.6947 32.0903ZM18.4372 35.6623L21.8507 40.8295L25.1877 35.8346L21.7413 32.3705L18.4372 35.514V35.6623ZM32.2582 34.868L32.1226 35.0864C31.9624 35.3444 31.7941 35.5872 31.6265 35.8288C31.6135 35.8475 31.6005 35.8663 31.5875 35.885C30.8489 36.9513 30.0274 37.8983 29.1447 38.7043L29.0592 38.7824L26.1818 35.9115L32.2582 34.868ZM26.6673 36.0635L29.0663 38.457C29.9028 37.681 30.6838 36.7743 31.3894 35.7557L31.4279 35.7001C31.5467 35.5288 31.664 35.3596 31.7781 35.1858L26.6673 36.0635ZM11.6798 35.4444L11.5793 35.5068C11.6641 35.6355 11.7497 35.7604 11.8361 35.8851C12.5284 36.8832 13.2866 37.7849 14.1075 38.5568L14.1911 38.6355L17.4734 35.5041L11.6836 35.3285L11.6798 35.4444ZM16.9077 35.7188L11.9045 35.5671C11.9474 35.6301 11.9906 35.6928 12.0342 35.7557C12.6951 36.7086 13.415 37.57 14.1903 38.3114L16.9077 35.7188ZM17.744 35.8469L21.6679 41.8132L21.4423 41.8067C18.9542 41.7351 16.6137 40.7246 14.6009 38.9992L14.5044 38.9165L17.744 35.8469ZM14.8557 38.9076C16.7496 40.5007 18.9223 41.4449 21.2219 41.5658L17.7007 36.2118L14.8557 38.9076ZM25.8501 36.3218L25.7502 36.2584L22.0252 41.7988L22.2612 41.7857C24.5741 41.6571 26.7519 40.7251 28.6512 39.1466L28.7475 39.0665L25.936 36.2413L25.8501 36.3218ZM25.8683 36.5068L22.4855 41.5381C24.612 41.3673 26.6229 40.4983 28.3992 39.0501L25.8683 36.5068Z" fill="#344444" fill-opacity="0.7"/>
</g>
</svg>
