<svg width="43" height="43" viewBox="0 0 43 43" fill="none" xmlns="http://www.w3.org/2000/svg">
<g id="svgexport-46">
<path id="Vector" fill-rule="evenodd" clip-rule="evenodd" d="M11.595 0.558014H11.39L11.2554 0.717805L7.70811 4.92794L7.59741 5.05932V5.23352V37.1285V37.2846L7.68854 37.4092L11.2358 42.2572L11.371 42.4419H11.595H31.8354H32.0719L32.2061 42.2406L35.4404 37.3926L35.52 37.2734V37.1285V5.23352V5.06323L35.4136 4.93315L31.9707 0.723016L31.8358 0.558014H31.6267H11.595ZM10.6998 7.69386L8.652 5.22511L11.8001 1.48877H11.8759L14.1936 4.68211L10.6998 7.69386ZM8.49814 6.46982L10.2996 8.6416V33.4276L8.49814 35.5994V6.46982ZM8.52037 37.0027L10.5773 34.523L14.1966 38.3137L11.8759 41.5111H11.8191L8.52037 37.0027ZM13.0018 41.5111H30.2038L28.5149 38.7189H28.3456H15.0284L13.0018 41.5111ZM31.5989 41.5111H31.2659L29.2184 38.1259L29.2217 37.9985L32.5401 34.523L34.6023 37.0091L31.5989 41.5111ZM29.2573 36.6359L31.7042 34.0732C31.0327 34.0521 30.2257 34.0715 29.3227 34.1395L29.2573 36.6359ZM28.3354 37.4346L28.4195 34.2208C27.2211 34.3458 25.8929 34.5504 24.5109 34.8505C24.118 34.9358 23.7214 35.0286 23.3228 35.1294C25.0681 35.7319 26.7832 36.4915 28.3354 37.4346ZM28.444 33.283C27.1791 33.4105 25.7782 33.6243 24.3257 33.9397C23.464 34.1267 22.5813 34.3501 21.6954 34.6137C20.7863 34.3501 19.8802 34.1267 18.9957 33.9396C17.5909 33.6425 16.2331 33.4356 14.9955 33.3059L14.3668 21.289L14.3676 21.2861L14.3665 21.2816L14.3536 21.0353L15.0263 8.87008C16.2447 8.80161 17.5797 8.67401 18.9632 8.46488C19.8744 8.32712 20.8092 8.15368 21.7478 7.93761C22.6267 8.14264 23.5016 8.3095 24.3552 8.44396C25.7932 8.67037 27.1775 8.80574 28.4282 8.87529L28.7643 21.0349L28.7596 21.2154L28.7496 21.256L28.7577 21.2877L28.444 33.283ZM29.3471 33.2046C30.2656 33.1381 31.0912 33.1205 31.7855 33.1447L29.5751 24.4885L29.3471 33.2046ZM34.4693 5.22043L32.4176 7.69386L29.2204 4.93778L29.2186 4.87375L31.2659 1.48877H31.4177L34.4693 5.22043ZM23.7701 7.40311C25.3555 6.92614 26.91 6.31207 28.3356 5.52734L28.4023 7.94167C27.2005 7.87259 25.8717 7.74124 24.4909 7.5238C24.2519 7.48615 24.0115 7.44597 23.7701 7.40311ZM29.2547 6.17947L29.3046 7.98307C30.0621 8.0089 30.754 8.00956 31.3576 7.99219L29.2547 6.17947ZM31.7947 8.90745C31.0948 8.93888 30.2603 8.94557 29.3304 8.91514L29.5786 17.8942L31.7947 8.90745ZM34.6193 6.46982L32.8178 8.6416V33.4276L34.6193 35.5994V6.46982ZM30.2038 1.48877H13.0018L15.0284 4.28102H28.2953H28.4585L28.4956 4.31299L30.2038 1.48877ZM15.078 7.93491L15.2116 5.51906C16.6218 6.30377 18.1614 6.91893 19.7308 7.39736C19.4299 7.45017 19.1303 7.49895 18.8329 7.54391C17.5146 7.74317 16.2422 7.86667 15.078 7.93491ZM14.0891 33.2229L13.6197 24.2499L11.3755 33.1437C12.141 33.1191 13.0619 33.1426 14.0891 33.2229ZM14.1381 34.1604L14.2912 37.0875L11.4136 34.0736C12.1699 34.0498 13.0962 34.075 14.1381 34.1604ZM15.2116 37.4382L15.0447 34.2469C16.2107 34.3737 17.4889 34.5709 18.8151 34.8514C19.2323 34.9397 19.6536 35.0361 20.077 35.1408C18.3846 35.7422 16.7207 36.4992 15.2116 37.4382ZM11.7641 7.98853C12.4624 8.01063 13.2767 8.0108 14.1734 7.97801L14.2934 5.80817L11.7641 7.98853ZM13.6082 18.1993L14.1218 8.91117C13.0568 8.94789 12.1055 8.93921 11.3212 8.90266L13.6082 18.1993ZM16.6288 5.21178H26.9244C25.2984 5.98657 23.5269 6.56237 21.7491 6.98309C19.9916 6.56158 18.2377 5.98536 16.6288 5.21178ZM21.6986 35.5823C19.8837 36.1377 18.0752 36.8633 16.4323 37.7882H27.1019C25.4184 36.8634 23.5623 36.1378 21.6986 35.5823ZM31.9171 12.1805L29.6801 21.2518L31.9171 30.012V12.1805ZM13.4375 21.2832L11.2003 30.149V12.1891L13.4375 21.2832Z" fill="#344444" fill-opacity="0.7"/>
</g>
</svg>
