<svg width="43" height="42" viewBox="0 0 43 42" fill="none" xmlns="http://www.w3.org/2000/svg">
<g clip-path="url(#clip0_1_5509)">
<path d="M9.77881 0.183392C9.23647 0.176704 8.69292 0.217014 8.17313 0.304698C6.21971 0.634217 4.51815 1.53899 3.11839 2.99211C2.64183 3.48684 2.33737 3.87237 1.9868 4.42552C1.05962 5.88849 0.56881 7.50747 0.524894 9.24761C0.477325 11.1326 0.966542 12.9402 1.9473 14.4998C3.26843 16.6007 5.34267 18.0853 7.68654 18.6055C8.03527 18.683 8.66157 18.7814 8.97427 18.8072C8.97635 18.8072 8.9838 18.8072 8.98607 18.8072C9.33224 18.834 10.4318 18.8041 10.7729 18.7589C12.8514 18.4815 14.6475 17.5834 16.119 16.0849C17.5712 14.6062 18.4469 12.7821 18.7386 10.6332C18.8082 10.1207 18.8085 8.87339 18.7392 8.35882C18.6736 7.87132 18.5583 7.29577 18.4482 6.91003C17.4862 3.53863 14.7567 1.00417 11.3769 0.344253C10.8623 0.243767 10.3211 0.190086 9.77881 0.183392ZM10.1299 0.575543C10.7955 0.616079 11.5103 0.737036 12.1241 0.918143C12.2853 0.965705 12.514 1.04442 12.702 1.11437C12.7899 1.14706 12.8658 1.17694 12.9246 1.20146C12.9078 1.24568 12.8902 1.29215 12.8639 1.35813C12.7957 1.52877 12.6991 1.76226 12.5911 2.01607C12.4829 2.27028 12.3826 2.50261 12.3084 2.67169C12.2909 2.71155 12.2805 2.73393 12.2662 2.76617C12.2385 2.73894 12.2188 2.71998 12.1838 2.68502C12.0435 2.54508 11.8477 2.34696 11.624 2.11896C11.1768 1.66296 10.6181 1.08698 10.1658 0.613229L10.1299 0.575543ZM9.17757 0.577677L8.8451 0.912304C8.51056 1.24905 7.98031 1.78203 7.66707 2.0966C7.26361 2.50178 7.08154 2.68378 6.97773 2.78033C6.95723 2.73281 6.93575 2.68276 6.90754 2.61671C6.83545 2.44785 6.74257 2.22886 6.65057 2.0108C6.55853 1.79274 6.46736 1.57556 6.39867 1.41068C6.36823 1.33768 6.34445 1.28018 6.32479 1.23229C6.38961 1.20071 6.48782 1.15946 6.6065 1.11519C6.84864 1.02486 7.17095 0.921639 7.46859 0.844328C8.05061 0.693161 8.57322 0.613934 9.17757 0.577677ZM9.65662 0.636658L10.8432 1.85863C11.1973 2.22341 11.5192 2.55711 11.7523 2.80061C11.8562 2.90914 11.9346 2.99191 11.9979 3.05916C11.9474 3.08505 11.9009 3.10907 11.8296 3.1448C11.6204 3.24963 11.3312 3.39198 11.0133 3.54638C10.3765 3.8556 9.78356 4.14319 9.7008 4.18287L9.60788 4.22738L9.43699 4.14432C9.13756 3.99861 8.59978 3.73418 7.88444 3.38118C7.59388 3.23778 7.34326 3.1165 7.23829 3.06829C7.2392 3.06704 7.23979 3.06684 7.2407 3.06556C7.32061 2.98226 7.43172 2.86889 7.55394 2.74659C7.79978 2.5006 8.39648 1.902 8.88033 1.41607L9.65662 0.636658ZM13.2821 1.35706C13.2923 1.36075 13.2911 1.35919 13.3039 1.3646C13.3979 1.40416 13.56 1.48752 13.8051 1.62198C14.4382 1.96939 15.1155 2.46202 15.6073 2.92801L14.1841 2.92883L12.6127 2.92967L12.6174 2.91838C12.7555 2.58828 12.9273 2.18245 13.067 1.85538C13.1369 1.69185 13.1987 1.54803 13.2442 1.44336C13.2599 1.40711 13.2707 1.38299 13.2821 1.35706ZM5.97515 1.38156C5.97811 1.38791 5.98064 1.39096 5.98338 1.39764C6.01714 1.47998 6.1881 1.88313 6.36813 2.30499C6.45805 2.51579 6.54135 2.71122 6.6031 2.85613C6.61863 2.89264 6.61662 2.88793 6.62952 2.91829C6.58538 2.91974 6.56152 2.922 6.49543 2.92322C6.23513 2.928 5.79674 2.92945 5.09914 2.92899L3.71665 2.92817C4.11882 2.55191 4.59831 2.1767 5.04942 1.89445C5.20997 1.794 5.45854 1.65272 5.67097 1.53824C5.77719 1.48099 5.87475 1.43019 5.94717 1.39462C5.95889 1.38887 5.96481 1.38649 5.97515 1.38156ZM3.44899 3.30625H5.07682C5.56417 3.30625 6.00738 3.30811 6.32819 3.31059C6.46758 3.31184 6.57128 3.31305 6.6578 3.31464C6.62718 3.41757 6.58615 3.55357 6.54044 3.70345C6.44643 4.01176 6.34313 4.35245 6.31014 4.46268C6.20041 4.82975 6.09792 5.16415 6.02061 5.40918C5.98195 5.53169 5.94958 5.63202 5.92597 5.70207C5.91593 5.73192 5.90836 5.75304 5.90197 5.77062C5.88293 5.77946 5.85122 5.79312 5.78676 5.81757C5.64342 5.8719 5.37201 5.96906 4.86059 6.15146C4.46889 6.29118 3.95319 6.47595 3.71381 6.56229C3.61442 6.59814 3.5305 6.62795 3.45581 6.65433C3.45461 6.56423 3.45342 6.45801 3.45256 6.31434C3.45047 5.97943 3.44901 5.51693 3.44901 5.00831L3.44899 3.30625ZM14.1767 3.30625H15.8175V3.93116C15.8175 4.35826 15.8253 5.17862 15.8347 5.75757C15.8398 6.07129 15.8418 6.33323 15.8406 6.51509C15.8404 6.55528 15.8395 6.57497 15.8389 6.60694C15.7645 6.58239 15.6779 6.55349 15.5668 6.51567C15.3089 6.42791 14.9703 6.31076 14.633 6.19307C14.2957 6.07535 13.9595 5.95696 13.7065 5.86642C13.5801 5.82115 13.4743 5.78282 13.4001 5.75527C13.3731 5.74526 13.3558 5.7385 13.338 5.73163C13.3356 5.72534 13.3344 5.72246 13.3318 5.715C13.3155 5.66973 13.2932 5.60411 13.2667 5.52413C13.2138 5.36416 13.1445 5.14639 13.0721 4.91097C12.8978 4.34499 12.7621 3.90229 12.67 3.59943C12.632 3.47444 12.6064 3.38892 12.5836 3.31292C12.6709 3.31168 12.7755 3.31048 12.9159 3.30961C13.2392 3.30748 13.6858 3.30625 14.1767 3.30625ZM7.02889 3.38987C7.08702 3.41692 7.1522 3.44766 7.23047 3.4858C7.97812 3.85012 8.51841 4.11433 8.87368 4.28924C8.99699 4.34996 9.06949 4.38614 9.14899 4.42574C8.97474 4.49849 8.40204 4.73749 7.64021 5.05516C7.22141 5.22977 6.8379 5.38853 6.55765 5.50356C6.47361 5.53801 6.42089 5.55928 6.35731 5.58511C6.36604 5.55694 6.3713 5.54057 6.38117 5.5086C6.44533 5.30106 6.53218 5.01778 6.62623 4.70866C6.83205 4.0323 6.94357 3.666 7.00444 3.46812C7.01716 3.42676 7.02019 3.41776 7.02889 3.38987ZM12.2119 3.39111C12.2302 3.44958 12.2499 3.51212 12.2767 3.59806C12.3443 3.8153 12.4344 4.1068 12.5265 4.40484C12.6888 4.93063 12.8272 5.38276 12.8849 5.57477C12.686 5.4934 12.2624 5.32042 11.5125 5.01423C11.0605 4.82964 10.6437 4.65908 10.3364 4.53324C10.2265 4.48819 10.1505 4.45706 10.072 4.42483C10.2159 4.35559 10.4403 4.24685 10.7186 4.11107C11.2352 3.859 11.6447 3.66066 11.9253 3.52647C12.0505 3.4666 12.1403 3.42434 12.2119 3.39111ZM16.1885 3.54096C16.543 3.94574 16.9172 4.45077 17.1967 4.92552C17.2809 5.06846 17.4026 5.2977 17.5087 5.50929C17.6066 5.70437 17.6832 5.87387 17.7121 5.94808C17.7121 5.94808 17.7113 5.9483 17.7101 5.9487C17.6652 5.96719 17.6047 5.99248 17.5325 6.02291C17.3881 6.08375 17.1969 6.16505 16.9938 6.2523C16.6241 6.41113 16.3164 6.54176 16.212 6.5852V6.01666C16.212 5.58156 16.2055 4.75824 16.1974 4.1843L16.1885 3.54096ZM3.07947 3.59893L3.07977 4.87973L3.07963 5.02812C3.07977 5.53143 3.07932 5.98901 3.07814 6.32041C3.07784 6.45122 3.07725 6.54359 3.07666 6.63007C3.07016 6.62704 3.06736 6.62583 3.06062 6.62269C2.92748 6.5612 2.74457 6.47643 2.54419 6.38329C2.14284 6.19673 1.74379 6.01338 1.64275 5.96953L1.60468 5.95301C1.67735 5.76692 1.94738 5.22612 2.11869 4.93191C2.37534 4.49115 2.71015 4.03562 3.07947 3.59893ZM9.60149 4.65002C9.60569 4.65148 9.60795 4.65247 9.61329 4.65437C9.63806 4.66376 9.67449 4.67793 9.72082 4.69613C9.81348 4.73252 9.94572 4.78514 10.1073 4.85003C10.4303 4.97974 10.8709 5.15838 11.3508 5.35437L13.0393 6.04403L13.6731 7.6332C14.0345 8.53939 14.3532 9.3394 14.3766 9.39907L14.4009 9.46096L14.3249 9.64238C14.2697 9.77424 13.9408 10.5634 13.5932 11.3978L12.9845 12.8593L11.6448 13.4287C10.8779 13.7547 10.0861 14.0906 9.88703 14.1744L9.57832 14.3042L8.75489 13.9613C7.63828 13.4965 6.98431 13.2236 6.60705 13.064C6.41844 12.9841 6.29889 12.9326 6.22647 12.9001C6.1968 12.8866 6.17984 12.8788 6.16537 12.8718C6.16179 12.8645 6.15934 12.8593 6.1547 12.8492C6.13698 12.8108 6.11217 12.7552 6.08283 12.6874C6.02412 12.5517 5.94669 12.3673 5.86503 12.1681C5.70097 11.7681 5.38287 10.9949 5.15808 10.4495C5.04587 10.1773 4.94389 9.92672 4.87012 9.74289C4.83322 9.651 4.80337 9.57569 4.78301 9.52319C4.77753 9.5089 4.77468 9.50159 4.77066 9.49085C4.78002 9.46714 4.79189 9.43791 4.8083 9.39742C4.8456 9.30567 4.89972 9.17406 4.96658 9.01278C5.10035 8.69015 5.28494 8.24847 5.48799 7.76587L6.20301 6.06625L6.41643 5.97757C7.09528 5.69535 8.80626 4.98146 9.04161 4.88226C9.30096 4.7729 9.45025 4.71071 9.53513 4.6779C9.61351 4.64764 9.62005 4.65148 9.60149 4.65002ZM13.5187 6.22197C13.566 6.23754 13.5994 6.24832 13.6565 6.26721C13.9055 6.34975 14.2373 6.46112 14.5694 6.57344C14.9015 6.68572 15.234 6.79895 15.4844 6.88529C15.5938 6.923 15.6785 6.95271 15.7494 6.97774C15.7434 6.98899 15.7405 6.99476 15.7338 7.00726C15.6746 7.11826 15.5919 7.2718 15.4997 7.44174C15.3154 7.78158 15.0933 8.18742 14.9463 8.45111C14.8845 8.56193 14.7603 8.79019 14.6685 8.96137C14.6556 8.98542 14.6467 9.00014 14.6345 9.02254C14.6327 9.01819 14.6318 9.01673 14.6301 9.01216C14.5606 8.84434 14.4663 8.61185 14.3644 8.35611C14.1602 7.84355 13.861 7.09221 13.6992 6.68634C13.6276 6.50654 13.5677 6.35132 13.5187 6.22197ZM5.71347 6.25431C5.69874 6.29048 5.69578 6.29951 5.67667 6.34591C5.55098 6.65064 5.32492 7.18845 4.93121 8.12161C4.79482 8.44487 4.66982 8.73973 4.57843 8.95417C4.56429 8.98742 4.5571 9.00398 4.54464 9.03313C4.53302 9.01063 4.52863 9.00303 4.51537 8.97738C4.40064 8.75493 4.22456 8.40741 3.97665 7.91466C3.84471 7.65242 3.67342 7.3159 3.59476 7.16427C3.56854 7.11373 3.5496 7.07445 3.52969 7.03371C3.60022 7.00722 3.68862 6.97481 3.8002 6.93426C4.04585 6.84499 4.37185 6.72796 4.69751 6.61195C5.02318 6.49598 5.34848 6.3811 5.59271 6.29589C5.64265 6.27846 5.67097 6.269 5.71347 6.25431ZM17.8554 6.29951C17.8803 6.37661 17.9147 6.48151 17.9726 6.65547C18.2287 7.42493 18.3597 8.12537 18.416 9.01158C18.3767 8.97248 18.351 8.94712 18.3039 8.89999C18.0795 8.67546 17.7716 8.36554 17.4344 8.02464L16.3602 6.93875C16.4455 6.90122 16.5669 6.84817 16.7053 6.78891C16.8765 6.71568 17.2253 6.5658 17.4809 6.4556C17.6077 6.4009 17.7266 6.35117 17.8149 6.31548C17.8318 6.30864 17.8409 6.30525 17.8554 6.29951ZM1.46767 6.31029C1.51175 6.32973 1.55704 6.34979 1.61969 6.37796C1.78454 6.45202 2.00297 6.5513 2.22164 6.65127C2.44031 6.75123 2.65939 6.85193 2.8253 6.92907C2.86958 6.94975 2.89747 6.96294 2.93313 6.97967C2.8941 7.02034 2.86765 7.04866 2.79944 7.11804C2.57648 7.34488 2.18214 7.74084 1.50589 8.41812C1.22278 8.70169 1.03145 8.8902 0.903653 9.01549C0.93855 8.45203 1.01664 7.88312 1.13097 7.3957C1.17087 7.22561 1.26391 6.9142 1.34975 6.65141C1.39268 6.52002 1.4341 6.39977 1.46583 6.31489C1.46672 6.31277 1.46708 6.31215 1.46767 6.31029ZM16.0714 7.19572C16.135 7.25824 16.2153 7.33779 16.3194 7.44166C16.5486 7.6701 16.8628 7.9855 17.2065 8.33251L18.352 9.48866L17.2075 10.6324C16.8639 10.9757 16.5497 11.2879 16.3204 11.5139C16.2174 11.6156 16.1385 11.6927 16.0751 11.7543C16.0398 11.6922 16.0011 11.6239 15.9495 11.5312C15.8216 11.3015 15.6525 10.9941 15.4834 10.685C15.3143 10.3759 15.1452 10.0649 15.0178 9.82792C14.9541 9.70942 14.9008 9.60938 14.8634 9.5378C14.8483 9.50919 14.8381 9.48884 14.8287 9.47024C14.8287 9.47024 14.829 9.47024 14.8293 9.46714C14.8457 9.4298 14.8761 9.36808 14.9216 9.28065C15.0128 9.1057 15.1655 8.82582 15.4024 8.3978C15.5473 8.13597 15.7758 7.72265 15.9102 7.47912C15.9715 7.36797 16.0266 7.27132 16.0713 7.19448L16.0714 7.19572ZM3.21301 7.24951C3.21796 7.25864 3.22038 7.26259 3.22566 7.27264C3.28538 7.38492 3.36603 7.5412 3.4524 7.71304C3.62616 8.05865 3.90719 8.61477 4.07724 8.94953L4.35186 9.49005L3.77306 10.6578C3.60487 10.9972 3.45001 11.3058 3.33619 11.5291C3.29402 11.6118 3.26468 11.6681 3.23532 11.7244C3.20961 11.6998 3.1914 11.6825 3.15874 11.6508C3.0276 11.5237 2.84339 11.3435 2.62896 11.1326C2.2001 10.7107 1.64999 10.1659 1.15825 9.67457L0.971563 9.488L1.33981 9.11864C2.12043 8.33562 2.61876 7.83683 2.92362 7.53422C3.06036 7.39844 3.14661 7.31382 3.21301 7.24951ZM14.6257 9.90417C14.6554 9.95763 14.6806 10.0029 14.7186 10.0718C14.8453 10.3019 15.0116 10.6064 15.1768 10.9102C15.342 11.214 15.5061 11.5171 15.6281 11.7445C15.6782 11.8378 15.7151 11.9073 15.7482 11.9697C15.7203 11.979 15.7011 11.9854 15.6669 11.9971C15.5182 12.0469 15.3138 12.1148 15.0897 12.1889C14.6484 12.3349 14.0566 12.5319 13.7514 12.6343H13.7508L13.7286 12.642C13.619 12.6788 13.5309 12.7076 13.4437 12.7363C13.466 12.6823 13.4854 12.6355 13.5148 12.5646C13.6093 12.3369 13.7367 12.0309 13.8733 11.703C14.1464 11.0472 14.4568 10.3038 14.616 9.92471C14.6196 9.91579 14.6221 9.91225 14.6257 9.90417ZM0.903086 9.95153C0.969794 10.0176 1.03585 10.0835 1.1439 10.1908C1.75283 10.7954 2.3938 11.4311 2.76862 11.8025C2.84909 11.8822 2.91795 11.9522 2.97462 12.0106C2.91597 12.0439 2.85926 12.076 2.72827 12.1474C2.43658 12.3063 2.36882 12.3439 1.8031 12.6602C1.69322 12.7217 1.59286 12.7772 1.51782 12.8179C1.49847 12.7694 1.47833 12.7188 1.45304 12.6482C1.38673 12.4631 1.30654 12.2191 1.23993 11.993C1.06524 11.4 0.951693 10.7016 0.903086 9.95153ZM4.54665 9.95463C4.58797 10.0534 4.63061 10.1554 4.68827 10.2944C4.83943 10.6585 5.0356 11.1342 5.21947 11.5827C5.29115 11.7575 5.44743 12.1368 5.56698 12.4263C5.61134 12.5337 5.64645 12.6211 5.68076 12.7067C5.54228 12.6561 4.98061 12.4545 4.426 12.2564C4.14852 12.1573 3.89535 12.0662 3.71111 11.9995C3.64696 11.9763 3.60413 11.9605 3.55867 11.9438C3.58638 11.8858 3.61694 11.822 3.66025 11.7331C3.76723 11.5135 3.91625 11.211 4.08122 10.8795C4.24612 10.548 4.39717 10.2476 4.50726 10.0312C4.52381 9.99866 4.53203 9.98317 4.54665 9.95463ZM18.4147 9.96519C18.3538 10.9375 18.2018 11.694 17.8798 12.6052C17.8526 12.6822 17.8266 12.7464 17.8038 12.8004C17.7713 12.7841 17.7396 12.7682 17.7017 12.7474C17.5836 12.6827 17.1985 12.479 16.8386 12.2906C16.6595 12.1969 16.4965 12.1099 16.3791 12.0458C16.3673 12.0394 16.3623 12.0363 16.3514 12.0303C16.3595 12.0218 16.3632 12.0179 16.372 12.0087C16.4639 11.9138 16.5914 11.7843 16.7316 11.6437C17.6743 10.6982 18.2373 10.1383 18.4147 9.96519ZM3.4828 12.3299C3.54433 12.3512 3.60523 12.3721 3.69193 12.4025C3.92922 12.4856 4.24612 12.5978 4.56539 12.7116C4.88463 12.8254 5.20628 12.9405 5.45291 13.0299C5.57619 13.0745 5.68076 13.1128 5.75665 13.1408C5.79458 13.1549 5.82535 13.1664 5.84727 13.1748C5.85575 13.1781 5.85253 13.1779 5.85893 13.1793C5.8708 13.2025 5.89309 13.2567 5.92484 13.3483C5.98834 13.5316 6.09263 13.8666 6.2759 14.4645C6.38837 14.8315 6.4906 15.1673 6.56474 15.4126C6.59295 15.506 6.6126 15.5715 6.63164 15.6353C6.54599 15.6384 6.44336 15.6392 6.30517 15.6407C5.98666 15.6444 5.54656 15.6465 5.06246 15.6465H3.44756L3.4639 13.9656C3.46882 13.4623 3.47395 13.0041 3.4781 12.6713C3.47988 12.5275 3.48143 12.4202 3.4828 12.3299ZM15.8353 12.3515C15.8367 12.443 15.8383 12.554 15.8402 12.7015C15.8446 13.0367 15.8496 13.4985 15.8546 14.0054L15.8712 15.6994H14.1914C13.6894 15.6994 13.233 15.6963 12.9027 15.6936C12.7548 15.6936 12.643 15.6903 12.5533 15.6882C12.5551 15.6818 12.5557 15.6792 12.5576 15.6727C12.5901 15.5571 12.635 15.3998 12.6844 15.2293C12.7836 14.8871 12.96 14.2735 13.0766 13.8648L13.2668 13.1978L14.6047 12.7546C14.9925 12.6261 15.3456 12.5101 15.602 12.4268C15.7004 12.3948 15.769 12.3726 15.8353 12.3515ZM3.10632 12.3737L3.09098 13.9382C3.08612 14.4374 3.08105 14.8921 3.07679 15.2222C3.07589 15.2943 3.0753 15.3338 3.0744 15.3931C2.97764 15.2802 2.87021 15.1531 2.79253 15.0545C2.58194 14.7868 2.33271 14.4191 2.13645 14.0855C2.06044 13.9563 1.93001 13.7089 1.82091 13.4922C1.76636 13.3838 1.71675 13.2825 1.68154 13.207C1.67552 13.1941 1.67289 13.1875 1.66776 13.1761C1.69991 13.1558 1.72785 13.1377 1.80045 13.0961C2.00291 12.9801 2.38055 12.772 3.06957 12.3938L3.10632 12.3737ZM16.2076 12.3871L16.2856 12.4292C16.4499 12.5177 16.8502 12.7292 17.1781 12.9006C17.3418 12.9861 17.4913 13.0645 17.6003 13.1219C17.6267 13.136 17.6419 13.1438 17.6631 13.1551C17.6454 13.1949 17.6277 13.2348 17.6022 13.2887C17.5322 13.4363 17.4399 13.6216 17.3604 13.7711C17.1696 14.1296 16.8088 14.6868 16.5453 15.0293C16.4572 15.1439 16.3362 15.2864 16.2398 15.3974L16.2392 14.9995C16.2386 14.5677 16.2302 13.7483 16.2207 13.1756L16.2076 12.3871ZM12.8374 13.3416C12.71 13.7827 12.3409 15.0651 12.2555 15.3636C12.2272 15.4627 12.2017 15.5462 12.1796 15.6161C12.1092 15.5813 12.0206 15.5371 11.9097 15.4813C11.6676 15.3596 11.3479 15.1977 11.0296 15.0356C10.7113 14.8735 10.3945 14.7114 10.158 14.5894C10.1081 14.5635 10.08 14.5488 10.0381 14.527C10.0728 14.5121 10.0938 14.5027 10.1341 14.4853C10.3608 14.3877 10.671 14.2555 11.0091 14.1128C11.2513 14.0106 11.5893 13.8676 11.7604 13.7948C11.9313 13.722 12.3072 13.5621 12.5959 13.4393C12.7112 13.3902 12.7651 13.3703 12.8374 13.3416ZM6.33444 13.3751C6.49075 13.4361 6.69697 13.5182 6.92545 13.6108C7.40008 13.8033 7.9509 14.0321 8.24229 14.1607C8.31351 14.192 8.59434 14.3097 8.87949 14.4279C8.97303 14.4667 9.04479 14.4969 9.12144 14.5292C8.97485 14.5999 8.70874 14.73 8.48242 14.8419C8.24065 14.9615 7.92598 15.1163 7.78443 15.1851C7.64186 15.2545 7.37629 15.384 7.19411 15.4731C7.12144 15.5086 7.06152 15.5376 7.00616 15.5642C6.98672 15.5026 6.96582 15.4358 6.9367 15.3418C6.86373 15.1063 6.76387 14.7814 6.65495 14.4238C6.54596 14.0661 6.44555 13.7373 6.37152 13.4957C6.35614 13.4454 6.34741 13.4173 6.33444 13.3751ZM9.5853 14.7408C9.60547 14.7499 9.63064 14.7618 9.66415 14.7779C9.73909 14.8138 9.8437 14.8649 9.96746 14.9262C10.215 15.0486 10.5395 15.2113 10.862 15.3742C11.1844 15.5372 11.5049 15.7004 11.7442 15.8241C11.8407 15.8739 11.9117 15.9112 11.9763 15.9454C11.9452 15.9789 11.9196 16.0067 11.8779 16.051C11.7389 16.1989 11.5467 16.401 11.3352 16.621C10.9116 17.0616 10.3378 17.6578 10.0603 17.946L9.65761 18.364L8.42173 17.1163C8.0535 16.7446 7.71873 16.4047 7.47626 16.1568C7.36683 16.0449 7.28363 15.959 7.21743 15.8903C7.24085 15.8781 7.25495 15.8706 7.28276 15.8563C7.42829 15.7819 7.63009 15.6813 7.85192 15.5728C8.29677 15.3551 8.87485 15.072 9.13679 14.9435C9.26592 14.8802 9.38858 14.8234 9.48003 14.7838C9.5241 14.7646 9.56005 14.7502 9.5853 14.7408ZM5.07328 16.0237C5.77079 16.0237 6.20918 16.0238 6.46956 16.0296C6.53755 16.0296 6.56269 16.0329 6.60749 16.0345C6.45991 16.3997 5.99931 17.5357 5.96818 17.6108C5.9267 17.5916 5.88114 17.5704 5.82798 17.5433C4.99351 17.1182 4.26486 16.6024 3.67687 16.0244H5.07328V16.0237ZM12.588 16.0758H14.1571H15.5855C15.0125 16.6283 14.2158 17.1858 13.4512 17.5628H13.4485C13.3896 17.5917 13.3392 17.6155 13.2934 17.6367C13.2785 17.6057 13.2659 17.5798 13.2463 17.538C13.1824 17.4013 13.0964 17.2138 13.0051 17.0128C12.8447 16.6596 12.6883 16.3063 12.588 16.0727L12.588 16.0758ZM6.9489 16.1898C7.01478 16.2526 7.0936 16.3286 7.19865 16.4317C7.44038 16.6691 7.7719 16.9999 8.13418 17.3663L8.38212 17.6169L9.18308 18.4268C9.08553 18.4217 9.03456 18.4219 8.7539 18.3948C8.22651 18.3439 7.58939 18.2119 7.06184 18.044C6.9409 18.0054 6.72913 17.9298 6.54713 17.8615C6.4613 17.8293 6.38435 17.7995 6.3238 17.7753C6.34054 17.7287 6.35826 17.6797 6.38387 17.6118C6.44994 17.4366 6.54062 17.2028 6.63321 16.9684C6.72584 16.7339 6.82044 16.4985 6.89421 16.3197C6.9162 16.2664 6.93129 16.2314 6.9489 16.1898ZM12.2468 16.2271C12.2923 16.3321 12.4428 16.6725 12.5972 17.0196C12.7541 17.3723 12.9072 17.7166 12.942 17.7953L12.7708 17.8615C11.9693 18.172 11.1615 18.3542 10.2825 18.4222C10.2115 18.4276 10.1897 18.428 10.1238 18.4321C10.3357 18.2062 10.8357 17.6842 11.342 17.1595C11.6128 16.8788 11.8729 16.6102 12.0659 16.4119C12.1412 16.3346 12.1954 16.2794 12.2468 16.2271Z" fill="#344444" fill-opacity="0.7"/>
</g>
<g clip-path="url(#clip1_1_5509)">
<path fill-rule="evenodd" clip-rule="evenodd" d="M43 0H42.5128H24.4872H24V0.487179V18.5128L24 19H24.4872H42.5128H43V18.5128V0.487179V0ZM25.2772 18.5128H41.7599L37.7296 16.9295H37.641H29.4281L25.2772 18.5128ZM30.7053 16.4423L33.64 15.3229L36.4895 16.4423H30.7053ZM37.8846 16.467L42.1518 18.1434L40.4344 13.641H37.8846V16.467ZM37.8995 13.1538H40.2486L39.0837 10.0999L37.8995 13.1538ZM39.3465 9.42205L40.3205 11.9754V6.91025L39.3465 9.42205ZM42.5128 17.7228L40.8077 13.2526V5.65384L42.5128 1.25641V17.7228ZM42.1486 0.848214L40.3995 5.35897H37.8846V2.48311L42.1486 0.848214ZM37.9826 5.84615H40.2106L39.0874 8.74273L37.9826 5.84615ZM38.8246 9.42061L37.4611 5.84615H37.3974V5.71744L33.4456 4.18512L29.7934 5.58542L28.2094 9.61763L29.5652 13.1538H29.6026V13.2133L33.6426 14.8005L37.2759 13.4146L38.8246 9.42061ZM29.1154 13.641V16.5273L24.8566 18.1518L26.6287 13.641H29.1154ZM29.0435 13.1538L27.9453 10.2898L26.8201 13.1538H29.0435ZM26.6795 12.1795L27.6868 9.61549L26.6795 6.98839V12.1795ZM26.1923 5.71778L24.4872 1.27062V17.7599L26.1923 13.4196V13.3974V5.71778ZM26.7633 5.84615L27.9508 8.94335L29.1676 5.84615H26.7633ZM29.1154 5.35897H26.5765L24.8482 0.851422L29.1154 2.50603V5.35897ZM37.3974 13.8896V16.2756L34.316 15.065L37.3974 13.8896ZM29.6026 16.3415V13.7367L32.9666 15.0583L29.6026 16.3415ZM33.4466 3.66296L36.3293 2.55769H30.5962L33.4466 3.66296ZM29.359 2.07051H37.5999L41.7294 0.487179H25.2564L29.3398 2.07051H29.359ZM29.6026 5.13685V2.69496L32.769 3.92274L29.6026 5.13685ZM37.3974 5.19492V2.66989L34.1232 3.9253L37.3974 5.19492Z" fill="#344444" fill-opacity="0.7"/>
</g>
<g clip-path="url(#clip2_1_5509)">
<path fill-rule="evenodd" clip-rule="evenodd" d="M3.07341 23.2007H16.1107L18.8914 25.9814V39.0187L16.1107 41.7994H3.07341L0.292725 39.0187V25.9814L3.07341 23.2007ZM3.13925 23.7924L4.67804 25.9648L3.05683 27.586L0.884435 26.0472L3.13925 23.7924ZM0.757692 26.5273L2.85004 28.0093V36.9907L0.757692 38.4728V26.5273ZM0.884435 38.9528L3.13925 41.2076L4.67804 39.0353L3.05683 37.4141L0.884435 38.9528ZM3.44176 37.1414L4.95069 38.6503L6.16013 36.9429L5.1492 35.932L3.44176 37.1414ZM5.53412 35.6593L6.43278 36.558L7.31286 35.3155L6.77655 34.7793L5.53412 35.6593ZM7.03473 34.3799L7.71225 35.0573H11.4719L12.1494 34.3799V30.6202L11.4719 29.9427H7.71225L7.03473 30.6202V34.3799ZM6.77655 30.2208L7.31286 29.6845L6.43278 28.4421L5.53412 29.3408L6.77655 30.2208ZM5.40734 29.8208V35.1793L6.56975 34.3559V30.6442L5.40734 29.8208ZM4.9424 29.4914V35.5086L3.31501 36.6614V28.3387L4.9424 29.4914ZM5.1492 29.0681L6.16013 28.0572L4.95069 26.3497L3.44176 27.8587L5.1492 29.0681ZM5.4307 26.223L6.58344 27.8504H12.6006L13.7534 26.223H5.4307ZM14.2334 26.3497L15.7423 27.8587L14.0349 29.0681L13.024 28.0572L14.2334 26.3497ZM12.2713 28.3153H6.91278L7.73618 29.4778H11.448L12.2713 28.3153ZM11.8712 29.6845L12.7513 28.4421L13.65 29.3408L12.4075 30.2208L11.8712 29.6845ZM12.6143 30.6442V34.3559L13.7767 35.1793V29.8208L12.6143 30.6442ZM14.2417 29.4914V35.5086L15.8691 36.6614V28.3387L14.2417 29.4914ZM16.3341 28.0093V36.9907L18.4264 38.4728V26.5273L16.3341 28.0093ZM18.2997 26.0472L16.1273 27.586L14.506 25.9648L16.0448 23.7924L18.2997 26.0472ZM15.5648 23.6657L14.0827 25.758H5.10135L3.61928 23.6657H15.5648ZM18.2997 38.9528L16.1273 37.4141L14.506 39.0353L16.0448 41.2076L18.2997 38.9528ZM15.5648 41.3344L14.0827 39.2421H5.10135L3.61928 41.3344H15.5648ZM5.4307 38.7771H13.7534L12.6006 37.1497H6.58344L5.4307 38.7771ZM6.91278 36.6847H12.2713L11.448 35.5223H7.73618L6.91278 36.6847ZM11.8712 35.3155L12.7513 36.558L13.65 35.6593L12.4075 34.7793L11.8712 35.3155ZM14.0349 35.932L13.024 36.9429L14.2334 38.6503L15.7423 37.1414L14.0349 35.932Z" fill="#344444" fill-opacity="0.7"/>
</g>
<path d="M33.5984 23.2316C31.7869 23.2316 30.1592 24.29 28.9919 25.9699C27.8246 27.6499 27.1057 29.957 27.1057 32.5047C27.1057 35.0473 27.8246 37.3517 28.9919 39.0303C30.1592 40.7089 31.7869 41.7686 33.5984 41.7686C35.4047 41.7686 37.0295 40.7089 38.1954 39.0303C39.3613 37.3517 40.0816 35.0473 40.0816 32.5047C40.0816 29.957 39.3613 27.6498 38.1954 25.9699C37.0295 24.29 35.4047 23.2316 33.5984 23.2316ZM33.4278 23.5379L32.1577 25.7936L30.916 24.4198C31.6807 23.8849 32.5327 23.5735 33.4278 23.5379ZM33.7974 23.5379C34.6508 23.5776 35.4596 23.875 36.1955 24.3734L35.0675 25.6172L33.7974 23.5379ZM33.6174 23.8257L34.859 25.8493L33.532 27.3066L32.3757 26.0349L33.6174 23.8257ZM36.4419 24.5497C36.9316 24.921 37.3838 25.3801 37.7878 25.9235L35.2192 25.9143L35.238 25.9051L35.2286 25.8867L36.4419 24.5497ZM30.6696 24.6054L31.8638 25.9142L29.3995 25.9234C29.7832 25.4079 30.2079 24.9667 30.6696 24.6054ZM32.025 26.2113L31.9207 28.4855L29.8544 28.9217L29.3995 26.2206L32.025 26.2113ZM35.1623 26.2113L37.7689 26.2205L37.3424 28.931L35.2381 28.5504L35.1623 26.2113ZM34.878 26.2763L34.9348 28.4019L33.7311 27.5387L34.878 26.2763ZM38.0627 26.3134C38.4864 26.957 38.846 27.6896 39.1243 28.4947L37.6362 29.0238L38.0627 26.3134ZM29.1151 26.3226L29.5701 29.0238L28.0535 28.504C28.3308 27.6988 28.6922 26.9666 29.1151 26.3226ZM32.3188 26.4247L33.3235 27.5293L32.224 28.3833L32.3188 26.4247ZM33.5225 27.7521H33.5319H33.5414L34.8588 28.6989L35.9299 31.9755L35.456 35.41L33.5698 36.8581L31.9395 35.4471L31.2666 31.9106L32.2523 28.736L33.5225 27.7521ZM39.2191 28.7639C39.4813 29.5905 39.6529 30.4878 39.7309 31.4279L37.7594 29.2929L39.2191 28.7639ZM31.9207 28.7822L31.0676 31.5577L29.9398 29.2092L31.9207 28.7822ZM27.9683 28.7914L29.4279 29.2834L27.4564 31.3905C27.535 30.4734 27.7139 29.6003 27.9683 28.7914ZM35.2192 28.8472L37.2476 29.2091L36.1291 31.6412L35.2192 28.8472ZM29.7123 29.4134L30.9255 31.9567L29.5701 34.0545L27.5607 31.7154L29.7123 29.4134ZM37.4751 29.4226L39.6172 31.7339L37.6267 34.0638L36.3187 31.9474L37.4751 29.4226ZM27.4185 32.0031L29.3805 34.2865L27.7976 35.6418C27.546 34.6668 27.409 33.607 27.409 32.5043C27.409 32.3358 27.4121 32.1693 27.4185 32.0031ZM39.7688 32.0402C39.7743 32.1941 39.7782 32.3485 39.7782 32.5043C39.7782 33.593 39.6449 34.6401 39.3991 35.6046L37.8352 34.268L39.7688 32.0402ZM36.186 32.3001L37.4182 34.2772L35.7879 35.2519L36.186 32.3001ZM31.0392 32.3372L31.6079 35.2797L29.8449 34.1752L31.0392 32.3372ZM29.8355 34.5186L31.6174 35.6325L31.7596 38.4729L29.1246 38.3987L29.8355 34.5186ZM37.5319 34.5465L38.2144 38.2038L35.5983 38.6494L35.7784 35.5954L37.5319 34.5465ZM29.5227 34.5557L28.8403 38.2316C28.4489 37.5494 28.1222 36.7798 27.8829 35.9481L29.5227 34.5557ZM37.8637 34.6857L39.3139 35.9203C39.1007 36.6678 38.8166 37.3609 38.4798 37.9902L37.8637 34.6857ZM35.4561 35.7717L35.3045 38.5379L33.8069 37.0434L35.4561 35.7717ZM31.9302 35.8274L33.3709 37.0806L32.0534 38.3244L31.9302 35.8274ZM33.6079 37.257L35.2097 38.8628L33.6553 41.1834L32.0629 38.7793H32.0817V38.705L33.6079 37.257ZM38.1859 38.51C38.1098 38.6323 38.0295 38.7468 37.949 38.8628C37.622 39.3336 37.2586 39.7514 36.8684 40.1066L35.6931 38.9371L38.1859 38.51ZM29.1246 38.6957L31.5795 38.77L30.243 40.0416C29.8805 39.7015 29.545 39.3038 29.2383 38.8628C29.1999 38.8075 29.162 38.7524 29.1246 38.6957ZM31.8164 38.9556L33.4752 41.4711C32.3812 41.4397 31.3501 40.9967 30.4611 40.2366L31.8164 38.9556ZM35.4372 39.0856L36.6505 40.3015C35.8118 40.9967 34.8524 41.4054 33.8354 41.4619L35.4372 39.0856Z" fill="#344444" fill-opacity="0.7"/>
<path opacity="0.66" fill-rule="evenodd" clip-rule="evenodd" d="M28.9856 25.9774C30.1497 24.2976 31.7787 23.2316 33.5983 23.2316C35.4129 23.2316 37.039 24.2977 38.2018 25.9775C39.3648 27.6575 40.0816 29.9621 40.0816 32.5047C40.0816 35.0421 39.3648 37.344 38.2018 39.0228C37.039 40.7012 35.4129 41.7686 33.5983 41.7686C31.7786 41.7686 30.1497 40.7013 28.9856 39.0228C27.8211 37.344 27.1057 35.0421 27.1057 32.5047C27.1057 29.9622 27.8211 27.6576 28.9856 25.9774ZM33.5983 23.334C31.8245 23.334 30.2245 24.3732 29.0731 26.0346C27.9218 27.6957 27.2112 29.9798 27.2112 32.5047C27.2112 35.0244 27.9218 37.3057 29.0731 38.9656C30.2245 40.6258 31.8245 41.6662 33.5983 41.6662C35.367 41.6662 36.9641 40.6258 38.1142 38.9656C39.2641 37.3058 39.9761 35.0244 39.9761 32.5047C39.9761 29.9799 39.2641 27.6957 38.1142 26.0346C36.9641 24.3731 35.367 23.334 33.5983 23.334ZM33.7006 23.5318L33.7983 23.5363C34.6561 23.5763 35.4678 23.876 36.2046 24.3763L36.2528 24.4091L35.0472 25.7421L33.7006 23.5318ZM31.0158 24.4732L32.1592 25.7417L33.3377 23.6434C32.5138 23.6945 31.7278 23.9849 31.0158 24.4732ZM33.4292 23.5875L33.427 23.5363C32.5275 23.5721 31.6727 23.8858 30.9069 24.4229L30.86 24.4558L32.1794 25.9196L33.4754 23.612L33.4292 23.5875ZM33.8917 23.6444L35.0639 25.5684L36.0956 24.4277C35.4143 23.9754 34.6721 23.6995 33.8917 23.6444ZM33.6152 23.7701L34.9137 25.8919L33.5325 27.4128L32.3216 26.0776L33.6152 23.7701ZM33.6192 23.9772L32.4495 26.0637L33.5326 27.2578L34.7838 25.8801L33.6192 23.9772ZM36.3842 24.5023L36.4513 24.5533C36.9412 24.9258 37.3931 25.3859 37.7966 25.9299L37.857 26.0114L35.2058 26.0019L35.1946 25.956L35.1773 25.9642L35.1524 25.9152L36.3698 24.5704L36.3842 24.5023ZM36.4255 24.664L35.3067 25.8999L37.6497 25.9083C37.2783 25.4213 36.8674 25.0058 36.4255 24.664ZM30.7461 24.6297V24.5417L30.6602 24.6091C30.1982 24.9716 29.7739 25.4139 29.3908 25.9298L29.3302 26.0114L31.9945 26.0014L30.7461 24.6297ZM30.6874 24.7198C30.2729 25.0507 29.8886 25.4482 29.5377 25.9082L31.7613 25.8999L30.6874 24.7198ZM34.9168 26.1788L34.9795 28.5282L33.6525 27.5741L34.9168 26.1788ZM35.0984 26.297L35.1734 28.615L37.3558 29.0107L37.7963 26.2042L35.1498 26.1948L35.1496 26.2452L35.0968 26.246V26.297H35.0984ZM37.6736 26.3062L35.204 26.2974L35.2761 28.5294L37.268 28.8906L37.6736 26.3062ZM29.4956 26.3062L29.9279 28.88L31.8834 28.466L31.9826 26.2975L29.4956 26.3062ZM32.0882 26.2971L31.9852 28.5493L29.8417 29.003L29.3716 26.2043L32.0376 26.1949L32.0377 26.2449L32.0905 26.246V26.2971L32.0882 26.2971ZM37.9954 26.2051L38.0709 26.32C38.4935 26.9638 38.852 27.6962 39.1293 28.5006L39.1456 28.5478L37.5378 29.121L37.9954 26.2051ZM29.1813 26.2158L29.6692 29.1201L28.0322 28.5575L28.0486 28.5098C28.3249 27.7053 28.6851 26.9733 29.107 26.3292L29.1813 26.2158ZM33.8075 27.5581L34.8684 28.3209L34.8183 26.4425L33.8075 27.5581ZM38.0571 26.4917L37.6689 28.9651L39.013 28.486C38.7573 27.7556 38.4342 27.0867 38.0571 26.4917ZM28.1651 28.4946C28.4201 27.7638 28.7448 27.0948 29.122 26.4991L29.5364 28.9658L28.1651 28.4946ZM32.2826 26.3294L33.4018 27.5632L32.177 28.517L32.2826 26.3294ZM32.3758 26.5871L32.2933 28.2951L33.2496 27.5504L32.3758 26.5871ZM33.5044 27.7271H33.5592L34.8937 28.6886L35.9648 31.9739L35.4903 35.4212L33.5679 36.9009L31.9043 35.4574L31.2313 31.9109L32.2174 28.7268L33.5044 27.7271ZM33.5332 27.8359L32.309 28.7868L31.3396 31.9167L32.0015 35.4044L33.572 36.7671L35.3914 35.3667L35.8571 31.983L34.8034 28.7511L33.5332 27.8359ZM39.2073 28.7175L39.2238 28.7695C39.4851 29.5954 39.6559 30.4914 39.7336 31.4297L39.7462 31.5814L37.6348 29.2889L39.2073 28.7175ZM32.0105 28.7339L31.0991 31.707L29.894 29.1913L32.0105 28.7339ZM37.8163 29.3324L39.6149 31.2853C39.5343 30.4288 39.375 29.6104 39.1392 28.8516L37.8163 29.3324ZM30.045 29.2636L31.0773 31.4188L31.8581 28.8717L30.045 29.2636ZM28.014 28.812L27.9635 28.797C27.7101 29.6048 27.5321 30.4767 27.4537 31.3924L27.4408 31.5431L29.5543 29.2783L28.0313 28.7636L28.014 28.812ZM29.3692 29.3241L28.0486 28.8779C27.8196 29.6196 27.6546 30.4153 27.5728 31.2491L29.3692 29.3241ZM35.1293 28.8015L37.2933 29.1888L36.1001 31.7902L35.1293 28.8015ZM35.2826 28.9331L36.117 31.5016L37.1424 29.2659L35.2826 28.9331ZM29.7583 29.3386L31.007 31.9634L29.6089 34.1331L27.5399 31.7183L29.7583 29.3386ZM37.4283 29.3465L39.6378 31.7368L37.587 34.1436L36.2373 31.954L37.4283 29.3465ZM27.6795 31.7212L29.5967 33.9588L30.8873 31.9561L29.7294 29.5222L27.6795 31.7212ZM37.4587 29.5327L36.3559 31.9469L37.6009 33.9667L39.4986 31.7395L37.4587 29.5327ZM27.4178 31.9546H27.4934L29.4881 34.2821L27.8146 35.7186L27.7936 35.6369C27.5429 34.6631 27.4066 33.605 27.4066 32.5043C27.4066 32.3361 27.4096 32.1699 27.4159 32.0039L27.4178 31.9546ZM27.5169 32.1422C27.5136 32.2622 27.512 32.3827 27.512 32.5043C27.512 33.566 27.6399 34.5873 27.8751 35.53L29.3415 34.2712L27.5169 32.1422ZM39.694 31.9915H39.7696L39.7714 32.041C39.7768 32.1943 39.7807 32.3485 39.7807 32.5043C39.7807 33.5909 39.6479 34.6364 39.4031 35.5998L39.3822 35.6818L37.7272 34.2635L39.694 31.9915ZM39.6702 32.1782C39.6732 32.2865 39.6752 32.3951 39.6752 32.5043C39.6752 33.552 39.5509 34.5607 39.3213 35.4929L37.8742 34.2529L39.6702 32.1782ZM36.1322 32.1494L37.4592 34.2844L35.7034 35.3368L36.1322 32.1494ZM31.0871 32.2002L31.6985 35.3721L29.803 34.1814L31.0871 32.2002ZM36.1977 32.453L35.8367 35.1366L37.315 34.2505L36.1977 32.453ZM29.9478 34.1504L31.5497 35.1566L31.0329 32.4761L29.9478 34.1504ZM29.6344 34.4094L28.9047 38.3503L28.8328 38.2248C28.4425 37.5427 28.1169 36.7736 27.8786 35.9428L27.8697 35.9118L29.6344 34.4094ZM29.828 34.4226L31.6849 35.5864L31.83 38.4927L29.0983 38.4155L29.828 34.4226ZM37.5381 34.4521L38.2381 38.2138L35.5256 38.677L35.7096 35.5488L37.5381 34.4521ZM29.9041 34.5922L29.2235 38.3166L31.7191 38.3871L31.5821 35.6439L29.9041 34.5922ZM35.8118 35.6079L35.6385 38.5537L38.1155 38.1308L37.4618 34.6183L35.8118 35.6079ZM27.9891 35.9463C28.2097 36.7066 28.5038 37.4137 28.8535 38.0478L29.4772 34.6794L27.9891 35.9463ZM37.7502 34.5382L39.327 35.8841L39.3182 35.915C39.1058 36.6619 38.8227 37.3544 38.4869 37.9835L38.4156 38.1169L37.7502 34.5382ZM37.9077 34.809L38.4641 37.801C38.7611 37.2235 39.0135 36.5938 39.2077 35.9186L37.9077 34.809ZM31.885 35.689L33.4499 37.0537L32.0188 38.4083L31.885 35.689ZM33.8835 37.0232L35.2443 38.3847L35.3821 35.8647L33.8835 37.0232ZM35.441 35.7537L35.4081 35.7136L33.7268 37.0135L35.3369 38.6244L35.4937 35.7564L35.441 35.7537ZM32.0024 35.9291L32.113 38.1761L33.2955 37.0568L32.0024 35.9291ZM33.5861 37.1795H33.6301L35.2637 38.8213L33.6545 41.2299L31.9789 38.6934H32.0413V38.6492L33.5861 37.1795ZM32.1468 38.7578L33.655 41.0409L35.1295 38.8339L33.6067 37.3033L32.1468 38.6922V38.7578ZM38.2537 38.4068L38.1938 38.5033C38.123 38.6173 38.0486 38.7246 37.9746 38.8313C37.9688 38.8396 37.9631 38.8479 37.9573 38.8562C37.631 39.3273 37.268 39.7458 36.878 40.1019L36.8402 40.1364L35.5688 38.8679L38.2537 38.4068ZM35.7833 38.9351L36.8433 39.9927C37.2129 39.6497 37.558 39.2491 37.8698 38.799L37.8868 38.7745C37.9393 38.6988 37.9911 38.624 38.0415 38.5472L35.7833 38.9351ZM29.1609 38.6615L29.1165 38.6891C29.154 38.7459 29.1918 38.8011 29.23 38.8562C29.5359 39.2972 29.8709 39.6957 30.2336 40.0368L30.2706 40.0715L31.7209 38.6879L29.1626 38.6103L29.1609 38.6615ZM31.4709 38.7828L29.2602 38.7157C29.2791 38.7435 29.2982 38.7713 29.3175 38.799C29.6095 39.2201 29.9276 39.6007 30.2702 39.9283L31.4709 38.7828ZM31.8405 38.8393L33.5743 41.4756L33.4746 41.4728C32.3752 41.4411 31.341 40.9946 30.4516 40.2322L30.409 40.1957L31.8405 38.8393ZM30.5642 40.1918C31.401 40.8957 32.3611 41.3129 33.3772 41.3663L31.8213 39.0006L30.5642 40.1918ZM35.4222 39.0492L35.3781 39.0212L33.7321 41.4693L33.8364 41.4635C34.8584 41.4066 35.8207 40.9949 36.6599 40.2974L36.7025 40.262L35.4602 39.0136L35.4222 39.0492ZM35.4302 39.1309L33.9355 41.3541C34.8751 41.2786 35.7637 40.8946 36.5486 40.2547L35.4302 39.1309Z" fill="#344444" fill-opacity="0.7"/>
<defs>
<clipPath id="clip0_1_5509">
<rect width="19" height="19" fill="white"/>
</clipPath>
<clipPath id="clip1_1_5509">
<rect width="19" height="19" fill="white" transform="translate(24)"/>
</clipPath>
<clipPath id="clip2_1_5509">
<rect width="19" height="19" fill="white" transform="translate(0 23)"/>
</clipPath>
</defs>
</svg>
