<svg width="43" height="43" viewBox="0 0 43 43" fill="none" xmlns="http://www.w3.org/2000/svg">
<g id="Sample Diamond-2" clip-path="url(#clip0_1_5497)">
<path id="Vector" fill-rule="evenodd" clip-rule="evenodd" d="M43 0H41.8974H1.10256H1.87959e-06V1.10256V41.8974L0 43H1.10256H41.8974H43V41.8974V1.10256V0ZM2.89051 41.8974H40.1935L31.0722 38.3141H30.8718H12.2847L2.89051 41.8974ZM15.1751 37.2115L21.8169 34.6781L28.2657 37.2115H15.1751ZM31.4231 37.2673L41.0804 41.0613L37.1937 30.8718H31.4231V37.2673ZM31.4568 29.7692H36.7732L34.1368 22.8577L31.4568 29.7692ZM34.7317 21.3236L36.9359 27.1022V15.639L34.7317 21.3236ZM41.8974 40.1095L38.0385 29.9927V12.7955L41.8974 2.84345V40.1095ZM41.0731 1.91964L37.1147 12.1282H31.4231V5.61966L41.0731 1.91964ZM31.6447 13.2308H36.6872L34.1453 19.7862L31.6447 13.2308ZM33.5504 21.3203L30.4647 13.2308H30.3205V12.9395L21.3769 9.47158L13.1115 12.6407L9.52643 21.7662L12.5949 29.7692H12.6795V29.9038L21.8228 33.4958L30.0455 30.3593L33.5504 21.3203ZM11.5769 30.8718V37.404L1.9387 41.0804L5.94927 30.8718H11.5769ZM11.4141 29.7692L8.92884 23.2874L6.38241 29.7692H11.4141ZM6.0641 27.5641L8.34376 21.7614L6.0641 15.8158V27.5641ZM4.96154 12.9402L1.10256 2.87561V40.1935L4.96154 30.3706V30.3205V12.9402ZM6.25374 13.2308L8.94135 20.2402L11.6951 13.2308H6.25374ZM11.5769 12.1282H5.83102L1.91965 1.9269L11.5769 5.67153V12.1282ZM30.3205 31.4344V36.8342L23.3468 34.0945L30.3205 31.4344ZM12.6795 36.9834V31.0884L20.2929 34.0794L12.6795 36.9834ZM21.3792 8.28985L27.9031 5.78846H14.9282L21.3792 8.28985ZM12.1282 4.6859H30.7787L40.1244 1.10256H2.84346L12.0847 4.6859H12.1282ZM12.6795 11.6255V6.09911L19.8457 8.87779L12.6795 11.6255ZM30.3205 11.7569V6.04238L22.9103 8.88358L30.3205 11.7569Z" fill="#344444" fill-opacity="0.7"/>
</g>
<defs>
<clipPath id="clip0_1_5497">
<rect width="43" height="43" fill="white"/>
</clipPath>
</defs>
</svg>
