<svg width="43" height="43" viewBox="0 0 43 43" fill="none" xmlns="http://www.w3.org/2000/svg">
<path fill-rule="evenodd" clip-rule="evenodd" d="M13.3684 0.413452H13.1999L13.0703 0.521453L7.1975 5.41385L7.02881 5.55438V5.77444V37.9244V38.1662L7.22503 38.3063L13.0978 42.4998L13.2193 42.5865H13.3684H29.1798H29.3249L29.4444 42.504L35.7689 38.1358L35.9711 37.9961V37.7497V5.77444V5.54396L35.7893 5.40327L29.4647 0.510876L29.3388 0.413452H29.1798H13.3684ZM8.08696 5.89075L13.3616 1.49661L14.1962 3.06735L9.68345 7.06597L8.08696 5.89075ZM7.96243 37.6695V37.6827L13.1678 41.3996L14.0077 39.8188L9.59521 36.4675L7.96243 37.6695ZM7.96243 36.5073L9.36287 35.4764V7.99214L7.96243 6.96124V36.5073ZM10.381 35.8891L14.4526 38.9815L15.297 37.3922L12.0217 34.6814L10.381 35.8891ZM11.6969 33.7583L10.2965 34.7891V8.67938L11.6969 9.7103V33.7583ZM12.7984 34.1096L15.7452 36.5485L16.5977 34.9441L14.4328 32.9065L12.7984 34.1096ZM14.031 32.0401L12.6305 33.071V10.3976L14.031 11.4285V32.0401ZM14.4056 10.5421L12.8142 9.3706L15.941 6.35132L16.7815 7.93317L14.4056 10.5421ZM12.05 8.80804L10.454 7.63323L14.6478 3.91728L15.4843 5.49186L12.05 8.80804ZM14.0932 41.6494L14.8401 40.2436H27.8998H28.0511L28.8913 41.6494H14.0932ZM29.7039 41.1871L34.9211 37.5838L33.2987 36.3895L28.8081 39.6884L29.7039 41.1871ZM35.0375 6.96124V36.5073L33.637 35.4764V7.99214L35.0375 6.96124ZM32.7034 8.67938V34.7891L31.303 33.7583V9.7103L32.7034 8.67938ZM30.8877 34.6147L32.509 35.8082L28.3257 38.8814L27.43 37.3829L30.8877 34.6147ZM30.3694 10.3976V33.071L28.969 32.0401V11.4285L30.3694 10.3976ZM30.1077 34.0405L28.4924 32.8515L26.0504 35.0748L26.9453 36.5721L30.1077 34.0405ZM29.4853 1.70996L34.9012 5.89945L33.3102 7.07064L28.5984 3.19385L29.4853 1.70996ZM28.1128 4.00613L32.5328 7.64284L30.9414 8.81441L27.2286 5.48546L28.1128 4.00613ZM26.7396 6.30359L30.1717 9.38094L28.5833 10.5502L25.8607 7.774L26.7396 6.30359ZM25.2502 35.5577L26.0905 36.9635H16.5829L17.3298 35.5577H17.4341H25.2502ZM26.6507 37.9006L27.4909 39.3064H15.3381L16.0849 37.9006H26.6199H26.6507ZM13.3777 41.5495L13.5642 41.6494H13.5175L13.3777 41.5495ZM28.6113 1.35063H14.3422L15.0891 2.7564H27.771L28.6113 1.35063ZM27.2109 3.69358H15.587L16.3339 5.09935H26.3706L27.2109 3.69358ZM25.8104 6.03653H16.8318L17.5788 7.4423H24.9701L25.8104 6.03653ZM14.9646 11.3173L17.6399 8.37945H25.1444L28.0353 11.3273V32.0024L25.1597 34.6205H17.6188L14.9646 32.1222V11.3173Z" fill="#344444" fill-opacity="0.7"/>
</svg>
