<svg width="43" height="43" viewBox="0 0 43 43" fill="none" xmlns="http://www.w3.org/2000/svg">
<g id="svgexport-39" clip-path="url(#clip0_1_5484)">
<path id="Vector" fill-rule="evenodd" clip-rule="evenodd" d="M6.95548 0.454285H36.4609L42.754 6.74741V36.2528L36.4609 42.546H6.95548L0.662354 36.2528V6.74741L6.95548 0.454285ZM7.10448 1.79342L10.587 6.7099L6.91797 10.3789L2.00149 6.89641L7.10448 1.79342ZM1.71465 7.9828L6.44996 11.337V31.6633L1.71465 35.0174V7.9828ZM2.00149 36.1038L7.10448 41.2068L10.587 36.2903L6.91797 32.6214L2.00149 36.1038ZM7.78911 32.0042L11.2041 35.4192L13.9412 31.5551L11.6533 29.2672L7.78911 32.0042ZM12.5245 28.6501L14.5583 30.6839L16.55 27.872L15.3363 26.6583L12.5245 28.6501ZM15.9206 25.7545L17.4539 27.2877H25.9625L27.4958 25.7545V17.2458L25.9625 15.7125H17.4539L15.9206 17.2458V25.7545ZM15.3363 16.342L16.55 15.1282L14.5583 12.3164L12.5245 14.3502L15.3363 16.342ZM12.2375 15.4365V27.5637L14.8682 25.7003V17.3L12.2375 15.4365ZM11.1853 14.6912V28.3091L7.50225 30.9179V12.0824L11.1853 14.6912ZM11.6533 13.7331L13.9412 11.4452L11.2041 7.58103L7.78911 10.996L11.6533 13.7331ZM12.2904 7.29418L14.8992 10.9772H28.5171L31.126 7.29418H12.2904ZM32.2123 7.58103L35.6273 10.996L31.7631 13.7331L29.4753 11.4452L32.2123 7.58103ZM27.7718 12.0295H15.6446L17.5081 14.6603H25.9084L27.7718 12.0295ZM26.8663 15.1282L28.8581 12.3164L30.892 14.3502L28.0801 16.342L26.8663 15.1282ZM28.5481 17.3V25.7003L31.1788 27.5637V15.4365L28.5481 17.3ZM32.2312 14.6912V28.3091L35.9141 30.9179V12.0824L32.2312 14.6912ZM36.9664 11.337V31.6633L41.7017 35.0174V7.9828L36.9664 11.337ZM41.4149 6.89641L36.4984 10.3789L32.8293 6.7099L36.3119 1.79342L41.4149 6.89641ZM35.2255 1.50658L31.8713 6.24189H11.545L8.19087 1.50658H35.2255ZM41.4149 36.1038L36.4984 32.6214L32.8293 36.2903L36.3119 41.2068L41.4149 36.1038ZM35.2255 41.4936L31.8713 36.7584H11.545L8.19087 41.4936H35.2255ZM12.2904 35.706H31.126L28.5171 32.0231H14.8992L12.2904 35.706ZM15.6446 30.9708H27.7718L25.9084 28.34H17.5081L15.6446 30.9708ZM26.8663 27.872L28.8581 30.6839L30.892 28.6501L28.0801 26.6583L26.8663 27.872ZM31.7631 29.2672L29.4753 31.5551L32.2123 35.4192L35.6273 32.0042L31.7631 29.2672Z" fill="#344444" fill-opacity="0.7"/>
</g>
<defs>
<clipPath id="clip0_1_5484">
<rect width="43" height="43" fill="white"/>
</clipPath>
</defs>
</svg>
