<svg width="56" height="57" viewBox="0 0 56 57" fill="none" xmlns="http://www.w3.org/2000/svg">
<rect x="4" y="4.5" width="48" height="48" rx="24" fill="#D1FADF"/>
<rect x="4" y="4.5" width="48" height="48" rx="24" stroke="#ECFDF3" stroke-width="8"/>
<g clip-path="url(#clip0_192_13427)">
<path d="M21.7829 39.5475H17.1324C16.9522 39.5475 16.7795 39.4759 16.6521 39.3485C16.5247 39.2211 16.4531 39.0484 16.4531 38.8682V34.2177C16.4531 34.0375 16.5247 33.8647 16.6521 33.7374C16.7795 33.61 16.9522 33.5384 17.1324 33.5384C17.3125 33.5384 17.4853 33.61 17.6127 33.7374C17.7401 33.8647 17.8116 34.0375 17.8116 34.2177V38.189H21.7829C21.9631 38.189 22.1359 38.2605 22.2632 38.3879C22.3906 38.5153 22.4622 38.6881 22.4622 38.8682C22.4622 39.0484 22.3906 39.2211 22.2632 39.3485C22.1359 39.4759 21.9631 39.5475 21.7829 39.5475ZM38.8682 22.4622C38.6881 22.4622 38.5153 22.3906 38.3879 22.2632C38.2605 22.1359 38.189 21.9631 38.189 21.7829V17.8116H34.2177C34.0375 17.8116 33.8647 17.7401 33.7374 17.6127C33.61 17.4853 33.5384 17.3125 33.5384 17.1324C33.5384 16.9522 33.61 16.7795 33.7374 16.6521C33.8647 16.5247 34.0375 16.4531 34.2177 16.4531H38.8682C39.0484 16.4531 39.2211 16.5247 39.3485 16.6521C39.4759 16.7795 39.5475 16.9522 39.5475 17.1324V21.7829C39.5475 21.9631 39.4759 22.1359 39.3485 22.2632C39.2211 22.3906 39.0484 22.4622 38.8682 22.4622ZM38.8682 39.5475H34.2177C34.0375 39.5475 33.8647 39.4759 33.7374 39.3485C33.61 39.2211 33.5384 39.0484 33.5384 38.8682C33.5384 38.6881 33.61 38.5153 33.7374 38.3879C33.8647 38.2605 34.0375 38.189 34.2177 38.189H38.189V34.2177C38.189 34.0375 38.2605 33.8647 38.3879 33.7374C38.5153 33.61 38.6881 33.5384 38.8682 33.5384C39.0484 33.5384 39.2211 33.61 39.3485 33.7374C39.4759 33.8647 39.5475 34.0375 39.5475 34.2177V38.8682C39.5475 39.0484 39.4759 39.2211 39.3485 39.3485C39.2211 39.4759 39.0484 39.5475 38.8682 39.5475ZM17.1324 22.4622C16.9522 22.4622 16.7795 22.3906 16.6521 22.2632C16.5247 22.1359 16.4531 21.9631 16.4531 21.7829V17.1324C16.4531 16.9522 16.5247 16.7795 16.6521 16.6521C16.7795 16.5247 16.9522 16.4531 17.1324 16.4531H21.7829C21.9631 16.4531 22.1359 16.5247 22.2632 16.6521C22.3906 16.7795 22.4622 16.9522 22.4622 17.1324C22.4622 17.3125 22.3906 17.4853 22.2632 17.6127C22.1359 17.7401 21.9631 17.8116 21.7829 17.8116H17.8116V21.7829C17.8116 21.9631 17.7401 22.1359 17.6127 22.2632C17.4853 22.3906 17.3125 22.4622 17.1324 22.4622Z" fill="#008243"/>
<path d="M37.0181 22.2533V33.7489C37.0181 34.2492 36.6155 34.6545 36.1151 34.6545C34.4695 34.6545 30.164 34.6532 19.887 34.6482C19.6468 34.6482 19.4165 34.5528 19.2466 34.3829C19.0768 34.2131 18.9814 33.9827 18.9814 33.7425V22.2533C18.9814 22.0131 19.0768 21.7828 19.2466 21.6129C19.4165 21.4431 19.6468 21.3477 19.887 21.3477H36.1124C36.3526 21.3477 36.583 21.4431 36.7528 21.6129C36.9226 21.7828 37.0181 22.0131 37.0181 22.2533Z" fill="#EDEDED"/>
<path d="M28.5606 23.6016H29.4381V32.4001H28.5606V23.6016ZM33.3044 23.6016H34.182V32.4001H33.3044V23.6016ZM34.8644 23.6016H35.7492V32.4001H34.8644V23.6016ZM22.5841 23.6016H23.4477V32.3892H22.5841V23.6016ZM24.7437 23.6016H26.5894V32.4001L24.7437 32.3892V23.6016ZM30.7686 23.6016H32.6075V32.4001H30.7686V23.6016ZM27.495 23.6016H27.9198V32.4001H27.495V23.6016ZM20.2507 23.6016H22.1172V32.3892H20.2507V23.6016Z" fill="#008243"/>
<path d="M40.0004 27.5002C40.0004 27.7764 39.6625 28 39.2461 28H16.755C16.5549 28 16.363 27.9473 16.2214 27.8536C16.0799 27.7598 16.0004 27.6326 16.0004 27.5C16.0004 27.3674 16.0799 27.2402 16.2214 27.1464C16.363 27.0527 16.5549 27 16.755 27H39.2461C39.6625 27 40.0004 27.2239 40.0004 27.5002Z" fill="#008243"/>
</g>
<defs>
<clipPath id="clip0_192_13427">
<rect width="24" height="24" fill="white" transform="translate(16 16)"/>
</clipPath>
</defs>
</svg>
