<svg width="135" height="74" viewBox="0 0 135 74" fill="none" xmlns="http://www.w3.org/2000/svg">
<path d="M64.2636 7.08616L44.5371 26.1589M69.8382 7.08594L89.5648 26.1588L76.9932 14.0043" stroke="#1D2939" stroke-miterlimit="10" stroke-linecap="round" stroke-linejoin="round"/>
<path d="M128.485 73H6.51511C3.46921 73 1 71.3738 1 69.3679V29.6321C1 27.6262 3.46921 26 6.51511 26H128.485C131.531 26 134 27.6262 134 29.6321V69.3681C134 71.3738 131.531 73 128.485 73Z" fill="#E1F6F1"/>
<path d="M9 73H4.33698C2.49443 73 1 71.3733 1 69.3677V29.6323C1 27.6249 2.49443 26 4.33698 26H9C7.15746 26 5.66302 27.6249 5.66302 29.6323V69.3677C5.66302 71.3733 7.15746 73 9 73Z" fill="#006440"/>
<path d="M134 52.2246V69.3677C134 71.3733 131.53 73 128.485 73H6.51535C3.47 73 1 71.3733 1 69.3677V29.6323C1 27.6249 3.47 26 6.51535 26H128.485C131.53 26 134 27.6249 134 29.6323V56.0562" stroke="#1D2939" stroke-miterlimit="10" stroke-linecap="round" stroke-linejoin="round"/>
<path d="M67.0527 10.1765C69.5864 10.1765 71.6404 8.12225 71.6404 5.58824C71.6404 3.05422 69.5864 1 67.0527 1C64.519 1 62.465 3.05422 62.465 5.58824C62.465 8.12225 64.519 10.1765 67.0527 10.1765Z" fill="#918291"/>
<path d="M68.4712 9.83523C67.9525 10.0553 67.3854 10.1765 66.791 10.1765C64.3394 10.1765 62.3535 8.12166 62.3535 5.58823C62.3535 3.05481 64.3394 1 66.791 1C67.3854 1 67.9525 1.12113 68.4712 1.34124C66.8539 2.02519 65.7152 3.66933 65.7152 5.58823C65.7152 7.50714 66.8539 9.15128 68.4712 9.83523Z" fill="#7A6D79"/>
<path d="M67.0527 10.1765C69.5864 10.1765 71.6404 8.12225 71.6404 5.58824C71.6404 3.05422 69.5864 1 67.0527 1C64.519 1 62.465 3.05422 62.465 5.58824C62.465 8.12225 64.519 10.1765 67.0527 10.1765Z" stroke="#1D2939" stroke-miterlimit="10" stroke-linecap="round" stroke-linejoin="round"/>
<path d="M74.5276 45.499V39.0122L78.9133 45.3631C78.9946 45.4806 79.0817 45.4229 79.0817 45.2801L79.0209 39.0001M62.5216 45.4483L63.6639 39.1195C63.6925 38.9713 63.8992 38.9575 63.9472 39.1006L65.8055 45.399C65.8505 45.5331 66.0406 45.5322 66.0843 45.3976L67.879 39.1017C67.9256 38.9582 68.1324 38.9698 68.1625 39.1176L69.3724 45.4484M71.8845 39V45.499M86.6477 39.555C86.1113 39.1923 85.4784 38.9989 84.8309 39C83.0362 39 81.5814 40.4548 81.5814 42.2495C81.5814 44.0441 83.0362 45.4989 84.8309 45.4989C86.6255 45.4989 87.6359 44.0441 87.6359 42.2495H85.6919M52.0663 39.555C51.5299 39.1923 50.897 38.9989 50.2494 39C48.4548 39 47 40.4548 47 42.2495C47 44.0441 48.4548 45.4989 50.2494 45.4989C50.9784 45.4989 51.5779 45.2589 52.0329 44.8537C52.1273 44.7695 52.2154 44.6786 52.2966 44.5816" stroke="black" stroke-miterlimit="10" stroke-linecap="round" stroke-linejoin="round"/>
<path d="M57.3354 45.4989C59.13 45.4989 60.5848 44.0441 60.5848 42.2494C60.5848 40.4548 59.13 39 57.3354 39C55.5408 39 54.0859 40.4548 54.0859 42.2494C54.0859 44.0441 55.5408 45.4989 57.3354 45.4989Z" stroke="black" stroke-miterlimit="10" stroke-linecap="round" stroke-linejoin="round"/>
<path d="M77.5602 61.499V55.0122L81.9459 61.363C82.0272 61.4805 82.1143 61.4229 82.1143 61.28L82.0535 55.0001M57.0056 55.6681C57.0056 55.6681 55.8394 54.6878 54.4642 55.1021C53.2015 55.4825 53.0248 56.9385 53.9384 57.5341C53.9384 57.5341 54.8348 57.934 55.829 58.3008C58.2223 59.1836 57.1914 61.4991 55.2647 61.4991C54.2999 61.4991 53.49 61.0766 53 60.5358" stroke="black" stroke-miterlimit="10" stroke-linecap="round" stroke-linejoin="round"/>
<path d="M62.7651 61.4989C64.5597 61.4989 66.0145 60.0441 66.0145 58.2494C66.0145 56.4548 64.5597 55 62.7651 55C60.9705 55 59.5156 56.4548 59.5156 58.2494C59.5156 60.0441 60.9705 61.4989 62.7651 61.4989Z" stroke="black" stroke-miterlimit="10" stroke-linecap="round" stroke-linejoin="round"/>
<path d="M71.728 61.4989C73.5226 61.4989 74.9774 60.0441 74.9774 58.2494C74.9774 56.4548 73.5226 55 71.728 55C69.9333 55 68.4785 56.4548 68.4785 58.2494C68.4785 60.0441 69.9333 61.4989 71.728 61.4989Z" stroke="black" stroke-miterlimit="10" stroke-linecap="round" stroke-linejoin="round"/>
</svg>
