<svg width="49" height="29" viewBox="0 0 49 29" fill="none" xmlns="http://www.w3.org/2000/svg">
<path d="M33.5 3.99304C33.4367 3.99304 33.3797 3.93739 33.3734 3.86783C33.2595 2.60174 33.1709 2.19826 32.1139 2.08696C32.0506 2.08 32 2.01739 32 1.94783C32 1.87826 32.0506 1.81565 32.1139 1.8087C33.1962 1.69739 33.2595 1.39131 33.3734 0.125218C33.3734 0.0556525 33.4367 5.93146e-10 33.5 6.19275e-10C33.5633 6.45405e-10 33.6203 0.0556525 33.6266 0.125218C33.7405 1.39131 33.8101 1.69739 34.8861 1.8087C34.9494 1.81565 35 1.87826 35 1.94783C35 2.01739 34.9494 2.08 34.8861 2.08696C33.8228 2.19826 33.7405 2.60174 33.6266 3.87478C33.6266 3.94435 33.5696 4 33.5 4L33.5 3.99304Z" fill="#C6CCE0"/>
<path d="M4 20.9948C3.95781 20.9948 3.91983 20.953 3.91561 20.9009C3.83966 19.9513 3.78059 19.6487 3.07595 19.5652C3.03375 19.56 3 19.513 3 19.4609C3 19.4087 3.03375 19.3617 3.07595 19.3565C3.79747 19.273 3.83966 19.0435 3.91561 18.0939C3.91561 18.0417 3.95781 18 4 18C4.04219 18 4.08017 18.0417 4.08439 18.0939C4.16034 19.0435 4.20675 19.273 4.92405 19.3565C4.96624 19.3617 5 19.4087 5 19.4609C5 19.513 4.96624 19.56 4.92405 19.5652C4.21519 19.6487 4.16034 19.9513 4.08439 20.9061C4.08439 20.9583 4.04641 21 4 21V20.9948Z" fill="#C6CCE0"/>
<path d="M41 26.9948C40.9578 26.9948 40.9198 26.953 40.9156 26.9009C40.8397 25.9513 40.7806 25.6487 40.0759 25.5652C40.0338 25.56 40 25.513 40 25.4609C40 25.4087 40.0338 25.3617 40.0759 25.3565C40.7975 25.273 40.8397 25.0435 40.9156 24.0939C40.9156 24.0417 40.9578 24 41 24C41.0422 24 41.0802 24.0417 41.0844 24.0939C41.1603 25.0435 41.2068 25.273 41.9241 25.3565C41.9662 25.3617 42 25.4087 42 25.4609C42 25.513 41.9662 25.56 41.9241 25.5652C41.2152 25.6487 41.1603 25.9513 41.0844 26.9061C41.0844 26.9583 41.0464 27 41 27V26.9948Z" fill="#C6CCE0"/>
<path d="M7.7984 7.78739C7.72252 7.78739 7.65422 7.72067 7.64663 7.63727C7.51005 6.11931 7.40381 5.63557 6.13659 5.50212C6.0607 5.49378 6 5.41872 6 5.33531C6 5.25191 6.0607 5.17685 6.13659 5.16851C7.43417 5.03506 7.51005 4.66808 7.64663 3.15013C7.64663 3.06672 7.72252 3 7.7984 3C7.87428 3 7.94258 3.06672 7.95016 3.15013C8.08675 4.66808 8.17022 5.03506 9.46021 5.16851C9.53609 5.17685 9.5968 5.25191 9.5968 5.33531C9.5968 5.41872 9.53609 5.49378 9.46021 5.50212C8.1854 5.63557 8.08675 6.11931 7.95016 7.64561C7.95016 7.72901 7.88187 7.79573 7.7984 7.79573V7.78739Z" fill="#C6CCE0"/>
<path d="M46.7984 8.78739C46.7225 8.78739 46.6542 8.72067 46.6466 8.63727C46.51 7.11931 46.4038 6.63557 45.1366 6.50212C45.0607 6.49378 45 6.41872 45 6.33531C45 6.25191 45.0607 6.17685 45.1366 6.16851C46.4342 6.03506 46.51 5.66808 46.6466 4.15013C46.6466 4.06672 46.7225 4 46.7984 4C46.8743 4 46.9426 4.06672 46.9502 4.15013C47.0868 5.66808 47.1702 6.03506 48.4602 6.16851C48.5361 6.17685 48.5968 6.25191 48.5968 6.33531C48.5968 6.41872 48.5361 6.49378 48.4602 6.50212C47.1854 6.63557 47.0868 7.11931 46.9502 8.64561C46.9502 8.72901 46.8819 8.79573 46.7984 8.79573L46.7984 8.78739Z" fill="#C6CCE0"/>
<path d="M4.29064 15.072C3.65064 15.072 3.06264 14.928 2.52664 14.64C1.99064 14.352 1.56664 13.936 1.25464 13.392C0.942641 12.84 0.786641 12.196 0.786641 11.46C0.786641 10.684 0.966641 9.944 1.32664 9.24C1.69464 8.528 2.16664 7.96 2.74264 7.536C3.32664 7.104 3.92264 6.888 4.53064 6.888C4.78664 6.888 5.03864 6.928 5.28664 7.008C5.54264 7.088 5.77064 7.188 5.97064 7.308C6.06664 7.212 6.18664 7.164 6.33064 7.164C6.49064 7.164 6.62264 7.22 6.72664 7.332C6.83064 7.436 6.88264 7.564 6.88264 7.716V8.484C6.88264 8.644 6.82264 8.784 6.70264 8.904C6.59064 9.024 6.45064 9.084 6.28264 9.084C6.12264 9.084 5.98664 9.036 5.87464 8.94C5.77064 8.844 5.71864 8.732 5.71864 8.604V8.52C5.42264 8.208 4.99864 8.052 4.44664 8.052C4.04664 8.052 3.65464 8.216 3.27064 8.544C2.88664 8.864 2.57464 9.288 2.33464 9.816C2.10264 10.344 1.98664 10.892 1.98664 11.46C1.98664 11.964 2.09064 12.404 2.29864 12.78C2.50664 13.148 2.78264 13.432 3.12664 13.632C3.47864 13.824 3.86664 13.92 4.29064 13.92C5.06664 13.92 5.70664 13.588 6.21064 12.924C6.28264 12.836 6.35464 12.776 6.42664 12.744C6.49864 12.704 6.58264 12.684 6.67864 12.684C6.84664 12.684 6.98664 12.74 7.09864 12.852C7.21864 12.956 7.27864 13.1 7.27864 13.284C7.27864 13.42 7.24264 13.54 7.17064 13.644C6.84264 14.108 6.42664 14.464 5.92264 14.712C5.42664 14.952 4.88264 15.072 4.29064 15.072ZM11.1017 15.072C10.5097 15.072 9.97767 14.908 9.50567 14.58C9.03367 14.244 8.66167 13.788 8.38967 13.212C8.12567 12.636 7.99367 11.992 7.99367 11.28C7.99367 10.472 8.15767 9.732 8.48567 9.06C8.81367 8.388 9.24967 7.86 9.79367 7.476C10.3457 7.084 10.9377 6.888 11.5697 6.888C12.1617 6.888 12.6937 7.052 13.1657 7.38C13.6457 7.708 14.0177 8.16 14.2817 8.736C14.5537 9.312 14.6897 9.96 14.6897 10.68C14.6897 11.496 14.5257 12.24 14.1977 12.912C13.8697 13.576 13.4297 14.104 12.8777 14.496C12.3337 14.88 11.7417 15.072 11.1017 15.072ZM11.1017 13.932C11.5337 13.932 11.9297 13.796 12.2897 13.524C12.6577 13.252 12.9497 12.872 13.1657 12.384C13.3817 11.896 13.4897 11.344 13.4897 10.728C13.4897 10.168 13.3937 9.684 13.2017 9.276C13.0177 8.868 12.7697 8.56 12.4577 8.352C12.1537 8.136 11.8337 8.028 11.4977 8.028C11.0817 8.028 10.6977 8.168 10.3457 8.448C9.99367 8.728 9.71367 9.116 9.50567 9.612C9.29767 10.1 9.19367 10.656 9.19367 11.28C9.19367 11.84 9.28167 12.32 9.45767 12.72C9.63367 13.12 9.86567 13.424 10.1537 13.632C10.4497 13.832 10.7657 13.932 11.1017 13.932ZM15.7613 15.072C15.5853 15.072 15.4453 15.02 15.3413 14.916C15.2453 14.812 15.1973 14.696 15.1973 14.568C15.1973 14.44 15.2133 14.308 15.2453 14.172L16.7333 7.368C16.7653 7.224 16.8333 7.112 16.9373 7.032C17.0413 6.944 17.1693 6.9 17.3213 6.9C17.6013 6.9 17.7853 7.036 17.8733 7.308L19.5653 12.624L21.4853 7.284C21.5813 7.028 21.7813 6.9 22.0853 6.9C22.2213 6.9 22.3333 6.944 22.4213 7.032C22.5173 7.112 22.5813 7.224 22.6133 7.368L24.1373 14.16C24.1773 14.344 24.1973 14.464 24.1973 14.52C24.1973 14.672 24.1413 14.804 24.0293 14.916C23.9173 15.02 23.7773 15.072 23.6093 15.072C23.4493 15.072 23.3213 15.032 23.2253 14.952C23.1293 14.864 23.0653 14.752 23.0333 14.616L21.9293 9.6L20.0813 14.688C20.0413 14.808 19.9693 14.904 19.8653 14.976C19.7613 15.04 19.6453 15.072 19.5173 15.072C19.2373 15.072 19.0533 14.936 18.9653 14.664L17.4053 9.78L16.3493 14.604C16.3173 14.748 16.2493 14.864 16.1453 14.952C16.0413 15.032 15.9133 15.072 15.7613 15.072ZM25.5133 15C25.3453 15 25.2013 14.944 25.0813 14.832C24.9693 14.712 24.9133 14.568 24.9133 14.4C24.9133 14.232 24.9693 14.092 25.0813 13.98C25.2013 13.86 25.3453 13.8 25.5133 13.8H26.3533V8.16H25.5133C25.3453 8.16 25.2013 8.1 25.0813 7.98C24.9693 7.86 24.9133 7.716 24.9133 7.548C24.9133 7.38 24.9693 7.24 25.0813 7.128C25.2013 7.016 25.3453 6.96 25.5133 6.96H28.3813C28.5493 6.96 28.6893 7.016 28.8013 7.128C28.9133 7.24 28.9693 7.38 28.9693 7.548C28.9693 7.716 28.9133 7.86 28.8013 7.98C28.6893 8.1 28.5493 8.16 28.3813 8.16H27.5533V13.8H28.3813C28.5573 13.8 28.6973 13.86 28.8013 13.98C28.9133 14.092 28.9693 14.232 28.9693 14.4C28.9693 14.568 28.9133 14.712 28.8013 14.832C28.6893 14.944 28.5493 15 28.3813 15H25.5133ZM30.8806 15.072C30.7286 15.072 30.5926 15.012 30.4726 14.892C30.3526 14.772 30.2926 14.636 30.2926 14.484L30.3046 7.488C30.3046 7.328 30.3566 7.192 30.4606 7.08C30.5726 6.96 30.7126 6.9 30.8806 6.9C30.9766 6.9 31.0686 6.924 31.1566 6.972C31.2446 7.012 31.3166 7.072 31.3726 7.152L35.1286 12.588V7.488C35.1286 7.328 35.1846 7.188 35.2966 7.068C35.4166 6.948 35.5606 6.888 35.7286 6.888C35.8886 6.888 36.0246 6.948 36.1366 7.068C36.2566 7.188 36.3166 7.328 36.3166 7.488V14.484C36.3166 14.652 36.2606 14.792 36.1486 14.904C36.0366 15.016 35.8966 15.072 35.7286 15.072C35.6406 15.072 35.5486 15.048 35.4526 15C35.3646 14.952 35.2926 14.888 35.2366 14.808L31.4926 9.396L31.4806 14.484C31.4806 14.652 31.4206 14.792 31.3006 14.904C31.1886 15.016 31.0486 15.072 30.8806 15.072ZM41.3487 15.084C40.6287 15.084 39.9887 14.896 39.4287 14.52C38.8767 14.144 38.4487 13.652 38.1447 13.044C37.8487 12.428 37.7007 11.776 37.7007 11.088C37.7007 10.408 37.8607 9.744 38.1807 9.096C38.5007 8.44 38.9487 7.908 39.5247 7.5C40.1087 7.084 40.7767 6.876 41.5287 6.876C42.2327 6.876 42.8247 7.028 43.3047 7.332C43.7927 7.628 44.1567 7.968 44.3967 8.352C44.6367 8.736 44.7567 9.04 44.7567 9.264C44.7567 9.432 44.7047 9.568 44.6007 9.672C44.4967 9.768 44.3567 9.816 44.1807 9.816C43.8927 9.816 43.7007 9.688 43.6047 9.432C43.4607 9.048 43.2207 8.728 42.8847 8.472C42.5487 8.208 42.0967 8.076 41.5287 8.076C40.9367 8.076 40.4407 8.252 40.0407 8.604C39.6487 8.948 39.3607 9.356 39.1767 9.828C38.9927 10.3 38.9007 10.72 38.9007 11.088C38.9007 11.52 38.9927 11.952 39.1767 12.384C39.3607 12.816 39.6367 13.176 40.0047 13.464C40.3807 13.744 40.8287 13.884 41.3487 13.884C41.8607 13.884 42.3087 13.756 42.6927 13.5C43.0767 13.236 43.3607 12.868 43.5447 12.396H43.3647C43.0927 12.412 42.7927 12.46 42.4647 12.54C42.3287 12.58 42.2207 12.6 42.1407 12.6C41.9807 12.6 41.8407 12.548 41.7207 12.444C41.6087 12.332 41.5527 12.184 41.5527 12C41.5527 11.728 41.6967 11.532 41.9847 11.412C42.1207 11.356 42.3407 11.308 42.6447 11.268C42.9567 11.228 43.2727 11.208 43.5927 11.208C44.0487 11.208 44.4927 11.276 44.9247 11.412C45.1807 11.492 45.3087 11.68 45.3087 11.976C45.3087 12.112 45.2687 12.232 45.1887 12.336C45.1087 12.432 45.0087 12.5 44.8887 12.54C44.8247 12.556 44.7767 12.564 44.7447 12.564C44.5207 13.308 44.1087 13.916 43.5087 14.388C42.9167 14.852 42.1967 15.084 41.3487 15.084ZM11.3982 27.072C10.7102 27.072 10.1102 26.92 9.5982 26.616C9.0942 26.312 8.7382 25.94 8.5302 25.5C8.4422 25.308 8.3982 25.152 8.3982 25.032C8.3982 24.864 8.4582 24.724 8.5782 24.612C8.6982 24.492 8.8422 24.432 9.0102 24.432C9.1542 24.432 9.2782 24.472 9.3822 24.552C9.4862 24.632 9.5622 24.74 9.6102 24.876C9.7382 25.22 9.9742 25.484 10.3182 25.668C10.6622 25.852 11.0302 25.944 11.4222 25.944C11.9182 25.944 12.3262 25.828 12.6462 25.596C12.9742 25.356 13.1382 25.064 13.1382 24.72C13.1382 24.456 13.0062 24.216 12.7422 24C12.4862 23.784 12.0462 23.588 11.4222 23.412C10.6142 23.188 9.9782 22.9 9.5142 22.548C9.0502 22.188 8.8182 21.696 8.8182 21.072C8.8182 20.648 8.9302 20.272 9.1542 19.944C9.3862 19.608 9.7142 19.348 10.1382 19.164C10.5622 18.98 11.0582 18.888 11.6262 18.888C12.4422 18.888 13.0822 19.048 13.5462 19.368C14.0182 19.688 14.2542 20.116 14.2542 20.652C14.2542 20.828 14.1982 20.976 14.0862 21.096C13.9742 21.216 13.8342 21.276 13.6662 21.276C13.5222 21.276 13.3982 21.228 13.2942 21.132C13.1902 21.036 13.1302 20.916 13.1142 20.772C13.0822 20.548 12.9342 20.364 12.6702 20.22C12.4062 20.068 12.0582 19.992 11.6262 19.992C11.0902 19.992 10.6822 20.084 10.4022 20.268C10.1222 20.444 9.9822 20.684 9.9822 20.988C9.9822 21.268 10.1262 21.504 10.4142 21.696C10.7022 21.888 11.1742 22.08 11.8302 22.272C12.6382 22.504 13.2502 22.816 13.6662 23.208C14.0822 23.6 14.2902 24.084 14.2902 24.66C14.2902 25.108 14.1582 25.516 13.8942 25.884C13.6302 26.252 13.2742 26.544 12.8262 26.76C12.3862 26.968 11.9102 27.072 11.3982 27.072ZM31.5017 27.072C31.3497 27.072 31.2137 27.012 31.0937 26.892C30.9737 26.772 30.9137 26.636 30.9137 26.484L30.9257 19.488C30.9257 19.328 30.9777 19.192 31.0817 19.08C31.1937 18.96 31.3337 18.9 31.5017 18.9C31.5977 18.9 31.6897 18.924 31.7777 18.972C31.8657 19.012 31.9377 19.072 31.9937 19.152L35.7497 24.588V19.488C35.7497 19.328 35.8057 19.188 35.9177 19.068C36.0377 18.948 36.1817 18.888 36.3497 18.888C36.5097 18.888 36.6457 18.948 36.7577 19.068C36.8777 19.188 36.9377 19.328 36.9377 19.488V26.484C36.9377 26.652 36.8817 26.792 36.7697 26.904C36.6577 27.016 36.5177 27.072 36.3497 27.072C36.2617 27.072 36.1697 27.048 36.0737 27C35.9857 26.952 35.9137 26.888 35.8577 26.808L32.1137 21.396L32.1017 26.484C32.1017 26.652 32.0417 26.792 31.9217 26.904C31.8097 27.016 31.6697 27.072 31.5017 27.072Z" fill="#101828"/>
<path d="M18.297 27.072C17.705 27.072 17.173 26.908 16.701 26.58C16.229 26.244 15.857 25.788 15.585 25.212C15.321 24.636 15.189 23.992 15.189 23.28C15.189 22.472 15.353 21.732 15.681 21.06C16.009 20.388 16.445 19.86 16.989 19.476C17.541 19.084 18.133 18.888 18.765 18.888C19.357 18.888 19.889 19.052 20.361 19.38C20.841 19.708 21.213 20.16 21.477 20.736C21.749 21.312 21.885 21.96 21.885 22.68C21.885 23.496 21.721 24.24 21.393 24.912C21.065 25.576 20.625 26.104 20.073 26.496C19.529 26.88 18.937 27.072 18.297 27.072ZM18.297 25.932C18.729 25.932 19.125 25.796 19.485 25.524C19.853 25.252 20.145 24.872 20.361 24.384C20.577 23.896 20.685 23.344 20.685 22.728C20.685 22.168 20.589 21.684 20.397 21.276C20.213 20.868 19.965 20.56 19.653 20.352C19.349 20.136 19.029 20.028 18.693 20.028C18.277 20.028 17.893 20.168 17.541 20.448C17.189 20.728 16.909 21.116 16.701 21.612C16.493 22.1 16.389 22.656 16.389 23.28C16.389 23.84 16.477 24.32 16.653 24.72C16.829 25.12 17.061 25.424 17.349 25.632C17.645 25.832 17.961 25.932 18.297 25.932ZM25.9493 27.072C25.3573 27.072 24.8253 26.908 24.3533 26.58C23.8813 26.244 23.5093 25.788 23.2373 25.212C22.9733 24.636 22.8413 23.992 22.8413 23.28C22.8413 22.472 23.0053 21.732 23.3333 21.06C23.6613 20.388 24.0973 19.86 24.6413 19.476C25.1933 19.084 25.7853 18.888 26.4173 18.888C27.0093 18.888 27.5413 19.052 28.0133 19.38C28.4933 19.708 28.8653 20.16 29.1293 20.736C29.4013 21.312 29.5373 21.96 29.5373 22.68C29.5373 23.496 29.3733 24.24 29.0453 24.912C28.7173 25.576 28.2773 26.104 27.7253 26.496C27.1813 26.88 26.5893 27.072 25.9493 27.072ZM25.9493 25.932C26.3813 25.932 26.7773 25.796 27.1373 25.524C27.5053 25.252 27.7973 24.872 28.0133 24.384C28.2293 23.896 28.3373 23.344 28.3373 22.728C28.3373 22.168 28.2413 21.684 28.0493 21.276C27.8653 20.868 27.6173 20.56 27.3053 20.352C27.0013 20.136 26.6813 20.028 26.3453 20.028C25.9293 20.028 25.5453 20.168 25.1933 20.448C24.8413 20.728 24.5613 21.116 24.3533 21.612C24.1453 22.1 24.0413 22.656 24.0413 23.28C24.0413 23.84 24.1293 24.32 24.3053 24.72C24.4813 25.12 24.7133 25.424 25.0013 25.632C25.2973 25.832 25.6133 25.932 25.9493 25.932Z" fill="#F2F4F7"/>
<mask id="mask0_9175_160138" style="mask-type:luminance" maskUnits="userSpaceOnUse" x="12" y="16" width="17" height="16">
<path d="M12.8409 24L20.7542 16.0868L28.6674 24L20.7542 31.9132L12.8409 24Z" fill="white"/>
</mask>
<g mask="url(#mask0_9175_160138)">
<path d="M16.7185 26.8887L15.6106 23.8422L18.6572 24.95L16.7185 26.8887Z" fill="#9A9FB8"/>
<path d="M15.6105 23.8418L18.1031 21.3491L18.6571 24.9496L15.6105 23.8418Z" fill="#C6CCE0"/>
<path d="M23.6424 19.9647L20.5958 18.8568L21.7037 21.9034L23.6424 19.9647Z" fill="#9A9FB8"/>
<path d="M20.5959 18.8568L18.1033 21.3495L21.7038 21.9034L20.5959 18.8568ZM18.6572 24.95L23.4941 26.7404L16.7185 26.8887L18.6572 24.95Z" fill="#C6CCE0"/>
<path d="M21.7037 21.9035L23.4941 26.7404L23.6425 19.9647L21.7037 21.9035Z" fill="#787B94"/>
<path d="M18.6571 24.9503L21.7036 21.9037L18.1031 21.3498L18.6571 24.9503Z" fill="#ECF0FA"/>
<path d="M18.6571 24.9502L23.4941 26.7406L21.7037 21.9036L18.6571 24.9502Z" fill="#9A9FB8"/>
</g>
<mask id="mask1_9175_160138" style="mask-type:luminance" maskUnits="userSpaceOnUse" x="20" y="17" width="14" height="14">
<path d="M28.0771 17.7539L33.1592 25.1636L25.7495 30.2457L20.6674 22.836L28.0771 17.7539Z" fill="white"/>
</mask>
<g mask="url(#mask1_9175_160138)">
<path d="M25.2273 20.3887L27.7949 19.9624L26.4724 22.2041L25.2273 20.3887Z" fill="#9A9FB8"/>
<path d="M27.7948 19.9619L29.3956 22.296L26.4723 22.2036L27.7948 19.9619Z" fill="#C6CCE0"/>
<path d="M29.6741 26.8731L30.9966 24.6313L28.429 25.0577L29.6741 26.8731Z" fill="#9A9FB8"/>
<path d="M30.9966 24.6305L29.3958 22.2964L28.429 25.0569L30.9966 24.6305ZM26.4724 22.2041L24.3479 25.7586L25.2273 20.3887L26.4724 22.2041Z" fill="#C6CCE0"/>
<path d="M28.429 25.0572L24.3479 25.759L29.6741 26.8726L28.429 25.0572Z" fill="#787B94"/>
<path d="M26.4723 22.2051L28.4289 25.0579L29.3957 22.2975L26.4723 22.2051Z" fill="#ECF0FA"/>
<path d="M26.4723 22.2041L24.3478 25.7586L28.4289 25.0568L26.4723 22.2041Z" fill="#9A9FB8"/>
</g>
</svg>
