<svg width="16" height="17" viewBox="0 0 16 17" fill="none" xmlns="http://www.w3.org/2000/svg">
<path d="M6 14.0039H3C2.86739 14.0039 2.74022 13.9512 2.64645 13.8574C2.55268 13.7636 2.5 13.6365 2.5 13.5039V10.7101C2.49978 10.6452 2.51236 10.5808 2.53702 10.5208C2.56169 10.4607 2.59796 10.4061 2.64375 10.3601L10.1438 2.8601C10.1903 2.81286 10.2457 2.77534 10.3069 2.74973C10.3681 2.72413 10.4337 2.71094 10.5 2.71094C10.5663 2.71094 10.632 2.72413 10.6931 2.74973C10.7543 2.77534 10.8097 2.81286 10.8563 2.8601L13.6438 5.6476C13.691 5.69413 13.7285 5.74958 13.7541 5.81074C13.7797 5.8719 13.7929 5.93755 13.7929 6.00385C13.7929 6.07016 13.7797 6.1358 13.7541 6.19696C13.7285 6.25812 13.691 6.31358 13.6438 6.3601L6 14.0039Z" stroke="#101828" stroke-width="1.5" stroke-linecap="round" stroke-linejoin="round"/>
<path d="M13.5 14H6" stroke="#101828" stroke-width="1.5" stroke-linecap="round" stroke-linejoin="round"/>
<path d="M8.5 4.5L12 8" stroke="#101828" stroke-width="1.5" stroke-linecap="round" stroke-linejoin="round"/>
</svg>
