<svg width="20" height="20" viewBox="0 0 20 20" fill="none" xmlns="http://www.w3.org/2000/svg">
<g id="elements">
<path id="Vector (Stroke)" fill-rule="evenodd" clip-rule="evenodd" d="M10 0.75C10.6904 0.75 11.25 1.30964 11.25 2V8.75H18C18.6904 8.75 19.25 9.30964 19.25 10C19.25 10.6904 18.6904 11.25 18 11.25H11.25V18C11.25 18.6904 10.6904 19.25 10 19.25C9.30964 19.25 8.75 18.6904 8.75 18V11.25H2C1.30964 11.25 0.75 10.6904 0.75 10C0.75 9.30964 1.30964 8.75 2 8.75H8.75V2C8.75 1.30964 9.30964 0.75 10 0.75Z" fill="#101828"/>
</g>
</svg>
