<svg width="263" height="280" viewBox="0 0 263 280" fill="none" xmlns="http://www.w3.org/2000/svg">
<path fill-rule="evenodd" clip-rule="evenodd" d="M167.402 155.944L166.635 158.973L90.9219 139.807L91.6879 136.778C97.7459 138.311 102.445 132.476 103.205 129.478L107.574 112.215C111.034 99.6515 122.474 90.9585 135.506 90.9905C136.622 86.8235 140.906 84.3515 145.072 85.4685C149.239 86.5855 151.712 90.8685 150.594 95.0355C162.023 101.415 167.881 114.564 164.978 127.326L160.747 144.044C159.849 147.587 164.374 155.177 167.402 155.944Z" fill="#F1F2F7"/>
<path fill-rule="evenodd" clip-rule="evenodd" d="M115.17 149.167C115.897 156.897 122.752 162.575 130.482 161.849C134.692 161.454 138.501 159.184 140.853 155.668L115.17 149.167Z" fill="#FFDA3E"/>
<path fill-rule="evenodd" clip-rule="evenodd" d="M238.132 126.608C238.132 183.929 191.663 230.398 134.342 230.398C77.0207 230.398 30.5527 183.929 30.5527 126.608C30.5527 69.2874 77.0207 22.8184 134.342 22.8184C191.663 22.8184 238.132 69.2874 238.132 126.608Z" stroke="#E9EAEC" stroke-dasharray="5.02 5.02"/>
<path fill-rule="evenodd" clip-rule="evenodd" d="M211.417 126.608C211.417 169.175 176.909 203.683 134.342 203.683C91.7736 203.683 57.2676 169.175 57.2676 126.608C57.2676 84.0412 91.7736 49.5332 134.342 49.5332C176.909 49.5332 211.417 84.0412 211.417 126.608Z" stroke="#E9EAEC" stroke-dasharray="5.05 5.05"/>
<path fill-rule="evenodd" clip-rule="evenodd" d="M207.361 55.5723C208.857 55.5723 210.067 56.7813 210.067 58.2783C210.067 59.7753 208.857 60.9843 207.361 60.9843C205.864 60.9843 204.654 59.7753 204.654 58.2783C204.654 56.7813 205.864 55.5723 207.361 55.5723ZM215.477 55.5723C216.974 55.5723 218.183 56.7813 218.183 58.2783C218.183 59.7753 216.974 60.9843 215.477 60.9843C213.98 60.9843 212.771 59.7753 212.771 58.2783C212.771 56.7813 213.98 55.5723 215.477 55.5723ZM223.597 55.5723C225.094 55.5723 226.303 56.7813 226.303 58.2783C226.303 59.7753 225.094 60.9843 223.597 60.9843C222.1 60.9843 220.891 59.7753 220.891 58.2783C220.891 56.7813 222.1 55.5723 223.597 55.5723ZM204.333 73.1625H217.247C218.465 73.1625 218.465 73.1715 219.048 73.6025C219.632 74.0335 226.296 78.5745 226.296 78.5745V73.1625H226.608C230.176 73.1625 233.06 70.4735 233.06 67.1245V49.4585C233.06 46.1095 230.169 43.3945 226.608 43.3945H204.333C200.773 43.3945 197.881 46.1095 197.881 49.4585V67.1245C197.881 70.4735 200.773 73.1625 204.333 73.1625Z" fill="url(#paint0_linear_4884_70658)"/>
<path fill-rule="evenodd" clip-rule="evenodd" d="M38.8801 85.5772C38.0721 85.5772 37.4186 86.2302 37.4186 87.0388C37.4186 87.8473 38.0721 88.5003 38.8801 88.5003C39.6886 88.5003 40.3421 87.8473 40.3421 87.0388C40.3421 86.2302 39.6886 85.5772 38.8801 85.5772ZM34.4965 85.5772C33.688 85.5772 33.035 86.2302 33.035 87.0388C33.035 87.8473 33.688 88.5003 34.4965 88.5003C35.305 88.5003 35.958 87.8473 35.958 87.0388C35.958 86.2302 35.305 85.5772 34.4965 85.5772ZM30.1113 85.5772C29.3028 85.5772 28.6498 86.2302 28.6498 87.0388C28.6498 87.8473 29.3028 88.5003 30.1113 88.5003C30.9199 88.5003 31.5728 87.8473 31.5728 87.0388C31.5728 86.2302 30.9199 85.5772 30.1113 85.5772ZM40.5157 95.0778H33.5409C32.883 95.0778 32.883 95.0827 32.5681 95.3154C32.2527 95.5482 28.6535 98.0008 28.6535 98.0008V95.0778H28.4849C26.5579 95.0778 25.0002 93.6255 25.0002 91.8166V82.2752C25.0002 80.4664 26.5616 79 28.4849 79H40.5157C42.4385 79 44.0005 80.4664 44.0005 82.2752V91.8166C44.0005 93.6255 42.4385 95.0778 40.5157 95.0778Z" fill="url(#paint1_linear_4884_70658)"/>
<path fill-rule="evenodd" clip-rule="evenodd" d="M115.176 149.185C115.903 156.915 122.758 162.593 130.488 161.867C134.698 161.472 138.507 159.202 140.859 155.686L115.176 149.185Z" fill="url(#paint2_linear_4884_70658)"/>
<path fill-rule="evenodd" clip-rule="evenodd" d="M176.222 102.741C177.985 104.862 179.309 107.36 180.209 110.008C181.126 112.657 181.574 115.471 181.62 118.287C181.62 119.696 181.519 121.103 181.337 122.498C181.097 123.886 180.82 125.264 180.384 126.599C179.541 129.27 178.267 131.803 176.531 133.959C176.456 134.052 176.322 134.066 176.229 133.992C176.157 133.933 176.133 133.837 176.161 133.753C177.065 131.18 177.814 128.642 178.317 126.067C178.41 125.417 178.538 124.777 178.646 124.134C178.72 123.485 178.818 122.841 178.874 122.193C178.916 121.544 179 120.899 179.027 120.25C179.037 119.6 179.068 118.951 179.065 118.302C179.08 115.703 178.79 113.108 178.285 110.532C177.766 107.954 176.985 105.415 176.047 102.842C176.028 102.789 176.055 102.73 176.108 102.711C176.15 102.695 176.195 102.709 176.222 102.741Z" fill="url(#paint3_linear_4884_70658)"/>
<path fill-rule="evenodd" clip-rule="evenodd" d="M186.152 103.641C187.854 105.602 189.136 107.928 190.029 110.397C190.924 112.869 191.441 115.495 191.533 118.137C191.633 120.778 191.311 123.433 190.605 125.962C189.9 128.49 188.801 130.906 187.251 132.988C187.241 133.001 187.222 133.004 187.21 132.995C187.2 132.987 187.196 132.974 187.199 132.963C187.841 130.457 188.379 128.019 188.705 125.568C189.031 123.118 189.138 120.669 189.047 118.229C188.947 115.79 188.652 113.359 188.133 110.946C187.616 108.53 186.885 106.146 186.052 103.699C186.042 103.668 186.058 103.635 186.089 103.624C186.112 103.616 186.137 103.623 186.152 103.641Z" fill="url(#paint4_linear_4884_70658)"/>
<path fill-rule="evenodd" clip-rule="evenodd" d="M95.3903 116.155C94.8503 113.466 94.8443 110.657 95.2723 107.911C95.6863 105.158 96.5763 102.474 97.8123 99.9672C99.0783 97.4752 100.696 95.1562 102.65 93.1722C104.59 91.1812 106.84 89.4942 109.322 88.3162C109.367 88.2952 109.419 88.3142 109.44 88.3582C109.457 88.3942 109.448 88.4362 109.419 88.4622C107.4 90.2952 105.541 92.2062 103.898 94.2752C102.267 96.3482 100.824 98.5512 99.6583 100.896C98.4603 103.226 97.5463 105.695 96.8513 108.242C96.1673 110.795 95.7453 113.43 95.4763 116.151C95.4733 116.174 95.4523 116.192 95.4283 116.19C95.4093 116.188 95.3943 116.173 95.3903 116.155Z" fill="url(#paint5_linear_4884_70658)"/>
<path fill-rule="evenodd" clip-rule="evenodd" d="M86.9138 110.84C86.4028 108.315 86.3938 105.684 86.7648 103.108C87.1478 100.532 87.9128 98.0006 89.0418 95.6436C90.1588 93.2826 91.6008 91.0736 93.3358 89.1386C95.0628 87.2006 97.0588 85.5066 99.2828 84.2266C97.4668 86.0346 95.7988 87.9206 94.3438 89.9486C92.8938 91.9786 91.6328 94.1196 90.6108 96.3716C89.5988 98.6266 88.7868 100.969 88.2078 103.386C87.6128 105.802 87.2558 108.281 86.9988 110.836C86.9958 110.859 86.9758 110.876 86.9508 110.874C86.9328 110.872 86.9168 110.858 86.9138 110.84Z" fill="url(#paint6_linear_4884_70658)"/>
<path fill-rule="evenodd" clip-rule="evenodd" d="M167.408 155.961C167.408 155.961 162.93 154.221 160.576 151.738C157.298 148.281 157.514 144.509 159.73 137.229C162.337 128.56 162.266 119.428 161.262 115.242C157.765 100.656 150.6 95.0527 150.6 95.0527C162.029 101.432 167.887 114.581 164.984 127.343L160.753 144.061C160.011 146.531 164.38 155.194 167.408 155.961L166.641 158.99L167.408 155.961Z" fill="#D8DBEA"/>
<path d="M10.9446 140.582L9.01758 140.523" stroke="#D2D8DF" stroke-linecap="round"/>
<path d="M9.56169 136.929L8.17969 138.22" stroke="#D2D8DF" stroke-linecap="round"/>
<path d="M5.96064 135.261L5.93164 137.145" stroke="#D2D8DF" stroke-linecap="round"/>
<path d="M2.24805 136.554L3.59005 137.928" stroke="#D2D8DF" stroke-linecap="round"/>
<path d="M0.599609 140.053L2.52561 140.112" stroke="#D2D8DF" stroke-linecap="round"/>
<path d="M1.98242 143.706L3.36542 142.415" stroke="#D2D8DF" stroke-linecap="round"/>
<path d="M5.58398 145.375L5.61298 143.491" stroke="#D2D8DF" stroke-linecap="round"/>
<path d="M9.29708 144.081L7.95508 142.707" stroke="#D2D8DF" stroke-linecap="round"/>
<path d="M262.247 113.723L261.4 114.64" stroke="#D2D8DF" stroke-linecap="round"/>
<path d="M258.271 114.52L258.91 115.109" stroke="#D2D8DF" stroke-linecap="round"/>
<path d="M257.627 118.583L258.474 117.666" stroke="#D2D8DF" stroke-linecap="round"/>
<path d="M261.601 117.786L260.963 117.197" stroke="#D2D8DF" stroke-linecap="round"/>
<path d="M184.67 5.94685L182.621 5.89185" stroke="#D2D8DF" stroke-linecap="round"/>
<path d="M179.369 1L179.338 2.751" stroke="#D2D8DF" stroke-linecap="round"/>
<path d="M173.666 5.4541L175.715 5.5081" stroke="#D2D8DF" stroke-linecap="round"/>
<path d="M178.967 10.4004L178.998 8.64941" stroke="#D2D8DF" stroke-linecap="round"/>
<path fill-rule="evenodd" clip-rule="evenodd" d="M32.9358 195.006C31.4618 195.447 29.0068 197.613 28.1667 200.181C28.0257 197.795 26.5108 194.796 24.8438 194.364C26.8777 193.645 29.0807 191.002 29.6667 188.775C29.5608 191.109 31.6797 194.498 32.9358 195.006Z" fill="#EBECEF"/>
<path fill-rule="evenodd" clip-rule="evenodd" d="M67.4583 15.3254C66.3213 15.5264 64.3063 16.9264 63.4583 18.7664C63.5593 16.9774 62.6903 14.6124 61.4863 14.1464C63.0633 13.7864 64.9333 12.0084 65.5623 10.4004C65.2813 12.1304 66.5663 14.8384 67.4583 15.3254Z" fill="#EBECEF"/>
<path fill-rule="evenodd" clip-rule="evenodd" d="M218.158 28.317C216.639 28.284 215.435 27.027 215.469 25.509C215.502 23.991 216.759 22.787 218.276 22.82C219.795 22.853 220.999 24.11 220.966 25.628C220.932 27.146 219.676 28.35 218.158 28.317Z" fill="#D1D9E0"/>
<path fill-rule="evenodd" clip-rule="evenodd" d="M218.166 208.469C216.845 208.441 215.797 207.346 215.825 206.025C215.853 204.703 216.948 203.655 218.27 203.683C219.592 203.712 220.64 204.806 220.611 206.128C220.582 207.449 219.488 208.498 218.166 208.469Z" fill="#EBECEF"/>
<path fill-rule="evenodd" clip-rule="evenodd" d="M19.422 64.8034C18.604 64.7854 17.955 64.1084 17.973 63.2894C17.99 62.4714 18.668 61.8234 19.486 61.8404C20.304 61.8584 20.953 62.5354 20.936 63.3534C20.918 64.1724 20.24 64.8214 19.422 64.8034Z" stroke="#D2D8DF" stroke-linecap="round"/>
<path d="M83.3068 266.217V276.398H82.1136L76.5653 268.404H76.4659V276.398H75.233V266.217H76.4261L81.9943 274.231H82.0938V266.217H83.3068ZM88.7172 276.558C88.0278 276.558 87.4229 276.393 86.9025 276.065C86.3855 275.737 85.9811 275.278 85.6895 274.688C85.4011 274.098 85.2569 273.409 85.2569 272.62C85.2569 271.825 85.4011 271.13 85.6895 270.537C85.9811 269.944 86.3855 269.483 86.9025 269.155C87.4229 268.827 88.0278 268.663 88.7172 268.663C89.4065 268.663 90.0098 268.827 90.5268 269.155C91.0472 269.483 91.4515 269.944 91.7399 270.537C92.0315 271.13 92.1774 271.825 92.1774 272.62C92.1774 273.409 92.0315 274.098 91.7399 274.688C91.4515 275.278 91.0472 275.737 90.5268 276.065C90.0098 276.393 89.4065 276.558 88.7172 276.558ZM88.7172 275.504C89.2408 275.504 89.6717 275.369 90.0098 275.101C90.3478 274.832 90.5981 274.479 90.7605 274.042C90.9229 273.604 91.0041 273.13 91.0041 272.62C91.0041 272.11 90.9229 271.634 90.7605 271.193C90.5981 270.752 90.3478 270.396 90.0098 270.124C89.6717 269.853 89.2408 269.717 88.7172 269.717C88.1935 269.717 87.7626 269.853 87.4245 270.124C87.0865 270.396 86.8362 270.752 86.6738 271.193C86.5114 271.634 86.4302 272.11 86.4302 272.62C86.4302 273.13 86.5114 273.604 86.6738 274.042C86.8362 274.479 87.0865 274.832 87.4245 275.101C87.7626 275.369 88.1935 275.504 88.7172 275.504ZM97.2894 268.762V269.756H93.332V268.762H97.2894ZM94.4854 266.933H95.6587V274.211C95.6587 274.542 95.7068 274.791 95.8029 274.957C95.9023 275.119 96.0283 275.228 96.1808 275.285C96.3365 275.338 96.5006 275.364 96.6729 275.364C96.8022 275.364 96.9083 275.358 96.9911 275.344C97.074 275.328 97.1403 275.315 97.19 275.305L97.4286 276.359C97.3491 276.388 97.238 276.418 97.0955 276.448C96.953 276.481 96.7724 276.498 96.5536 276.498C96.2222 276.498 95.8974 276.427 95.5792 276.284C95.2643 276.142 95.0025 275.924 94.7937 275.633C94.5882 275.341 94.4854 274.973 94.4854 274.529V266.933ZM100.392 271.805V276.398H99.2184V266.217H100.392V269.955H100.491C100.67 269.561 100.939 269.248 101.297 269.016C101.658 268.78 102.138 268.663 102.738 268.663C103.259 268.663 103.714 268.767 104.105 268.976C104.497 269.181 104.8 269.498 105.015 269.925C105.234 270.35 105.343 270.89 105.343 271.546V276.398H104.17V271.626C104.17 271.019 104.013 270.55 103.698 270.219C103.386 269.884 102.954 269.717 102.4 269.717C102.016 269.717 101.671 269.798 101.366 269.96C101.065 270.123 100.826 270.36 100.65 270.671C100.478 270.983 100.392 271.361 100.392 271.805ZM107.49 276.398V268.762H108.663V276.398H107.49ZM108.086 267.489C107.858 267.489 107.661 267.411 107.495 267.256C107.332 267.1 107.251 266.913 107.251 266.694C107.251 266.475 107.332 266.288 107.495 266.132C107.661 265.976 107.858 265.898 108.086 265.898C108.315 265.898 108.511 265.976 108.673 266.132C108.839 266.288 108.922 266.475 108.922 266.694C108.922 266.913 108.839 267.1 108.673 267.256C108.511 267.411 108.315 267.489 108.086 267.489ZM111.985 271.805V276.398H110.812V268.762H111.946V269.955H112.045C112.224 269.567 112.496 269.256 112.86 269.021C113.225 268.782 113.696 268.663 114.272 268.663C114.789 268.663 115.242 268.769 115.63 268.981C116.017 269.19 116.319 269.508 116.534 269.935C116.75 270.36 116.858 270.897 116.858 271.546V276.398H115.684V271.626C115.684 271.026 115.529 270.558 115.217 270.224C114.905 269.886 114.478 269.717 113.934 269.717C113.56 269.717 113.225 269.798 112.93 269.96C112.638 270.123 112.408 270.36 112.239 270.671C112.07 270.983 111.985 271.361 111.985 271.805ZM122.084 279.421C121.517 279.421 121.03 279.348 120.622 279.202C120.215 279.06 119.875 278.871 119.603 278.636C119.335 278.404 119.121 278.155 118.962 277.89L119.896 277.234C120.003 277.373 120.137 277.532 120.299 277.711C120.462 277.893 120.684 278.051 120.965 278.183C121.25 278.319 121.623 278.387 122.084 278.387C122.7 278.387 123.209 278.238 123.61 277.94C124.011 277.641 124.212 277.174 124.212 276.538V274.987H124.112C124.026 275.126 123.904 275.298 123.744 275.504C123.589 275.706 123.363 275.886 123.068 276.045C122.777 276.201 122.382 276.279 121.885 276.279C121.269 276.279 120.715 276.133 120.225 275.842C119.737 275.55 119.351 275.126 119.066 274.569C118.785 274.012 118.644 273.336 118.644 272.54C118.644 271.758 118.781 271.077 119.056 270.497C119.331 269.914 119.714 269.463 120.205 269.145C120.695 268.823 121.262 268.663 121.905 268.663C122.402 268.663 122.797 268.746 123.088 268.911C123.383 269.074 123.609 269.259 123.764 269.468C123.923 269.674 124.046 269.843 124.132 269.975H124.252V268.762H125.385V276.617C125.385 277.273 125.236 277.807 124.938 278.218C124.643 278.632 124.245 278.936 123.744 279.128C123.247 279.323 122.694 279.421 122.084 279.421ZM122.044 275.225C122.515 275.225 122.913 275.117 123.237 274.902C123.562 274.687 123.809 274.377 123.978 273.972C124.147 273.568 124.232 273.084 124.232 272.521C124.232 271.97 124.149 271.485 123.983 271.064C123.817 270.643 123.572 270.313 123.247 270.075C122.923 269.836 122.521 269.717 122.044 269.717C121.547 269.717 121.133 269.843 120.801 270.094C120.473 270.346 120.226 270.684 120.061 271.109C119.898 271.533 119.817 272.004 119.817 272.521C119.817 273.051 119.9 273.52 120.066 273.928C120.235 274.332 120.483 274.65 120.811 274.882C121.143 275.111 121.554 275.225 122.044 275.225ZM132.644 271.805V276.398H131.47V266.217H132.644V269.955H132.743C132.922 269.561 133.191 269.248 133.548 269.016C133.91 268.78 134.39 268.663 134.99 268.663C135.511 268.663 135.966 268.767 136.357 268.976C136.749 269.181 137.052 269.498 137.267 269.925C137.486 270.35 137.595 270.89 137.595 271.546V276.398H136.422V271.626C136.422 271.019 136.265 270.55 135.95 270.219C135.638 269.884 135.206 269.717 134.652 269.717C134.268 269.717 133.923 269.798 133.618 269.96C133.316 270.123 133.078 270.36 132.902 270.671C132.73 270.983 132.644 271.361 132.644 271.805ZM142.944 276.558C142.208 276.558 141.573 276.395 141.039 276.07C140.509 275.742 140.1 275.285 139.811 274.698C139.526 274.108 139.384 273.422 139.384 272.64C139.384 271.858 139.526 271.168 139.811 270.572C140.1 269.972 140.501 269.504 141.015 269.17C141.532 268.832 142.135 268.663 142.824 268.663C143.222 268.663 143.615 268.729 144.002 268.862C144.39 268.994 144.743 269.21 145.061 269.508C145.38 269.803 145.633 270.194 145.822 270.681C146.011 271.168 146.105 271.768 146.105 272.481V272.978H140.219V271.964H144.912C144.912 271.533 144.826 271.148 144.654 270.81C144.485 270.472 144.243 270.205 143.928 270.01C143.616 269.814 143.248 269.717 142.824 269.717C142.357 269.717 141.953 269.833 141.611 270.065C141.273 270.293 141.013 270.592 140.831 270.96C140.648 271.327 140.557 271.722 140.557 272.143V272.819C140.557 273.396 140.657 273.884 140.855 274.286C141.058 274.683 141.338 274.987 141.696 275.195C142.054 275.401 142.47 275.504 142.944 275.504C143.252 275.504 143.53 275.46 143.779 275.374C144.031 275.285 144.248 275.152 144.43 274.977C144.612 274.798 144.753 274.576 144.853 274.31L145.986 274.629C145.867 275.013 145.666 275.351 145.385 275.643C145.103 275.931 144.755 276.156 144.341 276.319C143.926 276.478 143.461 276.558 142.944 276.558ZM147.89 276.398V268.762H149.024V269.915H149.103C149.243 269.538 149.494 269.231 149.859 268.996C150.224 268.76 150.635 268.643 151.092 268.643C151.178 268.643 151.286 268.644 151.415 268.648C151.544 268.651 151.642 268.656 151.708 268.663V269.856C151.669 269.846 151.578 269.831 151.435 269.811C151.296 269.788 151.148 269.776 150.993 269.776C150.621 269.776 150.29 269.854 149.998 270.01C149.71 270.162 149.481 270.375 149.312 270.646C149.146 270.915 149.064 271.221 149.064 271.566V276.398H147.89ZM156.069 276.558C155.333 276.558 154.698 276.395 154.164 276.07C153.634 275.742 153.225 275.285 152.936 274.698C152.651 274.108 152.509 273.422 152.509 272.64C152.509 271.858 152.651 271.168 152.936 270.572C153.225 269.972 153.626 269.504 154.14 269.17C154.657 268.832 155.26 268.663 155.949 268.663C156.347 268.663 156.74 268.729 157.127 268.862C157.515 268.994 157.868 269.21 158.186 269.508C158.505 269.803 158.758 270.194 158.947 270.681C159.136 271.168 159.23 271.768 159.23 272.481V272.978H153.344V271.964H158.037C158.037 271.533 157.951 271.148 157.779 270.81C157.61 270.472 157.368 270.205 157.053 270.01C156.741 269.814 156.373 269.717 155.949 269.717C155.482 269.717 155.078 269.833 154.736 270.065C154.398 270.293 154.138 270.592 153.956 270.96C153.773 271.327 153.682 271.722 153.682 272.143V272.819C153.682 273.396 153.782 273.884 153.98 274.286C154.183 274.683 154.463 274.987 154.821 275.195C155.179 275.401 155.595 275.504 156.069 275.504C156.377 275.504 156.655 275.46 156.904 275.374C157.156 275.285 157.373 275.152 157.555 274.977C157.737 274.798 157.878 274.576 157.978 274.31L159.111 274.629C158.992 275.013 158.791 275.351 158.51 275.643C158.228 275.931 157.88 276.156 157.466 276.319C157.051 276.478 156.586 276.558 156.069 276.558ZM165.708 279.262C165.51 279.262 165.332 279.246 165.176 279.212C165.021 279.183 164.913 279.153 164.853 279.123L165.152 278.089C165.437 278.162 165.689 278.188 165.907 278.168C166.126 278.148 166.32 278.051 166.489 277.875C166.661 277.703 166.819 277.423 166.961 277.035L167.18 276.438L164.356 268.762H165.629L167.737 274.847H167.816L169.924 268.762H171.197L167.956 277.512C167.81 277.906 167.629 278.233 167.414 278.491C167.198 278.753 166.948 278.947 166.663 279.073C166.381 279.199 166.063 279.262 165.708 279.262ZM175.674 276.558C174.938 276.558 174.304 276.395 173.77 276.07C173.24 275.742 172.83 275.285 172.542 274.698C172.257 274.108 172.114 273.422 172.114 272.64C172.114 271.858 172.257 271.168 172.542 270.572C172.83 269.972 173.231 269.504 173.745 269.17C174.262 268.832 174.865 268.663 175.555 268.663C175.952 268.663 176.345 268.729 176.733 268.862C177.121 268.994 177.474 269.21 177.792 269.508C178.11 269.803 178.364 270.194 178.553 270.681C178.741 271.168 178.836 271.768 178.836 272.481V272.978H172.95V271.964H177.643C177.643 271.533 177.557 271.148 177.384 270.81C177.215 270.472 176.973 270.205 176.658 270.01C176.347 269.814 175.979 269.717 175.555 269.717C175.087 269.717 174.683 269.833 174.342 270.065C174.004 270.293 173.743 270.592 173.561 270.96C173.379 271.327 173.288 271.722 173.288 272.143V272.819C173.288 273.396 173.387 273.884 173.586 274.286C173.788 274.683 174.068 274.987 174.426 275.195C174.784 275.401 175.2 275.504 175.674 275.504C175.982 275.504 176.261 275.46 176.509 275.374C176.761 275.285 176.978 275.152 177.161 274.977C177.343 274.798 177.484 274.576 177.583 274.31L178.717 274.629C178.597 275.013 178.397 275.351 178.115 275.643C177.833 275.931 177.485 276.156 177.071 276.319C176.657 276.478 176.191 276.558 175.674 276.558ZM183.942 268.762V269.756H179.984V268.762H183.942ZM181.138 266.933H182.311V274.211C182.311 274.542 182.359 274.791 182.455 274.957C182.555 275.119 182.681 275.228 182.833 275.285C182.989 275.338 183.153 275.364 183.325 275.364C183.455 275.364 183.561 275.358 183.643 275.344C183.726 275.328 183.793 275.315 183.842 275.305L184.081 276.359C184.001 276.388 183.89 276.418 183.748 276.448C183.605 276.481 183.425 276.498 183.206 276.498C182.875 276.498 182.55 276.427 182.232 276.284C181.917 276.142 181.655 275.924 181.446 275.633C181.241 275.341 181.138 274.973 181.138 274.529V266.933ZM187.258 266.217L187.158 273.535H186.005L185.906 266.217H187.258ZM186.582 276.478C186.336 276.478 186.126 276.39 185.95 276.214C185.775 276.039 185.687 275.828 185.687 275.583C185.687 275.338 185.775 275.127 185.95 274.952C186.126 274.776 186.336 274.688 186.582 274.688C186.827 274.688 187.037 274.776 187.213 274.952C187.389 275.127 187.477 275.338 187.477 275.583C187.477 275.746 187.435 275.895 187.352 276.031C187.273 276.166 187.165 276.276 187.029 276.359C186.897 276.438 186.747 276.478 186.582 276.478Z" fill="#667085"/>
<defs>
<linearGradient id="paint0_linear_4884_70658" x1="203.119" y1="84.291" x2="218.091" y2="40.5105" gradientUnits="userSpaceOnUse">
<stop stop-color="#344444"/>
<stop offset="1" stop-color="#5D6A6A" stop-opacity="0.79"/>
<stop offset="1" stop-color="#5D6A6A" stop-opacity="0.81"/>
</linearGradient>
<linearGradient id="paint1_linear_4884_70658" x1="41.1713" y1="101.088" x2="33.0848" y2="77.4423" gradientUnits="userSpaceOnUse">
<stop stop-color="#344444"/>
<stop offset="1" stop-color="#5D6A6A" stop-opacity="0.79"/>
<stop offset="1" stop-color="#5D6A6A" stop-opacity="0.81"/>
</linearGradient>
<linearGradient id="paint2_linear_4884_70658" x1="119" y1="164" x2="121.922" y2="146.781" gradientUnits="userSpaceOnUse">
<stop stop-color="#344444"/>
<stop offset="1" stop-color="#5D6A6A" stop-opacity="0.79"/>
<stop offset="1" stop-color="#5D6A6A" stop-opacity="0.81"/>
</linearGradient>
<linearGradient id="paint3_linear_4884_70658" x1="176.872" y1="139.131" x2="194.713" y2="129.842" gradientUnits="userSpaceOnUse">
<stop stop-color="#344444"/>
<stop offset="1" stop-color="#5D6A6A" stop-opacity="0.79"/>
<stop offset="1" stop-color="#5D6A6A" stop-opacity="0.81"/>
</linearGradient>
<linearGradient id="paint4_linear_4884_70658" x1="186.868" y1="137.774" x2="204.072" y2="128.353" gradientUnits="userSpaceOnUse">
<stop stop-color="#344444"/>
<stop offset="1" stop-color="#5D6A6A" stop-opacity="0.79"/>
<stop offset="1" stop-color="#5D6A6A" stop-opacity="0.81"/>
</linearGradient>
<linearGradient id="paint5_linear_4884_70658" x1="97.1232" y1="120.721" x2="114.925" y2="93.6842" gradientUnits="userSpaceOnUse">
<stop stop-color="#344444"/>
<stop offset="1" stop-color="#5D6A6A" stop-opacity="0.79"/>
<stop offset="1" stop-color="#5D6A6A" stop-opacity="0.81"/>
</linearGradient>
<linearGradient id="paint6_linear_4884_70658" x1="88.4084" y1="115.204" x2="105.919" y2="90.6522" gradientUnits="userSpaceOnUse">
<stop stop-color="#344444"/>
<stop offset="1" stop-color="#5D6A6A" stop-opacity="0.79"/>
<stop offset="1" stop-color="#5D6A6A" stop-opacity="0.81"/>
</linearGradient>
</defs>
</svg>
