<svg width="166" height="165" viewBox="0 0 166 165" fill="none" xmlns="http://www.w3.org/2000/svg">
<g clip-path="url(#clip0_5301_78189)">
<path d="M148.96 30.2134H20.2486C18.5121 30.2145 16.847 30.9047 15.6192 32.1326C14.3913 33.3605 13.701 35.0255 13.7 36.762V154.856C13.701 156.592 14.3913 158.258 15.6192 159.485C16.847 160.713 18.5121 161.404 20.2486 161.405H148.96C150.697 161.404 152.362 160.714 153.59 159.486C154.818 158.258 155.508 156.593 155.509 154.856V36.762C155.508 35.0254 154.818 33.3603 153.59 32.1324C152.362 30.9045 150.697 30.2143 148.96 30.2134Z" fill="#D5DDEA"/>
<path d="M140.486 120.367H28.7224C25.106 120.367 22.1738 117.435 22.1738 113.818V9.47585C22.1738 5.85938 25.106 2.92725 28.7224 2.92725H140.486C144.103 2.92725 147.035 5.85938 147.035 9.47585V113.818C147.035 117.435 144.103 120.367 140.486 120.367Z" fill="#F4F7FC"/>
<path d="M24.2471 115.892V11.5501C24.2471 7.93367 27.1793 5.00154 30.7958 5.00154H142.56C143.837 5.00154 145.024 5.37279 146.031 6.00507C144.874 4.15896 142.826 2.92822 140.486 2.92822H28.7224C25.106 2.92822 22.1738 5.86035 22.1738 9.47683V113.819C22.1738 116.159 23.4046 118.206 25.2507 119.365C24.6184 118.357 24.2471 117.17 24.2471 115.892V115.892Z" fill="url(#paint0_linear_5301_78189)"/>
<path d="M52.5164 64.4844L73.6898 85.6585H52.5164V64.4844Z" fill="url(#paint1_linear_5301_78189)"/>
<path d="M155.509 87.4045V38.6869L147.035 30.2124V87.4038H155.509V87.4045Z" fill="#D5DDEA"/>
<path d="M165.434 91.8117L156.305 156.44C155.848 159.671 153.083 162.073 149.82 162.073H19.3877C16.1249 162.073 13.3598 159.671 12.9033 156.44L0.56553 69.1114C0.00899264 65.169 3.06825 61.6465 7.04989 61.6465H47.3302C50.593 61.6465 53.3581 64.0478 53.8145 67.2781L55.4314 78.7145C55.8879 81.9455 58.653 84.3468 61.9158 84.3468H158.951C162.932 84.3468 165.992 87.8693 165.435 91.8117H165.434Z" fill="url(#paint2_linear_5301_78189)"/>
<path d="M133.086 133.246H36.1224C35.5909 133.245 35.0778 133.051 34.6791 132.7C34.2803 132.349 34.0234 131.864 33.9565 131.337L32.7433 121.731C32.7048 121.424 32.732 121.112 32.8232 120.816C32.9144 120.52 33.0675 120.247 33.2723 120.015C33.4772 119.783 33.7291 119.597 34.0113 119.469C34.2935 119.342 34.5996 119.276 34.9093 119.275H134.299C134.609 119.276 134.915 119.342 135.197 119.469C135.48 119.597 135.732 119.783 135.936 120.015C136.141 120.247 136.294 120.52 136.385 120.816C136.477 121.112 136.504 121.424 136.465 121.731L135.252 131.337C135.185 131.864 134.928 132.349 134.53 132.7C134.131 133.051 133.618 133.245 133.086 133.246Z" fill="#D6D8E2"/>
</g>
<path d="M74 15.8618H33V18.4309H74V15.8618ZM74 25.6713H33V28.2403H74V25.6713ZM74 35.4829H33V38.052H74V35.4829ZM74 45.2924H33V47.8618H74V45.2924Z" fill="white"/>
<g opacity="0.42" clip-path="url(#clip1_5301_78189)">
<mask id="mask0_5301_78189" style="mask-type:luminance" maskUnits="userSpaceOnUse" x="98" y="27" width="49" height="49">
<path d="M122.442 27.1455L146.366 51.3046L122.207 75.2282L98.2833 51.0691L122.442 27.1455Z" fill="white"/>
</mask>
<g mask="url(#mask0_5301_78189)">
<path d="M113.61 38.883L122.882 35.5625L119.471 44.8019L113.61 38.883Z" fill="#9A9FB8"/>
<path d="M122.882 35.5625L130.418 43.1726L119.471 44.8019L122.882 35.5625Z" fill="#C6CCE0"/>
<path d="M134.543 60.0222L137.954 50.7827L128.681 54.1032L134.543 60.0222Z" fill="#9A9FB8"/>
<path d="M137.954 50.7827L130.418 43.1726L128.682 54.1032L137.954 50.7827ZM119.471 44.8019L113.96 59.4706L113.61 38.883L119.471 44.8019Z" fill="#C6CCE0"/>
<path d="M128.681 54.1033L113.96 59.4706L134.543 60.0222L128.681 54.1033Z" fill="#787B94"/>
<path d="M119.471 44.8019L128.682 54.1032L130.418 43.1726L119.471 44.8019Z" fill="#ECF0FA"/>
<path d="M119.471 44.8018L113.96 59.4704L128.682 54.103L119.471 44.8018Z" fill="#9A9FB8"/>
</g>
</g>
<g opacity="0.42" clip-path="url(#clip2_5301_78189)">
<mask id="mask1_5301_78189" style="mask-type:luminance" maskUnits="userSpaceOnUse" x="76" y="19" width="49" height="49">
<path d="M76 43.9033L100.042 19.8617L124.083 43.9033L100.042 67.9449L76 43.9033Z" fill="white"/>
</mask>
<g mask="url(#mask1_5301_78189)">
<path d="M87.7804 52.6786L84.4146 43.4226L93.6706 46.7884L87.7804 52.6786Z" fill="#9A9FB8"/>
<path d="M84.4146 43.4224L91.9877 35.8492L93.6706 46.7882L84.4146 43.4224Z" fill="#C6CCE0"/>
<path d="M108.817 31.6424L99.5608 28.2766L102.927 37.5326L108.817 31.6424Z" fill="#9A9FB8"/>
<path d="M99.5608 28.2763L91.9877 35.8495L102.927 37.5324L99.5608 28.2763ZM93.6706 46.7884L108.366 52.2278L87.7804 52.6786L93.6706 46.7884Z" fill="#C6CCE0"/>
<path d="M102.927 37.5321L108.366 52.2276L108.817 31.6419L102.927 37.5321Z" fill="#787B94"/>
<path d="M93.6705 46.7885L102.927 37.5324L91.9876 35.8495L93.6705 46.7885Z" fill="#ECF0FA"/>
<path d="M93.6707 46.7886L108.366 52.228L102.927 37.5325L93.6707 46.7886Z" fill="#9A9FB8"/>
</g>
</g>
<path d="M121.5 30.8479C121.352 30.8479 121.219 30.7366 121.205 30.5975C120.939 28.0653 120.732 27.2583 118.266 27.0357C118.118 27.0218 118 26.8966 118 26.7575C118 26.6183 118.118 26.4931 118.266 26.4792C120.791 26.2566 120.939 25.6444 121.205 23.1123C121.205 22.9731 121.352 22.8618 121.5 22.8618C121.648 22.8618 121.781 22.9731 121.795 23.1123C122.061 25.6444 122.224 26.2566 124.734 26.4792C124.882 26.4931 125 26.6183 125 26.7575C125 26.8966 124.882 27.0218 124.734 27.0357C122.253 27.2583 122.061 28.0653 121.795 30.6114C121.795 30.7505 121.662 30.8618 121.5 30.8618L121.5 30.8479Z" fill="#D6D9E3"/>
<path d="M128.5 34.8549C128.437 34.8549 128.38 34.7992 128.373 34.7296C128.259 33.4636 128.171 33.0601 127.114 32.9488C127.051 32.9418 127 32.8792 127 32.8096C127 32.7401 127.051 32.6775 127.114 32.6705C128.196 32.5592 128.259 32.2531 128.373 30.987C128.373 30.9175 128.437 30.8618 128.5 30.8618C128.563 30.8618 128.62 30.9175 128.627 30.987C128.741 32.2531 128.81 32.5592 129.886 32.6705C129.949 32.6775 130 32.7401 130 32.8096C130 32.8792 129.949 32.9418 129.886 32.9488C128.823 33.0601 128.741 33.4636 128.627 34.7366C128.627 34.8062 128.57 34.8618 128.5 34.8618V34.8549Z" fill="#D6D9E3"/>
<path d="M110.5 66.8549C110.437 66.8549 110.38 66.7992 110.373 66.7296C110.259 65.4636 110.171 65.0601 109.114 64.9488C109.051 64.9418 109 64.8792 109 64.8096C109 64.7401 109.051 64.6775 109.114 64.6705C110.196 64.5592 110.259 64.2531 110.373 62.987C110.373 62.9175 110.437 62.8618 110.5 62.8618C110.563 62.8618 110.62 62.9175 110.627 62.987C110.741 64.2531 110.81 64.5592 111.886 64.6705C111.949 64.6775 112 64.7401 112 64.8096C112 64.8792 111.949 64.9418 111.886 64.9488C110.823 65.0601 110.741 65.4636 110.627 66.7366C110.627 66.8062 110.57 66.8618 110.5 66.8618V66.8549Z" fill="#D6D9E3"/>
<path d="M101.5 61.8514C101.395 61.8514 101.3 61.7679 101.289 61.6636C101.099 59.7644 100.951 59.1592 99.1899 58.9923C99.0844 58.9818 99 58.8879 99 58.7836C99 58.6792 99.0844 58.5853 99.1899 58.5749C100.994 58.4079 101.099 57.9488 101.289 56.0496C101.289 55.9453 101.395 55.8618 101.5 55.8618C101.605 55.8618 101.7 55.9453 101.711 56.0496C101.901 57.9488 102.017 58.4079 103.81 58.5749C103.916 58.5853 104 58.6792 104 58.7836C104 58.8879 103.916 58.9818 103.81 58.9923C102.038 59.1592 101.901 59.7644 101.711 61.674C101.711 61.7783 101.616 61.8618 101.5 61.8618V61.8514Z" fill="#D6D9E3"/>
<path d="M92.5 64.8549C92.4367 64.8549 92.3797 64.7992 92.3734 64.7296C92.2595 63.4636 92.1709 63.0601 91.1139 62.9488C91.0506 62.9418 91 62.8792 91 62.8096C91 62.7401 91.0506 62.6775 91.1139 62.6705C92.1962 62.5592 92.2595 62.2531 92.3734 60.987C92.3734 60.9175 92.4367 60.8618 92.5 60.8618C92.5633 60.8618 92.6203 60.9175 92.6266 60.987C92.7405 62.2531 92.8101 62.5592 93.8861 62.6705C93.9494 62.6775 94 62.7401 94 62.8096C94 62.8792 93.9494 62.9418 93.8861 62.9488C92.8228 63.0601 92.7405 63.4636 92.6266 64.7366C92.6266 64.8062 92.5696 64.8618 92.5 64.8618V64.8549Z" fill="#D6D9E3"/>
<path d="M89.5 28.8549C89.4367 28.8549 89.3797 28.7992 89.3734 28.7296C89.2595 27.4636 89.1709 27.0601 88.1139 26.9488C88.0506 26.9418 88 26.8792 88 26.8096C88 26.7401 88.0506 26.6775 88.1139 26.6705C89.1962 26.5592 89.2595 26.2531 89.3734 24.987C89.3734 24.9175 89.4367 24.8618 89.5 24.8618C89.5633 24.8618 89.6203 24.9175 89.6266 24.987C89.7405 26.2531 89.8101 26.5592 90.8861 26.6705C90.9494 26.6775 91 26.7401 91 26.8096C91 26.8792 90.9494 26.9418 90.8861 26.9488C89.8228 27.0601 89.7405 27.4636 89.6266 28.7366C89.6266 28.8062 89.5696 28.8618 89.5 28.8618V28.8549Z" fill="#D6D9E3"/>
<path d="M113.5 34.8549C113.437 34.8549 113.38 34.7992 113.373 34.7296C113.259 33.4636 113.171 33.0601 112.114 32.9488C112.051 32.9418 112 32.8792 112 32.8096C112 32.7401 112.051 32.6775 112.114 32.6705C113.196 32.5592 113.259 32.2531 113.373 30.987C113.373 30.9175 113.437 30.8618 113.5 30.8618C113.563 30.8618 113.62 30.9175 113.627 30.987C113.741 32.2531 113.81 32.5592 114.886 32.6705C114.949 32.6775 115 32.7401 115 32.8096C115 32.8792 114.949 32.9418 114.886 32.9488C113.823 33.0601 113.741 33.4636 113.627 34.7366C113.627 34.8062 113.57 34.8618 113.5 34.8618V34.8549Z" fill="#D6D9E3"/>
<path d="M126.5 21.8549C126.437 21.8549 126.38 21.7992 126.373 21.7296C126.259 20.4636 126.171 20.0601 125.114 19.9488C125.051 19.9418 125 19.8792 125 19.8096C125 19.7401 125.051 19.6775 125.114 19.6705C126.196 19.5592 126.259 19.2531 126.373 17.987C126.373 17.9175 126.437 17.8618 126.5 17.8618C126.563 17.8618 126.62 17.9175 126.627 17.987C126.741 19.2531 126.81 19.5592 127.886 19.6705C127.949 19.6775 128 19.7401 128 19.8096C128 19.8792 127.949 19.9418 127.886 19.9488C126.823 20.0601 126.741 20.4636 126.627 21.7366C126.627 21.8062 126.57 21.8618 126.5 21.8618V21.8549Z" fill="#D6D9E3"/>
<path d="M109.5 24.8514C109.395 24.8514 109.3 24.7679 109.289 24.6636C109.099 22.7644 108.951 22.1592 107.19 21.9923C107.084 21.9818 107 21.8879 107 21.7836C107 21.6792 107.084 21.5853 107.19 21.5749C108.994 21.4079 109.099 20.9488 109.289 19.0496C109.289 18.9453 109.395 18.8618 109.5 18.8618C109.605 18.8618 109.7 18.9453 109.711 19.0496C109.901 20.9488 110.017 21.4079 111.81 21.5749C111.916 21.5853 112 21.6792 112 21.7836C112 21.8879 111.916 21.9818 111.81 21.9923C110.038 22.1592 109.901 22.7644 109.711 24.674C109.711 24.7783 109.616 24.8618 109.5 24.8618V24.8514Z" fill="#D6D9E3"/>
<path d="M119.5 64.8549C119.437 64.8549 119.38 64.7992 119.373 64.7296C119.259 63.4636 119.171 63.0601 118.114 62.9488C118.051 62.9418 118 62.8792 118 62.8096C118 62.7401 118.051 62.6775 118.114 62.6705C119.196 62.5592 119.259 62.2531 119.373 60.987C119.373 60.9175 119.437 60.8618 119.5 60.8618C119.563 60.8618 119.62 60.9175 119.627 60.987C119.741 62.2531 119.81 62.5592 120.886 62.6705C120.949 62.6775 121 62.7401 121 62.8096C121 62.8792 120.949 62.9418 120.886 62.9488C119.823 63.0601 119.741 63.4636 119.627 64.7366C119.627 64.8062 119.57 64.8618 119.5 64.8618L119.5 64.8549Z" fill="#D6D9E3"/>
<defs>
<linearGradient id="paint0_linear_5301_78189" x1="88.4443" y1="65.4808" x2="5.6265" y2="-17.3377" gradientUnits="userSpaceOnUse">
<stop stop-color="white"/>
</linearGradient>
<linearGradient id="paint1_linear_5301_78189" x1="66.5055" y1="89.0558" x2="40.9123" y2="63.4633" gradientUnits="userSpaceOnUse">
<stop stop-color="#C2CECE" stop-opacity="0"/>
<stop offset="0.179" stop-color="#AFBCBC" stop-opacity="0.179"/>
<stop offset="1" stop-color="#5B6A6A"/>
</linearGradient>
<linearGradient id="paint2_linear_5301_78189" x1="83" y1="45.0001" x2="82.9999" y2="162.073" gradientUnits="userSpaceOnUse">
<stop stop-color="#F4F6FC"/>
<stop offset="0.927" stop-color="#DEE1EA"/>
</linearGradient>
<clipPath id="clip0_5301_78189">
<rect width="165" height="165" fill="white" transform="translate(0.5)"/>
</clipPath>
<clipPath id="clip1_5301_78189">
<rect width="34" height="34" fill="white" transform="translate(122.442 27.1455) rotate(45.2806)"/>
</clipPath>
<clipPath id="clip2_5301_78189">
<rect width="34" height="34" fill="white" transform="translate(76 43.9033) rotate(-45)"/>
</clipPath>
</defs>
</svg>
