<svg width="24" height="24" viewBox="0 0 24 24" fill="none" xmlns="http://www.w3.org/2000/svg">
<path d="M21 9L13.6406 13H10.3594L3 9"  stroke-width="1.4" stroke-linecap="round" stroke-linejoin="round"/>
<path fill-rule="evenodd" clip-rule="evenodd" d="M12.3883 2.41835C12.1532 2.26159 11.8469 2.26159 11.6118 2.41835L2.61176 8.41835C2.41702 8.54817 2.30005 8.76673 2.30005 9.00078V14.7149C2.48042 14.8917 2.7275 15.0008 3.00005 15.0008C3.27259 15.0008 3.51967 14.8917 3.70005 14.7149V9.37541L12 3.84208L20.3 9.37541V14.7149C20.4804 14.8917 20.7275 15.0008 21 15.0008C21.2726 15.0008 21.5197 14.8917 21.7001 14.7149V9.00078C21.7001 8.76673 21.5831 8.54817 21.3883 8.41835L12.3883 2.41835Z" fill="#101828"/>
<path d="M11.375 17.0938V21.5938H14"  stroke-width="1.4" stroke-linecap="round" stroke-linejoin="round"/>
<path d="M5 17.0938L8.375 21.5938"  stroke-width="1.4" stroke-linecap="round" stroke-linejoin="round"/>
<path d="M8.375 17.0938L5 21.5938"  stroke-width="1.4" stroke-linecap="round" stroke-linejoin="round"/>
<path d="M16.625 21.2188C17.0313 21.5218 17.5244 21.6862 18.0312 21.6875C18.875 21.6875 19.625 21.4062 19.625 20.4688C19.625 18.9688 16.625 19.625 16.625 18.2188C16.625 17.4688 17.1875 17 18.0312 17C18.5381 17.0013 19.0312 17.1657 19.4375 17.4688"  stroke-width="1.4" stroke-linecap="round" stroke-linejoin="round"/>
</svg>
