<svg width="19" height="17" viewBox="0 0 19 17" fill="none" xmlns="http://www.w3.org/2000/svg">
<g opacity="0.42" clip-path="url(#clip0_10158_191642)">
<mask id="mask0_10158_191642" style="mask-type:luminance" maskUnits="userSpaceOnUse" x="6" y="3" width="13" height="14">
<path d="M12.4414 3.30273L18.6913 9.77499L12.3799 16.1842L6.13004 9.7119L12.4414 3.30273Z" fill="white"/>
</mask>
<g mask="url(#mask0_10158_191642)">
<path d="M10.1338 6.44706L12.5561 5.5575L11.665 8.03276L10.1338 6.44706Z" fill="#9095AC"/>
<path d="M12.5562 5.55762L14.5249 7.59638L11.665 8.03288L12.5562 5.55762Z" fill="#BAC1D8"/>
<path d="M15.6025 12.1104L16.4936 9.63514L14.0713 10.5247L15.6025 12.1104Z" fill="#9095AC"/>
<path d="M16.4935 9.63502L14.5248 7.59626L14.0712 10.5246L16.4935 9.63502ZM11.665 8.03276L10.2252 11.9625L10.1338 6.44706L11.665 8.03276Z" fill="#BAC1D8"/>
<path d="M14.0713 10.5247L10.2253 11.9626L15.6025 12.1104L14.0713 10.5247Z" fill="#4B4D5E"/>
<path d="M11.665 8.03299L14.0712 10.5248L14.5249 7.5965L11.665 8.03299Z" fill="#ECF0FA"/>
<path d="M11.665 8.03271L10.2252 11.9625L14.0712 10.5245L11.665 8.03271Z" fill="#9095AC"/>
</g>
</g>
<g opacity="0.42" clip-path="url(#clip1_10158_191642)">
<mask id="mask1_10158_191642" style="mask-type:luminance" maskUnits="userSpaceOnUse" x="0" y="1" width="13" height="14">
<path d="M0.308838 7.79248L6.58952 1.35169L12.8702 7.79248L6.58952 14.2333L0.308838 7.79248Z" fill="white"/>
</mask>
<g mask="url(#mask1_10158_191642)">
<path d="M3.38647 10.1433L2.50718 7.66364L4.92524 8.56535L3.38647 10.1433Z" fill="#9095AC"/>
<path d="M2.50708 7.66357L4.48549 5.63472L4.92514 8.56529L2.50708 7.66357Z" fill="#BAC1D8"/>
<path d="M8.88203 4.50773L6.46396 3.60602L7.34326 6.08573L8.88203 4.50773Z" fill="#9095AC"/>
<path d="M6.46401 3.60594L4.48559 5.63479L7.3433 6.08565L6.46401 3.60594ZM4.92524 8.56535L8.7643 10.0226L3.38647 10.1433L4.92524 8.56535Z" fill="#BAC1D8"/>
<path d="M7.34331 6.08583L8.76431 10.0228L8.88208 4.50784L7.34331 6.08583Z" fill="#4B4D5E"/>
<path d="M4.92529 8.56522L7.34335 6.08551L4.48564 5.63466L4.92529 8.56522Z" fill="#ECF0FA"/>
<path d="M4.92529 8.56543L8.76436 10.0227L7.34336 6.08572L4.92529 8.56543Z" fill="#9095AC"/>
</g>
</g>
<path d="M12.1954 4.29476C12.1568 4.29476 12.122 4.26494 12.1182 4.22767C12.0487 3.54929 11.9947 3.33311 11.3504 3.27347C11.3119 3.26974 11.281 3.2362 11.281 3.19893C11.281 3.16165 11.3119 3.12811 11.3504 3.12438C12.0102 3.06474 12.0487 2.90074 12.1182 2.22237C12.1182 2.18509 12.1568 2.15527 12.1954 2.15527C12.2339 2.15527 12.2687 2.18509 12.2725 2.22237C12.342 2.90074 12.3844 3.06474 13.0403 3.12438C13.0788 3.12811 13.1097 3.16165 13.1097 3.19893C13.1097 3.2362 13.0788 3.26974 13.0403 3.27347C12.3921 3.33311 12.342 3.54929 12.2725 4.2314C12.2725 4.26867 12.2378 4.29849 12.1954 4.29849L12.1954 4.29476Z" fill="#98A2B3"/>
<path d="M14.0239 5.36857C14.0074 5.36857 13.9925 5.35366 13.9909 5.33503C13.9611 4.99584 13.938 4.88775 13.6618 4.85793C13.6453 4.85606 13.6321 4.83929 13.6321 4.82065C13.6321 4.80202 13.6453 4.78524 13.6618 4.78338C13.9446 4.75356 13.9611 4.67156 13.9909 4.33237C13.9909 4.31374 14.0074 4.29883 14.0239 4.29883C14.0405 4.29883 14.0554 4.31374 14.057 4.33237C14.0868 4.67156 14.105 4.75356 14.386 4.78338C14.4026 4.78524 14.4158 4.80202 14.4158 4.82065C14.4158 4.83929 14.4026 4.85606 14.386 4.85793C14.1083 4.88775 14.0868 4.99584 14.057 5.33689C14.057 5.35553 14.0421 5.37043 14.0239 5.37043V5.36857Z" fill="#98A2B3"/>
<path d="M9.32155 13.9413C9.30502 13.9413 9.29014 13.9264 9.28848 13.9078C9.25872 13.5686 9.23557 13.4605 8.95945 13.4307C8.94291 13.4288 8.92969 13.412 8.92969 13.3934C8.92969 13.3748 8.94291 13.358 8.95945 13.3561C9.24219 13.3263 9.25872 13.2443 9.28848 12.9051C9.28848 12.8865 9.30502 12.8716 9.32155 12.8716C9.33808 12.8716 9.35297 12.8865 9.35462 12.9051C9.38438 13.2443 9.40257 13.3263 9.68365 13.3561C9.70019 13.358 9.71341 13.3748 9.71341 13.3934C9.71341 13.412 9.70019 13.4288 9.68365 13.4307C9.40588 13.4605 9.38438 13.5686 9.35462 13.9096C9.35462 13.9283 9.33974 13.9432 9.32155 13.9432V13.9413Z" fill="#98A2B3"/>
<path d="M6.97049 12.6007C6.94293 12.6007 6.91813 12.5783 6.91537 12.5504C6.86577 12.0416 6.82719 11.8795 6.36699 11.8347C6.33943 11.8319 6.31738 11.8068 6.31738 11.7788C6.31738 11.7509 6.33943 11.7257 6.36699 11.7229C6.83821 11.6782 6.86577 11.5552 6.91537 11.0464C6.91537 11.0185 6.94293 10.9961 6.97049 10.9961C6.99805 10.9961 7.02285 11.0185 7.0256 11.0464C7.07521 11.5552 7.10552 11.6782 7.57399 11.7229C7.60155 11.7257 7.62359 11.7509 7.62359 11.7788C7.62359 11.8068 7.60155 11.8319 7.57399 11.8347C7.11103 11.8795 7.07521 12.0416 7.0256 12.5532C7.0256 12.5811 7.0008 12.6035 6.97049 12.6035V12.6007Z" fill="#98A2B3"/>
<path d="M4.61916 13.4052C4.60262 13.4052 4.58774 13.3903 4.58609 13.3716C4.55633 13.0325 4.53318 12.9244 4.25706 12.8945C4.24052 12.8927 4.22729 12.8759 4.22729 12.8573C4.22729 12.8386 4.24052 12.8219 4.25706 12.82C4.53979 12.7902 4.55633 12.7082 4.58609 12.369C4.58609 12.3504 4.60262 12.3354 4.61916 12.3354C4.63569 12.3354 4.65057 12.3504 4.65223 12.369C4.68199 12.7082 4.70018 12.7902 4.98126 12.82C4.99779 12.8219 5.01102 12.8386 5.01102 12.8573C5.01102 12.8759 4.99779 12.8927 4.98126 12.8945C4.70348 12.9244 4.68199 13.0325 4.65223 13.3735C4.65223 13.3921 4.63735 13.4071 4.61916 13.4071V13.4052Z" fill="#98A2B3"/>
<path d="M3.83571 3.76115C3.81918 3.76115 3.8043 3.74624 3.80264 3.7276C3.77288 3.38842 3.74973 3.28032 3.47361 3.25051C3.45707 3.24864 3.44385 3.23187 3.44385 3.21323C3.44385 3.1946 3.45707 3.17782 3.47361 3.17596C3.75635 3.14614 3.77288 3.06414 3.80264 2.72495C3.80264 2.70632 3.81918 2.69141 3.83571 2.69141C3.85224 2.69141 3.86713 2.70632 3.86878 2.72495C3.89854 3.06414 3.91673 3.14614 4.19781 3.17596C4.21435 3.17782 4.22757 3.1946 4.22757 3.21323C4.22757 3.23187 4.21435 3.24864 4.19781 3.25051C3.92004 3.28032 3.89854 3.38842 3.86878 3.72947C3.86878 3.7481 3.8539 3.76301 3.83571 3.76301V3.76115Z" fill="#98A2B3"/>
<path d="M10.1052 5.36857C10.0887 5.36857 10.0738 5.35366 10.0722 5.33503C10.0424 4.99584 10.0193 4.88775 9.74314 4.85793C9.72661 4.85606 9.71338 4.83929 9.71338 4.82065C9.71338 4.80202 9.72661 4.78524 9.74314 4.78338C10.0259 4.75356 10.0424 4.67156 10.0722 4.33237C10.0722 4.31374 10.0887 4.29883 10.1052 4.29883C10.1218 4.29883 10.1367 4.31374 10.1383 4.33237C10.1681 4.67156 10.1863 4.75356 10.4673 4.78338C10.4839 4.78524 10.4971 4.80202 10.4971 4.82065C10.4971 4.83929 10.4839 4.85606 10.4673 4.85793C10.1896 4.88775 10.1681 4.99584 10.1383 5.33689C10.1383 5.35553 10.1234 5.37043 10.1052 5.37043V5.36857Z" fill="#98A2B3"/>
<path d="M13.5017 1.88566C13.4852 1.88566 13.4703 1.87075 13.4687 1.85212C13.4389 1.51293 13.4157 1.40484 13.1396 1.37502C13.1231 1.37315 13.1099 1.35638 13.1099 1.33774C13.1099 1.31911 13.1231 1.30233 13.1396 1.30047C13.4224 1.27065 13.4389 1.18865 13.4687 0.849464C13.4687 0.830827 13.4852 0.815918 13.5017 0.815918C13.5183 0.815918 13.5331 0.830827 13.5348 0.849464C13.5646 1.18865 13.5827 1.27065 13.8638 1.30047C13.8804 1.30233 13.8936 1.31911 13.8936 1.33774C13.8936 1.35638 13.8804 1.37315 13.8638 1.37502C13.5861 1.40484 13.5646 1.51293 13.5348 1.85398C13.5348 1.87262 13.5199 1.88752 13.5017 1.88752V1.88566Z" fill="#98A2B3"/>
<path d="M9.06033 2.6886C9.03277 2.6886 9.00797 2.66624 9.00522 2.63828C8.95561 2.1295 8.91703 1.96736 8.45683 1.92263C8.42927 1.91984 8.40723 1.89468 8.40723 1.86672C8.40723 1.83877 8.42927 1.81361 8.45683 1.81081C8.92806 1.76609 8.95561 1.64308 9.00522 1.1343C9.00522 1.10635 9.03277 1.08398 9.06033 1.08398C9.08789 1.08398 9.11269 1.10635 9.11545 1.1343C9.16505 1.64308 9.19536 1.76609 9.66383 1.81081C9.69139 1.81361 9.71344 1.83877 9.71344 1.86672C9.71344 1.89468 9.69139 1.91984 9.66383 1.92263C9.20087 1.96736 9.16505 2.1295 9.11545 2.64108C9.11545 2.66903 9.09064 2.69139 9.06033 2.69139V2.6886Z" fill="#98A2B3"/>
<path d="M11.6729 13.4052C11.6563 13.4052 11.6415 13.3903 11.6398 13.3716C11.61 13.0325 11.5869 12.9244 11.3108 12.8945C11.2942 12.8927 11.281 12.8759 11.281 12.8573C11.281 12.8386 11.2942 12.8219 11.3108 12.82C11.5935 12.7902 11.61 12.7082 11.6398 12.369C11.6398 12.3504 11.6563 12.3354 11.6729 12.3354C11.6894 12.3354 11.7043 12.3504 11.7059 12.369C11.7357 12.7082 11.7539 12.7902 12.035 12.82C12.0515 12.8219 12.0647 12.8386 12.0647 12.8573C12.0647 12.8759 12.0515 12.8927 12.035 12.8945C11.7572 12.9244 11.7357 13.0325 11.7059 13.3735C11.7059 13.3921 11.6911 13.4071 11.6729 13.4071L11.6729 13.4052Z" fill="#98A2B3"/>
<defs>
<clipPath id="clip0_10158_191642">
<rect width="8.99726" height="8.99504" fill="white" transform="matrix(0.694639 0.719359 -0.701649 0.712522 12.4414 3.30273)"/>
</clipPath>
<clipPath id="clip1_10158_191642">
<rect width="8.99615" height="8.99615" fill="white" transform="matrix(0.698152 -0.71595 0.698152 0.71595 0.308838 7.79248)"/>
</clipPath>
</defs>
</svg>
