<svg width="24" height="24" viewBox="0 0 24 24" fill="none" xmlns="http://www.w3.org/2000/svg">
<path d="M12 16.5C14.4853 16.5 16.5 14.4853 16.5 12C16.5 9.51472 14.4853 7.5 12 7.5C9.51472 7.5 7.5 9.51472 7.5 12C7.5 14.4853 9.51472 16.5 12 16.5Z" stroke="#101828" stroke-width="1.5" stroke-linecap="round" stroke-linejoin="round"/>
<path d="M18.5062 7.56523C18.7319 7.88836 18.9295 8.23024 19.0968 8.58711L21.5249 9.93711C21.8281 11.2951 21.8313 12.7028 21.5343 14.0621L19.0968 15.4121C18.9295 15.769 18.7319 16.1109 18.5062 16.434L18.553 19.2184C17.524 20.1561 16.306 20.8625 14.9812 21.2902L12.5905 19.8559C12.1973 19.884 11.8025 19.884 11.4093 19.8559L9.02803 21.2809C7.69894 20.861 6.47699 20.1572 5.44678 19.2184L5.49366 16.4434C5.26985 16.1158 5.07235 15.7709 4.90303 15.4121L2.47491 14.0621C2.17172 12.7042 2.16852 11.2964 2.46553 9.93711L4.90303 8.58711C5.07036 8.23024 5.26796 7.88836 5.49366 7.56523L5.44678 4.78086C6.47583 3.84314 7.69376 3.13667 9.01865 2.70898L11.4093 4.14336C11.8025 4.11523 12.1973 4.11523 12.5905 4.14336L14.9718 2.71836C16.3009 3.13826 17.5228 3.842 18.553 4.78086L18.5062 7.56523Z" stroke="#101828" stroke-width="1.5" stroke-linecap="round" stroke-linejoin="round"/>
</svg>
