<svg width="329" height="311" viewBox="0 0 329 311" fill="none" xmlns="http://www.w3.org/2000/svg">
<g clip-path="url(#clip0_20403_91205)">
<path d="M101.818 300.293C104.422 303.136 107.145 305.857 109.98 308.45C111.059 309.437 112.475 309.967 113.938 309.967H257.759C259.336 309.967 260.853 309.351 261.956 308.225C277.679 292.176 292.554 269.538 305.649 238.673C305.678 238.605 305.689 238.58 305.716 238.51C306.541 236.32 329.656 174.379 324.154 119.964C318.553 64.5621 283.475 20.7825 233.787 11.4581C184.099 2.13359 139.932 53.268 84.4746 70.9949C29.0169 88.7219 -11.6019 136.231 2.99473 199.959C17.5914 263.687 58.3515 252.721 101.818 300.293Z" fill="url(#paint0_linear_20403_91205)"/>
<rect x="13" y="303" width="304" height="8" rx="4" fill="#C0C2CC"/>
<rect x="29" y="134" width="272" height="162" rx="3" fill="#FCFDFF" stroke="url(#paint1_linear_20403_91205)" stroke-width="6"/>
<rect x="110" y="142" width="121" height="9" rx="4.5" fill="#E1E2E8"/>
<circle cx="244.5" cy="146.5" r="4.5" fill="#E1E2E8"/>
<circle cx="96.5" cy="146.5" r="4.5" fill="#E1E2E8"/>
<g clip-path="url(#clip1_20403_91205)">
<path d="M171.72 206.486C172.744 206.624 173.764 206.795 174.779 206.997C181.775 208.395 187.344 211.621 192.903 215.086C193.528 215.476 194.088 215.792 194.615 216.053C195.462 216.473 196.127 216.644 196.709 216.591C197.929 216.48 198.997 215.229 198.948 213.967C198.894 212.539 197.712 211.399 197.012 210.846C194.5 208.862 191.294 207.02 187.212 205.215C182.177 202.987 176.971 201.507 171.72 200.804L171.72 206.486ZM161.506 207.471V238.546C161.506 240.733 163.288 242.512 165.478 242.512C167.668 242.512 169.45 240.733 169.45 238.546V200.499C169.45 198.312 167.668 196.533 165.478 196.533C163.288 196.533 161.506 198.312 161.506 200.499V207.471ZM136.181 216.215C141.353 212.13 147.218 209.146 153.14 207.586C155.126 207.063 157.173 206.67 159.236 206.412V200.633C154.734 201.125 150.345 202.225 146.171 203.913C141.533 205.788 137.133 208.358 133.093 211.551C132.517 212.003 132.142 212.672 132.032 213.438C131.922 214.207 132.096 214.977 132.523 215.604C133.018 216.328 133.81 216.762 134.64 216.762C135.195 216.762 135.728 216.573 136.181 216.215ZM174.771 223.814C174.789 223.818 174.808 223.822 174.827 223.827C179.538 224.999 183.961 227.037 187.972 229.883C188.421 230.206 188.954 230.378 189.5 230.376C190.373 230.376 191.192 229.947 191.691 229.227C192.09 228.644 192.245 227.939 192.125 227.249C192.004 226.551 191.619 225.942 191.042 225.534C186.42 222.254 180.944 219.868 174.301 218.236C173.511 218.042 172.646 217.883 171.72 217.76V223.325C172.742 223.455 173.759 223.618 174.771 223.814ZM156.596 218.249C150.613 219.475 145 221.925 139.916 225.532C139.337 225.941 138.953 226.551 138.832 227.248C138.711 227.939 138.867 228.644 139.27 229.233C139.765 229.947 140.584 230.376 141.456 230.376C142.006 230.376 142.537 230.206 142.99 229.884C147.003 227.036 151.424 224.998 156.13 223.827C156.189 223.812 157.317 223.541 159.237 223.299V217.885C157.725 218.06 156.727 218.227 156.596 218.249ZM159.236 232.992C157.796 233.219 156.855 233.441 156.688 233.482C153.596 234.446 150.638 235.914 147.896 237.846C147.307 238.263 146.912 238.886 146.785 239.6C146.659 240.312 146.813 241.032 147.22 241.629C148.418 243.388 149.829 242.938 152.743 241.184C152.927 241.073 153.108 240.965 153.285 240.86C154.961 239.871 156.961 239.156 159.241 238.728C159.239 238.668 159.236 238.607 159.236 238.546L159.236 232.992ZM171.711 238.888C172.751 239.087 173.724 239.338 174.661 239.649C176.573 240.283 178.302 241.154 179.946 242.311C180.404 242.635 180.946 242.807 181.5 242.807C182.393 242.807 183.23 242.365 183.74 241.625C184.143 241.032 184.298 240.312 184.171 239.6C184.045 238.886 183.65 238.263 183.059 237.845C180.101 235.761 177.142 234.292 174.265 233.48C173.457 233.252 172.605 233.061 171.72 232.908V238.546C171.72 238.661 171.717 238.775 171.711 238.888Z" fill="#E1E4EC"/>
<path d="M161.751 207.504V238.579C161.751 240.766 163.533 242.545 165.723 242.545C167.913 242.545 169.695 240.766 169.695 238.579V200.532C169.695 198.345 167.913 196.566 165.723 196.566C163.533 196.566 161.751 198.345 161.751 200.532V207.504Z" fill="#CFD1DB"/>
<g opacity="0.42" clip-path="url(#clip2_20403_91205)">
<mask id="mask0_20403_91205" style="mask-type:luminance" maskUnits="userSpaceOnUse" x="157" y="246" width="17" height="17">
<path d="M157.333 246.475H173.333V262.475H157.333V246.475Z" fill="white"/>
</mask>
<g mask="url(#mask0_20403_91205)">
<path d="M158.333 253.314L160.293 249.114L162.253 253.314H158.333Z" fill="#9A9FB8"/>
<path d="M160.294 249.114H165.334L162.254 253.314L160.294 249.114Z" fill="#C6CCE0"/>
<path d="M172.334 253.314L170.374 249.114L168.414 253.314H172.334Z" fill="#9A9FB8"/>
<path d="M170.373 249.114H165.333L168.413 253.314L170.373 249.114ZM162.253 253.314L165.333 260.014L158.333 253.314H162.253Z" fill="#C6CCE0"/>
<path d="M168.413 253.314L165.333 260.014L172.333 253.314H168.413Z" fill="#787B94"/>
<path d="M162.253 253.314H168.413L165.333 249.114L162.253 253.314Z" fill="#ECF0FA"/>
<path d="M162.253 253.314L165.333 260.014L168.413 253.314H162.253Z" fill="#9A9FB8"/>
</g>
</g>
</g>
</g>
<defs>
<linearGradient id="paint0_linear_20403_91205" x1="11.3181" y1="306.42" x2="-1.48351" y2="32.5047" gradientUnits="userSpaceOnUse">
<stop stop-color="#EDF0F6"/>
<stop offset="1" stop-color="#FCFDFF"/>
</linearGradient>
<linearGradient id="paint1_linear_20403_91205" x1="393" y1="168" x2="-45" y2="329.5" gradientUnits="userSpaceOnUse">
<stop stop-color="#E1E4EC"/>
<stop offset="1" stop-color="#CFD1DB"/>
</linearGradient>
<clipPath id="clip0_20403_91205">
<rect width="329" height="311" fill="white"/>
</clipPath>
<clipPath id="clip1_20403_91205">
<rect width="66.95" height="69.55" fill="white" transform="translate(132 193)"/>
</clipPath>
<clipPath id="clip2_20403_91205">
<rect width="16" height="16" fill="white" transform="translate(157.333 246.475)"/>
</clipPath>
</defs>
</svg>
