<svg width="221" height="167" viewBox="0 0 221 167" fill="none" xmlns="http://www.w3.org/2000/svg">
<circle cx="19.5" cy="35.5" r="5" fill="#E4E7EC"/>
<circle cx="9.5" cy="122.5" r="9" fill="#E4E7EC"/>
<circle cx="205.5" cy="28.5" r="6" fill="#E4E7EC"/>
<circle cx="110.5" cy="80.5" r="80" fill="#E4E7EC"/>
<g filter="url(#filter0_dd_16217_131267)">
<rect x="27.5" y="22.5" width="166" height="104" rx="6" fill="url(#paint0_linear_16217_131267)"/>
<g opacity="0.42" clip-path="url(#clip0_16217_131267)">
<mask id="mask0_16217_131267" style="mask-type:luminance" maskUnits="userSpaceOnUse" x="92" y="54" width="69" height="69">
<path d="M126.259 54.6445L160.134 88.8523L125.926 122.727L92.0517 88.5188L126.259 54.6445Z" fill="white"/>
</mask>
<g mask="url(#mask0_16217_131267)">
<path d="M113.753 71.2631L126.882 66.5615L122.052 79.644L113.753 71.2631Z" fill="#9A9FB8"/>
<path d="M126.882 66.5625L137.552 77.3379L122.052 79.6449L126.882 66.5625Z" fill="#C6CCE0"/>
<path d="M143.393 101.195L148.223 88.1123L135.094 92.8139L143.393 101.195Z" fill="#9A9FB8"/>
<path d="M148.223 88.1124L137.552 77.337L135.094 92.814L148.223 88.1124ZM122.052 79.644L114.248 100.414L113.753 71.2631L122.052 79.644Z" fill="#C6CCE0"/>
<path d="M135.094 92.8135L114.248 100.413L143.393 101.194L135.094 92.8135Z" fill="#787B94"/>
<path d="M122.052 79.644L135.094 92.8139L137.552 77.3369L122.052 79.644Z" fill="#ECF0FA"/>
<path d="M122.052 79.6445L114.248 100.414L135.094 92.8145L122.052 79.6445Z" fill="#9A9FB8"/>
</g>
</g>
<g opacity="0.42" clip-path="url(#clip1_16217_131267)">
<mask id="mask1_16217_131267" style="mask-type:luminance" maskUnits="userSpaceOnUse" x="60" y="44" width="69" height="69">
<path d="M60.5 78.373L94.5414 44.3316L128.583 78.373L94.5414 112.414L60.5 78.373Z" fill="white"/>
</mask>
<g mask="url(#mask1_16217_131267)">
<path d="M77.1803 90.7972L72.4145 77.6913L85.5204 82.4571L77.1803 90.7972Z" fill="#9A9FB8"/>
<path d="M72.4144 77.6914L83.1375 66.9684L85.5204 82.4572L72.4144 77.6914Z" fill="#C6CCE0"/>
<path d="M106.966 61.0117L93.8605 56.2459L98.6263 69.3519L106.966 61.0117Z" fill="#9A9FB8"/>
<path d="M93.8605 56.2452L83.1375 66.9682L98.6263 69.3511L93.8605 56.2452ZM85.5204 82.4571L106.328 90.1589L77.1803 90.7972L85.5204 82.4571Z" fill="#C6CCE0"/>
<path d="M98.6263 69.3513L106.328 90.1591L106.966 61.0112L98.6263 69.3513Z" fill="#787B94"/>
<path d="M85.5203 82.4574L98.6263 69.3514L83.1374 66.9685L85.5203 82.4574Z" fill="#ECF0FA"/>
<path d="M85.5204 82.457L106.328 90.1589L98.6263 69.3511L85.5204 82.457Z" fill="#9A9FB8"/>
</g>
</g>
<path d="M124.925 59.8879C124.716 59.8879 124.528 59.7303 124.507 59.5333C124.131 55.9479 123.838 54.8053 120.346 54.4901C120.137 54.4704 119.969 54.2931 119.969 54.0961C119.969 53.8991 120.137 53.7218 120.346 53.7021C123.921 53.3869 124.131 52.5201 124.507 48.9347C124.507 48.7377 124.716 48.5801 124.925 48.5801C125.134 48.5801 125.322 48.7377 125.343 48.9347C125.72 52.5201 125.95 53.3869 129.505 53.7021C129.714 53.7218 129.881 53.8991 129.881 54.0961C129.881 54.2931 129.714 54.4704 129.505 54.4901C125.992 54.8053 125.72 55.9479 125.343 59.553C125.343 59.75 125.155 59.9076 124.925 59.9076L124.925 59.8879Z" fill="#D6D9E3"/>
<path d="M134.837 65.5601C134.747 65.5601 134.666 65.4813 134.657 65.3828C134.496 63.5901 134.371 63.0188 132.874 62.8612C132.784 62.8514 132.713 62.7627 132.713 62.6642C132.713 62.5657 132.784 62.4771 132.874 62.4672C134.407 62.3096 134.496 61.8762 134.657 60.0836C134.657 59.9851 134.747 59.9062 134.837 59.9062C134.926 59.9062 135.007 59.9851 135.016 60.0836C135.177 61.8762 135.276 62.3096 136.799 62.4672C136.889 62.4771 136.961 62.5657 136.961 62.6642C136.961 62.7627 136.889 62.8514 136.799 62.8612C135.294 63.0188 135.177 63.5901 135.016 65.3927C135.016 65.4912 134.935 65.57 134.837 65.57V65.5601Z" fill="#D6D9E3"/>
<path d="M109.35 110.871C109.26 110.871 109.18 110.792 109.171 110.693C109.009 108.901 108.884 108.329 107.387 108.172C107.298 108.162 107.226 108.073 107.226 107.975C107.226 107.876 107.298 107.788 107.387 107.778C108.92 107.62 109.009 107.187 109.171 105.394C109.171 105.296 109.26 105.217 109.35 105.217C109.439 105.217 109.52 105.296 109.529 105.394C109.69 107.187 109.789 107.62 111.312 107.778C111.402 107.788 111.474 107.876 111.474 107.975C111.474 108.073 111.402 108.162 111.312 108.172C109.807 108.329 109.69 108.901 109.529 110.703C109.529 110.802 109.448 110.881 109.35 110.881V110.871Z" fill="#D6D9E3"/>
<path d="M96.6064 103.786C96.457 103.786 96.3226 103.667 96.3076 103.52C96.0388 100.831 95.8297 99.9736 93.3354 99.7372C93.186 99.7224 93.0665 99.5894 93.0665 99.4417C93.0665 99.2939 93.186 99.161 93.3354 99.1462C95.8894 98.9098 96.0388 98.2597 96.3076 95.5706C96.3076 95.4229 96.457 95.3047 96.6064 95.3047C96.7557 95.3047 96.8902 95.4229 96.9051 95.5706C97.1739 98.2597 97.3382 98.9098 99.8774 99.1462C100.027 99.161 100.146 99.2939 100.146 99.4417C100.146 99.5894 100.027 99.7224 99.8774 99.7372C97.3681 99.9736 97.1739 100.831 96.9051 103.534C96.9051 103.682 96.7707 103.8 96.6064 103.8V103.786Z" fill="#D6D9E3"/>
<path d="M83.8629 108.039C83.7733 108.039 83.6926 107.96 83.6837 107.861C83.5224 106.069 83.3969 105.497 81.9003 105.34C81.8107 105.33 81.739 105.241 81.739 105.143C81.739 105.044 81.8107 104.956 81.9003 104.946C83.4328 104.788 83.5224 104.355 83.6837 102.562C83.6837 102.464 83.7733 102.385 83.8629 102.385C83.9525 102.385 84.0332 102.464 84.0422 102.562C84.2035 104.355 84.302 104.788 85.8255 104.946C85.9151 104.956 85.9868 105.044 85.9868 105.143C85.9868 105.241 85.9151 105.33 85.8255 105.34C84.32 105.497 84.2035 106.069 84.0422 107.871C84.0422 107.97 83.9615 108.049 83.8629 108.049V108.039Z" fill="#D6D9E3"/>
<path d="M79.6151 57.066C79.5255 57.066 79.4448 56.9872 79.4359 56.8887C79.2746 55.096 79.1491 54.5247 77.6525 54.3671C77.5629 54.3573 77.4912 54.2686 77.4912 54.1701C77.4912 54.0716 77.5629 53.983 77.6525 53.9731C79.185 53.8155 79.2746 53.3821 79.4359 51.5894C79.4359 51.4909 79.5255 51.4121 79.6151 51.4121C79.7047 51.4121 79.7854 51.4909 79.7943 51.5894C79.9557 53.3821 80.0542 53.8155 81.5777 53.9731C81.6673 53.983 81.739 54.0716 81.739 54.1701C81.739 54.2686 81.6673 54.3573 81.5777 54.3671C80.0722 54.5247 79.9557 55.096 79.7943 56.8986C79.7943 56.9971 79.7137 57.0759 79.6151 57.0759V57.066Z" fill="#D6D9E3"/>
<path d="M113.598 65.5601C113.508 65.5601 113.427 65.4813 113.418 65.3828C113.257 63.5901 113.132 63.0188 111.635 62.8612C111.545 62.8514 111.474 62.7627 111.474 62.6642C111.474 62.5657 111.545 62.4771 111.635 62.4672C113.168 62.3096 113.257 61.8762 113.418 60.0836C113.418 59.9851 113.508 59.9062 113.598 59.9062C113.687 59.9062 113.768 59.9851 113.777 60.0836C113.938 61.8762 114.037 62.3096 115.56 62.4672C115.65 62.4771 115.722 62.5657 115.722 62.6642C115.722 62.7627 115.65 62.8514 115.56 62.8612C114.055 63.0188 113.938 63.5901 113.777 65.3927C113.777 65.4912 113.696 65.57 113.598 65.57V65.5601Z" fill="#D6D9E3"/>
<path d="M132.005 47.1539C131.915 47.1539 131.834 47.0751 131.826 46.9766C131.664 45.1839 131.539 44.6126 130.042 44.455C129.953 44.4451 129.881 44.3565 129.881 44.258C129.881 44.1595 129.953 44.0708 130.042 44.061C131.575 43.9034 131.664 43.47 131.826 41.6773C131.826 41.5788 131.915 41.5 132.005 41.5C132.094 41.5 132.175 41.5788 132.184 41.6773C132.345 43.47 132.444 43.9034 133.967 44.061C134.057 44.0708 134.129 44.1595 134.129 44.258C134.129 44.3565 134.057 44.4451 133.967 44.455C132.462 44.6126 132.345 45.1839 132.184 46.9864C132.184 47.0849 132.103 47.1637 132.005 47.1637V47.1539Z" fill="#D6D9E3"/>
<path d="M107.934 51.3969C107.785 51.3969 107.65 51.2787 107.635 51.1309C107.366 48.4419 107.157 47.5849 104.663 47.3485C104.514 47.3337 104.394 47.2008 104.394 47.053C104.394 46.9053 104.514 46.7723 104.663 46.7575C107.217 46.5211 107.366 45.871 107.635 43.182C107.635 43.0342 107.785 42.916 107.934 42.916C108.083 42.916 108.218 43.0342 108.233 43.182C108.501 45.871 108.666 46.5211 111.205 46.7575C111.354 46.7723 111.474 46.9053 111.474 47.053C111.474 47.2008 111.354 47.3337 111.205 47.3485C108.696 47.5849 108.501 48.4419 108.233 51.1457C108.233 51.2934 108.098 51.4116 107.934 51.4116V51.3969Z" fill="#D6D9E3"/>
<path d="M122.093 108.039C122.004 108.039 121.923 107.96 121.914 107.861C121.753 106.069 121.627 105.497 120.131 105.34C120.041 105.33 119.969 105.241 119.969 105.143C119.969 105.044 120.041 104.956 120.131 104.946C121.663 104.788 121.753 104.355 121.914 102.562C121.914 102.464 122.004 102.385 122.093 102.385C122.183 102.385 122.264 102.464 122.272 102.562C122.434 104.355 122.532 104.788 124.056 104.946C124.145 104.956 124.217 105.044 124.217 105.143C124.217 105.241 124.145 105.33 124.056 105.34C122.55 105.497 122.434 106.069 122.272 107.871C122.272 107.97 122.192 108.049 122.093 108.049L122.093 108.039Z" fill="#D6D9E3"/>
</g>
<circle cx="209.5" cy="4.5" r="4" fill="#E4E7EC"/>
<defs>
<filter id="filter0_dd_16217_131267" x="7.5" y="22.5" width="206" height="144" filterUnits="userSpaceOnUse" color-interpolation-filters="sRGB">
<feFlood flood-opacity="0" result="BackgroundImageFix"/>
<feColorMatrix in="SourceAlpha" type="matrix" values="0 0 0 0 0 0 0 0 0 0 0 0 0 0 0 0 0 0 127 0" result="hardAlpha"/>
<feMorphology radius="4" operator="erode" in="SourceAlpha" result="effect1_dropShadow_16217_131267"/>
<feOffset dy="8"/>
<feGaussianBlur stdDeviation="4"/>
<feColorMatrix type="matrix" values="0 0 0 0 0.0627451 0 0 0 0 0.0941176 0 0 0 0 0.156863 0 0 0 0.03 0"/>
<feBlend mode="normal" in2="BackgroundImageFix" result="effect1_dropShadow_16217_131267"/>
<feColorMatrix in="SourceAlpha" type="matrix" values="0 0 0 0 0 0 0 0 0 0 0 0 0 0 0 0 0 0 127 0" result="hardAlpha"/>
<feMorphology radius="4" operator="erode" in="SourceAlpha" result="effect2_dropShadow_16217_131267"/>
<feOffset dy="20"/>
<feGaussianBlur stdDeviation="12"/>
<feColorMatrix type="matrix" values="0 0 0 0 0.0627451 0 0 0 0 0.0941176 0 0 0 0 0.156863 0 0 0 0.08 0"/>
<feBlend mode="normal" in2="effect1_dropShadow_16217_131267" result="effect2_dropShadow_16217_131267"/>
<feBlend mode="normal" in="SourceGraphic" in2="effect2_dropShadow_16217_131267" result="shape"/>
</filter>
<linearGradient id="paint0_linear_16217_131267" x1="33.2809" y1="125.269" x2="30.258" y2="30.0842" gradientUnits="userSpaceOnUse">
<stop stop-color="#EDF0F6"/>
<stop offset="1" stop-color="#FCFDFF"/>
</linearGradient>
<clipPath id="clip0_16217_131267">
<rect width="48.1418" height="48.1418" fill="white" transform="translate(126.259 54.6445) rotate(45.2806)"/>
</clipPath>
<clipPath id="clip1_16217_131267">
<rect width="48.1418" height="48.1418" fill="white" transform="translate(60.5 78.373) rotate(-45)"/>
</clipPath>
</defs>
</svg>
