<svg width="238" height="219" viewBox="0 0 238 219" fill="none" xmlns="http://www.w3.org/2000/svg">
<g clip-path="url(#clip0_192_13503)">
<path d="M73.6557 211.46C75.4017 213.316 77.222 215.098 79.1121 216.803C80.1777 217.764 81.5703 218.272 83.0052 218.272H185.83C187.379 218.272 188.872 217.68 189.964 216.581C201.161 205.315 211.753 189.523 221.094 168.101C221.124 168.031 221.146 167.979 221.174 167.909C222.02 165.711 238.443 122.486 234.495 84.4761C230.442 45.4631 205.067 14.6344 169.123 8.06831C133.178 1.50221 101.228 37.51 61.1093 49.993C20.9909 62.476 -8.39288 95.9311 2.16638 140.807C12.7257 185.683 42.2117 177.961 73.6557 211.46Z" fill="url(#paint0_linear_192_13503)"/>
<path d="M0.85614 218.756H237.757" stroke="#D1D1EE" stroke-width="2" stroke-linecap="round" stroke-linejoin="round"/>
<g clip-path="url(#clip1_192_13503)">
<path d="M119.045 122.961H167.197V155.247H119.045V122.961Z" fill="#FAFAFA"/>
<path d="M121.453 125.383H167.197V155.247H121.453V125.383Z" fill="#F0F0F0"/>
<path d="M162.382 151.614C162.062 151.614 161.756 151.486 161.53 151.259C161.305 151.032 161.178 150.724 161.178 150.403V127.803C161.178 127.481 161.305 127.173 161.53 126.946C161.756 126.719 162.062 126.592 162.382 126.592C162.701 126.592 163.007 126.719 163.233 126.946C163.459 127.173 163.585 127.481 163.585 127.803V150.403C163.585 150.724 163.459 151.032 163.233 151.259C163.007 151.486 162.701 151.614 162.382 151.614ZM157.567 145.156C157.247 145.156 156.941 145.029 156.715 144.802C156.49 144.575 156.363 144.267 156.363 143.946V127.803C156.363 127.481 156.49 127.173 156.715 126.946C156.941 126.719 157.247 126.592 157.567 126.592C157.886 126.592 158.192 126.719 158.418 126.946C158.643 127.173 158.77 127.481 158.77 127.803V143.946C158.77 144.267 158.643 144.575 158.418 144.802C158.192 145.029 157.886 145.156 157.567 145.156ZM152.751 145.156C152.432 145.156 152.126 145.029 151.9 144.802C151.674 144.575 151.548 144.267 151.548 143.946V127.803C151.548 127.481 151.674 127.173 151.9 126.946C152.126 126.719 152.432 126.592 152.751 126.592C153.071 126.592 153.377 126.719 153.603 126.946C153.828 127.173 153.955 127.481 153.955 127.803V143.946C153.955 144.267 153.828 144.575 153.603 144.802C153.377 145.029 153.071 145.156 152.751 145.156ZM147.936 145.156C147.617 145.156 147.311 145.029 147.085 144.802C146.859 144.575 146.732 144.267 146.732 143.946V127.803C146.732 127.481 146.859 127.173 147.085 126.946C147.311 126.719 147.617 126.592 147.936 126.592C148.255 126.592 148.562 126.719 148.787 126.946C149.013 127.173 149.14 127.481 149.14 127.803V143.946C149.14 144.267 149.013 144.575 148.787 144.802C148.562 145.029 148.255 145.156 147.936 145.156ZM143.121 145.156C142.802 145.156 142.496 145.029 142.27 144.802C142.044 144.575 141.917 144.267 141.917 143.946V127.803C141.917 127.481 142.044 127.173 142.27 126.946C142.496 126.719 142.802 126.592 143.121 126.592C143.44 126.592 143.747 126.719 143.972 126.946C144.198 127.173 144.325 127.481 144.325 127.803V143.946C144.325 144.267 144.198 144.575 143.972 144.802C143.747 145.029 143.44 145.156 143.121 145.156ZM138.306 145.156C137.987 145.156 137.68 145.029 137.455 144.802C137.229 144.575 137.102 144.267 137.102 143.946V127.803C137.102 127.481 137.229 127.173 137.455 126.946C137.68 126.719 137.987 126.592 138.306 126.592C138.625 126.592 138.931 126.719 139.157 126.946C139.383 127.173 139.51 127.481 139.51 127.803V143.946C139.51 144.267 139.383 144.575 139.157 144.802C138.931 145.029 138.625 145.156 138.306 145.156ZM133.491 145.156C133.171 145.156 132.865 145.029 132.64 144.802C132.414 144.575 132.287 144.267 132.287 143.946V127.803C132.287 127.481 132.414 127.173 132.64 126.946C132.865 126.719 133.171 126.592 133.491 126.592C133.81 126.592 134.116 126.719 134.342 126.946C134.568 127.173 134.695 127.481 134.695 127.803V143.946C134.695 144.267 134.568 144.575 134.342 144.802C134.116 145.029 133.81 145.156 133.491 145.156ZM128.676 145.156C128.356 145.156 128.05 145.029 127.824 144.802C127.599 144.575 127.472 144.267 127.472 143.946V127.803C127.472 127.481 127.599 127.173 127.824 126.946C128.05 126.719 128.356 126.592 128.676 126.592C128.995 126.592 129.301 126.719 129.527 126.946C129.753 127.173 129.879 127.481 129.879 127.803V143.946C129.879 144.267 129.753 144.575 129.527 144.802C129.301 145.029 128.995 145.156 128.676 145.156ZM123.86 151.614C123.541 151.614 123.235 151.486 123.009 151.259C122.783 151.032 122.657 150.724 122.657 150.403V127.803C122.657 127.481 122.783 127.173 123.009 126.946C123.235 126.719 123.541 126.592 123.86 126.592C124.18 126.592 124.486 126.719 124.712 126.946C124.937 127.173 125.064 127.481 125.064 127.803V150.403C125.064 150.724 124.937 151.032 124.712 151.259C124.486 151.486 124.18 151.614 123.86 151.614ZM157.567 151.614C157.247 151.614 156.941 151.486 156.715 151.259C156.49 151.032 156.363 150.724 156.363 150.403V148.789C156.363 148.467 156.49 148.159 156.715 147.932C156.941 147.705 157.247 147.578 157.567 147.578C157.886 147.578 158.192 147.705 158.418 147.932C158.643 148.159 158.77 148.467 158.77 148.789V150.403C158.77 150.724 158.643 151.032 158.418 151.259C158.192 151.486 157.886 151.614 157.567 151.614ZM152.751 151.614C152.432 151.614 152.126 151.486 151.9 151.259C151.674 151.032 151.548 150.724 151.548 150.403V148.789C151.548 148.467 151.674 148.159 151.9 147.932C152.126 147.705 152.432 147.578 152.751 147.578C153.071 147.578 153.377 147.705 153.603 147.932C153.828 148.159 153.955 148.467 153.955 148.789V150.403C153.955 150.724 153.828 151.032 153.603 151.259C153.377 151.486 153.071 151.614 152.751 151.614ZM147.936 151.614C147.617 151.614 147.311 151.486 147.085 151.259C146.859 151.032 146.732 150.724 146.732 150.403V148.789C146.732 148.467 146.859 148.159 147.085 147.932C147.311 147.705 147.617 147.578 147.936 147.578C148.255 147.578 148.562 147.705 148.787 147.932C149.013 148.159 149.14 148.467 149.14 148.789V150.403C149.14 150.724 149.013 151.032 148.787 151.259C148.562 151.486 148.255 151.614 147.936 151.614ZM143.121 151.614C142.802 151.614 142.496 151.486 142.27 151.259C142.044 151.032 141.917 150.724 141.917 150.403V148.789C141.917 148.467 142.044 148.159 142.27 147.932C142.496 147.705 142.802 147.578 143.121 147.578C143.44 147.578 143.747 147.705 143.972 147.932C144.198 148.159 144.325 148.467 144.325 148.789V150.403C144.325 150.724 144.198 151.032 143.972 151.259C143.747 151.486 143.44 151.614 143.121 151.614ZM138.306 151.614C137.987 151.614 137.68 151.486 137.455 151.259C137.229 151.032 137.102 150.724 137.102 150.403V148.789C137.102 148.467 137.229 148.159 137.455 147.932C137.68 147.705 137.987 147.578 138.306 147.578C138.625 147.578 138.931 147.705 139.157 147.932C139.383 148.159 139.51 148.467 139.51 148.789V150.403C139.51 150.724 139.383 151.032 139.157 151.259C138.931 151.486 138.625 151.614 138.306 151.614ZM133.491 151.614C133.171 151.614 132.865 151.486 132.64 151.259C132.414 151.032 132.287 150.724 132.287 150.403V148.789C132.287 148.467 132.414 148.159 132.64 147.932C132.865 147.705 133.171 147.578 133.491 147.578C133.81 147.578 134.116 147.705 134.342 147.932C134.568 148.159 134.695 148.467 134.695 148.789V150.403C134.695 150.724 134.568 151.032 134.342 151.259C134.116 151.486 133.81 151.614 133.491 151.614ZM128.676 151.614C128.356 151.614 128.05 151.486 127.824 151.259C127.599 151.032 127.472 150.724 127.472 150.403V148.789C127.472 148.467 127.599 148.159 127.824 147.932C128.05 147.705 128.356 147.578 128.676 147.578C128.995 147.578 129.301 147.705 129.527 147.932C129.753 148.159 129.879 148.467 129.879 148.789V150.403C129.879 150.724 129.753 151.032 129.527 151.259C129.301 151.486 128.995 151.614 128.676 151.614Z" fill="#575F63"/>
<path d="M172.012 125.785C171.693 125.785 171.386 125.657 171.161 125.43C170.935 125.203 170.808 124.895 170.808 124.574V119.327H165.592C165.272 119.327 164.966 119.2 164.741 118.973C164.515 118.746 164.388 118.438 164.388 118.117C164.388 117.796 164.515 117.488 164.741 117.261C164.966 117.033 165.272 116.906 165.592 116.906H172.012C172.331 116.906 172.637 117.033 172.863 117.261C173.089 117.488 173.216 117.796 173.216 118.117V124.574C173.216 124.895 173.089 125.203 172.863 125.43C172.637 125.657 172.331 125.785 172.012 125.785ZM114.23 125.785C113.911 125.785 113.605 125.657 113.379 125.43C113.153 125.203 113.026 124.895 113.026 124.574V118.117C113.026 117.796 113.153 117.488 113.379 117.261C113.605 117.033 113.911 116.906 114.23 116.906H120.65C120.97 116.906 121.276 117.033 121.501 117.261C121.727 117.488 121.854 117.796 121.854 118.117C121.854 118.438 121.727 118.746 121.501 118.973C121.276 119.2 120.97 119.327 120.65 119.327H115.434V124.574C115.434 124.895 115.307 125.203 115.081 125.43C114.855 125.657 114.549 125.785 114.23 125.785ZM120.65 161.299H114.23C113.911 161.299 113.605 161.172 113.379 160.945C113.153 160.718 113.026 160.41 113.026 160.089V153.631C113.026 153.31 113.153 153.002 113.379 152.775C113.605 152.548 113.911 152.421 114.23 152.421C114.549 152.421 114.855 152.548 115.081 152.775C115.307 153.002 115.434 153.31 115.434 153.631V158.878H120.65C120.97 158.878 121.276 159.005 121.501 159.233C121.727 159.46 121.854 159.768 121.854 160.089C121.854 160.41 121.727 160.718 121.501 160.945C121.276 161.172 120.97 161.299 120.65 161.299ZM172.012 161.299H165.592C165.272 161.299 164.966 161.172 164.741 160.945C164.515 160.718 164.388 160.41 164.388 160.089C164.388 159.768 164.515 159.46 164.741 159.233C164.966 159.005 165.272 158.878 165.592 158.878H170.808V153.631C170.808 153.31 170.935 153.002 171.161 152.775C171.386 152.548 171.693 152.421 172.012 152.421C172.331 152.421 172.637 152.548 172.863 152.775C173.089 153.002 173.216 153.31 173.216 153.631V160.089C173.216 160.41 173.089 160.718 172.863 160.945C172.637 161.172 172.331 161.299 172.012 161.299ZM106.245 103.588H90.1944L87.4417 113.274H101.069C101.766 113.274 102.445 113.045 103.002 112.622C103.559 112.2 103.964 111.606 104.155 110.931L106.245 103.588Z" fill="#F55082"/>
<path d="M139.911 74.5313H102.11C95.8362 74.5313 89.7211 76.5168 84.6312 80.2065C79.5414 83.8962 75.7348 89.103 73.7506 95.0894C73.4289 96.06 73.3411 97.0936 73.4945 98.105C73.6478 99.1163 74.0379 100.077 74.6326 100.907C75.2273 101.737 76.0096 102.413 76.915 102.879C77.8204 103.345 78.823 103.589 79.8402 103.589H83.7742L72.6865 142.616C72.4818 143.337 72.4462 144.095 72.5825 144.832C72.7187 145.569 73.023 146.264 73.4716 146.862C73.9201 147.46 74.5005 147.946 75.1673 148.28C75.834 148.615 76.5688 148.789 77.3138 148.789H90.1912C91.0426 148.789 91.8591 148.449 92.4611 147.844C93.0631 147.238 93.4013 146.417 93.4013 145.561C93.4013 144.704 93.0631 143.883 92.4611 143.278C91.8591 142.672 91.0426 142.332 90.1912 142.332H88.8157L99.8215 103.589H132.419C133.093 103.59 133.751 103.377 134.298 102.98C134.846 102.584 135.255 102.024 135.468 101.38L142.959 78.7801C143.12 78.2946 143.163 77.7776 143.087 77.2718C143.01 76.766 142.814 76.2858 142.517 75.8708C142.219 75.4558 141.827 75.1179 141.374 74.885C140.921 74.6521 140.42 74.5309 139.911 74.5313Z" fill="#4D5559"/>
<path d="M77.3138 144.54C77.3134 144.146 77.3674 143.754 77.4743 143.375L88.3983 104.919C88.6029 104.199 88.6386 103.441 88.5025 102.704C88.3664 101.968 88.0624 101.273 87.6142 100.675C87.1661 100.076 86.586 99.5908 85.9197 99.2561C85.2534 98.9214 84.519 98.7468 83.7742 98.7458H79.8402C79.5859 98.7459 79.3352 98.6852 79.1088 98.5687C78.8824 98.4522 78.6867 98.2832 78.538 98.0758C78.3892 97.8683 78.2916 97.6282 78.2532 97.3754C78.2148 97.1225 78.2366 96.8641 78.317 96.6214C79.9762 91.5958 83.1682 87.2241 87.4395 84.1278C91.7107 81.0315 96.8437 79.3681 102.109 79.3742H142.757L142.954 78.7801C143.115 78.295 143.159 77.7785 143.082 77.273C143.005 76.7675 142.81 76.2876 142.513 75.8727C142.216 75.4579 141.825 75.1199 141.373 74.8867C140.92 74.6535 140.419 74.5316 139.911 74.5312H102.11C95.8362 74.5313 89.7211 76.5168 84.6312 80.2065C79.5414 83.8962 75.7348 89.103 73.7506 95.0894C73.4289 96.06 73.3411 97.0936 73.4945 98.105C73.6478 99.1163 74.0379 100.077 74.6326 100.907C75.2273 101.737 76.0096 102.413 76.915 102.879C77.8204 103.345 78.823 103.589 79.8402 103.589H83.7742L72.6865 142.616C72.4818 143.337 72.4462 144.095 72.5825 144.832C72.7187 145.569 73.023 146.264 73.4716 146.862C73.9201 147.46 74.5005 147.946 75.1673 148.28C75.834 148.615 76.5688 148.789 77.3138 148.789H81.5399C80.985 148.79 80.4354 148.68 79.9226 148.467C79.4097 148.253 78.9438 147.941 78.5513 147.546C78.1588 147.151 77.8475 146.683 77.6351 146.167C77.4228 145.651 77.3136 145.099 77.3138 144.54Z" fill="#6B7477"/>
<path d="M116.88 99.3399L124.369 76.7396C124.582 76.0965 124.991 75.537 125.538 75.1407C126.085 74.7443 126.742 74.5311 127.416 74.5313H139.911C140.42 74.5306 140.922 74.6517 141.375 74.8845C141.828 75.1173 142.22 75.4551 142.518 75.8701C142.816 76.2851 143.011 76.7654 143.088 77.2714C143.165 77.7774 143.121 78.2945 142.961 78.7801L135.47 101.38C135.256 102.024 134.847 102.584 134.299 102.981C133.751 103.377 133.093 103.59 132.419 103.589H119.925C119.416 103.589 118.915 103.467 118.462 103.234C118.01 103.001 117.619 102.663 117.321 102.248C117.024 101.833 116.829 101.353 116.752 100.847C116.676 100.342 116.719 99.8252 116.88 99.3399Z" fill="#FFE150"/>
<path d="M122.151 98.7467L128.571 79.375H137.681L131.261 98.7467H122.151Z" fill="#BEE6FA"/>
<path d="M80.5239 153.633H85.3391V171.39H80.5239V153.633Z" fill="#4D5559"/>
<path d="M77.3138 148.789H88.5492V152.018C88.5492 152.446 88.3801 152.856 88.0791 153.159C87.7781 153.462 87.3698 153.632 86.9442 153.632H78.9189C78.4932 153.632 78.085 153.462 77.784 153.159C77.4829 152.856 77.3138 152.446 77.3138 152.018V148.789Z" fill="#8A8A9E"/>
</g>
</g>
<defs>
<linearGradient id="paint0_linear_192_13503" x1="8.18751" y1="215.774" x2="-0.588534" y2="22.8669" gradientUnits="userSpaceOnUse">
<stop stop-color="#EDF0F6"/>
<stop offset="1" stop-color="#FCFDFF"/>
</linearGradient>
<clipPath id="clip0_192_13503">
<rect width="238" height="219" fill="white"/>
</clipPath>
<clipPath id="clip1_192_13503">
<rect width="102.723" height="103.316" fill="white" transform="translate(70.8936 71.3027)"/>
</clipPath>
</defs>
</svg>
