<svg width="44" height="44" viewBox="0 0 44 44" fill="none" xmlns="http://www.w3.org/2000/svg">
<g filter="url(#filter0_d_788_205957)">
<rect x="2" y="1" width="40" height="40" rx="4" fill="white" shape-rendering="crispEdges"/>
<rect x="2.5" y="1.5" width="39" height="39" rx="3.5" stroke="#E4E7EC" shape-rendering="crispEdges"/>
<path d="M23.0625 21C23.0625 21.5868 22.5868 22.0625 22 22.0625C21.4132 22.0625 20.9375 21.5868 20.9375 21C20.9375 20.4132 21.4132 19.9375 22 19.9375C22.5868 19.9375 23.0625 20.4132 23.0625 21Z" fill="#101828" stroke="#101828" stroke-width="0.125"/>
<path d="M22 16.125C22.6213 16.125 23.125 15.6213 23.125 15C23.125 14.3787 22.6213 13.875 22 13.875C21.3787 13.875 20.875 14.3787 20.875 15C20.875 15.6213 21.3787 16.125 22 16.125Z" fill="#101828"/>
<path d="M22 28.125C22.6213 28.125 23.125 27.6213 23.125 27C23.125 26.3787 22.6213 25.875 22 25.875C21.3787 25.875 20.875 26.3787 20.875 27C20.875 27.6213 21.3787 28.125 22 28.125Z" fill="#101828"/>
</g>
<defs>
<filter id="filter0_d_788_205957" x="0" y="0" width="44" height="44" filterUnits="userSpaceOnUse" color-interpolation-filters="sRGB">
<feFlood flood-opacity="0" result="BackgroundImageFix"/>
<feColorMatrix in="SourceAlpha" type="matrix" values="0 0 0 0 0 0 0 0 0 0 0 0 0 0 0 0 0 0 127 0" result="hardAlpha"/>
<feOffset dy="1"/>
<feGaussianBlur stdDeviation="1"/>
<feComposite in2="hardAlpha" operator="out"/>
<feColorMatrix type="matrix" values="0 0 0 0 0.0627451 0 0 0 0 0.0941176 0 0 0 0 0.156863 0 0 0 0.12 0"/>
<feBlend mode="normal" in2="BackgroundImageFix" result="effect1_dropShadow_788_205957"/>
<feBlend mode="normal" in="SourceGraphic" in2="effect1_dropShadow_788_205957" result="shape"/>
</filter>
</defs>
</svg>
