<svg width="22" height="25" viewBox="0 0 22 25" fill="none" xmlns="http://www.w3.org/2000/svg">
<path fill-rule="evenodd" clip-rule="evenodd" d="M10.13 2.91045C10.2452 2.91028 10.3574 2.9464 10.45 3.0135C10.5427 3.0806 10.6108 3.17512 10.6445 3.28309L12.7154 9.94954L18.9076 12.1675C19.0097 12.2041 19.0981 12.2703 19.161 12.3573C19.2239 12.4442 19.2584 12.5478 19.2599 12.6544C19.2614 12.7609 19.2299 12.8654 19.1695 12.9541C19.1091 13.0427 19.0226 13.1112 18.9216 13.1507L12.7701 15.5454L10.6445 22.5351C10.6113 22.6436 10.5434 22.7387 10.4507 22.8063C10.358 22.8739 10.2455 22.9105 10.13 22.9105C10.0144 22.9105 9.90194 22.8739 9.80925 22.8063C9.71656 22.7387 9.64861 22.6436 9.61547 22.5351L7.4898 15.5454L1.33834 13.1507C1.23732 13.1112 1.15088 13.0427 1.09048 12.9541C1.03007 12.8654 0.998539 12.7609 1.00005 12.6544C1.00157 12.5478 1.03605 12.4442 1.09895 12.3573C1.16185 12.2703 1.2502 12.2041 1.35231 12.1675L7.54458 9.94954L9.61654 3.28309C9.65013 3.17529 9.71814 3.0809 9.81057 3.01382C9.90299 2.94673 10.015 2.9105 10.13 2.91045ZM10.13 5.24313L8.49409 10.5064C8.46984 10.5844 8.42743 10.6558 8.3702 10.715C8.31298 10.7742 8.24251 10.8195 8.16434 10.8475L3.04404 12.6833L8.12889 14.6623C8.20423 14.6917 8.27178 14.7375 8.32648 14.7962C8.38117 14.8549 8.42158 14.925 8.44468 15.0012L10.131 20.5424L11.8153 15.0012C11.8384 14.925 11.8788 14.8549 11.9335 14.7962C11.9882 14.7375 12.0557 14.6917 12.131 14.6623L17.2159 12.6833L12.0956 10.8496C12.0174 10.8216 11.947 10.7763 11.8897 10.7171C11.8325 10.6579 11.7901 10.5865 11.7658 10.5085L10.13 5.24313Z" fill="#CED2D2"/>
<path d="M18.4544 22.5109C18.3469 22.5109 18.2503 22.4266 18.2395 22.3214C18.0462 20.4055 17.8958 19.795 16.102 19.6266C15.9946 19.6161 15.9087 19.5213 15.9087 19.4161C15.9087 19.3108 15.9946 19.216 16.102 19.2055C17.9388 19.0371 18.0462 18.5739 18.2395 16.6581C18.2395 16.5528 18.3469 16.4686 18.4544 16.4686C18.5618 16.4686 18.6584 16.5528 18.6692 16.6581C18.8625 18.5739 18.9807 19.0371 20.8067 19.2055C20.9141 19.216 21 19.3108 21 19.4161C21 19.5213 20.9141 19.6161 20.8067 19.6266C19.0021 19.795 18.8625 20.4055 18.6692 22.3319C18.6692 22.4372 18.5725 22.5214 18.4544 22.5214V22.5109Z" fill="#CED2D2"/>
</svg>
