<svg width="36" height="36" viewBox="0 0 36 36" fill="none" xmlns="http://www.w3.org/2000/svg">
<g id="icons / attach-outline">
<path id="Vector" d="M15.1931 13.5004V23.6149C15.2047 24.3545 15.5068 25.0598 16.0339 25.5787C16.5611 26.0976 17.2711 26.3885 18.0108 26.3885C18.7505 26.3885 19.4606 26.0976 19.9878 25.5787C20.5149 25.0598 20.8169 24.3545 20.8286 23.6149L20.8378 10.3574C20.8454 9.72529 20.7275 9.09789 20.4909 8.51163C20.2543 7.92538 19.9037 7.39191 19.4594 6.94217C19.0151 6.49243 18.4859 6.13536 17.9025 5.89166C17.3192 5.64795 16.6933 5.52246 16.0611 5.52246C15.4289 5.52246 14.803 5.64795 14.2196 5.89166C13.6363 6.13536 13.1071 6.49243 12.6628 6.94217C12.2185 7.39191 11.8678 7.92538 11.6312 8.51163C11.3946 9.09789 11.2767 9.72529 11.2844 10.3574V23.7042C11.2715 24.5941 11.4357 25.4778 11.7674 26.3038C12.099 27.1298 12.5916 27.8816 13.2164 28.5155C13.8412 29.1494 14.5858 29.6528 15.4069 29.9964C16.228 30.3399 17.1092 30.5169 17.9992 30.5169C18.8893 30.5169 19.7705 30.3399 20.5916 29.9964C21.4127 29.6528 22.1573 29.1494 22.7821 28.5155C23.4069 27.8816 23.8994 27.1298 24.2311 26.3038C24.5628 25.4778 24.727 24.5941 24.7141 23.7042V11.2321"  stroke-miterlimit="10" stroke-linecap="round"/>
</g>
</svg>
