<svg width="22" height="22" viewBox="0 0 22 22" fill="none" xmlns="http://www.w3.org/2000/svg">
  <path d="M5.80893 16.7638C5.92499 16.8968 6.06817 17.0034 6.22884 17.0765C6.38952 17.1496 6.56397 17.1874 6.74049 17.1875H17.322C17.6505 17.186 17.9652 17.0549 18.1975 16.8225C18.4298 16.5902 18.561 16.2755 18.5625 15.947V6.05301C18.561 5.72446 18.4298 5.40978 18.1975 5.17746C17.9652 4.94514 17.6505 4.81397 17.322 4.8125H6.74049C6.56414 4.81266 6.38985 4.85046 6.22927 4.92338C6.0687 4.99629 5.92554 5.10264 5.80936 5.23531L1.99072 11L5.80893 16.7625V16.7638Z" stroke-linejoin="round"/>
  <path d="M14.4663 8.26416L8.87988 13.8505"  stroke-linecap="round" stroke-linejoin="round"/>
  <path d="M14.4663 13.8505L8.87988 8.26416"  stroke-linecap="round" stroke-linejoin="round"/>
  <path d="M14.4663 8.26416L8.87988 13.8505"  stroke-linecap="round" stroke-linejoin="round"/>
  <path d="M14.4663 13.8505L8.87988 8.26416"  stroke-linecap="round" stroke-linejoin="round"/>
</svg>