<svg width="20" height="21" viewBox="0 0 20 21" fill="none" xmlns="http://www.w3.org/2000/svg">
  <path d="M14.375 2.375H5.625C4.93464 2.375 4.375 2.93464 4.375 3.625V17.375C4.375 18.0654 4.93464 18.625 5.625 18.625H14.375C15.0654 18.625 15.625 18.0654 15.625 17.375V3.625C15.625 2.93464 15.0654 2.375 14.375 2.375Z" stroke-width="0.75" stroke-linecap="round" stroke-linejoin="round"/>
  <path d="M13.75 4.875H6.25037V7.375H13.75V4.875Z" stroke-width="0.75" stroke-linecap="round" stroke-linejoin="round"/>
  <path d="M6.5625 11.125C7.08027 11.125 7.5 10.7053 7.5 10.1875C7.5 9.66973 7.08027 9.25 6.5625 9.25C6.04473 9.25 5.625 9.66973 5.625 10.1875C5.625 10.7053 6.04473 11.125 6.5625 11.125Z" fill="#CED2D2"/>
  <path d="M10 11.125C10.5178 11.125 10.9375 10.7053 10.9375 10.1875C10.9375 9.66973 10.5178 9.25 10 9.25C9.48223 9.25 9.0625 9.66973 9.0625 10.1875C9.0625 10.7053 9.48223 11.125 10 11.125Z" fill="#CED2D2"/>
  <path d="M13.4375 11.125C13.9553 11.125 14.375 10.7053 14.375 10.1875C14.375 9.66973 13.9553 9.25 13.4375 9.25C12.9197 9.25 12.5 9.66973 12.5 10.1875C12.5 10.7053 12.9197 11.125 13.4375 11.125Z" fill="#CED2D2"/>
  <path d="M6.5625 14.25C7.08027 14.25 7.5 13.8303 7.5 13.3125C7.5 12.7947 7.08027 12.375 6.5625 12.375C6.04473 12.375 5.625 12.7947 5.625 13.3125C5.625 13.8303 6.04473 14.25 6.5625 14.25Z" fill="#CED2D2"/>
  <path d="M10 14.25C10.5178 14.25 10.9375 13.8303 10.9375 13.3125C10.9375 12.7947 10.5178 12.375 10 12.375C9.48223 12.375 9.0625 12.7947 9.0625 13.3125C9.0625 13.8303 9.48223 14.25 10 14.25Z" fill="#CED2D2"/>
  <path d="M6.5625 17.375C7.08027 17.375 7.5 16.9553 7.5 16.4375C7.5 15.9197 7.08027 15.5 6.5625 15.5C6.04473 15.5 5.625 15.9197 5.625 16.4375C5.625 16.9553 6.04473 17.375 6.5625 17.375Z" fill="#CED2D2"/>
  <path d="M10 17.375C10.5178 17.375 10.9375 16.9553 10.9375 16.4375C10.9375 15.9197 10.5178 15.5 10 15.5C9.48223 15.5 9.0625 15.9197 9.0625 16.4375C9.0625 16.9553 9.48223 17.375 10 17.375Z" fill="#CED2D2"/>
  <path d="M14.375 13.3125C14.375 12.7947 13.9553 12.375 13.4375 12.375C12.9197 12.375 12.5 12.7947 12.5 13.3125V16.4375C12.5 16.9553 12.9197 17.375 13.4375 17.375C13.9553 17.375 14.375 16.9553 14.375 16.4375V13.3125Z" fill="#CED2D2"/>
</svg>