<svg width="24" height="25" viewBox="0 0 24 25" fill="none" xmlns="http://www.w3.org/2000/svg">
<g id="icons / cart-outline">
<path id="Vector" d="M8.25 21.1637C8.66421 21.1637 9 20.8279 9 20.4137C9 19.9995 8.66421 19.6637 8.25 19.6637C7.83579 19.6637 7.5 19.9995 7.5 20.4137C7.5 20.8279 7.83579 21.1637 8.25 21.1637Z" stroke="#CED2D2" stroke-linecap="round" stroke-linejoin="round"/>
<path id="Vector_2" d="M18.75 21.1637C19.1642 21.1637 19.5 20.8279 19.5 20.4137C19.5 19.9995 19.1642 19.6637 18.75 19.6637C18.3358 19.6637 18 19.9995 18 20.4137C18 20.8279 18.3358 21.1637 18.75 21.1637Z" stroke="#CED2D2" stroke-linecap="round" stroke-linejoin="round"/>
<path id="Vector_3" d="M2.25 4.66367H5.25L7.5 17.4137H19.5" stroke="#CED2D2" stroke-linecap="round" stroke-linejoin="round"/>
<path id="Vector_4" d="M7.5 14.4137H19.1925C19.2792 14.4137 19.3633 14.3837 19.4304 14.3288C19.4975 14.2738 19.5434 14.1973 19.5605 14.1123L20.9105 7.36226C20.9214 7.30783 20.92 7.25166 20.9066 7.19781C20.8931 7.14395 20.8679 7.09376 20.8327 7.05084C20.7975 7.00792 20.7532 6.97335 20.703 6.94963C20.6528 6.92591 20.598 6.91363 20.5425 6.91367H6" stroke="#CED2D2" stroke-linecap="round" stroke-linejoin="round"/>
</g>
</svg>
