<svg width="20" height="21" viewBox="0 0 20 21" fill="none" xmlns="http://www.w3.org/2000/svg">
  <path d="M19.1667 9.86188C19.1672 9.15232 19.0014 8.45358 18.6839 7.82775C18.3664 7.20192 17.9071 6.66836 17.3467 6.27448C16.7863 5.88059 16.1422 5.63857 15.4716 5.56991C14.801 5.50125 14.1247 5.60808 13.5028 5.88091C12.8809 6.15374 12.3325 6.58412 11.9065 7.13382C11.4805 7.68352 11.19 8.33553 11.0608 9.03193C10.9316 9.72832 10.9677 10.4475 11.1659 11.1257C11.3641 11.8039 11.7183 12.42 12.197 12.9193V17.5214C12.1969 17.603 12.2167 17.6832 12.2544 17.7545C12.2921 17.8258 12.3465 17.8857 12.4124 17.9286C12.4782 17.9716 12.5535 17.996 12.6308 17.9997C12.7082 18.0035 12.7852 17.9863 12.8545 17.9498L15.0758 16.7802L17.297 17.9498C17.36 17.9829 17.4295 18.0001 17.5 18.0001C17.5844 18.0002 17.6671 17.9754 17.7386 17.9283C17.8046 17.8855 17.859 17.8256 17.8968 17.7544C17.9346 17.6832 17.9545 17.603 17.9545 17.5214V12.9193C18.3387 12.5196 18.6437 12.0435 18.8518 11.5186C19.0599 10.9938 19.1669 10.4306 19.1667 9.86188ZM11.8939 9.86188C11.8939 9.19911 12.0805 8.55122 12.4302 8.00015C12.7798 7.44907 13.2767 7.01956 13.8581 6.76593C14.4395 6.5123 15.0793 6.44594 15.6965 6.57524C16.3137 6.70454 16.8807 7.02369 17.3256 7.49234C17.7706 7.96099 18.0737 8.55809 18.1964 9.20813C18.3192 9.85816 18.2562 10.5319 18.0154 11.1443C17.7745 11.7566 17.3667 12.2799 16.8435 12.6482C16.3202 13.0164 15.7051 13.2129 15.0758 13.2129C14.2319 13.2129 13.4226 12.8599 12.8259 12.2314C12.2292 11.603 11.8939 10.7506 11.8939 9.86188ZM17.0455 16.7467L15.2788 15.8163C15.2157 15.7832 15.1462 15.7659 15.0758 15.7659C15.0053 15.7659 14.9358 15.7832 14.8727 15.8163L13.1061 16.7467V13.635C13.7093 13.9851 14.3869 14.1687 15.0758 14.1687C15.7646 14.1687 16.4422 13.9851 17.0455 13.635V16.7467ZM10.6818 14.9682C10.6818 15.0952 10.6339 15.2169 10.5487 15.3067C10.4634 15.3965 10.3478 15.4469 10.2273 15.4469H3.56061C3.27932 15.4469 3.00955 15.3292 2.81064 15.1198C2.61174 14.9103 2.5 14.6262 2.5 14.3299V4.11725C2.5 3.82101 2.61174 3.53689 2.81064 3.32741C3.00955 3.11793 3.27932 3.00024 3.56061 3.00024H16.8939C17.1752 3.00024 17.445 3.11793 17.6439 3.32741C17.8428 3.53689 17.9545 3.82101 17.9545 4.11725C17.9545 4.24422 17.9067 4.36598 17.8214 4.45576C17.7362 4.54554 17.6206 4.59597 17.5 4.59597C17.3794 4.59597 17.2638 4.54554 17.1786 4.45576C17.0933 4.36598 17.0455 4.24422 17.0455 4.11725C17.0455 4.07493 17.0295 4.03435 17.0011 4.00442C16.9727 3.97449 16.9341 3.95768 16.8939 3.95768H3.56061C3.52042 3.95768 3.48188 3.97449 3.45347 4.00442C3.42505 4.03435 3.40909 4.07493 3.40909 4.11725V14.3299C3.40909 14.3722 3.42505 14.4128 3.45347 14.4428C3.48188 14.4727 3.52042 14.4895 3.56061 14.4895H10.2273C10.3478 14.4895 10.4634 14.5399 10.5487 14.6297C10.6339 14.7195 10.6818 14.8413 10.6818 14.9682ZM9.4697 10.5002C9.4697 10.6271 9.42181 10.7489 9.33656 10.8387C9.25132 10.9285 9.1357 10.9789 9.01515 10.9789H5.98485C5.8643 10.9789 5.74868 10.9285 5.66344 10.8387C5.57819 10.7489 5.5303 10.6271 5.5303 10.5002C5.5303 10.3732 5.57819 10.2514 5.66344 10.1617C5.74868 10.0719 5.8643 10.0215 5.98485 10.0215H9.01515C9.1357 10.0215 9.25132 10.0719 9.33656 10.1617C9.42181 10.2514 9.4697 10.3732 9.4697 10.5002ZM9.4697 7.94701C9.4697 8.07397 9.42181 8.19573 9.33656 8.28551C9.25132 8.37529 9.1357 8.42572 9.01515 8.42572H5.98485C5.8643 8.42572 5.74868 8.37529 5.66344 8.28551C5.57819 8.19573 5.5303 8.07397 5.5303 7.94701C5.5303 7.82004 5.57819 7.69828 5.66344 7.6085C5.74868 7.51872 5.8643 7.46829 5.98485 7.46829H9.01515C9.1357 7.46829 9.25132 7.51872 9.33656 7.6085C9.42181 7.69828 9.4697 7.82004 9.4697 7.94701Z" fill="#8C7459"/>
</svg>