<svg width="24" height="24" viewBox="0 0 24 24" fill="none" xmlns="http://www.w3.org/2000/svg">
  <mask id="mask0_8822_12811" style="mask-type:alpha" maskUnits="userSpaceOnUse" x="0" y="0" width="24" height="24">
    <rect width="24" height="24" fill="#D9D9D9"/>
  </mask>
  <g mask="url(#mask0_8822_12811)">
    <path d="M12.0576 20C9.83541 20 7.94652 19.2223 6.39097 17.6667C4.8354 16.1111 4.05762 14.2223 4.05762 12C4.05762 9.97439 4.71788 8.21797 6.03839 6.73079C7.35891 5.24362 8.99353 4.36542 10.9423 4.09619C10.9961 4.09619 11.049 4.09812 11.1009 4.10197C11.1528 4.1058 11.2038 4.11157 11.2538 4.11927C10.9166 4.58978 10.6496 5.11318 10.4528 5.68947C10.256 6.26575 10.1576 6.86927 10.1576 7.50004C10.1576 9.27782 10.7799 10.7889 12.0243 12.0334C13.2688 13.2778 14.7799 13.9 16.5576 13.9C17.1923 13.9 17.7967 13.8016 18.3711 13.6048C18.9455 13.408 19.4615 13.141 19.9192 12.8039C19.9269 12.8539 19.9326 12.9048 19.9365 12.9568C19.9403 13.0087 19.9423 13.0616 19.9423 13.1154C19.6859 15.0641 18.8141 16.6987 17.3269 18.0193C15.8397 19.3398 14.0833 20 12.0576 20ZM12.0576 19C13.5243 19 14.841 18.5959 16.0076 17.7875C17.1743 16.9792 18.0243 15.925 18.5576 14.625C18.2243 14.7084 17.891 14.775 17.5576 14.825C17.2243 14.875 16.891 14.9 16.5576 14.9C14.5076 14.9 12.7618 14.1792 11.3201 12.7375C9.87848 11.2959 9.15764 9.55004 9.15764 7.50004C9.15764 7.16671 9.18264 6.83337 9.23264 6.50004C9.28264 6.16671 9.34931 5.83337 9.43264 5.50004C8.13264 6.03337 7.07848 6.88337 6.27014 8.05004C5.46181 9.21671 5.05764 10.5334 5.05764 12C5.05764 13.9334 5.74098 15.5834 7.10764 16.95C8.47431 18.3167 10.1243 19 12.0576 19Z"/>
  </g>
</svg>