<svg width="36" height="36" viewBox="0 0 36 36" fill="none" xmlns="http://www.w3.org/2000/svg">
<g id="icons / document-outline">
<path id="Vector" d="M29.25 15.5566V29.25C29.25 30.1451 28.8944 31.0036 28.2615 31.6365C27.6286 32.2694 26.7701 32.625 25.875 32.625H10.125C9.22989 32.625 8.37145 32.2694 7.73851 31.6365C7.10558 31.0036 6.75 30.1451 6.75 29.25V6.75C6.75 5.85489 7.10558 4.99645 7.73851 4.36351C8.37145 3.73058 9.22989 3.375 10.125 3.375H17.0684C17.6649 3.37509 18.237 3.61207 18.6588 4.03383L28.5912 13.9662C29.0129 14.388 29.2499 14.9601 29.25 15.5566Z" 
 stroke-linejoin="round"/>
<path id="Vector_2" d="M18 3.9375V12.375C18 12.9717 18.2371 13.544 18.659 13.966C19.081 14.3879 19.6533 14.625 20.25 14.625H28.6875"  stroke-linecap="round" stroke-linejoin="round"/>
</g>
</svg>
