<svg xmlns="http://www.w3.org/2000/svg" width="17" height="17" viewBox="0 0 17 17" fill="none">
  <path d="M1.93124 15.3061H3.27475L12.8443 5.33955L11.5008 3.94031L1.93124 13.9069V15.3061ZM15.1071 4.84859L11.9722 1.53459L13.0329 0.429924C13.3157 0.135346 13.63 -0.00785098 13.9757 0.000331732C14.3214 0.00851444 14.6278 0.159895 14.8949 0.454472L16.1913 1.82917C16.4584 2.10738 16.5841 2.4306 16.5684 2.79882C16.5527 3.16704 16.4113 3.49026 16.1441 3.76847L15.1071 4.84859ZM14.6592 5.29046L3.81687 16.6317H0.658447V13.3422L11.5244 2.02555L14.6592 5.29046ZM12.1608 4.62766L11.5008 3.94031L12.8443 5.33955L12.1608 4.62766Z" fill="#8C7459"/>
</svg>