<svg width="36" height="36" viewBox="0 0 36 36" fill="none" xmlns="http://www.w3.org/2000/svg">
<g id="icons / ellipsis-vertical">
<path id="Vector" d="M20.875 18C20.875 19.5878 19.5878 20.875 18 20.875C16.4122 20.875 15.125 19.5878 15.125 18C15.125 16.4122 16.4122 15.125 18 15.125C19.5878 15.125 20.875 16.4122 20.875 18Z" fill="#8C7459" stroke="#8C7459"/>
<path id="Vector_2" d="M20.875 29.25C20.875 30.8378 19.5878 32.125 18 32.125C16.4122 32.125 15.125 30.8378 15.125 29.25C15.125 27.6622 16.4122 26.375 18 26.375C19.5878 26.375 20.875 27.6622 20.875 29.25Z" fill="#8C7459" stroke="#8C7459"/>
<path id="Vector_3" d="M20.875 6.75C20.875 8.33782 19.5878 9.625 18 9.625C16.4122 9.625 15.125 8.33782 15.125 6.75C15.125 5.16218 16.4122 3.875 18 3.875C19.5878 3.875 20.875 5.16218 20.875 6.75Z" fill="#8C7459" stroke="#8C7459"/>
</g>
</svg>
