<svg width="204" height="205" viewBox="0 0 204 205" fill="none" xmlns="http://www.w3.org/2000/svg">
<g id="Group 1713">
<path id="Union" fill-rule="evenodd" clip-rule="evenodd" d="M115.531 79.4553L102 60.8506L88.4692 79.4553H115.531ZM80.8582 79.4553L67.3276 60.8506L53.7969 79.4553H80.8582ZM102 144.995L87.6233 82.4151H116.376L102 144.995ZM53.7973 82.4151L100.309 144.995L82.55 82.4151H53.7973ZM103.691 144.995L150.203 82.4151H121.45L103.691 144.995ZM150.203 79.4553L136.672 60.8506L123.141 79.4553H150.203ZM84.6636 79.4553L71.1329 60.8506H98.1943L84.6636 79.4553ZM105.805 60.8506L119.336 79.4553L132.867 60.8506H105.805Z" fill="#5D6A6A"/>
<g id="Group 1707">
<path id="Vector 85" d="M102 25.7559V51.1259" stroke="#5D6A6A" stroke-width="4" stroke-linecap="round"/>
<path id="Vector 87" d="M102 2.5V15.185" stroke="#5D6A6A" stroke-width="4" stroke-linecap="round"/>
<path id="Vector 88" d="M102 189.815V202.5" stroke="#5D6A6A" stroke-width="4" stroke-linecap="round"/>
<path id="Vector 86" d="M102 154.297V179.667" stroke="#5D6A6A" stroke-width="4" stroke-linecap="round"/>
</g>
<g id="Group 1708">
<path id="Vector 85_2" d="M25.2559 102.5H50.6259" stroke="#5D6A6A" stroke-width="4" stroke-linecap="round"/>
<path id="Vector 87_2" d="M2 102.5H14.685" stroke="#5D6A6A" stroke-width="4" stroke-linecap="round"/>
<path id="Vector 88_2" d="M189.315 102.5H202" stroke="#5D6A6A" stroke-width="4" stroke-linecap="round"/>
<path id="Vector 86_2" d="M153.797 102.5H179.167" stroke="#5D6A6A" stroke-width="4" stroke-linecap="round"/>
</g>
<g id="Group 1709">
<path id="Vector 85_3" d="M47.7329 48.2344L57.4581 57.9596" stroke="#5D6A6A" stroke-width="4" stroke-linecap="round"/>
<path id="Vector 87_3" d="M26.6377 27.1387L43.9739 44.4749" stroke="#5D6A6A" stroke-width="4" stroke-linecap="round"/>
<path id="Vector 88_3" d="M163.741 164.242L172.711 173.212" stroke="#5D6A6A" stroke-width="4" stroke-linecap="round"/>
<path id="Vector 86_3" d="M130.35 130.851L156.565 157.066" stroke="#5D6A6A" stroke-width="4" stroke-linecap="round"/>
</g>
<g id="Group 1710">
<path id="Vector 85_4" d="M160.072 44.4287L149.078 55.4224" stroke="#5D6A6A" stroke-width="4" stroke-linecap="round"/>
<path id="Vector 87_4" d="M181.5 23L163.741 40.759" stroke="#5D6A6A" stroke-width="4" stroke-linecap="round"/>
<path id="Vector 88_4" d="M40.2593 164.241L31.2896 173.211" stroke="#5D6A6A" stroke-width="4" stroke-linecap="round"/>
<path id="Vector 86_4" d="M75.7646 128.736L47.4348 157.066" stroke="#5D6A6A" stroke-width="4" stroke-linecap="round"/>
</g>
</g>
</svg>
