<svg width="20" height="21" viewBox="0 0 20 21" fill="none" xmlns="http://www.w3.org/2000/svg">
  <path d="M16.25 3.62524H3.75C2.71447 3.62524 1.875 4.46471 1.875 5.50024V15.5002C1.875 16.5358 2.71447 17.3752 3.75 17.3752H16.25C17.2855 17.3752 18.125 16.5358 18.125 15.5002V5.50024C18.125 4.46471 17.2855 3.62524 16.25 3.62524Z" stroke="#8C7459" stroke-linejoin="round"/>
  <path d="M13.125 8.62524C13.8154 8.62524 14.375 8.0656 14.375 7.37524C14.375 6.68489 13.8154 6.12524 13.125 6.12524C12.4346 6.12524 11.875 6.68489 11.875 7.37524C11.875 8.0656 12.4346 8.62524 13.125 8.62524Z" stroke="#8C7459" stroke-miterlimit="10"/>
  <path d="M11.875 13.6173L8.33359 10.0825C8.10824 9.85719 7.80535 9.72646 7.48684 9.71703C7.16832 9.70759 6.85822 9.82015 6.61992 10.0317L1.875 14.2505" stroke="#8C7459" stroke-linecap="round" stroke-linejoin="round"/>
  <path d="M8.75 17.3753L13.568 12.5573C13.7883 12.3365 14.0832 12.2061 14.3948 12.1917C14.7064 12.1772 15.0121 12.2798 15.252 12.4792L18.125 14.8753" stroke="#8C7459" stroke-linecap="round" stroke-linejoin="round"/>
</svg>