<svg width="24" height="24" viewBox="0 0 24 24" fill="none" xmlns="http://www.w3.org/2000/svg">
<path d="M21.4851 14.8434C21.443 14.62 21.3155 14.4262 21.1262 14.2979L15.603 10.5515C15.5108 10.489 15.397 10.4658 15.2874 10.4873L13.7882 10.7815C13.7856 10.7785 13.7833 10.7753 13.7806 10.7723C12.9191 9.83189 11.7992 9.17366 10.5768 8.86493L13.5015 5.27903C13.6165 5.13807 13.6218 4.94505 13.5289 4.80013L13.5278 4.79782L13.5244 4.79256L13.5234 4.79104L12.1588 2.68902C12.0823 2.57119 11.9506 2.5 11.8092 2.5H6.1509C6.00947 2.5 5.87778 2.57119 5.80126 2.68902L4.43672 4.79104L4.43577 4.79256L4.43236 4.79782L4.43153 4.7995C4.33835 4.9445 4.34354 5.13787 4.45865 5.27899L7.38201 8.86328C4.57918 9.56989 2.5 12.0904 2.5 15.0828C2.5 18.6213 5.40694 21.5 8.98006 21.5C10.6624 21.5 12.2568 20.8644 13.4694 19.7104C14.5184 18.7121 15.1875 17.4165 15.3927 16.0098L18.4893 18.1103C18.6329 18.2077 18.8007 18.2592 18.9744 18.2592C19.2582 18.2592 19.5232 18.1209 19.6834 17.8892L21.3494 15.4804C21.4791 15.2929 21.5273 15.0667 21.4851 14.8434ZM9.78534 8.52519H8.17478L5.65196 5.43198H12.3082L9.78534 8.52519ZM6.37783 3.32318H11.5822L12.4168 4.6088H5.54326L6.37783 3.32318ZM8.98006 20.6768C5.86531 20.6768 3.33128 18.1674 3.33128 15.0828C3.33128 11.9983 5.86531 9.48882 8.98006 9.48882C10.4026 9.48882 11.7728 10.0248 12.8114 10.9731L12.6554 11.0037C12.4336 11.0472 12.2877 11.2583 12.3268 11.4788L12.4152 11.9765L10.8578 11.7772C10.3026 11.4666 9.66192 11.2891 8.98006 11.2891C6.86767 11.2891 5.14913 12.9909 5.14913 15.0828C5.14913 17.1746 6.86767 18.8765 8.98006 18.8765C11.0924 18.8764 12.8109 17.1746 12.8109 15.0828C12.8109 14.2088 12.5108 13.4031 12.0075 12.761L12.5666 12.8282L12.7918 14.0957C12.8111 14.2047 12.874 14.3014 12.9663 14.3639L14.6145 15.4819C14.4075 18.4077 11.9628 20.6768 8.98006 20.6768ZM11.9797 15.0828C11.9797 16.7207 10.6341 18.0533 8.98006 18.0533C7.32604 18.0533 5.98038 16.7208 5.98038 15.0828C5.98038 13.4449 7.32604 12.1123 8.98006 12.1123C10.6341 12.1123 11.9797 13.4449 11.9797 15.0828ZM20.6637 15.0152L18.9976 17.4241C18.9904 17.4345 18.98 17.436 18.9744 17.436C18.9672 17.436 18.9625 17.4335 18.9591 17.4312L13.5801 13.7826L13.216 11.733L15.2774 11.3286L20.6565 14.9771C20.6588 14.9787 20.6659 14.9835 20.668 14.9947C20.6702 15.0058 20.6653 15.0128 20.6637 15.0152Z" />
</svg>
