<svg width="20" height="20" viewBox="0 0 20 20" fill="none" xmlns="http://www.w3.org/2000/svg">
<path id="Vector" d="M19.4851 12.757C19.443 12.5336 19.3155 12.3399 19.1262 12.2116L13.603 8.46518C13.5108 8.40265 13.397 8.37949 13.2874 8.40101L11.7882 8.69512C11.7856 8.69214 11.7833 8.68893 11.7806 8.68599C10.9191 7.74556 9.79924 7.08733 8.57684 6.77859L11.5015 3.19269C11.6165 3.05173 11.6218 2.85871 11.5289 2.7138L11.5278 2.71148L11.5244 2.70623L11.5234 2.7047L10.1588 0.602684C10.0823 0.484851 9.95057 0.413666 9.80918 0.413666H4.1509C4.00947 0.413666 3.87778 0.484851 3.80126 0.602684L2.43672 2.7047L2.43577 2.70623L2.43236 2.71148L2.43153 2.71317C2.33835 2.85817 2.34354 3.05154 2.45865 3.19265L5.38201 6.77695C2.57918 7.48355 0.5 10.004 0.5 12.9965C0.5 16.5349 3.40694 19.4137 6.98006 19.4137C8.66238 19.4137 10.2568 18.7781 11.4694 17.6241C12.5184 16.6258 13.1875 15.3302 13.3927 13.9235L16.4893 16.024C16.6329 16.1214 16.8007 16.1729 16.9744 16.1729C17.2582 16.1729 17.5232 16.0346 17.6834 15.8029L19.3494 13.3941C19.4791 13.2066 19.5273 12.9804 19.4851 12.757ZM7.78534 6.43885H6.17478L3.65196 3.34565H10.3082L7.78534 6.43885ZM4.37783 1.23685H9.58225L10.4168 2.52246H3.54326L4.37783 1.23685ZM6.98006 18.5905C3.86531 18.5905 1.33128 16.081 1.33128 12.9965C1.33128 9.91194 3.86531 7.40249 6.98006 7.40249C8.40259 7.40249 9.7728 7.93846 10.8114 8.88677L10.6554 8.91738C10.4336 8.96089 10.2877 9.17194 10.3268 9.39243L10.4152 9.89015L8.85784 9.69082C8.30261 9.38028 7.66192 9.20275 6.98006 9.20275C4.86767 9.20275 3.14913 10.9046 3.14913 12.9964C3.14913 15.0883 4.86767 16.7901 6.98006 16.7901C9.09241 16.7901 10.8109 15.0882 10.8109 12.9964C10.8109 12.1225 10.5108 11.3168 10.0075 10.6747L10.5666 10.7419L10.7918 12.0093C10.8111 12.1183 10.874 12.215 10.9663 12.2776L12.6145 13.3956C12.4075 16.3213 9.9628 18.5905 6.98006 18.5905ZM9.9797 12.9965C9.9797 14.6344 8.63408 15.967 6.98006 15.967C5.32604 15.967 3.98038 14.6344 3.98038 12.9965C3.98038 11.3585 5.32604 10.026 6.98006 10.026C8.63408 10.026 9.9797 11.3585 9.9797 12.9965ZM18.6637 12.9289L16.9976 15.3377C16.9904 15.3482 16.98 15.3497 16.9744 15.3497C16.9672 15.3497 16.9625 15.3471 16.9591 15.3448L11.5801 11.6963L11.216 9.64664L13.2774 9.24222L18.6565 12.8908C18.6588 12.8924 18.6659 12.8972 18.668 12.9083C18.6702 12.9195 18.6653 12.9265 18.6637 12.9289Z" fill="#CED2D2"/>
</svg>
