<svg width="24" height="24" viewBox="0 0 24 24" fill="none" xmlns="http://www.w3.org/2000/svg">
  <mask id="mask0_9155_12873" style="mask-type:alpha" maskUnits="userSpaceOnUse" x="0" y="0" width="24" height="24">
    <rect width="24" height="24"/>
  </mask>
  <g mask="url(#mask0_9155_12873)">
    <path d="M12 15C12.8333 15 13.5417 14.7083 14.125 14.125C14.7083 13.5417 15 12.8333 15 12C15 11.1667 14.7083 10.4583 14.125 9.875C13.5417 9.29167 12.8333 9 12 9C11.1667 9 10.4583 9.29167 9.875 9.875C9.29167 10.4583 9 11.1667 9 12C9 12.8333 9.29167 13.5417 9.875 14.125C10.4583 14.7083 11.1667 15 12 15ZM12 16C10.8859 16 9.94071 15.6119 9.16442 14.8356C8.38814 14.0593 8 13.1141 8 12C8 10.8859 8.38814 9.94071 9.16442 9.16443C9.94071 8.38814 10.8859 8 12 8C13.1141 8 14.0593 8.38814 14.8356 9.16443C15.6119 9.94071 16 10.8859 16 12C16 13.1141 15.6119 14.0593 14.8356 14.8356C14.0593 15.6119 13.1141 16 12 16ZM5 12.5H1.5V11.5H5V12.5ZM22.5 12.5H19V11.5H22.5V12.5ZM11.5 5V1.5H12.5V5H11.5ZM11.5 22.5V19H12.5V22.5H11.5ZM6.74615 7.40385L4.58652 5.30578L5.28078 4.56153L7.3923 6.69615L6.74615 7.40385ZM18.7192 19.4385L16.6019 17.2981L17.2538 16.5962L19.4135 18.6942L18.7192 19.4385ZM16.5962 6.74615L18.6942 4.58652L19.4385 5.28078L17.3039 7.3923L16.5962 6.74615ZM4.56153 18.7192L6.70192 16.6019L7.36538 17.2538L5.28655 19.4327L4.56153 18.7192Z" />
  </g>
</svg>