<svg width="24" height="20" viewBox="0 0 24 20" fill="none" xmlns="http://www.w3.org/2000/svg">
<path id="Vector" d="M12.8214 1.01052L15.5 4.58193M12.8214 1.01052H3.90095M12.8214 1.01052L11.0357 4.58193M15.5 4.58193L8.35718 13.5105M15.5 4.58193H1.21436M8.35718 13.5105L1.21436 4.58193M8.35718 13.5105L5.67862 4.58193M8.35718 13.5105L11.0357 4.58193M1.21436 4.58193L3.90095 1.01052M3.90095 1.01052L5.67862 4.58193M5.67862 4.58193L8.35716 1.01052L11.0357 4.58193M20.1071 6.31411L22.7856 9.88552M20.1071 6.31411H15.6468M20.1071 6.31411L18.3214 9.88552M22.7856 9.88552L15.6428 18.814M22.7856 9.88552H12.9643L15.6428 18.814M15.6428 18.814L18.3214 9.88552M15.6428 18.814L10.8429 12.8141M18.3214 9.88552L15.6428 6.31411" stroke="#CED2D2" stroke-width="0.5" stroke-linecap="round" stroke-linejoin="round"/>
</svg>
