<svg width="24" height="24" viewBox="0 0 24 24" fill="none" xmlns="http://www.w3.org/2000/svg">
<g clip-path="url(#clip0_633_4925)">
<path d="M12.8214 3.09863L15.5 6.67004M12.8214 3.09863H3.90095M12.8214 3.09863L11.0357 6.67004M15.5 6.67004L8.35718 15.5986M15.5 6.67004H1.21436M8.35718 15.5986L1.21436 6.67004M8.35718 15.5986L5.67862 6.67004M8.35718 15.5986L11.0357 6.67004M1.21436 6.67004L3.90095 3.09863M3.90095 3.09863L5.67862 6.67004M5.67862 6.67004L8.35716 3.09863L11.0357 6.67004M20.1071 8.40222L22.7856 11.9736M20.1071 8.40222H15.6468M20.1071 8.40222L18.3214 11.9736M22.7856 11.9736L15.6428 20.9022M22.7856 11.9736H12.9643L15.6428 20.9022M15.6428 20.9022L18.3214 11.9736M15.6428 20.9022L10.8429 14.9022M18.3214 11.9736L15.6428 8.40222"  stroke="" stroke-width="0.5" stroke-linecap="round" stroke-linejoin="round"/>
</g>
<defs>
<clipPath id="clip0_633_4925">
<rect width="23.5713" height="23.8035" fill="white" transform="translate(0.214355 0.0986328)"/>
</clipPath>
</defs>
</svg>
