<svg width="20" height="21" viewBox="0 0 20 21" fill="none" xmlns="http://www.w3.org/2000/svg">
<g id="Vector">
<path fill-rule="evenodd" clip-rule="evenodd" d="M9.12997 0.910454C9.24517 0.910276 9.35737 0.946403 9.45001 1.0135C9.54266 1.0806 9.61083 1.17512 9.64447 1.28309L11.7154 7.94954L17.9076 10.1675C18.0097 10.2041 18.0981 10.2703 18.161 10.3573C18.2239 10.4442 18.2584 10.5478 18.2599 10.6544C18.2614 10.7609 18.2299 10.8654 18.1695 10.9541C18.1091 11.0427 18.0226 11.1112 17.9216 11.1507L11.7701 13.5454L9.64447 20.5351C9.61133 20.6436 9.54337 20.7387 9.45068 20.8063C9.358 20.8739 9.24552 20.9105 9.12997 20.9105C9.01441 20.9105 8.90194 20.8739 8.80925 20.8063C8.71656 20.7387 8.64861 20.6436 8.61547 20.5351L6.4898 13.5454L0.338345 11.1507C0.237316 11.1112 0.150882 11.0427 0.0904762 10.9541C0.0300703 10.8654 -0.00146142 10.7609 5.2037e-05 10.6544C0.00156549 10.5478 0.0360528 10.4442 0.098952 10.3573C0.161851 10.2703 0.250199 10.2041 0.352308 10.1675L6.54458 7.94954L8.61654 1.28309C8.65013 1.17529 8.71814 1.0809 8.81057 1.01382C8.90299 0.946733 9.01495 0.910502 9.12997 0.910454ZM9.12997 3.24313L7.49409 8.5064C7.46984 8.58439 7.42743 8.6558 7.3702 8.71499C7.31298 8.77418 7.24251 8.81952 7.16434 8.84746L2.04404 10.6833L7.12889 12.6623C7.20423 12.6917 7.27178 12.7375 7.32648 12.7962C7.38117 12.8549 7.42158 12.925 7.44468 13.0012L9.13104 18.5424L10.8153 13.0012C10.8384 12.925 10.8788 12.8549 10.9335 12.7962C10.9882 12.7375 11.0557 12.6917 11.131 12.6623L16.2159 10.6833L11.0956 8.84956C11.0174 8.82163 10.947 8.77628 10.8897 8.71709C10.8325 8.65791 10.7901 8.5865 10.7658 8.5085L9.12997 3.24313Z" fill="#CED2D2"/>
<path d="M17.4544 20.5109C17.3469 20.5109 17.2503 20.4266 17.2395 20.3214C17.0462 18.4055 16.8958 17.795 15.102 17.6266C14.9946 17.6161 14.9087 17.5213 14.9087 17.4161C14.9087 17.3108 14.9946 17.216 15.102 17.2055C16.9388 17.0371 17.0462 16.5739 17.2395 14.6581C17.2395 14.5528 17.3469 14.4686 17.4544 14.4686C17.5618 14.4686 17.6584 14.5528 17.6692 14.6581C17.8625 16.5739 17.9807 17.0371 19.8067 17.2055C19.9141 17.216 20 17.3108 20 17.4161C20 17.5213 19.9141 17.6161 19.8067 17.6266C18.0021 17.795 17.8625 18.4055 17.6692 20.3319C17.6692 20.4372 17.5725 20.5214 17.4544 20.5214V20.5109Z" fill="#CED2D2"/>
</g>
</svg>
