<?xml version="1.0" standalone="no"?>
<!DOCTYPE svg PUBLIC "-//W3C//DTD SVG 20010904//EN"
 "http://www.w3.org/TR/2001/REC-SVG-20010904/DTD/svg10.dtd">
<svg version="1.0" xmlns="http://www.w3.org/2000/svg"
 width="24px" height="24px" viewBox="0 0 512.000000 512.000000"
 preserveAspectRatio="xMidYMid meet">

<g transform="translate(0.000000,512.000000) scale(0.100000,-0.100000)"
>
<path d="M2485 5107 c-22 -8 -51 -20 -65 -27 -47 -25 -142 -125 -231 -241
-133 -174 -179 -210 -251 -195 -17 3 -104 35 -193 70 -300 119 -420 122 -522
14 -67 -70 -92 -148 -123 -386 -25 -190 -35 -227 -65 -257 -30 -30 -67 -40
-257 -65 -86 -11 -183 -28 -215 -36 -194 -50 -280 -179 -244 -364 7 -33 44
-138 82 -233 42 -102 73 -194 76 -225 6 -51 5 -55 -33 -94 -21 -22 -93 -82
-159 -133 -217 -168 -279 -252 -279 -375 0 -123 62 -207 279 -375 66 -51 138
-111 159 -133 38 -39 39 -43 33 -94 -3 -31 -34 -123 -76 -225 -38 -95 -75
-200 -82 -233 -36 -185 50 -314 244 -364 32 -8 129 -25 215 -36 190 -25 227
-35 257 -65 30 -30 40 -67 65 -257 31 -238 56 -316 123 -386 102 -108 222
-105 523 14 90 36 187 68 215 71 48 6 52 4 91 -33 22 -21 82 -93 133 -159 168
-217 252 -279 375 -279 123 0 210 64 372 276 49 65 111 136 136 159 43 38 51
41 92 37 25 -3 120 -35 212 -71 303 -120 423 -123 524 -15 68 71 87 130 124
386 16 110 36 214 45 231 8 17 29 38 46 46 17 9 121 29 231 45 259 38 310 54
386 124 70 64 95 161 73 276 -7 33 -44 138 -82 233 -42 102 -73 194 -76 225
-6 51 -5 55 33 94 21 22 93 82 159 133 217 168 279 252 279 375 0 123 -62 207
-279 375 -66 51 -138 111 -159 133 -38 39 -39 43 -33 94 3 31 34 123 76 225
38 95 75 200 82 233 36 185 -50 314 -244 364 -32 8 -129 25 -215 36 -190 25
-227 35 -257 65 -30 30 -40 67 -65 257 -31 238 -56 316 -123 386 -100 105
-223 104 -500 -5 -150 -59 -226 -83 -267 -83 -32 0 -98 66 -208 210 -97 128
-186 214 -247 241 -59 26 -139 33 -190 16z m104 -221 c35 -19 77 -65 176 -196
159 -211 240 -270 371 -270 85 0 151 19 354 101 158 63 221 79 244 59 23 -18
42 -99 65 -271 32 -238 57 -312 127 -383 71 -70 145 -95 383 -127 172 -23 253
-42 271 -65 20 -23 5 -83 -69 -267 -84 -208 -94 -243 -93 -329 0 -130 63 -215
272 -373 131 -99 177 -141 196 -177 26 -51 -5 -89 -196 -233 -141 -106 -215
-181 -247 -251 -23 -51 -25 -65 -21 -148 5 -85 11 -104 81 -281 81 -202 98
-265 77 -289 -18 -23 -99 -42 -271 -65 -243 -33 -310 -55 -382 -128 -74 -73
-94 -134 -132 -407 -14 -102 -32 -194 -42 -215 -17 -35 -20 -36 -66 -33 -32 1
-101 23 -195 61 -205 82 -271 101 -356 101 -131 0 -212 -59 -371 -270 -99
-131 -141 -177 -177 -196 -51 -26 -89 5 -233 196 -159 211 -243 272 -374 271
-86 0 -135 -14 -336 -96 -169 -68 -236 -85 -260 -65 -22 18 -41 100 -64 271
-32 238 -57 312 -127 383 -71 70 -145 95 -383 127 -172 23 -253 42 -271 65
-20 23 -5 83 69 267 84 208 94 243 93 329 0 130 -63 215 -272 373 -131 99
-177 141 -196 177 -26 51 5 89 196 233 209 158 272 243 272 373 1 86 -9 121
-93 329 -74 184 -89 244 -69 267 18 23 101 43 270 65 239 32 315 57 385 126
69 70 94 146 126 385 22 169 42 252 65 270 23 20 86 4 244 -59 203 -82 269
-101 354 -101 127 0 214 61 356 250 95 127 150 190 184 211 37 23 31 22 65 5z"/>
<path d="M1179 3102 c-69 -34 -69 -34 -69 -532 0 -266 4 -459 10 -481 6 -20
18 -44 29 -53 47 -43 126 -35 165 17 20 27 21 44 26 318 l5 289 227 -303 c236
-314 258 -341 296 -350 35 -8 89 11 112 40 20 25 20 37 20 514 l0 487 -31 31
c-46 46 -107 46 -154 0 l-30 -29 -5 -297 -5 -296 -237 316 c-131 174 -245 320
-255 325 -39 20 -70 21 -104 4z"/>
<path d="M2313 3113 c-13 -2 -36 -18 -53 -34 l-30 -31 0 -241 c-2 -615 1 -729
15 -749 35 -50 47 -53 280 -56 121 -2 239 -1 262 3 96 14 138 118 74 183 -39
38 -62 42 -252 42 l-159 0 0 109 0 110 191 3 191 3 29 33 c40 45 40 99 0 144
l-29 33 -191 3 -191 3 0 110 0 109 159 0 c190 0 213 4 252 42 23 24 29 38 29
73 0 35 -6 49 -29 73 -17 16 -44 32 -62 36 -34 7 -450 6 -486 -1z"/>
<path d="M4071 3104 c-44 -18 -58 -56 -127 -336 -32 -131 -61 -238 -64 -238
-3 0 -27 65 -53 144 -26 80 -57 156 -68 170 -37 48 -134 51 -171 6 -9 -11 -40
-91 -69 -178 l-53 -157 -62 248 c-69 279 -77 300 -112 327 -35 28 -103 27
-137 -3 -49 -42 -46 -64 74 -547 61 -245 118 -459 127 -476 15 -29 35 -44 76
-57 26 -9 86 12 103 35 8 12 40 99 71 192 31 94 59 174 63 178 4 4 33 -71 64
-166 32 -96 67 -186 78 -200 43 -55 136 -50 174 8 27 40 248 934 241 972 -12
64 -93 104 -155 78z"/>
</g>
</svg>
