<svg width="36" height="36" viewBox="0 0 36 36" fill="none" xmlns="http://www.w3.org/2000/svg">
  <path d="M12.1557 3.62766C12.1557 5.51766 12.361 18.427 12.361 18.427C12.361 19.4536 12.3891 19.6448 12.0123 19.3608C11.6354 19.0767 11.2641 17.9911 8.58664 17.2711C6.58414 16.7311 4.06976 17.5552 3.42008 18.7758C3.13039 19.3186 3.08258 20.438 4.01914 20.8542C4.91633 21.2536 6.72195 21.2958 8.22945 22.4405C10.0745 23.8411 10.1448 25.0027 11.3316 27.1655C12.2766 28.8923 14.5941 30.2227 15.092 31.1789C15.4548 31.8708 15.4379 32.7595 15.3985 33.6483C15.3844 33.9886 15.6095 34.2952 15.9413 34.3767C16.7345 34.5764 18.3938 34.8773 21.1641 34.8773C23.9007 34.8773 25.5516 34.5849 26.3588 34.3852C26.702 34.3008 26.9326 33.9802 26.8988 33.6286C26.8116 32.6892 26.6851 31.688 26.9607 30.9764C27.3376 29.9977 28.5835 28.6364 29.5988 26.9208C31.9754 22.9045 31.711 18.6858 31.5085 16.267C31.3538 14.3967 30.1895 12.0455 28.651 11.6939C27.8635 11.5139 27.3095 11.7164 26.7329 12.1945C26.5979 12.3042 26.3954 12.2086 26.342 12.0427C26.1113 11.3283 25.622 10.2258 24.1623 10.1302C22.967 10.0514 22.4607 10.7517 22.0388 11.1314C21.9123 11.2439 21.7801 11.1511 21.7238 10.9908C21.4904 10.3074 20.6354 9.11766 19.3276 9.15985C17.8173 9.20766 17.2463 10.358 16.9791 11.2017C16.9313 11.3536 16.5854 10.3355 16.5741 10.1752C16.5741 10.1752 16.2451 5.99016 15.947 4.19016C15.6657 2.48298 15.2129 0.8911 13.5563 1.18079C12.8616 1.29329 12.1557 1.73485 12.1557 3.62766Z" fill="#FFCA28"/>
  <path d="M16.605 14.8975C17.0466 14.2619 17.8004 13.0666 19.1504 13.0019C20.4525 12.94 20.9222 13.9919 21.5804 14.1072C22.4776 14.2619 22.5816 13.6235 23.8275 13.691C25.0229 13.7557 25.2563 14.5629 26.1 14.6782C26.6372 14.7513 27.1125 14.1719 28.4119 14.276C28.9519 14.3182 30.0741 14.861 30.4904 15.8735C30.7941 16.616 31.3707 15.2688 31.2582 14.875C30.8925 13.5982 30.0882 12.0457 28.6847 11.6969L28.6454 11.6885C27.8579 11.5085 27.3038 11.711 26.7272 12.1891C26.5922 12.2988 26.3897 12.2032 26.3363 12.0372C26.1057 11.3229 25.6163 10.2204 24.1566 10.1247C22.9613 10.046 22.455 10.7463 22.0332 11.126C21.9066 11.2385 21.7744 11.1457 21.7182 10.9854C21.4847 10.3019 20.6297 9.11223 19.3219 9.15441C17.8116 9.20223 17.2407 10.3525 16.9735 11.1963C16.9622 11.2525 16.4194 14.1635 16.605 14.8975Z" fill="#FFB300"/>
  <path d="M12.0656 19.6062C11.6268 19.7103 11.2612 19.3024 11.0306 19.0971C10.3134 18.4503 9.4781 18.0396 8.85653 17.8259C6.58403 17.0468 4.85435 17.7612 3.88403 18.1915C3.88403 18.1915 5.9456 16.0203 9.32341 16.8527C10.4625 17.134 11.2697 17.6599 11.9925 18.3377C12.5972 18.9031 12.4734 19.5106 12.0656 19.6062ZM31.5084 16.2621C31.379 14.7124 30.6422 12.8871 29.5284 12.0828C29.4159 12.0012 29.2781 12.1418 29.3681 12.2487C29.8462 12.8224 30.4678 13.939 30.5915 15.9696C30.884 20.7734 30.4706 23.7996 28.8787 26.4884C28.44 27.2281 27.9478 27.9143 27.5118 28.5218C26.9297 29.3318 26.5781 29.8521 26.3559 30.5018C25.7512 32.2737 26.9015 33.6237 26.9015 33.6237C26.8143 32.6843 26.6878 31.6831 26.9634 30.9715C27.3403 29.9928 28.5862 28.6315 29.6015 26.9159C31.9781 22.9024 31.7109 18.6837 31.5084 16.2621ZM17.2237 12.6959C17.3222 14.3524 16.619 15.0921 16.619 15.0921C16.619 15.0921 16.3659 14.6646 16.1128 12.8702C16.1128 12.8702 15.4997 4.35119 15.345 3.03494C15.1509 1.36994 13.9134 1.1365 13.9134 1.1365C13.9134 1.1365 15.8343 0.827125 16.214 3.17556C16.5009 4.92775 17.1253 11.0393 17.2237 12.6959ZM25.5853 13.6521C25.5347 14.3271 25.709 14.6084 26.0859 14.6787C26.4628 14.749 26.6428 14.3412 26.6175 13.5734C26.5584 11.6328 25.754 10.3053 24.5334 10.1899C24.5334 10.1899 25.7906 10.8931 25.5853 13.6521ZM21.0037 13.0953C20.9812 13.7028 21.209 14.0515 21.6478 14.0993C22.0865 14.1471 22.2384 13.6746 22.2328 13.2218C22.2075 11.2727 21.2203 9.28431 19.6903 9.17744C19.6903 9.17744 21.1275 9.92275 21.0037 13.0953Z" fill="#EDA600"/>
</svg>