<svg width="36" height="36" viewBox="0 0 36 36" fill="none" xmlns="http://www.w3.org/2000/svg">
<g id="noto:backhand-index-pointing-up">
<path id="Vector" d="M12.1556 3.62766C12.1556 5.51766 12.3609 18.427 12.3609 18.427C12.3609 19.4536 12.3891 19.6448 12.0122 19.3608C11.6353 19.0767 11.2641 17.9911 8.58656 17.2711C6.58406 16.7311 4.06969 17.5552 3.42 18.7758C3.13031 19.3186 3.0825 20.438 4.01906 20.8542C4.91625 21.2536 6.72187 21.2958 8.22937 22.4405C10.0744 23.8411 10.1447 25.0027 11.3316 27.1655C12.2766 28.8923 14.5941 30.2227 15.0919 31.1789C15.4547 31.8708 15.4378 32.7595 15.3984 33.6483C15.3844 33.9886 15.6094 34.2952 15.9412 34.3767C16.7344 34.5764 18.3937 34.8773 21.1641 34.8773C23.9006 34.8773 25.5516 34.5849 26.3587 34.3852C26.7019 34.3008 26.9325 33.9802 26.8987 33.6286C26.8116 32.6892 26.685 31.688 26.9606 30.9764C27.3375 29.9977 28.5834 28.6364 29.5987 26.9208C31.9753 22.9045 31.7109 18.6858 31.5084 16.267C31.3537 14.3967 30.1894 12.0455 28.6509 11.6939C27.8634 11.5139 27.3094 11.7164 26.7328 12.1945C26.5978 12.3042 26.3953 12.2086 26.3419 12.0427C26.1112 11.3283 25.6219 10.2258 24.1622 10.1302C22.9669 10.0514 22.4606 10.7517 22.0387 11.1314C21.9122 11.2439 21.78 11.1511 21.7237 10.9908C21.4903 10.3074 20.6353 9.11766 19.3275 9.15985C17.8172 9.20766 17.2462 10.358 16.9791 11.2017C16.9312 11.3536 16.5853 10.3355 16.5741 10.1752C16.5741 10.1752 16.245 5.99016 15.9469 4.19016C15.6656 2.48298 15.2128 0.8911 13.5562 1.18079C12.8616 1.29329 12.1556 1.73485 12.1556 3.62766Z" fill="#FFCA28"/>
<path id="Vector_2" d="M16.605 14.8985C17.0466 14.2629 17.8003 13.0676 19.1503 13.0029C20.4525 12.941 20.9222 13.9929 21.5803 14.1082C22.4775 14.2629 22.5816 13.6245 23.8275 13.692C25.0228 13.7566 25.2563 14.5638 26.1 14.6791C26.6372 14.7523 27.1125 14.1729 28.4119 14.277C28.9519 14.3191 30.0741 14.862 30.4903 15.8745C30.7941 16.617 31.3706 15.2698 31.2581 14.876C30.8925 13.5991 30.0881 12.0466 28.6847 11.6979L28.6453 11.6895C27.8578 11.5095 27.3038 11.712 26.7272 12.1901C26.5922 12.2998 26.3897 12.2041 26.3363 12.0382C26.1056 11.3238 25.6163 10.2213 24.1566 10.1257C22.9613 10.047 22.455 10.7473 22.0331 11.127C21.9066 11.2395 21.7744 11.1466 21.7181 10.9863C21.4847 10.3029 20.6297 9.1132 19.3219 9.15539C17.8116 9.2032 17.2406 10.3535 16.9734 11.1973C16.9622 11.2535 16.4194 14.1645 16.605 14.8985Z" fill="#FFB300"/>
<path id="Vector_3" d="M12.0656 19.6062C11.6269 19.7103 11.2613 19.3024 11.0306 19.0971C10.3134 18.4503 9.47813 18.0396 8.85656 17.8259C6.58406 17.0468 4.85438 17.7612 3.88406 18.1915C3.88406 18.1915 5.94563 16.0203 9.32344 16.8527C10.4625 17.134 11.2697 17.6599 11.9925 18.3377C12.5972 18.9031 12.4734 19.5106 12.0656 19.6062ZM31.5084 16.2621C31.3791 14.7124 30.6422 12.8871 29.5284 12.0828C29.4159 12.0012 29.2781 12.1418 29.3681 12.2487C29.8463 12.8224 30.4678 13.939 30.5916 15.9696C30.8841 20.7734 30.4706 23.7996 28.8788 26.4884C28.44 27.2281 27.9478 27.9143 27.5119 28.5218C26.9297 29.3318 26.5781 29.8521 26.3559 30.5018C25.7513 32.2737 26.9016 33.6237 26.9016 33.6237C26.8144 32.6843 26.6878 31.6831 26.9634 30.9715C27.3403 29.9928 28.5863 28.6315 29.6016 26.9159C31.9781 22.9024 31.7109 18.6837 31.5084 16.2621ZM17.2238 12.6959C17.3222 14.3524 16.6191 15.0921 16.6191 15.0921C16.6191 15.0921 16.3659 14.6646 16.1128 12.8702C16.1128 12.8702 15.4997 4.35119 15.345 3.03494C15.1509 1.36994 13.9134 1.1365 13.9134 1.1365C13.9134 1.1365 15.8344 0.827125 16.2141 3.17556C16.5009 4.92775 17.1253 11.0393 17.2238 12.6959ZM25.5853 13.6521C25.5347 14.3271 25.7091 14.6084 26.0859 14.6787C26.4628 14.749 26.6428 14.3412 26.6175 13.5734C26.5584 11.6328 25.7541 10.3053 24.5334 10.1899C24.5334 10.1899 25.7906 10.8931 25.5853 13.6521ZM21.0038 13.0953C20.9813 13.7028 21.2091 14.0515 21.6478 14.0993C22.0866 14.1471 22.2384 13.6746 22.2328 13.2218C22.2075 11.2727 21.2203 9.28431 19.6903 9.17744C19.6903 9.17744 21.1275 9.92275 21.0038 13.0953Z" fill="#EDA600"/>
</g>
</svg>
