<svg width="36" height="36" viewBox="0 0 36 36" fill="none" xmlns="http://www.w3.org/2000/svg">
<g id="icons / pdf">
<path id="Vector" d="M27.1129 2.33105L33.3724 8.85605V33.6691H9.98926V33.7501H33.4523V8.93818L27.1129 2.33105Z" fill="#909090"/>
<path id="Vector_2" d="M27.0351 2.25H9.90918V33.669H33.3722V8.85713L27.0351 2.25Z" fill="#F4F4F4"/>
<path id="Vector_3" d="M9.7366 3.9375H2.54785V11.6179H25.1604V3.9375H9.7366Z" fill="#7A7B7C"/>
<path id="Vector_4" d="M25.281 11.4878H2.69434V3.80176H25.281V11.4878Z" fill="#DD2025"/>
<path id="Vector_5" d="M10.1833 5.10102H8.71289V10.501H9.86939V8.67964L10.1248 8.69427C10.3729 8.69 10.6187 8.64555 10.8526 8.56264C11.0577 8.4921 11.2464 8.38074 11.4073 8.23527C11.571 8.09669 11.7 7.92179 11.7841 7.72452C11.897 7.39658 11.9373 7.04805 11.9023 6.70302C11.8952 6.45654 11.852 6.21243 11.774 5.97852C11.703 5.80966 11.5976 5.65744 11.4645 5.53155C11.3315 5.40565 11.1737 5.30884 11.0011 5.24727C10.852 5.19327 10.6979 5.15408 10.541 5.13027C10.4222 5.11194 10.3023 5.10217 10.1821 5.10102M9.96952 7.68177H9.86939V6.01677H10.0865C10.1823 6.00986 10.2785 6.02457 10.3679 6.05981C10.4573 6.09506 10.5376 6.14994 10.6029 6.22039C10.7382 6.40154 10.8106 6.62202 10.8088 6.84814C10.8088 7.12489 10.8088 7.37577 10.559 7.55239C10.3791 7.65135 10.1743 7.69703 9.96952 7.68177ZM14.0994 5.08639C13.9745 5.08639 13.853 5.09539 13.7675 5.09877L13.4998 5.10552H12.6223V10.5055H13.655C14.0497 10.5163 14.4426 10.4494 14.8115 10.3086C15.1084 10.1909 15.3713 10.001 15.5765 9.75627C15.776 9.50928 15.9193 9.22171 15.9961 8.91364C16.0845 8.56475 16.1276 8.20592 16.1244 7.84602C16.1462 7.42095 16.1133 6.99483 16.0265 6.57814C15.9441 6.27143 15.7899 5.98875 15.5765 5.75352C15.4091 5.56358 15.2042 5.41036 14.9746 5.30352C14.7775 5.2123 14.5702 5.14507 14.357 5.10327C14.2723 5.08927 14.1864 5.08287 14.1005 5.08414M13.8958 9.51327H13.7833V6.06627H13.7979C14.0298 6.03958 14.2645 6.08143 14.4729 6.18664C14.6255 6.30851 14.7499 6.46204 14.8374 6.63664C14.9318 6.8204 14.9863 7.02207 14.9971 7.22839C15.0073 7.47589 14.9971 7.67839 14.9971 7.84602C15.0017 8.03911 14.9893 8.23223 14.96 8.42314C14.9253 8.61915 14.8612 8.80879 14.7699 8.98564C14.6665 9.15007 14.5268 9.28861 14.3615 9.39064C14.2227 9.48042 14.0584 9.5223 13.8935 9.50989M19.6085 5.10552H16.8748V10.5055H18.0313V8.36352H19.4938V7.36002H18.0313V6.10902H19.6063V5.10552" fill="#464648"/>
<path id="Vector_6" d="M24.5038 22.7872C24.5038 22.7872 28.0903 22.1369 28.0903 23.3621C28.0903 24.5872 25.8684 24.0888 24.5038 22.7872ZM21.8521 22.8806C21.2823 23.0065 20.727 23.1908 20.195 23.4307L20.645 22.4182C21.095 21.4057 21.5619 20.0253 21.5619 20.0253C22.0989 20.9291 22.7236 21.7777 23.4271 22.5588C22.8966 22.6379 22.3708 22.7461 21.8521 22.8828V22.8806ZM20.4324 15.5681C20.4324 14.5004 20.7778 14.2091 21.0466 14.2091C21.3155 14.2091 21.6181 14.3384 21.6283 15.2654C21.5407 16.1976 21.3455 17.1164 21.0466 18.0037C20.6373 17.2588 20.4254 16.4214 20.4313 15.5714L20.4324 15.5681ZM15.2023 27.3986C14.102 26.7404 17.5096 24.7143 18.1273 24.6491C18.1239 24.6502 16.3543 28.0871 15.2023 27.3986ZM29.1376 23.5072C29.1264 23.3947 29.0251 22.1493 26.8089 22.2022C25.8851 22.1873 24.9618 22.2524 24.0493 22.3968C23.1653 21.5063 22.4041 20.5018 21.7858 19.4099C22.1753 18.2843 22.4111 17.1112 22.4866 15.9224C22.454 14.5724 22.1311 13.7984 21.0961 13.8097C20.0611 13.8209 19.9104 14.7266 20.0465 16.0743C20.1799 16.98 20.4314 17.8643 20.7946 18.7046C20.7946 18.7046 20.3165 20.1929 19.6843 21.6734C19.052 23.1539 18.62 23.9302 18.62 23.9302C17.5206 24.2881 16.4856 24.8198 15.5544 25.5052C14.6274 26.3681 14.2505 27.0307 14.7388 27.6933C15.1595 28.2648 16.6321 28.3942 17.9484 26.6696C18.6478 25.7788 19.2867 24.8422 19.8609 23.8661C19.8609 23.8661 21.8679 23.3159 22.4923 23.1652C23.1166 23.0144 23.8715 22.8952 23.8715 22.8952C23.8715 22.8952 25.7041 24.7391 27.4715 24.6738C29.2389 24.6086 29.1534 23.6174 29.1421 23.5094" fill="#DD2025"/>
<path id="Vector_7" d="M26.9482 2.33691V8.94404H33.2854L26.9482 2.33691Z" fill="#909090"/>
<path id="Vector_8" d="M27.0352 2.25V8.85713H33.3723L27.0352 2.25Z" fill="#F4F4F4"/>
<path id="Vector_9" d="M10.0973 5.0141H8.62695V10.4141H9.78795V8.59385L10.0445 8.60848C10.2926 8.60421 10.5384 8.55976 10.7723 8.47685C10.9774 8.40629 11.1661 8.29492 11.327 8.14948C11.4894 8.01053 11.6173 7.83566 11.7005 7.63873C11.8133 7.31079 11.8536 6.96227 11.8186 6.61723C11.8116 6.37075 11.7683 6.12664 11.6903 5.89273C11.6193 5.72387 11.5139 5.57166 11.3809 5.44576C11.2478 5.31986 11.09 5.22305 10.9175 5.16148C10.7676 5.10695 10.6127 5.06738 10.4551 5.04335C10.3363 5.02503 10.2164 5.01525 10.0962 5.0141M9.88358 7.59485H9.78345V5.92985H10.0017C10.0975 5.92294 10.1937 5.93766 10.2831 5.9729C10.3724 6.00815 10.4528 6.06302 10.5181 6.13348C10.6534 6.31462 10.7257 6.53511 10.724 6.76123C10.724 7.03798 10.724 7.28885 10.4742 7.46548C10.2943 7.56444 10.0895 7.609 9.8847 7.59373M14.0135 4.99948C13.8886 4.99948 13.7671 5.00848 13.6816 5.01185L13.4172 5.0186H12.5397V10.4186H13.5725C13.9671 10.4294 14.3601 10.3625 14.729 10.2217C15.0259 10.104 15.2888 9.91413 15.494 9.66935C15.6935 9.42237 15.8367 9.1348 15.9136 8.82673C16.002 8.47783 16.0451 8.11901 16.0418 7.7591C16.0636 7.33403 16.0308 6.90792 15.944 6.49123C15.8616 6.18451 15.7073 5.90183 15.494 5.6666C15.3265 5.47666 15.1216 5.32345 14.8921 5.2166C14.695 5.12539 14.4876 5.05816 14.2745 5.01635C14.1897 5.00235 14.1039 4.99595 14.018 4.99723M13.8132 9.42635H13.7007V5.97935H13.7153C13.9473 5.95267 14.1819 5.99452 14.3903 6.09973C14.5429 6.2216 14.6673 6.37513 14.7548 6.54973C14.8493 6.73348 14.9037 6.93516 14.9146 7.14148C14.9247 7.38898 14.9146 7.59148 14.9146 7.7591C14.9192 7.9522 14.9067 8.14532 14.8775 8.33623C14.8428 8.53224 14.7787 8.72188 14.6873 8.89873C14.5839 9.06315 14.4442 9.2017 14.279 9.30373C14.1402 9.3935 13.9758 9.43538 13.811 9.42298M19.5226 5.0186H16.7888V10.4186H17.9453V8.2766H19.4078V7.2731H17.9453V6.0221H19.5203V5.0186" fill="white"/>
</g>
</svg>
