<svg width="20" height="20" viewBox="0 0 20 20" fill="none" xmlns="http://www.w3.org/2000/svg">
<g id="ph:certificate-light">
<path id="Vector" d="M19.1667 9.36164C19.1672 8.65207 19.0014 7.95334 18.6839 7.32751C18.3664 6.70168 17.9071 6.16812 17.3467 5.77423C16.7863 5.38035 16.1422 5.13832 15.4716 5.06966C14.801 5.001 14.1247 5.10783 13.5028 5.38066C12.8809 5.65349 12.3325 6.08387 11.9065 6.63358C11.4805 7.18328 11.19 7.83529 11.0608 8.53168C10.9316 9.22808 10.9677 9.9473 11.1659 10.6255C11.3641 11.3036 11.7183 11.9197 12.197 12.4191V17.0211C12.1969 17.1027 12.2167 17.183 12.2544 17.2542C12.2921 17.3255 12.3465 17.3855 12.4124 17.4284C12.4782 17.4713 12.5535 17.4958 12.6308 17.4995C12.7082 17.5032 12.7852 17.486 12.8545 17.4496L15.0758 16.2799L17.297 17.4496C17.36 17.4827 17.4295 17.4999 17.5 17.4999C17.5844 17.5 17.6671 17.4751 17.7386 17.428C17.8046 17.3852 17.859 17.3254 17.8968 17.2541C17.9346 17.1829 17.9545 17.1027 17.9545 17.0211V12.4191C18.3387 12.0193 18.6437 11.5432 18.8518 11.0184C19.0599 10.4935 19.1669 9.9304 19.1667 9.36164ZM11.8939 9.36164C11.8939 8.69886 12.0805 8.05098 12.4302 7.4999C12.7798 6.94883 13.2767 6.51932 13.8581 6.26569C14.4395 6.01206 15.0793 5.94569 15.6965 6.07499C16.3137 6.20429 16.8807 6.52345 17.3256 6.9921C17.7706 7.46075 18.0737 8.05785 18.1964 8.70788C18.3192 9.35792 18.2562 10.0317 18.0154 10.644C17.7745 11.2563 17.3667 11.7797 16.8435 12.1479C16.3202 12.5161 15.7051 12.7127 15.0758 12.7127C14.2319 12.7127 13.4226 12.3596 12.8259 11.7312C12.2292 11.1027 11.8939 10.2504 11.8939 9.36164ZM17.0455 16.2464L15.2788 15.3161C15.2157 15.2829 15.1462 15.2657 15.0758 15.2657C15.0053 15.2657 14.9358 15.2829 14.8727 15.3161L13.1061 16.2464V13.1347C13.7093 13.4849 14.3869 13.6685 15.0758 13.6685C15.7646 13.6685 16.4422 13.4849 17.0455 13.1347V16.2464ZM10.6818 14.468C10.6818 14.5949 10.6339 14.7167 10.5487 14.8065C10.4634 14.8963 10.3478 14.9467 10.2273 14.9467H3.56061C3.27932 14.9467 3.00955 14.829 2.81064 14.6195C2.61174 14.41 2.5 14.1259 2.5 13.8297V3.61701C2.5 3.32076 2.61174 3.03664 2.81064 2.82716C3.00955 2.61768 3.27932 2.5 3.56061 2.5H16.8939C17.1752 2.5 17.445 2.61768 17.6439 2.82716C17.8428 3.03664 17.9545 3.32076 17.9545 3.61701C17.9545 3.74397 17.9067 3.86574 17.8214 3.95552C17.7362 4.04529 17.6206 4.09573 17.5 4.09573C17.3794 4.09573 17.2638 4.04529 17.1786 3.95552C17.0933 3.86574 17.0455 3.74397 17.0455 3.61701C17.0455 3.57469 17.0295 3.5341 17.0011 3.50418C16.9727 3.47425 16.9341 3.45744 16.8939 3.45744H3.56061C3.52042 3.45744 3.48188 3.47425 3.45347 3.50418C3.42505 3.5341 3.40909 3.57469 3.40909 3.61701V13.8297C3.40909 13.872 3.42505 13.9126 3.45347 13.9425C3.48188 13.9724 3.52042 13.9893 3.56061 13.9893H10.2273C10.3478 13.9893 10.4634 14.0397 10.5487 14.1295C10.6339 14.2192 10.6818 14.341 10.6818 14.468ZM9.4697 9.99993C9.4697 10.1269 9.42181 10.2487 9.33656 10.3384C9.25132 10.4282 9.1357 10.4786 9.01515 10.4786H5.98485C5.8643 10.4786 5.74868 10.4282 5.66344 10.3384C5.57819 10.2487 5.5303 10.1269 5.5303 9.99993C5.5303 9.87296 5.57819 9.7512 5.66344 9.66142C5.74868 9.57165 5.8643 9.52121 5.98485 9.52121H9.01515C9.1357 9.52121 9.25132 9.57165 9.33656 9.66142C9.42181 9.7512 9.4697 9.87296 9.4697 9.99993ZM9.4697 7.44676C9.4697 7.57373 9.42181 7.69549 9.33656 7.78527C9.25132 7.87504 9.1357 7.92548 9.01515 7.92548H5.98485C5.8643 7.92548 5.74868 7.87504 5.66344 7.78527C5.57819 7.69549 5.5303 7.57373 5.5303 7.44676C5.5303 7.3198 5.57819 7.19803 5.66344 7.10826C5.74868 7.01848 5.8643 6.96804 5.98485 6.96804H9.01515C9.1357 6.96804 9.25132 7.01848 9.33656 7.10826C9.42181 7.19803 9.4697 7.3198 9.4697 7.44676Z" fill="#8C7459"/>
</g>
</svg>
