<svg width="24" height="24" viewBox="0 0 24 24" fill="none" xmlns="http://www.w3.org/2000/svg">
<g id="ph:dna-light">
<path id="Vector" d="M18.5626 19.1719V21.75C18.5626 21.8992 18.5033 22.0423 18.3978 22.1477C18.2923 22.2532 18.1492 22.3125 18.0001 22.3125C17.8509 22.3125 17.7078 22.2532 17.6023 22.1477C17.4968 22.0423 17.4376 21.8992 17.4376 21.75V19.1719C17.4409 18.0225 17.1223 16.8952 16.5179 15.9176C15.9134 14.94 15.0473 14.1512 14.0176 13.6406L9.48005 11.3719C8.2619 10.7681 7.2374 9.83487 6.52285 8.6782C5.8083 7.52153 5.43231 6.1877 5.43755 4.82812V2.25C5.43755 2.10082 5.49682 1.95774 5.60231 1.85225C5.7078 1.74676 5.85087 1.6875 6.00005 1.6875C6.14924 1.6875 6.29231 1.74676 6.3978 1.85225C6.50329 1.95774 6.56255 2.10082 6.56255 2.25V4.82812C6.55918 5.97749 6.87777 7.10483 7.48222 8.08242C8.08667 9.06001 8.95282 9.84878 9.98255 10.3594L14.5201 12.6281C15.7382 13.2319 16.7627 14.1651 17.4773 15.3218C18.1918 16.4785 18.5678 17.8123 18.5626 19.1719ZM15.0001 18.9375H6.56724C6.59283 18.2971 6.71775 17.6645 6.93755 17.0625H13.8872C14.0364 17.0625 14.1795 17.0032 14.285 16.8977C14.3905 16.7923 14.4497 16.6492 14.4497 16.5C14.4497 16.3508 14.3905 16.2077 14.285 16.1023C14.1795 15.9968 14.0364 15.9375 13.8872 15.9375H7.47849C7.89599 15.2543 8.44238 14.6589 9.08724 14.1844C9.20353 14.0947 9.28013 13.963 9.30065 13.8176C9.32117 13.6722 9.284 13.5245 9.19708 13.4061C9.11015 13.2877 8.98037 13.208 8.83547 13.184C8.69057 13.1601 8.54203 13.1937 8.42162 13.2778C7.49806 13.9586 6.747 14.8464 6.22875 15.87C5.71051 16.8937 5.43952 18.0245 5.43755 19.1719V21.75C5.43755 21.8992 5.49682 22.0423 5.60231 22.1477C5.7078 22.2532 5.85087 22.3125 6.00005 22.3125C6.14924 22.3125 6.29231 22.2532 6.3978 22.1477C6.50329 22.0423 6.56255 21.8992 6.56255 21.75V20.0625H15.0001C15.1492 20.0625 15.2923 20.0032 15.3978 19.8977C15.5033 19.7923 15.5626 19.6492 15.5626 19.5C15.5626 19.3508 15.5033 19.2077 15.3978 19.1023C15.2923 18.9968 15.1492 18.9375 15.0001 18.9375ZM18.0001 1.6875C17.8509 1.6875 17.7078 1.74676 17.6023 1.85225C17.4968 1.95774 17.4376 2.10082 17.4376 2.25V3.9375H9.00005C8.85087 3.9375 8.7078 3.99676 8.60231 4.10225C8.49682 4.20774 8.43755 4.35082 8.43755 4.5C8.43755 4.64918 8.49682 4.79226 8.60231 4.89775C8.7078 5.00324 8.85087 5.0625 9.00005 5.0625H17.4376C17.4105 5.70316 17.284 6.33571 17.0626 6.9375H10.1147C9.96556 6.9375 9.82248 6.99676 9.71699 7.10225C9.61151 7.20774 9.55224 7.35082 9.55224 7.5C9.55224 7.64918 9.61151 7.79226 9.71699 7.89775C9.82248 8.00324 9.96556 8.0625 10.1147 8.0625H16.5216C16.1041 8.74567 15.5577 9.3411 14.9129 9.81562C14.7966 9.90533 14.72 10.037 14.6995 10.1824C14.6789 10.3278 14.7161 10.4755 14.803 10.5939C14.89 10.7123 15.0197 10.792 15.1646 10.816C15.3095 10.8399 15.4581 10.8063 15.5785 10.7222C16.5021 10.0414 17.2531 9.1536 17.7714 8.12998C18.2896 7.10635 18.5606 5.97546 18.5626 4.82812V2.25C18.5626 2.10082 18.5033 1.95774 18.3978 1.85225C18.2923 1.74676 18.1492 1.6875 18.0001 1.6875Z" fill="#CED2D2"/>
</g>
</svg>
