<svg width="24" height="24" viewBox="0 0 24 24" fill="none" xmlns="http://www.w3.org/2000/svg">
<g id="icon-park:phone-call">
<g id="Group">
<path id="Vector" d="M20.8899 10.3033C21.0163 9.4554 20.9749 8.58735 20.7656 7.7527C20.4891 6.6501 19.9197 5.6059 19.0575 4.74365C18.1952 3.88141 17.151 3.31205 16.0485 3.03558C15.2138 2.82629 14.3457 2.78484 13.4978 2.91123" stroke="white" stroke-width="2" stroke-linecap="round" stroke-linejoin="round"/>
<path id="Vector_2" d="M17.0948 9.90173C17.2302 8.99343 16.9483 8.03493 16.2491 7.33573C15.5499 6.63653 14.5914 6.35458 13.6831 6.48998" stroke="white" stroke-width="2" stroke-linecap="round" stroke-linejoin="round"/>
<path id="Vector_3" d="M8.93645 4.42616L8.93649 4.42624L10.1597 6.62964L10.1597 6.62966C10.48 7.20659 10.4951 7.90447 10.1999 8.49482C10.1999 8.49484 10.1999 8.49486 10.1999 8.49488L9.19061 10.5134C9.23631 10.6598 9.30292 10.8502 9.39598 11.0678C9.62547 11.6046 10.0048 12.2821 10.6049 12.8822C11.2049 13.4822 11.8807 13.8599 12.4153 14.0878C12.6319 14.18 12.8212 14.246 12.9668 14.2912L14.986 13.2816C15.5767 12.9861 16.2752 13.0015 16.8523 13.3223L16.8524 13.3223L19.0619 14.5508C19.6967 14.9036 20.0902 15.5728 20.0902 16.2989V18.8356C20.0902 20.7526 18.2736 22.2453 16.3464 21.595C13.8116 20.7397 9.71713 19.0656 7.06938 16.4178C7.06938 16.4178 7.06937 16.4178 7.06937 16.4178M8.93645 4.42616L8.06218 4.9116C7.88583 4.594 7.55113 4.39697 7.18788 4.39697H4.65153C3.3597 4.39697 2.42666 5.5969 2.83967 6.82095C3.68793 9.3349 5.30303 13.2373 7.77648 15.7107L7.06937 16.4178M8.93645 4.42616C8.58381 3.79106 7.91447 3.39697 7.18788 3.39697H4.65153C2.73456 3.39697 1.24192 5.21356 1.89216 7.14066L1.89216 7.14066C2.74747 9.67552 4.42157 13.77 7.06937 16.4178M8.93645 4.42616L7.06937 16.4178" fill="#2F88FF" stroke="white" stroke-width="2" stroke-linejoin="round"/>
</g>
</g>
</svg>
