<svg width="20" height="20" viewBox="0 0 20 20" fill="none" xmlns="http://www.w3.org/2000/svg">
<path id="Vector" d="M13.8574 13.7692L19 18.9118M8.36368 0.910919C6.9073 0.910919 5.48362 1.34279 4.27269 2.15191C3.06175 2.96103 2.11794 4.11107 1.56061 5.45659C1.00327 6.80211 0.857451 8.28268 1.14158 9.71108C1.4257 11.1395 2.12702 12.4515 3.15683 13.4814C4.18665 14.5112 5.49872 15.2125 6.92712 15.4966C8.35551 15.7807 9.83609 15.6349 11.1816 15.0776C12.5271 14.5203 13.6772 13.5764 14.4863 12.3655C15.2954 11.1546 15.7273 9.73089 15.7273 8.27451C15.7271 6.3216 14.9513 4.44872 13.5704 3.0678C12.1895 1.68689 10.3166 0.911043 8.36368 0.910919Z" stroke="#CED2D2" stroke-miterlimit="10" stroke-linecap="round"/>
</svg>
