<svg width="24" height="24" viewBox="0 0 24 24" fill="none" xmlns="http://www.w3.org/2000/svg">
<g id="icons / sort-outline">
<path id="Vector" d="M13.4699 7.52995C13.6105 7.6704 13.8012 7.74929 13.9999 7.74929C14.1987 7.74929 14.3893 7.6704 14.5299 7.52995L15.2499 6.80995V17C15.2499 17.1989 15.3289 17.3896 15.4696 17.5303C15.6102 17.6709 15.801 17.75 15.9999 17.75C16.1988 17.75 16.3896 17.6709 16.5302 17.5303C16.6709 17.3896 16.7499 17.1989 16.7499 17V6.80995L17.4699 7.52995C17.5386 7.60364 17.6214 7.66274 17.7134 7.70373C17.8054 7.74472 17.9047 7.76677 18.0054 7.76854C18.1061 7.77032 18.2061 7.75179 18.2995 7.71407C18.3929 7.67635 18.4777 7.62021 18.5489 7.54899C18.6202 7.47777 18.6763 7.39294 18.714 7.29955C18.7518 7.20616 18.7703 7.10613 18.7685 7.00543C18.7667 6.90473 18.7447 6.80541 18.7037 6.71341C18.6627 6.62141 18.6036 6.53861 18.5299 6.46995L16.5299 4.46995C16.3893 4.3295 16.1987 4.25061 15.9999 4.25061C15.8012 4.25061 15.6105 4.3295 15.4699 4.46995L13.4699 6.46995C13.3295 6.61058 13.2506 6.8012 13.2506 6.99995C13.2506 7.1987 13.3295 7.38933 13.4699 7.52995ZM8.74991 17.19L9.46991 16.4699C9.53857 16.3963 9.62137 16.3372 9.71337 16.2962C9.80537 16.2552 9.90468 16.2331 10.0054 16.2314C10.1061 16.2296 10.2061 16.2481 10.2995 16.2858C10.3929 16.3235 10.4777 16.3797 10.5489 16.4509C10.6202 16.5221 10.6763 16.607 10.714 16.7004C10.7518 16.7937 10.7703 16.8938 10.7685 16.9945C10.7667 17.0952 10.7447 17.1945 10.7037 17.2865C10.6627 17.3785 10.6036 17.4613 10.5299 17.53L8.52991 19.53C8.38928 19.6704 8.19866 19.7493 7.99991 19.7493C7.80116 19.7493 7.61053 19.6704 7.46991 19.53L5.46991 17.53C5.39622 17.4613 5.33712 17.3785 5.29613 17.2865C5.25514 17.1945 5.23309 17.0952 5.23132 16.9945C5.22954 16.8938 5.24807 16.7937 5.28579 16.7004C5.32351 16.607 5.37965 16.5221 5.45087 16.4509C5.52209 16.3797 5.60692 16.3235 5.70031 16.2858C5.7937 16.2481 5.89373 16.2296 5.99443 16.2314C6.09513 16.2331 6.19445 16.2552 6.28645 16.2962C6.37845 16.3372 6.46125 16.3963 6.52991 16.4699L7.24991 17.19V6.99995C7.24991 6.80104 7.32893 6.61027 7.46958 6.46962C7.61023 6.32897 7.801 6.24995 7.99991 6.24995C8.19882 6.24995 8.38959 6.32897 8.53024 6.46962C8.67089 6.61027 8.74991 6.80104 8.74991 6.99995V17.19Z" fill="#8C7459"/>
</g>
</svg>
