<svg width="43" height="56" viewBox="0 0 43 56" fill="none" xmlns="http://www.w3.org/2000/svg">
<path fill-rule="evenodd" clip-rule="evenodd" d="M29.7365 55.8348C29.6208 55.7491 29.5196 55.6147 29.4979 55.4152L29.5146 55.3931C29.9033 55.3345 30.4035 55.1981 30.7701 54.8371C31.1886 54.4245 31.2812 53.854 31.2848 53.3125C31.2848 52.6999 31.1099 52.2707 30.7375 52.2732C30.4275 52.2732 30.249 52.6026 30.2454 52.939C30.2454 53.4534 30.5721 53.6224 30.8351 53.6224C30.8713 53.6224 31.0231 53.6073 31.1099 53.5737C31.1185 53.7342 31.0231 54.037 30.9169 54.1247C30.8171 54.2124 30.6047 54.2661 30.3891 54.2661C29.7835 54.2661 29.3157 53.8465 29.3157 53.0854C29.318 52.3515 29.8703 51.6706 30.8085 51.6706C31.7987 51.6681 32.2687 52.4738 32.2664 53.3757C32.2664 54.0686 32.0721 54.6857 31.5176 55.2367C30.9856 55.7541 30.3755 55.91 30.0501 55.91C29.9033 55.91 29.8187 55.8884 29.7365 55.8348ZM37.7488 55.7446C37.6273 55.6343 37.545 55.3931 37.545 55.1931L37.5802 55.1565C37.7059 55.2001 38.0096 55.2663 38.2735 55.2638C38.7874 55.2638 39.2673 55.0637 39.2673 54.5955C39.2673 54.3122 39.0874 54.1733 38.8235 54.0856C38.4968 53.9903 37.9133 53.9197 37.6141 53.8931L37.5066 53.7372C37.6345 53.0343 37.9047 51.9659 37.978 51.812C38.236 51.824 39.7943 51.7198 39.9845 51.6536L39.9954 51.6801C39.9484 51.9514 39.8422 52.2316 39.6881 52.3439C39.5168 52.4758 39.0969 52.5149 38.4724 52.5465C38.4317 52.6708 38.3531 52.9977 38.3119 53.2148C38.6739 53.2539 39.0897 53.3346 39.3008 53.3927C39.9457 53.5953 40.2449 53.8951 40.2426 54.5077C40.2426 55.3786 39.3997 55.8935 38.4751 55.8955C38.0891 55.8955 37.8681 55.8348 37.7488 55.7446ZM3.0828 55.5831C2.95038 55.4979 2.89841 55.4127 2.89841 55.3104C2.89841 55.1635 3.03128 54.8537 3.0959 54.8201C3.34311 54.981 3.75211 55.1635 4.08609 55.1635C4.43227 55.1565 4.70343 55.0246 4.70343 54.7028C4.70343 54.4611 4.59993 54.3077 3.95006 53.9783C3.12617 53.5707 2.97432 53.122 2.97432 52.6663C2.97432 52.2051 3.30378 51.4591 4.44537 51.4591H4.45033C4.79652 51.456 5.30178 51.6029 5.4943 51.81C5.48617 52.0391 5.34245 52.3755 5.03289 52.2803C4.89278 52.2221 4.60807 52.1414 4.41284 52.1414C4.09105 52.1444 3.88001 52.2903 3.88001 52.5319C3.88001 52.8002 4.08382 52.9465 4.71427 53.288C5.32303 53.6073 5.65475 53.864 5.65475 54.5148C5.65249 55.3786 4.89277 55.8493 4.09105 55.8518C3.61562 55.8518 3.26854 55.7049 3.0828 55.5831ZM14.5863 53.688C14.5881 52.2803 15.6606 51.4395 16.9892 51.4365C17.598 51.4365 18.1155 51.6436 18.2239 51.7709C18.2285 52.0707 18.0526 52.3469 17.7476 52.2612C17.598 52.2 17.2988 52.1148 16.9807 52.1148C16.2115 52.1173 15.6267 52.6001 15.6217 53.6199C15.6217 54.4491 16.1658 55.1199 17.1687 55.1199C17.6305 55.1199 17.9514 54.9981 18.1177 54.9419L18.1503 54.9564C18.1091 55.2853 18.0273 55.4613 17.908 55.5932C17.7426 55.7029 17.3919 55.8298 16.9567 55.8318C15.407 55.8318 14.5863 54.9735 14.5863 53.688ZM12.2155 55.7029C11.9321 55.2808 11.7455 54.9444 11.2172 54.0686C10.8335 53.4394 10.6925 53.0904 10.4154 52.5465C10.4611 53.1441 10.4538 53.4805 10.4538 53.8224L10.4502 55.5856C10.4502 55.715 10.4091 55.732 10.2853 55.7541C10.1619 55.7736 9.87988 55.7902 9.63493 55.7812C9.64578 55.5149 9.65437 55.1249 9.65663 54.5614L9.65934 51.7709L9.5676 51.622L9.56986 51.5829C9.7086 51.5633 10.4177 51.5292 10.5456 51.5292C10.6165 51.5292 10.6708 51.5734 10.7358 51.6486C10.9483 51.9779 11.4187 52.7465 11.7888 53.3902C12.0681 53.866 12.2638 54.1884 12.4301 54.5368C12.3782 54.1342 12.3831 53.9392 12.3831 53.6053L12.3913 51.7318C12.3913 51.5784 12.4432 51.5513 12.5409 51.5513C12.77 51.5317 13.0416 51.5247 13.2079 51.5247C13.1944 51.812 13.1862 52.2 13.1862 52.756L13.1799 55.7029C13.1067 55.7295 12.6398 55.8172 12.4216 55.8172C12.3239 55.8172 12.2783 55.7932 12.2155 55.7029ZM7.00875 55.6513L7.01372 52.4392C7.01372 51.9905 7.00875 51.7152 6.99564 51.5879C7.13665 51.5683 7.68032 51.5343 7.84076 51.5343C7.97137 51.5343 7.99261 51.5979 7.99261 51.9073L7.98809 54.9053C7.98583 55.3761 8.00119 55.5957 8.00617 55.7295C7.88685 55.7636 7.34905 55.7832 7.17416 55.7832C7.16738 55.7832 7.16105 55.7837 7.15472 55.7837C7.04987 55.7837 7.00875 55.7601 7.00875 55.6513ZM33.3587 53.7587C33.3587 52.7445 33.7641 51.6661 34.9084 51.6611H34.9143C36.1476 51.6586 36.3166 52.9882 36.3166 53.666C36.3139 55.0467 35.7571 55.7812 34.8067 55.7812C34.0629 55.7812 33.3551 55.3004 33.3587 53.7587ZM34.3186 53.6976C34.3186 54.8517 34.6007 55.1785 34.8537 55.1785C35.0359 55.1785 35.359 55.0226 35.3617 53.666C35.3653 52.5269 35.1073 52.2662 34.8537 52.2682H34.8456C34.3837 52.2682 34.3209 53.2148 34.3186 53.6976ZM19.544 55.6999L19.4392 55.5641L19.4442 52.4738C19.4442 52.1514 19.4442 51.9293 19.4247 51.627C19.648 51.5784 19.9987 51.5393 20.3195 51.5343C20.5966 51.5343 21.3613 51.5317 21.9185 51.5292C21.8688 51.9123 21.7712 52.0662 21.6916 52.1614C21.5782 52.2076 21.307 52.2076 21.0128 52.2076H20.423L20.4199 53.2293L21.8426 53.2273C21.763 53.8054 21.6216 53.9026 21.3816 53.9026L20.4199 53.9051L20.4172 55.0542C20.5776 55.0733 20.7163 55.0883 20.9391 55.0858C21.1927 55.0858 21.7386 55.0858 22.092 55.0637L22.1029 55.0783C22.0306 55.4272 21.8905 55.6147 21.7083 55.727C21.6107 55.7491 21.2984 55.7636 20.7633 55.7636C20.1329 55.7636 19.7058 55.7295 19.544 55.6999ZM26.5449 52.5956C26.4148 52.6297 25.9036 52.756 25.6804 52.7781L25.6646 52.7445L25.8358 52.2221C26.3953 52.0707 27.1876 51.7955 27.4637 51.6736L27.5048 51.7022C27.5048 52.1514 27.5179 55.0076 27.5179 55.5515C27.5157 55.6859 27.4637 55.715 27.3336 55.725C27.0669 55.7466 26.6534 55.7541 26.5291 55.7541C26.5341 55.3976 26.5427 53.9297 26.5449 52.5956ZM0.598963 32.3162L0.5 32.0847V14.1784L0.598963 13.9465C4.22619 5.50298 12.4225 0.0356456 21.5 0C30.5775 0.0356456 38.7738 5.50298 42.401 13.9465L42.5 14.1784V32.0847L42.401 32.3162C38.7738 40.7597 30.5775 46.222 21.5 46.2577C12.4225 46.222 4.22619 40.7597 0.598963 32.3162ZM2.88304 14.6806V31.5821C6.17674 39.0158 13.452 43.8126 21.5 43.8478C29.548 43.8126 36.8233 39.0158 40.1174 31.5821V14.6806C36.8233 7.24465 29.548 2.44782 21.5 2.41217C13.452 2.44782 6.17674 7.24465 2.88304 14.6806ZM19.7732 40.4858C18.2492 40.4858 17.0146 38.847 17.0146 36.8296V9.44701C17.0146 7.4301 18.2492 5.78859 19.7732 5.78859H23.2241C24.7458 5.78859 25.9882 7.4301 25.9882 9.44701V17.65H23.0723V9.44701C23.0723 9.13523 22.9977 8.88616 22.9182 8.735H20.0796C20 8.88616 19.9277 9.13523 19.9277 9.44701V36.8296C19.9277 37.1396 20 37.3882 20.0796 37.5394H22.9182C22.9977 37.3882 23.0723 37.1396 23.0723 36.8296V25.7118H22.6913C21.4661 25.6802 20.456 24.7778 20.2843 23.5604L20.2025 22.9969L25.9882 23.014V36.8296C25.9882 38.847 24.7458 40.4858 23.2241 40.4858H19.7732ZM28.3802 26.9165C28.3802 24.785 29.3713 22.76 31.0448 21.4506C29.3618 20.1213 28.3802 18.1067 28.3802 15.9842V7.05785C29.3853 7.5032 30.3434 8.04284 31.245 8.66958V15.9842C31.245 17.8892 32.5425 19.5041 34.3684 19.9043V11.4486C35.5402 12.7765 36.53 14.2912 37.2743 15.9711V30.2912C36.53 31.9706 35.5402 33.4848 34.3684 34.8123V22.9996C32.5303 23.4192 31.245 25.0237 31.245 26.9165V37.5913C30.3434 38.218 29.3853 38.7572 28.3802 39.2026V26.9165ZM11.8033 37.5913V26.9165C11.8033 25.0237 10.518 23.4192 8.68045 22.9996V34.8123C7.50859 33.4848 6.5184 31.9706 5.77407 30.2912V15.9711C6.5184 14.2912 7.50859 12.7765 8.68045 11.4486V19.9043C10.5058 19.5041 11.8033 17.8892 11.8033 15.9842V8.66958C12.7054 8.04284 13.6635 7.5032 14.6681 7.05785V15.9842C14.6681 18.1067 13.6865 20.1213 12.0035 21.4506C13.677 22.76 14.6681 24.785 14.6681 26.9165V39.2026C13.6635 38.7572 12.7054 38.218 11.8033 37.5913Z" fill="#8C7459"/>
</svg>
