<svg width="24" height="25" viewBox="0 0 24 25" fill="none" xmlns="http://www.w3.org/2000/svg">
<g id="logos:whatsapp-icon" clip-path="url(#clip0_2843_13440)">
<path id="Vector" d="M0.51209 11.9491C0.511527 13.9813 1.04253 15.9656 2.05221 17.7146L0.415527 23.6905L6.53103 22.087C8.22249 23.0078 10.1177 23.4903 12.0435 23.4904H12.0486C18.4062 23.4904 23.5815 18.317 23.5842 11.9582C23.5855 8.87692 22.3866 5.97948 20.2084 3.79961C18.0306 1.61992 15.1342 0.418887 12.0481 0.41748C5.68972 0.41748 0.514809 5.59061 0.512184 11.9491" fill="url(#paint0_linear_2843_13440)"/>
<path id="Vector_2" d="M0.100313 11.9452C0.0996563 14.0506 0.649687 16.1059 1.69537 17.9175L0 24.1075L6.33478 22.4466C8.08022 23.3982 10.0454 23.9 12.0451 23.9007H12.0502C18.636 23.9007 23.9972 18.5412 24 11.9548C24.0011 8.76281 22.7591 5.76122 20.5031 3.50325C18.2468 1.24556 15.2468 0.0013125 12.0502 0C5.46337 0 0.102938 5.35875 0.100313 11.9452ZM3.87281 17.6055L3.63628 17.23C2.64197 15.649 2.11716 13.822 2.11791 11.946C2.12006 6.47147 6.57544 2.0175 12.054 2.0175C14.7071 2.01863 17.2005 3.05288 19.0759 4.92938C20.9512 6.80606 21.9831 9.30075 21.9824 11.9541C21.98 17.4286 17.5245 21.8831 12.0502 21.8831H12.0463C10.2638 21.8822 8.51569 21.4035 6.99113 20.4989L6.62831 20.2838L2.86912 21.2693L3.87281 17.6054V17.6055Z" fill="url(#paint1_linear_2843_13440)"/>
<path id="Vector_3" d="M9.06334 6.95156C8.83965 6.45441 8.60425 6.44438 8.39153 6.43566C8.21734 6.42816 8.01821 6.42872 7.81928 6.42872C7.62015 6.42872 7.29662 6.50363 7.02315 6.80222C6.7494 7.1011 5.97803 7.82335 5.97803 9.29231C5.97803 10.7614 7.048 12.181 7.19715 12.3804C7.3465 12.5795 9.26275 15.6905 12.2976 16.8873C14.8199 17.8819 15.3332 17.6841 15.8806 17.6342C16.4281 17.5845 17.6472 16.9121 17.8959 16.2149C18.1448 15.5178 18.1448 14.9202 18.0702 14.7953C17.9956 14.6709 17.7964 14.5962 17.4978 14.447C17.1992 14.2976 15.7312 13.5753 15.4576 13.4756C15.1838 13.3761 14.9848 13.3264 14.7857 13.6253C14.5865 13.9238 14.0147 14.5962 13.8405 14.7953C13.6664 14.9949 13.4921 15.0198 13.1936 14.8704C12.8948 14.7206 11.9332 14.4057 10.7924 13.3886C9.90475 12.5972 9.3055 11.6198 9.13131 11.3209C8.95712 11.0224 9.11265 10.8606 9.26237 10.7118C9.39653 10.578 9.56106 10.3631 9.7105 10.1888C9.85937 10.0145 9.90906 9.89006 10.0086 9.69094C10.1083 9.49163 10.0584 9.31725 9.98387 9.16791C9.90906 9.01856 9.32884 7.54191 9.06334 6.95156Z" fill="white"/>
</g>
<defs>
<linearGradient id="paint0_linear_2843_13440" x1="1158.85" y1="2327.71" x2="1158.85" y2="0.41748" gradientUnits="userSpaceOnUse">
<stop stop-color="#1FAF38"/>
<stop offset="1" stop-color="#60D669"/>
</linearGradient>
<linearGradient id="paint1_linear_2843_13440" x1="1200" y1="2410.75" x2="1200" y2="0" gradientUnits="userSpaceOnUse">
<stop stop-color="#F9F9F9"/>
<stop offset="1" stop-color="white"/>
</linearGradient>
<clipPath id="clip0_2843_13440">
<rect width="24" height="24.1875" fill="white"/>
</clipPath>
</defs>
</svg>
