<svg width="24" height="24" viewBox="0 0 24 24" fill="none" xmlns="http://www.w3.org/2000/svg">
<path d="M12.9498 3H11.0498C7.01933 3 5.00408 3 3.75196 4.35364C2.9968 5.17003 2.69708 6.2865 2.57812 8H21.4216C21.3026 6.2865 21.0029 5.17003 20.2477 4.35364C18.9956 3 16.9803 3 12.9498 3Z" fill="white"/>
<path d="M18 2V4M6 2V4" stroke="#141B34" stroke-width="1.5" stroke-linecap="round" stroke-linejoin="round"/>
<path d="M11.05 22C7.01949 22 5.00424 22 3.75212 20.6464C2.5 19.2927 2.5 17.1141 2.5 12.7568V12.2432C2.5 7.88594 2.5 5.70728 3.75212 4.35364C5.00424 3 7.01949 3 11.05 3H12.95C16.9805 3 18.9958 3 20.2479 4.35364C21.4765 5.68186 21.4996 7.80438 21.5 12" stroke="#141B34" stroke-width="1.5" stroke-linecap="round" stroke-linejoin="round"/>
<path d="M3 8H21" stroke="#141B34" stroke-width="1.5" stroke-linecap="round" stroke-linejoin="round"/>
<path d="M13 18H21M17 14L17 22" stroke="#141B34" stroke-width="1.5" stroke-linecap="round" stroke-linejoin="round"/>
</svg>
