<svg width="44" height="44" viewBox="0 0 44 44" fill="none" xmlns="http://www.w3.org/2000/svg">
<g filter="url(#filter0_d_7631_1849)">
<rect x="2" y="1" width="40" height="40" rx="4" fill="white" shape-rendering="crispEdges"/>
<rect x="2.5" y="1.5" width="39" height="39" rx="3.5" stroke="#E4E7EC" shape-rendering="crispEdges"/>
<path d="M30.25 14.25H13.75" stroke="#101828" stroke-width="1.5" stroke-linecap="round" stroke-linejoin="round"/>
<path d="M19.75 18.75V24.75" stroke="#101828" stroke-width="1.5" stroke-linecap="round" stroke-linejoin="round"/>
<path d="M24.25 18.75V24.75" stroke="#101828" stroke-width="1.5" stroke-linecap="round" stroke-linejoin="round"/>
<path d="M28.75 14.25V28.5C28.75 28.6989 28.671 28.8897 28.5303 29.0303C28.3897 29.171 28.1989 29.25 28 29.25H16C15.8011 29.25 15.6103 29.171 15.4697 29.0303C15.329 28.8897 15.25 28.6989 15.25 28.5V14.25" stroke="#101828" stroke-width="1.5" stroke-linecap="round" stroke-linejoin="round"/>
<path d="M25.75 14.25V12.75C25.75 12.3522 25.592 11.9706 25.3107 11.6893C25.0294 11.408 24.6478 11.25 24.25 11.25H19.75C19.3522 11.25 18.9706 11.408 18.6893 11.6893C18.408 11.9706 18.25 12.3522 18.25 12.75V14.25" stroke="#101828" stroke-width="1.5" stroke-linecap="round" stroke-linejoin="round"/>
</g>
<defs>
<filter id="filter0_d_7631_1849" x="0" y="0" width="44" height="44" filterUnits="userSpaceOnUse" color-interpolation-filters="sRGB">
<feFlood flood-opacity="0" result="BackgroundImageFix"/>
<feColorMatrix in="SourceAlpha" type="matrix" values="0 0 0 0 0 0 0 0 0 0 0 0 0 0 0 0 0 0 127 0" result="hardAlpha"/>
<feOffset dy="1"/>
<feGaussianBlur stdDeviation="1"/>
<feComposite in2="hardAlpha" operator="out"/>
<feColorMatrix type="matrix" values="0 0 0 0 0.0627451 0 0 0 0 0.0941176 0 0 0 0 0.156863 0 0 0 0.12 0"/>
<feBlend mode="normal" in2="BackgroundImageFix" result="effect1_dropShadow_7631_1849"/>
<feBlend mode="normal" in="SourceGraphic" in2="effect1_dropShadow_7631_1849" result="shape"/>
</filter>
</defs>
</svg>
