<svg width="44" height="44" viewBox="0 0 44 44" fill="none" xmlns="http://www.w3.org/2000/svg">
<g filter="url(#filter0_d_7657_52924)">
<rect x="2" y="1" width="40" height="40" rx="4" fill="white" shape-rendering="crispEdges"/>
<rect x="2.5" y="1.5" width="39" height="39" rx="3.5" stroke="#E4E7EC" shape-rendering="crispEdges"/>
<path d="M31 20.5C31 16.0217 31 13.7825 29.6088 12.3912C28.2175 11 25.9783 11 21.5 11C17.0217 11 14.7825 11 13.3912 12.3912C12 13.7825 12 16.0217 12 20.5C12 24.9783 12 27.2175 13.3912 28.6088C14.7297 29.9472 16.853 29.998 21 29.9999" stroke="#141B34" stroke-width="1.5" stroke-linecap="round"/>
<path d="M12 16H31" stroke="#141B34" stroke-width="1.5" stroke-linejoin="round"/>
<path d="M20 25H21.5M16 25H17M20 21H26M16 21H17" stroke="#141B34" stroke-width="1.5" stroke-linecap="round" stroke-linejoin="round"/>
<path d="M25.3477 30.8557L25.1909 30.1223L25.3477 30.8557ZM24.1443 29.6523L24.8777 29.8091L24.1443 29.6523ZM25.0207 27.1117L24.4903 26.5814L25.0207 27.1117ZM27.8883 29.9793L27.358 29.449L27.8883 29.9793ZM31.7963 24.4773L32.4458 24.1023V24.1023L31.7963 24.4773ZM31.1961 26.6715L31.7265 27.2018L31.1961 26.6715ZM31.7963 25.9981L32.4458 26.3731L31.7963 25.9981ZM30.5227 23.2037L30.8977 22.5542V22.5542L30.5227 23.2037ZM28.3285 23.8039L28.8588 24.3342L28.3285 23.8039ZM29.0019 23.2037L28.6269 22.5542V22.5542L29.0019 23.2037ZM30.6658 26.1412L27.358 29.449L28.4186 30.5097L31.7265 27.2018L30.6658 26.1412ZM25.551 27.642L28.8588 24.3342L27.7982 23.2735L24.4903 26.5814L25.551 27.642ZM25.1909 30.1223C25.0155 30.1598 24.8753 30.1897 24.7548 30.2121C24.6333 30.2347 24.5536 30.2454 24.4996 30.2488C24.4441 30.2524 24.4479 30.2458 24.4825 30.2547C24.5296 30.2669 24.5936 30.2972 24.6482 30.3518L23.5876 31.4124C23.9113 31.7362 24.3158 31.7636 24.5948 31.7458C24.8603 31.7289 25.1839 31.6577 25.5045 31.5891L25.1909 30.1223ZM23.4109 29.4955C23.3423 29.8161 23.2711 30.1397 23.2542 30.4052C23.2364 30.6842 23.2638 31.0887 23.5876 31.4124L24.6482 30.3518C24.7028 30.4064 24.7331 30.4704 24.7453 30.5175C24.7542 30.5521 24.7476 30.5559 24.7512 30.5004C24.7546 30.4464 24.7653 30.3667 24.7879 30.2452C24.8103 30.1247 24.8402 29.9845 24.8777 29.8091L23.4109 29.4955ZM30.6658 24.3342C31.0333 24.7017 31.1084 24.786 31.1467 24.8523L32.4458 24.1023C32.2839 23.8218 32.0257 23.5728 31.7265 23.2735L30.6658 24.3342ZM31.7265 27.2018C32.0257 26.9026 32.2839 26.6535 32.4458 26.3731L31.1467 25.6231C31.1084 25.6894 31.0333 25.7737 30.6658 26.1412L31.7265 27.2018ZM31.1467 24.8523C31.2844 25.0908 31.2844 25.3846 31.1467 25.6231L32.4458 26.3731C32.8514 25.6705 32.8514 24.8049 32.4458 24.1023L31.1467 24.8523ZM31.7265 23.2735C31.4272 22.9743 31.1782 22.7161 30.8977 22.5542L30.1477 23.8533C30.214 23.8916 30.2983 23.9667 30.6658 24.3342L31.7265 23.2735ZM28.8588 24.3342C29.2263 23.9667 29.3106 23.8916 29.3769 23.8533L28.6269 22.5542C28.3465 22.7161 28.0974 22.9743 27.7982 23.2735L28.8588 24.3342ZM30.8977 22.5542C30.1951 22.1486 29.3295 22.1486 28.6269 22.5542L29.3769 23.8533C29.6154 23.7156 29.9092 23.7156 30.1477 23.8533L30.8977 22.5542ZM27.358 29.449C27.1624 29.6445 26.8952 29.771 26.5155 29.8679C26.3253 29.9165 26.1224 29.954 25.8963 29.9931C25.679 30.0306 25.4303 30.0711 25.1909 30.1223L25.5045 31.5891C25.7063 31.546 25.9131 31.5124 26.1517 31.4712C26.3814 31.4315 26.6346 31.3856 26.8866 31.3213C27.3914 31.1924 27.9533 30.975 28.4186 30.5097L27.358 29.449ZM24.8777 29.8091C24.9289 29.5697 24.9694 29.321 25.0069 29.1037C25.046 28.8776 25.0835 28.6747 25.1321 28.4845C25.229 28.1048 25.3555 27.8376 25.551 27.642L24.4903 26.5814C24.025 27.0467 23.8076 27.6086 23.6787 28.1134C23.6144 28.3654 23.5685 28.6186 23.5288 28.8483C23.4876 29.0869 23.454 29.2937 23.4109 29.4955L24.8777 29.8091Z" fill="#141B34"/>
</g>
<defs>
<filter id="filter0_d_7657_52924" x="0" y="0" width="44" height="44" filterUnits="userSpaceOnUse" color-interpolation-filters="sRGB">
<feFlood flood-opacity="0" result="BackgroundImageFix"/>
<feColorMatrix in="SourceAlpha" type="matrix" values="0 0 0 0 0 0 0 0 0 0 0 0 0 0 0 0 0 0 127 0" result="hardAlpha"/>
<feOffset dy="1"/>
<feGaussianBlur stdDeviation="1"/>
<feComposite in2="hardAlpha" operator="out"/>
<feColorMatrix type="matrix" values="0 0 0 0 0.0627451 0 0 0 0 0.0941176 0 0 0 0 0.156863 0 0 0 0.12 0"/>
<feBlend mode="normal" in2="BackgroundImageFix" result="effect1_dropShadow_7657_52924"/>
<feBlend mode="normal" in="SourceGraphic" in2="effect1_dropShadow_7657_52924" result="shape"/>
</filter>
</defs>
</svg>
