<svg width="264" height="231" viewBox="0 0 264 231" fill="none" xmlns="http://www.w3.org/2000/svg">
<g clip-path="url(#clip0_7663_53663)">
<path d="M104.809 113.096C103.7 113.65 103 114.783 103 116.022V157.125C103 158.16 103.839 159 104.875 159H165.125C166.16 159 167 158.16 167 157.125V115.932C167 114.745 166.339 113.656 165.286 113.109C164.833 112.873 164.329 112.75 163.818 112.75H106.272C105.764 112.75 105.263 112.868 104.809 113.096Z" fill="url(#paint0_linear_7663_53663)"/>
<path d="M167 114V157.125C167 158.16 166.16 159 165.125 159H135V112.75H164.596L167 114Z" fill="#D8DBEA" fill-opacity="0.5"/>
<path d="M167 100.875C167 99.8395 166.16 99 165.125 99H104.875C103.839 99 103 99.8395 103 100.875V114H167V100.875Z" fill="url(#paint1_linear_7663_53663)"/>
<path d="M167 100.875V114H135V99H165.125C166.16 99 167 99.84 167 100.875Z" fill="#D8DBEA" fill-opacity="0.5"/>
<path d="M112.5 95C111.464 95 110.625 95.8395 110.625 96.875V103.375C110.625 104.41 111.464 105.25 112.5 105.25C113.536 105.25 114.375 104.41 114.375 103.375V96.875C114.375 95.8395 113.536 95 112.5 95ZM123.75 95C122.715 95 121.875 95.8395 121.875 96.875V103.375C121.875 104.41 122.715 105.25 123.75 105.25C124.785 105.25 125.625 104.41 125.625 103.375V96.875C125.625 95.8395 124.785 95 123.75 95ZM135 95C133.965 95 133.125 95.8395 133.125 96.875V103.375C133.125 104.41 133.965 105.25 135 105.25C136.035 105.25 136.875 104.41 136.875 103.375V96.875C136.875 95.8395 136.035 95 135 95Z" fill="#D7D9E4"/>
<path d="M136.875 96.875V103.375C136.875 104.41 136.035 105.25 135 105.25V95C136.035 95 136.875 95.84 136.875 96.875ZM146.25 95C145.215 95 144.375 95.8395 144.375 96.875V103.375C144.375 104.41 145.215 105.25 146.25 105.25C147.285 105.25 148.125 104.41 148.125 103.375V96.875C148.125 95.8395 147.285 95 146.25 95ZM157.5 95C156.465 95 155.625 95.8395 155.625 96.875V103.375C155.625 104.41 156.465 105.25 157.5 105.25C158.535 105.25 159.375 104.41 159.375 103.375V96.875C159.375 95.8395 158.535 95 157.5 95Z" fill="#D7D9E4"/>
<path d="M123.75 123.375H116.25C115.214 123.375 114.375 124.214 114.375 125.25V132.75C114.375 133.785 115.214 134.625 116.25 134.625H123.75C124.785 134.625 125.625 133.785 125.625 132.75V125.25C125.625 124.214 124.785 123.375 123.75 123.375Z" fill="#E0E4EF"/>
<path d="M153.75 123.375H146.25C145.214 123.375 144.375 124.214 144.375 125.25V132.75C144.375 133.785 145.214 134.625 146.25 134.625H153.75C154.785 134.625 155.625 133.785 155.625 132.75V125.25C155.625 124.214 154.785 123.375 153.75 123.375Z" fill="#C1C3D0"/>
<path d="M138.75 138.25H131.25C130.214 138.25 129.375 139.089 129.375 140.125V147.625C129.375 148.66 130.214 149.5 131.25 149.5H138.75C139.785 149.5 140.625 148.66 140.625 147.625V140.125C140.625 139.089 139.785 138.25 138.75 138.25Z" fill="#E0E4EF"/>
<path d="M140.625 140.125V147.625C140.625 148.66 139.785 149.5 138.75 149.5H135V138.25H138.75C139.785 138.25 140.625 139.09 140.625 140.125Z" fill="#C1C3D0"/>
<path d="M138.75 123.375H131.25C130.214 123.375 129.375 124.214 129.375 125.25V132.75C129.375 133.785 130.214 134.625 131.25 134.625H138.75C139.785 134.625 140.625 133.785 140.625 132.75V125.25C140.625 124.214 139.785 123.375 138.75 123.375Z" fill="#E0E4EF"/>
<path d="M140.625 125.25V132.75C140.625 133.785 139.785 134.625 138.75 134.625H135V123.375H138.75C139.785 123.375 140.625 124.215 140.625 125.25ZM153.75 138.25H146.25C145.215 138.25 144.375 139.09 144.375 140.125V147.625C144.375 148.66 145.215 149.5 146.25 149.5H153.75C154.785 149.5 155.625 148.66 155.625 147.625V140.125C155.625 139.09 154.785 138.25 153.75 138.25Z" fill="#C1C3D0"/>
<path d="M124.933 140.02C124.129 139.367 122.948 139.489 122.295 140.292L118.483 144.981L117.439 144.125C116.638 143.468 115.457 143.585 114.8 144.386C114.144 145.187 114.26 146.368 115.061 147.025L117.561 149.075C118.366 149.735 119.551 149.612 120.205 148.808L125.205 142.658C125.858 141.854 125.736 140.673 124.933 140.02Z" fill="#C1C3D0"/>
</g>
<path fill-rule="evenodd" clip-rule="evenodd" d="M238.532 126.608C238.532 183.929 192.063 230.398 134.742 230.398C77.4211 230.398 30.9531 183.929 30.9531 126.608C30.9531 69.2874 77.4211 22.8184 134.742 22.8184C192.063 22.8184 238.532 69.2874 238.532 126.608Z" stroke="#E9EAEC" stroke-dasharray="5.02 5.02"/>
<path fill-rule="evenodd" clip-rule="evenodd" d="M211.817 126.608C211.817 169.175 177.309 203.683 134.742 203.683C92.174 203.683 57.668 169.175 57.668 126.608C57.668 84.0412 92.174 49.5332 134.742 49.5332C177.309 49.5332 211.817 84.0412 211.817 126.608Z" stroke="#E9EAEC" stroke-dasharray="5.05 5.05"/>
<path fill-rule="evenodd" clip-rule="evenodd" d="M207.762 55.5723C209.258 55.5723 210.468 56.7813 210.468 58.2783C210.468 59.7753 209.258 60.9843 207.762 60.9843C206.265 60.9843 205.055 59.7753 205.055 58.2783C205.055 56.7813 206.265 55.5723 207.762 55.5723ZM215.878 55.5723C217.375 55.5723 218.584 56.7813 218.584 58.2783C218.584 59.7753 217.375 60.9843 215.878 60.9843C214.381 60.9843 213.172 59.7753 213.172 58.2783C213.172 56.7813 214.381 55.5723 215.878 55.5723ZM223.997 55.5723C225.494 55.5723 226.703 56.7813 226.703 58.2783C226.703 59.7753 225.494 60.9843 223.997 60.9843C222.5 60.9843 221.291 59.7753 221.291 58.2783C221.291 56.7813 222.5 55.5723 223.997 55.5723ZM204.733 73.1625H217.647C218.865 73.1625 218.865 73.1715 219.448 73.6025C219.767 73.838 221.902 75.3008 223.773 76.5793C225.014 77.4276 226.696 76.5377 226.696 75.0342V73.4745C226.696 73.3022 226.836 73.1625 227.008 73.1625C230.576 73.1625 233.46 70.4735 233.46 67.1245V49.4585C233.46 46.1095 230.569 43.3945 227.008 43.3945H204.733C201.173 43.3945 198.281 46.1095 198.281 49.4585V67.1245C198.281 70.4735 201.173 73.1625 204.733 73.1625Z" fill="url(#paint2_linear_7663_53663)"/>
<path fill-rule="evenodd" clip-rule="evenodd" d="M39.2803 85.5772C38.4723 85.5772 37.8187 86.2302 37.8187 87.0388C37.8187 87.8473 38.4723 88.5003 39.2803 88.5003C40.0888 88.5003 40.7423 87.8473 40.7423 87.0388C40.7423 86.2302 40.0888 85.5772 39.2803 85.5772ZM34.8967 85.5772C34.0882 85.5772 33.4352 86.2302 33.4352 87.0388C33.4352 87.8473 34.0882 88.5003 34.8967 88.5003C35.7052 88.5003 36.3582 87.8473 36.3582 87.0388C36.3582 86.2302 35.7052 85.5772 34.8967 85.5772ZM30.5115 85.5772C29.703 85.5772 29.05 86.2302 29.05 87.0388C29.05 87.8473 29.703 88.5003 30.5115 88.5003C31.32 88.5003 31.973 87.8473 31.973 87.0388C31.973 86.2302 31.32 85.5772 30.5115 85.5772ZM40.9159 95.0778H33.941C33.2832 95.0778 33.2832 95.0827 32.9683 95.3154C32.796 95.4426 31.643 96.2327 30.6327 96.9232C29.9622 97.3814 29.0536 96.9007 29.0536 96.0887V95.2463C29.0536 95.1532 28.9782 95.0778 28.8851 95.0778C26.958 95.0778 25.4004 93.6255 25.4004 91.8166V82.2752C25.4004 80.4664 26.9618 79 28.8851 79H40.9159C42.8387 79 44.4007 80.4664 44.4007 82.2752V91.8166C44.4007 93.6255 42.8387 95.0778 40.9159 95.0778Z" fill="url(#paint3_linear_7663_53663)"/>
<path fill-rule="evenodd" clip-rule="evenodd" d="M176.181 111.037C177.944 113.158 179.268 115.656 180.168 118.304C181.085 120.953 181.533 123.767 181.579 126.583C181.579 127.992 181.478 129.399 181.296 130.794C181.056 132.182 180.779 133.56 180.343 134.895C179.5 137.566 178.226 140.099 176.49 142.255C176.415 142.348 176.281 142.362 176.188 142.288C176.116 142.229 176.092 142.133 176.12 142.049C177.024 139.476 177.773 136.938 178.276 134.363C178.369 133.713 178.497 133.073 178.605 132.43C178.679 131.781 178.777 131.137 178.833 130.489C178.875 129.84 178.959 129.195 178.986 128.546C178.996 127.896 179.027 127.247 179.024 126.598C179.039 123.999 178.749 121.404 178.244 118.828C177.725 116.25 176.944 113.711 176.006 111.138C175.987 111.085 176.014 111.026 176.067 111.007C176.109 110.991 176.154 111.005 176.181 111.037Z" fill="#E0E4EF"/>
<path fill-rule="evenodd" clip-rule="evenodd" d="M186.111 111.937C187.813 113.898 189.095 116.224 189.988 118.693C190.883 121.165 191.4 123.791 191.492 126.433C191.592 129.074 191.27 131.729 190.564 134.258C189.859 136.786 188.76 139.202 187.21 141.284C187.2 141.297 187.181 141.3 187.169 141.291C187.159 141.283 187.155 141.27 187.158 141.259C187.8 138.753 188.338 136.315 188.664 133.864C188.99 131.414 189.097 128.965 189.006 126.525C188.906 124.086 188.611 121.655 188.092 119.242C187.575 116.826 186.844 114.442 186.011 111.995C186.001 111.964 186.017 111.931 186.048 111.92C186.071 111.912 186.096 111.919 186.111 111.937Z" fill="#E0E4EF"/>
<path fill-rule="evenodd" clip-rule="evenodd" d="M88.8844 119.929C88.3444 117.24 88.3384 114.431 88.7664 111.685C89.1804 108.932 90.0704 106.248 91.3064 103.741C92.5724 101.249 94.1904 98.9296 96.1444 96.9456C98.0844 94.9546 100.334 93.2676 102.816 92.0896C102.861 92.0686 102.913 92.0876 102.934 92.1316C102.951 92.1676 102.942 92.2096 102.913 92.2356C100.894 94.0686 99.0354 95.9796 97.3924 98.0486C95.7614 100.122 94.3184 102.325 93.1524 104.67C91.9544 107 91.0404 109.469 90.3454 112.016C89.6614 114.569 89.2394 117.204 88.9704 119.925C88.9674 119.948 88.9464 119.966 88.9224 119.964C88.9034 119.962 88.8884 119.947 88.8844 119.929Z" fill="#E0E4EF"/>
<path fill-rule="evenodd" clip-rule="evenodd" d="M80.4079 114.613C79.8969 112.088 79.8879 109.457 80.2589 106.881C80.6419 104.305 81.4069 101.774 82.5359 99.417C83.6529 97.056 85.0949 94.847 86.8299 92.912C88.5569 90.974 90.5529 89.28 92.7769 88C90.9609 89.808 89.2929 91.694 87.8379 93.722C86.3879 95.752 85.1269 97.893 84.1049 100.145C83.0929 102.4 82.2809 104.742 81.7019 107.159C81.1069 109.575 80.7499 112.054 80.4929 114.609C80.4899 114.632 80.4699 114.649 80.4449 114.647C80.4269 114.645 80.4109 114.631 80.4079 114.613Z" fill="#E0E4EF"/>
<path d="M11.3448 140.582L9.41779 140.523" stroke="#D2D8DF" stroke-linecap="round"/>
<path d="M9.96208 136.929L8.58008 138.22" stroke="#D2D8DF" stroke-linecap="round"/>
<path d="M6.36103 135.261L6.33203 137.145" stroke="#D2D8DF" stroke-linecap="round"/>
<path d="M2.64844 136.554L3.99044 137.928" stroke="#D2D8DF" stroke-linecap="round"/>
<path d="M1 140.053L2.926 140.112" stroke="#D2D8DF" stroke-linecap="round"/>
<path d="M2.38281 143.706L3.76581 142.415" stroke="#D2D8DF" stroke-linecap="round"/>
<path d="M5.98441 145.375L6.01341 143.491" stroke="#D2D8DF" stroke-linecap="round"/>
<path d="M9.69747 144.081L8.35547 142.707" stroke="#D2D8DF" stroke-linecap="round"/>
<path d="M262.648 113.723L261.801 114.64" stroke="#D2D8DF" stroke-linecap="round"/>
<path d="M258.672 114.52L259.311 115.109" stroke="#D2D8DF" stroke-linecap="round"/>
<path d="M258.027 118.583L258.874 117.666" stroke="#D2D8DF" stroke-linecap="round"/>
<path d="M262.001 117.786L261.363 117.197" stroke="#D2D8DF" stroke-linecap="round"/>
<path d="M185.07 5.94685L183.021 5.89185" stroke="#D2D8DF" stroke-linecap="round"/>
<path d="M179.769 1L179.738 2.751" stroke="#D2D8DF" stroke-linecap="round"/>
<path d="M174.066 5.4541L176.115 5.5081" stroke="#D2D8DF" stroke-linecap="round"/>
<path d="M179.367 10.4004L179.398 8.64941" stroke="#D2D8DF" stroke-linecap="round"/>
<path fill-rule="evenodd" clip-rule="evenodd" d="M33.3361 195.006C31.8621 195.447 29.4071 197.613 28.5671 200.181C28.4261 197.795 26.9111 194.796 25.2441 194.364C27.2781 193.645 29.4811 191.002 30.0671 188.775C29.9611 191.109 32.0801 194.498 33.3361 195.006Z" fill="#EBECEF"/>
<path fill-rule="evenodd" clip-rule="evenodd" d="M67.8587 15.3254C66.7217 15.5264 64.7067 16.9264 63.8587 18.7664C63.9597 16.9774 63.0907 14.6124 61.8867 14.1464C63.4637 13.7864 65.3337 12.0084 65.9627 10.4004C65.6817 12.1304 66.9667 14.8384 67.8587 15.3254Z" fill="#EBECEF"/>
<path fill-rule="evenodd" clip-rule="evenodd" d="M218.559 28.317C217.04 28.284 215.836 27.027 215.87 25.509C215.903 23.991 217.16 22.787 218.677 22.82C220.196 22.853 221.4 24.11 221.367 25.628C221.333 27.146 220.077 28.35 218.559 28.317Z" fill="#D1D9E0"/>
<path fill-rule="evenodd" clip-rule="evenodd" d="M218.566 208.469C217.245 208.441 216.197 207.346 216.225 206.025C216.253 204.703 217.348 203.655 218.67 203.683C219.992 203.712 221.04 204.806 221.011 206.128C220.982 207.449 219.888 208.498 218.566 208.469Z" fill="#EBECEF"/>
<path fill-rule="evenodd" clip-rule="evenodd" d="M19.8223 64.8033C19.0043 64.7853 18.3553 64.1083 18.3733 63.2893C18.3903 62.4713 19.0683 61.8233 19.8863 61.8403C20.7043 61.8583 21.3533 62.5353 21.3363 63.3533C21.3183 64.1723 20.6403 64.8213 19.8223 64.8033Z" stroke="#D2D8DF" stroke-linecap="round"/>
<defs>
<linearGradient id="paint0_linear_7663_53663" x1="105.229" y1="158.453" x2="103.679" y2="116.137" gradientUnits="userSpaceOnUse">
<stop stop-color="#EDF0F6"/>
<stop offset="1" stop-color="#FCFDFF"/>
</linearGradient>
<linearGradient id="paint1_linear_7663_53663" x1="105.229" y1="113.822" x2="105.066" y2="100.082" gradientUnits="userSpaceOnUse">
<stop stop-color="#EDF0F6"/>
<stop offset="1" stop-color="#FCFDFF"/>
</linearGradient>
<linearGradient id="paint2_linear_7663_53663" x1="199.506" y1="76.5117" x2="198.027" y2="45.8791" gradientUnits="userSpaceOnUse">
<stop stop-color="#C1C3D0"/>
<stop offset="1" stop-color="#F1F4FB"/>
</linearGradient>
<linearGradient id="paint3_linear_7663_53663" x1="43.739" y1="96.8867" x2="44.538" y2="80.3419" gradientUnits="userSpaceOnUse">
<stop stop-color="#C1C3D0"/>
<stop offset="1" stop-color="#F1F4FB"/>
</linearGradient>
<clipPath id="clip0_7663_53663">
<rect width="64" height="64" fill="white" transform="translate(103 95)"/>
</clipPath>
</defs>
</svg>
