<svg width="120" height="120" viewBox="0 0 120 120" fill="none" xmlns="http://www.w3.org/2000/svg">
<rect x="2" y="2" width="116" height="116" rx="6" fill="#F2F4F7"/>
<rect x="2" y="2" width="116" height="116" rx="6" stroke="white" stroke-width="4"/>
<g clip-path="url(#clip0_2456_124632)">
<path d="M55.1162 115.748C56.7387 115.916 58.3688 116 59.9999 116C61.6692 116 63.3176 115.911 64.9419 115.741V90.1602H55.1164L55.1162 115.748Z" fill="#73C3F9"/>
<path d="M64.9419 90.1602H55.1162V96.0693C56.6914 96.5924 58.3405 96.8592 60.0003 96.8594C61.7044 96.8594 63.37 96.578 64.9417 96.0497V90.1602H64.9419Z" fill="#49B1F7"/>
<path d="M51.2406 81.2935C51.0201 81.3521 50.8028 81.422 50.5895 81.503C49.0274 82.0977 46.9342 83.5993 45.7544 87.3742C44.614 87.3936 39.4044 87.669 36.003 91.0179C34.0675 92.9237 33.0859 95.482 33.0859 98.6219V107.508C39.6711 112.131 47.4986 115.104 55.9695 115.826V83.6987L51.2406 81.2935Z" fill="white"/>
<path d="M64.0305 115.826C65.777 115.678 67.5138 115.432 69.2327 115.089V81.418L64.0305 83.6988V115.826Z" fill="white"/>
<path d="M94.7609 100.576C93.833 96.7403 91.467 94.5249 89.5533 93.3151C88.3568 92.5586 86.7969 93.41 86.7969 94.8256V107.59C89.707 105.559 92.3786 103.206 94.7609 100.576Z" fill="#56415E"/>
<path d="M70.8751 85.8231L75.5039 78.6745C74.5355 78.3752 73.5566 78.1111 72.569 77.8828C70.6259 75.9397 70.1332 72.2557 70.0446 69.6782C69.0305 70.8594 67.9663 71.8474 66.9494 72.637C64.9679 74.1757 62.5229 75.0114 60.0048 75.0114C57.4866 75.0114 55.0416 74.1757 53.0603 72.637C52.0434 71.8474 50.979 70.8592 49.9649 69.6782C49.8763 72.2557 49.3836 75.9397 47.4405 77.8828C46.4509 78.1116 45.4699 78.3762 44.4995 78.6762L49.1254 85.822C50.3005 87.6372 51.9112 89.1294 53.8107 90.1625C55.7103 91.1956 57.8382 91.7369 60.0005 91.7368C62.1627 91.7369 64.2904 91.1959 66.1899 90.1629C68.0893 89.13 69.7 87.6381 70.8751 85.8231Z" fill="white"/>
<path d="M53.0606 72.637C52.0437 71.8472 50.9794 70.8592 49.9652 69.6782C49.8765 72.2557 49.3839 75.9397 47.4407 77.8828C46.4511 78.1116 45.4701 78.3763 44.4998 78.6764L47.7058 83.6291C49.9627 84.6462 52.3801 85.167 54.438 84.3225C58.8813 82.499 59.796 77.2887 59.9822 75.0112C57.4723 75.006 55.0359 74.1711 53.0606 72.637Z" fill="white"/>
<path d="M45.5055 78.3765C27.5747 84.2234 22.4607 85.2688 20.3015 89.6731C19.9179 90.4553 19.5617 91.3352 19.23 92.29C22.7304 98.4322 27.5791 103.706 33.3728 107.709V98.6215C33.3728 87.464 45.9671 87.66 45.9671 87.66C47.2792 83.2478 49.8106 81.8803 51.6349 81.4939L45.5055 78.3765Z" fill="white"/>
<path d="M100.77 92.29C100.438 91.3352 100.082 90.4553 99.6982 89.6731C97.5391 85.2688 92.4249 84.2234 74.4942 78.3765L68.3232 81.515V115.263C82.2316 112.772 94.0119 104.148 100.77 92.29Z" fill="white"/>
<path d="M78.2666 48.2578C79.5115 43.1812 80.5281 35.5743 77.8365 29.2449C72.6316 17.0056 58.4662 17.7601 54.7123 18.1912C54.3182 18.2363 54.1205 18.6859 54.3446 19.013C56.5948 22.298 47.7792 19.3218 42.9877 29.3725C39.9509 35.7423 40.714 43.242 41.8242 48.258L78.2666 48.2578Z" fill="white"/>
<path d="M59.7943 31.4854C59.7943 31.4854 58.3833 28.2403 61.9566 25.5606C65.5252 22.8844 60.2055 18.0761 60.1917 18.0636C57.7981 17.912 55.8096 18.0651 54.7121 18.1913C54.318 18.2365 54.1203 18.6861 54.3444 19.0132C56.5946 22.2981 47.779 19.3219 42.9875 29.3727C39.9507 35.7425 40.7138 43.2421 41.8239 48.2581H50.1541L52.8001 47.2069L59.7943 31.4854Z" fill="white"/>
<path d="M78.9984 47.6144C78.213 46.8947 76.4573 47.2595 75.7809 47.7001C75.9284 48.6266 75.9381 49.5698 75.8096 50.499L75.0114 56.3124C75.0114 56.781 74.9967 57.2408 74.9695 57.6925C76.9159 58.2795 78.0741 56.5322 78.237 55.333C78.3069 54.8168 78.4219 54.3077 78.5807 53.8115C79.0983 52.1949 80.966 49.4176 78.9984 47.6144Z" fill="white"/>
<path d="M41.0019 47.6144C41.7872 46.8947 43.543 47.2595 44.2194 47.7001C44.0719 48.6266 44.0622 49.5698 44.1909 50.499L44.9891 56.3124C44.9891 56.781 45.0038 57.2408 45.031 57.6925C43.0846 58.2795 41.9264 56.5322 41.7635 55.333C41.6936 54.8168 41.5786 54.3077 41.4197 53.8115C40.902 52.1949 39.0343 49.4176 41.0019 47.6144Z" fill="white"/>
<path d="M74.8004 44.5134C73.9159 43.1259 74.209 41.9925 74.2233 40.6655C74.2233 40.6655 74.9694 34.5564 67.4454 32.3872C65.2672 31.7592 62.1934 31.3837 59.0439 31.5044C56.8521 33.0497 55.4089 35.3171 55.4089 38.53C55.4089 40.0069 55.7272 41.1607 54.821 42.6579C53.8437 44.2724 53.2753 46.6012 53.5982 49.078L54.4114 55.3158C54.4114 64.2833 58.957 70.3789 62.8236 73.5409C63.3691 73.9853 63.9548 74.3782 64.573 74.7144C65.4185 74.3425 66.215 73.8681 66.9447 73.3018C70.7405 70.3542 75.2028 64.6723 75.2028 56.3128L76.0009 50.4994C76.3154 48.209 75.7695 46.0337 74.8004 44.5134Z" fill="white"/>
<path d="M62.8625 73.1753C59.0668 70.071 54.6043 64.0873 54.6043 55.2836L53.806 49.1599C53.489 46.7286 54.0471 44.4423 55.0065 42.8573C55.8961 41.3875 55.5835 40.2547 55.5835 38.8048C55.5835 35.3455 57.2848 32.9997 59.7943 31.4849C53.1071 31.5773 45.7767 33.8439 45.7767 40.6651C45.7767 42.0417 46.089 43.1174 45.1996 44.5131C44.2402 46.0181 43.6821 48.1891 43.9991 50.4978L44.7974 56.3125C44.7974 64.672 49.2597 70.3539 53.0556 73.3016C55.0369 74.8401 57.4819 75.6758 60.0001 75.6758C61.7325 75.6758 63.4301 75.2803 64.9659 74.5325C64.2162 74.1603 63.5106 73.705 62.8625 73.1753Z" fill="white"/>
<path d="M76.7716 77.8808C75.1479 76.1094 73.247 74.6139 71.1433 73.4526C71.0921 73.4244 71.0351 73.4086 70.9767 73.4065C70.9183 73.4044 70.8602 73.4161 70.8072 73.4407C70.7542 73.4652 70.7077 73.5019 70.6715 73.5478C70.6353 73.5937 70.6105 73.6474 70.5989 73.7047C70.2898 75.2185 69.0066 79.8044 64.4272 82.8363C63.4811 83.4628 63.3067 84.7814 64.053 85.6362L68.6546 90.9067C69.7617 92.1819 71.8002 91.9524 72.5991 90.4648C73.9501 87.9497 75.8322 84.1218 77.2252 80.006C77.4746 79.2692 77.2974 78.4542 76.7716 77.8808Z" fill="white"/>
<path d="M55.5756 82.8362C54.8021 82.3243 54.0806 81.7377 53.4217 81.0848C52.8653 81.04 51.799 81.0425 50.5895 81.5029C49.0402 82.0926 46.9694 83.5756 45.7844 87.2818C46.3006 88.3546 46.8405 89.4158 47.4037 90.4647C48.2028 91.9523 50.2411 92.1818 51.3482 90.9066L55.9498 85.6363C56.6961 84.7813 56.5217 83.4625 55.5756 82.8362Z" fill="white"/>
<path d="M53.77 81.4179C50.6431 78.5264 49.6679 74.9968 49.4042 73.7048C49.3926 73.6475 49.3678 73.5938 49.3316 73.5479C49.2954 73.502 49.2489 73.4653 49.1958 73.4407C49.1428 73.4162 49.0847 73.4044 49.0263 73.4065C48.9679 73.4085 48.9108 73.4243 48.8596 73.4526C46.7559 74.6138 44.8551 76.1094 43.2315 77.8808C42.7057 78.4542 42.5285 79.2692 42.7779 80.0061C43.7223 82.7968 44.8914 85.4537 45.9677 87.6601C48.1621 80.2802 53.7694 81.4177 53.77 81.4179Z" fill="white"/>
<path d="M18.4007 94.2406C18.7645 92.3591 20.4116 91 22.328 91H97.908C99.8394 91 101.495 92.3801 101.843 94.28L106 117H14L18.4007 94.2406Z" fill="white"/>
</g>
<defs>
<clipPath id="clip0_2456_124632">
<rect width="98" height="98" fill="white" transform="translate(11 18)"/>
</clipPath>
</defs>
</svg>
