<svg width="34" height="34" viewBox="0 0 34 34" fill="none" xmlns="http://www.w3.org/2000/svg">
<circle cx="17" cy="17" r="17" fill="#F9FAFB"/>
<path d="M12 25.6622L12.3755 25.013L12.1065 24.8573L11.8061 24.9377L12 25.6622ZM7 27L6.27549 26.8061C6.20625 27.0649 6.28027 27.3409 6.46967 27.5303C6.65907 27.7197 6.9351 27.7937 7.19385 27.7245L7 27ZM8.33782 22L9.06234 22.1939L9.14269 21.8935L8.98703 21.6245L8.33782 22ZM26.25 17C26.25 22.1086 22.1086 26.25 17 26.25V27.75C22.9371 27.75 27.75 22.9371 27.75 17H26.25ZM7.75 17C7.75 11.8914 11.8914 7.75 17 7.75V6.25C11.0629 6.25 6.25 11.0629 6.25 17H7.75ZM17 7.75C22.1086 7.75 26.25 11.8914 26.25 17H27.75C27.75 11.0629 22.9371 6.25 17 6.25V7.75ZM17 26.25C15.3139 26.25 13.7353 25.7996 12.3755 25.013L11.6245 26.3114C13.2064 27.2265 15.0432 27.75 17 27.75V26.25ZM11.8061 24.9377L6.80615 26.2755L7.19385 27.7245L12.1939 26.3867L11.8061 24.9377ZM8.98703 21.6245C8.20043 20.2647 7.75 18.6861 7.75 17H6.25C6.25 18.9568 6.77351 20.7936 7.68862 22.3755L8.98703 21.6245ZM7.72451 27.1939L9.06234 22.1939L7.61331 21.8061L6.27549 26.8061L7.72451 27.1939Z" fill="#475467"/>
<path d="M11.9998 12V11.25C11.8008 11.25 11.6101 11.329 11.4694 11.4697C11.3288 11.6103 11.2498 11.8011 11.2498 12H11.9998ZM15.4999 15.5L16.0254 16.0351L16.296 15.7694L16.2423 15.3939L15.4999 15.5ZM14.9999 12L15.7423 11.8939C15.6896 11.5244 15.3731 11.25 14.9999 11.25V12ZM21.9999 22V22.75C22.1988 22.75 22.3896 22.671 22.5302 22.5303C22.6709 22.3897 22.7499 22.1989 22.7499 22H21.9999ZM18.4998 18.5L18.6225 17.7601L18.2378 17.6963L17.9646 17.9745L18.4998 18.5ZM21.9999 19.0805H22.7499C22.7499 18.7137 22.4845 18.4007 22.1226 18.3406L21.9999 19.0805ZM15.4497 18.5502C14.101 17.2015 12.7498 14.7687 12.7498 12H11.2498C11.2498 15.2313 12.8084 18.0302 14.389 19.6108L15.4497 18.5502ZM14.9744 14.9649L13.0626 16.8422L14.1135 17.9125L16.0254 16.0351L14.9744 14.9649ZM14.2574 12.1061L14.7574 15.6061L16.2423 15.3939L15.7423 11.8939L14.2574 12.1061ZM14.389 19.6108C15.9697 21.1915 18.7686 22.75 21.9999 22.75V21.25C19.2312 21.25 16.7984 19.8989 15.4497 18.5502L14.389 19.6108ZM17.9646 17.9745L16.0874 19.8864L17.1577 20.9373L19.0349 19.0255L17.9646 17.9745ZM22.1226 18.3406L18.6225 17.7601L18.377 19.2399L21.8772 19.8204L22.1226 18.3406ZM21.2499 19.0805V22H22.7499V19.0805H21.2499ZM14.9999 11.25H11.9998V12.75H14.9999V11.25Z" fill="#475467"/>
</svg>
