<svg width="160" height="127" viewBox="0 0 160 127" fill="none" xmlns="http://www.w3.org/2000/svg">
<path fill-rule="evenodd" clip-rule="evenodd" d="M97.2791 114.22H56.474C53.6019 114.22 51.251 111.798 51.251 108.838V49.0556C51.251 46.095 53.6019 43.6738 56.474 43.6738H97.2791C100.152 43.6738 102.503 46.095 102.503 49.0556V108.838C102.503 111.798 100.152 114.22 97.2791 114.22Z" fill="#D0D5DD"/>
<path fill-rule="evenodd" clip-rule="evenodd" d="M93.7962 116.777H52.9911C50.119 116.777 47.7681 114.355 47.7681 111.394V51.6122C47.7681 48.6516 50.119 46.2305 52.9911 46.2305H93.7962C96.6694 46.2305 99.0204 48.6516 99.0204 51.6122V111.394C99.0204 114.355 96.6694 116.777 93.7962 116.777Z" fill="#E4E7EC"/>
<path fill-rule="evenodd" clip-rule="evenodd" d="M90.4079 118.795H49.5185C46.6405 118.795 44.2847 116.382 44.2847 113.434V53.8995C44.2847 50.9512 46.6405 48.54 49.5185 48.54H90.4079C93.2871 48.54 95.6429 50.9512 95.6429 53.8995V113.434C95.6429 116.382 93.2871 118.795 90.4079 118.795Z" fill="#D8DBEA"/>
<path fill-rule="evenodd" clip-rule="evenodd" d="M90.4079 118.795H49.5185C46.6405 118.795 44.2847 116.382 44.2847 113.434V53.8995C44.2847 50.9512 46.6405 48.54 49.5185 48.54H90.4079C93.2871 48.54 95.6429 50.9512 95.6429 53.8995V113.434C95.6429 116.382 93.2871 118.795 90.4079 118.795Z" fill="#F9FAFB"/>
<path fill-rule="evenodd" clip-rule="evenodd" d="M84.514 66.6786H54.3122C53.4497 66.6786 52.7437 65.9885 52.7437 65.1455C52.7437 64.3014 53.4497 63.6113 54.3122 63.6113H84.514C85.3765 63.6113 86.0825 64.3014 86.0825 65.1455C86.0825 65.9885 85.3765 66.6786 84.514 66.6786Z" fill="#E4E7EC"/>
<path fill-rule="evenodd" clip-rule="evenodd" d="M84.514 75.8797H54.3122C53.4497 75.8797 52.7437 75.1897 52.7437 74.3467C52.7437 73.5025 53.4497 72.8125 54.3122 72.8125H84.514C85.3765 72.8125 86.0825 73.5025 86.0825 74.3467C86.0825 75.1897 85.3765 75.8797 84.514 75.8797Z" fill="#E4E7EC"/>
<path fill-rule="evenodd" clip-rule="evenodd" d="M84.514 85.0809H54.3122C53.4497 85.0809 52.7437 84.3909 52.7437 83.5479C52.7437 82.7049 53.4497 82.0137 54.3122 82.0137H84.514C85.3765 82.0137 86.0825 82.7049 86.0825 83.5479C86.0825 84.3909 85.3765 85.0809 84.514 85.0809Z" fill="#E4E7EC"/>
<path fill-rule="evenodd" clip-rule="evenodd" d="M84.514 94.284H54.3122C53.4497 94.284 52.7437 93.594 52.7437 92.751C52.7437 91.9068 53.4497 91.2168 54.3122 91.2168H84.514C85.3765 91.2168 86.0825 91.9068 86.0825 92.751C86.0825 93.594 85.3765 94.284 84.514 94.284Z" fill="#E4E7EC"/>
<path fill-rule="evenodd" clip-rule="evenodd" d="M70.077 103.485H54.3189C53.4527 103.485 52.7437 102.795 52.7437 101.952C52.7437 101.108 53.4527 100.418 54.3189 100.418H70.077C70.9432 100.418 71.6523 101.108 71.6523 101.952C71.6523 102.795 70.9432 103.485 70.077 103.485Z" fill="#E4E7EC"/>
<path fill-rule="evenodd" clip-rule="evenodd" d="M101.882 91.5916C95.8426 97.7949 86.4932 98.4947 79.7056 93.7053C78.8382 93.0823 78.0125 92.3824 77.2426 91.5916C76.8462 91.1857 76.4727 90.7669 76.1206 90.3259C75.4165 89.4453 74.7998 88.5062 74.2946 87.5358C73.4043 85.8969 72.799 84.1578 72.4685 82.3601C71.4023 76.7226 72.9966 70.6546 77.2426 66.2945C81.4988 61.9213 87.4062 60.2941 92.8945 61.3789C94.6433 61.7288 96.3377 62.3506 97.9333 63.2546C98.8792 63.7853 99.7809 64.4188 100.639 65.142C101.067 65.5023 101.475 65.8873 101.87 66.2945C102.642 67.0853 103.333 67.9321 103.928 68.8244C108.592 75.7952 107.909 85.4 101.882 91.5916Z" fill="white" fill-opacity="0.1"/>
<path fill-rule="evenodd" clip-rule="evenodd" d="M100.191 90.3698C93.9083 96.8258 83.7263 96.8246 77.4422 90.3698C71.1662 83.9222 71.1662 73.4604 77.4503 67.0056C83.7263 60.558 93.9083 60.558 100.184 67.0056C106.467 73.4604 106.467 83.9222 100.191 90.3698ZM103.416 63.6886C95.3509 55.4033 82.2823 55.4033 74.2177 63.6886C66.1541 71.9727 66.1471 85.4072 74.2106 93.6925C81.5505 101.231 93.0548 101.911 101.146 95.7212C101.937 95.1159 102.698 94.4372 103.424 93.6925C104.149 92.9466 104.809 92.1647 105.397 91.3528C111.422 83.0386 110.754 71.228 103.416 63.6886Z" fill="#E0E2EE"/>
<path fill-rule="evenodd" clip-rule="evenodd" d="M135.154 124.925L134.816 125.273C132.576 127.575 128.908 127.575 126.667 125.273L105.984 104.025L114.472 95.3047L135.154 116.553C137.396 118.855 137.396 122.622 135.154 124.925Z" fill="url(#paint0_linear_5200_134929)" fill-opacity="0.69"/>
<path fill-rule="evenodd" clip-rule="evenodd" d="M105.844 90.7041L111.955 96.983L107.616 101.439L101.506 95.1605C102.312 94.5428 103.088 93.8503 103.83 93.0904C104.569 92.3305 105.244 91.5326 105.844 90.7041Z" fill="#E4E7EC"/>
<path fill-rule="evenodd" clip-rule="evenodd" d="M134.844 116.292L126.411 124.956L124.893 123.395L133.325 114.731L134.844 116.292Z" fill="url(#paint1_linear_5200_134929)"/>
<path fill-rule="evenodd" clip-rule="evenodd" d="M114.941 95.6056L106.276 104.507L104.989 103.185L113.653 94.2832L114.941 95.6056Z" fill="url(#paint2_linear_5200_134929)"/>
<path fill-rule="evenodd" clip-rule="evenodd" d="M96.032 64.7849L74.7829 86.6142C73.9827 85.1407 73.4385 83.5772 73.1426 81.9611L91.5026 63.0986C93.0746 63.4144 94.5977 63.9722 96.032 64.7849Z" fill="white" fill-opacity="0.78"/>
<path fill-rule="evenodd" clip-rule="evenodd" d="M102.999 69.9742L80.026 92.2381C79.2033 91.6817 78.4203 91.0555 77.6901 90.3478C77.3141 89.9834 76.9587 89.6098 76.626 89.2152L99.8783 66.6777C100.285 67.0013 100.672 67.3459 101.047 67.7102C101.777 68.4179 102.434 69.1757 102.999 69.9742Z" fill="white" fill-opacity="0.78"/>
<rect width="10.6871" height="10.6871" transform="matrix(-0.697502 -0.716583 -0.697502 0.716583 159.512 90.8984)" fill="#F2F4F7"/>
<rect width="22.8664" height="22.8664" transform="matrix(0.697502 0.716583 -0.697502 0.716583 27.6187 0.276367)" fill="#F2F4F7"/>
<rect width="16.4317" height="16.4317" transform="matrix(0.697502 0.716583 -0.697502 0.716583 11.9487 42.3955)" fill="#F2F4F7"/>
<defs>
<linearGradient id="paint0_linear_5200_134929" x1="121.41" y1="79.4573" x2="100.703" y2="99.6125" gradientUnits="userSpaceOnUse">
<stop stop-color="#F9FAFB"/>
<stop offset="1" stop-color="#E0E2EE"/>
</linearGradient>
<linearGradient id="paint1_linear_5200_134929" x1="129.869" y1="109.619" x2="119.648" y2="119.568" gradientUnits="userSpaceOnUse">
<stop stop-color="#E0E2EE"/>
<stop offset="1" stop-color="#F9FAFB"/>
</linearGradient>
<linearGradient id="paint2_linear_5200_134929" x1="109.965" y1="89.1711" x2="99.7443" y2="99.1194" gradientUnits="userSpaceOnUse">
<stop stop-color="#E0E2EE"/>
<stop offset="1" stop-color="#F9FAFB"/>
</linearGradient>
</defs>
</svg>
