<svg width="34" height="34" viewBox="0 0 34 34" fill="none" xmlns="http://www.w3.org/2000/svg">
<circle cx="17" cy="17" r="17" fill="#344444"/>
<g clip-path="url(#clip0_2456_124662)">
<path d="M8.74002 13.3092L8.00479 13.4573L8.00484 13.4576L8.74002 13.3092ZM13.6667 13.6665L14.1781 14.2151L14.5888 13.8323L14.3372 13.3304L13.6667 13.6665ZM11.1604 8.6665L11.8308 8.33041C11.7289 8.127 11.5401 7.98088 11.3176 7.93317C11.0951 7.88547 10.863 7.94133 10.6866 8.08505L11.1604 8.6665ZM13.1495 20.8504L13.68 20.3203L13.6796 20.3199L13.1495 20.8504ZM20.6905 25.26L20.5421 25.9952L20.5424 25.9952L20.6905 25.26ZM20.3332 20.3333L20.6693 19.6628L20.1674 19.4112L19.7846 19.8219L20.3332 20.3333ZM25.3332 22.8397L25.9147 23.3134C26.0584 23.137 26.1142 22.9049 26.0665 22.6824C26.0188 22.4599 25.8727 22.2711 25.6693 22.1692L25.3332 22.8397ZM8.00484 13.4576C8.25049 14.6748 8.66008 15.8759 9.49153 17.3251L10.7926 16.5786C10.0434 15.2727 9.68976 14.2241 9.4752 13.1609L8.00484 13.4576ZM10.6534 17.5005L14.1781 14.2151L13.1554 13.1179L9.63069 16.4032L10.6534 17.5005ZM14.3372 13.3304L11.8308 8.33041L10.4899 9.0026L12.9963 14.0026L14.3372 13.3304ZM10.6866 8.08505C9.43251 9.10681 7.47502 10.8275 8.00479 13.4573L9.47525 13.1611C9.14176 11.5057 10.3079 10.3284 11.6341 9.24796L10.6866 8.08505ZM9.49153 17.3251C10.3273 18.7819 11.3976 20.1601 12.6193 21.381L13.6796 20.3199C12.5452 19.1864 11.558 17.9127 10.7926 16.5786L9.49153 17.3251ZM20.8388 24.5248C19.7757 24.3103 18.727 23.9566 17.4211 23.2074L16.6746 24.5085C18.1238 25.3399 19.3249 25.7495 20.5421 25.9952L20.8388 24.5248ZM17.5965 24.3693L20.8818 20.8446L19.7846 19.8219L16.4992 23.3466L17.5965 24.3693ZM19.9971 21.0037L24.9971 23.5101L25.6693 22.1692L20.6693 19.6628L19.9971 21.0037ZM24.7517 22.3659C23.6713 23.6921 22.494 24.8582 20.8386 24.5248L20.5424 25.9952C23.1722 26.525 24.8929 24.5675 25.9147 23.3134L24.7517 22.3659ZM17.4211 23.2074C16.087 22.442 14.8136 21.4547 13.68 20.3203L12.6189 21.3806C13.8398 22.6023 15.2178 23.6726 16.6746 24.5085L17.4211 23.2074Z" fill="#FFFFFF"/>
</g>
<defs>
<clipPath id="clip0_2456_124662">
<rect width="20" height="20" fill="#344444" transform="translate(7 7)"/>
</clipPath>
</defs>
</svg>

