<svg width="24" height="24" viewBox="0 0 24 24" fill="none" xmlns="http://www.w3.org/2000/svg">
<g clip-path="url(#clip0_219_7663)">
<path d="M5.78294 23.5475H1.13237C0.952223 23.5475 0.779455 23.4759 0.652071 23.3485C0.524688 23.2211 0.453125 23.0484 0.453125 22.8682V18.2177C0.453125 18.0375 0.524688 17.8647 0.652071 17.7374C0.779455 17.61 0.952223 17.5384 1.13237 17.5384C1.31252 17.5384 1.48529 17.61 1.61267 17.7374C1.74005 17.8647 1.81162 18.0375 1.81162 18.2177V22.189H5.78294C5.96308 22.189 6.13585 22.2605 6.26324 22.3879C6.39062 22.5153 6.46218 22.6881 6.46218 22.8682C6.46218 23.0484 6.39062 23.2211 6.26324 23.3485C6.13585 23.4759 5.96308 23.5475 5.78294 23.5475ZM22.8682 6.46218C22.6881 6.46218 22.5153 6.39062 22.3879 6.26324C22.2605 6.13585 22.189 5.96308 22.189 5.78294V1.81162H18.2177C18.0375 1.81162 17.8647 1.74005 17.7374 1.61267C17.61 1.48529 17.5384 1.31252 17.5384 1.13237C17.5384 0.952223 17.61 0.779455 17.7374 0.652071C17.8647 0.524688 18.0375 0.453125 18.2177 0.453125H22.8682C23.0484 0.453125 23.2211 0.524688 23.3485 0.652071C23.4759 0.779455 23.5475 0.952223 23.5475 1.13237V5.78294C23.5475 5.96308 23.4759 6.13585 23.3485 6.26324C23.2211 6.39062 23.0484 6.46218 22.8682 6.46218ZM22.8682 23.5475H18.2177C18.0375 23.5475 17.8647 23.4759 17.7374 23.3485C17.61 23.2211 17.5384 23.0484 17.5384 22.8682C17.5384 22.6881 17.61 22.5153 17.7374 22.3879C17.8647 22.2605 18.0375 22.189 18.2177 22.189H22.189V18.2177C22.189 18.0375 22.2605 17.8647 22.3879 17.7374C22.5153 17.61 22.6881 17.5384 22.8682 17.5384C23.0484 17.5384 23.2211 17.61 23.3485 17.7374C23.4759 17.8647 23.5475 18.0375 23.5475 18.2177V22.8682C23.5475 23.0484 23.4759 23.2211 23.3485 23.3485C23.2211 23.4759 23.0484 23.5475 22.8682 23.5475ZM1.13237 6.46218C0.952223 6.46218 0.779455 6.39062 0.652071 6.26324C0.524688 6.13585 0.453125 5.96308 0.453125 5.78294V1.13237C0.453125 0.952223 0.524688 0.779455 0.652071 0.652071C0.779455 0.524688 0.952223 0.453125 1.13237 0.453125H5.78294C5.96308 0.453125 6.13585 0.524688 6.26324 0.652071C6.39062 0.779455 6.46218 0.952223 6.46218 1.13237C6.46218 1.31252 6.39062 1.48529 6.26324 1.61267C6.13585 1.74005 5.96308 1.81162 5.78294 1.81162H1.81162V5.78294C1.81162 5.96308 1.74005 6.13585 1.61267 6.26324C1.48529 6.39062 1.31252 6.46218 1.13237 6.46218Z" fill="#5D6A6A"/>
<path d="M21.0181 6.25332V17.7489C21.0181 18.2492 20.6156 18.6545 20.1152 18.6545C18.4696 18.6545 14.1641 18.6532 3.88711 18.6482C3.64691 18.6482 3.41655 18.5528 3.24671 18.3829C3.07686 18.2131 2.98145 17.9827 2.98145 17.7425V6.25332C2.98145 6.01312 3.07686 5.78276 3.24671 5.61292C3.41655 5.44307 3.64691 5.34766 3.88711 5.34766H20.1125C20.3527 5.34766 20.583 5.44307 20.7529 5.61292C20.9227 5.78276 21.0181 6.01312 21.0181 6.25332Z" fill="#EDEDED"/>
<path d="M12.5606 7.60156H13.4382V16.4001H12.5606V7.60156ZM17.3045 7.60156H18.1821V16.4001H17.3045V7.60156ZM18.8645 7.60156H19.7493V16.4001H18.8645V7.60156ZM6.58417 7.60156H7.44771V16.3892H6.58417V7.60156ZM8.74371 7.60156H10.5894V16.4001L8.74371 16.3892V7.60156ZM14.7686 7.60156H16.6076V16.4001H14.7686V7.60156ZM11.4951 7.60156H11.9199V16.4001H11.4951V7.60156ZM4.25073 7.60156H6.1173V16.3892H4.25073V7.60156Z" fill="#5D6A6A"/>
<path d="M24.0005 11.5002C24.0005 11.7764 23.6626 12 23.2461 12H0.755069C0.554942 12 0.363011 11.9473 0.2215 11.8536C0.0799885 11.7598 0.000488281 11.6326 0.000488281 11.5C0.000488281 11.3674 0.0799885 11.2402 0.2215 11.1464C0.363011 11.0527 0.554942 11 0.755069 11H23.2461C23.6626 11 24.0005 11.2239 24.0005 11.5002Z" fill="#5D6A6A"/>
</g>
<defs>
<clipPath id="clip0_219_7663">
<rect width="24" height="24" fill="white"/>
</clipPath>
</defs>
</svg>
