<svg width="60" height="80" viewBox="0 0 36 48" fill="none" xmlns="http://www.w3.org/2000/svg">
<g clip-path="url(#clip0_6541_163703)">
<path fill-rule="evenodd" clip-rule="evenodd" d="M17.9229 39.3479C10.2836 39.3479 3.28225 34.8321 0.0930601 27.8443L0 27.6407V11.7089L0.0930601 11.5053C3.2789 4.51746 10.2836 0 17.9229 0C21.7478 0.0018934 25.4887 1.12589 28.6854 3.2337C31.8821 5.34152 34.3952 8.3412 35.9153 11.8637L35.9992 12.0606V27.2899L35.9153 27.4867C34.3952 31.0092 31.8821 34.0089 28.6854 36.1167C25.4887 38.2246 21.7478 39.3485 17.9229 39.3504V39.3479ZM2.04229 27.1906C4.94057 33.3395 11.1521 37.2941 17.9229 37.2941C21.3137 37.293 24.6318 36.3074 27.477 34.4562C30.3222 32.6049 32.5729 29.9671 33.9577 26.8607V12.4889C32.5731 9.38242 30.3224 6.74444 27.4772 4.89315C24.6319 3.04186 21.3137 2.05636 17.9229 2.05553C11.1521 2.05553 4.94057 6.01514 2.04229 12.1624V27.1906Z" />
<path fill-rule="evenodd" clip-rule="evenodd" d="M31.4443 13.4489C30.9912 12.4648 30.4317 11.5337 29.7759 10.6723L29.0298 9.69205V16.9281C28.27 16.7654 27.5892 16.3452 27.1017 15.7381C26.6142 15.1311 26.3498 14.3741 26.3528 13.5944V7.40177L26.1667 7.27808C25.631 6.92414 25.0732 6.60516 24.4967 6.3231L23.8972 6.02861V13.5944C23.9009 14.4925 24.1085 15.378 24.5042 16.1835C24.8999 16.989 25.4734 17.6934 26.181 18.2432C25.4728 18.7924 24.8989 19.4967 24.5031 20.3023C24.1073 21.108 23.9001 21.9937 23.8972 22.8919V33.3252L24.4967 33.0324C25.0724 32.7489 25.6302 32.43 26.1667 32.0774L26.3528 31.9537V22.8919C26.3522 22.1131 26.6176 21.3577 27.1047 20.7516C27.5919 20.1454 28.2713 19.7251 29.0298 19.5608V29.6677L29.7759 28.6841C30.432 27.8228 30.9915 26.8917 31.4443 25.9074L31.477 13.5852L31.4443 13.4489Z" />
<path fill-rule="evenodd" clip-rule="evenodd" d="M19.4781 4.92302H16.5203C15.2133 4.92302 14.1553 6.3189 14.1553 8.03619V31.3202C14.1553 33.0349 15.2133 34.4333 16.5203 34.4333H19.4781C20.7827 34.4333 21.8466 33.0383 21.8466 31.3202V19.5734L16.8876 19.5583L16.958 20.0379C17.0292 20.5392 17.2759 20.9986 17.654 21.334C18.0321 21.6693 18.5168 21.8586 19.0212 21.8679H19.3474V31.3202C19.3513 31.5288 19.3062 31.7355 19.2157 31.9234H16.7844C16.6938 31.7356 16.649 31.5288 16.6536 31.3202V8.0345C16.6487 7.82528 16.6935 7.61788 16.7844 7.42954H19.2157C19.3066 7.61792 19.3517 7.82524 19.3474 8.0345V15.0114H21.8466V8.0345C21.8466 6.3189 20.7827 4.92302 19.4781 4.92302Z" />
<path fill-rule="evenodd" clip-rule="evenodd" d="M9.83332 7.27808L9.64468 7.40177V13.5944C9.64756 14.3742 9.38347 15.1312 8.89661 15.7388C8.40975 16.3464 7.72968 16.7678 6.97025 16.9323V9.69626L6.22409 10.6799C5.56788 11.541 5.00837 12.4721 4.55572 13.4565L4.52051 25.7669L4.55572 25.9016C5.00794 26.8861 5.56748 27.8173 6.22409 28.6782L6.97025 29.6592V19.5583C7.72905 19.7225 8.40867 20.1431 8.89547 20.7499C9.38228 21.3567 9.64676 22.1129 9.64468 22.8919V31.9546L9.8308 32.0757C10.3665 32.4302 10.9243 32.7498 11.5009 33.0324L12.1003 33.3252V22.8919C12.0973 21.994 11.89 21.1088 11.4942 20.3035C11.0984 19.4983 10.5246 18.7945 9.81655 18.2457C10.5251 17.6962 11.0992 16.9915 11.4949 16.1854C11.8907 15.3793 12.0978 14.4931 12.1003 13.5944V6.02861L11.5009 6.3231C10.925 6.60497 10.368 6.92396 9.83332 7.27808Z" />
<path fill-rule="evenodd" clip-rule="evenodd" d="M3.38544 44.2146C3.68306 44.2146 4.11567 44.3366 4.28083 44.5124C4.27412 44.7076 4.15088 44.9937 3.88511 44.9129C3.71575 44.8449 3.53653 44.8049 3.35442 44.7943C3.07775 44.7943 2.8975 44.9222 2.8975 45.1308C2.8975 45.3589 3.07189 45.4834 3.61264 45.7737C4.13411 46.0454 4.41832 46.2634 4.41832 46.817C4.41832 47.5515 3.76523 47.952 3.07692 47.9546C2.7733 47.9618 2.47387 47.8824 2.21339 47.7257C2.09937 47.6533 2.05493 47.5818 2.05493 47.4952C2.05493 47.3689 2.16895 47.1056 2.22261 47.0745C2.43472 47.2108 2.78516 47.3664 3.07105 47.3664C3.35693 47.3664 3.60006 47.2486 3.60006 46.9743C3.60006 46.769 3.5112 46.6378 2.95451 46.3584C2.2486 46.0118 2.11613 45.6315 2.11613 45.2427C2.11613 44.854 2.39783 44.2162 3.3737 44.2162L3.38544 44.2146Z" />
<path fill-rule="evenodd" clip-rule="evenodd" d="M5.58272 45.0475C5.58272 44.6664 5.58272 44.4316 5.56763 44.3239C5.68835 44.3071 6.15449 44.2785 6.29199 44.2785C6.40349 44.2785 6.42193 44.3324 6.42193 44.5957V47.1451C6.42193 47.5456 6.43283 47.7341 6.43703 47.846C6.20081 47.8776 5.96271 47.8931 5.7244 47.8923C5.62128 47.8923 5.58272 47.8772 5.58272 47.7804V45.0475Z" />
<path fill-rule="evenodd" clip-rule="evenodd" d="M7.77173 44.3534V44.3197C7.89078 44.3037 8.4986 44.2743 8.61011 44.2743C8.64315 44.2778 8.67498 44.2887 8.70328 44.3061C8.73157 44.3236 8.7556 44.3472 8.77359 44.3753C8.95552 44.6571 9.36046 45.3092 9.67569 45.857C9.91546 46.2617 10.0831 46.5351 10.2257 46.8313C10.1915 46.5688 10.178 46.3041 10.1854 46.0395L10.193 44.4459C10.193 44.3155 10.2374 44.2928 10.3204 44.2928C10.5174 44.276 10.7497 44.2701 10.8922 44.2701C10.8813 44.5149 10.8737 44.8448 10.8737 45.3176L10.8687 47.8233C10.6554 47.8764 10.4376 47.9091 10.2181 47.9209C10.1824 47.924 10.1466 47.9164 10.1153 47.899C10.0839 47.8817 10.0584 47.8553 10.0421 47.8233C9.79893 47.4649 9.6388 47.1796 9.18607 46.4333C8.85743 45.8982 8.7367 45.602 8.4986 45.1392C8.53801 45.6441 8.53214 45.9335 8.53214 46.2238L8.52627 47.7274C8.52627 47.8376 8.49106 47.8519 8.38458 47.8704C8.19993 47.893 8.01377 47.9006 7.8279 47.8931C7.83628 47.6668 7.84383 47.3353 7.84634 46.8557V44.4838L7.77173 44.3534Z" />
<path fill-rule="evenodd" clip-rule="evenodd" d="M15.1285 47.1889C15.0933 47.4691 15.0237 47.618 14.9206 47.7299C14.672 47.8697 14.3906 47.94 14.1057 47.9335C12.7777 47.9335 12.0735 47.2032 12.0735 46.1102C12.0735 44.9129 12.9957 44.1977 14.1334 44.1952C14.6557 44.1952 15.0992 44.3719 15.1914 44.4804C15.1956 44.7329 15.0447 44.9684 14.784 44.8961C14.5736 44.816 14.3508 44.7739 14.1258 44.7716C13.4669 44.7716 12.9655 45.1847 12.9613 46.0522C12.9613 46.7573 13.4275 47.3277 14.2876 47.3277C14.5656 47.3263 14.841 47.275 15.1009 47.1763L15.1285 47.1889Z" />
<path fill-rule="evenodd" clip-rule="evenodd" d="M16.2394 45.077C16.2394 44.8027 16.2394 44.6142 16.2227 44.3568C16.4755 44.3076 16.7322 44.2814 16.9898 44.2785H18.3605C18.3178 44.6041 18.2339 44.7345 18.166 44.8153C18.0688 44.8549 17.8365 44.8549 17.5842 44.8549H17.0812V45.7249H18.3002C18.2314 46.2154 18.1107 46.2995 17.9053 46.2995L17.0778 46.297V47.273C17.2261 47.2933 17.3758 47.3023 17.5255 47.3C17.7426 47.3 18.2105 47.3 18.5131 47.2814L18.5223 47.2941C18.4603 47.5911 18.3404 47.7509 18.187 47.8469C17.918 47.8749 17.6474 47.885 17.3771 47.8772C17.0278 47.8837 16.6785 47.8657 16.3316 47.8233L16.2419 47.7072L16.2394 45.077Z" />
<path fill-rule="evenodd" clip-rule="evenodd" d="M23.1468 44.4215C23.1468 44.8027 23.1586 47.2318 23.1586 47.6946C23.1586 47.809 23.1116 47.8343 23.0001 47.8435C22.7712 47.8612 22.4174 47.8671 22.311 47.8671C22.3151 47.5642 22.3219 46.3155 22.3244 45.1805C22.0803 45.2457 21.8329 45.2976 21.5832 45.3361L21.5698 45.3067L21.7165 44.8633C22.1906 44.7335 22.6571 44.5776 23.1141 44.3963L23.1468 44.4215Z" />
<path fill-rule="evenodd" clip-rule="evenodd" d="M24.8698 47.5591C25.2052 47.5095 25.6319 47.3908 25.9454 47.0862C26.3043 46.7371 26.3839 46.2516 26.3873 45.7896C26.3873 45.2688 26.2372 44.9037 25.9178 44.9053C25.652 44.9053 25.4986 45.1872 25.4986 45.4724C25.4986 45.91 25.7786 46.053 26.0016 46.053C26.0816 46.0497 26.1608 46.0359 26.2372 46.0118C26.2439 46.1489 26.1626 46.4055 26.0695 46.4804C25.9765 46.5553 25.8021 46.6008 25.6168 46.6008C25.0978 46.6008 24.6946 46.244 24.6946 45.597C24.6946 44.9718 25.1699 44.3938 25.9739 44.3938C26.8224 44.3938 27.2256 45.0761 27.2231 45.8435C27.2231 46.4325 27.0555 46.9583 26.5818 47.4262C26.1257 47.8662 25.6025 47.9992 25.3242 47.9992C25.2299 48.0068 25.1357 47.9841 25.0551 47.9344C24.9975 47.8933 24.9494 47.8402 24.9141 47.7788C24.8788 47.7174 24.8571 47.6491 24.8505 47.5785L24.8698 47.5591Z" />
<path fill-rule="evenodd" clip-rule="evenodd" d="M29.4984 44.3862C30.5556 44.3862 30.6998 45.5145 30.6998 46.0917C30.6998 47.2697 30.2203 47.8898 29.4062 47.8898C28.7682 47.8898 28.1612 47.4809 28.1646 46.17C28.1646 45.3067 28.5117 44.3912 29.4926 44.3862H29.4984ZM29.4389 44.9028C29.0432 44.9028 28.9895 45.7072 28.9879 46.1186C28.9879 47.0997 29.2293 47.3807 29.4464 47.3807C29.6024 47.3807 29.8791 47.2478 29.8816 46.0951C29.8816 45.1258 29.6636 44.9037 29.4464 44.9062L29.4389 44.9028Z" />
<path fill-rule="evenodd" clip-rule="evenodd" d="M31.72 46.1515C31.829 45.5541 32.0612 44.6454 32.1241 44.5149C32.3454 44.525 33.6809 44.4367 33.8436 44.3795L33.8528 44.4022C33.8126 44.6327 33.722 44.8717 33.5896 44.9676C33.4428 45.0787 33.0865 45.1123 32.5475 45.1359C32.5122 45.2411 32.4452 45.5196 32.41 45.7038C32.6956 45.7351 32.9787 45.7857 33.2576 45.8553C33.8109 46.0278 34.0666 46.2827 34.0649 46.8035C34.0649 47.544 33.3422 47.9815 32.55 47.9815C32.2188 47.9815 32.0302 47.9293 31.9279 47.8528C31.8133 47.7264 31.7496 47.5617 31.7493 47.3908L31.7795 47.3597C31.9722 47.4186 32.1724 47.4492 32.3739 47.4506C32.8141 47.4506 33.2257 47.2823 33.2257 46.8826C33.2257 46.642 33.0714 46.5233 32.8451 46.4485C32.5043 46.3676 32.1579 46.3131 31.8088 46.2852L31.72 46.1515Z" />
<path fill-rule="evenodd" clip-rule="evenodd" d="M34.4231 0C34.6921 0.0005247 34.9564 0.0700368 35.1911 0.201935C35.4367 0.33311 35.6391 0.533041 35.7737 0.77745C35.9102 1.01534 35.982 1.28503 35.982 1.55953C35.982 1.83403 35.9102 2.10371 35.7737 2.34161C35.6394 2.58409 35.4402 2.78403 35.1986 2.9188C34.9623 3.05444 34.6949 3.12578 34.4227 3.12578C34.1505 3.12578 33.883 3.05444 33.6468 2.9188C33.4052 2.78403 33.2059 2.58409 33.0716 2.34161C32.9363 2.10318 32.8655 1.83337 32.8662 1.55897C32.867 1.28457 32.9392 1.01514 33.0758 0.77745C33.2099 0.533775 33.411 0.333981 33.6552 0.201935C33.8898 0.0699321 34.1541 0.000412698 34.4231 0ZM34.4231 0.309634C34.2075 0.310234 33.9955 0.365515 33.8069 0.47034C33.6112 0.576647 33.4503 0.737321 33.3433 0.933109C33.2332 1.12399 33.1752 1.34065 33.1752 1.56121C33.1752 1.78177 33.2332 1.99843 33.3433 2.18931C33.4508 2.38456 33.6109 2.54551 33.8052 2.65377C33.9946 2.76294 34.2093 2.82039 34.4277 2.82039C34.6462 2.82039 34.8608 2.76294 35.0502 2.65377C35.2444 2.54506 35.4047 2.38424 35.513 2.18931C35.6229 1.99835 35.6807 1.78172 35.6807 1.56121C35.6807 1.3407 35.6229 1.12408 35.513 0.933109C35.4056 0.737057 35.244 0.576349 35.0477 0.47034C34.8587 0.365616 34.6465 0.310347 34.4307 0.309634H34.4231ZM33.7189 2.39882H34.0542V1.71729H34.1381C34.2207 1.71407 34.3019 1.73898 34.3686 1.78797C34.4653 1.8863 34.5429 2.00186 34.5975 2.12873L34.7341 2.39882H35.1533L34.9597 2.06226C34.8901 1.94447 34.8498 1.87716 34.8373 1.86033C34.8045 1.81454 34.7671 1.77225 34.7258 1.73412C34.6909 1.70707 34.6518 1.68603 34.6101 1.67186C34.7339 1.65914 34.8493 1.60315 34.9362 1.51367C35.0136 1.43083 35.0557 1.32094 35.0536 1.2074C35.0544 1.12443 35.033 1.04276 34.9915 0.970972C34.9557 0.904705 34.9023 0.84967 34.8373 0.811948C34.7566 0.771603 34.6683 0.748945 34.5782 0.745477C34.5413 0.745477 34.3655 0.744075 34.0509 0.74127H33.7155V2.3963L33.7189 2.39882ZM34.0542 1.45393H34.1892C34.3095 1.45936 34.4301 1.45203 34.5489 1.43206C34.593 1.41915 34.6316 1.39193 34.6587 1.35465C34.6859 1.31832 34.7 1.27385 34.6989 1.22844C34.6997 1.18451 34.6858 1.14158 34.6595 1.10644C34.6311 1.06965 34.5918 1.04284 34.5472 1.02987C34.429 1.00917 34.309 1.00155 34.1892 1.00715H34.0542V1.45393Z" />
</g>
<defs>
<clipPath id="clip0_6541_163703">
<rect width="36" height="48" fill="white"/>
</clipPath>
</defs>
</svg>
