<svg width="24" height="24" viewBox="0 0 24 24" fill="none" xmlns="http://www.w3.org/2000/svg">
<path d="M4.13006 3.94864C4.5928 3.59697 4.82418 3.42114 5.09124 3.3079C5.21233 3.25655 5.33823 3.21507 5.46746 3.18392C5.75247 3.11523 6.05468 3.11523 6.6591 3.11523H10.4835C11.088 3.11523 11.3902 3.11523 11.6752 3.18392C11.8044 3.21507 11.9303 3.25655 12.0514 3.3079C12.3185 3.42114 12.5498 3.59697 13.0126 3.94864C14.5459 5.11391 15.3126 5.69655 15.5754 6.45104C15.6923 6.78665 15.736 7.1396 15.704 7.49028C15.6322 8.27868 15.027 9.00023 13.8165 10.4433L10.964 13.844C9.86604 15.153 9.31704 15.8075 8.57132 15.8075C7.82561 15.8075 7.27661 15.153 6.1786 13.844L3.32612 10.4433C2.11567 9.00023 1.51044 8.27868 1.43861 7.49028C1.40666 7.1396 1.45035 6.78665 1.56725 6.45104C1.83007 5.69655 2.59673 5.11391 4.13006 3.94864Z"  stroke-width="1.5"/>
<path d="M7.14282 6.99414H9.99996"  stroke-width="1.5" stroke-linecap="round" stroke-linejoin="round"/>
<g clip-path="url(#clip0_10380_69069)">
<path d="M13.3041 11.8191C13.6743 11.5377 13.8594 11.3971 14.073 11.3065C14.1699 11.2654 14.2706 11.2322 14.374 11.2073C14.602 11.1523 14.8438 11.1523 15.3273 11.1523H18.3869C18.8704 11.1523 19.1122 11.1523 19.3402 11.2073C19.4436 11.2322 19.5443 11.2654 19.6412 11.3065C19.8548 11.3971 20.0399 11.5377 20.4101 11.8191C21.6368 12.7513 22.2501 13.2174 22.4604 13.821C22.5539 14.0895 22.5888 14.3718 22.5633 14.6524C22.5058 15.2831 22.0216 15.8603 21.0533 17.0148L18.7713 19.7353C17.8929 20.7826 17.4537 21.3062 16.8571 21.3062C16.2605 21.3062 15.8213 20.7826 14.9429 19.7353L12.6609 17.0148C11.6926 15.8603 11.2084 15.2831 11.1509 14.6524C11.1254 14.3718 11.1603 14.0895 11.2539 13.821C11.4641 13.2174 12.0774 12.7513 13.3041 11.8191Z" stroke-width="1.5"/>
<path d="M16 14.2539H18.2857"  stroke-width="1.5" stroke-linecap="round" stroke-linejoin="round"/>
</g>
<defs>
<clipPath id="clip0_10380_69069">
<rect width="13.7143" height="13.5385" fill="white" transform="translate(10.2856 9.46094)"/>
</clipPath>
</defs>
</svg>
