<svg width="24" height="24" viewBox="0 0 24 24" fill="none" xmlns="http://www.w3.org/2000/svg">
<path d="M5.78223 4.18192C6.43007 3.68319 6.754 3.43383 7.12788 3.27323C7.29741 3.20041 7.47367 3.14158 7.65459 3.09741C8.0536 3 8.4767 3 9.32289 3H14.6771C15.5233 3 15.9464 3 16.3454 3.09741C16.5263 3.14158 16.7026 3.20041 16.8721 3.27323C17.246 3.43383 17.5699 3.68319 18.2178 4.18192C20.3644 5.83448 21.4378 6.66077 21.8057 7.73078C21.9694 8.20673 22.0305 8.70728 21.9858 9.20461C21.8852 10.3227 21.0379 11.346 19.3433 13.3925L15.3498 18.2153C13.8126 20.0718 13.044 21 12 21C10.956 21 10.1874 20.0718 8.65018 18.2153L4.65671 13.3925C2.96208 11.346 2.11476 10.3227 2.0142 9.20461C1.96947 8.70728 2.03064 8.20673 2.1943 7.73078C2.56224 6.66077 3.63557 5.83448 5.78223 4.18192Z"  stroke-width="1.5"/>
<path d="M11.3333 10.6667C12.3883 11.7216 13.7778 12.7937 13.7778 12.7937L15.6825 10.8889C15.6825 10.8889 14.6105 9.49939 13.5556 8.44444C12.5006 7.3895 11.1111 6.31746 11.1111 6.31746L9.20635 8.22222C9.20635 8.22222 10.2784 9.61172 11.3333 10.6667ZM11.3333 10.6667L8 14M16 10.5714L13.4603 13.1111M11.4286 6L8.88889 8.53968"  stroke-width="1.5" stroke-linecap="round" stroke-linejoin="round"/>
<path d="M22.5 3.99304C22.4367 3.99304 22.3797 3.93739 22.3734 3.86783C22.2595 2.60174 22.1709 2.19826 21.1139 2.08696C21.0506 2.08 21 2.01739 21 1.94783C21 1.87826 21.0506 1.81565 21.1139 1.8087C22.1962 1.69739 22.2595 1.39131 22.3734 0.125218C22.3734 0.0556525 22.4367 0 22.5 0C22.5633 0 22.6203 0.0556525 22.6266 0.125218C22.7405 1.39131 22.8101 1.69739 23.8861 1.8087C23.9494 1.81565 24 1.87826 24 1.94783C24 2.01739 23.9494 2.08 23.8861 2.08696C22.8228 2.19826 22.7405 2.60174 22.6266 3.87478C22.6266 3.94435 22.5696 4 22.5 4V3.99304Z" fill="none"/>
</svg>
