<svg width="24" height="24" viewBox="0 0 24 24" fill="none" xmlns="http://www.w3.org/2000/svg">
  <path d="M8 16L16.7201 15.2733C19.4486 15.046 20.0611 14.45 20.3635 11.7289L21 6"  stroke-width="1.5" stroke-linecap="round"/>
  <path d="M6 6H7M22 6H20" stroke-width="1.5" stroke-linecap="round"/>
  <circle cx="6" cy="20" r="2"  stroke-width="1.5"/>
  <circle cx="17" cy="20" r="2"  stroke-width="1.5"/>
  <path d="M8 20L15 20"  stroke-width="1.5" stroke-linecap="round"/>
  <path d="M2 2H2.966C3.91068 2 4.73414 2.62459 4.96326 3.51493L7.93852 15.0765C8.08887 15.6608 7.9602 16.2797 7.58824 16.7616L6.63213 18" stroke-width="1.5" stroke-linecap="round"/>
  <path d="M11.5129 2.5253C11.772 2.30364 11.9016 2.19281 12.0512 2.12144C12.119 2.08907 12.1895 2.06292 12.2618 2.04329C12.4214 2 12.5907 2 12.9292 2H15.0708C15.4093 2 15.5786 2 15.7382 2.04329C15.8105 2.06292 15.881 2.08907 15.9488 2.12144C16.0984 2.19281 16.228 2.30364 16.4871 2.5253C17.3458 3.25977 17.7751 3.62701 17.9223 4.10257C17.9878 4.3141 18.0122 4.53657 17.9943 4.7576C17.9541 5.25453 17.6152 5.70933 16.9373 6.61889L15.3399 8.76236C14.725 9.58747 14.4176 10 14 10C13.5824 10 13.275 9.58747 12.6601 8.76236L11.0627 6.61889C10.3848 5.70933 10.0459 5.25453 10.0057 4.7576C9.98779 4.53657 10.0123 4.3141 10.0777 4.10257C10.2249 3.62701 10.6542 3.25977 11.5129 2.5253Z"  stroke-width="1.5"/>
  <path d="M13 4.99902L15 4.99956" stroke-width="1.5" stroke-linecap="round" stroke-linejoin="round"/>
</svg>