<svg width="40" height="40" viewBox="0 0 40 40" fill="none" xmlns="http://www.w3.org/2000/svg">
<rect x="0.5" y="0.5" width="39" height="39" rx="3.5" stroke="#D0D5DD"/>
<g clip-path="url(#clip0_15648_63351)">
<path d="M5 10.5H35V29.5H5V10.5Z" fill="#E30A17"/>
<path d="M18.9168 20L23.4394 18.6041L20.6441 22.2588V17.7412L23.4394 21.3959L18.9168 20ZM19.2251 22.54C18.6458 23.4096 17.7849 24.077 16.7719 24.4417C15.7589 24.8064 14.6486 24.8487 13.6082 24.5623C12.5677 24.2758 11.6533 23.676 11.0025 22.8532C10.3518 22.0304 10 21.0291 10 20C10 18.9709 10.3518 17.9696 11.0025 17.1468C11.6533 16.324 12.5677 15.7242 13.6082 15.4377C14.6486 15.1513 15.7589 15.1936 16.7719 15.5583C17.7849 15.923 18.6458 16.5904 19.2251 17.46C18.6842 16.8882 17.9733 16.4857 17.1865 16.3056C16.3997 16.1256 15.574 16.1766 14.8183 16.4517C14.0626 16.7269 13.4125 17.2134 12.954 17.8469C12.4954 18.4804 12.25 19.2312 12.25 20C12.25 20.7688 12.4954 21.5196 12.954 22.1531C13.4125 22.7866 14.0626 23.2731 14.8183 23.5483C15.574 23.8234 16.3997 23.8744 17.1865 23.6944C17.9733 23.5143 18.6842 23.1118 19.2251 22.54Z" fill="white"/>
</g>
<defs>
<clipPath id="clip0_15648_63351">
<rect x="5" y="10.5" width="30" height="19" rx="2" fill="white"/>
</clipPath>
</defs>
</svg>
