<svg width="30" height="19" viewBox="0 0 30 19" fill="none" xmlns="http://www.w3.org/2000/svg">
<g clip-path="url(#clip0_15579_83356)">
<path d="M0 0H30V19H0V0Z" fill="#E30A17"/>
<path d="M13.9168 9.5L18.4394 8.10413L15.6441 11.7588V7.24122L18.4394 10.8959L13.9168 9.5ZM14.2251 12.04C13.6458 12.9096 12.7849 13.577 11.7719 13.9417C10.7589 14.3064 9.64864 14.3487 8.60815 14.0623C7.56767 13.7758 6.65327 13.176 6.00255 12.3532C5.35183 11.5304 5 10.5291 5 9.5C5 8.47086 5.35183 7.46956 6.00255 6.64678C6.65327 5.82399 7.56767 5.22423 8.60815 4.93775C9.64864 4.65127 10.7589 4.69356 11.7719 5.05827C12.7849 5.42298 13.6458 6.09037 14.2251 6.96002C13.6842 6.38817 12.9733 5.98565 12.1865 5.80563C11.3997 5.62562 10.574 5.67656 9.81828 5.95174C9.06259 6.22692 8.41255 6.71339 7.954 7.3469C7.49544 7.98042 7.24996 8.73117 7.24996 9.5C7.24996 10.2688 7.49544 11.0196 7.954 11.6531C8.41255 12.2866 9.06259 12.7731 9.81828 13.0483C10.574 13.3234 11.3997 13.3744 12.1865 13.1944C12.9733 13.0143 13.6842 12.6118 14.2251 12.04Z" fill="white"/>
</g>
<defs>
<clipPath id="clip0_15579_83356">
<rect width="30" height="19" rx="2" fill="white"/>
</clipPath>
</defs>
</svg>
