<svg width="36" height="50" viewBox="0 0 36 50" fill="none" xmlns="http://www.w3.org/2000/svg">
  <path fill-rule="evenodd" clip-rule="evenodd" d="M25.0598 49.9327C24.9607 49.8561 24.8739 49.7359 24.8553 49.5575L24.8696 49.5378C25.2028 49.4853 25.6316 49.3633 25.9458 49.0405C26.3045 48.6715 26.3839 48.1613 26.387 47.6771C26.387 47.1292 26.2371 46.7454 25.9179 46.7477C25.6521 46.7477 25.4991 47.0422 25.496 47.3431C25.496 47.8031 25.7761 47.9542 26.0016 47.9542C26.0325 47.9542 26.1627 47.9407 26.2371 47.9107C26.2444 48.0542 26.1627 48.325 26.0717 48.4034C25.9861 48.4819 25.804 48.5299 25.6192 48.5299C25.1001 48.5299 24.6992 48.1546 24.6992 47.474C24.7011 46.8176 25.1745 46.2087 25.9787 46.2087C26.8274 46.2065 27.2303 46.927 27.2284 47.7336C27.2284 48.3532 27.0618 48.9051 26.5865 49.3979C26.1305 49.8606 25.6076 50 25.3287 50C25.2028 50 25.1304 49.9807 25.0598 49.9327ZM31.9276 49.852C31.8234 49.7534 31.7529 49.5378 31.7529 49.3589L31.7831 49.3261C31.8908 49.3651 32.1511 49.4243 32.3773 49.4221C32.8177 49.4221 33.2291 49.2432 33.2291 48.8244C33.2291 48.5711 33.075 48.4469 32.8487 48.3685C32.5687 48.2833 32.0686 48.2201 31.8121 48.1963L31.7199 48.0569C31.8296 47.4283 32.0612 46.4728 32.124 46.3352C32.3451 46.3459 33.6808 46.2527 33.8439 46.1935L33.8532 46.2173C33.8129 46.4598 33.7219 46.7105 33.5898 46.8109C33.443 46.9288 33.0831 46.9638 32.5477 46.992C32.5129 47.1032 32.4455 47.3955 32.4102 47.5897C32.7205 47.6246 33.0769 47.6968 33.2578 47.7488C33.8106 47.93 34.067 48.1981 34.0651 48.746C34.0651 49.5247 33.3426 49.9852 32.5501 49.987C32.2192 49.987 32.0298 49.9327 31.9276 49.852ZM2.21382 49.7077C2.10032 49.6315 2.05578 49.5552 2.05578 49.4638C2.05578 49.3324 2.16966 49.0553 2.22505 49.0253C2.43695 49.1692 2.78753 49.3324 3.07379 49.3324C3.37052 49.3261 3.60294 49.2082 3.60294 48.9204C3.60294 48.7043 3.51423 48.5671 2.95719 48.2725C2.251 47.908 2.12085 47.5067 2.12085 47.0992C2.12085 46.6867 2.40324 46.0195 3.38174 46.0195H3.386C3.68273 46.0169 4.11582 46.1482 4.28083 46.3334C4.27386 46.5383 4.15067 46.8391 3.88533 46.7539C3.76524 46.7019 3.5212 46.6298 3.35386 46.6298C3.07805 46.6324 2.89715 46.7629 2.89715 46.979C2.89715 47.2189 3.07184 47.3498 3.61223 47.6551C4.13402 47.9407 4.41836 48.1703 4.41836 48.7522C4.41642 49.5247 3.76524 49.9458 3.07805 49.948C2.67053 49.948 2.37303 49.8166 2.21382 49.7077ZM12.074 48.0129C12.0755 46.7539 12.9948 46.0021 14.1336 45.9994C14.6554 45.9994 15.099 46.1845 15.1919 46.2984C15.1958 46.5665 15.0451 46.8136 14.7837 46.7369C14.6554 46.6822 14.399 46.606 14.1263 46.606C13.467 46.6082 12.9657 47.04 12.9615 47.9519C12.9615 48.6935 13.4279 49.2934 14.2874 49.2934C14.6833 49.2934 14.9584 49.1845 15.1009 49.1342L15.1288 49.1472C15.0936 49.4414 15.0234 49.5987 14.9212 49.7166C14.7794 49.8148 14.4788 49.9283 14.1058 49.9301C12.7775 49.9301 12.074 49.1625 12.074 48.0129ZM10.0418 49.8148C9.79895 49.4373 9.63897 49.1365 9.18613 48.3532C8.85725 47.7905 8.73639 47.4785 8.49893 46.992C8.53806 47.5265 8.53186 47.8273 8.53186 48.1331L8.52876 49.7099C8.52876 49.8256 8.49351 49.8408 8.38737 49.8606C8.28162 49.8781 8.0399 49.8928 7.82994 49.8848C7.83924 49.6467 7.8466 49.2979 7.84854 48.7939L7.85086 46.2984L7.77223 46.1653L7.77416 46.1303C7.89309 46.1128 8.50087 46.0823 8.6105 46.0823C8.67132 46.0823 8.7178 46.1218 8.77358 46.189C8.95565 46.4836 9.3589 47.1709 9.67616 47.7466C9.91555 48.1721 10.0833 48.4604 10.2258 48.772C10.1813 48.4119 10.1856 48.2375 10.1856 47.9389L10.1925 46.2635C10.1925 46.1263 10.2371 46.102 10.3207 46.102C10.5171 46.0846 10.75 46.0783 10.8925 46.0783C10.8809 46.3352 10.8739 46.6822 10.8739 47.1794L10.8685 49.8148C10.8057 49.8386 10.4056 49.9171 10.2185 49.9171C10.1348 49.9171 10.0957 49.8955 10.0418 49.8148ZM5.57893 49.7687L5.58319 46.8961C5.58319 46.4948 5.57893 46.2487 5.56769 46.1348C5.68855 46.1173 6.15456 46.0868 6.29208 46.0868C6.40403 46.0868 6.42224 46.1437 6.42224 46.4204L6.41836 49.1015C6.41642 49.5225 6.42959 49.7189 6.43386 49.8386C6.33159 49.8691 5.87062 49.8866 5.72071 49.8866C5.71489 49.8866 5.70947 49.887 5.70405 49.887C5.61418 49.887 5.57893 49.8659 5.57893 49.7687ZM28.1646 48.0761C28.1646 47.1691 28.5121 46.2047 29.4929 46.2002H29.498C30.5551 46.198 30.7 47.387 30.7 47.9932C30.6977 49.2279 30.2204 49.8848 29.4058 49.8848C28.7682 49.8848 28.1615 49.4548 28.1646 48.0761ZM28.9874 48.0214C28.9874 49.0535 29.2291 49.3459 29.4461 49.3459C29.6022 49.3459 29.8791 49.2064 29.8815 47.9932C29.8846 46.9745 29.6634 46.7414 29.4461 46.7432H29.4391C29.0432 46.7432 28.9893 47.5897 28.9874 48.0214ZM16.3235 49.8121L16.2336 49.6906L16.2378 46.927C16.2378 46.6387 16.2378 46.4401 16.2212 46.1697C16.4125 46.1263 16.7132 46.0913 16.9882 46.0868C17.2256 46.0868 17.8811 46.0846 18.3587 46.0823C18.3161 46.4249 18.2324 46.5625 18.1642 46.6477C18.067 46.6889 17.8346 46.6889 17.5824 46.6889H17.0769L17.0742 47.6027L18.2936 47.6009C18.2255 48.1178 18.1042 48.2048 17.8985 48.2048L17.0742 48.207L17.0719 49.2347C17.2094 49.2517 17.3283 49.2652 17.5193 49.2629C17.7366 49.2629 18.2045 49.2629 18.5075 49.2432L18.5168 49.2562C18.4548 49.5682 18.3347 49.7359 18.1786 49.8364C18.0949 49.8561 17.8272 49.8691 17.3686 49.8691C16.8282 49.8691 16.4621 49.8386 16.3235 49.8121ZM22.3242 47.036C22.2127 47.0664 21.7745 47.1794 21.5832 47.1992L21.5696 47.1691L21.7164 46.7019C22.196 46.5665 22.8751 46.3204 23.1118 46.2114L23.147 46.237C23.147 46.6387 23.1582 49.193 23.1582 49.6794C23.1563 49.7996 23.1118 49.8256 23.0002 49.8346C22.7716 49.8538 22.4172 49.8606 22.3107 49.8606C22.3149 49.5418 22.3223 48.229 22.3242 47.036ZM0.0848258 28.9002L0 28.6932V12.6797L0.0848258 12.4723C3.19388 4.92128 10.2193 0.0318777 18 0C25.7807 0.0318777 32.8061 4.92128 35.9152 12.4723L36 12.6797V28.6932L35.9152 28.9002C32.8061 36.4512 25.7807 41.3361 18 41.368C10.2193 41.3361 3.19388 36.4512 0.0848258 28.9002ZM2.04261 13.1288V28.2437C4.86578 34.8916 11.1017 39.1814 18 39.2128C24.8983 39.1814 31.1342 34.8916 33.9578 28.2437V13.1288C31.1342 6.47885 24.8983 2.18907 18 2.15719C11.1017 2.18907 4.86578 6.47885 2.04261 13.1288ZM16.5199 36.2062C15.2136 36.2062 14.1553 34.7407 14.1553 32.9366V8.44841C14.1553 6.6447 15.2136 5.17671 16.5199 5.17671H19.4778C20.7821 5.17671 21.847 6.6447 21.847 8.44841V15.7843H19.3477V8.44841C19.3477 8.16958 19.2838 7.94684 19.2156 7.81166H16.7825C16.7143 7.94684 16.6523 8.16958 16.6523 8.44841V32.9366C16.6523 33.2138 16.7143 33.4361 16.7825 33.5713H19.2156C19.2838 33.4361 19.3477 33.2138 19.3477 32.9366V22.9939H19.0211C17.9709 22.9657 17.1052 22.1587 16.958 21.07L16.8879 20.566L21.847 20.5813V32.9366C21.847 34.7407 20.7821 36.2062 19.4778 36.2062H16.5199ZM23.8973 24.0713C23.8973 22.1651 24.7469 20.3541 26.1813 19.1831C24.7387 17.9944 23.8973 16.1927 23.8973 14.2945V6.3118C24.7589 6.71007 25.5801 7.19267 26.3529 7.75315V14.2945C26.3529 15.9982 27.465 17.4424 29.03 17.8003V10.2384C30.0345 11.426 30.8828 12.7806 31.5208 14.2828V27.0892C30.8828 28.5911 30.0345 29.9453 29.03 31.1324V20.5684C27.4546 20.9437 26.3529 22.3786 26.3529 24.0713V33.6177C25.5801 34.1782 24.7589 34.6604 23.8973 35.0586V24.0713ZM9.68855 33.6177V24.0713C9.68855 22.3786 8.58687 20.9437 7.01181 20.5684V31.1324C6.00736 29.9453 5.15863 28.5911 4.52063 27.0892V14.2828C5.15863 12.7806 6.00736 11.426 7.01181 10.2384V17.8003C8.57641 17.4424 9.68855 15.9982 9.68855 14.2945V7.75315C10.4617 7.19267 11.283 6.71007 12.1441 6.3118V14.2945C12.1441 16.1927 11.3027 17.9944 9.86016 19.1831C11.2946 20.3541 12.1441 22.1651 12.1441 24.0713V35.0586C11.283 34.6604 10.4617 34.1782 9.68855 33.6177Z" fill="#344444"/>
</svg>