<svg width="36" height="48" viewBox="0 0 36 48" fill="none" xmlns="http://www.w3.org/2000/svg">
<g clip-path="url(#clip0_11300_33821)">
<mask id="mask0_11300_33821" style="mask-type:luminance" maskUnits="userSpaceOnUse" x="0" y="0" width="36" height="48">
<path d="M36 0H0V48H36V0Z" fill="white"/>
</mask>
<g mask="url(#mask0_11300_33821)">
<path fill-rule="evenodd" clip-rule="evenodd" d="M17.9229 39.3479C10.2836 39.3479 3.28225 34.8321 0.0930601 27.8443L0 27.6407V11.7089L0.0930601 11.5053C3.2789 4.51746 10.2836 0 17.9229 0C21.7478 0.0018934 25.4887 1.12589 28.6854 3.2337C31.8821 5.34152 34.3952 8.3412 35.9153 11.8637L35.9992 12.0606V27.2899L35.9153 27.4867C34.3952 31.0092 31.8821 34.0089 28.6854 36.1167C25.4887 38.2246 21.7478 39.3485 17.9229 39.3504V39.3479ZM2.04229 27.1906C4.94057 33.3395 11.1521 37.2941 17.9229 37.2941C21.3137 37.293 24.6318 36.3074 27.477 34.4562C30.3222 32.6049 32.5729 29.9671 33.9577 26.8607V12.4889C32.5731 9.38242 30.3224 6.74444 27.4772 4.89315C24.6319 3.04186 21.3137 2.05636 17.9229 2.05553C11.1521 2.05553 4.94057 6.01514 2.04229 12.1624V27.1906Z" fill="#23302C"/>
<path fill-rule="evenodd" clip-rule="evenodd" d="M31.4443 13.4496C30.9912 12.4655 30.4317 11.5344 29.7759 10.673L29.0298 9.69274V16.9288C28.27 16.7661 27.5892 16.3459 27.1017 15.7388C26.6142 15.1318 26.3498 14.3748 26.3528 13.5951V7.40246L26.1667 7.27877C25.631 6.92483 25.0732 6.60585 24.4967 6.32379L23.8972 6.0293V13.5951C23.9009 14.4932 24.1085 15.3787 24.5042 16.1842C24.8999 16.9897 25.4734 17.6941 26.181 18.2439C25.4728 18.7931 24.8989 19.4974 24.5031 20.303C24.1073 21.1087 23.9001 21.9944 23.8972 22.8926V33.3259L24.4967 33.0331C25.0724 32.7496 25.6302 32.4307 26.1667 32.0781L26.3528 31.9544V22.8926C26.3522 22.1138 26.6176 21.3584 27.1047 20.7523C27.5919 20.1461 28.2713 19.7258 29.0298 19.5615V29.6684L29.7759 28.6848C30.432 27.8235 30.9915 26.8924 31.4443 25.9081L31.477 13.5859L31.4443 13.4496Z" fill="#23302C"/>
<path fill-rule="evenodd" clip-rule="evenodd" d="M19.4781 4.92383H16.5203C15.2133 4.92383 14.1553 6.31971 14.1553 8.037V31.321C14.1553 33.0357 15.2133 34.4341 16.5203 34.4341H19.4781C20.7827 34.4341 21.8466 33.0391 21.8466 31.321V19.5742L16.8876 19.5591L16.958 20.0387C17.0292 20.54 17.2759 20.9994 17.654 21.3348C18.0321 21.6701 18.5168 21.8594 19.0212 21.8687H19.3474V31.321C19.3513 31.5296 19.3062 31.7363 19.2157 31.9242H16.7844C16.6938 31.7364 16.649 31.5296 16.6536 31.321V8.03531C16.6487 7.82609 16.6935 7.61869 16.7844 7.43035H19.2157C19.3066 7.61873 19.3517 7.82605 19.3474 8.03531V15.0122H21.8466V8.03531C21.8466 6.31971 20.7827 4.92383 19.4781 4.92383Z" fill="#23302C"/>
<path fill-rule="evenodd" clip-rule="evenodd" d="M9.83332 7.27877L9.64468 7.40246V13.5951C9.64756 14.3749 9.38347 15.1319 8.89661 15.7395C8.40975 16.3471 7.72968 16.7685 6.97025 16.933V9.69695L6.22409 10.6806C5.56788 11.5417 5.00837 12.4728 4.55572 13.4572L4.52051 25.7676L4.55572 25.9023C5.00794 26.8868 5.56748 27.818 6.22409 28.6789L6.97025 29.6599V19.559C7.72905 19.7232 8.40867 20.1438 8.89547 20.7506C9.38228 21.3574 9.64676 22.1136 9.64468 22.8926V31.9553L9.8308 32.0764C10.3665 32.4309 10.9243 32.7505 11.5009 33.0331L12.1003 33.3259V22.8926C12.0973 21.9947 11.89 21.1095 11.4942 20.3042C11.0984 19.499 10.5246 18.7952 9.81655 18.2464C10.5251 17.6969 11.0992 16.9922 11.4949 16.1861C11.8907 15.38 12.0978 14.4938 12.1003 13.5951V6.0293L11.5009 6.32379C10.925 6.60566 10.368 6.92465 9.83332 7.27877Z" fill="#23302C"/>
<path fill-rule="evenodd" clip-rule="evenodd" d="M3.38544 44.2148C3.68306 44.2148 4.11567 44.3368 4.28083 44.5126C4.27412 44.7078 4.15088 44.9939 3.88511 44.9131C3.71575 44.8451 3.53653 44.8051 3.35442 44.7945C3.07775 44.7945 2.8975 44.9224 2.8975 45.131C2.8975 45.3591 3.07189 45.4836 3.61264 45.7739C4.13411 46.0456 4.41832 46.2636 4.41832 46.8172C4.41832 47.5517 3.76523 47.9522 3.07692 47.9548C2.7733 47.962 2.47387 47.8826 2.21339 47.7259C2.09937 47.6535 2.05493 47.582 2.05493 47.4954C2.05493 47.3691 2.16895 47.1058 2.22261 47.0747C2.43472 47.211 2.78516 47.3666 3.07105 47.3666C3.35693 47.3666 3.60006 47.2488 3.60006 46.9745C3.60006 46.7692 3.5112 46.638 2.95451 46.3586C2.2486 46.012 2.11613 45.6317 2.11613 45.2429C2.11613 44.8542 2.39783 44.2164 3.3737 44.2164L3.38544 44.2148Z" fill="#23302C"/>
<path fill-rule="evenodd" clip-rule="evenodd" d="M5.58272 45.0483C5.58272 44.6672 5.58272 44.4324 5.56763 44.3247C5.68835 44.3079 6.15449 44.2793 6.29199 44.2793C6.40349 44.2793 6.42193 44.3332 6.42193 44.5965V47.1459C6.42193 47.5464 6.43283 47.7349 6.43703 47.8468C6.20081 47.8784 5.96271 47.8939 5.7244 47.8931C5.62128 47.8931 5.58272 47.878 5.58272 47.7812V45.0483Z" fill="#23302C"/>
<path fill-rule="evenodd" clip-rule="evenodd" d="M7.77173 44.3528V44.3191C7.89078 44.3031 8.4986 44.2737 8.61011 44.2737C8.64315 44.2772 8.67498 44.2881 8.70328 44.3055C8.73157 44.323 8.7556 44.3466 8.77359 44.3747C8.95552 44.6565 9.36046 45.3086 9.67569 45.8564C9.91546 46.2611 10.0831 46.5345 10.2257 46.8307C10.1915 46.5682 10.178 46.3035 10.1854 46.0389L10.193 44.4453C10.193 44.3149 10.2374 44.2922 10.3204 44.2922C10.5174 44.2754 10.7497 44.2695 10.8922 44.2695C10.8813 44.5143 10.8737 44.8442 10.8737 45.317L10.8687 47.8227C10.6554 47.8758 10.4376 47.9085 10.2181 47.9203C10.1824 47.9234 10.1466 47.9158 10.1153 47.8984C10.0839 47.8811 10.0584 47.8547 10.0421 47.8227C9.79893 47.4643 9.6388 47.179 9.18607 46.4327C8.85743 45.8976 8.7367 45.6014 8.4986 45.1386C8.53801 45.6435 8.53214 45.9329 8.53214 46.2232L8.52627 47.7268C8.52627 47.837 8.49106 47.8513 8.38458 47.8698C8.19993 47.8924 8.01377 47.9 7.8279 47.8925C7.83628 47.6662 7.84383 47.3347 7.84634 46.8551V44.4832L7.77173 44.3528Z" fill="#23302C"/>
<path fill-rule="evenodd" clip-rule="evenodd" d="M15.1285 47.189C15.0933 47.4692 15.0237 47.6181 14.9206 47.73C14.672 47.8698 14.3906 47.9401 14.1057 47.9336C12.7777 47.9336 12.0735 47.2033 12.0735 46.1103C12.0735 44.913 12.9957 44.1978 14.1334 44.1953C14.6557 44.1953 15.0992 44.372 15.1914 44.4805C15.1956 44.733 15.0447 44.9685 14.784 44.8962C14.5736 44.8161 14.3508 44.774 14.1258 44.7717C13.4669 44.7717 12.9655 45.1848 12.9613 46.0523C12.9613 46.7574 13.4275 47.3278 14.2876 47.3278C14.5656 47.3264 14.841 47.2751 15.1009 47.1764L15.1285 47.189Z" fill="#23302C"/>
<path fill-rule="evenodd" clip-rule="evenodd" d="M16.2394 45.0778C16.2394 44.8035 16.2394 44.615 16.2227 44.3576C16.4755 44.3084 16.7322 44.2822 16.9898 44.2793H18.3605C18.3178 44.6049 18.2339 44.7353 18.166 44.8161C18.0688 44.8557 17.8365 44.8557 17.5842 44.8557H17.0812V45.7257H18.3002C18.2314 46.2162 18.1107 46.3003 17.9053 46.3003L17.0778 46.2978V47.2738C17.2261 47.2941 17.3758 47.3031 17.5255 47.3008C17.7426 47.3008 18.2105 47.3008 18.5131 47.2822L18.5223 47.2949C18.4603 47.5919 18.3404 47.7517 18.187 47.8477C17.918 47.8757 17.6474 47.8858 17.3771 47.878C17.0278 47.8845 16.6785 47.8665 16.3316 47.8241L16.2419 47.708L16.2394 45.0778Z" fill="#23302C"/>
<path fill-rule="evenodd" clip-rule="evenodd" d="M23.1468 44.4217C23.1468 44.8029 23.1586 47.232 23.1586 47.6948C23.1586 47.8092 23.1116 47.8345 23.0001 47.8437C22.7712 47.8614 22.4174 47.8673 22.311 47.8673C22.3151 47.5644 22.3219 46.3157 22.3244 45.1807C22.0803 45.2459 21.8329 45.2978 21.5832 45.3363L21.5698 45.3069L21.7165 44.8635C22.1906 44.7337 22.6571 44.5778 23.1141 44.3965L23.1468 44.4217Z" fill="#23302C"/>
<path fill-rule="evenodd" clip-rule="evenodd" d="M24.8698 47.5598C25.2052 47.5102 25.6319 47.3915 25.9454 47.0869C26.3043 46.7378 26.3839 46.2523 26.3873 45.7903C26.3873 45.2695 26.2372 44.9044 25.9178 44.906C25.652 44.906 25.4986 45.1879 25.4986 45.4731C25.4986 45.9107 25.7786 46.0537 26.0016 46.0537C26.0816 46.0504 26.1608 46.0366 26.2372 46.0125C26.2439 46.1496 26.1626 46.4062 26.0695 46.4811C25.9765 46.556 25.8021 46.6015 25.6168 46.6015C25.0978 46.6015 24.6946 46.2447 24.6946 45.5977C24.6946 44.9725 25.1699 44.3945 25.9739 44.3945C26.8224 44.3945 27.2256 45.0768 27.2231 45.8442C27.2231 46.4332 27.0555 46.959 26.5818 47.4269C26.1257 47.8669 25.6025 47.9999 25.3242 47.9999C25.2299 48.0075 25.1357 47.9848 25.0551 47.9351C24.9975 47.894 24.9494 47.8409 24.9141 47.7795C24.8788 47.7181 24.8571 47.6498 24.8505 47.5792L24.8698 47.5598Z" fill="#23302C"/>
<path fill-rule="evenodd" clip-rule="evenodd" d="M29.4984 44.3867C30.5556 44.3867 30.6998 45.515 30.6998 46.0922C30.6998 47.2702 30.2203 47.8903 29.4062 47.8903C28.7682 47.8903 28.1612 47.4814 28.1646 46.1705C28.1646 45.3072 28.5117 44.3917 29.4926 44.3867H29.4984ZM29.4389 44.9033C29.0432 44.9033 28.9895 45.7077 28.9879 46.1191C28.9879 47.1002 29.2293 47.3812 29.4464 47.3812C29.6024 47.3812 29.8791 47.2483 29.8816 46.0956C29.8816 45.1263 29.6636 44.9042 29.4464 44.9067L29.4389 44.9033Z" fill="#23302C"/>
<path fill-rule="evenodd" clip-rule="evenodd" d="M31.72 46.1509C31.829 45.5535 32.0612 44.6448 32.1241 44.5143C32.3454 44.5244 33.6809 44.4361 33.8436 44.3789L33.8528 44.4016C33.8126 44.6321 33.722 44.8711 33.5896 44.967C33.4428 45.0781 33.0865 45.1117 32.5475 45.1353C32.5122 45.2405 32.4452 45.519 32.41 45.7032C32.6956 45.7345 32.9787 45.7851 33.2576 45.8547C33.8109 46.0272 34.0666 46.2821 34.0649 46.8029C34.0649 47.5434 33.3422 47.9809 32.55 47.9809C32.2188 47.9809 32.0302 47.9287 31.9279 47.8522C31.8133 47.7258 31.7496 47.5611 31.7493 47.3902L31.7795 47.3591C31.9722 47.418 32.1724 47.4486 32.3739 47.45C32.8141 47.45 33.2257 47.2817 33.2257 46.882C33.2257 46.6414 33.0714 46.5227 32.8451 46.4479C32.5043 46.367 32.1579 46.3125 31.8088 46.2846L31.72 46.1509Z" fill="#23302C"/>
<path fill-rule="evenodd" clip-rule="evenodd" d="M34.4231 0C34.6921 0.0005247 34.9564 0.0700368 35.1911 0.201935C35.4367 0.33311 35.6391 0.533041 35.7737 0.77745C35.9102 1.01534 35.982 1.28503 35.982 1.55953C35.982 1.83403 35.9102 2.10371 35.7737 2.34161C35.6394 2.58409 35.4402 2.78403 35.1986 2.9188C34.9623 3.05444 34.6949 3.12578 34.4227 3.12578C34.1505 3.12578 33.883 3.05444 33.6468 2.9188C33.4052 2.78403 33.2059 2.58409 33.0716 2.34161C32.9363 2.10318 32.8655 1.83337 32.8662 1.55897C32.867 1.28457 32.9392 1.01514 33.0758 0.77745C33.2099 0.533775 33.411 0.333981 33.6552 0.201935C33.8898 0.0699321 34.1541 0.000412698 34.4231 0ZM34.4231 0.309634C34.2075 0.310234 33.9955 0.365515 33.8069 0.47034C33.6112 0.576647 33.4503 0.737321 33.3433 0.933109C33.2332 1.12399 33.1752 1.34065 33.1752 1.56121C33.1752 1.78177 33.2332 1.99843 33.3433 2.18931C33.4508 2.38456 33.6109 2.54551 33.8052 2.65377C33.9946 2.76294 34.2093 2.82039 34.4277 2.82039C34.6462 2.82039 34.8608 2.76294 35.0502 2.65377C35.2444 2.54506 35.4047 2.38424 35.513 2.18931C35.6229 1.99835 35.6807 1.78172 35.6807 1.56121C35.6807 1.3407 35.6229 1.12408 35.513 0.933109C35.4056 0.737057 35.244 0.576349 35.0477 0.47034C34.8587 0.365616 34.6465 0.310347 34.4307 0.309634H34.4231ZM33.7189 2.39882H34.0542V1.71729H34.1381C34.2207 1.71407 34.3019 1.73898 34.3686 1.78797C34.4653 1.8863 34.5429 2.00186 34.5975 2.12873L34.7341 2.39882H35.1533L34.9597 2.06226C34.8901 1.94447 34.8498 1.87716 34.8373 1.86033C34.8045 1.81454 34.7671 1.77225 34.7258 1.73412C34.6909 1.70707 34.6518 1.68603 34.6101 1.67186C34.7339 1.65914 34.8493 1.60315 34.9362 1.51367C35.0136 1.43083 35.0557 1.32094 35.0536 1.2074C35.0544 1.12443 35.033 1.04276 34.9915 0.970972C34.9557 0.904705 34.9023 0.84967 34.8373 0.811948C34.7566 0.771603 34.6683 0.748945 34.5782 0.745477C34.5413 0.745477 34.3655 0.744075 34.0509 0.74127H33.7155V2.3963L33.7189 2.39882ZM34.0542 1.45393H34.1892C34.3095 1.45936 34.4301 1.45203 34.5489 1.43206C34.593 1.41915 34.6316 1.39193 34.6587 1.35465C34.6859 1.31832 34.7 1.27385 34.6989 1.22844C34.6997 1.18451 34.6858 1.14158 34.6595 1.10644C34.6311 1.06965 34.5918 1.04284 34.5472 1.02987C34.429 1.00917 34.309 1.00155 34.1892 1.00715H34.0542V1.45393Z" fill="#23302C"/>
</g>
</g>
<defs>
<clipPath id="clip0_11300_33821">
<rect width="36" height="48" fill="white"/>
</clipPath>
</defs>
</svg>
