<svg width="276" height="92" viewBox="0 0 276 92" fill="none" xmlns="http://www.w3.org/2000/svg">
<g filter="url(#filter0_d_13511_190366)">
<g clip-path="url(#clip0_13511_190366)">
<rect x="8" width="260" height="64" rx="12" fill="#344444"/>
<rect x="8" width="260" height="64" rx="12" fill="url(#paint0_linear_13511_190366)" fill-opacity="0.4" style="mix-blend-mode:soft-light"/>
<rect x="8" width="260" height="64" rx="12" fill="url(#paint1_radial_13511_190366)" fill-opacity="0.2" style="mix-blend-mode:overlay"/>
<rect x="8" width="260" height="64" rx="12" fill="url(#paint2_radial_13511_190366)" fill-opacity="0.7" style="mix-blend-mode:overlay"/>
<rect x="8" width="260" height="64" rx="12" fill="url(#paint3_linear_13511_190366)" fill-opacity="0.1" style="mix-blend-mode:plus-lighter"/>
<g style="mix-blend-mode:soft-light" filter="url(#filter1_f_13511_190366)">
<ellipse cx="138" cy="-9.5" rx="177" ry="19.5" fill="url(#paint4_radial_13511_190366)"/>
</g>
<path d="M75.4347 39V24.4545H84.8949V26.6634H78.0696V30.6122H84.4048V32.821H78.0696V36.7912H84.9517V39H75.4347ZM89.5717 28.0909L91.7734 32.1179L94.0107 28.0909H96.7308L93.4425 33.5455L96.7876 39H94.0817L91.7734 35.0724L89.4865 39H86.7592L90.0831 33.5455L86.8445 28.0909H89.5717ZM98.7195 43.0909V28.0909H101.248V29.8949H101.397C101.53 29.6297 101.717 29.348 101.958 29.0497C102.2 28.7467 102.526 28.4886 102.938 28.2756C103.35 28.0578 103.876 27.9489 104.515 27.9489C105.358 27.9489 106.118 28.1643 106.795 28.5952C107.477 29.0213 108.016 29.6534 108.414 30.4915C108.817 31.3248 109.018 32.3475 109.018 33.5597C109.018 34.7576 108.821 35.7756 108.428 36.6136C108.035 37.4517 107.5 38.0909 106.823 38.5312C106.146 38.9716 105.379 39.1918 104.522 39.1918C103.897 39.1918 103.379 39.0876 102.967 38.8793C102.555 38.6709 102.223 38.42 101.972 38.1264C101.726 37.8281 101.534 37.5464 101.397 37.2812H101.29V43.0909H98.7195ZM101.241 33.5455C101.241 34.2509 101.34 34.8688 101.539 35.3991C101.743 35.9295 102.034 36.3437 102.413 36.642C102.796 36.9356 103.26 37.0824 103.805 37.0824C104.373 37.0824 104.849 36.9309 105.232 36.6278C105.616 36.3201 105.905 35.901 106.099 35.3707C106.298 34.8357 106.397 34.2273 106.397 33.5455C106.397 32.8684 106.3 32.267 106.106 31.7415C105.912 31.2159 105.623 30.804 105.239 30.5057C104.856 30.2074 104.378 30.0582 103.805 30.0582C103.255 30.0582 102.789 30.2027 102.406 30.4915C102.022 30.7803 101.731 31.1851 101.532 31.706C101.338 32.2268 101.241 32.84 101.241 33.5455ZM113.79 24.4545V39H111.219V24.4545H113.79ZM121.193 39.2131C120.127 39.2131 119.204 38.9787 118.423 38.5099C117.642 38.0412 117.036 37.3854 116.605 36.5426C116.179 35.6998 115.966 34.715 115.966 33.5881C115.966 32.4612 116.179 31.474 116.605 30.6264C117.036 29.7789 117.642 29.1207 118.423 28.652C119.204 28.1832 120.127 27.9489 121.193 27.9489C122.258 27.9489 123.181 28.1832 123.963 28.652C124.744 29.1207 125.348 29.7789 125.774 30.6264C126.205 31.474 126.42 32.4612 126.42 33.5881C126.42 34.715 126.205 35.6998 125.774 36.5426C125.348 37.3854 124.744 38.0412 123.963 38.5099C123.181 38.9787 122.258 39.2131 121.193 39.2131ZM121.207 37.1534C121.785 37.1534 122.268 36.9948 122.656 36.6776C123.044 36.3556 123.333 35.9247 123.522 35.3849C123.717 34.8452 123.814 34.2438 123.814 33.581C123.814 32.9134 123.717 32.3097 123.522 31.7699C123.333 31.2254 123.044 30.7921 122.656 30.4702C122.268 30.1482 121.785 29.9872 121.207 29.9872C120.615 29.9872 120.123 30.1482 119.73 30.4702C119.342 30.7921 119.05 31.2254 118.856 31.7699C118.667 32.3097 118.572 32.9134 118.572 33.581C118.572 34.2438 118.667 34.8452 118.856 35.3849C119.05 35.9247 119.342 36.3556 119.73 36.6776C120.123 36.9948 120.615 37.1534 121.207 37.1534ZM128.602 39V28.0909H131.095V29.9091H131.209C131.408 29.2794 131.749 28.794 132.232 28.4531C132.719 28.1075 133.276 27.9347 133.901 27.9347C134.043 27.9347 134.201 27.9418 134.376 27.956C134.556 27.9654 134.705 27.982 134.824 28.0057V30.3707C134.715 30.3329 134.542 30.2997 134.305 30.2713C134.073 30.2382 133.848 30.2216 133.631 30.2216C133.162 30.2216 132.741 30.3234 132.366 30.527C131.997 30.7259 131.706 31.0028 131.493 31.358C131.28 31.7131 131.173 32.1226 131.173 32.5866V39H128.602ZM140.912 39.2131C139.819 39.2131 138.874 38.9858 138.078 38.5312C137.288 38.072 136.679 37.4233 136.253 36.5852C135.827 35.7424 135.614 34.7505 135.614 33.6094C135.614 32.4872 135.827 31.5024 136.253 30.6548C136.684 29.8026 137.285 29.1397 138.057 28.6662C138.829 28.188 139.736 27.9489 140.777 27.9489C141.45 27.9489 142.084 28.0578 142.681 28.2756C143.282 28.4886 143.812 28.8201 144.272 29.2699C144.736 29.7197 145.1 30.2926 145.365 30.9886C145.631 31.6799 145.763 32.5038 145.763 33.4602V34.2486H136.821V32.5156H143.299C143.294 32.0232 143.187 31.5852 142.979 31.2017C142.771 30.8134 142.48 30.508 142.105 30.2855C141.736 30.063 141.305 29.9517 140.813 29.9517C140.287 29.9517 139.826 30.0795 139.428 30.3352C139.03 30.5862 138.72 30.9176 138.498 31.3295C138.28 31.7367 138.168 32.1842 138.164 32.6719V34.1847C138.164 34.8191 138.28 35.3636 138.512 35.8182C138.744 36.268 139.068 36.6136 139.485 36.8551C139.901 37.0919 140.389 37.2102 140.948 37.2102C141.322 37.2102 141.66 37.1581 141.963 37.054C142.266 36.9451 142.529 36.7865 142.752 36.5781C142.974 36.3698 143.142 36.1117 143.256 35.804L145.657 36.0739C145.505 36.7083 145.216 37.2623 144.79 37.7358C144.369 38.2045 143.829 38.5691 143.171 38.8295C142.513 39.0852 141.76 39.2131 140.912 39.2131ZM164.966 24.4545V39H162.622L155.768 29.0923H155.648V39H153.013V24.4545H155.371L162.217 34.3693H162.345V24.4545H164.966ZM172.482 39.2131C171.417 39.2131 170.493 38.9787 169.712 38.5099C168.931 38.0412 168.325 37.3854 167.894 36.5426C167.468 35.6998 167.255 34.715 167.255 33.5881C167.255 32.4612 167.468 31.474 167.894 30.6264C168.325 29.7789 168.931 29.1207 169.712 28.652C170.493 28.1832 171.417 27.9489 172.482 27.9489C173.547 27.9489 174.471 28.1832 175.252 28.652C176.033 29.1207 176.637 29.7789 177.063 30.6264C177.494 31.474 177.709 32.4612 177.709 33.5881C177.709 34.715 177.494 35.6998 177.063 36.5426C176.637 37.3854 176.033 38.0412 175.252 38.5099C174.471 38.9787 173.547 39.2131 172.482 39.2131ZM172.496 37.1534C173.074 37.1534 173.557 36.9948 173.945 36.6776C174.333 36.3556 174.622 35.9247 174.811 35.3849C175.006 34.8452 175.103 34.2438 175.103 33.581C175.103 32.9134 175.006 32.3097 174.811 31.7699C174.622 31.2254 174.333 30.7921 173.945 30.4702C173.557 30.1482 173.074 29.9872 172.496 29.9872C171.904 29.9872 171.412 30.1482 171.019 30.4702C170.631 30.7921 170.339 31.2254 170.145 31.7699C169.956 32.3097 169.861 32.9134 169.861 33.581C169.861 34.2438 169.956 34.8452 170.145 35.3849C170.339 35.9247 170.631 36.3556 171.019 36.6776C171.412 36.9948 171.904 37.1534 172.496 37.1534ZM181.83 39L178.748 28.0909H181.369L183.286 35.7614H183.386L185.346 28.0909H187.938L189.898 35.7188H190.005L191.894 28.0909H194.522L191.433 39H188.755L186.71 31.6278H186.56L184.515 39H181.83ZM199.463 24.4545L199.229 34.7244H196.942L196.715 24.4545H199.463ZM198.086 39.1562C197.655 39.1562 197.285 39.0047 196.978 38.7017C196.675 38.3987 196.523 38.0294 196.523 37.5938C196.523 37.1676 196.675 36.803 196.978 36.5C197.285 36.197 197.655 36.0455 198.086 36.0455C198.507 36.0455 198.872 36.197 199.179 36.5C199.492 36.803 199.648 37.1676 199.648 37.5938C199.648 37.8826 199.575 38.1454 199.428 38.3821C199.286 38.6188 199.096 38.8082 198.86 38.9503C198.628 39.0876 198.37 39.1562 198.086 39.1562Z" fill="white"/>
</g>
<rect x="9.75" y="1.75" width="256.5" height="60.5" rx="10.25" stroke="url(#paint5_linear_13511_190366)" stroke-width="3.5" style="mix-blend-mode:soft-light"/>
<rect x="9.75" y="1.75" width="256.5" height="60.5" rx="10.25" stroke="url(#paint6_linear_13511_190366)" stroke-opacity="0.72" stroke-width="3.5"/>
</g>
<defs>
<filter id="filter0_d_13511_190366" x="0" y="0" width="276" height="92" filterUnits="userSpaceOnUse" color-interpolation-filters="sRGB">
<feFlood flood-opacity="0" result="BackgroundImageFix"/>
<feColorMatrix in="SourceAlpha" type="matrix" values="0 0 0 0 0 0 0 0 0 0 0 0 0 0 0 0 0 0 127 0" result="hardAlpha"/>
<feMorphology radius="8" operator="erode" in="SourceAlpha" result="effect1_dropShadow_13511_190366"/>
<feOffset dy="20"/>
<feGaussianBlur stdDeviation="8"/>
<feComposite in2="hardAlpha" operator="out"/>
<feColorMatrix type="matrix" values="0 0 0 0 0.121569 0 0 0 0 0.184314 0 0 0 0 0.184314 0 0 0 0.38 0"/>
<feBlend mode="normal" in2="BackgroundImageFix" result="effect1_dropShadow_13511_190366"/>
<feBlend mode="normal" in="SourceGraphic" in2="effect1_dropShadow_13511_190366" result="shape"/>
</filter>
<filter id="filter1_f_13511_190366" x="-40" y="-30" width="356" height="41" filterUnits="userSpaceOnUse" color-interpolation-filters="sRGB">
<feFlood flood-opacity="0" result="BackgroundImageFix"/>
<feBlend mode="normal" in="SourceGraphic" in2="BackgroundImageFix" result="shape"/>
<feGaussianBlur stdDeviation="0.5" result="effect1_foregroundBlur_13511_190366"/>
</filter>
<linearGradient id="paint0_linear_13511_190366" x1="268" y1="32" x2="8" y2="32" gradientUnits="userSpaceOnUse">
<stop/>
<stop offset="0.5" stop-opacity="0"/>
<stop offset="1"/>
</linearGradient>
<radialGradient id="paint1_radial_13511_190366" cx="0" cy="0" r="1" gradientUnits="userSpaceOnUse" gradientTransform="translate(138 14) rotate(-90) scale(20.6667 83.9583)">
<stop stop-color="white"/>
<stop offset="1" stop-color="white" stop-opacity="0"/>
</radialGradient>
<radialGradient id="paint2_radial_13511_190366" cx="0" cy="0" r="1" gradientUnits="userSpaceOnUse" gradientTransform="translate(136.96 64) rotate(-90) scale(14.6667 138.32)">
<stop stop-color="white"/>
<stop offset="1" stop-color="white" stop-opacity="0"/>
</radialGradient>
<linearGradient id="paint3_linear_13511_190366" x1="155.479" y1="0" x2="155.479" y2="68.6667" gradientUnits="userSpaceOnUse">
<stop offset="0.296117" stop-color="white" stop-opacity="0"/>
<stop offset="0.762136" stop-color="white"/>
<stop offset="0.76699" stop-color="white" stop-opacity="0.6"/>
<stop offset="1" stop-color="white" stop-opacity="0"/>
</linearGradient>
<radialGradient id="paint4_radial_13511_190366" cx="0" cy="0" r="1" gradientUnits="userSpaceOnUse" gradientTransform="translate(138 -9.50001) scale(177 19.5)">
<stop stop-color="white" stop-opacity="0.4"/>
<stop offset="0.5" stop-color="white"/>
<stop offset="1" stop-color="white" stop-opacity="0.4"/>
</radialGradient>
<linearGradient id="paint5_linear_13511_190366" x1="138" y1="0" x2="138" y2="64" gradientUnits="userSpaceOnUse">
<stop stop-color="white"/>
<stop offset="1" stop-color="white" stop-opacity="0.6"/>
</linearGradient>
<linearGradient id="paint6_linear_13511_190366" x1="268" y1="32" x2="8" y2="32" gradientUnits="userSpaceOnUse">
<stop stop-color="white" stop-opacity="0"/>
<stop offset="0.25" stop-color="white" stop-opacity="0"/>
<stop offset="0.5" stop-color="white"/>
<stop offset="0.75" stop-color="white" stop-opacity="0"/>
<stop offset="1" stop-color="white" stop-opacity="0"/>
</linearGradient>
<clipPath id="clip0_13511_190366">
<rect x="8" width="260" height="64" rx="12" fill="white"/>
</clipPath>
</defs>
</svg>
