<svg width="131" height="61" viewBox="0 0 131 61" fill="none" xmlns="http://www.w3.org/2000/svg">
<g filter="url(#filter0_d_13758_76029)">
<path d="M8 12C8 5.37258 13.3726 0 20 0H111C117.627 0 123 5.37258 123 12V32C123 38.6274 117.627 44 111 44H20C13.3726 44 8 38.6274 8 32V12Z" fill="#344444" shape-rendering="crispEdges"/>
<path d="M8 12C8 5.37258 13.3726 0 20 0H111C117.627 0 123 5.37258 123 12V32C123 38.6274 117.627 44 111 44H20C13.3726 44 8 38.6274 8 32V12Z" fill="url(#paint0_linear_13758_76029)" fill-opacity="0.4" style="mix-blend-mode:soft-light" shape-rendering="crispEdges"/>
<path d="M8 12C8 5.37258 13.3726 0 20 0H111C117.627 0 123 5.37258 123 12V32C123 38.6274 117.627 44 111 44H20C13.3726 44 8 38.6274 8 32V12Z" fill="url(#paint1_radial_13758_76029)" fill-opacity="0.2" style="mix-blend-mode:overlay" shape-rendering="crispEdges"/>
<path d="M8 12C8 5.37258 13.3726 0 20 0H111C117.627 0 123 5.37258 123 12V32C123 38.6274 117.627 44 111 44H20C13.3726 44 8 38.6274 8 32V12Z" fill="url(#paint2_radial_13758_76029)" fill-opacity="0.7" style="mix-blend-mode:overlay" shape-rendering="crispEdges"/>
<path d="M8 12C8 5.37258 13.3726 0 20 0H111C117.627 0 123 5.37258 123 12V32C123 38.6274 117.627 44 111 44H20C13.3726 44 8 38.6274 8 32V12Z" fill="url(#paint3_linear_13758_76029)" fill-opacity="0.1" style="mix-blend-mode:plus-lighter" shape-rendering="crispEdges"/>
<path d="M20 1.75H111C116.661 1.75 121.25 6.33908 121.25 12V32C121.25 37.6609 116.661 42.25 111 42.25H20C14.3391 42.25 9.75 37.6609 9.75 32V12C9.75 6.33908 14.3391 1.75 20 1.75Z" stroke="url(#paint4_linear_13758_76029)" stroke-width="3.5" style="mix-blend-mode:soft-light" shape-rendering="crispEdges"/>
<path d="M20 1.75H111C116.661 1.75 121.25 6.33908 121.25 12V32C121.25 37.6609 116.661 42.25 111 42.25H20C14.3391 42.25 9.75 37.6609 9.75 32V12C9.75 6.33908 14.3391 1.75 20 1.75Z" stroke="url(#paint5_linear_13758_76029)" stroke-opacity="0.72" stroke-width="3.5" shape-rendering="crispEdges"/>
<path d="M34.7784 27.5V15.8636H38.9261C39.8277 15.8636 40.5758 16.0189 41.1705 16.3295C41.7689 16.6402 42.2159 17.0701 42.5114 17.6193C42.8068 18.1648 42.9545 18.7955 42.9545 19.5114C42.9545 20.2235 42.8049 20.8504 42.5057 21.392C42.2102 21.9299 41.7633 22.3485 41.1648 22.6477C40.5701 22.947 39.822 23.0966 38.9205 23.0966H35.7784V21.5852H38.7614C39.3295 21.5852 39.7917 21.5038 40.1477 21.3409C40.5076 21.178 40.7708 20.9413 40.9375 20.6307C41.1042 20.3201 41.1875 19.947 41.1875 19.5114C41.1875 19.072 41.1023 18.6913 40.9318 18.3693C40.7652 18.0473 40.5019 17.8011 40.142 17.6307C39.786 17.4564 39.3182 17.3693 38.7386 17.3693H36.5341V27.5H34.7784ZM40.5227 22.25L43.3977 27.5H41.3977L38.5795 22.25H40.5227ZM48.6065 27.6761C47.7467 27.6761 47.0062 27.4924 46.3849 27.125C45.7675 26.7538 45.2902 26.233 44.9531 25.5625C44.6198 24.8883 44.4531 24.0985 44.4531 23.1932C44.4531 22.2992 44.6198 21.5114 44.9531 20.8295C45.2902 20.1477 45.7599 19.6155 46.3622 19.233C46.9683 18.8504 47.6766 18.6591 48.4872 18.6591C48.9796 18.6591 49.4569 18.7405 49.919 18.9034C50.3812 19.0663 50.7959 19.322 51.1634 19.6705C51.5308 20.0189 51.8205 20.4716 52.0327 21.0284C52.2448 21.5814 52.3509 22.2538 52.3509 23.0455V23.6477H45.4134V22.375H50.6861C50.6861 21.928 50.5952 21.5322 50.4134 21.1875C50.2315 20.839 49.9759 20.5644 49.6463 20.3636C49.3205 20.1629 48.938 20.0625 48.4986 20.0625C48.0213 20.0625 47.6046 20.1799 47.2486 20.4148C46.8963 20.6458 46.6236 20.9489 46.4304 21.3239C46.241 21.6951 46.1463 22.0985 46.1463 22.5341V23.5284C46.1463 24.1117 46.2486 24.608 46.4531 25.017C46.6615 25.4261 46.9512 25.7386 47.3224 25.9545C47.6937 26.1667 48.1274 26.2727 48.6236 26.2727C48.9455 26.2727 49.2391 26.2273 49.5043 26.1364C49.7694 26.0417 49.9986 25.9015 50.1918 25.7159C50.3849 25.5303 50.5327 25.3011 50.6349 25.0284L52.2429 25.3182C52.1141 25.7917 51.883 26.2064 51.5497 26.5625C51.2202 26.9148 50.8054 27.1894 50.3054 27.3864C49.8092 27.5795 49.2429 27.6761 48.6065 27.6761ZM57.8949 30.9545C57.2017 30.9545 56.6051 30.8636 56.1051 30.6818C55.6089 30.5 55.2036 30.2595 54.8892 29.9602C54.5748 29.661 54.34 29.3333 54.1847 28.9773L55.6449 28.375C55.7472 28.5417 55.8835 28.7178 56.054 28.9034C56.2282 29.0928 56.4631 29.2538 56.7585 29.3864C57.0578 29.5189 57.4422 29.5852 57.9119 29.5852C58.5559 29.5852 59.0881 29.428 59.5085 29.1136C59.929 28.803 60.1392 28.3068 60.1392 27.625V25.9091H60.0312C59.929 26.0947 59.7813 26.3011 59.5881 26.5284C59.3987 26.7557 59.1373 26.9527 58.804 27.1193C58.4706 27.286 58.0369 27.3693 57.5028 27.3693C56.8134 27.3693 56.1922 27.2083 55.6392 26.8864C55.09 26.5606 54.6544 26.0814 54.3324 25.4489C54.0142 24.8125 53.8551 24.0303 53.8551 23.1023C53.8551 22.1742 54.0123 21.3788 54.3267 20.7159C54.6449 20.053 55.0805 19.5455 55.6335 19.1932C56.1866 18.8371 56.8134 18.6591 57.5142 18.6591C58.0559 18.6591 58.4934 18.75 58.8267 18.9318C59.16 19.1098 59.4195 19.3182 59.6051 19.5568C59.7945 19.7955 59.9403 20.0057 60.0426 20.1875H60.1676V18.7727H61.8324V27.6932C61.8324 28.4432 61.6581 29.0587 61.3097 29.5398C60.9612 30.0208 60.4896 30.3769 59.8949 30.608C59.304 30.839 58.6373 30.9545 57.8949 30.9545ZM57.8778 25.9602C58.3665 25.9602 58.7794 25.8466 59.1165 25.6193C59.4574 25.3883 59.715 25.0587 59.8892 24.6307C60.0672 24.1989 60.1562 23.6818 60.1562 23.0795C60.1562 22.4924 60.0691 21.9754 59.8949 21.5284C59.7206 21.0814 59.465 20.733 59.1278 20.483C58.7907 20.2292 58.3741 20.1023 57.8778 20.1023C57.3665 20.1023 56.9403 20.2348 56.5994 20.5C56.2585 20.7614 56.0009 21.1174 55.8267 21.5682C55.6563 22.0189 55.571 22.5227 55.571 23.0795C55.571 23.6515 55.6581 24.1534 55.8324 24.5852C56.0066 25.017 56.2642 25.3542 56.6051 25.5966C56.9498 25.839 57.3741 25.9602 57.8778 25.9602ZM64.1108 27.5V18.7727H65.8097V27.5H64.1108ZM64.9688 17.4261C64.6733 17.4261 64.4195 17.3277 64.2074 17.1307C63.9991 16.9299 63.8949 16.6913 63.8949 16.4148C63.8949 16.1345 63.9991 15.8958 64.2074 15.6989C64.4195 15.4981 64.6733 15.3977 64.9688 15.3977C65.2642 15.3977 65.5161 15.4981 65.7244 15.6989C65.9366 15.8958 66.0426 16.1345 66.0426 16.4148C66.0426 16.6913 65.9366 16.9299 65.7244 17.1307C65.5161 17.3277 65.2642 17.4261 64.9688 17.4261ZM74.6349 20.9034L73.0952 21.1761C73.0308 20.9792 72.9285 20.7917 72.7884 20.6136C72.652 20.4356 72.4664 20.2898 72.2315 20.1761C71.9967 20.0625 71.7031 20.0057 71.3509 20.0057C70.8698 20.0057 70.4683 20.1136 70.1463 20.3295C69.8243 20.5417 69.6634 20.8163 69.6634 21.1534C69.6634 21.4451 69.7713 21.6799 69.9872 21.858C70.2031 22.036 70.5516 22.1818 71.0327 22.2955L72.419 22.6136C73.2221 22.7992 73.8205 23.0852 74.2145 23.4716C74.6084 23.858 74.8054 24.3598 74.8054 24.9773C74.8054 25.5 74.6539 25.9659 74.3509 26.375C74.0516 26.7803 73.633 27.0985 73.0952 27.3295C72.5611 27.5606 71.9418 27.6761 71.2372 27.6761C70.2599 27.6761 69.4626 27.4678 68.8452 27.0511C68.2277 26.6307 67.849 26.0341 67.7088 25.2614L69.3509 25.0114C69.4531 25.4394 69.6634 25.7633 69.9815 25.983C70.2997 26.1989 70.7145 26.3068 71.2259 26.3068C71.7827 26.3068 72.2277 26.1913 72.5611 25.9602C72.8944 25.7254 73.0611 25.4394 73.0611 25.1023C73.0611 24.8295 72.9588 24.6004 72.7543 24.4148C72.5535 24.2292 72.2448 24.089 71.8281 23.9943L70.3509 23.6705C69.5365 23.4848 68.9342 23.1894 68.544 22.7841C68.1577 22.3788 67.9645 21.8655 67.9645 21.2443C67.9645 20.7292 68.1084 20.2784 68.3963 19.892C68.6842 19.5057 69.0819 19.2045 69.5895 18.9886C70.0971 18.7689 70.6785 18.6591 71.3338 18.6591C72.277 18.6591 73.0194 18.8636 73.5611 19.2727C74.1027 19.678 74.4607 20.2216 74.6349 20.9034ZM80.7472 18.7727V20.1364H75.9801V18.7727H80.7472ZM77.2585 16.6818H78.9574V24.9375C78.9574 25.267 79.0066 25.5152 79.1051 25.6818C79.2036 25.8447 79.3305 25.9564 79.4858 26.017C79.6449 26.0739 79.8172 26.1023 80.0028 26.1023C80.1392 26.1023 80.2585 26.0928 80.3608 26.0739C80.4631 26.0549 80.5426 26.0398 80.5994 26.0284L80.9062 27.4318C80.8078 27.4697 80.6676 27.5076 80.4858 27.5455C80.304 27.5871 80.0767 27.6098 79.804 27.6136C79.357 27.6212 78.9403 27.5417 78.554 27.375C78.1676 27.2083 77.8551 26.9508 77.6165 26.6023C77.3778 26.2538 77.2585 25.8163 77.2585 25.2898V16.6818ZM86.294 27.6761C85.4342 27.6761 84.6937 27.4924 84.0724 27.125C83.455 26.7538 82.9777 26.233 82.6406 25.5625C82.3073 24.8883 82.1406 24.0985 82.1406 23.1932C82.1406 22.2992 82.3073 21.5114 82.6406 20.8295C82.9777 20.1477 83.4474 19.6155 84.0497 19.233C84.6558 18.8504 85.3641 18.6591 86.1747 18.6591C86.6671 18.6591 87.1444 18.7405 87.6065 18.9034C88.0687 19.0663 88.4834 19.322 88.8509 19.6705C89.2183 20.0189 89.508 20.4716 89.7202 21.0284C89.9323 21.5814 90.0384 22.2538 90.0384 23.0455V23.6477H83.1009V22.375H88.3736C88.3736 21.928 88.2827 21.5322 88.1009 21.1875C87.919 20.839 87.6634 20.5644 87.3338 20.3636C87.008 20.1629 86.6255 20.0625 86.1861 20.0625C85.7088 20.0625 85.2921 20.1799 84.9361 20.4148C84.5838 20.6458 84.3111 20.9489 84.1179 21.3239C83.9285 21.6951 83.8338 22.0985 83.8338 22.5341V23.5284C83.8338 24.1117 83.9361 24.608 84.1406 25.017C84.349 25.4261 84.6387 25.7386 85.0099 25.9545C85.3812 26.1667 85.8149 26.2727 86.3111 26.2727C86.633 26.2727 86.9266 26.2273 87.1918 26.1364C87.4569 26.0417 87.6861 25.9015 87.8793 25.7159C88.0724 25.5303 88.2202 25.3011 88.3224 25.0284L89.9304 25.3182C89.8016 25.7917 89.5705 26.2064 89.2372 26.5625C88.9077 26.9148 88.4929 27.1894 87.9929 27.3864C87.4967 27.5795 86.9304 27.6761 86.294 27.6761ZM91.9233 27.5V18.7727H93.5653V20.1591H93.6562C93.8153 19.6894 94.0956 19.3201 94.4972 19.0511C94.9025 18.7784 95.3608 18.642 95.8722 18.642C95.9782 18.642 96.1032 18.6458 96.2472 18.6534C96.3949 18.661 96.5104 18.6705 96.5938 18.6818V20.3068C96.5256 20.2879 96.4044 20.267 96.2301 20.2443C96.0559 20.2178 95.8816 20.2045 95.7074 20.2045C95.3059 20.2045 94.9479 20.2898 94.6335 20.4602C94.3229 20.6269 94.0767 20.8598 93.8949 21.1591C93.7131 21.4545 93.6222 21.7917 93.6222 22.1705V27.5H91.9233Z" fill="#FCFDFD"/>
</g>
<defs>
<filter id="filter0_d_13758_76029" x="0" y="0" width="131" height="61" filterUnits="userSpaceOnUse" color-interpolation-filters="sRGB">
<feFlood flood-opacity="0" result="BackgroundImageFix"/>
<feColorMatrix in="SourceAlpha" type="matrix" values="0 0 0 0 0 0 0 0 0 0 0 0 0 0 0 0 0 0 127 0" result="hardAlpha"/>
<feMorphology radius="8" operator="erode" in="SourceAlpha" result="effect1_dropShadow_13758_76029"/>
<feOffset dy="9"/>
<feGaussianBlur stdDeviation="8"/>
<feComposite in2="hardAlpha" operator="out"/>
<feColorMatrix type="matrix" values="0 0 0 0 0.121569 0 0 0 0 0.184314 0 0 0 0 0.184314 0 0 0 0.25 0"/>
<feBlend mode="normal" in2="BackgroundImageFix" result="effect1_dropShadow_13758_76029"/>
<feBlend mode="normal" in="SourceGraphic" in2="effect1_dropShadow_13758_76029" result="shape"/>
</filter>
<linearGradient id="paint0_linear_13758_76029" x1="123" y1="22" x2="8" y2="22" gradientUnits="userSpaceOnUse">
<stop/>
<stop offset="0.5" stop-opacity="0"/>
<stop offset="1"/>
</linearGradient>
<radialGradient id="paint1_radial_13758_76029" cx="0" cy="0" r="1" gradientUnits="userSpaceOnUse" gradientTransform="translate(65.5 9.625) rotate(-90) scale(14.2083 37.1354)">
<stop stop-color="white"/>
<stop offset="1" stop-color="white" stop-opacity="0"/>
</radialGradient>
<radialGradient id="paint2_radial_13758_76029" cx="0" cy="0" r="1" gradientUnits="userSpaceOnUse" gradientTransform="translate(65.04 44) rotate(-90) scale(10.0833 61.18)">
<stop stop-color="white"/>
<stop offset="1" stop-color="white" stop-opacity="0"/>
</radialGradient>
<linearGradient id="paint3_linear_13758_76029" x1="73.2311" y1="0" x2="73.2311" y2="47.2083" gradientUnits="userSpaceOnUse">
<stop offset="0.296117" stop-color="white" stop-opacity="0"/>
<stop offset="0.762136" stop-color="white"/>
<stop offset="0.76699" stop-color="white" stop-opacity="0.6"/>
<stop offset="1" stop-color="white" stop-opacity="0"/>
</linearGradient>
<linearGradient id="paint4_linear_13758_76029" x1="65.5" y1="0" x2="65.5" y2="44" gradientUnits="userSpaceOnUse">
<stop stop-color="white"/>
<stop offset="1" stop-color="white" stop-opacity="0.6"/>
</linearGradient>
<linearGradient id="paint5_linear_13758_76029" x1="123" y1="22" x2="8" y2="22" gradientUnits="userSpaceOnUse">
<stop stop-color="white" stop-opacity="0"/>
<stop offset="0.25" stop-color="white" stop-opacity="0"/>
<stop offset="0.5" stop-color="white"/>
<stop offset="0.75" stop-color="white" stop-opacity="0"/>
<stop offset="1" stop-color="white" stop-opacity="0"/>
</linearGradient>
</defs>
</svg>
