<svg width="276" height="92" viewBox="0 0 276 92" fill="none" xmlns="http://www.w3.org/2000/svg">
<g filter="url(#filter0_d_13758_76024)">
<g clip-path="url(#clip0_13758_76024)">
<rect x="8" width="260" height="64" rx="12" fill="#344444"/>
<rect x="8" width="260" height="64" rx="12" fill="url(#paint0_linear_13758_76024)" fill-opacity="0.4" style="mix-blend-mode:soft-light"/>
<rect x="8" width="260" height="64" rx="12" fill="url(#paint1_radial_13758_76024)" fill-opacity="0.2" style="mix-blend-mode:overlay"/>
<rect x="8" width="260" height="64" rx="12" fill="url(#paint2_radial_13758_76024)" fill-opacity="0.7" style="mix-blend-mode:overlay"/>
<rect x="8" width="260" height="64" rx="12" fill="url(#paint3_linear_13758_76024)" fill-opacity="0.1" style="mix-blend-mode:plus-lighter"/>
<g style="mix-blend-mode:soft-light" filter="url(#filter1_f_13758_76024)">
<ellipse cx="138" cy="-9.5" rx="177" ry="19.5" fill="url(#paint4_radial_13758_76024)"/>
</g>
<path d="M73.8956 39V24.4545H79.3501C80.4676 24.4545 81.4051 24.6487 82.1626 25.0369C82.925 25.4252 83.5002 25.9697 83.8885 26.6705C84.2815 27.3665 84.478 28.1785 84.478 29.1065C84.478 30.0393 84.2791 30.849 83.8814 31.5355C83.4884 32.2173 82.9084 32.7453 82.1413 33.1193C81.3743 33.4886 80.4321 33.6733 79.3146 33.6733H75.4297V31.4858H78.9595C79.6129 31.4858 80.148 31.3958 80.5646 31.2159C80.9813 31.0312 81.2891 30.7637 81.4879 30.4134C81.6915 30.0582 81.7933 29.6226 81.7933 29.1065C81.7933 28.5904 81.6915 28.1501 81.4879 27.7855C81.2843 27.4162 80.9742 27.1368 80.5575 26.9474C80.1409 26.7533 79.6035 26.6562 78.9453 26.6562H76.5305V39H73.8956ZM81.4098 32.4091L85.0107 39H82.0703L78.5334 32.4091H81.4098ZM91.4631 39.2131C90.3693 39.2131 89.4247 38.9858 88.6293 38.5312C87.8385 38.072 87.2301 37.4233 86.804 36.5852C86.3778 35.7424 86.1648 34.7505 86.1648 33.6094C86.1648 32.4872 86.3778 31.5024 86.804 30.6548C87.2348 29.8026 87.8362 29.1397 88.608 28.6662C89.3797 28.188 90.2865 27.9489 91.3281 27.9489C92.0005 27.9489 92.6349 28.0578 93.2315 28.2756C93.8329 28.4886 94.3632 28.8201 94.8224 29.2699C95.2865 29.7197 95.651 30.2926 95.9162 30.9886C96.1813 31.6799 96.3139 32.5038 96.3139 33.4602V34.2486H87.3722V32.5156H93.8494C93.8447 32.0232 93.7382 31.5852 93.5298 31.2017C93.3215 30.8134 93.0303 30.508 92.6562 30.2855C92.2869 30.063 91.8561 29.9517 91.3636 29.9517C90.8381 29.9517 90.3764 30.0795 89.9787 30.3352C89.581 30.5862 89.2708 30.9176 89.0483 31.3295C88.8305 31.7367 88.7192 32.1842 88.7145 32.6719V34.1847C88.7145 34.8191 88.8305 35.3636 89.0625 35.8182C89.2945 36.268 89.6188 36.6136 90.0355 36.8551C90.4522 37.0919 90.9399 37.2102 91.4986 37.2102C91.8726 37.2102 92.2112 37.1581 92.5142 37.054C92.8172 36.9451 93.08 36.7865 93.3026 36.5781C93.5251 36.3698 93.6932 36.1117 93.8068 35.804L96.2074 36.0739C96.0559 36.7083 95.767 37.2623 95.3409 37.7358C94.9195 38.2045 94.3797 38.5691 93.7216 38.8295C93.0634 39.0852 92.3106 39.2131 91.4631 39.2131ZM103.233 43.3182C102.31 43.3182 101.517 43.1927 100.854 42.9418C100.191 42.6955 99.6585 42.3641 99.256 41.9474C98.8536 41.5308 98.5742 41.0691 98.418 40.5625L100.733 40.0014C100.837 40.2145 100.989 40.4252 101.188 40.6335C101.387 40.8466 101.654 41.0218 101.99 41.1591C102.331 41.3011 102.76 41.3722 103.276 41.3722C104.005 41.3722 104.609 41.1946 105.087 40.8395C105.565 40.4891 105.804 39.9115 105.804 39.1065V37.0398H105.676C105.544 37.3049 105.35 37.5772 105.094 37.8565C104.843 38.1359 104.509 38.3703 104.093 38.5597C103.681 38.7491 103.162 38.8438 102.537 38.8438C101.699 38.8438 100.939 38.6473 100.257 38.2543C99.5804 37.8565 99.0406 37.2647 98.6381 36.4787C98.2404 35.688 98.0415 34.6984 98.0415 33.5099C98.0415 32.312 98.2404 31.3011 98.6381 30.4773C99.0406 29.6487 99.5827 29.0213 100.265 28.5952C100.946 28.1643 101.706 27.9489 102.544 27.9489C103.184 27.9489 103.709 28.0578 104.121 28.2756C104.538 28.4886 104.869 28.7467 105.115 29.0497C105.362 29.348 105.549 29.6297 105.676 29.8949H105.819V28.0909H108.354V39.1776C108.354 40.1103 108.132 40.8821 107.686 41.4929C107.241 42.1037 106.633 42.5606 105.861 42.8636C105.089 43.1667 104.213 43.3182 103.233 43.3182ZM103.255 36.8267C103.799 36.8267 104.263 36.6941 104.647 36.429C105.03 36.1638 105.321 35.7827 105.52 35.2855C105.719 34.7884 105.819 34.1918 105.819 33.4957C105.819 32.8092 105.719 32.2079 105.52 31.6918C105.326 31.1757 105.037 30.7756 104.654 30.4915C104.275 30.2027 103.809 30.0582 103.255 30.0582C102.682 30.0582 102.203 30.2074 101.82 30.5057C101.436 30.804 101.148 31.2135 100.953 31.7344C100.759 32.2505 100.662 32.8376 100.662 33.4957C100.662 34.1634 100.759 34.7481 100.953 35.25C101.152 35.7472 101.444 36.1354 101.827 36.4148C102.215 36.6894 102.691 36.8267 103.255 36.8267ZM110.989 39V28.0909H113.56V39H110.989ZM112.282 26.5426C111.874 26.5426 111.524 26.4077 111.23 26.1378C110.937 25.8632 110.79 25.5341 110.79 25.1506C110.79 24.7623 110.937 24.4332 111.23 24.1634C111.524 23.8887 111.874 23.7514 112.282 23.7514C112.694 23.7514 113.044 23.8887 113.333 24.1634C113.626 24.4332 113.773 24.7623 113.773 25.1506C113.773 25.5341 113.626 25.8632 113.333 26.1378C113.044 26.4077 112.694 26.5426 112.282 26.5426ZM124.826 30.9744L122.482 31.2301C122.416 30.9934 122.3 30.7708 122.134 30.5625C121.973 30.3542 121.755 30.1861 121.481 30.0582C121.206 29.9304 120.87 29.8665 120.472 29.8665C119.937 29.8665 119.487 29.9825 119.123 30.2145C118.763 30.4465 118.585 30.7472 118.59 31.1165C118.585 31.4337 118.701 31.6918 118.938 31.8906C119.18 32.0895 119.577 32.2528 120.131 32.3807L121.992 32.7784C123.024 33.0009 123.791 33.3537 124.293 33.8366C124.8 34.3196 125.056 34.9517 125.06 35.733C125.056 36.4195 124.854 37.0256 124.457 37.5511C124.064 38.072 123.517 38.4792 122.816 38.7727C122.115 39.0663 121.31 39.2131 120.401 39.2131C119.066 39.2131 117.991 38.9337 117.177 38.375C116.362 37.8116 115.877 37.0279 115.721 36.0241L118.228 35.7827C118.342 36.2751 118.583 36.6468 118.952 36.8977C119.322 37.1487 119.802 37.2741 120.394 37.2741C121.005 37.2741 121.495 37.1487 121.864 36.8977C122.238 36.6468 122.425 36.3366 122.425 35.9673C122.425 35.6548 122.305 35.3968 122.063 35.1932C121.826 34.9896 121.457 34.8333 120.955 34.7244L119.094 34.3338C118.048 34.116 117.274 33.7491 116.772 33.233C116.27 32.7121 116.022 32.054 116.026 31.2585C116.022 30.5862 116.204 30.0038 116.573 29.5114C116.947 29.0142 117.466 28.6307 118.129 28.3608C118.796 28.0862 119.566 27.9489 120.437 27.9489C121.715 27.9489 122.721 28.2211 123.455 28.7656C124.194 29.3101 124.651 30.0464 124.826 30.9744ZM132.628 28.0909V30.0795H126.357V28.0909H132.628ZM127.905 25.4773H130.476V35.7188C130.476 36.0644 130.528 36.3295 130.632 36.5142C130.741 36.6941 130.883 36.8172 131.058 36.8835C131.233 36.9498 131.428 36.983 131.641 36.983C131.802 36.983 131.948 36.9711 132.081 36.9474C132.218 36.9238 132.322 36.9025 132.393 36.8835L132.827 38.8935C132.689 38.9408 132.493 38.9929 132.237 39.0497C131.986 39.1065 131.679 39.1397 131.314 39.1491C130.67 39.1681 130.09 39.071 129.574 38.858C129.058 38.6402 128.648 38.304 128.345 37.8494C128.047 37.3949 127.9 36.8267 127.905 36.1449V25.4773ZM139.49 39.2131C138.397 39.2131 137.452 38.9858 136.657 38.5312C135.866 38.072 135.257 37.4233 134.831 36.5852C134.405 35.7424 134.192 34.7505 134.192 33.6094C134.192 32.4872 134.405 31.5024 134.831 30.6548C135.262 29.8026 135.864 29.1397 136.635 28.6662C137.407 28.188 138.314 27.9489 139.355 27.9489C140.028 27.9489 140.662 28.0578 141.259 28.2756C141.86 28.4886 142.391 28.8201 142.85 29.2699C143.314 29.7197 143.678 30.2926 143.944 30.9886C144.209 31.6799 144.341 32.5038 144.341 33.4602V34.2486H135.4V32.5156H141.877C141.872 32.0232 141.766 31.5852 141.557 31.2017C141.349 30.8134 141.058 30.508 140.684 30.2855C140.314 30.063 139.883 29.9517 139.391 29.9517C138.865 29.9517 138.404 30.0795 138.006 30.3352C137.608 30.5862 137.298 30.9176 137.076 31.3295C136.858 31.7367 136.747 32.1842 136.742 32.6719V34.1847C136.742 34.8191 136.858 35.3636 137.09 35.8182C137.322 36.268 137.646 36.6136 138.063 36.8551C138.48 37.0919 138.967 37.2102 139.526 37.2102C139.9 37.2102 140.239 37.1581 140.542 37.054C140.845 36.9451 141.107 36.7865 141.33 36.5781C141.552 36.3698 141.721 36.1117 141.834 35.804L144.235 36.0739C144.083 36.7083 143.794 37.2623 143.368 37.7358C142.947 38.2045 142.407 38.5691 141.749 38.8295C141.091 39.0852 140.338 39.2131 139.49 39.2131ZM146.516 39V28.0909H149.009V29.9091H149.123C149.322 29.2794 149.663 28.794 150.146 28.4531C150.633 28.1075 151.19 27.9347 151.815 27.9347C151.957 27.9347 152.115 27.9418 152.29 27.956C152.47 27.9654 152.62 27.982 152.738 28.0057V30.3707C152.629 30.3329 152.456 30.2997 152.219 30.2713C151.987 30.2382 151.763 30.2216 151.545 30.2216C151.076 30.2216 150.655 30.3234 150.281 30.527C149.911 30.7259 149.62 31.0028 149.407 31.358C149.194 31.7131 149.087 32.1226 149.087 32.5866V39H146.516ZM171.474 24.4545V39H169.13L162.276 29.0923H162.156V39H159.521V24.4545H161.879L168.725 34.3693H168.853V24.4545H171.474ZM178.99 39.2131C177.924 39.2131 177.001 38.9787 176.22 38.5099C175.439 38.0412 174.833 37.3854 174.402 36.5426C173.975 35.6998 173.762 34.715 173.762 33.5881C173.762 32.4612 173.975 31.474 174.402 30.6264C174.833 29.7789 175.439 29.1207 176.22 28.652C177.001 28.1832 177.924 27.9489 178.99 27.9489C180.055 27.9489 180.978 28.1832 181.76 28.652C182.541 29.1207 183.145 29.7789 183.571 30.6264C184.002 31.474 184.217 32.4612 184.217 33.5881C184.217 34.715 184.002 35.6998 183.571 36.5426C183.145 37.3854 182.541 38.0412 181.76 38.5099C180.978 38.9787 180.055 39.2131 178.99 39.2131ZM179.004 37.1534C179.582 37.1534 180.065 36.9948 180.453 36.6776C180.841 36.3556 181.13 35.9247 181.319 35.3849C181.513 34.8452 181.61 34.2438 181.61 33.581C181.61 32.9134 181.513 32.3097 181.319 31.7699C181.13 31.2254 180.841 30.7921 180.453 30.4702C180.065 30.1482 179.582 29.9872 179.004 29.9872C178.412 29.9872 177.92 30.1482 177.527 30.4702C177.138 30.7921 176.847 31.2254 176.653 31.7699C176.464 32.3097 176.369 32.9134 176.369 33.581C176.369 34.2438 176.464 34.8452 176.653 35.3849C176.847 35.9247 177.138 36.3556 177.527 36.6776C177.92 36.9948 178.412 37.1534 179.004 37.1534ZM188.338 39L185.256 28.0909H187.876L189.794 35.7614H189.893L191.854 28.0909H194.446L196.406 35.7188H196.513L198.402 28.0909H201.03L197.94 39H195.263L193.217 31.6278H193.068L191.023 39H188.338ZM205.971 24.4545L205.737 34.7244H203.45L203.223 24.4545H205.971ZM204.593 39.1562C204.163 39.1562 203.793 39.0047 203.485 38.7017C203.182 38.3987 203.031 38.0294 203.031 37.5938C203.031 37.1676 203.182 36.803 203.485 36.5C203.793 36.197 204.163 36.0455 204.593 36.0455C205.015 36.0455 205.379 36.197 205.687 36.5C206 36.803 206.156 37.1676 206.156 37.5938C206.156 37.8826 206.083 38.1454 205.936 38.3821C205.794 38.6188 205.604 38.8082 205.368 38.9503C205.136 39.0876 204.877 39.1562 204.593 39.1562Z" fill="white"/>
</g>
<rect x="9.75" y="1.75" width="256.5" height="60.5" rx="10.25" stroke="url(#paint5_linear_13758_76024)" stroke-width="3.5" style="mix-blend-mode:soft-light"/>
<rect x="9.75" y="1.75" width="256.5" height="60.5" rx="10.25" stroke="url(#paint6_linear_13758_76024)" stroke-opacity="0.72" stroke-width="3.5"/>
</g>
<defs>
<filter id="filter0_d_13758_76024" x="0" y="0" width="276" height="92" filterUnits="userSpaceOnUse" color-interpolation-filters="sRGB">
<feFlood flood-opacity="0" result="BackgroundImageFix"/>
<feColorMatrix in="SourceAlpha" type="matrix" values="0 0 0 0 0 0 0 0 0 0 0 0 0 0 0 0 0 0 127 0" result="hardAlpha"/>
<feMorphology radius="8" operator="erode" in="SourceAlpha" result="effect1_dropShadow_13758_76024"/>
<feOffset dy="20"/>
<feGaussianBlur stdDeviation="8"/>
<feComposite in2="hardAlpha" operator="out"/>
<feColorMatrix type="matrix" values="0 0 0 0 0.121569 0 0 0 0 0.184314 0 0 0 0 0.184314 0 0 0 0.38 0"/>
<feBlend mode="normal" in2="BackgroundImageFix" result="effect1_dropShadow_13758_76024"/>
<feBlend mode="normal" in="SourceGraphic" in2="effect1_dropShadow_13758_76024" result="shape"/>
</filter>
<filter id="filter1_f_13758_76024" x="-40" y="-30" width="356" height="41" filterUnits="userSpaceOnUse" color-interpolation-filters="sRGB">
<feFlood flood-opacity="0" result="BackgroundImageFix"/>
<feBlend mode="normal" in="SourceGraphic" in2="BackgroundImageFix" result="shape"/>
<feGaussianBlur stdDeviation="0.5" result="effect1_foregroundBlur_13758_76024"/>
</filter>
<linearGradient id="paint0_linear_13758_76024" x1="268" y1="32" x2="8" y2="32" gradientUnits="userSpaceOnUse">
<stop/>
<stop offset="0.5" stop-opacity="0"/>
<stop offset="1"/>
</linearGradient>
<radialGradient id="paint1_radial_13758_76024" cx="0" cy="0" r="1" gradientUnits="userSpaceOnUse" gradientTransform="translate(138 14) rotate(-90) scale(20.6667 83.9583)">
<stop stop-color="white"/>
<stop offset="1" stop-color="white" stop-opacity="0"/>
</radialGradient>
<radialGradient id="paint2_radial_13758_76024" cx="0" cy="0" r="1" gradientUnits="userSpaceOnUse" gradientTransform="translate(136.96 64) rotate(-90) scale(14.6667 138.32)">
<stop stop-color="white"/>
<stop offset="1" stop-color="white" stop-opacity="0"/>
</radialGradient>
<linearGradient id="paint3_linear_13758_76024" x1="155.479" y1="0" x2="155.479" y2="68.6667" gradientUnits="userSpaceOnUse">
<stop offset="0.296117" stop-color="white" stop-opacity="0"/>
<stop offset="0.762136" stop-color="white"/>
<stop offset="0.76699" stop-color="white" stop-opacity="0.6"/>
<stop offset="1" stop-color="white" stop-opacity="0"/>
</linearGradient>
<radialGradient id="paint4_radial_13758_76024" cx="0" cy="0" r="1" gradientUnits="userSpaceOnUse" gradientTransform="translate(138 -9.50001) scale(177 19.5)">
<stop stop-color="white" stop-opacity="0.4"/>
<stop offset="0.5" stop-color="white"/>
<stop offset="1" stop-color="white" stop-opacity="0.4"/>
</radialGradient>
<linearGradient id="paint5_linear_13758_76024" x1="138" y1="0" x2="138" y2="64" gradientUnits="userSpaceOnUse">
<stop stop-color="white"/>
<stop offset="1" stop-color="white" stop-opacity="0.6"/>
</linearGradient>
<linearGradient id="paint6_linear_13758_76024" x1="268" y1="32" x2="8" y2="32" gradientUnits="userSpaceOnUse">
<stop stop-color="white" stop-opacity="0"/>
<stop offset="0.25" stop-color="white" stop-opacity="0"/>
<stop offset="0.5" stop-color="white"/>
<stop offset="0.75" stop-color="white" stop-opacity="0"/>
<stop offset="1" stop-color="white" stop-opacity="0"/>
</linearGradient>
<clipPath id="clip0_13758_76024">
<rect x="8" width="260" height="64" rx="12" fill="white"/>
</clipPath>
</defs>
</svg>
