<svg width="32" height="32" viewBox="0 0 32 32" fill="none" xmlns="http://www.w3.org/2000/svg">
<g filter="url(#filter0_bii_14016_36690)">
<rect width="32" height="32" rx="4" fill="white" fill-opacity="0.14"/>
<rect x="0.5" y="0.5" width="31" height="31" rx="3.5" stroke="white"/>
<path d="M20.519 13.3437H25.019V8.84375" stroke="#667085" stroke-width="1.5" stroke-linecap="round" stroke-linejoin="round"/>
<path d="M21.8316 21.8313C20.6781 22.9857 19.2081 23.7721 17.6076 24.091C16.0071 24.4099 14.3479 24.2469 12.84 23.6227C11.3321 22.9984 10.0433 21.941 9.13645 20.5842C8.22963 19.2273 7.74561 17.632 7.74561 16C7.74561 14.368 8.22963 12.7727 9.13645 11.4158C10.0433 10.059 11.3321 9.00158 12.84 8.37735C14.3479 7.75313 16.0071 7.59014 17.6076 7.90902C19.2081 8.22789 20.6781 9.0143 21.8316 10.1688L25.0191 13.3469" stroke="#667085" stroke-width="1.5" stroke-linecap="round" stroke-linejoin="round"/>
</g>
<defs>
<filter id="filter0_bii_14016_36690" x="-100" y="-100" width="232" height="232" filterUnits="userSpaceOnUse" color-interpolation-filters="sRGB">
<feFlood flood-opacity="0" result="BackgroundImageFix"/>
<feGaussianBlur in="BackgroundImageFix" stdDeviation="50"/>
<feComposite in2="SourceAlpha" operator="in" result="effect1_backgroundBlur_14016_36690"/>
<feBlend mode="normal" in="SourceGraphic" in2="effect1_backgroundBlur_14016_36690" result="shape"/>
<feColorMatrix in="SourceAlpha" type="matrix" values="0 0 0 0 0 0 0 0 0 0 0 0 0 0 0 0 0 0 127 0" result="hardAlpha"/>
<feOffset dy="1"/>
<feGaussianBlur stdDeviation="0.5"/>
<feComposite in2="hardAlpha" operator="arithmetic" k2="-1" k3="1"/>
<feColorMatrix type="matrix" values="0 0 0 0 1 0 0 0 0 1 0 0 0 0 1 0 0 0 0.25 0"/>
<feBlend mode="normal" in2="shape" result="effect2_innerShadow_14016_36690"/>
<feColorMatrix in="SourceAlpha" type="matrix" values="0 0 0 0 0 0 0 0 0 0 0 0 0 0 0 0 0 0 127 0" result="hardAlpha"/>
<feOffset dy="-1"/>
<feGaussianBlur stdDeviation="0.5"/>
<feComposite in2="hardAlpha" operator="arithmetic" k2="-1" k3="1"/>
<feColorMatrix type="matrix" values="0 0 0 0 1 0 0 0 0 1 0 0 0 0 1 0 0 0 0.25 0"/>
<feBlend mode="normal" in2="effect2_innerShadow_14016_36690" result="effect3_innerShadow_14016_36690"/>
</filter>
</defs>
</svg>
