<svg width="38" height="38" viewBox="0 0 38 38" fill="none" xmlns="http://www.w3.org/2000/svg">
<g filter="url(#filter0_bii_14036_36757)">
<rect width="38" height="38" rx="4" fill="white" fill-opacity="0.14"/>
<rect x="0.5" y="0.5" width="37" height="37" rx="3.5" stroke="white"/>
<path d="M23.519 16.3437H28.019V11.8438" stroke="#667085" stroke-width="1.5" stroke-linecap="round" stroke-linejoin="round"/>
<path d="M24.8316 24.8313C23.6781 25.9857 22.2081 26.7721 20.6076 27.091C19.0071 27.4099 17.3479 27.2469 15.84 26.6227C14.3321 25.9984 13.0433 24.941 12.1364 23.5842C11.2296 22.2273 10.7456 20.632 10.7456 19C10.7456 17.368 11.2296 15.7727 12.1364 14.4158C13.0433 13.059 14.3321 12.0016 15.84 11.3774C17.3479 10.7531 19.0071 10.5901 20.6076 10.909C22.2081 11.2279 23.6781 12.0143 24.8316 13.1688L28.0191 16.3469" stroke="#667085" stroke-width="1.5" stroke-linecap="round" stroke-linejoin="round"/>
</g>
<defs>
<filter id="filter0_bii_14036_36757" x="-100" y="-100" width="238" height="238" filterUnits="userSpaceOnUse" color-interpolation-filters="sRGB">
<feFlood flood-opacity="0" result="BackgroundImageFix"/>
<feGaussianBlur in="BackgroundImageFix" stdDeviation="50"/>
<feComposite in2="SourceAlpha" operator="in" result="effect1_backgroundBlur_14036_36757"/>
<feBlend mode="normal" in="SourceGraphic" in2="effect1_backgroundBlur_14036_36757" result="shape"/>
<feColorMatrix in="SourceAlpha" type="matrix" values="0 0 0 0 0 0 0 0 0 0 0 0 0 0 0 0 0 0 127 0" result="hardAlpha"/>
<feOffset dy="1"/>
<feGaussianBlur stdDeviation="0.5"/>
<feComposite in2="hardAlpha" operator="arithmetic" k2="-1" k3="1"/>
<feColorMatrix type="matrix" values="0 0 0 0 1 0 0 0 0 1 0 0 0 0 1 0 0 0 0.25 0"/>
<feBlend mode="normal" in2="shape" result="effect2_innerShadow_14036_36757"/>
<feColorMatrix in="SourceAlpha" type="matrix" values="0 0 0 0 0 0 0 0 0 0 0 0 0 0 0 0 0 0 127 0" result="hardAlpha"/>
<feOffset dy="-1"/>
<feGaussianBlur stdDeviation="0.5"/>
<feComposite in2="hardAlpha" operator="arithmetic" k2="-1" k3="1"/>
<feColorMatrix type="matrix" values="0 0 0 0 1 0 0 0 0 1 0 0 0 0 1 0 0 0 0.25 0"/>
<feBlend mode="normal" in2="effect2_innerShadow_14036_36757" result="effect3_innerShadow_14036_36757"/>
</filter>
</defs>
</svg>
