<svg width="268" height="268" viewBox="0 0 268 268" fill="none" xmlns="http://www.w3.org/2000/svg">
<g opacity="0.2">
<circle cx="86.1154" cy="86.1154" r="85.6154" transform="matrix(-0.965926 -0.258819 -0.258819 0.965926 239.469 73.1074)" stroke="url(#paint0_radial_1342_67767)" stroke-opacity="0.6"/>
<circle cx="109.411" cy="109.411" r="108.911" transform="matrix(-0.965926 -0.258819 -0.258819 0.965926 268 56.6348)" stroke="url(#paint1_radial_1342_67767)" stroke-opacity="0.3"/>
<circle cx="65.7654" cy="65.7654" r="65.2654" transform="matrix(-0.965926 -0.258819 -0.258819 0.965926 214.546 87.498)" stroke="url(#paint2_radial_1342_67767)" stroke-opacity="0.9"/>
<circle cx="43.614" cy="43.614" r="43.114" transform="matrix(-0.965926 -0.258819 -0.258819 0.965926 187.524 103.254)" stroke="url(#paint3_radial_1342_67767)"/>
</g>
<rect x="110" y="110" width="48" height="48" rx="24" fill="#FEF0C7"/>
<rect x="110" y="110" width="48" height="48" rx="24" stroke="#FFFAEB" stroke-width="8"/>
<path d="M142.25 127.25H125.75" stroke="#D16603" stroke-width="2" stroke-linecap="round" stroke-linejoin="round"/>
<path d="M131.75 131.75V137.75" stroke="#D16603" stroke-width="2" stroke-linecap="round" stroke-linejoin="round"/>
<path d="M136.25 131.75V137.75" stroke="#D16603" stroke-width="2" stroke-linecap="round" stroke-linejoin="round"/>
<path d="M140.75 127.25V141.5C140.75 141.699 140.671 141.89 140.53 142.03C140.39 142.171 140.199 142.25 140 142.25H128C127.801 142.25 127.61 142.171 127.47 142.03C127.329 141.89 127.25 141.699 127.25 141.5V127.25" stroke="#D16603" stroke-width="2" stroke-linecap="round" stroke-linejoin="round"/>
<path d="M137.75 127.25V125.75C137.75 125.352 137.592 124.971 137.311 124.689C137.029 124.408 136.648 124.25 136.25 124.25H131.75C131.352 124.25 130.971 124.408 130.689 124.689C130.408 124.971 130.25 125.352 130.25 125.75V127.25" stroke="#D16603" stroke-width="2" stroke-linecap="round" stroke-linejoin="round"/>
<defs>
<radialGradient id="paint0_radial_1342_67767" cx="0" cy="0" r="1" gradientUnits="userSpaceOnUse" gradientTransform="translate(86.1154 86.1154) rotate(90) scale(86.1154)">
<stop offset="0.724717" stop-color="#344444"/>
<stop offset="1" stop-color="#344444" stop-opacity="0.17"/>
</radialGradient>
<radialGradient id="paint1_radial_1342_67767" cx="0" cy="0" r="1" gradientUnits="userSpaceOnUse" gradientTransform="translate(109.411 109.411) rotate(90) scale(109.411)">
<stop offset="0.724717" stop-color="#344444"/>
<stop offset="1" stop-color="#344444" stop-opacity="0.17"/>
</radialGradient>
<radialGradient id="paint2_radial_1342_67767" cx="0" cy="0" r="1" gradientUnits="userSpaceOnUse" gradientTransform="translate(65.7654 65.7654) rotate(90) scale(65.7654)">
<stop offset="0.724717" stop-color="#344444"/>
<stop offset="1" stop-color="#344444" stop-opacity="0.17"/>
</radialGradient>
<radialGradient id="paint3_radial_1342_67767" cx="0" cy="0" r="1" gradientUnits="userSpaceOnUse" gradientTransform="translate(43.614 43.614) rotate(90) scale(43.614)">
<stop offset="0.724717" stop-color="#344444"/>
<stop offset="1" stop-color="#344444" stop-opacity="0.17"/>
</radialGradient>
</defs>
</svg>
