<svg width="268" height="268" viewBox="0 0 268 268" fill="none" xmlns="http://www.w3.org/2000/svg">
<rect x="110" y="110" width="48" height="48" rx="24" fill="#D1FADF"/>
<rect x="110" y="110" width="48" height="48" rx="24" stroke="#ECFDF3" stroke-width="8"/>
<path d="M133 124C129.229 124 127.343 124 126.172 125.129C125 126.257 125 128.074 125 131.708V139.981C125 142.287 125 143.44 125.773 143.852C127.269 144.651 130.077 141.985 131.41 141.182C132.183 140.717 132.57 140.484 133 140.484C133.43 140.484 133.817 140.717 134.59 141.182C135.923 141.985 138.731 144.651 140.227 143.852C141 143.44 141 142.287 141 139.981V134.5" stroke="#008243" stroke-width="1.5" stroke-linecap="round" stroke-linejoin="round"/>
<path d="M125.5 129H132" stroke="#008243" stroke-width="1.5" stroke-linecap="round"/>
<path d="M139 132L139 124M135 128H143" stroke="#008243" stroke-width="1.5" stroke-linecap="round"/>
<g opacity="0.2">
<circle cx="86.1154" cy="86.1154" r="85.6154" transform="matrix(-0.965926 -0.258819 -0.258819 0.965926 239.47 73.1074)" stroke="url(#paint0_radial_1365_67698)" stroke-opacity="0.6"/>
<circle cx="109.411" cy="109.411" r="108.911" transform="matrix(-0.965926 -0.258819 -0.258819 0.965926 268 56.6348)" stroke="url(#paint1_radial_1365_67698)" stroke-opacity="0.3"/>
<circle cx="65.7654" cy="65.7654" r="65.2654" transform="matrix(-0.965926 -0.258819 -0.258819 0.965926 214.546 87.4971)" stroke="url(#paint2_radial_1365_67698)" stroke-opacity="0.9"/>
<circle cx="43.614" cy="43.614" r="43.114" transform="matrix(-0.965926 -0.258819 -0.258819 0.965926 187.524 103.253)" stroke="url(#paint3_radial_1365_67698)"/>
</g>
<defs>
<radialGradient id="paint0_radial_1365_67698" cx="0" cy="0" r="1" gradientUnits="userSpaceOnUse" gradientTransform="translate(86.1154 86.1154) rotate(90) scale(86.1154)">
<stop offset="0.724717" stop-color="#344444"/>
<stop offset="1" stop-color="#344444" stop-opacity="0.17"/>
</radialGradient>
<radialGradient id="paint1_radial_1365_67698" cx="0" cy="0" r="1" gradientUnits="userSpaceOnUse" gradientTransform="translate(109.411 109.411) rotate(90) scale(109.411)">
<stop offset="0.724717" stop-color="#344444"/>
<stop offset="1" stop-color="#344444" stop-opacity="0.17"/>
</radialGradient>
<radialGradient id="paint2_radial_1365_67698" cx="0" cy="0" r="1" gradientUnits="userSpaceOnUse" gradientTransform="translate(65.7654 65.7654) rotate(90) scale(65.7654)">
<stop offset="0.724717" stop-color="#344444"/>
<stop offset="1" stop-color="#344444" stop-opacity="0.17"/>
</radialGradient>
<radialGradient id="paint3_radial_1365_67698" cx="0" cy="0" r="1" gradientUnits="userSpaceOnUse" gradientTransform="translate(43.614 43.614) rotate(90) scale(43.614)">
<stop offset="0.724717" stop-color="#344444"/>
<stop offset="1" stop-color="#344444" stop-opacity="0.17"/>
</radialGradient>
</defs>
</svg>
