<svg width="268" height="268" viewBox="0 0 268 268" fill="none" xmlns="http://www.w3.org/2000/svg">
<rect x="110" y="110.998" width="48" height="48" rx="24" fill="#D1FADF"/>
<rect x="110" y="110.998" width="48" height="48" rx="24" stroke="#ECFDF3" stroke-width="8"/>
<path d="M144 134.078V134.998C143.999 137.154 143.301 139.253 142.009 140.98C140.718 142.707 138.903 143.97 136.835 144.582C134.767 145.193 132.557 145.12 130.534 144.372C128.512 143.625 126.785 142.244 125.611 140.435C124.437 138.626 123.88 136.486 124.022 134.334C124.164 132.182 124.997 130.134 126.398 128.495C127.799 126.856 129.693 125.713 131.796 125.238C133.9 124.763 136.1 124.98 138.07 125.858M144 126.998L134 137.008L131 134.008" stroke="#008243" stroke-width="2" stroke-linecap="round" stroke-linejoin="round"/>
<g opacity="0.2">
<circle cx="86.1154" cy="86.1154" r="85.6154" transform="matrix(-0.965926 -0.258819 -0.258819 0.965926 239.469 73.1074)" stroke="url(#paint0_radial_1365_67674)" stroke-opacity="0.6"/>
<circle cx="109.411" cy="109.411" r="108.911" transform="matrix(-0.965926 -0.258819 -0.258819 0.965926 268 56.6348)" stroke="url(#paint1_radial_1365_67674)" stroke-opacity="0.3"/>
<circle cx="65.7654" cy="65.7654" r="65.2654" transform="matrix(-0.965926 -0.258819 -0.258819 0.965926 214.547 87.4941)" stroke="url(#paint2_radial_1365_67674)" stroke-opacity="0.9"/>
<circle cx="43.614" cy="43.614" r="43.114" transform="matrix(-0.965926 -0.258819 -0.258819 0.965926 187.523 103.252)" stroke="url(#paint3_radial_1365_67674)"/>
</g>
<defs>
<radialGradient id="paint0_radial_1365_67674" cx="0" cy="0" r="1" gradientUnits="userSpaceOnUse" gradientTransform="translate(86.1154 86.1154) rotate(90) scale(86.1154)">
<stop offset="0.724717" stop-color="#344444"/>
<stop offset="1" stop-color="#344444" stop-opacity="0.17"/>
</radialGradient>
<radialGradient id="paint1_radial_1365_67674" cx="0" cy="0" r="1" gradientUnits="userSpaceOnUse" gradientTransform="translate(109.411 109.411) rotate(90) scale(109.411)">
<stop offset="0.724717" stop-color="#344444"/>
<stop offset="1" stop-color="#344444" stop-opacity="0.17"/>
</radialGradient>
<radialGradient id="paint2_radial_1365_67674" cx="0" cy="0" r="1" gradientUnits="userSpaceOnUse" gradientTransform="translate(65.7654 65.7654) rotate(90) scale(65.7654)">
<stop offset="0.724717" stop-color="#344444"/>
<stop offset="1" stop-color="#344444" stop-opacity="0.17"/>
</radialGradient>
<radialGradient id="paint3_radial_1365_67674" cx="0" cy="0" r="1" gradientUnits="userSpaceOnUse" gradientTransform="translate(43.614 43.614) rotate(90) scale(43.614)">
<stop offset="0.724717" stop-color="#344444"/>
<stop offset="1" stop-color="#344444" stop-opacity="0.17"/>
</radialGradient>
</defs>
</svg>
