<svg width="268" height="268" viewBox="0 0 268 268" fill="none" xmlns="http://www.w3.org/2000/svg">
<rect x="110" y="110" width="48" height="48" rx="24" fill="#D1FADF"/>
<rect x="110" y="110" width="48" height="48" rx="24" stroke="#ECFDF3" stroke-width="8"/>
<path d="M130.062 132.312L134 136.25L137.938 132.312" stroke="#008243" stroke-width="2" stroke-linecap="round" stroke-linejoin="round"/>
<path d="M134 125.75V136.25" stroke="#008243" stroke-width="2" stroke-linecap="round" stroke-linejoin="round"/>
<path d="M142.25 136.25V141.5C142.25 141.699 142.171 141.89 142.03 142.03C141.89 142.171 141.699 142.25 141.5 142.25H126.5C126.301 142.25 126.11 142.171 125.97 142.03C125.829 141.89 125.75 141.699 125.75 141.5V136.25" stroke="#008243" stroke-width="2" stroke-linecap="round" stroke-linejoin="round"/>
<g opacity="0.2">
<circle cx="86.1154" cy="86.1154" r="85.6154" transform="matrix(-0.965926 -0.258819 -0.258819 0.965926 239.47 73.1074)" stroke="url(#paint0_radial_1365_67721)" stroke-opacity="0.6"/>
<circle cx="109.411" cy="109.411" r="108.911" transform="matrix(-0.965926 -0.258819 -0.258819 0.965926 268 56.6348)" stroke="url(#paint1_radial_1365_67721)" stroke-opacity="0.3"/>
<circle cx="65.7654" cy="65.7654" r="65.2654" transform="matrix(-0.965926 -0.258819 -0.258819 0.965926 214.546 87.4971)" stroke="url(#paint2_radial_1365_67721)" stroke-opacity="0.9"/>
<circle cx="43.614" cy="43.614" r="43.114" transform="matrix(-0.965926 -0.258819 -0.258819 0.965926 187.524 103.253)" stroke="url(#paint3_radial_1365_67721)"/>
</g>
<defs>
<radialGradient id="paint0_radial_1365_67721" cx="0" cy="0" r="1" gradientUnits="userSpaceOnUse" gradientTransform="translate(86.1154 86.1154) rotate(90) scale(86.1154)">
<stop offset="0.724717" stop-color="#344444"/>
<stop offset="1" stop-color="#344444" stop-opacity="0.17"/>
</radialGradient>
<radialGradient id="paint1_radial_1365_67721" cx="0" cy="0" r="1" gradientUnits="userSpaceOnUse" gradientTransform="translate(109.411 109.411) rotate(90) scale(109.411)">
<stop offset="0.724717" stop-color="#344444"/>
<stop offset="1" stop-color="#344444" stop-opacity="0.17"/>
</radialGradient>
<radialGradient id="paint2_radial_1365_67721" cx="0" cy="0" r="1" gradientUnits="userSpaceOnUse" gradientTransform="translate(65.7654 65.7654) rotate(90) scale(65.7654)">
<stop offset="0.724717" stop-color="#344444"/>
<stop offset="1" stop-color="#344444" stop-opacity="0.17"/>
</radialGradient>
<radialGradient id="paint3_radial_1365_67721" cx="0" cy="0" r="1" gradientUnits="userSpaceOnUse" gradientTransform="translate(43.614 43.614) rotate(90) scale(43.614)">
<stop offset="0.724717" stop-color="#344444"/>
<stop offset="1" stop-color="#344444" stop-opacity="0.17"/>
</radialGradient>
</defs>
</svg>
