<svg width="268" height="268" viewBox="0 0 268 268" fill="none" xmlns="http://www.w3.org/2000/svg">
<rect x="110" y="111" width="48" height="48" rx="24" fill="#D1FADF"/>
<rect x="110" y="111" width="48" height="48" rx="24" stroke="#ECFDF3" stroke-width="8"/>
<g opacity="0.2">
<circle cx="86.1154" cy="86.1154" r="85.6154" transform="matrix(-0.965926 -0.258819 -0.258819 0.965926 239.469 73.1113)" stroke="url(#paint0_radial_2205_200830)" stroke-opacity="0.6"/>
<circle cx="109.411" cy="109.411" r="108.911" transform="matrix(-0.965926 -0.258819 -0.258819 0.965926 268 56.6348)" stroke="url(#paint1_radial_2205_200830)" stroke-opacity="0.3"/>
<circle cx="65.7654" cy="65.7654" r="65.2654" transform="matrix(-0.965926 -0.258819 -0.258819 0.965926 214.547 87.4941)" stroke="url(#paint2_radial_2205_200830)" stroke-opacity="0.9"/>
<circle cx="43.614" cy="43.614" r="43.114" transform="matrix(-0.965926 -0.258819 -0.258819 0.965926 187.523 103.252)" stroke="url(#paint3_radial_2205_200830)"/>
</g>
<path d="M131 142.25H126.5C126.301 142.25 126.11 142.171 125.97 142.03C125.829 141.89 125.75 141.699 125.75 141.5V137.309C125.75 137.212 125.769 137.115 125.806 137.025C125.843 136.935 125.897 136.853 125.966 136.784L137.216 125.534C137.285 125.463 137.369 125.407 137.46 125.369C137.552 125.33 137.651 125.311 137.75 125.311C137.849 125.311 137.948 125.33 138.04 125.369C138.131 125.407 138.215 125.463 138.284 125.534L142.466 129.716C142.536 129.785 142.593 129.869 142.631 129.96C142.67 130.052 142.689 130.15 142.689 130.25C142.689 130.349 142.67 130.448 142.631 130.54C142.593 130.631 142.536 130.715 142.466 130.784L131 142.25Z" stroke="#008243" stroke-width="2" stroke-linecap="round" stroke-linejoin="round"/>
<path d="M142.25 142.25H131" stroke="#008243" stroke-width="2" stroke-linecap="round" stroke-linejoin="round"/>
<path d="M134.75 128L140 133.25" stroke="#008243" stroke-width="2" stroke-linecap="round" stroke-linejoin="round"/>
<defs>
<radialGradient id="paint0_radial_2205_200830" cx="0" cy="0" r="1" gradientUnits="userSpaceOnUse" gradientTransform="translate(86.1154 86.1154) rotate(90) scale(86.1154)">
<stop offset="0.724717" stop-color="#344444"/>
<stop offset="1" stop-color="#344444" stop-opacity="0.17"/>
</radialGradient>
<radialGradient id="paint1_radial_2205_200830" cx="0" cy="0" r="1" gradientUnits="userSpaceOnUse" gradientTransform="translate(109.411 109.411) rotate(90) scale(109.411)">
<stop offset="0.724717" stop-color="#344444"/>
<stop offset="1" stop-color="#344444" stop-opacity="0.17"/>
</radialGradient>
<radialGradient id="paint2_radial_2205_200830" cx="0" cy="0" r="1" gradientUnits="userSpaceOnUse" gradientTransform="translate(65.7654 65.7654) rotate(90) scale(65.7654)">
<stop offset="0.724717" stop-color="#344444"/>
<stop offset="1" stop-color="#344444" stop-opacity="0.17"/>
</radialGradient>
<radialGradient id="paint3_radial_2205_200830" cx="0" cy="0" r="1" gradientUnits="userSpaceOnUse" gradientTransform="translate(43.614 43.614) rotate(90) scale(43.614)">
<stop offset="0.724717" stop-color="#344444"/>
<stop offset="1" stop-color="#344444" stop-opacity="0.17"/>
</radialGradient>
</defs>
</svg>
