<svg width="544" height="544" viewBox="0 0 544 544" fill="none" xmlns="http://www.w3.org/2000/svg">
<g filter="url(#filter0_d_2250_80573)">
<rect x="244" y="247" width="56" height="56" rx="4" fill="white" shape-rendering="crispEdges"/>
<rect x="244.5" y="247.5" width="55" height="55" rx="3.5" stroke="#E4E7EC" shape-rendering="crispEdges"/>
<path d="M280.75 270.625H263.25C262.767 270.625 262.375 271.017 262.375 271.5V283.75C262.375 284.233 262.767 284.625 263.25 284.625H280.75C281.233 284.625 281.625 284.233 281.625 283.75V271.5C281.625 271.017 281.233 270.625 280.75 270.625Z" stroke="#101828" stroke-width="2" stroke-linecap="round" stroke-linejoin="round"/>
<path d="M268.062 270.625V266.688C268.062 265.643 268.477 264.642 269.216 263.903C269.954 263.165 270.956 262.75 272 262.75C273.044 262.75 274.046 263.165 274.784 263.903C275.523 264.642 275.938 265.643 275.938 266.688V270.625" stroke="#101828" stroke-width="2" stroke-linecap="round" stroke-linejoin="round"/>
<path d="M272 278.938C272.725 278.938 273.312 278.35 273.312 277.625C273.312 276.9 272.725 276.312 272 276.312C271.275 276.312 270.688 276.9 270.688 277.625C270.688 278.35 271.275 278.938 272 278.938Z" fill="#101828"/>
</g>
<g opacity="0.2">
<circle cx="174.801" cy="174.801" r="174.301" transform="matrix(-0.965926 -0.258819 -0.258819 0.965926 486.087 148.398)" stroke="url(#paint0_radial_2250_80573)" stroke-opacity="0.6"/>
<circle cx="222.087" cy="222.087" r="221.587" transform="matrix(-0.965926 -0.258819 -0.258819 0.965926 544 114.961)" stroke="url(#paint1_radial_2250_80573)" stroke-opacity="0.3"/>
<circle cx="133.494" cy="133.494" r="132.994" transform="matrix(-0.965926 -0.258819 -0.258819 0.965926 435.496 177.605)" stroke="url(#paint2_radial_2250_80573)" stroke-opacity="0.9"/>
<circle cx="88.5298" cy="88.5298" r="88.0298" transform="matrix(-0.965926 -0.258819 -0.258819 0.965926 380.647 209.59)" stroke="url(#paint3_radial_2250_80573)"/>
<circle cx="51.8595" cy="51.8595" r="51.3595" transform="matrix(-0.965926 -0.258819 -0.258819 0.965926 335.735 235.52)" stroke="url(#paint4_radial_2250_80573)"/>
</g>
<defs>
<filter id="filter0_d_2250_80573" x="242" y="246" width="60" height="60" filterUnits="userSpaceOnUse" color-interpolation-filters="sRGB">
<feFlood flood-opacity="0" result="BackgroundImageFix"/>
<feColorMatrix in="SourceAlpha" type="matrix" values="0 0 0 0 0 0 0 0 0 0 0 0 0 0 0 0 0 0 127 0" result="hardAlpha"/>
<feOffset dy="1"/>
<feGaussianBlur stdDeviation="1"/>
<feComposite in2="hardAlpha" operator="out"/>
<feColorMatrix type="matrix" values="0 0 0 0 0.0627451 0 0 0 0 0.0941176 0 0 0 0 0.156863 0 0 0 0.12 0"/>
<feBlend mode="normal" in2="BackgroundImageFix" result="effect1_dropShadow_2250_80573"/>
<feBlend mode="normal" in="SourceGraphic" in2="effect1_dropShadow_2250_80573" result="shape"/>
</filter>
<radialGradient id="paint0_radial_2250_80573" cx="0" cy="0" r="1" gradientUnits="userSpaceOnUse" gradientTransform="translate(174.801 174.801) rotate(90) scale(174.801)">
<stop offset="0.724717" stop-color="#344444"/>
<stop offset="1" stop-color="#344444" stop-opacity="0.17"/>
</radialGradient>
<radialGradient id="paint1_radial_2250_80573" cx="0" cy="0" r="1" gradientUnits="userSpaceOnUse" gradientTransform="translate(222.087 222.087) rotate(90) scale(222.087)">
<stop offset="0.724717" stop-color="#344444"/>
<stop offset="1" stop-color="#344444" stop-opacity="0.17"/>
</radialGradient>
<radialGradient id="paint2_radial_2250_80573" cx="0" cy="0" r="1" gradientUnits="userSpaceOnUse" gradientTransform="translate(133.494 133.494) rotate(90) scale(133.494)">
<stop offset="0.724717" stop-color="#344444"/>
<stop offset="1" stop-color="#344444" stop-opacity="0.17"/>
</radialGradient>
<radialGradient id="paint3_radial_2250_80573" cx="0" cy="0" r="1" gradientUnits="userSpaceOnUse" gradientTransform="translate(88.5298 88.5298) rotate(90) scale(88.5298)">
<stop offset="0.724717" stop-color="#344444"/>
<stop offset="1" stop-color="#344444" stop-opacity="0.17"/>
</radialGradient>
<radialGradient id="paint4_radial_2250_80573" cx="0" cy="0" r="1" gradientUnits="userSpaceOnUse" gradientTransform="translate(51.8595 51.8595) rotate(90) scale(51.8595)">
<stop offset="0.724717" stop-color="#344444"/>
<stop offset="1" stop-color="#344444" stop-opacity="0.17"/>
</radialGradient>
</defs>
</svg>