<svg width="544" height="544" viewBox="0 0 544 544" fill="none" xmlns="http://www.w3.org/2000/svg">
<g opacity="0.2">
<circle cx="174.801" cy="174.801" r="174.301" transform="matrix(-0.965926 -0.258819 -0.258819 0.965926 486.087 148.398)" stroke="#1C1B22" stroke-opacity="0.15"/>
<circle cx="222.087" cy="222.087" r="221.587" transform="matrix(-0.965926 -0.258819 -0.258819 0.965926 544 114.961)" stroke="url(#paint0_radial_3503_96310)" stroke-opacity="0.3"/>
<circle cx="133.494" cy="133.494" r="132.994" transform="matrix(-0.965926 -0.258819 -0.258819 0.965926 435.496 177.609)" stroke="black" stroke-opacity="0.15"/>
<circle cx="88.5298" cy="88.5298" r="88.0298" transform="matrix(-0.965926 -0.258819 -0.258819 0.965926 380.647 209.586)" stroke="black" stroke-opacity="0.24"/>
<circle cx="51.8595" cy="51.8595" r="51.3595" transform="matrix(-0.965926 -0.258819 -0.258819 0.965926 335.735 235.516)" stroke="black" stroke-opacity="0.32"/>
</g>
<g filter="url(#filter0_d_3503_96310)">
<rect x="244" y="244" width="56" height="56" rx="4" fill="white" shape-rendering="crispEdges"/>
<rect x="244.5" y="244.5" width="55" height="55" rx="3.5" stroke="#E4E7EC" shape-rendering="crispEdges"/>
<path d="M280.75 267.625H263.25C262.767 267.625 262.375 268.017 262.375 268.5V280.75C262.375 281.233 262.767 281.625 263.25 281.625H280.75C281.233 281.625 281.625 281.233 281.625 280.75V268.5C281.625 268.017 281.233 267.625 280.75 267.625Z" stroke="#101828" stroke-width="2" stroke-linecap="round" stroke-linejoin="round"/>
<path d="M268.062 267.625V263.688C268.062 262.643 268.477 261.642 269.216 260.903C269.954 260.165 270.956 259.75 272 259.75C273.044 259.75 274.046 260.165 274.784 260.903C275.523 261.642 275.938 262.643 275.938 263.688V267.625" stroke="#101828" stroke-width="2" stroke-linecap="round" stroke-linejoin="round"/>
<path d="M272 275.938C272.725 275.938 273.312 275.35 273.312 274.625C273.312 273.9 272.725 273.312 272 273.312C271.275 273.312 270.688 273.9 270.688 274.625C270.688 275.35 271.275 275.938 272 275.938Z" fill="#101828"/>
</g>
<defs>
<filter id="filter0_d_3503_96310" x="242" y="243" width="60" height="60" filterUnits="userSpaceOnUse" color-interpolation-filters="sRGB">
<feFlood flood-opacity="0" result="BackgroundImageFix"/>
<feColorMatrix in="SourceAlpha" type="matrix" values="0 0 0 0 0 0 0 0 0 0 0 0 0 0 0 0 0 0 127 0" result="hardAlpha"/>
<feOffset dy="1"/>
<feGaussianBlur stdDeviation="1"/>
<feComposite in2="hardAlpha" operator="out"/>
<feColorMatrix type="matrix" values="0 0 0 0 0.0627451 0 0 0 0 0.0941176 0 0 0 0 0.156863 0 0 0 0.12 0"/>
<feBlend mode="normal" in2="BackgroundImageFix" result="effect1_dropShadow_3503_96310"/>
<feBlend mode="normal" in="SourceGraphic" in2="effect1_dropShadow_3503_96310" result="shape"/>
</filter>
<radialGradient id="paint0_radial_3503_96310" cx="0" cy="0" r="1" gradientUnits="userSpaceOnUse" gradientTransform="translate(222.087 222.087) rotate(90) scale(222.087)">
<stop offset="0.724717" stop-color="#344444"/>
<stop offset="1" stop-color="#344444" stop-opacity="0.17"/>
</radialGradient>
</defs>
</svg>
