<svg width="189" height="158" viewBox="0 0 189 158" fill="none" xmlns="http://www.w3.org/2000/svg">
<circle cx="95.5" cy="85.9688" r="70.5" fill="#DBF2FC"/>
<path d="M41.9717 58.4551L95.1105 85.0245V140.82L41.9717 114.251V58.4551Z" fill="#7AA6B4"/>
<path d="M148.25 58.4551L95.1107 85.0245V140.82L148.25 114.251V58.4551Z" fill="#457F8F"/>
<path d="M95.1105 85.0236L41.9717 58.4542L95.1105 31.8848L148.249 58.4542L95.1105 85.0236Z" fill="#BCDBE3"/>
<path d="M117.694 43.1777L64.5557 69.7471L72.5265 73.7326L124.337 46.4989L117.694 43.1777Z" fill="#9CC1CC"/>
<path d="M64.5557 69.7461L72.5265 73.7315V85.6877L64.5557 81.7023V69.7461Z" fill="#9CC1CC"/>
<rect x="23.2368" width="28.399" height="28.399" transform="rotate(45 23.2368 0)" fill="#DBF2FC"/>
<rect x="14.1763" y="40.2324" width="18.9327" height="18.9327" transform="rotate(45 14.1763 40.2324)" fill="#DBF2FC"/>
<rect x="174.086" y="128.562" width="20.4382" height="20.4382" transform="rotate(45 174.086 128.562)" fill="#DBF2FC"/>
</svg>
