<svg width="221" height="166" viewBox="0 0 221 166" fill="none" xmlns="http://www.w3.org/2000/svg">
<circle cx="19.5" cy="35" r="5" fill="#E4E7EC"/>
<circle cx="9.5" cy="122" r="9" fill="#E4E7EC"/>
<circle cx="205.5" cy="28" r="6" fill="#E4E7EC"/>
<circle cx="110.5" cy="80" r="80" fill="#E4E7EC"/>
<g filter="url(#filter0_dd_5227_93515)">
<rect x="27.5" y="22" width="166" height="104" rx="6" fill="url(#paint0_linear_5227_93515)"/>
<g opacity="0.42" clip-path="url(#clip0_5227_93515)">
<mask id="mask0_5227_93515" style="mask-type:luminance" maskUnits="userSpaceOnUse" x="92" y="54" width="69" height="69">
<path d="M126.26 54.1448L160.134 88.3525L125.926 122.227L92.0518 88.0191L126.26 54.1448Z" fill="white"/>
</mask>
<g mask="url(#mask0_5227_93515)">
<path d="M113.753 70.7641L126.882 66.0625L122.052 79.145L113.753 70.7641Z" fill="#9A9FB8"/>
<path d="M126.882 66.0625L137.552 76.8379L122.052 79.1449L126.882 66.0625Z" fill="#C6CCE0"/>
<path d="M143.393 100.696L148.223 87.6134L135.094 92.315L143.393 100.696Z" fill="#9A9FB8"/>
<path d="M148.223 87.6134L137.552 76.838L135.094 92.3149L148.223 87.6134ZM122.052 79.145L114.248 99.9148L113.753 70.7641L122.052 79.145Z" fill="#C6CCE0"/>
<path d="M135.094 92.315L114.249 99.9148L143.393 100.696L135.094 92.315Z" fill="#787B94"/>
<path d="M122.052 79.1449L135.094 92.3149L137.553 76.8379L122.052 79.1449Z" fill="#ECF0FA"/>
<path d="M122.052 79.145L114.248 99.9149L135.094 92.315L122.052 79.145Z" fill="#9A9FB8"/>
</g>
</g>
<g opacity="0.42" clip-path="url(#clip1_5227_93515)">
<mask id="mask1_5227_93515" style="mask-type:luminance" maskUnits="userSpaceOnUse" x="60" y="43" width="69" height="69">
<path d="M60.5 77.8734L94.5414 43.832L128.583 77.8734L94.5414 111.915L60.5 77.8734Z" fill="white"/>
</mask>
<g mask="url(#mask1_5227_93515)">
<path d="M77.1803 90.2985L72.4145 77.1926L85.5204 81.9584L77.1803 90.2985Z" fill="#9A9FB8"/>
<path d="M72.4146 77.1926L83.1376 66.4696L85.5205 81.9584L72.4146 77.1926Z" fill="#C6CCE0"/>
<path d="M106.966 60.5124L93.8605 55.7466L98.6263 68.8525L106.966 60.5124Z" fill="#9A9FB8"/>
<path d="M93.8605 55.7465L83.1375 66.4696L98.6263 68.8524L93.8605 55.7465ZM85.5204 81.9584L106.328 89.6603L77.1803 90.2985L85.5204 81.9584Z" fill="#C6CCE0"/>
<path d="M98.6265 68.8524L106.328 89.6602L106.967 60.5123L98.6265 68.8524Z" fill="#787B94"/>
<path d="M85.5203 81.9585L98.6263 68.8525L83.1374 66.4696L85.5203 81.9585Z" fill="#ECF0FA"/>
<path d="M85.5205 81.9584L106.328 89.6602L98.6265 68.8524L85.5205 81.9584Z" fill="#9A9FB8"/>
</g>
</g>
<path d="M124.925 59.3875C124.716 59.3875 124.528 59.2299 124.507 59.0329C124.13 55.4475 123.838 54.3049 120.346 53.9897C120.137 53.97 119.969 53.7927 119.969 53.5957C119.969 53.3987 120.137 53.2214 120.346 53.2017C123.921 52.8865 124.13 52.0197 124.507 48.4343C124.507 48.2373 124.716 48.0797 124.925 48.0797C125.134 48.0797 125.322 48.2373 125.343 48.4343C125.72 52.0197 125.95 52.8865 129.504 53.2017C129.714 53.2214 129.881 53.3987 129.881 53.5957C129.881 53.7927 129.714 53.97 129.504 53.9897C125.991 54.3049 125.72 55.4475 125.343 59.0526C125.343 59.2496 125.155 59.4072 124.925 59.4072L124.925 59.3875Z" fill="#D6D9E3"/>
<path d="M134.837 65.0611C134.747 65.0611 134.666 64.9823 134.657 64.8838C134.496 63.0911 134.371 62.5198 132.874 62.3622C132.784 62.3524 132.713 62.2637 132.713 62.1652C132.713 62.0667 132.784 61.9781 132.874 61.9682C134.406 61.8106 134.496 61.3772 134.657 59.5845C134.657 59.486 134.747 59.4072 134.837 59.4072C134.926 59.4072 135.007 59.486 135.016 59.5845C135.177 61.3772 135.276 61.8106 136.799 61.9682C136.889 61.9781 136.96 62.0667 136.96 62.1652C136.96 62.2637 136.889 62.3524 136.799 62.3622C135.294 62.5198 135.177 63.0911 135.016 64.8937C135.016 64.9922 134.935 65.071 134.837 65.071V65.0611Z" fill="#D6D9E3"/>
<path d="M109.35 110.371C109.26 110.371 109.179 110.292 109.171 110.194C109.009 108.401 108.884 107.83 107.387 107.672C107.298 107.662 107.226 107.574 107.226 107.475C107.226 107.377 107.298 107.288 107.387 107.278C108.92 107.121 109.009 106.687 109.171 104.894C109.171 104.796 109.26 104.717 109.35 104.717C109.439 104.717 109.52 104.796 109.529 104.894C109.69 106.687 109.789 107.121 111.312 107.278C111.402 107.288 111.474 107.377 111.474 107.475C111.474 107.574 111.402 107.662 111.312 107.672C109.807 107.83 109.69 108.401 109.529 110.204C109.529 110.302 109.448 110.381 109.35 110.381V110.371Z" fill="#D6D9E3"/>
<path d="M96.6065 103.286C96.4571 103.286 96.3227 103.168 96.3078 103.02C96.0389 100.331 95.8298 99.4744 93.3355 99.238C93.1861 99.2233 93.0667 99.0903 93.0667 98.9425C93.0667 98.7948 93.1861 98.6618 93.3355 98.647C95.8896 98.4106 96.0389 97.7605 96.3078 95.0715C96.3078 94.9237 96.4571 94.8055 96.6065 94.8055C96.7559 94.8055 96.8903 94.9237 96.9052 95.0715C97.1741 97.7605 97.3384 98.4106 99.8775 98.647C100.027 98.6618 100.146 98.7948 100.146 98.9425C100.146 99.0903 100.027 99.2233 99.8775 99.238C97.3682 99.4744 97.1741 100.331 96.9052 103.035C96.9052 103.183 96.7708 103.301 96.6065 103.301V103.286Z" fill="#D6D9E3"/>
<path d="M83.8629 107.539C83.7733 107.539 83.6926 107.46 83.6837 107.362C83.5224 105.569 83.3969 104.998 81.9003 104.84C81.8107 104.83 81.739 104.742 81.739 104.643C81.739 104.545 81.8107 104.456 81.9003 104.446C83.4328 104.289 83.5224 103.855 83.6837 102.063C83.6837 101.964 83.7733 101.885 83.8629 101.885C83.9525 101.885 84.0332 101.964 84.0422 102.063C84.2035 103.855 84.302 104.289 85.8255 104.446C85.9151 104.456 85.9868 104.545 85.9868 104.643C85.9868 104.742 85.9151 104.83 85.8255 104.84C84.32 104.998 84.2035 105.569 84.0422 107.372C84.0422 107.47 83.9615 107.549 83.8629 107.549V107.539Z" fill="#D6D9E3"/>
<path d="M79.6151 56.5654C79.5255 56.5654 79.4448 56.4866 79.4359 56.3881C79.2746 54.5954 79.1491 54.0241 77.6525 53.8665C77.5629 53.8566 77.4912 53.768 77.4912 53.6695C77.4912 53.571 77.5629 53.4823 77.6525 53.4725C79.185 53.3149 79.2746 52.8815 79.4359 51.0888C79.4359 50.9903 79.5255 50.9115 79.6151 50.9115C79.7047 50.9115 79.7854 50.9903 79.7943 51.0888C79.9557 52.8815 80.0542 53.3149 81.5777 53.4725C81.6673 53.4823 81.739 53.571 81.739 53.6695C81.739 53.768 81.6673 53.8566 81.5777 53.8665C80.0722 54.0241 79.9557 54.5954 79.7943 56.3979C79.7943 56.4964 79.7137 56.5752 79.6151 56.5752V56.5654Z" fill="#D6D9E3"/>
<path d="M113.598 65.0611C113.508 65.0611 113.427 64.9823 113.418 64.8838C113.257 63.0911 113.132 62.5198 111.635 62.3622C111.545 62.3524 111.474 62.2637 111.474 62.1652C111.474 62.0667 111.545 61.9781 111.635 61.9682C113.167 61.8106 113.257 61.3772 113.418 59.5845C113.418 59.486 113.508 59.4072 113.598 59.4072C113.687 59.4072 113.768 59.486 113.777 59.5845C113.938 61.3772 114.037 61.8106 115.56 61.9682C115.65 61.9781 115.721 62.0667 115.721 62.1652C115.721 62.2637 115.65 62.3524 115.56 62.3622C114.055 62.5198 113.938 63.0911 113.777 64.8937C113.777 64.9922 113.696 65.071 113.598 65.071V65.0611Z" fill="#D6D9E3"/>
<path d="M132.005 46.6539C131.915 46.6539 131.834 46.5751 131.826 46.4766C131.664 44.6839 131.539 44.1126 130.042 43.955C129.953 43.9451 129.881 43.8565 129.881 43.758C129.881 43.6595 129.953 43.5708 130.042 43.561C131.575 43.4034 131.664 42.97 131.826 41.1773C131.826 41.0788 131.915 41 132.005 41C132.094 41 132.175 41.0788 132.184 41.1773C132.345 42.97 132.444 43.4034 133.967 43.561C134.057 43.5708 134.129 43.6595 134.129 43.758C134.129 43.8565 134.057 43.9451 133.967 43.955C132.462 44.1126 132.345 44.6839 132.184 46.4864C132.184 46.5849 132.103 46.6637 132.005 46.6637V46.6539Z" fill="#D6D9E3"/>
<path d="M107.934 50.8967C107.785 50.8967 107.65 50.7785 107.635 50.6308C107.366 47.9417 107.157 47.0848 104.663 46.8484C104.514 46.8336 104.394 46.7006 104.394 46.5529C104.394 46.4051 104.514 46.2722 104.663 46.2574C107.217 46.021 107.366 45.3709 107.635 42.6818C107.635 42.5341 107.785 42.4159 107.934 42.4159C108.083 42.4159 108.218 42.5341 108.233 42.6818C108.501 45.3709 108.666 46.021 111.205 46.2574C111.354 46.2722 111.474 46.4051 111.474 46.5529C111.474 46.7006 111.354 46.8336 111.205 46.8484C108.696 47.0848 108.501 47.9417 108.233 50.6456C108.233 50.7933 108.098 50.9115 107.934 50.9115V50.8967Z" fill="#D6D9E3"/>
<path d="M122.093 107.539C122.004 107.539 121.923 107.46 121.914 107.362C121.753 105.569 121.627 104.998 120.131 104.84C120.041 104.83 119.969 104.742 119.969 104.643C119.969 104.545 120.041 104.456 120.131 104.446C121.663 104.289 121.753 103.855 121.914 102.063C121.914 101.964 122.004 101.885 122.093 101.885C122.183 101.885 122.263 101.964 122.272 102.063C122.434 103.855 122.532 104.289 124.056 104.446C124.145 104.456 124.217 104.545 124.217 104.643C124.217 104.742 124.145 104.83 124.056 104.84C122.55 104.998 122.434 105.569 122.272 107.372C122.272 107.47 122.192 107.549 122.093 107.549L122.093 107.539Z" fill="#D6D9E3"/>
</g>
<circle cx="209.5" cy="4" r="4" fill="#E4E7EC"/>
<path d="M64.32 48.1594H39.8005C38.9251 48.1594 38.0857 47.8117 37.4667 47.1927C36.8477 46.5737 36.5 45.7342 36.5 44.8589V34.3005C36.5 33.4251 36.8477 32.5857 37.4667 31.9667C38.0857 31.3477 38.9251 31 39.8005 31H64.32C64.7752 31 65.2256 31.0942 65.6427 31.2767C66.0598 31.4591 66.4346 31.7259 66.7436 32.0602L71.6234 37.3394C72.1871 37.9493 72.5002 38.7492 72.5002 39.5797C72.5002 40.4102 72.1871 41.2101 71.6234 41.82L66.7436 47.0992C66.4346 47.4335 66.0598 47.7003 65.6427 47.8827C65.2256 48.0652 64.7752 48.1594 64.32 48.1594Z" fill="#D5D8E2"/>
<path d="M43.0923 37.1048L45.5288 40.7917V37.0707C45.5288 36.8288 45.5808 36.6474 45.6847 36.5263C45.7365 36.4664 45.8013 36.4189 45.8741 36.3875C45.9469 36.3561 46.0258 36.3416 46.105 36.345C46.1858 36.3412 46.2664 36.3555 46.341 36.3869C46.4155 36.4182 46.4821 36.4659 46.5359 36.5263C46.6412 36.6474 46.694 36.8289 46.6943 37.0707V41.9907C46.6943 42.5398 46.4667 42.8144 46.0115 42.8143C45.907 42.8158 45.8031 42.7992 45.7043 42.7653C45.6096 42.7304 45.5227 42.6775 45.4482 42.6094C45.3652 42.5348 45.2907 42.4511 45.2263 42.3599C45.158 42.2645 45.0897 42.167 45.0215 42.0674L42.644 38.4233V42.089C42.644 42.328 42.5886 42.5087 42.4778 42.631C42.4243 42.6908 42.3584 42.7381 42.2847 42.7697C42.211 42.8014 42.1312 42.8166 42.0511 42.8143C41.9699 42.8174 41.8891 42.8024 41.8144 42.7704C41.7398 42.7383 41.6733 42.6899 41.6198 42.6288C41.5117 42.5051 41.4577 42.3251 41.4578 42.0888V37.2626C41.4514 37.099 41.4745 36.9356 41.5261 36.7802C41.5814 36.6505 41.6753 36.5409 41.795 36.4665C41.9151 36.3868 42.0561 36.3445 42.2002 36.3447C42.2942 36.341 42.3879 36.3574 42.4751 36.3927C42.5623 36.428 42.6409 36.4815 42.7058 36.5496C42.7765 36.6243 42.8394 36.7059 42.8936 36.7932C42.9577 36.8929 43.0239 36.9967 43.0923 37.1048ZM52.0717 37.4291H49.217V38.9653H51.8456C52.0392 38.9653 52.1835 39.0087 52.2788 39.0954C52.3261 39.1388 52.3634 39.192 52.3881 39.2513C52.4128 39.3106 52.4243 39.3746 52.4218 39.4387C52.4241 39.5034 52.4128 39.5677 52.3885 39.6277C52.3642 39.6876 52.3276 39.7418 52.281 39.7866C52.187 39.8764 52.0418 39.9213 51.8456 39.9212H49.217V41.7006H52.1699C52.3689 41.7006 52.519 41.7468 52.6201 41.8394C52.6705 41.8863 52.7101 41.9436 52.7362 42.0073C52.7623 42.0711 52.7743 42.1397 52.7713 42.2084C52.7737 42.2759 52.7614 42.343 52.7353 42.4053C52.7092 42.4675 52.6699 42.5233 52.6201 42.5689C52.519 42.6616 52.369 42.7079 52.1699 42.7076H48.7261C48.4501 42.7076 48.2517 42.6464 48.1309 42.5241C48.0101 42.4017 47.9497 42.204 47.9496 41.9308V37.2285C47.944 37.0756 47.9717 36.9232 48.0308 36.7821C48.0817 36.67 48.172 36.5805 48.2846 36.5306C48.4244 36.4731 48.575 36.4461 48.7261 36.4514H52.0717C52.2736 36.4514 52.4237 36.4961 52.5219 36.5857C52.5705 36.6301 52.6088 36.6847 52.6343 36.7455C52.6597 36.8062 52.6716 36.8718 52.6691 36.9377C52.6718 37.0042 52.6601 37.0705 52.6347 37.132C52.6093 37.1935 52.5708 37.2488 52.5219 37.2939C52.4237 37.3842 52.2736 37.4292 52.0717 37.4291ZM58.0771 41.7218L57.0656 37.9706L56.0414 41.7218C55.9618 42.0065 55.8986 42.2107 55.8517 42.3344C55.7999 42.4646 55.7154 42.5792 55.6063 42.6671C55.474 42.7704 55.3089 42.8227 55.1412 42.8143C55.0071 42.8196 54.8739 42.7895 54.7551 42.727C54.6529 42.6675 54.5682 42.5821 54.5097 42.4793C54.4417 42.3602 54.3901 42.2325 54.356 42.0997C54.3161 41.9531 54.2804 41.8172 54.2491 41.6919L53.2079 37.4803C53.1554 37.2982 53.124 37.1106 53.1143 36.9212C53.1128 36.8449 53.1272 36.769 53.1566 36.6985C53.186 36.628 53.2297 36.5643 53.285 36.5116C53.3406 36.4569 53.4067 36.4139 53.4793 36.3853C53.5519 36.3567 53.6295 36.343 53.7075 36.3451C53.9379 36.3451 54.093 36.4191 54.1726 36.567C54.271 36.7714 54.3412 36.9882 54.3814 37.2114L55.2008 40.8643L56.1183 37.4462C56.1681 37.2437 56.2294 37.0442 56.3019 36.8486C56.3576 36.7095 56.4487 36.5873 56.5662 36.4943C56.7102 36.3879 56.8868 36.3351 57.0655 36.3449C57.2448 36.3338 57.4218 36.3893 57.5627 36.5008C57.6716 36.5915 57.7559 36.7081 57.8081 36.8399C57.8535 36.9623 57.9147 37.1643 57.9917 37.446L58.9176 40.8641L59.7369 37.2112C59.7668 37.06 59.8045 36.9105 59.85 36.7632C59.8867 36.653 59.9497 36.5534 60.0336 36.473C60.0848 36.4277 60.1446 36.3931 60.2094 36.3711C60.2742 36.3491 60.3428 36.3402 60.4111 36.3449C60.4885 36.3432 60.5656 36.3568 60.6377 36.385C60.7099 36.4132 60.7758 36.4554 60.8316 36.5091C60.8878 36.5617 60.9323 36.6256 60.9621 36.6966C60.9918 36.7676 61.0063 36.8441 61.0044 36.921C60.9931 37.1102 60.9617 37.2976 60.9108 37.4801L59.8696 41.6917C59.7984 41.9765 59.7393 42.185 59.6925 42.3172C59.6439 42.4516 59.5616 42.5714 59.4535 42.665C59.3188 42.7719 59.1492 42.825 58.9775 42.8141C58.8102 42.8225 58.6454 42.7712 58.5125 42.6692C58.404 42.5837 58.3201 42.471 58.2693 42.3426C58.2237 42.222 58.1596 42.015 58.0771 41.7218Z" fill="white"/>
<defs>
<filter id="filter0_dd_5227_93515" x="7.5" y="22" width="206" height="144" filterUnits="userSpaceOnUse" color-interpolation-filters="sRGB">
<feFlood flood-opacity="0" result="BackgroundImageFix"/>
<feColorMatrix in="SourceAlpha" type="matrix" values="0 0 0 0 0 0 0 0 0 0 0 0 0 0 0 0 0 0 127 0" result="hardAlpha"/>
<feMorphology radius="4" operator="erode" in="SourceAlpha" result="effect1_dropShadow_5227_93515"/>
<feOffset dy="8"/>
<feGaussianBlur stdDeviation="4"/>
<feColorMatrix type="matrix" values="0 0 0 0 0.0627451 0 0 0 0 0.0941176 0 0 0 0 0.156863 0 0 0 0.03 0"/>
<feBlend mode="normal" in2="BackgroundImageFix" result="effect1_dropShadow_5227_93515"/>
<feColorMatrix in="SourceAlpha" type="matrix" values="0 0 0 0 0 0 0 0 0 0 0 0 0 0 0 0 0 0 127 0" result="hardAlpha"/>
<feMorphology radius="4" operator="erode" in="SourceAlpha" result="effect2_dropShadow_5227_93515"/>
<feOffset dy="20"/>
<feGaussianBlur stdDeviation="12"/>
<feColorMatrix type="matrix" values="0 0 0 0 0.0627451 0 0 0 0 0.0941176 0 0 0 0 0.156863 0 0 0 0.08 0"/>
<feBlend mode="normal" in2="effect1_dropShadow_5227_93515" result="effect2_dropShadow_5227_93515"/>
<feBlend mode="normal" in="SourceGraphic" in2="effect2_dropShadow_5227_93515" result="shape"/>
</filter>
<linearGradient id="paint0_linear_5227_93515" x1="33.2809" y1="124.769" x2="30.258" y2="29.5842" gradientUnits="userSpaceOnUse">
<stop stop-color="#EDF0F6"/>
<stop offset="1" stop-color="#FCFDFF"/>
</linearGradient>
<clipPath id="clip0_5227_93515">
<rect width="48.1418" height="48.1418" fill="white" transform="translate(126.26 54.1448) rotate(45.2806)"/>
</clipPath>
<clipPath id="clip1_5227_93515">
<rect width="48.1418" height="48.1418" fill="white" transform="translate(60.5 77.8734) rotate(-45)"/>
</clipPath>
</defs>
</svg>
