<svg width="18" height="16" viewBox="0 0 18 16" fill="none" xmlns="http://www.w3.org/2000/svg">
<g clip-path="url(#clip0_7118_146726)">
<path fill-rule="evenodd" clip-rule="evenodd" d="M14.9337 10.3408C14.8005 13.4817 12.1813 15.988 8.96835 15.988C5.67022 15.988 2.99659 13.2586 2.99659 10.09C2.99659 9.66643 2.9889 8.82 3.63188 7.39192C4.01668 6.53727 4.25803 6.00036 4.39423 5.50957C4.46907 5.23983 4.61462 4.81128 5.02953 5.50957C5.27418 5.9213 5.28364 6.51349 5.28364 6.51349C5.28364 6.51349 6.19389 5.82361 6.80835 4.50565C7.70913 2.57354 6.99043 1.41859 6.74482 0.615452C6.65982 0.337617 6.60645 -0.161708 7.18953 0.0507465C7.78365 0.26728 9.35436 1.35321 10.1754 2.49781C11.3472 4.13137 11.7636 5.69781 11.7636 5.69781C11.7636 5.69781 12.1388 5.23788 12.2719 4.75663C12.4221 4.21319 12.4243 3.67497 12.9071 4.25473C13.3662 4.80607 14.0481 5.84218 14.4319 6.82722C15.1287 8.61602 14.9337 10.3408 14.9337 10.3408Z" fill="url(#paint0_linear_7118_146726)"/>
<path fill-rule="evenodd" clip-rule="evenodd" d="M8.96828 15.988C6.68764 15.988 4.83887 14.162 4.83887 11.9096C4.83887 10.5504 5.39342 9.72528 6.54755 8.60628C7.28653 7.88979 7.97817 7.00979 8.27212 6.41058C8.33 6.29262 8.4617 5.6779 8.96949 6.39765C9.23587 6.77513 9.65344 7.44644 9.92122 8.01936C10.3828 9.00716 10.493 9.96446 10.493 9.96446C10.493 9.96446 10.9454 9.70118 11.2553 9.02328C11.3553 8.80481 11.5573 7.9777 12.1221 8.80468C12.5365 9.41155 13.1058 10.5027 13.0977 11.9096C13.0977 14.162 11.2489 15.988 8.96828 15.988Z" fill="#FC9502"/>
<path fill-rule="evenodd" clip-rule="evenodd" d="M9.03165 11.5332C9.61929 11.5332 9.61929 12.608 10.3658 14.043C10.8628 14.9986 10.1193 15.9881 9.03165 15.9881C7.94396 15.9881 7.37988 15.1173 7.37988 14.043C7.37988 12.9688 8.444 11.5332 9.03165 11.5332Z" fill="#FCE202"/>
</g>
<defs>
<linearGradient id="paint0_linear_7118_146726" x1="8.97731" y1="15.9998" x2="8.97731" y2="0.0115935" gradientUnits="userSpaceOnUse">
<stop stop-color="#FF4C0D"/>
<stop offset="1" stop-color="#FC9502"/>
</linearGradient>
<clipPath id="clip0_7118_146726">
<rect width="18" height="16" fill="white"/>
</clipPath>
</defs>
</svg>
