<svg width="12" height="12" viewBox="0 0 12 12" fill="none" xmlns="http://www.w3.org/2000/svg">
<rect width="12" height="12" fill="white"/>
<path d="M9.75 4.125H2.25C2.04289 4.125 1.875 4.29289 1.875 4.5V9.75C1.875 9.95711 2.04289 10.125 2.25 10.125H9.75C9.95711 10.125 10.125 9.95711 10.125 9.75V4.5C10.125 4.29289 9.95711 4.125 9.75 4.125Z" stroke="#0B5CD7" stroke-width="1.3" stroke-linecap="round" stroke-linejoin="round"/>
<path d="M4.3125 4.125V2.4375C4.3125 1.98995 4.49029 1.56072 4.80676 1.24426C5.12323 0.92779 5.55245 0.75 6 0.75C6.44755 0.75 6.87677 0.92779 7.19324 1.24426C7.50971 1.56072 7.6875 1.98995 7.6875 2.4375V4.125" stroke="#0B5CD7" stroke-width="1.3" stroke-linecap="round" stroke-linejoin="round"/>
</svg>
