<svg width="24" height="25" viewBox="0 0 24 25" fill="none" xmlns="http://www.w3.org/2000/svg">
<g id="Media">
<path id="Vector" d="M20.25 5H3.75C3.33579 5 3 5.33579 3 5.75V19.25C3 19.6642 3.33579 20 3.75 20H20.25C20.6642 20 21 19.6642 21 19.25V5.75C21 5.33579 20.6642 5 20.25 5Z" stroke="#101828" stroke-width="2" stroke-linecap="round" stroke-linejoin="round"/>
<path id="Vector_2" d="M3 16.2499L7.71563 11.5343C7.78541 11.4634 7.8686 11.4072 7.96034 11.3687C8.05208 11.3303 8.15054 11.3105 8.25 11.3105C8.34946 11.3105 8.44792 11.3303 8.53966 11.3687C8.6314 11.4072 8.71459 11.4634 8.78437 11.5343L12.9656 15.7155C13.0354 15.7864 13.1186 15.8427 13.2103 15.8811C13.3021 15.9195 13.4005 15.9393 13.5 15.9393C13.5995 15.9393 13.6979 15.9195 13.7897 15.8811C13.8814 15.8427 13.9646 15.7864 14.0344 15.7155L15.9656 13.7843C16.0354 13.7134 16.1186 13.6572 16.2103 13.6187C16.3021 13.5803 16.4005 13.5605 16.5 13.5605C16.5995 13.5605 16.6979 13.5803 16.7897 13.6187C16.8814 13.6572 16.9646 13.7134 17.0344 13.7843L21 17.7499" stroke="#101828" stroke-width="2" stroke-linecap="round" stroke-linejoin="round"/>
<path id="Vector_3" d="M14.625 11C15.2463 11 15.75 10.4963 15.75 9.875C15.75 9.25368 15.2463 8.75 14.625 8.75C14.0037 8.75 13.5 9.25368 13.5 9.875C13.5 10.4963 14.0037 11 14.625 11Z" fill="#101828"/>
</g>
</svg>
