<svg width="25" height="24" viewBox="0 0 25 24" fill="none" xmlns="http://www.w3.org/2000/svg">
<path d="M6.5 15C8.15685 15 9.5 13.6569 9.5 12C9.5 10.3431 8.15685 9 6.5 9C4.84315 9 3.5 10.3431 3.5 12C3.5 13.6569 4.84315 15 6.5 15Z" stroke="#101828" stroke-width="1.5" stroke-linecap="round" stroke-linejoin="round"/>
<path d="M17 21.75C18.6569 21.75 20 20.4069 20 18.75C20 17.0931 18.6569 15.75 17 15.75C15.3431 15.75 14 17.0931 14 18.75C14 20.4069 15.3431 21.75 17 21.75Z" stroke="#101828" stroke-width="1.5" stroke-linecap="round" stroke-linejoin="round"/>
<path d="M17 8.25C18.6569 8.25 20 6.90685 20 5.25C20 3.59315 18.6569 2.25 17 2.25C15.3431 2.25 14 3.59315 14 5.25C14 6.90685 15.3431 8.25 17 8.25Z" stroke="#101828" stroke-width="1.5" stroke-linecap="round" stroke-linejoin="round"/>
<path d="M14.4777 6.87109L9.02148 10.3773" stroke="#101828" stroke-width="1.5" stroke-linecap="round" stroke-linejoin="round"/>
<path d="M9.02148 13.6211L14.4777 17.1273" stroke="#101828" stroke-width="1.5" stroke-linecap="round" stroke-linejoin="round"/>
</svg>
