<svg width="161" height="127" viewBox="0 0 161 127" fill="none" xmlns="http://www.w3.org/2000/svg">
<path fill-rule="evenodd" clip-rule="evenodd" d="M97.7791 114.083H56.974C54.1019 114.083 51.751 111.66 51.751 108.7V48.9176C51.751 45.9571 54.1019 43.5359 56.974 43.5359H97.7791C100.652 43.5359 103.003 45.9571 103.003 48.9176V108.7C103.003 111.66 100.652 114.083 97.7791 114.083Z" fill="#D0D5DD"/>
<path fill-rule="evenodd" clip-rule="evenodd" d="M94.2962 116.639H53.4911C50.619 116.639 48.2681 114.217 48.2681 111.256V51.474C48.2681 48.5135 50.619 46.0923 53.4911 46.0923H94.2962C97.1694 46.0923 99.5204 48.5135 99.5204 51.474V111.256C99.5204 114.217 97.1694 116.639 94.2962 116.639Z" fill="#E4E7EC"/>
<path fill-rule="evenodd" clip-rule="evenodd" d="M90.9079 118.657H50.0185C47.1405 118.657 44.7847 116.244 44.7847 113.296V53.7617C44.7847 50.8134 47.1405 48.4022 50.0185 48.4022H90.9079C93.7871 48.4022 96.1429 50.8134 96.1429 53.7617V113.296C96.1429 116.244 93.7871 118.657 90.9079 118.657Z" fill="#D8DBEA"/>
<path fill-rule="evenodd" clip-rule="evenodd" d="M90.9079 118.657H50.0185C47.1405 118.657 44.7847 116.244 44.7847 113.296V53.7617C44.7847 50.8134 47.1405 48.4022 50.0185 48.4022H90.9079C93.7871 48.4022 96.1429 50.8134 96.1429 53.7617V113.296C96.1429 116.244 93.7871 118.657 90.9079 118.657Z" fill="#F9FAFB"/>
<path fill-rule="evenodd" clip-rule="evenodd" d="M85.014 66.5406H54.8122C53.9497 66.5406 53.2437 65.8506 53.2437 65.0076C53.2437 64.1634 53.9497 63.4734 54.8122 63.4734H85.014C85.8765 63.4734 86.5825 64.1634 86.5825 65.0076C86.5825 65.8506 85.8765 66.5406 85.014 66.5406Z" fill="#E4E7EC"/>
<path fill-rule="evenodd" clip-rule="evenodd" d="M85.014 75.742H54.8122C53.9497 75.742 53.2437 75.052 53.2437 74.209C53.2437 73.3648 53.9497 72.6748 54.8122 72.6748H85.014C85.8765 72.6748 86.5825 73.3648 86.5825 74.209C86.5825 75.052 85.8765 75.742 85.014 75.742Z" fill="#E4E7EC"/>
<path fill-rule="evenodd" clip-rule="evenodd" d="M85.014 84.9433H54.8122C53.9497 84.9433 53.2437 84.2533 53.2437 83.4103C53.2437 82.5673 53.9497 81.8761 54.8122 81.8761H85.014C85.8765 81.8761 86.5825 82.5673 86.5825 83.4103C86.5825 84.2533 85.8765 84.9433 85.014 84.9433Z" fill="#E4E7EC"/>
<path fill-rule="evenodd" clip-rule="evenodd" d="M85.014 94.146H54.8122C53.9497 94.146 53.2437 93.4559 53.2437 92.6129C53.2437 91.7688 53.9497 91.0787 54.8122 91.0787H85.014C85.8765 91.0787 86.5825 91.7688 86.5825 92.6129C86.5825 93.4559 85.8765 94.146 85.014 94.146Z" fill="#E4E7EC"/>
<path fill-rule="evenodd" clip-rule="evenodd" d="M70.577 103.347H54.8189C53.9527 103.347 53.2437 102.657 53.2437 101.814C53.2437 100.97 53.9527 100.28 54.8189 100.28H70.577C71.4432 100.28 72.1523 100.97 72.1523 101.814C72.1523 102.657 71.4432 103.347 70.577 103.347Z" fill="#E4E7EC"/>
<path fill-rule="evenodd" clip-rule="evenodd" d="M102.382 91.4543C96.3426 97.6576 86.9932 98.3574 80.2056 93.568C79.3382 92.9449 78.5125 92.2451 77.7426 91.4543C77.3462 91.0484 76.9727 90.6296 76.6206 90.1886C75.9165 89.308 75.2998 88.3689 74.7946 87.3985C73.9043 85.7595 73.299 84.0204 72.9685 82.2228C71.9023 76.5853 73.4966 70.5173 77.7426 66.1571C81.9988 61.784 87.9062 60.1567 93.3945 61.2416C95.1433 61.5915 96.8377 62.2132 98.4333 63.1173C99.3792 63.648 100.281 64.2814 101.139 65.0047C101.567 65.365 101.975 65.75 102.37 66.1571C103.142 66.948 103.833 67.7948 104.428 68.6871C109.092 75.6579 108.409 85.2627 102.382 91.4543Z" fill="white" fill-opacity="0.1"/>
<path fill-rule="evenodd" clip-rule="evenodd" d="M100.691 90.2322C94.4083 96.6882 84.2263 96.687 77.9422 90.2322C71.6662 83.7846 71.6662 73.3229 77.9503 66.8681C84.2263 60.4205 94.4083 60.4205 100.684 66.8681C106.967 73.3229 106.967 83.7846 100.691 90.2322ZM103.916 63.551C95.8509 55.2657 82.7823 55.2657 74.7177 63.551C66.6541 71.8351 66.6471 85.2696 74.7106 93.555C82.0505 101.093 93.5548 101.773 101.646 95.5837C102.437 94.9783 103.198 94.2997 103.924 93.555C104.649 92.8091 105.309 92.0271 105.897 91.2152C111.922 82.901 111.254 71.0904 103.916 63.551Z" fill="#E0E2EE"/>
<path fill-rule="evenodd" clip-rule="evenodd" d="M135.654 124.787L135.316 125.135C133.076 127.437 129.408 127.437 127.167 125.135L106.484 103.887L114.972 95.1667L135.654 116.415C137.896 118.717 137.896 122.485 135.654 124.787Z" fill="url(#paint0_linear_8358_5446)" fill-opacity="0.69"/>
<path fill-rule="evenodd" clip-rule="evenodd" d="M106.344 90.5662L112.455 96.8451L108.116 101.302L102.006 95.0226C102.812 94.4049 103.588 93.7124 104.33 92.9525C105.069 92.1926 105.744 91.3947 106.344 90.5662Z" fill="#E4E7EC"/>
<path fill-rule="evenodd" clip-rule="evenodd" d="M135.344 116.155L126.911 124.818L125.393 123.257L133.825 114.594L135.344 116.155Z" fill="url(#paint1_linear_8358_5446)"/>
<path fill-rule="evenodd" clip-rule="evenodd" d="M115.441 95.4677L106.776 104.369L105.489 103.047L114.153 94.1453L115.441 95.4677Z" fill="url(#paint2_linear_8358_5446)"/>
<path fill-rule="evenodd" clip-rule="evenodd" d="M96.532 64.6471L75.2829 86.4764C74.4827 85.0029 73.9385 83.4394 73.6426 81.8233L92.0026 62.9608C93.5746 63.2766 95.0977 63.8344 96.532 64.6471Z" fill="white" fill-opacity="0.78"/>
<path fill-rule="evenodd" clip-rule="evenodd" d="M103.499 69.8364L80.526 92.1003C79.7033 91.5439 78.9203 90.9177 78.1901 90.2099C77.8141 89.8456 77.4587 89.472 77.126 89.0774L100.378 66.5399C100.785 66.8635 101.172 67.2081 101.547 67.5724C102.277 68.2801 102.934 69.0379 103.499 69.8364Z" fill="white" fill-opacity="0.78"/>
<rect width="10.6871" height="10.6871" transform="matrix(-0.697502 -0.716583 -0.697502 0.716583 160.012 90.7609)" fill="#F2F4F7"/>
<rect width="22.8664" height="22.8664" transform="matrix(0.697502 0.716583 -0.697502 0.716583 28.1187 0.138794)" fill="#F2F4F7"/>
<rect width="16.4317" height="16.4317" transform="matrix(0.697502 0.716583 -0.697502 0.716583 12.4487 42.2583)" fill="#F2F4F7"/>
<defs>
<linearGradient id="paint0_linear_8358_5446" x1="121.91" y1="79.3193" x2="101.203" y2="99.4746" gradientUnits="userSpaceOnUse">
<stop stop-color="#F9FAFB"/>
<stop offset="1" stop-color="#E0E2EE"/>
</linearGradient>
<linearGradient id="paint1_linear_8358_5446" x1="130.369" y1="109.481" x2="120.148" y2="119.43" gradientUnits="userSpaceOnUse">
<stop stop-color="#E0E2EE"/>
<stop offset="1" stop-color="#F9FAFB"/>
</linearGradient>
<linearGradient id="paint2_linear_8358_5446" x1="110.465" y1="89.0332" x2="100.244" y2="98.9815" gradientUnits="userSpaceOnUse">
<stop stop-color="#E0E2EE"/>
<stop offset="1" stop-color="#F9FAFB"/>
</linearGradient>
</defs>
</svg>
